<?xml version='1.0' encoding='UTF-8'?>
<svg width="0.42in" version="1.2" xmlns="http://www.w3.org/2000/svg" height="0.82in" viewBox="0 0 420 820" baseProfile="tiny">
 <desc>Fritzing footprint SVG</desc>
 <g id="silkscreen">
  <line stroke="white" y1="10" x1="10" y2="810" stroke-width="10" x2="10"/>
  <line stroke="white" y1="810" x1="10" y2="810" stroke-width="10" x2="410"/>
  <line stroke="white" y1="810" x1="410" y2="10" stroke-width="10" x2="410"/>
  <line stroke="white" y1="10" x1="10" y2="10" stroke-width="10" x2="160"/>
  <line stroke="white" y1="10" x1="260" y2="10" stroke-width="10" x2="410"/>
 </g>
 <g id="copper0">
  <rect width="55" x="32.5" y="32.5" fill="none" height="55" stroke="rgb(255, 191, 0)" stroke-width="20"/>
  <circle fill="none" cx="60" cy="60" stroke="rgb(255, 191, 0)" r="27.5" id="connector0pad" stroke-width="20"/>
  <circle fill="none" cx="60" cy="160" stroke="rgb(255, 191, 0)" r="27.5" id="connector1pad" stroke-width="20"/>
  <circle fill="none" cx="60" cy="260" stroke="rgb(255, 191, 0)" r="27.5" stroke-width="20"/>
  <circle fill="none" cx="60" cy="360" stroke="rgb(255, 191, 0)" r="27.5" id="connector3pad" stroke-width="20"/>
  <circle fill="none" cx="60" cy="460" stroke="rgb(255, 191, 0)" r="27.5" id="connector4pad" stroke-width="20"/>
  <circle fill="none" cx="60" cy="560" stroke="rgb(255, 191, 0)" r="27.5" id="connector5pad" stroke-width="20"/>
  <circle fill="none" cx="60" cy="660" stroke="rgb(255, 191, 0)" r="27.5" id="connector6pad" stroke-width="20"/>
  <circle fill="none" cx="60" cy="760" stroke="rgb(255, 191, 0)" r="27.5" stroke-width="20"/>
  <circle fill="none" cx="360" cy="760" stroke="rgb(255, 191, 0)" r="27.5" id="connector8pad" stroke-width="20"/>
  <circle fill="none" cx="360" cy="660" stroke="rgb(255, 191, 0)" r="27.5" id="connector9pad" stroke-width="20"/>
  <circle fill="none" cx="360" cy="560" stroke="rgb(255, 191, 0)" r="27.5" id="connector10pad" stroke-width="20"/>
  <circle fill="none" cx="360" cy="460" stroke="rgb(255, 191, 0)" r="27.5" id="connector11pad" stroke-width="20"/>
  <circle fill="none" cx="360" cy="360" stroke="rgb(255, 191, 0)" r="27.5" id="connector12pad" stroke-width="20"/>
  <circle fill="none" cx="360" cy="260" stroke="rgb(255, 191, 0)" r="27.5" id="connector13pad" stroke-width="20"/>
  <circle fill="none" cx="360" cy="160" stroke="rgb(255, 191, 0)" r="27.5" id="connector14pad" stroke-width="20"/>
  <circle fill="none" cx="360" cy="60" stroke="rgb(255, 191, 0)" r="27.5" id="connector15pad" stroke-width="20"/>
  <rect width="0.002" x="59.15356699734123" y="750.0391292921173" fill="none" height="0.002"/>
  <rect width="73.98589065255661" x="21.01704879482706" y="221.0170487948264" fill="none" height="73.98589065255723"/>
  <rect width="73.4126984126984" x="22.02380952380953" y="712.5222250899753" fill="none" height="74.18699186991864"/>
  <rect width="0.002" x="51.77994546258797" y="741.966229617768" fill="none" height="0.002" id="connector7terminal"/>
  <rect width="71.85899050978415" x="24.64953275950485" y="714.0739137515278" fill="none" height="73.38279683609841" id="connector7pad"/>
  <rect width="72.69841269841241" x="23.46938775510208" y="220.1587301587302" fill="none" height="72.6984126984124" id="connector2"/>
 </g>
 <g id="keepout"/>
 <g id="soldermask"/>
 <g id="outline"/>
</svg>
