<?xml version="1.0" encoding="utf-8"?>
<!-- Generator: Adobe Illustrator 16.0.0, SVG Export Plug-In . SVG Version: 6.00 Build 0)  -->
<!DOCTYPE svg PUBLIC "-//W3C//DTD SVG 1.1//EN" "http://www.w3.org/Graphics/SVG/1.1/DTD/svg11.dtd">
<svg version="1.1" id="svg2" xmlns="http://www.w3.org/2000/svg" xmlns:xlink="http://www.w3.org/1999/xlink" x="0px" y="0px"
	 width="56.693px" height="60.236px" viewBox="0 0 56.693 60.236" enable-background="new 0 0 56.693 60.236" xml:space="preserve">
<g id="silkscreen">
	<path id="path2987" fill="none" stroke="#FFFFFF" stroke-width="1.8602" stroke-linecap="square" stroke-miterlimit="1" d="
		M55.793,31.89c0,15.158-12.288,27.445-27.446,27.445S0.9,47.048,0.9,31.89c0-15.158,12.288-27.446,27.446-27.446
		S55.793,16.732,55.793,31.89z"/>
	<path id="path3884" fill="none" stroke="#FFFFFF" stroke-width="1.4386" stroke-linecap="square" stroke-miterlimit="1" d="
		M17.717,50.481h21.26l7.087-3.544V11.504H10.631v35.433L17.717,50.481z"/>
	<path id="path3886" fill="none" stroke="#FFFFFF" stroke-width="1.4386" stroke-linecap="square" stroke-miterlimit="1" d="
		M14.174,14.872v7.087h28.346v-7.087H14.174"/>
</g>
<g id="copper1">
	<g id="copper0">
		<path id="NC2" fill="none" stroke="#FF9600" stroke-width="1.0238" stroke-linecap="square" stroke-miterlimit="1" d="
			M47.577,41.114c0.001,1.348-1.09,2.439-2.437,2.44c-1.348,0.001-2.439-1.091-2.44-2.437c0-0.002,0-0.002,0-0.004
			c-0.001-1.347,1.09-2.439,2.437-2.439c1.348-0.002,2.439,1.09,2.44,2.437C47.577,41.112,47.577,41.113,47.577,41.114z"/>
		<path id="NC1" fill="none" stroke="#FF9600" stroke-width="1.0238" stroke-linecap="square" stroke-miterlimit="1" d="
			M13.986,41.095c0.001,1.348-1.09,2.439-2.438,2.441c-1.347,0-2.439-1.091-2.439-2.438c0-0.001,0-0.002,0-0.004
			c-0.001-1.346,1.09-2.439,2.437-2.439c1.347-0.001,2.439,1.09,2.44,2.438V41.095z"/>
		<path id="rect3954" fill="#FF9600" d="M11.531,0v7.094h5.313V0H11.531z M14.187,1.594c1.076,0,1.938,0.861,1.938,1.938
			S15.263,5.5,14.187,5.5s-1.969-0.893-1.969-1.969S13.111,1.594,14.187,1.594z"/>
		<path id="connector3pin" fill="none" stroke="#FE9000" stroke-width="0.5323" stroke-linejoin="round" d="M11.665-0.257h5.045
			v7.607h-5.045V-0.257z"/>
		<path id="rect3954-0" fill="#FF9600" d="M18.603-0.003V7.09h5.313v-7.094H18.603z M21.26,1.59c1.076,0,1.938,0.861,1.938,1.938
			c0,1.076-0.861,1.969-1.938,1.969s-1.969-0.893-1.969-1.969C19.291,2.451,20.183,1.59,21.26,1.59z"/>
		<path id="connector4pin" fill="none" stroke="#FE9000" stroke-width="0.5323" stroke-linejoin="round" d="M18.737-0.26h5.045
			v7.607h-5.045V-0.26z"/>
		<path id="rect3954-8" fill="#FF9600" d="M25.69-0.003V7.09h5.313v-7.094H25.69z M28.346,1.59c1.076,0,1.938,0.861,1.938,1.938
			c0,1.076-0.861,1.969-1.938,1.969s-1.969-0.893-1.969-1.969C26.378,2.451,27.27,1.59,28.346,1.59z"/>
		<path id="connector2pin" fill="none" stroke="#FE9000" stroke-width="0.5323" stroke-linejoin="round" d="M25.824-0.26h5.045
			v7.607h-5.045V-0.26z"/>
		<path id="rect3954-7" fill="#FF9600" d="M32.777-0.003V7.09h5.313v-7.094H32.777z M35.433,1.59c1.076,0,1.938,0.861,1.938,1.938
			c0,1.076-0.861,1.969-1.938,1.969s-1.969-0.893-1.969-1.969C33.465,2.451,34.357,1.59,35.433,1.59z"/>
		<path id="connector1pin" fill="none" stroke="#FE9000" stroke-width="0.5323" stroke-linejoin="round" d="M32.911-0.26h5.045
			v7.607h-5.045V-0.26z"/>
		<path id="rect3954-3" fill="#FF9600" d="M39.863-0.003V7.09h5.313v-7.094H39.863z M42.519,1.59c1.077,0,1.938,0.861,1.938,1.938
			c0,1.076-0.86,1.969-1.938,1.969c-1.076,0-1.969-0.893-1.969-1.969C40.551,2.451,41.443,1.59,42.519,1.59z"/>
		<path id="connector0pin" fill="none" stroke="#FE9000" stroke-width="0.5323" stroke-linejoin="round" d="M39.997-0.26h5.045
			v7.607h-5.045V-0.26z"/>
	</g>
</g>
</svg>
