<?xml version='1.0' encoding='UTF-8' standalone='no'?>
<!-- Created with Fritzing (http://www.fritzing.org/) -->
<svg xmlns="http://www.w3.org/2000/svg"  width="0.7in" x="0in" version="1.2" y="0in" height="0.7in" viewBox="0 0 50.4 50.4" baseProfile="tiny" id="0">
 <desc   id="0.0" oldid="0.0">
  <referenceFile   id="0.0.0" oldid="0.0.0">HIH6130_pcb.svg</referenceFile>
 </desc>
 <g   id="0.1" partID="150621">
  <g   id="copper1" stroke-width="0">
   <g   id="copper0" stroke-width="0">
    <circle  fill="none" cx="5.4"  cy="7.2" connectorname="ST" stroke="#F7BD13" r="2.052" id="connector8pad" stroke-width="1.224"/>
    <circle  fill="none" cx="5.4"  cy="14.4" connectorname="ZOUT" stroke="#F7BD13" r="2.052" id="connector9pad" stroke-width="1.224"/>
    <circle  fill="none" cx="5.4"  cy="21.6" connectorname="YOUT" stroke="#F7BD13" r="2.052" id="connector10pad" stroke-width="1.224"/>
    <circle  fill="none" cx="5.4"  cy="28.8" connectorname="XOUT" stroke="#F7BD13" r="2.052" id="connector11pad" stroke-width="1.224"/>
    <circle  fill="none" cx="5.4"  cy="36" connectorname="GND" stroke="#F7BD13" r="2.052" id="connector12pad" stroke-width="1.224"/>
    <circle  fill="none" cx="5.4"  cy="43.2" connectorname="VCC" stroke="#F7BD13" r="2.052" id="connector13pad" stroke-width="1.224"/>
   </g>
  </g>
 </g>
 <g   id="0.2" partID="150622">
  <g   id="silkscreen" stroke-width="0">
   <path  fill="none"  stroke="white" id="0.2.0.0" stroke-width="0.576" d="M0.288,50.112L50.056,50.112L50.112,0.288L0.288,0.288L0.288,50.112"/>
   <g   id="0.2.0.1" stroke-width="0">
    <title   id="0.2.0.1.0" oldid="0.2.0.1.0">element:SL1</title>
    <g   id="0.2.0.1.1" stroke-width="0">
     <title   id="0.2.0.1.1.0" oldid="0.2.0.1.1.0">package:1X06</title>
     <line   stroke="white" stroke-linecap="round" id="0.2.0.1.1.1" y1="39.6" x1="7.2" y2="41.4" stroke-width="0.576" x2="9"/>
     <line   stroke="white" stroke-linecap="round" id="0.2.0.1.1.2" y1="41.4" x1="9" y2="45" stroke-width="0.576" x2="9"/>
     <line   stroke="white" stroke-linecap="round" id="0.2.0.1.1.3" y1="45" x1="9" y2="46.8" stroke-width="0.576" x2="7.2"/>
     <line   stroke="white" stroke-linecap="round" id="0.2.0.1.1.4" y1="46.8" x1="3.6" y2="45" stroke-width="0.576" x2="1.8"/>
     <line   stroke="white" stroke-linecap="round" id="0.2.0.1.1.5" y1="45" x1="1.8" y2="41.4" stroke-width="0.576" x2="1.8"/>
     <line   stroke="white" stroke-linecap="round" id="0.2.0.1.1.6" y1="41.4" x1="1.8" y2="39.6" stroke-width="0.576" x2="3.6"/>
     <line   stroke="white" stroke-linecap="round" id="0.2.0.1.1.7" y1="27" x1="9" y2="30.6" stroke-width="0.576" x2="9"/>
     <line   stroke="white" stroke-linecap="round" id="0.2.0.1.1.8" y1="30.6" x1="9" y2="32.4" stroke-width="0.576" x2="7.2"/>
     <line   stroke="white" stroke-linecap="round" id="0.2.0.1.1.9" y1="32.4" x1="3.6" y2="30.6" stroke-width="0.576" x2="1.8"/>
     <line   stroke="white" stroke-linecap="round" id="0.2.0.1.1.10" y1="32.4" x1="7.2" y2="34.2" stroke-width="0.576" x2="9"/>
     <line   stroke="white" stroke-linecap="round" id="0.2.0.1.1.11" y1="34.2" x1="9" y2="37.8" stroke-width="0.576" x2="9"/>
     <line   stroke="white" stroke-linecap="round" id="0.2.0.1.1.12" y1="37.8" x1="9" y2="39.6" stroke-width="0.576" x2="7.2"/>
     <line   stroke="white" stroke-linecap="round" id="0.2.0.1.1.13" y1="39.6" x1="3.6" y2="37.8" stroke-width="0.576" x2="1.8"/>
     <line   stroke="white" stroke-linecap="round" id="0.2.0.1.1.14" y1="37.8" x1="1.8" y2="34.2" stroke-width="0.576" x2="1.8"/>
     <line   stroke="white" stroke-linecap="round" id="0.2.0.1.1.15" y1="34.2" x1="1.8" y2="32.4" stroke-width="0.576" x2="3.6"/>
     <line   stroke="white" stroke-linecap="round" id="0.2.0.1.1.16" y1="18" x1="7.2" y2="19.8" stroke-width="0.576" x2="9"/>
     <line   stroke="white" stroke-linecap="round" id="0.2.0.1.1.17" y1="19.8" x1="9" y2="23.4" stroke-width="0.576" x2="9"/>
     <line   stroke="white" stroke-linecap="round" id="0.2.0.1.1.18" y1="23.4" x1="9" y2="25.2" stroke-width="0.576" x2="7.2"/>
     <line   stroke="white" stroke-linecap="round" id="0.2.0.1.1.19" y1="25.2" x1="3.6" y2="23.4" stroke-width="0.576" x2="1.8"/>
     <line   stroke="white" stroke-linecap="round" id="0.2.0.1.1.20" y1="23.4" x1="1.8" y2="19.8" stroke-width="0.576" x2="1.8"/>
     <line   stroke="white" stroke-linecap="round" id="0.2.0.1.1.21" y1="19.8" x1="1.8" y2="18" stroke-width="0.576" x2="3.6"/>
     <line   stroke="white" stroke-linecap="round" id="0.2.0.1.1.22" y1="27" x1="9" y2="25.2" stroke-width="0.576" x2="7.2"/>
     <line   stroke="white" stroke-linecap="round" id="0.2.0.1.1.23" y1="25.2" x1="3.6" y2="27" stroke-width="0.576" x2="1.8"/>
     <line   stroke="white" stroke-linecap="round" id="0.2.0.1.1.24" y1="30.6" x1="1.8" y2="27" stroke-width="0.576" x2="1.8"/>
     <line   stroke="white" stroke-linecap="round" id="0.2.0.1.1.25" y1="5.4" x1="9" y2="9" stroke-width="0.576" x2="9"/>
     <line   stroke="white" stroke-linecap="round" id="0.2.0.1.1.26" y1="9" x1="9" y2="10.8" stroke-width="0.576" x2="7.2"/>
     <line   stroke="white" stroke-linecap="round" id="0.2.0.1.1.27" y1="10.8" x1="3.6" y2="9" stroke-width="0.576" x2="1.8"/>
     <line   stroke="white" stroke-linecap="round" id="0.2.0.1.1.28" y1="10.8" x1="7.2" y2="12.6" stroke-width="0.576" x2="9"/>
     <line   stroke="white" stroke-linecap="round" id="0.2.0.1.1.29" y1="12.6" x1="9" y2="16.2" stroke-width="0.576" x2="9"/>
     <line   stroke="white" stroke-linecap="round" id="0.2.0.1.1.30" y1="16.2" x1="9" y2="18" stroke-width="0.576" x2="7.2"/>
     <line   stroke="white" stroke-linecap="round" id="0.2.0.1.1.31" y1="18" x1="3.6" y2="16.2" stroke-width="0.576" x2="1.8"/>
     <line   stroke="white" stroke-linecap="round" id="0.2.0.1.1.32" y1="16.2" x1="1.8" y2="12.6" stroke-width="0.576" x2="1.8"/>
     <line   stroke="white" stroke-linecap="round" id="0.2.0.1.1.33" y1="12.6" x1="1.8" y2="10.8" stroke-width="0.576" x2="3.6"/>
     <line   stroke="white" stroke-linecap="round" id="0.2.0.1.1.34" y1="3.6" x1="7.2" y2="3.6" stroke-width="0.576" x2="3.6"/>
     <line   stroke="white" stroke-linecap="round" id="0.2.0.1.1.35" y1="5.4" x1="9" y2="3.6" stroke-width="0.576" x2="7.2"/>
     <line   stroke="white" stroke-linecap="round" id="0.2.0.1.1.36" y1="3.6" x1="3.6" y2="5.4" stroke-width="0.576" x2="1.8"/>
     <line   stroke="white" stroke-linecap="round" id="0.2.0.1.1.37" y1="9" x1="1.8" y2="5.4" stroke-width="0.576" x2="1.8"/>
     <line   stroke="white" stroke-linecap="round" id="0.2.0.1.1.38" y1="46.8" x1="7.2" y2="46.8" stroke-width="0.576" x2="3.6"/>
    </g>
   </g>
   <g   id="0.2.0.2" stroke-width="0">
    <title   id="0.2.0.2.0" oldid="0.2.0.2.0">element:U$2</title>
    <g   id="0.2.0.2.1" stroke-width="0">
     <title   id="0.2.0.2.1.0" oldid="0.2.0.2.1.0">package:SFE-NEW-WEBLOGO</title>
    </g>
   </g>
   <g   id="0.2.0.3" stroke-width="0">
    <title   id="0.2.0.3.0" oldid="0.2.0.3.0">element:U$4</title>
    <g   id="0.2.0.3.1" stroke-width="0">
     <title   id="0.2.0.3.1.0" oldid="0.2.0.3.1.0">package:LFCSP-16</title>
     <line   stroke="white" stroke-linecap="round" id="0.2.0.3.1.1" y1="30.8693" x1="29.452" y2="29.452" stroke-width="0.576" x2="30.8693"/>
     <line   stroke="white" stroke-linecap="round" id="0.2.0.3.1.2" y1="30.8693" x1="20.948" y2="30.8693" stroke-width="0.576" x2="19.5307"/>
     <line   stroke="white" stroke-linecap="round" id="0.2.0.3.1.3" y1="30.8693" x1="19.5307" y2="29.452" stroke-width="0.576" x2="19.5307"/>
     <line   stroke="white" stroke-linecap="round" id="0.2.0.3.1.4" y1="20.948" x1="19.5307" y2="19.5307" stroke-width="0.576" x2="19.5307"/>
     <line   stroke="white" stroke-linecap="round" id="0.2.0.3.1.5" y1="19.5307" x1="19.5307" y2="19.5307" stroke-width="0.576" x2="20.948"/>
     <line   stroke="white" stroke-linecap="round" id="0.2.0.3.1.6" y1="19.5307" x1="29.452" y2="19.5307" stroke-width="0.576" x2="30.8693"/>
     <line   stroke="white" stroke-linecap="round" id="0.2.0.3.1.7" y1="19.5307" x1="30.8693" y2="20.948" stroke-width="0.576" x2="30.8693"/>
    </g>
   </g>
  </g>
 </g>
</svg>
