<?xml version='1.0' encoding='UTF-8' standalone='no'?>
<svg xmlns="http://www.w3.org/2000/svg"  width="347.24408" x="0in" version="1.2" y="0in" height="212.59842" viewBox="0 0 38582.677 23622.047" id="0">
 <desc   id="0.0">
  <referenceFile   id="0.0.0">LCD-20x4_pcb.svg</referenceFile>
 </desc>
 <defs   id="0.1" oldid="defs3213"/>
 <title   id="0.2" oldid="title3098">LCD20x4_PCB_Angelo</title>
 <desc   id="0.3" oldid="desc3100">Kicad module 'SparkFun-LCD-16X2' from file 'SparkFun.mod' converted by Fritzing</desc>
 <metadata   id="0.4" oldid="metadata3102">
  <rdf:RDF xmlns:rdf="http://www.w3.org/1999/02/22-rdf-syntax-ns#"  id="0.4.0">
   <rdf:Description xmlns:rdf="http://www.w3.org/1999/02/22-rdf-syntax-ns#"  rdf:about="" id="0.4.0.0">
    <fz:attr xmlns:fz="http://fritzing.org/kicadmetadata/1.0/"  id="0.4.0.0.0" name="kicad filename">SparkFun.mod</fz:attr>
    <fz:attr xmlns:fz="http://fritzing.org/kicadmetadata/1.0/"  id="0.4.0.0.1" name="kicad module">SparkFun-LCD-16X2</fz:attr>
    <fz:attr xmlns:fz="http://fritzing.org/kicadmetadata/1.0/"  id="0.4.0.0.2" name="fritzing version">0.4.1b.07.04.4318</fz:attr>
    <fz:attr xmlns:fz="http://fritzing.org/kicadmetadata/1.0/"  id="0.4.0.0.3" name="conversion date">17/07/2010 17:16:06</fz:attr>
    <fz:attr xmlns:fz="http://fritzing.org/kicadmetadata/1.0/"  id="0.4.0.0.4" name="dist-license">GPL</fz:attr>
    <fz:attr xmlns:fz="http://fritzing.org/kicadmetadata/1.0/"  id="0.4.0.0.5" name="use-license">unlimited</fz:attr>
    <fz:attr xmlns:fz="http://fritzing.org/kicadmetadata/1.0/"  id="0.4.0.0.6" name="author">KICAD project</fz:attr>
    <fz:attr xmlns:fz="http://fritzing.org/kicadmetadata/1.0/"  id="0.4.0.0.7" name="license-url">http://www.gnu.org/licenses/gpl.html</fz:attr>
    <fz:comment xmlns:fz="http://fritzing.org/kicadmetadata/1.0/"  id="0.4.0.0.8"/>
    <fz:attr xmlns:fz="http://fritzing.org/kicadmetadata/1.0/"  id="0.4.0.0.9" name="keyword"/>
   </rdf:Description>
   <cc:Work xmlns:cc="http://creativecommons.org/ns#"  rdf:about="" xmlns:rdf="http://www.w3.org/1999/02/22-rdf-syntax-ns#" id="0.4.0.1">
    <dc:format xmlns:dc="http://purl.org/dc/elements/1.1/"  id="0.4.0.1.0">image/svg+xml</dc:format>
    <dc:type xmlns:dc="http://purl.org/dc/elements/1.1/"  id="0.4.0.1.1" rdf:resource="http://purl.org/dc/dcmitype/StillImage" xmlns:rdf="http://www.w3.org/1999/02/22-rdf-syntax-ns#"/>
    <dc:title xmlns:dc="http://purl.org/dc/elements/1.1/"  id="0.4.0.1.2">LCD20x4_PCB_Angelo</dc:title>
   </cc:Work>
  </rdf:RDF>
 </metadata>
 <g   id="copper0" transform="translate(0,9450.0474)">
  <g   id="copper1" transform="translate(787.40171,-9606.4892)">
   <g   connectorname="1" id="connector0pin">
    <circle  fill="none" cx="3150"  cy="984" stroke="#ff9400" r="250" id="circle3107" stroke-width="100" d="m 3400,984 c 0,138.0712 -111.9288,250 -250,250 -138.0712,0 -250,-111.9288 -250,-250 0,-138.07119 111.9288,-250 250,-250 138.0712,0 250,111.92881 250,250 z"/>
    <line  fill="none"  stroke="#ff9400" id="line3109" y1="734" x1="2850" y2="734" stroke-width="100" x2="3450"/>
    <line  fill="none"  stroke="#ff9400" id="line3111" y1="1234" x1="2850" y2="1234" stroke-width="100" x2="3450"/>
    <line  fill="none"  stroke="#ff9400" id="line3113" y1="684" x1="2900" y2="1284" stroke-width="100" x2="2900"/>
    <line  fill="none"  stroke="#ff9400" id="line3115" y1="684" x1="3400" y2="1284" stroke-width="100" x2="3400"/>
   </g>
   <g   connectorname="2" id="connector1pin">
    <circle  fill="none" cx="4150"  cy="984" stroke="#ff9400" r="250" id="circle3118" stroke-width="100" d="m 4400,984 c 0,138.0712 -111.9288,250 -250,250 -138.0712,0 -250,-111.9288 -250,-250 0,-138.07119 111.9288,-250 250,-250 138.0712,0 250,111.92881 250,250 z"/>
   </g>
   <g   connectorname="3" id="connector2pin">
    <circle  fill="none" cx="5150"  cy="984" stroke="#ff9400" r="250" id="circle3121" stroke-width="100" d="m 5400,984 c 0,138.0712 -111.9288,250 -250,250 -138.0712,0 -250,-111.9288 -250,-250 0,-138.07119 111.9288,-250 250,-250 138.0712,0 250,111.92881 250,250 z"/>
   </g>
   <g   connectorname="4" id="connector3pin">
    <circle  fill="none" cx="6150"  cy="984" stroke="#ff9400" r="250" id="circle3124" stroke-width="100" d="m 6400,984 c 0,138.0712 -111.9288,250 -250,250 -138.0712,0 -250,-111.9288 -250,-250 0,-138.07119 111.9288,-250 250,-250 138.0712,0 250,111.92881 250,250 z"/>
   </g>
   <g   connectorname="5" id="connector4pin">
    <circle  fill="none" cx="7150"  cy="984" stroke="#ff9400" r="250" id="circle3127" stroke-width="100" d="m 7400,984 c 0,138.0712 -111.9288,250 -250,250 -138.0712,0 -250,-111.9288 -250,-250 0,-138.07119 111.9288,-250 250,-250 138.0712,0 250,111.92881 250,250 z"/>
   </g>
   <g   connectorname="6" id="connector5pin">
    <circle  fill="none" cx="8150"  cy="984" stroke="#ff9400" r="250" id="circle3130" stroke-width="100" d="m 8400,984 c 0,138.0712 -111.9288,250 -250,250 -138.0712,0 -250,-111.9288 -250,-250 0,-138.07119 111.9288,-250 250,-250 138.0712,0 250,111.92881 250,250 z"/>
   </g>
   <g   connectorname="7" id="connector6pin">
    <circle  fill="none" cx="9150"  cy="984" stroke="#ff9400" r="250" id="circle3133" stroke-width="100" d="m 9400,984 c 0,138.0712 -111.9288,250 -250,250 -138.0712,0 -250,-111.9288 -250,-250 0,-138.07119 111.9288,-250 250,-250 138.0712,0 250,111.92881 250,250 z"/>
   </g>
   <g   connectorname="8" id="connector7pin">
    <circle  fill="none" cx="10150"  cy="984" stroke="#ff9400" r="250" id="circle3136" stroke-width="100" d="m 10400,984 c 0,138.0712 -111.929,250 -250,250 -138.071,0 -250,-111.9288 -250,-250 0,-138.07119 111.929,-250 250,-250 138.071,0 250,111.92881 250,250 z"/>
   </g>
   <g   connectorname="9" id="connector8pin">
    <circle  fill="none" cx="11150"  cy="984" stroke="#ff9400" r="250" id="circle3139" stroke-width="100" d="m 11400,984 c 0,138.0712 -111.929,250 -250,250 -138.071,0 -250,-111.9288 -250,-250 0,-138.07119 111.929,-250 250,-250 138.071,0 250,111.92881 250,250 z"/>
   </g>
   <g   connectorname="10" id="connector9pin">
    <circle  fill="none" cx="12150"  cy="984" stroke="#ff9400" r="250" id="circle3142" stroke-width="100" d="m 12400,984 c 0,138.0712 -111.929,250 -250,250 -138.071,0 -250,-111.9288 -250,-250 0,-138.07119 111.929,-250 250,-250 138.071,0 250,111.92881 250,250 z"/>
   </g>
   <g   connectorname="11" id="connector10pin">
    <circle  fill="none" cx="13150"  cy="984" stroke="#ff9400" r="250" id="circle3145" stroke-width="100" d="m 13400,984 c 0,138.0712 -111.929,250 -250,250 -138.071,0 -250,-111.9288 -250,-250 0,-138.07119 111.929,-250 250,-250 138.071,0 250,111.92881 250,250 z"/>
   </g>
   <g   connectorname="12" id="connector11pin">
    <circle  fill="none" cx="14150"  cy="984" stroke="#ff9400" r="250" id="circle3148" stroke-width="100" d="m 14400,984 c 0,138.0712 -111.929,250 -250,250 -138.071,0 -250,-111.9288 -250,-250 0,-138.07119 111.929,-250 250,-250 138.071,0 250,111.92881 250,250 z"/>
   </g>
   <g   connectorname="13" id="connector12pin">
    <circle  fill="none" cx="15150"  cy="984" stroke="#ff9400" r="250" id="circle3151" stroke-width="100" d="m 15400,984 c 0,138.0712 -111.929,250 -250,250 -138.071,0 -250,-111.9288 -250,-250 0,-138.07119 111.929,-250 250,-250 138.071,0 250,111.92881 250,250 z"/>
   </g>
   <g   connectorname="14" id="connector13pin">
    <circle  fill="none" cx="16149"  cy="984" stroke="#ff9400" r="250" id="circle3154" stroke-width="100" d="m 16399,984 c 0,138.0712 -111.929,250 -250,250 -138.071,0 -250,-111.9288 -250,-250 0,-138.07119 111.929,-250 250,-250 138.071,0 250,111.92881 250,250 z"/>
   </g>
   <g   connectorname="15" id="connector14pin">
    <circle  fill="none" cx="17149"  cy="984" stroke="#ff9400" r="250" id="circle3157" stroke-width="100" d="m 17399,984 c 0,138.0712 -111.929,250 -250,250 -138.071,0 -250,-111.9288 -250,-250 0,-138.07119 111.929,-250 250,-250 138.071,0 250,111.92881 250,250 z"/>
   </g>
   <g   connectorname="16" id="connector15pin">
    <circle  fill="none" cx="18149"  cy="984" stroke="#ff9400" r="250" id="circle3160" stroke-width="100" d="m 18399,984 c 0,138.0712 -111.929,250 -250,250 -138.071,0 -250,-111.9288 -250,-250 0,-138.07119 111.929,-250 250,-250 138.071,0 250,111.92881 250,250 z"/>
   </g>
  </g>
 </g>
 <g   id="silkscreen" transform="translate(0,9450.0474)">
  <line  fill="none"  stroke="#ffffff" id="line3163" y1="-9411.125" x1="8.9141741" y2="-9411.125" stroke-width="88.47064209" x2="38527.805"/>
  <line  fill="none"  stroke="#ffffff" id="line3165" y1="-9395.5957" x1="38540.445" y2="14145.565" stroke-width="103.10705566" x2="38540.445"/>
  <line  fill="none"  stroke="#ffffff" id="line3167" y1="14172" x1="38496.457" y2="14172" stroke-width="88.43466949" x2="8.8793211"/>
  <line  fill="none"  stroke="#ffffff" id="line3169" y1="14145.618" x1="0" y2="-9373.4219" stroke-width="103.05859375" x2="0"/>
  <line  fill="none"  stroke="#ffffff" id="line3171" y1="-5559.5366" x1="369.50989" y2="-5559.5366" stroke-width="92.9931488" x2="38297.891"/>
  <line  fill="none"  stroke="#ffffff" id="line3173" y1="-5457.1191" x1="38365.594" y2="10180.959" stroke-width="98.31676483" x2="38365.594"/>
  <line  fill="none"  stroke="#ffffff" id="line3175" y1="10194.992" x1="38297.957" y2="10194.992" stroke-width="92.96846771" x2="389.70062"/>
  <line  fill="none"  stroke="#ffffff" id="line3177" y1="10196.604" x1="346.33334" y2="-5557.0098" stroke-width="98.67927551" x2="346.33334"/>
  <line  fill="none"  stroke="#ffffff" id="line3179" y1="-2756.147" x1="4393.1504" y2="-2756.147" stroke-width="83.85151672" x2="32288.947"/>
  <line  fill="none"  stroke="#ffffff" id="line3181" y1="-2696.4031" x1="32323.465" y2="7461.7598" stroke-width="100.34967041" x2="32323.465"/>
  <line  fill="none"  stroke="#ffffff" id="line3183" y1="7518.6562" x1="32268.715" y2="7518.6562" stroke-width="83.85159302" x2="4372.8667"/>
  <line  fill="none"  stroke="#ffffff" id="line3185" y1="7530.1147" x1="4370.709" y2="-2737.8806" stroke-width="100.89067841" x2="4370.709"/>
  <g   id="0.6.12" transform="translate(19.4602,-9448.7447)">
   <circle  fill="none" cx="985"  cy="984" stroke="#ffffff" r="388.909" id="circle3187" stroke-width="50" d="m 1373.909,984 c 0,214.7885 -174.1205,388.909 -388.909,388.909 -214.78851,0 -388.909,-174.1205 -388.909,-388.909 0,-214.78851 174.12049,-388.909 388.909,-388.909 214.7885,0 388.909,174.12049 388.909,388.909 z"/>
  </g>
  <line  fill="none"  stroke="#ffffff" id="line3189" y1="-8464.8125" x1="434" y2="-8464.8125" stroke-width="50" x2="1536"/>
  <line  fill="none"  stroke="#ffffff" id="line3191" y1="-7913.6309" x1="984.84253" y2="-9015.6309" stroke-width="50" x2="984.84253"/>
  <g   id="0.6.15" transform="translate(19.4602,-20.460356)">
   <circle  fill="none" cx="985"  cy="13188" stroke="#ffffff" r="388.909" id="circle3193" stroke-width="50" d="m 1373.909,13188 c 0,214.789 -174.1205,388.909 -388.909,388.909 -214.78851,0 -388.909,-174.12 -388.909,-388.909 0,-214.789 174.12049,-388.909 388.909,-388.909 214.7885,0 388.909,174.12 388.909,388.909 z"/>
  </g>
  <line  fill="none"  stroke="#ffffff" id="line3195" y1="13188" x1="434" y2="13188" stroke-width="50" x2="1536"/>
  <line  fill="none"  stroke="#ffffff" id="line3197" y1="13739" x1="985" y2="12637" stroke-width="50" x2="985"/>
  <g   id="0.6.18" transform="translate(7126.1388,-9448.7447)">
   <circle  fill="none" cx="30511"  cy="984" stroke="#ffffff" r="388.909" id="circle3199" stroke-width="50" d="m 30899.909,984 c 0,214.7885 -174.12,388.909 -388.909,388.909 -214.789,0 -388.909,-174.1205 -388.909,-388.909 0,-214.78851 174.12,-388.909 388.909,-388.909 214.789,0 388.909,174.12049 388.909,388.909 z"/>
  </g>
  <line  fill="none"  stroke="#ffffff" id="line3201" y1="-8464.8125" x1="37046.656" y2="-8464.8125" stroke-width="50" x2="38148.656"/>
  <line  fill="none"  stroke="#ffffff" id="line3203" y1="-7913.6309" x1="37636.812" y2="-9015.6309" stroke-width="50" x2="37636.812"/>
  <g   id="0.6.21" transform="translate(7008.0285,0)">
   <circle  fill="none" cx="30511"  cy="13188" stroke="#ffffff" r="388.909" id="circle3205" stroke-width="50" d="m 30899.909,13188 c 0,214.789 -174.12,388.909 -388.909,388.909 -214.789,0 -388.909,-174.12 -388.909,-388.909 0,-214.789 174.12,-388.909 388.909,-388.909 214.789,0 388.909,174.12 388.909,388.909 z"/>
  </g>
  <line  fill="none"  stroke="#ffffff" id="line3207" y1="13188" x1="36967.895" y2="13188" stroke-width="50" x2="38069.895"/>
  <line  fill="none"  stroke="#ffffff" id="line3209" y1="13739" x1="37518.703" y2="12637" stroke-width="50" x2="37518.703"/>
  <rect  width="15969.949" x="3442.7048" y="-9050.6504" stroke-opacity="1" fill="none"  height="879.50336" stroke="#ffffff" style="stroke-miterlimit:4;stroke-dasharray:none" id="rect3215" stroke-width="4.94437504"/>
 </g>
</svg>
