<?xml version='1.0' encoding='utf-8'?>
<!DOCTYPE svg PUBLIC '-//W3C//DTD SVG 1.1//EN' 'http://www.w3.org/Graphics/SVG/1.1/DTD/svg11.dtd'>
<!-- Generator: Adobe Illustrator 15.0.2, SVG Export Plug-In . SVG Version: 6.00 Build 0)  -->
<svg width="0.758319in" x="0px" version="1.1" y="0px" xmlns="http://www.w3.org/2000/svg" height="0.767722in" viewBox="0 0 54.599 55.276" xmlns:xml="http://www.w3.org/XML/1998/namespace" id="Layer_1" enable-background="new 0 0 54.599 55.276" xml:space="preserve">
 <desc>Fritzing footprint generated by brd2svg</desc>
 <g id="silkscreen">
  <g>
   <title>element:JP1</title>
   <g>
    <title>package:1X04</title>
    <line fill="none" stroke="#FFFFFF" stroke-linecap="round" y1="50.4" stroke-width="0.576" x1="18.385" y2="50.4" x2="14.785"/>
    <line fill="none" stroke="#FFFFFF" stroke-linecap="round" y1="50.4" stroke-width="0.576" x1="14.785" y2="48.6" x2="12.985"/>
    <line fill="none" stroke="#FFFFFF" stroke-linecap="round" y1="45" stroke-width="0.576" x1="12.985" y2="43.2" x2="14.785"/>
    <line fill="none" stroke="#FFFFFF" stroke-linecap="round" y1="48.6" stroke-width="0.576" x1="27.385" y2="50.4" x2="25.585"/>
    <line fill="none" stroke="#FFFFFF" stroke-linecap="round" y1="50.4" stroke-width="0.576" x1="25.585" y2="50.4" x2="21.985"/>
    <line fill="none" stroke="#FFFFFF" stroke-linecap="round" y1="50.4" stroke-width="0.576" x1="21.985" y2="48.6" x2="20.185"/>
    <line fill="none" stroke="#FFFFFF" stroke-linecap="round" y1="45" stroke-width="0.576" x1="20.185" y2="43.2" x2="21.985"/>
    <line fill="none" stroke="#FFFFFF" stroke-linecap="round" y1="43.2" stroke-width="0.576" x1="21.985" y2="43.2" x2="25.585"/>
    <line fill="none" stroke="#FFFFFF" stroke-linecap="round" y1="43.2" stroke-width="0.576" x1="25.585" y2="45" x2="27.385"/>
    <line fill="none" stroke="#FFFFFF" stroke-linecap="round" y1="50.4" stroke-width="0.576" x1="18.385" y2="48.6" x2="20.185"/>
    <line fill="none" stroke="#FFFFFF" stroke-linecap="round" y1="45" stroke-width="0.576" x1="20.185" y2="43.2" x2="18.385"/>
    <line fill="none" stroke="#FFFFFF" stroke-linecap="round" y1="43.2" stroke-width="0.576" x1="14.785" y2="43.2" x2="18.385"/>
    <line fill="none" stroke="#FFFFFF" stroke-linecap="round" y1="50.4" stroke-width="0.576" x1="39.985" y2="50.4" x2="36.385"/>
    <line fill="none" stroke="#FFFFFF" stroke-linecap="round" y1="50.4" stroke-width="0.576" x1="36.385" y2="48.6" x2="34.585"/>
    <line fill="none" stroke="#FFFFFF" stroke-linecap="round" y1="45" stroke-width="0.576" x1="34.585" y2="43.2" x2="36.385"/>
    <line fill="none" stroke="#FFFFFF" stroke-linecap="round" y1="48.6" stroke-width="0.576" x1="34.585" y2="50.4" x2="32.786"/>
    <line fill="none" stroke="#FFFFFF" stroke-linecap="round" y1="50.4" stroke-width="0.576" x1="32.786" y2="50.4" x2="29.184"/>
    <line fill="none" stroke="#FFFFFF" stroke-linecap="round" y1="50.4" stroke-width="0.576" x1="29.184" y2="48.6" x2="27.385"/>
    <line fill="none" stroke="#FFFFFF" stroke-linecap="round" y1="45" stroke-width="0.576" x1="27.385" y2="43.2" x2="29.184"/>
    <line fill="none" stroke="#FFFFFF" stroke-linecap="round" y1="43.2" stroke-width="0.576" x1="29.184" y2="43.2" x2="32.786"/>
    <line fill="none" stroke="#FFFFFF" stroke-linecap="round" y1="43.2" stroke-width="0.576" x1="32.786" y2="45" x2="34.585"/>
    <line fill="none" stroke="#FFFFFF" stroke-linecap="round" y1="48.6" stroke-width="0.576" x1="41.786" y2="45" x2="41.786"/>
    <line fill="none" stroke="#FFFFFF" stroke-linecap="round" y1="50.4" stroke-width="0.576" x1="39.985" y2="48.6" x2="41.786"/>
    <line fill="none" stroke="#FFFFFF" stroke-linecap="round" y1="45" stroke-width="0.576" x1="41.786" y2="43.2" x2="39.985"/>
    <line fill="none" stroke="#FFFFFF" stroke-linecap="round" y1="43.2" stroke-width="0.576" x1="36.385" y2="43.2" x2="39.985"/>
    <line fill="none" stroke="#FFFFFF" stroke-linecap="round" y1="48.6" stroke-width="0.576" x1="12.985" y2="45" x2="12.985"/>
   </g>
  </g>
  <g>
   <title>element:JP2</title>
   <g>
    <title>package:STAND-OFF</title>
   </g>
  </g>
  <g>
   <title>element:JP3</title>
   <g>
    <title>package:STAND-OFF</title>
   </g>
  </g>
  <g>
   <title>element:U$2</title>
   <g>
    <title>package:OSHW-LOGO-M</title>
   </g>
  </g>
  <rect width="54.426" x="0.173" y="0" fill="none" height="55.276" stroke="#FFFFFF" stroke-width="0.576"/>
  <circle fill="none" cx="7.37" cy="7.369" stroke="#FFFFFF" stroke-linecap="round" r="4.535" stroke-width="0.576"/>
  <circle fill="none" cx="47.055" cy="7.369" stroke="#FFFFFF" stroke-linecap="round" r="4.535" stroke-width="0.576"/>
 </g>
 <g id="copper1">
  <g id="copper0">
   <circle fill="none" cx="38.184" cy="46.8" stroke="#F7BD13" r="2.052" stroke-width="1.224"/>
   <rect width="4.104" x="36.134" y="44.748" fill="none" height="4.104" stroke="#F7BD13" stroke-width="1.224"/>
   <circle fill="none" cx="30.985" cy="46.8" stroke="#F7BD13" r="2.052" stroke-width="1.224"/>
   <circle fill="none" cx="23.785" cy="46.8" stroke="#F7BD13" r="2.052" stroke-width="1.224"/>
   <circle fill="none" cx="16.585" cy="46.8" stroke="#F7BD13" r="2.052" stroke-width="1.224"/>
   <rect width="4.000002344366655" x="36.55624915735776" y="44.56462200956938" fill="none" height="4.000001157826516" id="connector40"/>
   <rect width="4.000002344366655" x="29.15084983147155" y="44.82910047846892" fill="none" height="4.000001157826516" id="connector41"/>
   <rect width="4.000002344366655" x="21.74545050558536" y="44.56462200956936" fill="none" height="4.000001157826516" id="connector42"/>
   <rect width="4.000002344366655" x="14.60452972705223" y="44.8291004784689" fill="none" height="4.000001157826516" id="connector43"/>
  </g>
  <rect width="4.000002344366655" x="36.55624915735776" y="44.56462200956938" fill="none" height="4.000001157826516" id="connector40"/>
  <rect width="4.000002344366655" x="29.15084983147155" y="44.82910047846892" fill="none" height="4.000001157826516" id="connector41"/>
  <rect width="4.000002344366655" x="21.74545050558536" y="44.56462200956936" fill="none" height="4.000001157826516" id="connector42"/>
  <rect width="4.000002344366655" x="14.60452972705223" y="44.8291004784689" fill="none" height="4.000001157826516" id="connector43"/>
 </g>
</svg>
