<?xml version="1.0" encoding="utf-8"?>
<!-- Generator: Adobe Illustrator 16.0.0, SVG Export Plug-In . SVG Version: 6.00 Build 0)  -->
<!DOCTYPE svg PUBLIC "-//W3C//DTD SVG 1.1//EN" "http://www.w3.org/Graphics/SVG/1.1/DTD/svg11.dtd">
<svg version="1.1" id="svg2" xmlns="http://www.w3.org/2000/svg" xmlns:xlink="http://www.w3.org/1999/xlink" x="0px" y="0px"
	 width="196.2px" height="151.301px" viewBox="0 0 196.2 151.301" enable-background="new 0 0 196.2 151.301" xml:space="preserve">
<g id="board">
	<path id="_x30_.1.0_1_" fill="#F2F2F2" fill-opacity="0.5" d="M183.556,0.288l4.308,4.304v32.276l7.182,7.172v92.526l-7.182,7.172
		v4.35c0.163,1.396-0.838,2.66-2.234,2.824c-0.193,0.021-0.396,0.021-0.592,0H3.999c-1.397,0.164-2.663-0.836-2.827-2.229
		c-0.023-0.197-0.023-0.396,0-0.596V3.112C1.009,1.715,2.01,0.45,3.407,0.288c0.197-0.023,0.396-0.023,0.592,0H183.556"/>
	<path id="_x30_.1.0" fill="none" stroke="#000000" stroke-width="0.75" stroke-opacity="0.5" d="M183.556,0.288l4.308,4.304v32.276
		l7.182,7.172v92.526l-7.182,7.172v4.35c0.163,1.396-0.838,2.66-2.234,2.824c-0.193,0.021-0.396,0.021-0.592,0H3.999
		c-1.397,0.164-2.663-0.836-2.827-2.229c-0.023-0.197-0.023-0.396,0-0.596V3.112C1.009,1.715,2.01,0.45,3.407,0.288
		c0.197-0.023,0.396-0.023,0.592,0H183.556"/>
	
		<rect id="pinguide1" x="50.909" y="4" fill="none" stroke="#000000" stroke-width="0.75" stroke-opacity="0.5" width="133.485" height="6.4"/>
	
		<rect id="pinguide2" x="76.83" y="140.666" fill="none" stroke="#000000" stroke-width="0.75" stroke-opacity="0.5" width="107.483" height="6.4"/>
	
		<rect id="usbconnector" x="1.605" y="27.595" fill="none" stroke="#000000" stroke-width="0.75" stroke-opacity="0.5" width="23.9" height="31.979"/>
</g>
<g id="silkscreen">
	<path id="_x30_.1.0_2_" fill="none" stroke="#FFFFFF" stroke-width="0.75" stroke-opacity="0.5" d="M183.556,0.288l4.308,4.304
		v32.276l7.182,7.172v92.526l-7.182,7.172v4.35c0.163,1.396-0.838,2.66-2.234,2.824c-0.193,0.021-0.396,0.021-0.592,0H3.999
		c-1.397,0.164-2.663-0.836-2.827-2.229c-0.023-0.197-0.023-0.396,0-0.596V3.112C1.009,1.715,2.01,0.45,3.407,0.288
		c0.197-0.023,0.396-0.023,0.592,0H183.556"/>
</g>
</svg>
