<?xml version="1.0" encoding="utf-8"?>
<!-- Generator: Adobe Illustrator 16.0.0, SVG Export Plug-In . SVG Version: 6.00 Build 0)  -->
<!DOCTYPE svg PUBLIC "-//W3C//DTD SVG 1.1//EN" "http://www.w3.org/Graphics/SVG/1.1/DTD/svg11.dtd">
<svg version="1.1" id="Ebene_1" xmlns="http://www.w3.org/2000/svg" xmlns:xlink="http://www.w3.org/1999/xlink" x="0px" y="0px"
	 width="288px" height="151.992px" viewBox="0 0 288 151.992" enable-background="new 0 0 288 151.992" xml:space="preserve">
<g id="board">
	<g id="silkscreen_1_">
		<g>
			<g id="outline_10_">
				<path opacity="0.5" fill="#F2F2F2" d="M273.104,0.288l7.188,7.172v28.69l7.188,7.172v96.831l-7.188,7.174v0.762
					c0.162,1.396-0.838,2.66-2.234,2.824c-0.197,0.023-0.396,0.023-0.596,0H2.848c-1.397,0.164-2.663-0.834-2.829-2.229
					c-0.023-0.199-0.024-0.398-0.001-0.596V3.112C-0.146,1.715,0.855,0.45,2.252,0.288c0.198-0.023,0.397-0.023,0.595,0H273.104"/>
			</g>
		</g>
	</g>
	<g id="hole_11_">
		<g>
			<g>
				<path opacity="0.5" fill="none" stroke="#000000" stroke-width="0.75" d="M42.525,3.019c-2.246,0-4.067,1.821-4.067,4.067
					c0,2.247,1.822,4.067,4.067,4.067c2.247,0,4.068-1.821,4.068-4.067C46.592,4.84,44.771,3.019,42.525,3.019L42.525,3.019z"/>
			</g>
		</g>
	</g>
	<g id="hole_10_">
		<g>
			<g>
				<path opacity="0.5" fill="none" stroke="#000000" stroke-width="0.75" d="M39.69,139.599c-2.739,0-4.959,2.222-4.959,4.961
					s2.221,4.96,4.959,4.96c2.74,0,4.961-2.221,4.961-4.96C44.651,142.313,41.935,139.599,39.69,139.599L39.69,139.599z"/>
			</g>
		</g>
	</g>
	<g id="hole_9_">
		<g>
			<g>
				<path opacity="0.5" fill="none" stroke="#000000" stroke-width="0.75" d="M172.912,124.902c-2.246,0-4.068,1.822-4.068,4.068
					c0,2.245,1.822,4.066,4.068,4.066s4.067-1.821,4.067-4.066C176.979,127.129,174.754,124.902,172.912,124.902L172.912,124.902z"
					/>
			</g>
		</g>
	</g>
	<g id="hole_8_">
		<g>
			<g>
				<path opacity="0.5" fill="none" stroke="#000000" stroke-width="0.75" d="M172.912,45.536c-2.246,0-4.068,1.822-4.068,4.068
					c0,2.246,1.822,4.067,4.068,4.067s4.067-1.821,4.067-4.067C176.979,47.358,175.158,45.536,172.912,45.536L172.912,45.536z"/>
			</g>
		</g>
	</g>
	<g id="hole_7_">
		<g>
			<g>
				<path opacity="0.5" fill="none" stroke="#000000" stroke-width="0.75" d="M255.112,3.019c-2.246,0-4.067,1.822-4.067,4.067
					c0,2.246,1.821,4.067,4.067,4.067s4.067-1.821,4.067-4.067C259.18,4.841,257.358,3.019,255.112,3.019L255.112,3.019z"/>
			</g>
		</g>
	</g>
	<g id="hole_6_">
		<g>
			<g>
				<path opacity="0.5" fill="none" stroke="#000000" stroke-width="0.75" d="M273.536,140.492c-2.246,0-4.067,1.821-4.067,4.067
					s1.821,4.067,4.067,4.067s4.067-1.821,4.067-4.067S275.782,140.492,273.536,140.492L273.536,140.492z"/>
			</g>
		</g>
	</g>
	
		<rect x="140.166" y="140.456" fill="none" stroke="#000000" stroke-width="0.75" stroke-opacity="0.5" width="57.6" height="7.087"/>
	
		<rect x="204.092" y="140.4" fill="none" stroke="#000000" stroke-width="0.75" stroke-opacity="0.5" width="58.473" height="7.199"/>
	
		<rect x="190.564" y="3.656" fill="none" stroke="#000000" stroke-width="0.75" stroke-opacity="0.5" width="57.602" height="7.087"/>
	
		<rect x="125.703" y="3.656" fill="none" stroke="#000000" stroke-width="0.75" stroke-opacity="0.5" width="57.662" height="7.087"/>
	
		<rect x="49.444" y="3.656" fill="none" stroke="#000000" stroke-width="0.75" stroke-opacity="0.5" width="72.001" height="7.087"/>
	
		<rect x="42.526" y="12.78" fill="none" stroke="#000000" stroke-width="0.75" stroke-opacity="0.5" width="22.675" height="14.147"/>
	
		<rect x="0.008" y="25.511" fill="none" stroke="#000000" stroke-width="0.75" stroke-opacity="0.5" width="31.179" height="34.014"/>
	
		<rect x="178.581" y="60.942" fill="none" stroke="#000000" stroke-width="0.75" stroke-opacity="0.5" width="14.173" height="22.675"/>
	<polyline fill="none" stroke="#000000" stroke-width="0.75" stroke-opacity="0.5" points="275.14,3.6 262.564,3.6 262.564,133.199 
		277.031,133.199 277.031,5.28 	"/>
	
		<rect x="75.365" y="140.456" fill="none" stroke="#000000" stroke-width="0.75" stroke-opacity="0.5" width="57.662" height="7.087"/>
</g>
<g id="silkscreen">
	<g>
		<g>
			<path opacity="0.5" fill="none" stroke="#000000" stroke-width="0.75" d="M273.104,0.288l7.188,7.172v28.69l7.188,7.172v96.831
				l-7.188,7.174v0.762c0.162,1.396-0.838,2.66-2.234,2.824c-0.197,0.023-0.396,0.023-0.596,0H2.848
				c-1.397,0.164-2.663-0.834-2.829-2.229c-0.023-0.199-0.024-0.398-0.001-0.596V3.112C-0.146,1.715,0.855,0.45,2.252,0.288
				c0.198-0.023,0.397-0.023,0.595,0H273.104"/>
		</g>
	</g>
</g>
</svg>
