<?xml version='1.0' encoding='utf-8'?>
<!DOCTYPE svg>
<!-- Generator: Adobe Illustrator 16.0.4, SVG Export Plug-In . SVG Version: 6.00 Build 0)  -->
<svg xmlns="http://www.w3.org/2000/svg"  width="2.52637in" xml:space="preserve" xmlns:xml="http://www.w3.org/XML/1998/namespace" x="0px" version="1.1" y="0px" height="2.1in" viewBox="0 0 181.899 151.2" id="0" enable-background="new 0 0 181.899 151.2">
 <desc   id="0.0" oldid="0.0">
  <referenceFile   id="0.0.0" oldid="0.0.0">RedFly_Shield_v1_3_pcb.svg</referenceFile>
 </desc>
 <desc   id="0.1" oldid="0.1">Fritzing footprint generated by brd2svg</desc>
 <g   id="silkscreen">
  <g   id="0.2.0">
   <title   id="0.2.0.0" oldid="0.2.0.0">element:U2</title>
   <g   id="0.2.0.1">
    <title   id="0.2.0.1.0" oldid="0.2.0.1.0">package:WIFLY_GSX</title>
    <path  fill="none"  stroke="#FFFFFF" stroke-linecap="round" id="0.2.0.1.1" stroke-width="0.5" d="M168.645,122.298"/>
    <line  fill="none"  stroke="#FFFFFF" stroke-linecap="round" id="0.2.0.1.2" y1="122.298" stroke-width="0.5" x1="168.645" y2="122.298" x2="86.44"/>
    <polyline  fill="none" points="86.44,122.298 86.44,59.921 89.042,57.102 "  stroke="#FFFFFF" stroke-linecap="round" id="0.2.0.1.3" stroke-width="0.5"/>
    <line  fill="none"  stroke="#FFFFFF" stroke-linecap="round" id="0.2.0.1.4" y1="57.102" stroke-width="0.5" x1="89.042" y2="57.102" x2="168.645"/>
    <path  fill="none"  stroke="#FFFFFF" stroke-linecap="round" id="0.2.0.1.5" stroke-width="0.5" d="M168.645,57.102"/>
    <line  fill="none"  stroke="#FFFFFF" stroke-linecap="round" id="0.2.0.1.6" y1="57.102" stroke-width="0.5" x1="168.645" y2="122.298" x2="168.645"/>
   </g>
  </g>
  <path  fill="none"  stroke="#FFFFFF" id="0.2.1" stroke-width="0.576" d="M7.465,0.288h150.721l3.59,3.586v32.277l7.176,7.172v93.244l-7.176,7.172v7.174H7.465l-7.177-7.174V7.46L7.465,0.288 M157.608,129.6c-0.002,2.426,1.963,4.394,4.389,4.396c2.426,0.002,4.394-1.963,4.396-4.389c0-0.002,0-0.006,0-0.008c0.003-2.426-1.962-4.395-4.388-4.396s-4.395,1.963-4.396,4.389C157.608,129.594,157.608,129.597,157.608,129.6z M13.608,7.2c0,2.425,1.966,4.392,4.392,4.392c2.426,0,4.392-1.966,4.392-4.392c0-2.426-1.966-4.392-4.392-4.392C15.575,2.808,13.608,4.774,13.608,7.2z"/>
  <circle  fill="none" cx="161.983"  cy="50.281" stroke="#FFFFFF" r="4.252" id="0.2.2" stroke-width="0.576"/>
  <g   id="0.2.3">
   <title   id="0.2.3.0" oldid="0.2.3.0">element:JP6</title>
   <g   id="0.2.3.1">
    <title   id="0.2.3.1.0" oldid="0.2.3.1.0">package:SFE-NEW-WEBLOGO</title>
   </g>
  </g>
  <g   id="0.2.4">
   <title   id="0.2.4.0" oldid="0.2.4.0">element:U1</title>
   <g   id="0.2.4.1">
    <title   id="0.2.4.1.0" oldid="0.2.4.1.0">package:DUEMILANOVE_SHIELD</title>
   </g>
  </g>
 </g>
 <g   id="copper0">
  <circle  fill="none" cx="104.401"  cy="144" stroke="#F7BD13" id="connector81pad" r="2.052" stroke-width="1.224"/>
  <circle  fill="none" cx="154.8"  cy="7.2" stroke="#F7BD13" id="connector79pad" r="2.052" stroke-width="1.224"/>
  <circle  fill="none" cx="50.4"  cy="7.2" stroke="#F7BD13" id="connector77pad" r="2.052" stroke-width="1.224"/>
  <circle  fill="none" cx="147.6"  cy="7.2" stroke="#F7BD13" id="connector80pad" r="2.052" stroke-width="1.224"/>
  <circle  fill="none" cx="90"  cy="144" stroke="#F7BD13" id="connector75pad" r="2.052" stroke-width="1.224"/>
  <circle  fill="none" cx="68.4"  cy="144" stroke="#F7BD13" id="connector78pad" r="2.052" stroke-width="1.224"/>
  <circle  fill="none" cx="64.8"  cy="7.2" stroke="#F7BD13" id="connector73pad" r="2.052" stroke-width="1.224"/>
  <circle  fill="none" cx="97.2"  cy="144" stroke="#F7BD13" id="connector76pad" r="2.052" stroke-width="1.224"/>
  <circle  fill="none" cx="79.2"  cy="7.2" stroke="#F7BD13" id="connector71pad" r="2.052" stroke-width="1.224"/>
  <circle  fill="none" cx="57.6"  cy="7.2" stroke="#F7BD13" id="connector74pad" r="2.052" stroke-width="1.224"/>
  <circle  fill="none" cx="93.6"  cy="7.2" stroke="#F7BD13" id="connector69pad" r="2.052" stroke-width="1.224"/>
  <circle  fill="none" cx="72"  cy="7.2" stroke="#F7BD13" id="connector72pad" r="2.052" stroke-width="1.224"/>
  <circle  fill="none" cx="111.6"  cy="7.2" stroke="#F7BD13" id="connector67pad" r="2.052" stroke-width="1.224"/>
  <circle  fill="none" cx="86.4"  cy="7.2" stroke="#F7BD13" id="connector70pad" r="2.052" stroke-width="1.224"/>
  <circle  fill="none" cx="126"  cy="7.2" stroke="#F7BD13" id="connector65pad" r="2.052" stroke-width="1.224"/>
  <circle  fill="none" cx="104.401"  cy="7.2" stroke="#F7BD13" id="connector68pad" r="2.052" stroke-width="1.224"/>
  <circle  fill="none" cx="140.401"  cy="7.2" stroke="#F7BD13" id="connector63pad" r="2.052" stroke-width="1.224"/>
  <circle  fill="none" cx="118.8"  cy="7.2" stroke="#F7BD13" id="connector66pad" r="2.052" stroke-width="1.224"/>
  <circle  fill="none" cx="154.8"  cy="144" stroke="#F7BD13" id="connector61pad" r="2.052" stroke-width="1.224"/>
  <circle  fill="none" cx="133.2"  cy="7.2" stroke="#F7BD13" id="connector64pad" r="2.052" stroke-width="1.224"/>
  <circle  fill="none" cx="140.401"  cy="144" stroke="#F7BD13" id="connector59pad" r="2.052" stroke-width="1.224"/>
  <circle  fill="none" cx="43.2"  cy="7.2" stroke="#F7BD13" id="connector62pad" r="2.052" stroke-width="1.224"/>
  <circle  fill="none" cx="126"  cy="144" stroke="#F7BD13" id="connector57pad" r="2.052" stroke-width="1.224"/>
  <circle  fill="none" cx="147.6"  cy="144" stroke="#F7BD13" id="connector60pad" r="2.052" stroke-width="1.224"/>
  <circle  fill="none" cx="82.8"  cy="144" stroke="#F7BD13" id="connector55pad" r="2.052" stroke-width="1.224"/>
  <circle  fill="none" cx="133.2"  cy="144" stroke="#F7BD13" id="connector58pad" r="2.052" stroke-width="1.224"/>
  <circle  fill="none" cx="118.8"  cy="144" stroke="#F7BD13" id="connector56pad" r="2.052" stroke-width="1.224"/>
  <circle  fill="none" cx="75.6"  cy="144" stroke="#F7BD13" id="connector54pad" r="2.052" stroke-width="1.224"/>
  <circle  fill="none" cx="61.2"  cy="144" stroke="#F7BD13" id="connector156pad" r="2.052" stroke-width="1.224"/>
  <circle  fill="none" cx="54"  cy="144" stroke="#F7BD13" id="connector157pad" r="2.052" stroke-width="1.224"/>
  <circle  fill="none" cx="36"  cy="7.2" stroke="#F7BD13" id="connector158pin" r="2.052" stroke-width="1.224"/>
  <circle  fill="none" cx="28.8"  cy="7.2" stroke="#F7BD13" id="connector159pin" r="2.052" stroke-width="1.224"/>
 </g>
</svg>
