<?xml version='1.0' encoding='UTF-8' standalone='no'?>
<!-- Created with Fritzing (http://www.fritzing.org/) -->
<svg xmlns="http://www.w3.org/2000/svg"  width="0.8in" x="0in" version="1.2" y="0in" height="0.8in" viewBox="0 0 57.6 57.6" baseProfile="tiny">
 <desc >Fritzing footprint generated by brd2svg</desc>
 <g  id="silkscreen">
  <path  fill="none" stroke="white" stroke-width="0.576" d="M0.288,57.312L57.312,57.312L57.312,0.288L0.288,0.288L0.288,57.312"/>
  <g >
   <title >element:JP1</title>
   <g >
    <title >package:1X08_LONGPADS</title>
    <line  stroke="white" stroke-linecap="round" y1="57.6" x1="5.4" y2="57.6" stroke-width="0.576" x2="9"/>
    <line  stroke="white" stroke-linecap="round" y1="0" x1="5.4" y2="0" stroke-width="0.576" x2="9"/>
   </g>
  </g>
  <g >
   <title >element:JP2</title>
   <g >
    <title >package:1X08_LONGPADS</title>
    <line  stroke="white" stroke-linecap="round" y1="0" x1="52.2" y2="0" stroke-width="0.576" x2="48.6"/>
    <line  stroke="white" stroke-linecap="round" y1="57.6" x1="52.2" y2="57.6" stroke-width="0.576" x2="48.6"/>
   </g>
  </g>
  <g >
   <title >element:U1</title>
   <g >
    <title >package:SSOP24</title>
    <line  stroke="white" stroke-linecap="round" y1="20.3527" x1="35.8866" y2="44.4473" stroke-width="0.576" x2="35.8866"/>
    <line  stroke="white" stroke-linecap="round" y1="44.4473" x1="35.8866" y2="44.4473" stroke-width="0.576" x2="21.7134"/>
    <line  stroke="white" stroke-linecap="round" y1="44.4473" x1="21.7134" y2="20.3527" stroke-width="0.576" x2="21.7134"/>
    <line  stroke="white" stroke-linecap="round" y1="20.3527" x1="21.7134" y2="20.3527" stroke-width="0.576" x2="35.8866"/>
    <circle  fill="none" cx="23.76" cy="22.32" stroke="white" r="0.632409" stroke-width="0.576"/>
   </g>
  </g>
 </g>
 <g  id="copper1">
  <g  id="copper0">
   <circle  fill="none" cx="7.2" cy="54" connectorname="GND" stroke="#F7BD13" r="2.052" id="connector6pad" stroke-width="1.224"/>
   <path  fill="#F7BD13" stroke="none" stroke-width="0" d="m2.4804,51.948,9.4392,0,0,4.104,-9.4392,0,0,-4.104M5.148,54a2.052,2.052,0,1,0,4.104,0,2.052,2.052,0,1,0,-4.104,0z"/>
   <circle  fill="none" cx="7.2" cy="46.8" connectorname="B01" stroke="#F7BD13" r="2.052" id="connector7pad" stroke-width="1.224"/>
   <path  fill="#F7BD13" stroke="none" stroke-width="0" d="m2.4804,44.748,9.4392,0,0,4.104,-9.4392,0,0,-4.104M5.148,46.8a2.052,2.052,0,1,0,4.104,0,2.052,2.052,0,1,0,-4.104,0z"/>
   <circle  fill="none" cx="7.2" cy="39.6" connectorname="B02" stroke="#F7BD13" r="2.052" id="connector8pad" stroke-width="1.224"/>
   <path  fill="#F7BD13" stroke="none" stroke-width="0" d="m2.4804,37.548,9.4392,0,0,4.104,-9.4392,0,0,-4.104M5.148,39.6a2.052,2.052,0,1,0,4.104,0,2.052,2.052,0,1,0,-4.104,0z"/>
   <circle  fill="none" cx="7.2" cy="32.4" connectorname="A02" stroke="#F7BD13" r="2.052" id="connector9pad" stroke-width="1.224"/>
   <path  fill="#F7BD13" stroke="none" stroke-width="0" d="m2.4804,30.348,9.4392,0,0,4.104,-9.4392,0,0,-4.104M5.148,32.4a2.052,2.052,0,1,0,4.104,0,2.052,2.052,0,1,0,-4.104,0z"/>
   <circle  fill="none" cx="7.2" cy="25.2" connectorname="A01" stroke="#F7BD13" r="2.052" id="connector10pad" stroke-width="1.224"/>
   <path  fill="#F7BD13" stroke="none" stroke-width="0" d="m2.4804,23.148,9.4392,0,0,4.104,-9.4392,0,0,-4.104M5.148,25.2a2.052,2.052,0,1,0,4.104,0,2.052,2.052,0,1,0,-4.104,0z"/>
   <circle  fill="none" cx="7.2" cy="18" connectorname="GND" stroke="#F7BD13" r="2.052" id="connector11pad" stroke-width="1.224"/>
   <path  fill="#F7BD13" stroke="none" stroke-width="0" d="m2.4804,15.948,9.4392,0,0,4.104,-9.4392,0,0,-4.104M5.148,18a2.052,2.052,0,1,0,4.104,0,2.052,2.052,0,1,0,-4.104,0z"/>
   <circle  fill="none" cx="7.2" cy="10.8" connectorname="VCC" stroke="#F7BD13" r="2.052" id="connector12pad" stroke-width="1.224"/>
   <path  fill="#F7BD13" stroke="none" stroke-width="0" d="m2.4804,8.748,9.4392,0,0,4.104,-9.4392,0,0,-4.104M5.148,10.8a2.052,2.052,0,1,0,4.104,0,2.052,2.052,0,1,0,-4.104,0z"/>
   <circle  fill="none" cx="7.2" cy="3.6" connectorname="VM" stroke="#F7BD13" r="2.052" id="connector13pad" stroke-width="1.224"/>
   <path  fill="#F7BD13" stroke="none" stroke-width="0" d="m2.4804,1.548,9.4392,0,0,4.104,-9.4392,0,0,-4.104M5.148,3.6a2.052,2.052,0,1,0,4.104,0,2.052,2.052,0,1,0,-4.104,0z"/>
   <circle  fill="none" cx="50.4" cy="3.6" connectorname="PWMA" stroke="#F7BD13" r="2.052" id="connector14pad" stroke-width="1.224"/>
   <path  fill="#F7BD13" stroke="none" stroke-width="0" d="m45.6804,1.548,9.4392,0,0,4.104,-9.4392,0,0,-4.104M48.348,3.6a2.052,2.052,0,1,0,4.104,0,2.052,2.052,0,1,0,-4.104,0z"/>
   <circle  fill="none" cx="50.4" cy="10.8" connectorname="AIN2" stroke="#F7BD13" r="2.052" id="connector15pad" stroke-width="1.224"/>
   <path  fill="#F7BD13" stroke="none" stroke-width="0" d="m45.6804,8.748,9.4392,0,0,4.104,-9.4392,0,0,-4.104M48.348,10.8a2.052,2.052,0,1,0,4.104,0,2.052,2.052,0,1,0,-4.104,0z"/>
   <circle  fill="none" cx="50.4" cy="18" connectorname="AIN1" stroke="#F7BD13" r="2.052" id="connector16pad" stroke-width="1.224"/>
   <path  fill="#F7BD13" stroke="none" stroke-width="0" d="m45.6804,15.948,9.4392,0,0,4.104,-9.4392,0,0,-4.104M48.348,18a2.052,2.052,0,1,0,4.104,0,2.052,2.052,0,1,0,-4.104,0z"/>
   <circle  fill="none" cx="50.4" cy="25.2" connectorname="STBY" stroke="#F7BD13" r="2.052" id="connector17pad" stroke-width="1.224"/>
   <path  fill="#F7BD13" stroke="none" stroke-width="0" d="m45.6804,23.148,9.4392,0,0,4.104,-9.4392,0,0,-4.104M48.348,25.2a2.052,2.052,0,1,0,4.104,0,2.052,2.052,0,1,0,-4.104,0z"/>
   <circle  fill="none" cx="50.4" cy="32.4" connectorname="BIN1" stroke="#F7BD13" r="2.052" id="connector18pad" stroke-width="1.224"/>
   <path  fill="#F7BD13" stroke="none" stroke-width="0" d="m45.6804,30.348,9.4392,0,0,4.104,-9.4392,0,0,-4.104M48.348,32.4a2.052,2.052,0,1,0,4.104,0,2.052,2.052,0,1,0,-4.104,0z"/>
   <circle  fill="none" cx="50.4" cy="39.6" connectorname="BIN2" stroke="#F7BD13" r="2.052" id="connector19pad" stroke-width="1.224"/>
   <path  fill="#F7BD13" stroke="none" stroke-width="0" d="m45.6804,37.548,9.4392,0,0,4.104,-9.4392,0,0,-4.104M48.348,39.6a2.052,2.052,0,1,0,4.104,0,2.052,2.052,0,1,0,-4.104,0z"/>
   <circle  fill="none" cx="50.4" cy="46.8" connectorname="PWMB" stroke="#F7BD13" r="2.052" id="connector20pad" stroke-width="1.224"/>
   <path  fill="#F7BD13" stroke="none" stroke-width="0" d="m45.6804,44.748,9.4392,0,0,4.104,-9.4392,0,0,-4.104M48.348,46.8a2.052,2.052,0,1,0,4.104,0,2.052,2.052,0,1,0,-4.104,0z"/>
   <circle  fill="none" cx="50.4" cy="54" connectorname="GND" stroke="#F7BD13" r="2.052" id="connector21pad" stroke-width="1.224"/>
   <path  fill="#F7BD13" stroke="none" stroke-width="0" d="m45.6804,51.948,9.4392,0,0,4.104,-9.4392,0,0,-4.104M48.348,54a2.052,2.052,0,1,0,4.104,0,2.052,2.052,0,1,0,-4.104,0z"/>
  </g>
 </g>
</svg>
