<?xml version='1.0' encoding='UTF-8' standalone='no'?>
<svg xmlns="http://www.w3.org/2000/svg"  width="100mm" x="0mm" version="1.0" y="0mm" height="100mm" viewBox="0 0 1000 1000" id="0">
 <desc   id="0.0" oldid="0.0">
  <referenceFile   id="0.0.0" oldid="0.0.0">BAS3007A-icon.svg</referenceFile>
 </desc>
 <metadata   id="0.1" oldid="0.1">
  <rdf:RDF xmlns:rdf="http://www.w3.org/1999/02/22-rdf-syntax-ns#"  id="0.1.0" oldid="0.1.0">
   <cc:Work xmlns:cc="http://creativecommons.org/ns#"  rdf:about="" xmlns:rdf="http://www.w3.org/1999/02/22-rdf-syntax-ns#" id="0.1.0.0" oldid="0.1.0.0">
    <dc:format xmlns:dc="http://purl.org/dc/elements/1.1/"  id="0.1.0.0.0" oldid="0.1.0.0.0">image/svg+xml</dc:format>
    <dc:type xmlns:dc="http://purl.org/dc/elements/1.1/"  id="0.1.0.0.1" oldid="0.1.0.0.1" rdf:resource="http://purl.org/dc/dcmitype/StillImage" xmlns:rdf="http://www.w3.org/1999/02/22-rdf-syntax-ns#"/>
   </cc:Work>
  </rdf:RDF>
 </metadata>
 <defs   id="0.2" oldid="0.2"/>
 <desc   id="0.3" oldid="0.3">BAS3007A Icon</desc>
 <rect  width="1000" x="0" y="1.4619883" fill="#000000"  height="1000" stroke="none" id="partbody"/>
 <g   id="g3886">
  <line   stroke="#ffffff" style="stroke-miterlimit:4;stroke-dasharray:none" id="line3044" y1="101.46199" x1="500" y2="501.46198" stroke-width="14.1111107" x2="900"/>
  <line   stroke="#ffffff" id="line3046" y1="263.73822" x1="775.04761" y2="373.51468" stroke-width="14.03255653" x2="660.24701"/>
  <path  stroke-opacity="1" fill="#ffffff"  stroke="#ffffff" style="stroke-linecap:butt;stroke-linejoin:miter;" id="path3055" stroke-width="22.3537" d="M 716.68213,314.09261 C 704.09434,192.72054 704.09434,193.72362 704.09434,193.72362 L 595.00021,301.05263 z"/>
 </g>
 <g   id="g3891" transform="translate(-389.46643,389.46643)">
  <line   stroke="#ffffff" style="stroke-miterlimit:4;stroke-dasharray:none" id="line3893" y1="101.46199" y2="501.46198" x1="500" stroke-width="14.11111069" x2="900"/>
  <line   stroke="#ffffff" id="line3895" y1="263.73822" y2="373.51468" x1="775.04761" stroke-width="14.03255653" x2="660.24701"/>
  <path  stroke-opacity="1" fill="#ffffff"  stroke="#ffffff" style="stroke-linecap:butt;stroke-linejoin:miter;" id="path3897" stroke-width="22.3537" d="M 716.68213,314.09261 C 704.09434,192.72054 704.09434,193.72362 704.09434,193.72362 L 595.00021,301.05263 z"/>
 </g>
 <g   id="g3899" transform="matrix(0,-1,1,0,9.0715957,1001.4649)">
  <line   stroke="#ffffff" style="stroke-miterlimit:4;stroke-dasharray:none" id="line3901" y1="101.46199" x1="500" y2="501.46198" stroke-width="14.11111069" x2="900"/>
  <line   stroke="#ffffff" id="line3903" y1="263.73822" x1="775.04761" y2="373.51468" stroke-width="14.03255653" x2="660.24701"/>
  <path  stroke-opacity="1" fill="#ffffff"  stroke="#ffffff" style="stroke-linecap:butt;stroke-linejoin:miter;" id="path3905" stroke-width="22.3537" d="M 716.68213,314.09261 C 704.09434,192.72054 704.09434,193.72362 704.09434,193.72362 L 595.00021,301.05263 z"/>
 </g>
 <g   id="g3907" transform="matrix(0,-1,1,0,398.53802,1390.9285)">
  <line   stroke="#ffffff" style="stroke-miterlimit:4;stroke-dasharray:none" id="line3909" y1="101.46199" y2="501.46198" x1="500" stroke-width="14.11111069" x2="900"/>
  <line   stroke="#ffffff" id="line3911" y1="263.73822" y2="373.51468" x1="775.04761" stroke-width="14.03255653" x2="660.24701"/>
  <path  stroke-opacity="1" fill="#ffffff"  stroke="#ffffff" style="stroke-linecap:butt;stroke-linejoin:miter;" id="path3913" stroke-width="22.3537" d="M 716.68213,314.09261 C 704.09434,192.72054 704.09434,193.72362 704.09434,193.72362 L 595.00021,301.05263 z"/>
 </g>
</svg>
