<?xml version='1.0' encoding='utf-8'?>
<!-- Generator: Adobe Illustrator 13.0.2, SVG Export Plug-In . SVG Version: 6.00 Build 14948)  -->
<svg xmlns="http://www.w3.org/2000/svg" width="0.4in" xml:space="preserve" xmlns:xml="http://www.w3.org/XML/1998/namespace" x="0px" version="1.2" y="0px" height="0.6in" viewBox="0 0 28.8 43.2" baseProfile="tiny" id="Layer_1">
 <desc >Fritzing breadboard generated by brd2svg</desc>
 <g  id="breadboard">
  <g  id="icon">
   <path  fill="#1F7A34" d="M0,0v19.44c1.193,0,2.16,0.968,2.159,2.161C2.158,22.793,1.192,23.759,0,23.76V43.2h28.8V0H0z"/>
   <g  transform="matrix(1, 0, 0, 1, 7.488, 11.052)">
    <g  transform="matrix(0.5, 0, 0, 0.5, 3.456, 5.274)">
     <rect  width="1.728" x="0.648" y="14.833" fill="#8C8C8C" height="6.262"/>
     <rect  width="1.729" x="4.248" y="14.833" fill="#8C8C8C" height="6.262"/>
     <rect  width="1.728" x="7.848" y="14.833" fill="#8C8C8C" height="6.262"/>
     <rect  width="1.73" x="11.447" y="14.833" fill="#8C8C8C" height="6.262"/>
     <rect  width="1.73" x="11.447" y="0" fill="#8C8C8C" height="6.264"/>
     <rect  width="1.728" x="7.848" y="0" fill="#8C8C8C" height="6.264"/>
     <rect  width="1.729" x="4.248" y="0" fill="#8C8C8C" height="6.264"/>
     <rect  width="1.728" x="0.648" y="0" fill="#8C8C8C" height="6.264"/>
     <rect  width="13.391" x="0.216" y="5.437" fill="#303030" height="10.221"/>
     <polygon  fill="#1F1F1F" points="0.216,5.437 13.607,5.437 12.888,6.157 0.936,6.157 "/>
     <polygon  fill="#1F1F1F" points="0.216,15.658 13.607,15.658 12.888,14.939 0.936,14.939 "/>
     <polygon  points="0.216,5.437 0.216,15.658 0.936,14.939 0.936,6.157 "/>
     <polygon  fill="#3D3D3D" points="13.607,5.437 13.607,15.658 12.888,14.939 12.888,6.157 "/>
     <circle  fill="#1F1F1F" cx="2.377" cy="13.499" r="0.721"/>
    </g>
   </g>
   <text  fill="#FFFFFF" font-family="DroidSans" id="label" transform="matrix(1 0 0 1 3.6001 23.356)" font-size="4.68">SO08</text>
   <g  transform="matrix(1, 0, 0, 1, 4.572, 37.8756)">
    <g  transform="rotate(-90)">
     <text  fill="#FFFFFF" font-family="DroidSans" transform="matrix(1 0 0 1 1.106262e-004 -2.212524e-004)" font-size="3.24">1</text>
    </g>
   </g>
   <g  transform="matrix(1, 0, 0, 1, 4.572, 5.3244)">
    <g  transform="rotate(-90)">
     <text  fill="#FFFFFF" font-family="DroidSans" transform="matrix(1 0 0 1 -1.8011 -2.212524e-004)" font-size="3.24">8</text>
    </g>
   </g>
   <g  transform="matrix(1, 0, 0, 1, 11.772, 37.8756)">
    <g  transform="rotate(-90)">
     <text  fill="#FFFFFF" font-family="DroidSans" transform="matrix(1 0 0 1 1.106262e-004 -3.051758e-005)" font-size="3.24">2</text>
    </g>
   </g>
   <g  transform="matrix(1, 0, 0, 1, 11.772, 5.3244)">
    <g  transform="rotate(-90)">
     <text  fill="#FFFFFF" font-family="DroidSans" transform="matrix(1 0 0 1 -1.8011 -3.051758e-005)" font-size="3.24">7</text>
    </g>
   </g>
   <g  transform="matrix(1, 0, 0, 1, 18.972, 37.8756)">
    <g  transform="rotate(-90)">
     <text  fill="#FFFFFF" font-family="DroidSans" transform="matrix(1 0 0 1 1.106262e-004 1.678467e-004)" font-size="3.24">3</text>
    </g>
   </g>
   <g  transform="matrix(1, 0, 0, 1, 18.972, 5.3244)">
    <g  transform="rotate(-90)">
     <text  fill="#FFFFFF" font-family="DroidSans" transform="matrix(1 0 0 1 -1.8011 1.678467e-004)" font-size="3.24">6</text>
    </g>
   </g>
   <g  transform="matrix(1, 0, 0, 1, 26.172, 37.8756)">
    <g  transform="rotate(-90)">
     <text  fill="#FFFFFF" font-family="DroidSans" transform="matrix(1 0 0 1 1.106262e-004 3.662109e-004)" font-size="3.24">4</text>
    </g>
   </g>
   <g  transform="matrix(1, 0, 0, 1, 26.172, 5.3244)">
    <g  transform="rotate(-90)">
     <text  fill="#FFFFFF" font-family="DroidSans" transform="matrix(1 0 0 1 -1.8011 3.662109e-004)" font-size="3.24">5</text>
    </g>
   </g>
  </g>
  <g  id="connector1pin" transform="matrix(1, 0, 0, 1, 2.45052, 38.4516)">
   <rect  width="2.299" x="0" y="0" fill="#8D8C8C" height="2.297"/>
   <rect  width="1.184" x="0.561" y="0.557" fill="#8C8663" height="1.182"/>
   <polygon  fill="#B8AF82" points="0,2.297 0.561,1.738 0.561,0.502 0,0 "/>
   <polygon  fill="#80795B" points="1.743,0.559 0.569,0.559 0,0 2.299,0 "/>
   <polygon  fill="#5E5B43" points="1.743,1.738 1.743,0.559 2.299,0 2.299,2.297 "/>
   <polygon  fill="#9A916C" points="0,2.297 0.567,1.738 1.743,1.738 2.299,2.297 "/>
  </g>
  <g  id="connector8pin" transform="matrix(1, 0, 0, 1, 2.45052, 2.4516)">
   <rect  width="2.299" x="0" y="0" fill="#8D8C8C" height="2.297"/>
   <rect  width="1.184" x="0.561" y="0.557" fill="#8C8663" height="1.182"/>
   <polygon  fill="#B8AF82" points="0,2.297 0.561,1.738 0.561,0.502 0,0 "/>
   <polygon  fill="#80795B" points="1.743,0.559 0.569,0.559 0,0 2.299,0 "/>
   <polygon  fill="#5E5B43" points="1.743,1.738 1.743,0.559 2.299,0 2.299,2.297 "/>
   <polygon  fill="#9A916C" points="0,2.297 0.567,1.738 1.743,1.738 2.299,2.297 "/>
  </g>
  <g  id="connector2pin" transform="matrix(1, 0, 0, 1, 9.65052, 38.4516)">
   <rect  width="2.299" x="0" y="0" fill="#8D8C8C" height="2.297"/>
   <rect  width="1.184" x="0.561" y="0.557" fill="#8C8663" height="1.182"/>
   <polygon  fill="#B8AF82" points="0,2.297 0.561,1.738 0.561,0.502 0,0 "/>
   <polygon  fill="#80795B" points="1.743,0.559 0.569,0.559 0,0 2.299,0 "/>
   <polygon  fill="#5E5B43" points="1.743,1.738 1.743,0.559 2.299,0 2.299,2.297 "/>
   <polygon  fill="#9A916C" points="0,2.297 0.567,1.738 1.743,1.738 2.299,2.297 "/>
  </g>
  <g  id="connector7pin" transform="matrix(1, 0, 0, 1, 9.65052, 2.4516)">
   <rect  width="2.299" x="0" y="0" fill="#8D8C8C" height="2.297"/>
   <rect  width="1.184" x="0.561" y="0.557" fill="#8C8663" height="1.182"/>
   <polygon  fill="#B8AF82" points="0,2.297 0.561,1.738 0.561,0.502 0,0 "/>
   <polygon  fill="#80795B" points="1.743,0.559 0.569,0.559 0,0 2.299,0 "/>
   <polygon  fill="#5E5B43" points="1.743,1.738 1.743,0.559 2.299,0 2.299,2.297 "/>
   <polygon  fill="#9A916C" points="0,2.297 0.567,1.738 1.743,1.738 2.299,2.297 "/>
  </g>
  <g  id="connector3pin" transform="matrix(1, 0, 0, 1, 16.8505, 38.4516)">
   <rect  width="2.299" x="0.001" y="0" fill="#8D8C8C" height="2.297"/>
   <rect  width="1.184" x="0.561" y="0.557" fill="#8C8663" height="1.182"/>
   <polygon  fill="#B8AF82" points="0.001,2.297 0.561,1.738 0.561,0.502 0.001,0 "/>
   <polygon  fill="#80795B" points="1.743,0.559 0.569,0.559 0.001,0 2.299,0 "/>
   <polygon  fill="#5E5B43" points="1.743,1.738 1.743,0.559 2.299,0 2.299,2.297 "/>
   <polygon  fill="#9A916C" points="0.001,2.297 0.567,1.738 1.743,1.738 2.299,2.297 "/>
  </g>
  <g  id="connector6pin" transform="matrix(1, 0, 0, 1, 16.8505, 2.4516)">
   <rect  width="2.299" x="0.001" y="0" fill="#8D8C8C" height="2.297"/>
   <rect  width="1.184" x="0.561" y="0.557" fill="#8C8663" height="1.182"/>
   <polygon  fill="#B8AF82" points="0.001,2.297 0.561,1.738 0.561,0.502 0.001,0 "/>
   <polygon  fill="#80795B" points="1.743,0.559 0.569,0.559 0.001,0 2.299,0 "/>
   <polygon  fill="#5E5B43" points="1.743,1.738 1.743,0.559 2.299,0 2.299,2.297 "/>
   <polygon  fill="#9A916C" points="0.001,2.297 0.567,1.738 1.743,1.738 2.299,2.297 "/>
  </g>
  <g  id="connector4pin" transform="matrix(1, 0, 0, 1, 24.0505, 38.4516)">
   <rect  width="2.299" x="0" y="0" fill="#8D8C8C" height="2.297"/>
   <rect  width="1.185" x="0.56" y="0.557" fill="#8C8663" height="1.182"/>
   <polygon  fill="#B8AF82" points="0,2.297 0.56,1.738 0.56,0.502 0,0 "/>
   <polygon  fill="#80795B" points="1.743,0.559 0.569,0.559 0,0 2.299,0 "/>
   <polygon  fill="#5E5B43" points="1.743,1.738 1.743,0.559 2.299,0 2.299,2.297 "/>
   <polygon  fill="#9A916C" points="0,2.297 0.567,1.738 1.743,1.738 2.299,2.297 "/>
  </g>
  <g  id="connector5pin" transform="matrix(1, 0, 0, 1, 24.0505, 2.4516)">
   <rect  width="2.299" x="0" y="0" fill="#8D8C8C" height="2.297"/>
   <rect  width="1.185" x="0.56" y="0.557" fill="#8C8663" height="1.182"/>
   <polygon  fill="#B8AF82" points="0,2.297 0.56,1.738 0.56,0.502 0,0 "/>
   <polygon  fill="#80795B" points="1.743,0.559 0.569,0.559 0,0 2.299,0 "/>
   <polygon  fill="#5E5B43" points="1.743,1.738 1.743,0.559 2.299,0 2.299,2.297 "/>
   <polygon  fill="#9A916C" points="0,2.297 0.567,1.738 1.743,1.738 2.299,2.297 "/>
  </g>
 </g>
</svg>
