<?xml version='1.0' encoding='UTF-8' standalone='no'?>
<!-- Generator: Adobe Illustrator 14.0.0, SVG Export Plug-In . SVG Version: 6.00 Build 43363)  -->
<svg xmlns="http://www.w3.org/2000/svg" width="0.3in" x="0px" version="1.1" y="0px" gorn="0"  height="0.33in" viewBox="0 0 21.6 23.76" xmlns:xml="http://www.w3.org/XML/1998/namespace" id="svg2" enable-background="new 0 0 21.6 23.76" xml:space="preserve">
    <desc >
        <referenceFile >hctl.svg</referenceFile>
    </desc>
    <metadata  id="metadata3145">
        <rdf:RDF xmlns:rdf="http://www.w3.org/1999/02/22-rdf-syntax-ns#">
            <cc:Work xmlns:rdf="http://www.w3.org/1999/02/22-rdf-syntax-ns#" xmlns:cc="http://creativecommons.org/ns#" rdf:about="">
                <dc:format xmlns:dc="http://purl.org/dc/elements/1.1/">image/svg+xml</dc:format>
                <dc:type xmlns:rdf="http://www.w3.org/1999/02/22-rdf-syntax-ns#" rdf:resource="http://purl.org/dc/dcmitype/StillImage" xmlns:dc="http://purl.org/dc/elements/1.1/"/>
                <dc:title xmlns:dc="http://purl.org/dc/elements/1.1/"/>
            </cc:Work>
        </rdf:RDF>
    </metadata>
    <defs  id="defs3143"/>
    <g gorn="0.3"  id="icon">
        <rect width="21.6" x="0" y="2.16" fill="#303030" gorn="0.3.0"  height="19.438" id="middle"/>
        <rect width="21.6" x="0" y="2.16" fill="#3D3D3D" gorn="0.3.1"  height="1.771" id="top"/>
        <rect width="21.6" x="0" y="19.828" gorn="0.3.2"  height="1.771" id="bottom"/>
        <polygon fill="#1F1F1F" points="0,2.16 0.54,3.931 0.54,19.828 0,21.6  " gorn="0.3.3"  id="left"/>
        <polygon fill="#1C1C1C" points="3.6,8.28 0.54,8.251 0.404,9.778 0.404,11.88 3.6,11.88  " gorn="0.3.4"  id="left-upper-rect"/>
        <polygon fill="#383838" points="0.54,15.516 3.6,15.516 3.6,11.88 0.404,11.88 0.404,13.983  " gorn="0.3.5"  id="left-lower-rect"/>
        <path fill="#262626" gorn="0.3.6"  id="slot" d="M0.404,9.778v4.197c1.059-0.122,1.887-1.008,1.887-2.103C2.289,10.779,1.469,9.9,0.404,9.778z"/>
        <path fill="#303030" gorn="0.3.7"  id="cover" d="M0.54,3.931v4.313c1.713,0.322,3.017,1.82,3.017,3.628s-1.296,3.313-3.017,3.637v0.007h3.6   V3.931H0.54z"/>
        <circle fill="#212121" cx="4.68" gorn="0.3.8"  cy="16.898" r="1.483" id="circle3113"/>
        <g  transform="translate(3.4827,12.8792)">
            <g >
                <g gorn="0.3.9.0.0"  style="font-size:7.76000023px;fill:#dddddd;font-family:OCRA" id="text3115" font-size="7.76">
                    <text x="" y="" gorn="0.3.9.0.0.0"  style="font-size:5.99999994px" id="tspan3147">HCTL</text>
                </g>
            </g>
        </g>
        <rect width="2.16" x="2.52" y="20.635" fill="#8C8C8C" gorn="0.3.10"  height="3.125" id="connector0pin"/>
        <rect width="2.16" x="2.52" y="21.6" fill="#8C8C8C" gorn="0.3.11"  height="2.16" id="connector0terminal"/>
        <polygon fill="#8C8C8C" points="2.52,20.635 2.52,22.075 4.68,22.075 6.12,21.412 6.12,20.635  " gorn="0.3.12"  id="polygon3119"/>
        <rect width="2.16" x="2.52" y="0" fill="#8C8C8C" gorn="0.3.13"  height="3.125" id="connector5pin"/>
        <rect width="2.16" x="2.52" y="0" fill="#8C8C8C" gorn="0.3.14"  height="2.16" id="connector5terminal"/>
        <polygon fill="#8C8C8C" points="6.12,3.125 6.12,2.347 4.68,1.685 2.52,1.685 2.52,3.125  " gorn="0.3.15"  id="polygon3123"/>
        <rect width="2.16" x="16.92" y="20.635" fill="#8C8C8C" gorn="0.3.16"  height="3.125" id="connector2pin"/>
        <rect width="2.16" x="16.92" y="21.6" fill="#8C8C8C" gorn="0.3.17"  height="2.16" id="connector2terminal"/>
        <polygon fill="#8C8C8C" points="15.48,20.635 15.48,21.412 16.92,22.075 19.08,22.075 19.08,20.635  " gorn="0.3.18"  id="polygon3127"/>
        <rect width="2.16" x="16.92" y="0" fill="#8C8C8C" gorn="0.3.19"  height="3.125" id="connector3pin"/>
        <rect width="2.16" x="16.92" y="0" fill="#8C8C8C" gorn="0.3.20"  height="2.16" id="connector3terminal"/>
        <polygon fill="#8C8C8C" points="19.08,3.125 19.08,1.685 16.92,1.685 15.48,2.347 15.48,3.125  " gorn="0.3.21"  id="polygon3131"/>
        <rect width="2.16" x="9.72" y="20.635" fill="#8C8C8C" gorn="0.3.22"  height="3.125" id="connector1pin"/>
        <rect width="2.16" x="9.72" y="21.6" fill="#8C8C8C" gorn="0.3.23"  height="2.16" id="connector1terminal"/>
        <polygon fill="#8C8C8C" points="8.28,20.635 8.28,21.412 9.72,22.075 11.88,22.075 13.32,21.412 13.32,20.635  " gorn="0.3.24"  id="polygon3135"/>
        <rect width="2.16" x="9.72" y="0" fill="#8C8C8C" gorn="0.3.25"  height="3.125" id="connector4pin"/>
        <rect width="2.16" x="9.72" y="0" fill="#8C8C8C" gorn="0.3.26"  height="2.16" id="connector4terminal"/>
        <polygon fill="#8C8C8C" points="13.32,3.125 13.32,2.347 11.88,1.685 9.72,1.685 8.28,2.347 8.28,3.125  " gorn="0.3.27"  id="polygon3139"/>
    </g>
</svg>
