<?xml version='1.0' encoding='UTF-8' standalone='no'?>
<!-- Created with Inkscape (http://www.inkscape.org/) -->
<svg xmlns="http://www.w3.org/2000/svg" width="21.6" version="1.1" gorn="0"  height="23.76" viewBox="0 0 21.6 23.76" xmlns:xml="http://www.w3.org/XML/1998/namespace" id="svg2" xml:space="preserve">
    <desc >
        <referenceFile >HEF4081B_icon.svg</referenceFile>
    </desc>
    <metadata  id="metadata46">
        <rdf:RDF xmlns:rdf="http://www.w3.org/1999/02/22-rdf-syntax-ns#">
            <cc:Work xmlns:rdf="http://www.w3.org/1999/02/22-rdf-syntax-ns#" xmlns:cc="http://creativecommons.org/ns#" rdf:about="">
                <dc:format xmlns:dc="http://purl.org/dc/elements/1.1/">image/svg+xml</dc:format>
                <dc:type xmlns:rdf="http://www.w3.org/1999/02/22-rdf-syntax-ns#" rdf:resource="http://purl.org/dc/dcmitype/StillImage" xmlns:dc="http://purl.org/dc/elements/1.1/"/>
                <dc:title xmlns:dc="http://purl.org/dc/elements/1.1/"/>
            </cc:Work>
        </rdf:RDF>
    </metadata>
    <defs  id="defs44"/>
    <g gorn="0.3"  id="icon">
        <rect width="21.6" x="0" y="2.1600001" gorn="0.3.0"  height="19.438" style="fill:#303030" id="middle"/>
        <rect width="21.6" x="0" y="2.1600001" gorn="0.3.1"  height="1.771" style="fill:#3d3d3d" id="top"/>
        <rect width="21.6" x="0" y="19.827999" gorn="0.3.2"  height="1.771" id="bottom"/>
        <polygon points="0.54,3.931 0.54,19.828 0,21.6 0,2.16 " gorn="0.3.3"  style="fill:#1f1f1f" id="left"/>
        <polygon points="0.54,8.251 0.404,9.778 0.404,11.88 3.6,11.88 3.6,8.28 " gorn="0.3.4"  style="fill:#1c1c1c" id="left-upper-rect"/>
        <polygon points="3.6,15.516 3.6,11.88 0.404,11.88 0.404,13.983 0.54,15.516 " gorn="0.3.5"  style="fill:#383838" id="left-lower-rect"/>
        <path gorn="0.3.6"  style="fill:#262626" id="slot" d="m 0.404,9.778 v 4.197 C 1.463,13.853 2.291,12.967 2.291,11.872 2.289,10.779 1.469,9.9 0.404,9.778 z"/>
        <path gorn="0.3.7"  style="fill:#303030" id="cover" d="m 0.54,3.931 v 4.313 c 1.713,0.322 3.017,1.82 3.017,3.628 0,1.808 -1.296,3.313 -3.017,3.637 v 0.007 h 3.6 V 3.931 h -3.6 z"/>
        <circle cx="4.6799998" gorn="0.3.8"  cy="16.898001" style="fill:#212121" r="1.483" id="circle12"/>
        <text x="5.6799092" y="11.339665" gorn="0.3.9"  style="font-size:5.76000023px;fill:#dddddd;font-family:OCRA" id="text14">4081</text>
        <text x="9.6119232" y="17.51502" gorn="0.3.10"  style="font-size:5.76000023px;fill:#dddddd;font-family:OCRA" id="text16">B</text>
        <rect width="2.1600001" x="2.52" y="20.635" gorn="0.3.11"  height="3.125" style="fill:#8c8c8c" id="connector0pin"/>
        <rect width="2.1600001" x="2.52" y="21.6" gorn="0.3.12"  height="2.1600001" style="fill:#8c8c8c" id="connector0terminal"/>
        <polygon points="2.52,22.075 4.68,22.075 6.12,21.412 6.12,20.635 2.52,20.635 " gorn="0.3.13"  style="fill:#8c8c8c" id="polygon20"/>
        <rect width="2.1600001" x="2.52" y="0" gorn="0.3.14"  height="3.125" style="fill:#8c8c8c" id="connector5pin"/>
        <rect width="2.1600001" x="2.52" y="0" gorn="0.3.15"  height="2.1600001" style="fill:#8c8c8c" id="connector5terminal"/>
        <polygon points="6.12,2.347 4.68,1.685 2.52,1.685 2.52,3.125 6.12,3.125 " gorn="0.3.16"  style="fill:#8c8c8c" id="polygon24"/>
        <rect width="2.1600001" x="16.92" y="20.635" gorn="0.3.17"  height="3.125" style="fill:#8c8c8c" id="connector2pin"/>
        <rect width="2.1600001" x="16.92" y="21.6" gorn="0.3.18"  height="2.1600001" style="fill:#8c8c8c" id="connector2terminal"/>
        <polygon points="15.48,21.412 16.92,22.075 19.08,22.075 19.08,20.635 15.48,20.635 " gorn="0.3.19"  style="fill:#8c8c8c" id="polygon28"/>
        <rect width="2.1600001" x="16.92" y="0" gorn="0.3.20"  height="3.125" style="fill:#8c8c8c" id="connector3pin"/>
        <rect width="2.1600001" x="16.92" y="0" gorn="0.3.21"  height="2.1600001" style="fill:#8c8c8c" id="connector3terminal"/>
        <polygon points="19.08,1.685 16.92,1.685 15.48,2.347 15.48,3.125 19.08,3.125 " gorn="0.3.22"  style="fill:#8c8c8c" id="polygon32"/>
        <rect width="2.1600001" x="9.7200003" y="20.635" gorn="0.3.23"  height="3.125" style="fill:#8c8c8c" id="connector1pin"/>
        <rect width="2.1600001" x="9.7200003" y="21.6" gorn="0.3.24"  height="2.1600001" style="fill:#8c8c8c" id="connector1terminal"/>
        <polygon points="8.28,21.412 9.72,22.075 11.88,22.075 13.32,21.412 13.32,20.635 8.28,20.635 " gorn="0.3.25"  style="fill:#8c8c8c" id="polygon36"/>
        <rect width="2.1600001" x="9.7200003" y="0" gorn="0.3.26"  height="3.125" style="fill:#8c8c8c" id="connector4pin"/>
        <rect width="2.1600001" x="9.7200003" y="0" gorn="0.3.27"  height="2.1600001" style="fill:#8c8c8c" id="connector4terminal"/>
        <polygon points="13.32,2.347 11.88,1.685 9.72,1.685 8.28,2.347 8.28,3.125 13.32,3.125 " gorn="0.3.28"  style="fill:#8c8c8c" id="polygon40"/>
    </g>
</svg>
