<?xml version='1.0' encoding='UTF-8' standalone='no'?>
<!-- Created with Fritzing (http://www.fritzing.org/) -->
<svg xmlns="http://www.w3.org/2000/svg"  width="0.7in" x="0in" version="1.2" y="0in" height="0.7in" viewBox="0 0 50.4 50.4" baseProfile="tiny" id="0">
 <desc   id="0.0" oldid="0.0">
  <referenceFile   id="0.0.0" oldid="0.0.0">HIH6130_bb.svg</referenceFile>
 </desc>
 <g   id="0.1" partID="150260">
  <g   id="breadboard" transform="matrix(1, 0, 0, 1, 0, -8.78906e-06)">
   <g   id="0.1.0.0" stroke-width="0">
    <g   id="icon" stroke-width="0">
     <path  fill="#c62717"  stroke="none" id="path3187" d="m0,50.4,50.3433,0L50.4,0,0,0,0,50.4M3.96,7.2a1.44,1.44,0,1,1,2.88,0,1.44,1.44,0,1,1,-2.88,0zm0,7.2a1.44,1.44,0,1,1,2.88,0,1.44,1.44,0,1,1,-2.88,0zm0,7.2a1.44,1.44,0,1,1,2.88,0,1.44,1.44,0,1,1,-2.88,0zm0,7.2a1.44,1.44,0,1,1,2.88,0,1.44,1.44,0,1,1,-2.88,0zm0,7.2a1.44,1.44,0,1,1,2.88,0,1.44,1.44,0,1,1,-2.88,0zm0,7.2a1.44,1.44,0,1,1,2.88,0,1.44,1.44,0,1,1,-2.88,0z"/>
     <g   id="g3189" stroke-width="0">
      <g   id="g3191" stroke-width="0">
       <title   id="0.1.0.0.0.1.0.0" oldid="0.1.0.0.0.1.0.0">text:HIH6130</title>
       <text  x="21.96" y="6.12" fill="#ffffff"  stroke="none" style="text-anchor:start;font-family:OCRA" id="text3195" font-size="4.77">HIH6130</text>
      </g>
      <g   id="g3197" stroke-width="0">
       <title   id="0.1.0.0.0.1.1.0" oldid="0.1.0.0.0.1.1.0">text:SDA</title>
       <text  x="9.72" y="8.64" fill="#ffffff"  stroke="none" style="text-anchor:start;font-family:OCRA" id="text3201" font-size="3.5">SDA</text>
      </g>
      <g   id="g3203" stroke-width="0">
       <title   id="0.1.0.0.0.1.2.0" oldid="0.1.0.0.0.1.2.0">text:AL_H</title>
       <text  x="9.72" y="30.6" fill="#ffffff"  stroke="none" style="text-anchor:start;font-family:OCRA" id="text3207" font-size="3.5">AL_H</text>
      </g>
      <g   id="g3209" stroke-width="0">
       <title   id="0.1.0.0.0.1.3.0" oldid="0.1.0.0.0.1.3.0">text:AL_L</title>
       <text  x="9.72" y="23.4" fill="#ffffff"  stroke="none" style="text-anchor:start;font-family:OCRA" id="text3213" font-size="3.5">AL_L</text>
      </g>
      <g   id="g3215" stroke-width="0">
       <title   id="0.1.0.0.0.1.4.0" oldid="0.1.0.0.0.1.4.0">text:SCL</title>
       <text  x="9.72" y="16.2" fill="#ffffff"  stroke="none" style="text-anchor:start;font-family:OCRA" id="text3219" font-size="3.5">SCL</text>
      </g>
      <g   id="g3221" stroke-width="0">
       <title   id="0.1.0.0.0.1.5.0" oldid="0.1.0.0.0.1.5.0">text:GND</title>
       <text  x="9.72" y="44.64" fill="#ffffff"  stroke="none" style="text-anchor:start;font-family:OCRA" id="text3225" font-size="3.5">GND</text>
      </g>
      <g   id="g3227" stroke-width="0">
       <title   id="0.1.0.0.0.1.6.0" oldid="0.1.0.0.0.1.6.0">text:VDD</title>
       <text  x="9.72" y="37.44" fill="#ffffff"  stroke="none" style="text-anchor:start;font-family:OCRA" id="text3231" font-size="3.5">VDD</text>
      </g>
      <g   id="g3233" stroke-width="0">
       <title   id="0.1.0.0.0.1.7.0" oldid="0.1.0.0.0.1.7.0">element:SL1</title>
       <g   id="g3237" stroke-width="0">
        <title   id="0.1.0.0.0.1.7.1.0" oldid="0.1.0.0.0.1.7.1.0">package:1X06</title>
        <line   stroke="#ffffff" style="stroke-linecap:round" id="line3241" y1="39.6" x1="7.2" y2="41.4" stroke-width="0.576" x2="9"/>
        <line   stroke="#ffffff" style="stroke-linecap:round" id="line3243" y1="41.4" x1="9" y2="45" stroke-width="0.576" x2="9"/>
        <line   stroke="#ffffff" style="stroke-linecap:round" id="line3245" y1="45" x1="9" y2="46.8" stroke-width="0.576" x2="7.2"/>
        <line   stroke="#ffffff" style="stroke-linecap:round" id="line3247" y1="46.8" x1="3.6" y2="45" stroke-width="0.576" x2="1.8"/>
        <line   stroke="#ffffff" style="stroke-linecap:round" id="line3249" y1="45" x1="1.8" y2="41.4" stroke-width="0.576" x2="1.8"/>
        <line   stroke="#ffffff" style="stroke-linecap:round" id="line3251" y1="41.4" x1="1.8" y2="39.6" stroke-width="0.576" x2="3.6"/>
        <line   stroke="#ffffff" style="stroke-linecap:round" id="line3253" y1="27" x1="9" y2="30.6" stroke-width="0.576" x2="9"/>
        <line   stroke="#ffffff" style="stroke-linecap:round" id="line3255" y1="30.6" x1="9" y2="32.4" stroke-width="0.576" x2="7.2"/>
        <line   stroke="#ffffff" style="stroke-linecap:round" id="line3257" y1="32.4" x1="3.6" y2="30.6" stroke-width="0.576" x2="1.8"/>
        <line   stroke="#ffffff" style="stroke-linecap:round" id="line3259" y1="32.4" x1="7.2" y2="34.2" stroke-width="0.576" x2="9"/>
        <line   stroke="#ffffff" style="stroke-linecap:round" id="line3261" y1="34.2" x1="9" y2="37.8" stroke-width="0.576" x2="9"/>
        <line   stroke="#ffffff" style="stroke-linecap:round" id="line3263" y1="37.8" x1="9" y2="39.6" stroke-width="0.576" x2="7.2"/>
        <line   stroke="#ffffff" style="stroke-linecap:round" id="line3265" y1="39.6" x1="3.6" y2="37.8" stroke-width="0.576" x2="1.8"/>
        <line   stroke="#ffffff" style="stroke-linecap:round" id="line3267" y1="37.8" x1="1.8" y2="34.2" stroke-width="0.576" x2="1.8"/>
        <line   stroke="#ffffff" style="stroke-linecap:round" id="line3269" y1="34.2" x1="1.8" y2="32.4" stroke-width="0.576" x2="3.6"/>
        <line   stroke="#ffffff" style="stroke-linecap:round" id="line3271" y1="18" x1="7.2" y2="19.8" stroke-width="0.576" x2="9"/>
        <line   stroke="#ffffff" style="stroke-linecap:round" id="line3273" y1="19.8" x1="9" y2="23.4" stroke-width="0.576" x2="9"/>
        <line   stroke="#ffffff" style="stroke-linecap:round" id="line3275" y1="23.4" x1="9" y2="25.2" stroke-width="0.576" x2="7.2"/>
        <line   stroke="#ffffff" style="stroke-linecap:round" id="line3277" y1="25.2" x1="3.6" y2="23.4" stroke-width="0.576" x2="1.8"/>
        <line   stroke="#ffffff" style="stroke-linecap:round" id="line3279" y1="23.4" x1="1.8" y2="19.8" stroke-width="0.576" x2="1.8"/>
        <line   stroke="#ffffff" style="stroke-linecap:round" id="line3281" y1="19.8" x1="1.8" y2="18" stroke-width="0.576" x2="3.6"/>
        <line   stroke="#ffffff" style="stroke-linecap:round" id="line3283" y1="27" x1="9" y2="25.2" stroke-width="0.576" x2="7.2"/>
        <line   stroke="#ffffff" style="stroke-linecap:round" id="line3285" y1="25.2" x1="3.6" y2="27" stroke-width="0.576" x2="1.8"/>
        <line   stroke="#ffffff" style="stroke-linecap:round" id="line3287" y1="30.6" x1="1.8" y2="27" stroke-width="0.576" x2="1.8"/>
        <line   stroke="#ffffff" style="stroke-linecap:round" id="line3289" y1="5.4" x1="9" y2="9" stroke-width="0.576" x2="9"/>
        <line   stroke="#ffffff" style="stroke-linecap:round" id="line3291" y1="9" x1="9" y2="10.8" stroke-width="0.576" x2="7.2"/>
        <line   stroke="#ffffff" style="stroke-linecap:round" id="line3293" y1="10.8" x1="3.6" y2="9" stroke-width="0.576" x2="1.8"/>
        <line   stroke="#ffffff" style="stroke-linecap:round" id="line3295" y1="10.8" x1="7.2" y2="12.6" stroke-width="0.576" x2="9"/>
        <line   stroke="#ffffff" style="stroke-linecap:round" id="line3297" y1="12.6" x1="9" y2="16.2" stroke-width="0.576" x2="9"/>
        <line   stroke="#ffffff" style="stroke-linecap:round" id="line3299" y1="16.2" x1="9" y2="18" stroke-width="0.576" x2="7.2"/>
        <line   stroke="#ffffff" style="stroke-linecap:round" id="line3301" y1="18" x1="3.6" y2="16.2" stroke-width="0.576" x2="1.8"/>
        <line   stroke="#ffffff" style="stroke-linecap:round" id="line3303" y1="16.2" x1="1.8" y2="12.6" stroke-width="0.576" x2="1.8"/>
        <line   stroke="#ffffff" style="stroke-linecap:round" id="line3305" y1="12.6" x1="1.8" y2="10.8" stroke-width="0.576" x2="3.6"/>
        <line   stroke="#ffffff" style="stroke-linecap:round" id="line3307" y1="3.6" x1="7.2" y2="3.6" stroke-width="0.576" x2="3.6"/>
        <line   stroke="#ffffff" style="stroke-linecap:round" id="line3309" y1="5.4" x1="9" y2="3.6" stroke-width="0.576" x2="7.2"/>
        <line   stroke="#ffffff" style="stroke-linecap:round" id="line3311" y1="3.6" x1="3.6" y2="5.4" stroke-width="0.576" x2="1.8"/>
        <line   stroke="#ffffff" style="stroke-linecap:round" id="line3313" y1="9" x1="1.8" y2="5.4" stroke-width="0.576" x2="1.8"/>
        <line   stroke="#ffffff" style="stroke-linecap:round" id="line3315" y1="46.8" x1="7.2" y2="46.8" stroke-width="0.576" x2="3.6"/>
       </g>
      </g>
      <g   id="g3317" stroke-width="0">
       <title   id="0.1.0.0.0.1.8.0" oldid="0.1.0.0.0.1.8.0">element:U$1</title>
       <g   id="g3321" stroke-width="0">
        <title   id="0.1.0.0.0.1.8.1.0" oldid="0.1.0.0.0.1.8.1.0">package:FIDUCIAL-1X2</title>
       </g>
      </g>
      <g   id="g3325" stroke-width="0">
       <title   id="0.1.0.0.0.1.9.0" oldid="0.1.0.0.0.1.9.0">element:U$2</title>
       <g   id="g3329" stroke-width="0">
        <title   id="0.1.0.0.0.1.9.1.0" oldid="0.1.0.0.0.1.9.1.0">package:SFE-NEW-WEBLOGO</title>
       </g>
      </g>
      <g   id="g3333" stroke-width="0">
       <title   id="0.1.0.0.0.1.10.0" oldid="0.1.0.0.0.1.10.0">element:U$3</title>
       <g   id="g3337" stroke-width="0">
        <title   id="0.1.0.0.0.1.10.1.0" oldid="0.1.0.0.0.1.10.1.0">package:FIDUCIAL-1X2</title>
       </g>
      </g>
      <g   id="g3341" stroke-width="0">
       <title   id="0.1.0.0.0.1.11.0" oldid="0.1.0.0.0.1.11.0">element:U$4</title>
       <g   id="g3345" stroke-width="0">
        <title   id="0.1.0.0.0.1.11.1.0" oldid="0.1.0.0.0.1.11.1.0">package:LFCSP-16</title>
        <line   stroke="#ffffff" style="stroke-linecap:round" id="line3349" y1="30.8693" x1="31.452" y2="29.452" stroke-width="0.576" x2="32.8693"/>
        <line   stroke="#ffffff" style="stroke-linecap:round" id="line3351" y1="30.8693" x1="22.948" y2="30.8693" stroke-width="0.576" x2="21.5307"/>
        <line   stroke="#ffffff" style="stroke-linecap:round" id="line3353" y1="30.8693" x1="21.5307" y2="29.452" stroke-width="0.576" x2="21.5307"/>
        <line   stroke="#ffffff" style="stroke-linecap:round" id="line3355" y1="20.948" x1="21.5307" y2="19.5307" stroke-width="0.576" x2="21.5307"/>
        <line   stroke="#ffffff" style="stroke-linecap:round" id="line3357" y1="19.5307" x1="21.5307" y2="19.5307" stroke-width="0.576" x2="21.948"/>
        <line   stroke="#ffffff" style="stroke-linecap:round" id="line3359" y1="19.5307" x1="31.452" y2="19.5307" stroke-width="0.576" x2="32.8693"/>
        <line   stroke="#ffffff" style="stroke-linecap:round" id="line3361" y1="19.5307" x1="32.8693" y2="20.948" stroke-width="0.576" x2="32.8693"/>
       </g>
      </g>
     </g>
     <rect  width="11.3386" x="21.5307" y="19.5307" fill="#333333"  height="11.3386" stroke="none" fill-opacity="1" id="rect3363"/>
     <circle  fill="none" cx="5.4"  cy="7.2" stroke="#9a916c" r="2.052" id="connector8pin" stroke-width="1.224"/>
     <circle  fill="none" cx="5.4"  cy="14.4" stroke="#9a916c" r="2.052" id="connector9pin" stroke-width="1.224"/>
     <circle  fill="none" cx="5.4"  cy="21.6" stroke="#9a916c" r="2.052" id="connector10pin" stroke-width="1.224"/>
     <circle  fill="none" cx="5.4"  cy="28.8" stroke="#9a916c" r="2.052" id="connector11pin" stroke-width="1.224"/>
     <circle  fill="none" cx="5.4"  cy="36" stroke="#9a916c" r="2.052" id="connector12pin" stroke-width="1.224"/>
     <circle  fill="none" cx="5.4"  cy="43.2" stroke="#9a916c" r="2.052" id="connector13pin" stroke-width="1.224"/>
    </g>
   </g>
  </g>
 </g>
</svg>
