<?xml version='1.0' encoding='utf-8'?>
<!DOCTYPE svg>
<!-- Generator: Adobe Illustrator 16.0.0, SVG Export Plug-In . SVG Version: 6.00 Build 0)  -->
<svg xmlns="http://www.w3.org/2000/svg"  width="0.945861in" xml:space="preserve" xmlns:xml="http://www.w3.org/XML/1998/namespace" x="0px" version="1.1" y="0px" height="1.25893in" viewBox="0 0 68.102 90.643" id="0" enable-background="new 0 0 68.102 90.643">
 <g   id="0.0">
  <g   id="0.0.0">
   <path  fill="#676666"  id="0.0.0.0" d="M64.931,30.447c-0.353,0.301-0.352,0.696-0.35,1.117c0.014,2.304,0.004,4.604,0.008,6.907c0.001,0.412,0.024,0.824,0.046,1.235c0.011,0.226,0.373,0.613,0.591,0.58c0.504-0.079,0.928,0.181,1.392,0.271c0.087,0.017,0.106,0.065,0.106,0.14c0.002,0.077,0,0.154,0,0.231c0,15.152,0,30.305,0.008,45.458c0,0.396-0.266,0.587-0.51,0.735c-0.219,0.132-0.408,0.276-0.578,0.451c-0.117,0.121-0.24,0.183-0.406,0.169c-0.096-0.01-0.191-0.004-0.288-0.004c-20.903,0-41.807-0.001-62.709,0.008c-0.328,0-0.521-0.205-0.743-0.37c-0.229-0.171-0.382-0.435-0.65-0.562c-0.08-0.038-0.069-0.107-0.071-0.173c-0.003-0.154,0-0.309,0-0.463c0-17.792,0-35.584,0-53.375c0-0.413,0.052-0.466,0.475-0.485c0.096-0.004,0.191,0,0.289-0.001c0.343-0.003,0.574-0.229,0.576-0.566c0.001-0.896,0.001-1.792,0-2.688c0-0.342-0.123-0.456-0.471-0.464C1.365,28.592,1,28.716,0.833,28.553c-0.182-0.177-0.058-0.546-0.058-0.831C0.773,22.588,0.775,17.454,0.769,12.32c0-0.212,0.063-0.354,0.216-0.497c0.602-0.557,1.17-1.146,1.785-1.687c0.992-0.869,1.906-1.821,2.896-2.691c0.794-0.697,1.528-1.461,2.321-2.158C8.99,4.4,9.924,3.443,10.921,2.553c0.509-0.455,1.001-0.925,1.499-1.391c0.09-0.084,0.178-0.143,0.305-0.125c0.058,0.007,0.115,0.001,0.173,0.001c17.329,0,34.66,0,51.988-0.004c0.248,0,0.447,0.087,0.61,0.261c0.349,0.372,0.73,0.706,1.12,1.034c0.086,0.071,0.11,0.141,0.106,0.241c-0.006,0.185-0.002,0.366-0.002,0.551c0,6.028,0,12.06,0,18.09c0,0.115-0.006,0.229-0.009,0.346c-0.104-0.002-0.21,0.007-0.313-0.007c-0.369-0.05-0.699,0.197-0.713,0.563c-0.006,0.184-0.041,0.356-0.063,0.534c-0.066,0.003-0.138,0.017-0.201,0.009c-0.587-0.059-0.835,0.171-0.835,0.771c0,1.066-0.012,2.133,0.004,3.199c0.017,1.052-0.077,2.105,0.103,3.157C64.737,30.028,64.712,30.274,64.931,30.447z M9.964,16.443c0-1.667-0.003-3.333,0.004-5c0.001-0.214-0.038-0.296-0.279-0.295c-1.763,0.013-3.525,0.013-5.289,0c-0.24-0.001-0.278,0.081-0.278,0.295c0.006,3.333,0.007,6.667-0.002,10c-0.001,0.251,0.08,0.295,0.31,0.294c1.744-0.009,3.487-0.012,5.23,0.002c0.271,0.004,0.311-0.085,0.309-0.323C9.959,19.756,9.964,18.099,9.964,16.443z M25.339,10.344c0,1.772,0.003,3.545-0.004,5.317c-0.001,0.214,0.038,0.297,0.278,0.295c1.629-0.014,3.257-0.014,4.885,0c0.24,0.001,0.278-0.081,0.278-0.295c-0.006-3.525-0.007-7.053,0.001-10.577c0.001-0.251-0.078-0.295-0.309-0.294c-1.609,0.01-3.218,0.013-4.826-0.002c-0.271-0.002-0.311,0.085-0.309,0.323C25.343,6.857,25.339,8.601,25.339,10.344z M51.638,10.344c0-1.753-0.003-3.506,0.006-5.26c0-0.214-0.039-0.297-0.278-0.295c-1.63,0.012-3.257,0.012-4.886,0C46.237,4.788,46.2,4.871,46.2,5.085c0.006,3.506,0.008,7.013-0.002,10.52c0,0.251,0.079,0.295,0.31,0.294c1.609-0.01,3.218-0.013,4.826,0.002c0.271,0.002,0.312-0.085,0.31-0.323C51.634,13.832,51.638,12.088,51.638,10.344z M23.72,10.417c0-1.772-0.004-3.545,0.005-5.317c0.001-0.229-0.042-0.312-0.294-0.31c-1.599,0.012-3.198,0.012-4.797,0c-0.252-0.002-0.295,0.08-0.294,0.31c0.007,3.535,0.007,7.071,0,10.606c0,0.229,0.042,0.312,0.294,0.31c1.599-0.013,3.198-0.013,4.797,0c0.252,0.001,0.295-0.08,0.294-0.31C23.716,13.943,23.72,12.179,23.72,10.417z M11.583,10.446c0,1.772,0.004,3.547-0.005,5.317c-0.001,0.23,0.042,0.313,0.294,0.31c1.599-0.012,3.197-0.012,4.797,0c0.252,0.004,0.295-0.078,0.294-0.31c-0.007-3.536-0.007-7.071,0-10.606c0-0.229-0.042-0.312-0.294-0.31c-1.6,0.012-3.198,0.012-4.797,0c-0.252-0.002-0.295,0.08-0.294,0.31C11.586,6.92,11.583,8.683,11.583,10.446z M37.767,10.344c0-1.753-0.004-3.506,0.004-5.26c0.002-0.214-0.037-0.297-0.277-0.295c-1.628,0.012-3.258,0.012-4.885,0c-0.24-0.001-0.278,0.081-0.278,0.295c0.006,3.485,0.007,6.975-0.002,10.461c0,0.252,0.079,0.296,0.31,0.294c1.609-0.01,3.217-0.013,4.826,0.002c0.271,0.002,0.312-0.085,0.31-0.326C37.763,13.793,37.767,12.069,37.767,10.344z M44.702,10.316c0-1.744-0.005-3.485,0.004-5.229c0.001-0.214-0.037-0.297-0.277-0.296c-1.629,0.012-3.257,0.012-4.885,0c-0.24-0.002-0.279,0.08-0.279,0.295c0.006,3.485,0.008,6.974-0.002,10.461c0,0.251,0.079,0.296,0.312,0.294c1.606-0.01,3.217-0.013,4.825,0.002c0.271,0.002,0.311-0.085,0.31-0.325C44.696,13.784,44.702,12.05,44.702,10.316z M53.198,10.27c0,1.744,0.003,3.487-0.005,5.231c-0.002,0.202,0.029,0.285,0.263,0.283c1.368-0.014,2.735-0.011,4.104-0.004c0.188,0.003,0.27-0.03,0.269-0.245c-0.009-3.497-0.009-6.994,0-10.491c0-0.209-0.067-0.253-0.265-0.252c-1.367,0.007-2.733,0.009-4.104-0.001c-0.226-0.002-0.269,0.067-0.269,0.276C53.202,6.802,53.198,8.536,53.198,10.27z M62.679,10.303c0-1.744-0.004-3.487,0.004-5.231c0-0.199-0.029-0.284-0.263-0.281c-1.116,0.013-2.235,0.01-3.354,0.002c-0.188-0.002-0.268,0.03-0.267,0.247c0.008,3.497,0.006,6.994,0,10.488c-0.001,0.209,0.066,0.256,0.264,0.252c1.117-0.009,2.233-0.011,3.353,0.001c0.227,0.004,0.27-0.068,0.268-0.276C62.674,13.771,62.679,12.037,62.679,10.303z"/>
   <path  fill="#030303"  id="0.0.0.1" d="M64.931,30.447c-0.219-0.172-0.193-0.418-0.234-0.66c-0.18-1.052-0.086-2.105-0.102-3.157c-0.017-1.066-0.005-2.133-0.005-3.199c0-0.602,0.248-0.829,0.835-0.771c0.065,0.006,0.135-0.007,0.201-0.011c0.176,0.061,0.298,0.172,0.342,0.356c0.021,0.09,0.063,0.16,0.152,0.192c0.301,0.113,0.366,0.345,0.364,0.646c-0.01,1.549-0.004,3.099-0.006,4.648c0,0.388,0.057,0.785-0.17,1.142c-0.011,0.013-0.021,0.021-0.035,0.029c-0.082-0.019-0.135,0.003-0.133,0.099c-0.132,0.146-0.14,0.338-0.188,0.514c-0.081-0.011-0.117,0.024-0.105,0.105C65.547,30.482,65.233,30.392,64.931,30.447z"/>
   <path  fill="#656464"  id="0.0.0.2" d="M66.31,29.633c0.228-0.355,0.17-0.753,0.172-1.142c0.002-1.551-0.004-3.101,0.006-4.648c0.002-0.3-0.064-0.531-0.365-0.646c-0.092-0.032-0.131-0.104-0.151-0.192c-0.045-0.186-0.166-0.297-0.343-0.356c0.021-0.178,0.058-0.352,0.063-0.534c0.013-0.365,0.345-0.613,0.713-0.563c0.104,0.014,0.207,0.005,0.313,0.007c-0.025,0.188-0.191,0.119-0.292,0.144c-0.571,0.131-0.7,0.45-0.475,0.992c0.131,0.314,0.295,0.481,0.619,0.537c0.162,0.028,0.156,0.187,0.156,0.326c-0.002,1.723-0.002,3.446-0.002,5.169c0,0.154,0,0.31,0,0.462C66.724,29.598,66.724,29.599,66.31,29.633z"/>
   <path  fill="#656464"  id="0.0.0.3" d="M66.144,29.76c-0.002-0.095,0.051-0.116,0.131-0.099C66.278,29.758,66.202,29.748,66.144,29.76z"/>
   <path  fill="#676666"  id="0.0.0.4" d="M65.847,30.38c-0.012-0.082,0.024-0.117,0.105-0.105C65.991,30.385,65.957,30.421,65.847,30.38z"/>
   <path  fill="#FABD0E"  id="connector0pin" d="M9.964,16.443c0,1.657-0.005,3.313,0.005,4.973c0.001,0.238-0.039,0.328-0.309,0.323c-1.743-0.015-3.487-0.012-5.23-0.002c-0.229,0.001-0.311-0.042-0.31-0.294c0.009-3.333,0.008-6.667,0.002-10c0-0.214,0.038-0.296,0.278-0.295c1.764,0.013,3.525,0.013,5.289,0c0.241-0.001,0.28,0.081,0.279,0.295C9.96,13.109,9.964,14.776,9.964,16.443z"/>
   <path  fill="#FABD0E"  id="connector3pin" d="M25.339,10.344c0-1.744,0.004-3.487-0.005-5.231c-0.001-0.238,0.039-0.326,0.309-0.323C27.251,4.803,28.86,4.8,30.469,4.79c0.23-0.001,0.31,0.043,0.309,0.294c-0.009,3.524-0.007,7.052-0.001,10.577c0,0.214-0.038,0.297-0.278,0.295c-1.628-0.014-3.256-0.014-4.885,0c-0.24,0.001-0.279-0.081-0.278-0.295C25.342,13.889,25.339,12.117,25.339,10.344z"/>
   <path  fill="#FABD0E"  id="connector6pin" d="M51.638,10.344c0,1.744-0.004,3.487,0.006,5.231c0.002,0.238-0.037,0.326-0.31,0.323c-1.608-0.015-3.217-0.012-4.826-0.002c-0.229,0.001-0.311-0.043-0.311-0.294c0.011-3.506,0.009-7.013,0.003-10.52c0-0.214,0.036-0.297,0.278-0.295c1.627,0.012,3.256,0.012,4.883,0c0.242-0.001,0.281,0.081,0.279,0.295C51.635,6.838,51.638,8.591,51.638,10.344z"/>
   <path  fill="#FABD0E"  id="connector2pin" d="M23.72,10.417c0,1.763-0.004,3.524,0.005,5.289c0.001,0.229-0.042,0.312-0.294,0.31c-1.599-0.013-3.198-0.013-4.797,0c-0.251,0.001-0.294-0.08-0.294-0.31c0.007-3.535,0.007-7.071,0-10.606c0-0.229,0.042-0.312,0.294-0.31c1.599,0.012,3.198,0.012,4.797,0c0.252-0.002,0.295,0.08,0.294,0.31C23.716,6.872,23.72,8.644,23.72,10.417z"/>
   <path  fill="#FABD0E"  id="connector1pin" d="M11.583,10.446c0-1.763,0.004-3.524-0.005-5.289c-0.001-0.229,0.042-0.312,0.294-0.31c1.599,0.012,3.197,0.012,4.797,0c0.251-0.002,0.294,0.08,0.294,0.31c-0.007,3.536-0.007,7.071,0,10.606c0,0.23-0.042,0.313-0.294,0.31c-1.6-0.012-3.198-0.012-4.797,0c-0.252,0.004-0.295-0.078-0.294-0.31C11.586,13.99,11.583,12.218,11.583,10.446z"/>
   <path  fill="#FABD0E"  id="connector4pin" d="M37.767,10.344c0,1.725-0.004,3.449,0.006,5.173c0,0.24-0.039,0.328-0.311,0.326c-1.607-0.015-3.217-0.012-4.826-0.002c-0.23,0.001-0.31-0.042-0.31-0.294c0.009-3.487,0.008-6.976,0.002-10.461c0-0.214,0.038-0.297,0.278-0.295c1.628,0.012,3.255,0.012,4.885,0c0.239-0.001,0.278,0.081,0.278,0.295C37.763,6.838,37.767,8.591,37.767,10.344z"/>
   <path  fill="#FABD0E"  id="connector5pin" d="M44.702,10.316c0,1.734-0.007,3.47,0.005,5.202c0.001,0.24-0.039,0.328-0.311,0.325c-1.607-0.015-3.217-0.012-4.826-0.002c-0.229,0.001-0.311-0.043-0.309-0.294c0.008-3.487,0.008-6.977,0.002-10.461c-0.002-0.215,0.037-0.297,0.278-0.295c1.628,0.011,3.256,0.011,4.884,0c0.241-0.001,0.279,0.082,0.278,0.296C44.698,6.828,44.702,8.572,44.702,10.316z"/>
   <path  fill="#FABD0E"  id="connector7pin" d="M53.198,10.27c0-1.732,0.004-3.468-0.005-5.202c-0.002-0.208,0.041-0.278,0.268-0.276c1.368,0.011,2.734,0.009,4.104,0.001c0.194-0.001,0.264,0.042,0.264,0.252c-0.008,3.497-0.008,6.994,0,10.491c0.001,0.215-0.078,0.246-0.268,0.245c-1.369-0.007-2.735-0.01-4.104,0.004c-0.231,0.002-0.264-0.081-0.264-0.283C53.201,13.757,53.198,12.013,53.198,10.27z"/>
   <path  fill="#FABD0E"  id="connector8pin" d="M62.679,10.303c0,1.734-0.005,3.468,0.004,5.202c0.002,0.208-0.041,0.281-0.268,0.278c-1.117-0.014-2.234-0.012-3.353-0.003c-0.195,0.003-0.265-0.043-0.264-0.252c0.006-3.495,0.008-6.992,0-10.488c-0.001-0.218,0.078-0.249,0.268-0.248C60.185,4.8,61.304,4.803,62.42,4.79c0.23-0.003,0.263,0.082,0.263,0.281C62.675,6.816,62.679,8.56,62.679,10.303z"/>
  </g>
 </g>
 <desc   id="0.1" oldid="0.1">
  <referenceFile   id="0.1.0" oldid="0.1.0">microSD-socket.svg</referenceFile>
 </desc>
 <desc   id="0.2" oldid="0.2">Fritzing breadboard generated by brd2svg</desc>
 <g   id="layer1" transform="translate(48.1805,-428.3616)">
  <g   id="g19013" transform="translate(3.541339,3.537934)">
   <path  fill="#231F20"  id="path15576" d="M-22.084,482.267c0.788-3.442-2.219-5.052-5.783-6.122c-2.424-0.715-6.813-1.709-6.813-2.57c0-1.101,2.944-1.066,4.994-1.129c2.244-0.059,10.898-0.071,10.898-0.071l1.092-3.116c0,0-6.231-0.167-12.404,0.135c-8.909,0.45-10.57,2.423-10.777,4.316c-0.267,2.451,3.044,4.148,5.043,4.922c1.903,0.727,4.934,1.26,4.934,2.209c0,0.765-1.14,0.823-4.424,0.765c-5.08-0.097-9.359-0.595-9.359-0.595l-1.989,5.505c0,0,4.85,0.343,10.015,0.343C-29.287,486.852-23.199,487.13-22.084,482.267"/>
   <path  fill="#231F20"  id="path15578" d="M-7.136,474.994c0.06,0.134,0.106,0.255,0.132,0.388c0.073,0.509-0.132,1.018-0.604,1.504c-0.486,0.486-1.236,0.945-2.183,1.344c-0.958,0.41-2.133,0.754-3.442,1.02c-1.321,0.254-3.53,0.473-5.057,0.521l-2.499,7.044c5.771-0.253,21.738-0.193,27.873-7.819c0.779-1.213,0.909-2.461,0.243-3.674c-0.741-1.37-2.156-2.425-3.867-3.273l-10.727,2.703C-7.223,474.836-7.171,474.922-7.136,474.994"/>
   <path  fill="#231F20"  id="path15580" d="M-8.033,474.022c0.047,0.039,0.084,0.076,0.146,0.11l9.068-3.007c-0.618-0.266-1.479-0.582-2.109-0.75l-7.857,3.165C-8.566,473.647-8.219,473.903-8.033,474.022"/>
   <path  fill="#231F20"  id="path15582" d="M-10.616,472.967l5.36-3.336c-1.297-0.182-2.377-0.267-3.008-0.287c-2.512-0.06-3.502-0.108-6.282-0.097l-1.113,3.14c0.691,0.011,0.992-0.013,2.157,0.098C-12.446,472.581-11.477,472.751-10.616,472.967"/>
   <path  fill="#231F20"  id="path15584" d="M2.779,494.367h-16.22c-0.63,0.034-0.777,0.23-0.777,0.729v3.525c0,0.488,0.147,0.694,0.777,0.717h16.22v2.657h-18.003c-1.406,0-2.157-0.532-2.157-1.695v-6.886c0-1.156,0.751-1.687,2.157-1.687H2.779V494.367z M-21.43,501.992h-3.141v-3.806h-13.857v3.806h-3.166v-10.268h3.166v3.806h13.857v-3.806h3.141V501.992z M5.397,489.397h-49.656c-1.165,0-2.123,0.959-2.123,2.122V502.2c0,1.163,0.958,2.122,2.123,2.122H5.397c1.164,0,2.111-0.959,2.111-2.122v-10.681C7.51,490.353,6.564,489.397,5.397,489.397"/>
   <path  fill="#231F20"  id="path15586" d="M8.708,472.446l0.403-2.784h0.898l0.059-0.412H7.824l-0.059,0.412h0.896l-0.4,2.784H8.708z"/>
   <path  fill="#231F20"  id="path15588" d="M13.328,472.446v-3.199h-0.412l-1.164,2.183l-0.498-2.183h-0.363l-1.055,3.199h0.428l0.785-2.447h0.014l0.545,2.447l1.295-2.424h0.014v2.424H13.328z"/>
  </g>
 </g>
</svg>
