<?xml version="1.0" encoding="utf-8"?>
<!-- Generator: Adobe Illustrator 15.0.2, SVG Export Plug-In . SVG Version: 6.00 Build 0)  -->
<svg version="1.2" baseProfile="tiny" id="Layer_1" xmlns:svg="http://www.w3.org/2000/svg"
	 xmlns="http://www.w3.org/2000/svg" xmlns:xlink="http://www.w3.org/1999/xlink" x="0px" y="0px" width="32px" height="32px"
	 viewBox="0 0 32 32" xml:space="preserve">
<g>
	<rect id="connector1pin" x="19.16" y="46.66" fill="none" width="2.717" height="0.906"/>
	<rect id="connector0pin" x="10.101" y="46.66" fill="none" width="2.719" height="0.906"/>
	
		<line id="connector0leg" fill="none" stroke="#8C8C8C" stroke-width="2.8346" stroke-linecap="round" x1="11.46" y1="53.907" x2="11.46" y2="62.966"/>
	
		<line id="connector1leg" fill="none" stroke="#8C8C8C" stroke-width="2.8346" stroke-linecap="round" x1="20.52" y1="53.907" x2="20.52" y2="62.966"/>
	<line fill="none" stroke="#8C8C8C" stroke-width="1.4173" stroke-linecap="round" x1="11.46" y1="37.907" x2="11.46" y2="60.073"/>
	
		<line fill="none" stroke="#8C8C8C" stroke-width="1.4173" stroke-linecap="round" x1="20.457" y1="37.907" x2="20.457" y2="60.073"/>
	<path fill="#FF8533" d="M4.735,39.738c0,3.824,5.042,6.922,11.261,6.922c6.219,0,11.266-3.098,11.266-6.922l0.004-0.002V12.559
		c0,0-0.061-0.878-0.521-1.828c-0.266-0.541-1.311-2.288-3.275-2.938c-1.654-0.547-3.17-1.225-4.215-2.028
		c-1.047-0.804-0.584-2.251-0.916-3.461c-0.119-0.435-1.082-1.269-2.292-1.269c-1.21,0-1.893,0.572-2.246,0.986
		c-0.356,0.414-0.5,2.47-1.208,3.771c-0.708,1.301-2.466,1.497-3.949,1.941C7.576,8.053,6.029,9.07,5.564,9.806
		c-0.752,1.187-0.83,2.469-0.83,2.469V39.738z"/>
	<path fill="#F9E9E1" d="M5.409,36.335c0,0-0.081,2.823,0.587,4.955c0.369,1.177,1.639,2.316,3.028,3.106
		c1.84,1.046,3.736,1.651,7.196,1.651c3.461,0,8.456-1.377,10.028-5.073C21.766,44.278,9.105,43.491,5.409,36.335z"/>
	<g>
		
			<line fill="none" stroke="#FF8622" stroke-width="2.126" stroke-linecap="round" stroke-miterlimit="500" x1="20.457" y1="39.034" x2="20.457" y2="18.914"/>
		
			<line fill="none" stroke="#FC7315" stroke-width="1.4173" stroke-linecap="round" stroke-miterlimit="500" x1="20.457" y1="39.034" x2="20.457" y2="18.914"/>
	</g>
	<g>
		
			<line fill="none" stroke="#FF8622" stroke-width="2.126" stroke-linecap="round" stroke-miterlimit="500" x1="11.46" y1="39.034" x2="11.46" y2="18.914"/>
		
			<line fill="none" stroke="#FC7315" stroke-width="1.4173" stroke-linecap="round" stroke-miterlimit="500" x1="11.46" y1="39.034" x2="11.46" y2="18.914"/>
	</g>
	<path fill="#F9D1B7" d="M13.744,13.581c-1.721-0.479,3.879,0.63,8.807-0.854c1.756-0.528,3.252-1.348,3.252-1.348v25.797
		c0,0-0.734,0.943-1.469,1.467c-0.732,0.523-1.783,0.838-1.783,0.838S21.293,15.679,13.744,13.581z"/>
	<path fill="#FCF9F7" d="M9.548,7.997c0.917,0.944,3.566,1.492,6.397,1.389c2.833-0.105,4.692-1.261,5.192-1.86
		c-1.547,0.762-2.701,1.034-5.137,1c-2.23-0.03-4.382-1.179-4.382-1.179C11.069,7.709,9.548,7.997,9.548,7.997z"/>
</g>
</svg>
