<?xml version="1.0" encoding="utf-8"?>
<!-- Generator: Adobe Illustrator 14.0.0, SVG Export Plug-In . SVG Version: 6.00 Build 43363)  -->
<svg version="1.2" baseProfile="tiny" id="svg2" xmlns="http://www.w3.org/2000/svg" xmlns:xlink="http://www.w3.org/1999/xlink"
	 x="0px" y="0px" width="32px" height="32px" viewBox="0 0 32 32" xml:space="preserve">
<g id="icon" transform="matrix(0.9 0 0 0.9 0 0)">
	<rect id="rect4" x="3.5" y="26.319" fill="#8C8C8C" width="3" height="6.681"/>
	<rect id="rect6" x="13.5" y="26.319" fill="#8C8C8C" width="3" height="6.681"/>
	<rect id="rect8" x="23.5" y="26.319" fill="#8C8C8C" width="2.999" height="6.681"/>
	<rect id="rect10" x="33.5" y="26.319" fill="#8C8C8C" width="2.999" height="6.681"/>
	<rect id="rect12" x="43.5" y="26.319" fill="#8C8C8C" width="2.999" height="6.681"/>
	<rect id="rect14" x="53.5" y="26.319" fill="#8C8C8C" width="2.999" height="6.681"/>
	<rect id="rect16" x="63.5" y="26.319" fill="#8C8C8C" width="2.999" height="6.681"/>
	<rect id="rect18" x="73.5" y="26.319" fill="#8C8C8C" width="2.999" height="6.681"/>
	<rect id="rect20" x="83.5" y="26.319" fill="#8C8C8C" width="2.999" height="6.681"/>
	<rect id="rect22" x="93.5" y="26.319" fill="#8C8C8C" width="2.999" height="6.681"/>
	<rect id="rect24" x="103.5" y="26.319" fill="#8C8C8C" width="2.999" height="6.681"/>
	<rect id="rect26" x="113.5" y="26.319" fill="#8C8C8C" width="2.999" height="6.681"/>
	<rect id="rect28" x="123.5" y="26.319" fill="#8C8C8C" width="2.999" height="6.681"/>
	<rect id="rect30" x="133.5" y="26.319" fill="#8C8C8C" width="2.999" height="6.681"/>
	<rect id="rect32" x="133.5" y="0" fill="#8C8C8C" width="2.999" height="6.68"/>
	<rect id="rect34" x="123.5" y="0" fill="#8C8C8C" width="2.999" height="6.68"/>
	<rect id="rect36" x="113.5" y="0" fill="#8C8C8C" width="2.999" height="6.68"/>
	<rect id="rect38" x="103.5" y="0" fill="#8C8C8C" width="2.999" height="6.68"/>
	<rect id="rect40" x="93.5" y="0" fill="#8C8C8C" width="2.999" height="6.68"/>
	<rect id="rect42" x="83.5" y="0" fill="#8C8C8C" width="2.999" height="6.68"/>
	<rect id="rect44" x="73.5" y="0" fill="#8C8C8C" width="2.999" height="6.68"/>
	<rect id="rect46" x="63.5" y="0" fill="#8C8C8C" width="2.999" height="6.68"/>
	<rect id="rect48" x="53.5" y="0" fill="#8C8C8C" width="2.999" height="6.68"/>
	<rect id="rect50" x="43.5" y="0" fill="#8C8C8C" width="2.999" height="6.68"/>
	<rect id="rect52" x="33.5" y="0" fill="#8C8C8C" width="2.999" height="6.68"/>
	<rect id="rect54" x="23.5" y="0" fill="#8C8C8C" width="2.999" height="6.68"/>
	<rect id="rect56" x="13.5" y="0" fill="#8C8C8C" width="3" height="6.68"/>
	<rect id="rect58" x="3.5" y="0" fill="#8C8C8C" width="3" height="6.68"/>
	<polygon id="polygon60" fill="#3D3D3D" points="0,3 140,3 139.25,11.5 0,11.5 	"/>
	<polygon id="polygon62" points="0,21.5 139.25,21.5 140,30 0,30 	"/>
	<polygon id="polygon64" fill="#8C8C8C" points="8.5,4.34 8.5,3.26 6.5,2.34 3.5,2.34 3.5,4.34 	"/>
	<polygon id="polygon66" fill="#8C8C8C" points="136.5,4.34 136.5,2.34 133.5,2.34 131.5,3.26 131.5,4.34 	"/>
	<polygon id="polygon68" fill="#8C8C8C" points="3.5,28.66 3.5,30.66 6.5,30.66 8.5,29.74 8.5,28.66 	"/>
	<polygon id="polygon70" fill="#8C8C8C" points="131.5,28.66 131.5,29.74 133.5,30.66 136.5,30.66 136.5,28.66 	"/>
	<polygon id="polygon72" fill="#8C8C8C" points="18.5,4.34 18.5,3.26 16.5,2.34 13.5,2.34 11.5,3.26 11.5,4.34 	"/>
	<polygon id="polygon74" fill="#8C8C8C" points="11.5,28.66 11.5,29.74 13.5,30.66 16.5,30.66 18.5,29.74 18.5,28.66 	"/>
	<polygon id="polygon76" fill="#8C8C8C" points="28.5,4.34 28.5,3.26 26.5,2.34 23.5,2.34 21.5,3.26 21.5,4.34 	"/>
	<polygon id="polygon78" fill="#8C8C8C" points="21.5,28.66 21.5,29.74 23.5,30.66 26.5,30.66 28.5,29.74 28.5,28.66 	"/>
	<polygon id="polygon80" fill="#8C8C8C" points="38.5,4.34 38.5,3.26 36.5,2.34 33.5,2.34 31.5,3.26 31.5,4.34 	"/>
	<polygon id="polygon82" fill="#8C8C8C" points="31.5,28.66 31.5,29.74 33.5,30.66 36.5,30.66 38.5,29.74 38.5,28.66 	"/>
	<polygon id="polygon84" fill="#8C8C8C" points="48.5,4.34 48.5,3.26 46.5,2.34 43.5,2.34 41.5,3.26 41.5,4.34 	"/>
	<polygon id="polygon86" fill="#8C8C8C" points="41.5,28.66 41.5,29.74 43.5,30.66 46.5,30.66 48.5,29.74 48.5,28.66 	"/>
	<polygon id="polygon88" fill="#8C8C8C" points="58.5,4.34 58.5,3.26 56.5,2.34 53.5,2.34 51.5,3.26 51.5,4.34 	"/>
	<polygon id="polygon90" fill="#8C8C8C" points="51.5,28.66 51.5,29.74 53.5,30.66 56.5,30.66 58.5,29.74 58.5,28.66 	"/>
	<polygon id="polygon92" fill="#8C8C8C" points="68.5,4.34 68.5,3.26 66.5,2.34 63.5,2.34 61.5,3.26 61.5,4.34 	"/>
	<polygon id="polygon94" fill="#8C8C8C" points="61.5,28.66 61.5,29.74 63.5,30.66 66.5,30.66 68.5,29.74 68.5,28.66 	"/>
	<polygon id="polygon96" fill="#8C8C8C" points="78.5,4.34 78.5,3.26 76.5,2.34 73.5,2.34 71.5,3.26 71.5,4.34 	"/>
	<polygon id="polygon98" fill="#8C8C8C" points="71.5,28.66 71.5,29.74 73.5,30.66 76.5,30.66 78.5,29.74 78.5,28.66 	"/>
	<polygon id="polygon100" fill="#8C8C8C" points="88.5,4.34 88.5,3.26 86.5,2.34 83.5,2.34 81.5,3.26 81.5,4.34 	"/>
	<polygon id="polygon102" fill="#8C8C8C" points="81.5,28.66 81.5,29.74 83.5,30.66 86.5,30.66 88.5,29.74 88.5,28.66 	"/>
	<polygon id="polygon104" fill="#8C8C8C" points="98.5,4.34 98.5,3.26 96.5,2.34 93.5,2.34 91.5,3.26 91.5,4.34 	"/>
	<polygon id="polygon106" fill="#8C8C8C" points="91.5,28.66 91.5,29.74 93.5,30.66 96.5,30.66 98.5,29.74 98.5,28.66 	"/>
	<polygon id="polygon108" fill="#8C8C8C" points="108.5,4.34 108.5,3.26 106.5,2.34 103.5,2.34 101.5,3.26 101.5,4.34 	"/>
	<polygon id="polygon110" fill="#8C8C8C" points="101.5,28.66 101.5,29.74 103.5,30.66 106.5,30.66 108.5,29.74 108.5,28.66 	"/>
	<polygon id="polygon112" fill="#8C8C8C" points="118.5,4.34 118.5,3.26 116.5,2.34 113.5,2.34 111.5,3.26 111.5,4.34 	"/>
	<polygon id="polygon114" fill="#8C8C8C" points="111.5,28.66 111.5,29.74 113.5,30.66 116.5,30.66 118.5,29.74 118.5,28.66 	"/>
	<polygon id="polygon116" fill="#8C8C8C" points="128.5,4.34 128.5,3.26 126.5,2.34 123.5,2.34 121.5,3.26 121.5,4.34 	"/>
	<polygon id="polygon118" fill="#8C8C8C" points="121.5,28.66 121.5,29.74 123.5,30.66 126.5,30.66 128.5,29.74 128.5,28.66 	"/>
	<polygon id="polygon120" fill="#141414" points="140,3 139.25,5.46 137.854,5.46 137.854,27.53 139.25,27.54 140,30 	"/>
	<polygon id="polygon122" fill="#1F1F1F" points="0,3 0.75,5.46 0.75,11.5 5,11.5 5,21.5 0.75,21.5 0.75,27.54 0,30 	"/>
	<polygon id="polygon124" fill="#1C1C1C" points="5,11.5 0.75,11.5 0.56,13.6 0.56,16.5 5,16.5 	"/>
	<polygon id="polygon126" fill="#383838" points="0.75,21.5 5,21.5 5,16.5 0.56,16.5 0.56,19.4 	"/>
	<path id="path128" fill="#303030" d="M0.75,5.46v6c2.38,0.45,4.19,2.53,4.19,5.04s-1.8,4.6-4.19,5.049v6h138.5V5.46H0.75z"/>
	<path id="path130" fill="#262626" d="M0.56,13.6v5.829c1.47-0.169,2.62-1.399,2.62-2.919C3.18,15,2.04,13.75,0.56,13.6z"/>
	<circle id="circle132" fill="#212121" cx="6.5" cy="23.47" r="2.059"/>
	<text transform="matrix(1.1111 0 0 1.1111 9.2594 14.0001)" fill="#E6E6E6" font-family="Droid Sans" font-size="8">STP16</text>
	<text transform="matrix(1.1111 0 0 1.1111 9.2594 24.6658)" fill="#E6E6E6" font-family="Droid Sans" font-size="8">DP05B1R</text>
</g>
</svg>
