<?xml version="1.0" encoding="UTF-8" standalone="no"?>
<!-- Generator: Adobe Illustrator 13.0.2, SVG Export Plug-In . SVG Version: 6.00 Build 14948)  -->

<svg
   xmlns:dc="http://purl.org/dc/elements/1.1/"
   xmlns:cc="http://creativecommons.org/ns#"
   xmlns:rdf="http://www.w3.org/1999/02/22-rdf-syntax-ns#"
   xmlns:svg="http://www.w3.org/2000/svg"
   xmlns="http://www.w3.org/2000/svg"
   xmlns:sodipodi="http://sodipodi.sourceforge.net/DTD/sodipodi-0.dtd"
   xmlns:inkscape="http://www.inkscape.org/namespaces/inkscape"
   width="29.700001"
   xml:space="preserve"
   x="0px"
   version="1.1"
   y="0px"
   height="29.700001"
   viewBox="0 0 23.760001 23.76"
   id="svg2"
   enable-background="new 0 0 50.4 23.76"
   
   ><metadata
   id="metadata6708"><rdf:RDF><cc:Work
       rdf:about=""><dc:format>image/svg+xml</dc:format><dc:type
         rdf:resource="http://purl.org/dc/dcmitype/StillImage" /><dc:title></dc:title></cc:Work></rdf:RDF></metadata><defs
   id="defs6706">
  
  
  
  
  
  
  
  
  
  
  
  
  
  
  
  
  
  
  
  
  
  
  
  
  
  
  
  
  
  
  
  
  
  
  
  
  
  
  
  
  
  
  
  
  
  
  
  
  
  
  
  
  
 </defs>
 <sodipodi:namedview
   showgrid="false"
   objecttolerance="10"
   pagecolor="#ffffff"
   bordercolor="#666666"
   id="namedview72"
   borderopacity="1"
   guidetolerance="10"
   gridtolerance="10"
   
   
   
   
   
   
   
   
   
   showguides="true"
   ><sodipodi:guide
     orientation="1,0"
     position="32.31699,38.393689"
     id="guide7097" /></sodipodi:namedview>
 
<path
   style="fill:#303030"
   d="m 0,2.1499994 0,19.4499996 23.75,0 0,-19.4499996 -23.75,0 z"
   id="middle"
    /><path
   style="fill:#3d3d3d"
   d="m 0,2.1499994 0,1.775 23.75,0 0,-1.775 -23.75,0 z"
   id="top"
    /><path
   d="m 0,19.824999 0,1.775 23.75,0 0,-1.775 -23.75,0 z"
   id="bottom"
    /><polygon
   style="fill:#1f1f1f"
   id="left"
   points="0,2.16 0.54,3.931 0.54,19.829 0,21.601 " /><polygon
   style="fill:#1c1c1c"
   id="left-upper-rect"
   points="0.403,9.777 0.403,11.88 3.6,11.88 3.6,8.28 0.54,8.251 " /><polygon
   style="fill:#383838"
   id="left-lower-rect"
   points="3.6,11.88 0.403,11.88 0.403,13.981 0.54,15.517 3.6,15.517 " /><path
   style="fill:#262626"
   
   d="m 0.403,9.7769994 v 4.1989996 c 1.059,-0.123 1.887,-1.009 1.887,-2.104 0,-1.095 -0.821,-1.9719996 -1.887,-2.0949996 z"
   id="slot" /><path
   style="fill:#303030"
   
   d="m 0.54,3.9309994 v 4.313 c 1.714,0.324 3.018,1.8209996 3.018,3.6289996 0,1.808 -1.298,3.312 -3.018,3.636 v 0.008 h 3.6 V 3.9309994 h -3.6 z"
   id="cover" /><circle
   style="fill:#212121"
   
   
   
   
   r="1.483"
   id="circle13"
   cy="16.898001"
   cx="4.6799998" /><rect
   style="fill:#8c8c8c"
   id="connector0pin"
   height="3.1240001"
   y="20.636"
   x="2.52"
   width="2.1600001" /><rect
   style="fill:#8c8c8c"
   id="rect6651"
   height="2.1589999"
   y="21.601"
   x="2.52"
   width="2.1600001" /><polygon
   style="fill:#8c8c8c"
   id="polygon18"
   points="4.68,22.075 6.12,21.413 6.12,20.636 2.52,20.636 2.52,22.075 " /><rect
   style="fill:#8c8c8c"
   y="-6.1035155e-07"
   id="connector13pin"
   height="3.125"
   x="2.52"
   width="2.1600001" /><rect
   style="fill:#8c8c8c"
   y="-6.1035155e-07"
   id="rect6655"
   height="2.1600001"
   x="2.52"
   width="2.1600001" /><polygon
   style="fill:#8c8c8c"
   id="polygon22"
   points="4.68,1.685 2.52,1.685 2.52,3.125 6.12,3.125 6.12,2.347 " /><rect
   style="fill:#8c8c8c"
   id="connector1pin"
   height="3.1240001"
   y="20.636"
   x="9.7200003"
   width="2.158" /><rect
   style="fill:#8c8c8c"
   id="rect6667"
   height="2.1589999"
   y="21.601"
   x="9.7200003"
   width="2.158" /><polygon
   style="fill:#8c8c8c"
   id="polygon34"
   points="8.28,20.636 8.28,21.413 9.72,22.075 11.88,22.075 13.32,21.413 13.32,20.636 " /><rect
   style="fill:#8c8c8c"
   y="-6.1035155e-07"
   id="connector12pin"
   height="3.125"
   x="9.7200003"
   width="2.158" /><rect
   style="fill:#8c8c8c"
   y="-6.1035155e-07"
   id="rect6671"
   height="2.1600001"
   x="9.7200003"
   width="2.158" /><polygon
   style="fill:#8c8c8c"
   id="polygon38"
   points="13.32,3.125 13.32,2.347 11.88,1.685 9.72,1.685 8.28,2.347 8.28,3.125 " /><rect
   style="fill:#8c8c8c"
   id="connector2pin"
   height="3.1240001"
   y="20.636"
   x="16.92"
   width="2.1600001" /><rect
   style="fill:#8c8c8c"
   id="rect6675"
   height="2.1589999"
   y="21.601"
   x="16.92"
   width="2.1600001" /><polygon
   style="fill:#8c8c8c"
   id="polygon42"
   points="15.48,20.636 15.48,21.413 16.92,22.075 19.08,22.075 20.52,21.413 20.52,20.636 " /><rect
   style="fill:#8c8c8c"
   y="-6.1035155e-07"
   id="connector11pin"
   height="3.125"
   x="16.92"
   width="2.1600001" /><rect
   style="fill:#8c8c8c"
   y="-6.1035155e-07"
   id="rect6679"
   height="2.1600001"
   x="16.92"
   width="2.1600001" /><polygon
   style="fill:#8c8c8c"
   id="polygon46"
   points="20.52,3.125 20.52,2.347 19.08,1.685 16.92,1.685 15.48,2.347 15.48,3.125 " /><path
   style="fill:#8c8c8c"
   d="m 22.675,20.624999 0,0.8 1.075,0.475 0,-1.275 -1.075,0 z"
   id="polygon50"
    /><path
   style="fill:#8c8c8c"
   d="m 23.75,1.8499994 -1.075,0.5 0,0.775 1.075,0 0,-1.275 z"
   id="polygon54"
    /><path
   style="font-size:7.71929169px;font-style:normal;font-variant:normal;font-weight:normal;font-stretch:normal;text-align:start;line-height:125%;letter-spacing:0px;word-spacing:0px;writing-mode:lr-tb;text-anchor:start;fill:#666666;fill-opacity:1;stroke:none;font-family:DroidSans;-inkscape-font-specification:DroidSans"
   d="m 12.375,10.174999 0,0.575 1.825,0 0,2.85 1.425,0 0,-2.85 1.825,0 0,-0.575 -5.075,0 z m 6.6,0 0,3.425 4.475,0 0,-0.6 -3.05,0 0,-2.825 -1.425,0 z"
   id="text6785"
    /></svg>