<?xml version="1.0" encoding="utf-8"?>
<!-- Drawn by: Mattia Cuttini http://mattiac.deviantart.com in the crew of Agenzia Zero.net http://www.agenziazero.net  -->
<!-- Coded by: Carlos Hansen from http://tlaana.com -->
<svg version="1.2" baseProfile="tiny" id="Layer_1" xmlns="http://www.w3.org/2000/svg" xmlns:xlink="http://www.w3.org/1999/xlink"
	 x="0px" y="0px" width="25.23px" height="25.23px" viewBox="0 0 25.23 25.23" xml:space="preserve">
<g id="icon">
	<polygon points="22.707,21.023 22.707,4.204 21.023,2.522 4.205,2.522 4.205,2.522 2.522,4.204 2.522,21.022 2.523,21.023 
		4.205,22.706 21.023,22.706 21.023,22.706 	"/>
	<polygon fill="#ACABB0" points="25.229,10.961 21.023,10.961 21.023,4.204 4.205,4.204 4.205,10.961 0,10.961 0,14.325 
		4.205,14.325 4.205,21.023 21.023,21.023 21.023,14.325 25.229,14.325 	"/>
	<path fill="#8D8C92" d="M4.205,7.568h3.364V4.204H4.205V7.568z M17.66,4.204v3.364h3.363V4.204H17.66z M4.205,21.023h3.364V17.66
		H4.205V21.023z M17.66,21.023h3.363V17.66H17.66V21.023z"/>
	<circle fill="#FFFFFF" cx="12.614" cy="12.746" r="6.728"/>
	<circle fill="#8D8C92" cx="12.671" cy="13.077" r="5.887"/>
	<path fill="#818486" d="M7.625,2.522h1.684V0.84H7.625V2.522z M16.035,0.84v1.684h1.682V0.84H16.035z M7.625,24.389h1.684v-1.685
		H7.625V24.389z M16.035,24.389h1.682v-1.685h-1.682V24.389z"/>
	<polygon fill="#58585F" points="2.944,12.363 1.962,12.363 1.962,11.381 1.402,11.381 1.402,12.363 0.42,12.363 0.42,12.922 
		1.402,12.922 1.402,13.904 1.962,13.904 1.962,12.922 2.944,12.922 	"/>
	<circle cx="5.886" cy="5.886" r="0.841"/>
	<path fill="#8D8C92" d="M5.27,5.628l0.511,0.222c0.019-0.041,0.05-0.07,0.096-0.08L5.779,5.237C5.551,5.28,5.359,5.421,5.27,5.628z
		"/>
	<circle cx="19.341" cy="5.886" r="0.84"/>
	<path fill="#8D8C92" d="M18.727,5.628l0.511,0.222c0.019-0.041,0.05-0.07,0.096-0.08l-0.099-0.532
		C19.007,5.28,18.815,5.421,18.727,5.628z"/>
	<circle cx="5.886" cy="19.342" r="0.841"/>
	<path fill="#8D8C92" d="M5.27,19.084l0.511,0.223c0.019-0.042,0.05-0.071,0.096-0.081l-0.099-0.531
		C5.551,18.735,5.359,18.878,5.27,19.084z"/>
	<circle cx="19.341" cy="19.342" r="0.84"/>
	<path fill="#8D8C92" d="M18.727,19.084l0.511,0.223c0.019-0.042,0.05-0.071,0.096-0.081l-0.099-0.531
		C19.007,18.735,18.815,18.878,18.727,19.084z"/>
	<circle fill="#FF5914" cx="12.671" cy="12.643" r="5.887"/>
	<circle fill="#FF6729" cx="12.671" cy="12.643" r="5.466"/>
</g>
</svg>
