<?xml version="1.0" encoding="utf-8"?>
<!-- Generator: Adobe Illustrator 16.0.0, SVG Export Plug-In . SVG Version: 6.00 Build 0)  -->
<svg version="1.2" baseProfile="tiny" id="Layer_1" xmlns:svg="http://www.w3.org/2000/svg"
	 xmlns="http://www.w3.org/2000/svg" xmlns:xlink="http://www.w3.org/1999/xlink" x="0px" y="0px" width="46.477px"
	 height="45.727px" viewBox="0 0 46.477 45.727" xml:space="preserve">
<g id="copper1">
	<g>
		<path fill="#F7BD13" d="M10.678,21.773c0.061,0,0.114-0.044,0.124-0.106c0.01-0.068-0.037-0.132-0.105-0.142l-6.436-0.964
			c-0.075-0.014-0.132,0.037-0.142,0.105c-0.01,0.068,0.037,0.132,0.105,0.142l6.436,0.964
			C10.666,21.773,10.673,21.773,10.678,21.773z"/>
		<path fill="#F7BD13" d="M43.314,19.768l-6.928,1.061c-0.146-0.973-0.395-1.911-0.744-2.801l5.854-3.301
			c0.06-0.034,0.081-0.11,0.047-0.17c-0.033-0.06-0.109-0.082-0.17-0.047l-5.818,3.28c-0.477-1.143-1.113-2.202-1.882-3.152
			l4.897-4.434c0.051-0.046,0.055-0.125,0.009-0.177c-0.047-0.052-0.125-0.055-0.177-0.009l-4.89,4.426
			c-0.859-1.021-1.879-1.9-3.014-2.615l3.612-5.419c0.038-0.058,0.022-0.135-0.035-0.173c-0.057-0.038-0.135-0.023-0.174,0.035
			l-3.618,5.427c-1.161-0.701-2.438-1.226-3.8-1.532c0.044-0.008,0.088-0.029,0.102-0.074l2.098-6.604
			c0.021-0.065-0.016-0.136-0.081-0.157c-0.064-0.019-0.137,0.016-0.157,0.082l-2.098,6.604c-0.016,0.049,0.008,0.094,0.044,0.125
			c-0.881-0.191-1.793-0.298-2.73-0.298c-0.556,0-1.101,0.047-1.638,0.116l-0.392-6.434c-0.004-0.068-0.056-0.115-0.133-0.117
			c-0.069,0.004-0.121,0.063-0.117,0.133l0.394,6.456c-1.398,0.207-2.722,0.633-3.937,1.252l-2.652-5.644
			c-0.029-0.063-0.104-0.087-0.167-0.06c-0.063,0.029-0.089,0.104-0.06,0.167l2.653,5.646c-1.277,0.682-2.417,1.579-3.393,2.633
			L9.782,8.67C9.738,8.616,9.658,8.609,9.606,8.654C9.553,8.698,9.546,8.777,9.59,8.83l4.459,5.351
			c-0.915,1.027-1.675,2.193-2.226,3.474l-6.025-2.81c-0.062-0.028-0.137-0.002-0.166,0.061c-0.029,0.063-0.002,0.137,0.061,0.166
			l6.038,2.816c-0.609,1.496-0.951,3.127-0.951,4.838c0,0.921,0.101,1.817,0.286,2.685c-0.028-0.022-0.062-0.035-0.1-0.03
			l-6.52,1.276c-0.068,0.014-0.112,0.079-0.099,0.147c0.012,0.06,0.064,0.101,0.123,0.101c0.008,0,0.016-0.001,0.024-0.002
			l6.52-1.276c0.045-0.009,0.072-0.044,0.086-0.084c0.309,1.378,0.843,2.668,1.555,3.841l-6.064,3.495
			c-0.06,0.034-0.08,0.111-0.046,0.171c0.023,0.04,0.065,0.063,0.108,0.063c0.021,0,0.043-0.005,0.063-0.017l6.069-3.498
			c0.689,1.087,1.533,2.065,2.506,2.9c-0.029,0.002-0.058,0.01-0.08,0.03l-4.478,4.28c-0.05,0.048-0.052,0.127-0.004,0.177
			c0.024,0.026,0.058,0.039,0.09,0.039c0.031,0,0.062-0.012,0.086-0.034l4.478-4.28c0.027-0.026,0.037-0.061,0.036-0.096
			c1.082,0.903,2.317,1.622,3.655,2.135l-2.981,5.921c-0.031,0.063-0.006,0.138,0.056,0.168c0.018,0.01,0.037,0.014,0.056,0.014
			c0.045,0,0.09-0.025,0.112-0.068l2.995-5.947c0.945,0.341,1.937,0.585,2.969,0.695l-0.446,6.632
			c-0.005,0.069,0.047,0.129,0.116,0.134c0.003,0,0.005,0,0.008,0c0.065,0,0.12-0.051,0.125-0.116l0.446-6.631
			c0.374,0.033,0.749,0.058,1.131,0.058c0.789,0,1.558-0.082,2.309-0.219l0.884,6.629c0.009,0.063,0.063,0.108,0.124,0.108
			c0.005,0,0.011,0,0.017-0.001c0.068-0.009,0.116-0.072,0.107-0.141l-0.885-6.634c1.225-0.247,2.386-0.673,3.458-1.242l2.773,6.215
			c0.021,0.047,0.066,0.074,0.114,0.074c0.018,0,0.034-0.004,0.051-0.011c0.063-0.028,0.092-0.103,0.063-0.165l-2.781-6.232
			c1.065-0.592,2.039-1.326,2.892-2.184l4.069,5.171c0.025,0.031,0.062,0.048,0.099,0.048c0.027,0,0.055-0.009,0.077-0.026
			c0.055-0.043,0.063-0.122,0.021-0.176l-4.082-5.188c-0.005-0.006-0.014-0.006-0.02-0.011c0.899-0.938,1.653-2.012,2.237-3.187
			l5.406,3.83c0.021,0.016,0.047,0.023,0.072,0.023c0.039,0,0.077-0.019,0.102-0.053c0.04-0.057,0.027-0.135-0.029-0.174
			l-5.441-3.854c0.557-1.174,0.939-2.442,1.117-3.778l6.435,1.507c0.01,0.002,0.019,0.003,0.028,0.003
			c0.057,0,0.108-0.039,0.122-0.097c0.016-0.067-0.026-0.135-0.094-0.15l-6.453-1.512c0.054-0.479,0.088-0.963,0.088-1.456
			c0-0.56-0.048-1.108-0.118-1.65l6.928-1.061c0.068-0.01,0.115-0.074,0.105-0.143C43.446,19.805,43.385,19.757,43.314,19.768z
			 M26.155,35.106c-0.023-0.023-0.056-0.037-0.102-0.032c-0.039,0.005-0.067,0.03-0.086,0.062c-0.749,0.139-1.519,0.221-2.307,0.221
			c-6.965,0-12.631-5.666-12.631-12.631s5.666-12.631,12.631-12.631s12.631,5.666,12.631,12.631
			C36.292,28.837,31.929,33.945,26.155,35.106z"/>
	</g>
	<circle id="connector0pad" fill="#F7BD13" cx="26.413" cy="10.305" r="0.33"/>
	<circle id="connector1pad" fill="#F7BD13" cx="32.246" cy="3.326" r="0.33"/>
	<circle id="connector0terminal" fill="#F7BD13" cx="26.413" cy="10.305" r="0.33"/>
	<circle id="connector1terminal" fill="#F7BD13" cx="32.246" cy="3.326" r="0.33"/>
	<path fill="#F7BD13" d="M43.917,29.424c0.704-2.118,1.101-4.375,1.101-6.727c0-4.289-1.281-8.279-3.465-11.631
		c-0.001-0.025-0.003-0.051-0.02-0.072c-0.01-0.012-0.023-0.013-0.036-0.02c-2.117-3.216-5.082-5.814-8.57-7.507
		c0.013-0.053-0.885-0.521-1.241-0.568c-2.048-0.836-4.256-1.351-6.561-1.511c-0.014-0.006-0.023-0.018-0.039-0.019
		c-0.003,0-0.006,0-0.008,0c-0.015,0-0.024,0.01-0.037,0.015c-0.468-0.031-0.934-0.071-1.409-0.071
		c-4.538,0-8.742,1.431-12.208,3.852c-0.016,0.002-0.032-0.002-0.047,0.007c-0.024,0.015-0.038,0.039-0.047,0.063
		c-2.134,1.508-3.99,3.385-5.45,5.555c-0.006,0.005-0.015,0.005-0.02,0.012c-0.008,0.011-0.005,0.025-0.01,0.038
		c-1.223,1.828-2.158,3.859-2.773,6.024c-0.013,0.013-0.029,0.023-0.035,0.041c-0.008,0.025-0.001,0.049,0.005,0.072
		c-0.508,1.824-0.8,3.737-0.8,5.721c0,2.645,0.505,5.168,1.387,7.508c-0.007,0.025-0.012,0.051-0.002,0.077
		C3.638,30.3,3.66,30.298,3.672,30.31c0.77,2.011,1.829,3.875,3.136,5.543c0.001,0.021,0,0.044,0.014,0.063
		c0.013,0.019,0.036,0.02,0.055,0.029c1.421,1.792,3.116,3.354,5.032,4.615c0.008,0.013,0.01,0.028,0.023,0.038
		c0.022,0.016,0.047,0.023,0.073,0.023c0.001,0,0.001-0.001,0.002-0.001c3.35,2.18,7.338,3.46,11.625,3.46
		c0.213,0,0.419-0.025,0.631-0.032c0.016,0.009,0.029,0.021,0.049,0.021c0.001,0,0.001,0,0.002,0c0.026,0,0.047-0.014,0.066-0.027
		c4.157-0.145,8.021-1.459,11.25-3.656c0.01-0.002,0.021-0.002,0.03-0.008c0.014-0.008,0.018-0.023,0.027-0.035
		c3.797-2.602,6.703-6.398,8.2-10.841c0.008-0.01,0.024-0.008,0.029-0.02C43.926,29.464,43.919,29.444,43.917,29.424z
		 M35.631,40.075l-3.244-5.704c-0.034-0.062-0.112-0.082-0.17-0.047c-0.061,0.034-0.081,0.11-0.047,0.17l3.259,5.73
		c-1.628,1.1-3.421,1.971-5.327,2.585l-1.187-6.274c-0.013-0.067-0.081-0.107-0.146-0.1c-0.067,0.013-0.112,0.078-0.1,0.146
		l1.19,6.293c0.001,0.007,0.008,0.01,0.01,0.016c-1.725,0.534-3.549,0.829-5.429,0.9l0.082-6.409
		c0.001-0.07-0.069-0.128-0.125-0.127c-0.068,0-0.124,0.055-0.125,0.123l-0.082,6.426c-0.188,0.005-0.37,0.028-0.559,0.028
		c-1.739,0-3.42-0.234-5.039-0.633l1.984-6.148c0.021-0.065-0.015-0.136-0.081-0.157c-0.067-0.019-0.136,0.015-0.158,0.081
		l-1.984,6.15c-0.001,0.005,0.002,0.009,0.001,0.014c-2.213-0.572-4.287-1.483-6.158-2.693l3.656-5.089
		c0.04-0.057,0.027-0.135-0.029-0.175c-0.055-0.039-0.134-0.026-0.174,0.028l-3.668,5.104c-1.844-1.224-3.48-2.73-4.858-4.455
		l5.071-3.507c0.057-0.039,0.071-0.117,0.032-0.174c-0.039-0.057-0.116-0.072-0.174-0.031l-5.078,3.512
		c-1.26-1.616-2.287-3.417-3.039-5.357l5.908-2.243c0.064-0.024,0.097-0.097,0.072-0.161c-0.024-0.065-0.098-0.096-0.161-0.073
		l-5.905,2.242c-0.776-2.075-1.232-4.3-1.314-6.623c0.001,0.001,0.001,0.002,0.003,0.002l6.322,0.199c0.001,0,0.002,0,0.004,0
		c0.067,0,0.123-0.054,0.125-0.121c0.002-0.069-0.052-0.127-0.121-0.129l-6.322-0.199c-0.008,0.001-0.015,0.008-0.023,0.01
		c-0.004-0.17-0.026-0.337-0.026-0.508c0-1.937,0.284-3.805,0.774-5.588l6.292,2.049c0.013,0.004,0.026,0.006,0.039,0.006
		c0.053,0,0.102-0.034,0.119-0.086c0.021-0.065-0.014-0.136-0.08-0.157l-6.307-2.054c0.599-2.082,1.501-4.035,2.67-5.801
		l5.166,3.907c0.022,0.017,0.049,0.025,0.075,0.025c0.038,0,0.075-0.017,0.1-0.05c0.042-0.055,0.031-0.133-0.024-0.175l-5.183-3.919
		c1.421-2.093,3.218-3.906,5.279-5.373l3.236,5.458c0.023,0.039,0.065,0.061,0.107,0.061c0.022,0,0.044-0.006,0.064-0.018
		c0.059-0.035,0.079-0.112,0.043-0.171l-3.25-5.481c1.896-1.315,4.017-2.318,6.291-2.959c-0.005,0.019-0.014,0.037-0.01,0.058
		l1.444,6.434c0.013,0.058,0.065,0.098,0.122,0.098c0.009,0,0.018-0.001,0.027-0.003c0.067-0.015,0.11-0.082,0.095-0.149
		l-1.444-6.434c-0.005-0.023-0.022-0.038-0.038-0.053c1.765-0.479,3.612-0.758,5.527-0.758c0.443,0,0.876,0.04,1.313,0.066
		l-0.388,6.377c-0.004,0.069,0.049,0.128,0.117,0.133c0.003,0,0.006,0,0.008,0c0.065,0,0.121-0.051,0.125-0.117l0.388-6.38
		c2.242,0.166,4.389,0.671,6.384,1.484c-0.017,0.059,0.323,0.071,0.494,0.2L29.19,9.091c-0.031,0.062-0.007,0.137,0.055,0.168
		c0.019,0.009,0.037,0.013,0.057,0.013c0.046,0,0.09-0.025,0.111-0.069l2.93-5.757c0.063,0.019,0.356,0.438,0.484,0.25
		c1.796,0.873,3.446,1.989,4.916,3.311c-0.009,0.005-0.019,0.003-0.025,0.01l-4.252,4.252c-0.048,0.049-0.048,0.128,0,0.177
		c0.024,0.024,0.057,0.037,0.089,0.037s0.064-0.012,0.089-0.037l4.252-4.252c0.01-0.01,0.009-0.023,0.015-0.035
		c1.263,1.161,2.393,2.46,3.344,3.896l-5.34,4.202c-0.055,0.042-0.063,0.121-0.021,0.175c0.025,0.032,0.062,0.048,0.099,0.048
		c0.027,0,0.055-0.009,0.077-0.027l5.316-4.184c1.032,1.598,1.867,3.334,2.441,5.188c-0.028-0.009-0.06-0.011-0.089,0.001
		l-5.471,2.381c-0.063,0.028-0.093,0.102-0.064,0.165c0.021,0.047,0.066,0.075,0.114,0.075c0.017,0,0.033-0.003,0.05-0.01
		l5.471-2.381c0.019-0.008,0.026-0.025,0.038-0.04c0.563,1.879,0.874,3.866,0.887,5.923h-5.907c-0.069,0-0.125,0.056-0.125,0.125
		s0.056,0.125,0.125,0.125h5.907c-0.014,2.248-0.386,4.409-1.052,6.44l-5.8-2.429c-0.062-0.025-0.137,0.004-0.163,0.067
		s0.003,0.137,0.067,0.163l5.81,2.433c-0.734,2.153-1.808,4.144-3.155,5.923c-0.001-0.002-0.001-0.004-0.002-0.005l-5.017-4.393
		c-0.051-0.047-0.131-0.04-0.176,0.012c-0.046,0.052-0.041,0.131,0.012,0.176l5.017,4.393c0.007,0.006,0.016,0.005,0.022,0.009
		C38.995,37.326,37.418,38.838,35.631,40.075z"/>
</g>
</svg>
