<?xml version="1.0" encoding="utf-8"?>
<!-- Generator: Adobe Illustrator 16.0.0, SVG Export Plug-In . SVG Version: 6.00 Build 0)  -->
<svg version="1.2" baseProfile="tiny" id="Layer_1" xmlns:svg="http://www.w3.org/2000/svg"
	 xmlns="http://www.w3.org/2000/svg" xmlns:xlink="http://www.w3.org/1999/xlink" x="0px" y="0px" width="46.477px"
	 height="45.727px" viewBox="0 0 46.477 45.727" xml:space="preserve">
<g id="copper1">
	<line fill="none" stroke="#F7BD13" stroke-width="0.7" stroke-linecap="round" x1="37.806" y1="7.106" x2="33.554" y2="11.358"/>
	<line fill="none" stroke="#F7BD13" stroke-width="0.7" stroke-linecap="round" x1="30.379" y1="11.783" x2="34.007" y2="6.341"/>
	<line fill="none" stroke="#F7BD13" stroke-width="0.7" stroke-linecap="round" x1="32.25" y1="3.308" x2="29.302" y2="9.147"/>
	<line fill="none" stroke="#F7BD13" stroke-width="0.7" stroke-linecap="round" x1="25.078" y1="1.494" x2="24.681" y2="8.013"/>
	<line fill="none" stroke="#F7BD13" stroke-width="0.7" stroke-linecap="round" x1="21.903" y1="10.054" x2="21.506" y2="3.535"/>
	<line fill="none" stroke="#F7BD13" stroke-width="0.7" stroke-linecap="round" x1="18.02" y1="2.401" x2="19.465" y2="8.835"/>
	<line fill="none" stroke="#F7BD13" stroke-width="0.7" stroke-linecap="round" x1="17.736" y1="11.33" x2="15.072" y2="5.661"/>
	<line fill="none" stroke="#F7BD13" stroke-width="0.7" stroke-linecap="round" x1="11.585" y1="5.491" x2="14.76" y2="10.876"/>
	<line fill="none" stroke="#F7BD13" stroke-width="0.7" stroke-linecap="round" x1="14.08" y1="13.995" x2="9.686" y2="8.75"/>
	<line fill="none" stroke="#F7BD13" stroke-width="0.7" stroke-linecap="round" x1="6.143" y1="11.103" x2="11.245" y2="14.873"/>
	<line fill="none" stroke="#F7BD13" stroke-width="0.7" stroke-linecap="round" x1="11.883" y1="17.82" x2="5.746" y2="14.958"/>
	<line fill="none" stroke="#F7BD13" stroke-width="0.7" stroke-linecap="round" x1="3.16" y1="16.942" x2="9.601" y2="19.04"/>
	<line fill="none" stroke="#F7BD13" stroke-width="0.7" stroke-linecap="round" x1="10.678" y1="21.648" x2="4.243" y2="20.684"/>
	<line fill="none" stroke="#F7BD13" stroke-width="0.7" stroke-linecap="round" x1="2.542" y1="23.32" x2="8.864" y2="23.519"/>
	<line fill="none" stroke="#F7BD13" stroke-width="0.7" stroke-linecap="round" x1="10.99" y1="25.503" x2="4.47" y2="26.779"/>
	<line fill="none" stroke="#F7BD13" stroke-width="0.7" stroke-linecap="round" x1="3.748" y1="30.238" x2="9.799" y2="27.941"/>
	<line fill="none" stroke="#F7BD13" stroke-width="0.7" stroke-linecap="round" x1="12.812" y1="29.436" x2="6.653" y2="32.986"/>
	<line fill="none" stroke="#F7BD13" stroke-width="0.7" stroke-linecap="round" x1="6.925" y1="35.845" x2="12.124" y2="32.25"/>
	<line fill="none" stroke="#F7BD13" stroke-width="0.7" stroke-linecap="round" x1="15.298" y1="32.618" x2="10.82" y2="36.898"/>
	<line fill="none" stroke="#F7BD13" stroke-width="0.7" stroke-linecap="round" x1="12.005" y1="40.498" x2="15.752" y2="35.283"/>
	<line fill="none" stroke="#F7BD13" stroke-width="0.7" stroke-linecap="round" x1="19.242" y1="34.694" x2="16.206" y2="40.725"/>
	<line fill="none" stroke="#F7BD13" stroke-width="0.7" stroke-linecap="round" x1="18.473" y1="43.163" x2="20.458" y2="37.012"/>
	<line fill="none" stroke="#F7BD13" stroke-width="0.7" stroke-linecap="round" x1="22.414" y1="35.421" x2="21.96" y2="42.171"/>
	<line fill="none" stroke="#F7BD13" stroke-width="0.7" stroke-linecap="round" x1="24.313" y1="43.946" x2="24.397" y2="37.38"/>
	<line fill="none" stroke="#F7BD13" stroke-width="0.7" stroke-linecap="round" x1="26.07" y1="35.198" x2="26.977" y2="42"/>
	<line fill="none" stroke="#F7BD13" stroke-width="0.7" stroke-linecap="round" x1="29.982" y1="42.851" x2="28.792" y2="36.558"/>
	<line fill="none" stroke="#F7BD13" stroke-width="0.7" stroke-linecap="round" x1="29.755" y1="33.979" x2="32.562" y2="40.271"/>
	<line fill="none" stroke="#F7BD13" stroke-width="0.7" stroke-linecap="round" x1="35.598" y1="40.271" x2="32.278" y2="34.432"/>
	<line fill="none" stroke="#F7BD13" stroke-width="0.7" stroke-linecap="round" x1="32.873" y1="31.711" x2="36.955" y2="36.898"/>
	<line fill="none" stroke="#F7BD13" stroke-width="0.7" stroke-linecap="round" x1="40.385" y1="35.509" x2="35.368" y2="31.116"/>
	<line fill="none" stroke="#F7BD13" stroke-width="0.7" stroke-linecap="round" x1="35.226" y1="28.31" x2="40.668" y2="32.165"/>
	<line fill="none" stroke="#F7BD13" stroke-width="0.7" stroke-linecap="round" x1="43.802" y1="29.436" x2="37.862" y2="26.949"/>
	<line fill="none" stroke="#F7BD13" stroke-width="0.7" stroke-linecap="round" x1="36.323" y1="24.28" x2="42.879" y2="25.815"/>
	<line fill="none" stroke="#F7BD13" stroke-width="0.7" stroke-linecap="round" x1="33.508" y1="14.618" x2="38.486" y2="10.111"/>
	<line fill="none" stroke="#F7BD13" stroke-width="0.7" stroke-linecap="round" x1="41.434" y1="11.072" x2="35.991" y2="15.355"/>
	<line fill="none" stroke="#F7BD13" stroke-width="0.7" stroke-linecap="round" x1="35.498" y1="17.965" x2="41.434" y2="14.618"/>
	<line fill="none" stroke="#F7BD13" stroke-width="0.7" stroke-linecap="round" x1="43.787" y1="16.574" x2="38.316" y2="18.955"/>
	<line fill="none" stroke="#F7BD13" stroke-width="0.7" stroke-linecap="round" x1="36.297" y1="20.969" x2="43.333" y2="19.891"/>
	<line fill="none" stroke="#F7BD13" stroke-width="0.7" stroke-linecap="round" x1="44.779" y1="22.697" x2="38.854" y2="22.697"/>
	<line fill="none" stroke="#F7BD13" stroke-width="0.7" stroke-linecap="round" x1="26.467" y1="10.054" x2="28.564" y2="3.45"/>
	<g>
		<path fill="#F7BD13" d="M23.632,44.306c-11.916,0-21.61-9.693-21.61-21.609c0-11.916,9.694-21.61,21.61-21.61
			c11.916,0,21.61,9.694,21.61,21.61C45.242,34.613,35.548,44.306,23.632,44.306z M23.632,1.787c-11.53,0-20.91,9.38-20.91,20.91
			c0,11.529,9.38,20.91,20.91,20.91c11.53,0,20.911-9.381,20.911-20.91C44.543,11.167,35.162,1.787,23.632,1.787z"/>
	</g>
	<g>
		<path fill="#F7BD13" d="M23.661,35.831c-7.227,0-13.106-5.879-13.106-13.105S16.434,9.619,23.661,9.619
			s13.105,5.879,13.105,13.106S30.887,35.831,23.661,35.831z M23.661,10.32c-6.841,0-12.406,5.565-12.406,12.406
			s5.565,12.406,12.406,12.406s12.406-5.565,12.406-12.406S30.502,10.32,23.661,10.32z"/>
	</g>
	<circle id="connector0pad" fill="#F7BD13" cx="26.413" cy="10.304" r="0.708"/>
	<circle id="connector1pad" fill="#F7BD13" cx="32.25" cy="3.307" r="0.709"/>
</g>
</svg>
