<?xml version='1.0' encoding='UTF-8' standalone='no'?>
<!-- Generator: Adobe Illustrator 14.0.0, SVG Export Plug-In . SVG Version: 6.00 Build 43363)  -->
<svg width="2.42083in" xmlns:rdf="http://www.w3.org/1999/02/22-rdf-syntax-ns#" x="0px" version="1.1" y="0px" xmlns="http://www.w3.org/2000/svg" height="3.58854in" viewBox="0 0 174.3 258.375" xmlns:sodipodi="http://sodipodi.sourceforge.net/DTD/sodipodi-0.dtd" xmlns:cc="http://creativecommons.org/ns#" id="Layer_1" enable-background="new 0 0 174.3 258.375" xmlns:dc="http://purl.org/dc/elements/1.1/" xml:space="preserve" xmlns:svg="http://www.w3.org/2000/svg" xmlns:inkscape="http://www.inkscape.org/namespaces/inkscape">
 <g id="schematic">
  <metadata id="metadata3512">
   <rdf:RDF>
    <cc:Work rdf:about="">
     <dc:format>image/svg+xml</dc:format>
     <dc:type rdf:resource="http://purl.org/dc/dcmitype/StillImage"/>
     <dc:title/>
    </cc:Work>
   </rdf:RDF>
  </metadata>
  <defs id="defs3510">
   <inkscape:perspective id="perspective4030"/>
   <inkscape:perspective id="perspective3514"/>
  </defs>
  <sodipodi:namedview showgrid="false" objecttolerance="10" pagecolor="#ffffff" bordercolor="#666666" id="namedview3508" borderopacity="1" guidetolerance="10" showguides="true" gridtolerance="10">
   <sodipodi:guide position="239.66049,31.133625" id="guide3834" orientation="0,1"/>
  </sodipodi:namedview>
  <rect width="10" x="1.15" y="59.226" fill="none" height="2" id="connector0pin"/>
  <rect width="10" x="1.15" y="85.226" fill="none" height="2" id="connector1pin"/>
  <rect width="10" x="1.15" y="111.226" fill="none" height="2" id="connector2pin"/>
  <rect width="10" x="1.15" y="137.227" fill="none" height="2" id="connector3pin"/>
  <rect width="10" x="1.15" y="163.227" fill="none" height="2" id="connector4pin"/>
  <rect width="10" x="1.15" y="189.227" fill="none" height="2" id="connector5pin"/>
  <rect width="10" x="1.15" y="215.227" fill="none" height="2" id="connector6pin"/>
  <rect width="2" x="1.15" y="59.226" fill="none" height="2" id="connector0terminal"/>
  <rect width="2" x="1.15" y="85.226" fill="none" height="2" id="connector1terminal"/>
  <rect width="2" x="1.15" y="111.226" fill="none" height="2" id="connector2terminal"/>
  <rect width="2" x="1.15" y="137.227" fill="none" height="2" id="connector3terminal"/>
  <rect width="2" x="1.15" y="163.227" fill="none" height="2" id="connector4terminal"/>
  <rect width="2" x="1.15" y="189.227" fill="none" height="2" id="connector5terminal"/>
  <rect width="2" x="1.15" y="215.227" fill="none" height="2" id="connector6terminal"/>
  <g id="g4057" transform="matrix(-1,0,0,1,372.83777,8.0742263)">
   <rect width="10" x="199.58438" y="207.15103" height="2" style="fill:none" id="connector7pin"/>
   <rect width="2" x="199.58438" y="207.15103" height="2" style="fill:none" id="connector7terminal"/>
  </g>
  <g id="g4043" transform="translate(-0.1601016,-51.909018)">
   <rect width="10" x="163.14999" y="241.22701" height="2" style="fill:none" id="connector8pin"/>
   <rect width="10" x="163.14999" y="215.22701" height="2" style="fill:none" id="connector9pin"/>
   <rect width="10" x="163.14999" y="189.22701" height="2" style="fill:none" id="connector10pin"/>
   <rect width="10" x="163.14999" y="163.22701" height="2" style="fill:none" id="connector11pin"/>
   <rect width="10" x="163.14999" y="137.22701" height="2" style="fill:none" id="connector12pin"/>
   <rect width="10" x="163.14999" y="111.226" height="2" style="fill:none" id="connector13pin"/>
   <rect width="2" x="171.14999" y="241.22701" height="2" style="fill:none" id="connector8terminal"/>
   <rect width="2" x="171.14999" y="215.22701" height="2" style="fill:none" id="connector9terminal"/>
   <rect width="2" x="171.14999" y="189.22701" height="2" style="fill:none" id="connector10terminal"/>
   <rect width="2" x="171.14999" y="163.22701" height="2" style="fill:none" id="connector11terminal"/>
   <rect width="2" x="171.14999" y="137.22701" height="2" style="fill:none" id="connector12terminal"/>
   <rect width="2" x="171.14999" y="111.226" height="2" style="fill:none" id="connector13terminal"/>
  </g>
  <rect width="110.15411" x="32.072948" y="45.148949" height="184.28479" style="fill:none;stroke:#000000;stroke-width:2.14589572;stroke-linecap:round;stroke-linejoin:round" id="box"/>
  <line style="fill:none;stroke:#000000;stroke-width:2.29999995;stroke-linecap:round;stroke-linejoin:round" id="line3273" y1="60.226002" y2="60.226002" x1="1.15" x2="32.150002"/>
  <line style="fill:none;stroke:#000000;stroke-width:2.29999995;stroke-linecap:round;stroke-linejoin:round" id="line3275" y1="86.225998" y2="86.225998" x1="1.15" x2="32.150002"/>
  <line style="fill:none;stroke:#000000;stroke-width:2.29999995;stroke-linecap:round;stroke-linejoin:round" id="line3277" y1="112.226" y2="112.226" x1="1.15" x2="32.150002"/>
  <line style="fill:none;stroke:#000000;stroke-width:2.29999995;stroke-linecap:round;stroke-linejoin:round" id="line3279" y1="138.22701" y2="138.22701" x1="1.15" x2="32.150002"/>
  <line style="fill:none;stroke:#000000;stroke-width:2.29999995;stroke-linecap:round;stroke-linejoin:round" id="line3281" y1="164.22701" y2="164.22701" x1="1.15" x2="32.150002"/>
  <line style="fill:none;stroke:#000000;stroke-width:2.29999995;stroke-linecap:round;stroke-linejoin:round" id="line3283" y1="190.22701" y2="190.22701" x1="1.15" x2="32.150002"/>
  <line style="fill:none;stroke:#000000;stroke-width:2.29999995;stroke-linecap:round;stroke-linejoin:round" id="line3285" y1="216.22701" y2="216.22701" x1="1.15" x2="32.150002"/>
  <line style="fill:none;stroke:#000000;stroke-width:2.29999995;stroke-linecap:round;stroke-linejoin:round" id="line3291" y1="216.22701" y2="216.22701" x1="142.14999" x2="173.14999"/>
  <line style="fill:none;stroke:#000000;stroke-width:2.29999995;stroke-linecap:round;stroke-linejoin:round" id="line3293" y1="190.22701" y2="190.22701" x1="142.14999" x2="173.14999"/>
  <line style="fill:none;stroke:#000000;stroke-width:2.29999995;stroke-linecap:round;stroke-linejoin:round" id="line3295" y1="164.22701" y2="164.22701" x1="142.14999" x2="173.14999"/>
  <line style="fill:none;stroke:#000000;stroke-width:2.29999995;stroke-linecap:round;stroke-linejoin:round" id="line3297" y1="138.22701" y2="138.22701" x1="142.14999" x2="173.14999"/>
  <line style="fill:none;stroke:#000000;stroke-width:2.29999995;stroke-linecap:round;stroke-linejoin:round" id="line3299" y1="112.226" y2="112.226" x1="142.14999" x2="173.14999"/>
  <line style="fill:none;stroke:#000000;stroke-width:2.29999995;stroke-linecap:round;stroke-linejoin:round" id="line3301" y1="86.225998" y2="86.225998" x1="142.14999" x2="173.14999"/>
  <line style="fill:none;stroke:#000000;stroke-width:2.29999995;stroke-linecap:round;stroke-linejoin:round" id="line3303" y1="60.226002" y2="60.226002" x1="142.14999" x2="173.14999"/>
  <g id="g3306">
   <path id="path3308" d="m 22.288,57.077 v -0.972 h 2.099 v -5.732 l -1.919,0.755 -0.192,-1.007 2.363,-0.84 h 0.863 v 6.824 h 1.847 v 0.972 h -5.061 z"/>
  </g>
  <g id="g3310">
   <path id="path3312" d="m 22.096,83.077 v -0.876 l 1.715,-1.69 c 1.644,-1.607 1.932,-2.159 1.932,-2.915 0,-0.815 -0.553,-1.463 -1.548,-1.463 -0.708,0 -1.366,0.3 -1.763,0.612 l -0.264,-0.936 c 0.588,-0.372 1.354,-0.636 2.219,-0.636 1.703,0 2.531,1.067 2.531,2.242 0,1.02 -0.372,1.799 -1.919,3.263 l -1.451,1.379 v 0.012 c 0.503,-0.012 1.379,-0.023 2.471,-0.023 h 1.188 v 1.031 h -5.111 z"/>
  </g>
  <g id="g3314">
   <path id="path3316" d="m 23.811,109.197 c -0.54,0 -1.091,-0.084 -1.486,-0.192 l 0.119,-0.971 c 0.433,0.144 0.937,0.239 1.476,0.239 1.307,0 1.991,-0.588 1.991,-1.439 0,-0.851 -0.673,-1.391 -1.943,-1.391 -0.432,0 -0.768,0.012 -1.175,0.06 v -0.863 h 0.275 c 1.68,0 2.688,-0.456 2.688,-1.439 0,-0.707 -0.563,-1.14 -1.476,-1.14 -0.659,0 -1.223,0.181 -1.715,0.444 l -0.107,-0.947 c 0.563,-0.229 1.223,-0.396 2.015,-0.396 1.607,0 2.423,0.804 2.423,1.871 0,0.924 -0.552,1.548 -1.486,1.823 l -0.013,0.012 c 0.973,0.097 1.691,0.888 1.691,1.823 -0.003,1.535 -1.286,2.506 -3.277,2.506 z"/>
  </g>
  <g id="g3318">
   <path id="path3320" d="m 26.45,133.277 v 1.8 h -1.067 v -1.8 H 21.76 l -0.084,-0.875 3.31,-5.121 h 1.464 v 5.014 h 1.282 v 0.982 H 26.45 l 0,0 z m -1.056,-4.917 h -0.012 l -2.604,3.971 c 0.72,-0.036 2.136,-0.036 2.614,-0.036 l 0.002,-3.935 0,0 z"/>
  </g>
  <g id="g3322">
   <path id="path3324" d="m 23.859,161.186 c -0.526,0 -0.971,-0.049 -1.438,-0.156 v -0.994 c 0.443,0.145 0.947,0.229 1.522,0.229 1.283,0 1.991,-0.625 1.991,-1.607 0,-0.959 -0.804,-1.463 -2.039,-1.463 -0.504,0 -0.996,0.048 -1.307,0.096 v -4.006 h 4.222 v 1.031 h -3.214 v 2.039 c 0.204,-0.013 0.479,-0.023 0.66,-0.023 1.859,0 2.842,0.959 2.842,2.193 -10e-4,1.605 -1.296,2.661 -3.239,2.661 z"/>
  </g>
  <g id="g3326">
   <path id="path3328" d="m 24.747,187.197 c -1.691,0 -2.724,-1.199 -2.724,-3.286 0,-3.334 1.655,-4.737 3.982,-4.737 0.252,0 0.54,0.012 0.708,0.036 v 0.947 c -0.24,-0.036 -0.479,-0.062 -0.792,-0.062 -1.595,0 -2.423,0.924 -2.734,2.508 -0.023,0.119 -0.071,0.336 -0.107,0.588 h 0.012 c 0.396,-0.66 1.116,-1.021 1.943,-1.021 1.56,0 2.423,1.009 2.423,2.278 -10e-4,1.657 -1.081,2.749 -2.711,2.749 z m 0.06,-4.136 c -1.008,0 -1.595,0.814 -1.595,1.486 0,0.971 0.563,1.764 1.631,1.764 0.959,0 1.511,-0.695 1.511,-1.68 0,-0.924 -0.528,-1.57 -1.547,-1.57 z"/>
  </g>
  <g id="g3330">
   <path id="path3332" d="M 24.339,213.077 H 23.08 c 0.792,-2.171 1.871,-4.665 3.01,-6.765 -0.276,0.013 -1.847,0.023 -2.962,0.023 h -1.055 v -1.057 h 5.265 v 0.937 c -1.212,2.258 -2.304,4.823 -2.999,6.862 z"/>
  </g>
  <g id="g3334" transform="translate(124.80013,-25.600033)">
   <path id="path3336" d="m 24.626,239.197 c -1.56,0 -2.579,-0.768 -2.579,-1.955 0,-0.995 0.792,-1.596 1.667,-2.1 -0.912,-0.468 -1.477,-1.02 -1.477,-1.918 0,-1.188 1.021,-2.063 2.52,-2.063 1.499,0 2.386,0.792 2.386,1.896 0,0.899 -0.684,1.451 -1.487,1.932 0.863,0.443 1.68,0.994 1.68,2.087 0.001,1.306 -1.174,2.121 -2.71,2.121 z m -0.011,-3.634 c -0.757,0.42 -1.439,0.863 -1.439,1.596 0,0.672 0.552,1.162 1.559,1.162 0.828,0 1.477,-0.42 1.477,-1.139 -0.002,-0.851 -0.758,-1.235 -1.597,-1.619 z m 0.06,-3.538 c -0.84,0 -1.319,0.502 -1.319,1.103 0,0.647 0.443,0.983 1.403,1.452 0.695,-0.396 1.283,-0.792 1.283,-1.428 0,-0.709 -0.54,-1.127 -1.367,-1.127 z"/>
  </g>
  <g id="g3338" transform="translate(0,-52.800067)">
   <path id="path3340" d="m 147.931,239.186 c -0.312,0 -0.647,-0.023 -0.96,-0.084 v -0.972 c 0.335,0.084 0.72,0.12 1.079,0.12 1.535,0 2.375,-0.792 2.65,-2.339 0.035,-0.229 0.061,-0.372 0.107,-0.576 h -0.013 c -0.383,0.552 -1.043,0.888 -1.871,0.888 -1.535,0 -2.387,-1.008 -2.387,-2.351 0,-1.644 1.128,-2.711 2.688,-2.711 1.631,0 2.698,0.996 2.698,3.286 0.002,3.407 -1.688,4.739 -3.991,4.739 z m 1.211,-7.137 c -0.947,0 -1.512,0.73 -1.512,1.655 0,0.972 0.552,1.595 1.512,1.595 1.021,0 1.583,-0.684 1.583,-1.499 0,-1.007 -0.552,-1.751 -1.583,-1.751 z"/>
  </g>
  <g id="g3342" transform="translate(0,-52.800067)">
   <path id="path3344" d="m 146.887,213.077 v -0.972 h 2.099 v -5.732 l -1.919,0.755 -0.191,-1.007 2.362,-0.84 h 0.863 v 6.824 h 1.849 v 0.972 h -5.063 l 0,0 z"/>
   <path id="path3346" d="m 155.826,213.197 c -1.716,0 -2.663,-1.057 -2.663,-4.055 0,-2.733 1.176,-3.981 2.807,-3.981 1.548,0 2.65,0.924 2.65,3.935 0,2.986 -1.379,4.101 -2.794,4.101 z m 0.059,-7.124 c -0.888,0 -1.56,0.768 -1.56,2.997 0,2.207 0.407,3.203 1.56,3.203 0.983,0 1.571,-0.996 1.571,-3.106 0.001,-2.313 -0.503,-3.094 -1.571,-3.094 z"/>
  </g>
  <g id="g3348" transform="translate(0,-52.800067)">
   <path id="path3350" d="m 146.887,187.077 v -0.972 h 2.099 v -5.732 l -1.919,0.755 -0.191,-1.007 2.362,-0.84 h 0.863 v 6.824 h 1.849 v 0.972 h -5.063 l 0,0 z"/>
   <path id="path3352" d="m 153.487,187.077 v -0.972 h 2.1 v -5.732 l -1.919,0.755 -0.192,-1.007 2.363,-0.84 h 0.863 v 6.824 h 1.848 v 0.972 h -5.063 l 0,0 z"/>
  </g>
  <g id="g3354" transform="translate(0,-52.800067)">
   <path id="path3356" d="m 146.887,161.077 v -0.972 h 2.099 v -5.732 l -1.919,0.755 -0.191,-1.007 2.362,-0.84 h 0.863 v 6.824 h 1.849 v 0.972 h -5.063 l 0,0 z"/>
   <path id="path3358" d="m 153.294,161.077 v -0.876 l 1.715,-1.69 c 1.644,-1.606 1.932,-2.159 1.932,-2.915 0,-0.814 -0.552,-1.463 -1.547,-1.463 -0.708,0 -1.367,0.301 -1.764,0.612 l -0.264,-0.937 c 0.588,-0.371 1.354,-0.636 2.219,-0.636 1.703,0 2.531,1.067 2.531,2.242 0,1.021 -0.373,1.799 -1.921,3.263 l -1.45,1.379 v 0.012 c 0.504,-0.012 1.379,-0.022 2.471,-0.022 h 1.188 v 1.031 h -5.11 z"/>
  </g>
  <g id="g3360" transform="translate(0,-52.800067)">
   <path id="path3362" d="m 146.887,135.077 v -0.972 h 2.099 v -5.732 l -1.919,0.755 -0.191,-1.007 2.362,-0.84 h 0.863 v 6.824 h 1.849 v 0.972 h -5.063 l 0,0 z"/>
   <path id="path3364" d="m 155.009,135.197 c -0.539,0 -1.091,-0.084 -1.486,-0.192 l 0.119,-0.971 c 0.433,0.144 0.937,0.239 1.477,0.239 1.308,0 1.99,-0.588 1.99,-1.439 0,-0.851 -0.672,-1.391 -1.942,-1.391 -0.433,0 -0.769,0.012 -1.176,0.06 v -0.862 h 0.275 c 1.679,0 2.688,-0.457 2.688,-1.439 0,-0.707 -0.563,-1.14 -1.476,-1.14 -0.66,0 -1.224,0.181 -1.715,0.444 l -0.108,-0.947 c 0.563,-0.229 1.225,-0.396 2.016,-0.396 1.606,0 2.423,0.804 2.423,1.871 0,0.924 -0.552,1.548 -1.487,1.822 l -0.012,0.013 c 0.971,0.097 1.691,0.888 1.691,1.823 -0.001,1.535 -1.286,2.505 -3.277,2.505 z"/>
  </g>
  <g id="g3366" transform="translate(0,-52.800067)">
   <path id="path3368" d="m 146.887,109.077 v -0.972 h 2.099 v -5.732 l -1.919,0.755 -0.191,-1.007 2.362,-0.84 h 0.863 v 6.824 h 1.849 v 0.972 h -5.063 z"/>
   <path id="path3370" d="m 157.648,107.278 v 1.799 h -1.065 v -1.799 h -3.623 l -0.084,-0.876 3.311,-5.121 h 1.463 v 5.014 h 1.283 v 0.983 h -1.285 z m -1.055,-4.918 h -0.012 l -2.604,3.971 c 0.72,-0.036 2.135,-0.036 2.615,-0.036 l 10e-4,-3.935 0,0 z"/>
  </g>
  <g id="g3386">
   <path id="path3388" d="m 121.707,63.077 h -1.236 l -2.914,-8.096 h 1.224 l 1.812,5.205 c 0.156,0.468 0.372,1.104 0.517,1.655 h 0.023 c 0.145,-0.552 0.348,-1.163 0.563,-1.739 l 1.858,-5.121 h 1.128 l -2.975,8.096 z"/>
  </g>
  <g id="g3390">
   <path id="path3392" d="m 128.369,65.157 c -2.169,0 -3.068,-1.379 -3.068,-3.288 0,-2.06 1.02,-3.599 3.298,-3.599 0.521,0 1.069,0.07 1.55,0.21 L 130,59.32 c -0.471,-0.16 -0.99,-0.26 -1.499,-0.26 -1.54,0 -2.199,1.18 -2.199,2.658 0,1.659 0.72,2.619 2.289,2.619 0.489,0 1.079,-0.141 1.479,-0.34 l 0.149,0.799 c -0.511,0.211 -1.171,0.361 -1.85,0.361 z"/>
   <path id="path3394" d="m 134.199,65.157 c -2.17,0 -3.068,-1.379 -3.068,-3.288 0,-2.06 1.02,-3.599 3.298,-3.599 0.521,0 1.069,0.07 1.55,0.21 l -0.149,0.84 c -0.471,-0.16 -0.99,-0.26 -1.499,-0.26 -1.54,0 -2.199,1.18 -2.199,2.658 0,1.659 0.72,2.619 2.289,2.619 0.489,0 1.079,-0.141 1.479,-0.34 l 0.149,0.799 c -0.511,0.211 -1.171,0.361 -1.85,0.361 z"/>
  </g>
  <g id="g3438" transform="translate(4.1175337,-24.512525)">
   <path id="path3440" d="m 47.351,241.867 c -0.468,0.18 -1.403,0.443 -2.495,0.443 -1.223,0 -2.231,-0.312 -3.022,-1.066 -0.696,-0.672 -1.127,-1.752 -1.127,-3.011 0,-2.411 1.667,-4.174 4.378,-4.174 0.935,0 1.679,0.204 2.027,0.372 l -0.264,0.852 c -0.432,-0.204 -0.971,-0.348 -1.787,-0.348 -1.967,0 -3.25,1.223 -3.25,3.25 0,2.051 1.223,3.262 3.118,3.262 0.684,0 1.151,-0.096 1.392,-0.216 V 238.82 H 44.69 v -0.839 h 2.663 v 3.886 z"/>
   <path id="path3442" d="m 48.938,242.227 v -8.083 h 1.151 l 2.579,4.09 c 0.587,0.947 1.067,1.799 1.439,2.626 l 0.036,-0.012 c -0.096,-1.079 -0.12,-2.063 -0.12,-3.322 v -3.382 h 0.983 v 8.083 h -1.055 l -2.566,-4.102 c -0.564,-0.899 -1.104,-1.822 -1.5,-2.698 l -0.036,0.013 c 0.06,1.019 0.072,1.99 0.072,3.334 v 3.453 h -0.983 z"/>
   <path id="path3444" d="m 56.834,234.264 c 0.636,-0.108 1.391,-0.18 2.219,-0.18 1.499,0 2.566,0.359 3.274,1.007 0.732,0.659 1.151,1.595 1.151,2.902 0,1.319 -0.419,2.399 -1.163,3.143 -0.768,0.755 -2.015,1.163 -3.586,1.163 -0.756,0 -1.368,-0.035 -1.895,-0.096 v -7.939 z m 1.044,7.148 c 0.264,0.035 0.647,0.047 1.055,0.047 2.243,0 3.442,-1.246 3.442,-3.43 0.012,-1.906 -1.067,-3.118 -3.274,-3.118 -0.54,0 -0.947,0.048 -1.223,0.108 v 6.393 z"/>
  </g>
  <text x="33.731995" y="31.7617" style="font-size:23.87940025px;font-family:DroidSans" id="text3506" font-size="23.8794">74LS164N</text>
  <text x="43.748795" y="61.248196" style="font-size:10.40001488px;font-style:normal;font-weight:normal;fill:#000000;fill-opacity:1;stroke:none;font-family:Bitstream Vera Sans" id="text3796" xml:space="preserve">
   <tspan x="43.748795" y="61.248196" id="tspan3798">A</tspan>
  </text>
  <text x="43.748795" y="87.497475" style="font-size:9.60001373px;font-style:normal;font-weight:normal;fill:#000000;fill-opacity:1;stroke:none;font-family:Bitstream Vera Sans" id="text3802" xml:space="preserve">
   <tspan x="43.748795" y="87.497475" id="tspan3804">B</tspan>
  </text>
  <text x="43.748795" y="113.74675" style="font-size:9.60001373px;font-style:normal;font-weight:normal;fill:#000000;fill-opacity:1;stroke:none;font-family:Bitstream Vera Sans" id="text3806" xml:space="preserve">
   <tspan x="43.748795" y="113.74675" id="tspan3808">QA</tspan>
  </text>
  <text x="43.748795" y="139.48134" style="font-size:9.60001373px;font-style:normal;font-weight:normal;fill:#000000;fill-opacity:1;stroke:none;font-family:Bitstream Vera Sans" id="text3810" xml:space="preserve">
   <tspan x="43.748795" y="139.48134" id="tspan3812">QB</tspan>
  </text>
  <text x="43.748795" y="165.73062" style="font-size:9.60001373px;font-style:normal;font-weight:normal;fill:#000000;fill-opacity:1;stroke:none;font-family:Bitstream Vera Sans" id="text3814" xml:space="preserve">
   <tspan x="43.748795" y="165.73062" id="tspan3816">QC</tspan>
  </text>
  <text x="43.748795" y="191.46519" style="font-size:9.60001373px;font-style:normal;font-weight:normal;fill:#000000;fill-opacity:1;stroke:none;font-family:Bitstream Vera Sans" id="text3818" xml:space="preserve">
   <tspan x="43.748795" y="191.46519" id="tspan3820">QD</tspan>
  </text>
  <text x="144.11348" y="271.49951" style="font-size:12px;font-style:normal;font-weight:normal;fill:#000000;fill-opacity:1;stroke:none;font-family:Bitstream Vera Sans" id="text3840" xml:space="preserve" transform="matrix(0.80000112,0,0,0.80000112,0,-1.1991692e-4)">
   <tspan x="144.11348" y="271.49951" id="tspan3842">CLK</tspan>
  </text>
  <text x="144.11348" y="238.68794" style="font-size:12px;font-style:normal;font-weight:normal;fill:#000000;fill-opacity:1;stroke:none;font-family:Bitstream Vera Sans" id="text3844" xml:space="preserve" transform="matrix(0.80000112,0,0,0.80000112,0,-1.1991692e-4)">
   <tspan x="144.11348" y="238.68794" id="tspan3846">CLR</tspan>
  </text>
  <text x="144.75684" y="207.16312" style="font-size:12px;font-style:normal;font-weight:normal;fill:#000000;fill-opacity:1;stroke:none;font-family:Bitstream Vera Sans" id="text3848" xml:space="preserve" transform="matrix(0.80000112,0,0,0.80000112,0,-1.1991692e-4)">
   <tspan x="144.75684" y="207.16312" id="tspan3850">QE</tspan>
  </text>
  <text x="144.11348" y="174.99493" style="font-size:12px;font-style:normal;font-weight:normal;fill:#000000;fill-opacity:1;stroke:none;font-family:Bitstream Vera Sans" id="text3852" xml:space="preserve" transform="matrix(0.80000112,0,0,0.80000112,0,-1.1991692e-4)">
   <tspan x="144.11348" y="174.99493" id="tspan3854">QF</tspan>
  </text>
  <text x="144.11348" y="142.82675" style="font-size:12px;font-style:normal;font-weight:normal;fill:#000000;fill-opacity:1;stroke:none;font-family:Bitstream Vera Sans" id="text3856" xml:space="preserve" transform="matrix(0.80000112,0,0,0.80000112,0,-1.1991692e-4)">
   <tspan x="144.11348" y="142.82675" id="tspan3858">QG</tspan>
  </text>
  <text x="143.47011" y="110.0152" style="font-size:12px;font-style:normal;font-weight:normal;fill:#000000;fill-opacity:1;stroke:none;font-family:Bitstream Vera Sans" id="text3860" xml:space="preserve" transform="matrix(0.80000112,0,0,0.80000112,0,-1.1991692e-4)">
   <tspan x="143.47011" y="110.0152" id="tspan3862">QH</tspan>
  </text>
  <path style="fill:none;stroke:#000000;stroke-width:1px;stroke-linecap:butt;stroke-linejoin:miter;stroke-opacity:1" id="path3864" d="m 144.11348,226.46404 25.09118,0" transform="matrix(0.80000112,0,0,0.80000112,0,-1.1991692e-4)"/>
 </g>
</svg>
