<?xml version='1.0' encoding='utf-8'?>
<!-- Generator: Adobe Illustrator 13.0.2, SVG Export Plug-In . SVG Version: 6.00 Build 14948)  -->
<svg xmlns="http://www.w3.org/2000/svg" width="2.50457in" xml:space="preserve" xmlns:xml="http://www.w3.org/XML/1998/namespace" x="0px" version="1.2" y="0px" height="2.39139in" viewBox="0 0 180.329 172.18" baseProfile="tiny" id="svg">
 <g  id="schematic">
  <rect  width="127.26" x="30.99" y="1.2" fill="#FFFFFF" height="169.779" stroke="#000000" stroke-width="2.4"/>
  <text  font-family="DroidSans" transform="matrix(1 0 0 1 50.2695 49.1333)" font-size="18">DS3231MZ</text>
  <line  fill="none" stroke="#000000" y1="22.633" stroke-width="2.4" x1="159.069" y2="22.633" x2="180.329"/>
  <line  fill="none" stroke="#000000" y1="65.153" stroke-width="2.4" x1="159.069" y2="65.153" x2="180.329"/>
  <line  fill="none" stroke="#000000" y1="107.673" stroke-width="2.4" x1="159.069" y2="107.673" x2="180.329"/>
  <line  fill="none" stroke="#000000" y1="150.192" stroke-width="2.4" x1="159.069" y2="150.192" x2="180.329"/>
  <line  fill="none" stroke="#000000" y1="22.633" stroke-width="2.4" x1="31.51" y2="22.633" x2="10.25"/>
  <line  fill="none" stroke="#000000" y1="65.153" stroke-width="2.4" x1="31.51" y2="65.153" x2="10.25"/>
  <line  fill="none" y1="107.673" x1="31.51" y2="107.673" x2="10.25"/>
  <line  fill="none" stroke="#000000" y1="150.192" stroke-width="2.4" x1="31.51" y2="150.192" x2="10.25"/>
  <text  font-family="DroidSans" transform="matrix(1 0 0 1 36.5098 25.6333)" font-size="10">1</text>
  <text  font-family="DroidSans" transform="matrix(1 0 0 1 37.25 67.2002)" font-size="10">2</text>
  <text  font-family="DroidSans" transform="matrix(1 0 0 1 36.75 110.2002)" font-size="10">3</text>
  <text  font-family="DroidSans" transform="matrix(1 0 0 1 37.25 151.2002)" font-size="10">4</text>
  <text  font-family="DroidSans" transform="matrix(1 0 0 1 145.25 152.7002)" font-size="10">5</text>
  <text  font-family="DroidSans" transform="matrix(1 0 0 1 144.75 108.7002)" font-size="10">6</text>
  <text  font-family="DroidSans" transform="matrix(1 0 0 1 144.75 66.7002)" font-size="10">7</text>
  <text  font-family="DroidSans" transform="matrix(1 0 0 1 145.25 25.7002)" font-size="10">8</text>
  <text  font-family="DroidSans" transform="matrix(1 0 0 1 6.25 18.7002)" font-size="7">32KHZ</text>
  <text  font-family="DroidSans" transform="matrix(1 0 0 1 14.25 59.7002)" font-size="7">V</text>
  <text  font-family="DroidSans" transform="matrix(1 0 0 1 18.0166 59.7002)" font-size="7">c</text>
  <text  font-family="DroidSans" transform="matrix(1 0 0 1 21.2568 59.7002)" font-size="7">c</text>
  <text  font-family="DroidSans" transform="matrix(1 0 0 1 0 102.4502)" font-size="7">I</text>
  <text  font-family="DroidSans" transform="matrix(1 0 0 1 2.3721 102.4502)" font-size="7">N</text>
  <text  font-family="DroidSans" transform="matrix(1 0 0 1 7.4751 102.4502)" font-size="7">T</text>
  <text  font-family="DroidSans" transform="matrix(1 0 0 1 11.1084 102.4502)" font-size="7">/</text>
  <text  font-family="DroidSans" transform="matrix(1 0 0 1 13.7197 102.4502)" font-size="7">S</text>
  <text  font-family="DroidSans" transform="matrix(1 0 0 1 17.353 102.4502)" font-size="7">Q</text>
  <text  font-family="DroidSans" transform="matrix(1 0 0 1 22.4731 102.4502)" font-size="7">W</text>
  <text  font-family="DroidSans" transform="matrix(1 0 0 1 12.75 144.7002)" font-size="7">RST</text>
  <line  fill="none" stroke="#000000" y1="107.673" stroke-width="2.4" x1="31.51" y2="107.673" x2="10.25"/>
  <text  font-family="DroidSans" transform="matrix(1 0 0 1 164.5889 17.6333)" font-size="7">SCL</text>
  <text  font-family="DroidSans" transform="matrix(1 0 0 1 165.0889 60.1533)" font-size="7">S</text>
  <text  font-family="DroidSans" transform="matrix(1 0 0 1 168.7227 60.1533)" font-size="7">D</text>
  <text  font-family="DroidSans" transform="matrix(1 0 0 1 173.4424 60.1533)" font-size="7">A</text>
  <text  font-family="DroidSans" transform="matrix(1 0 0 1 164.5889 103.1729)" font-size="7">Vbat</text>
  <text  font-family="DroidSans" transform="matrix(1 0 0 1 163.5889 146.1924)" font-size="7">GND</text>
 </g>
 <line  stroke="#000000" id="connector1terminal" y1="22.633" stroke-width="2.4" x1="15.25" y2="22.633" x2="10.25"/>
 <line  fill="none" stroke="#000000" id="connector1pin" y1="22.633" stroke-width="2.4" x1="31.51" y2="22.633" x2="10.25"/>
 <line  fill="none" stroke="#000000" id="connector2terminal" y1="65.153" stroke-width="2.4" x1="14.75" y2="65.153" x2="10.25"/>
 <line  fill="none" stroke="#000000" id="connector2pin" y1="65.153" stroke-width="2.4" x1="31.51" y2="65.153" x2="10.25"/>
 <line  fill="none" stroke="#000000" id="connector3terminal" y1="107.673" stroke-width="2.4" x1="15.25" y2="107.673" x2="10.25"/>
 <line  fill="none" stroke="#000000" id="connector3pin" y1="107.673" stroke-width="2.4" x1="31.51" y2="107.673" x2="10.25"/>
 <line  fill="none" stroke="#000000" id="connector4terminal" y1="150.192" stroke-width="2.4" x1="16.5" y2="150.192" x2="10.25"/>
 <line  fill="none" stroke="#000000" id="connector4pin" y1="150.192" stroke-width="2.4" x1="31.51" y2="150.192" x2="10.25"/>
 <line  fill="none" stroke="#000000" id="connector5terminal" y1="150.192" stroke-width="2.4" x1="173.75" y2="150.192" x2="180.329"/>
 <line  fill="none" stroke="#000000" id="connector5pin" y1="150.192" stroke-width="2.4" x1="159.069" y2="150.192" x2="180.329"/>
 <line  fill="none" stroke="#000000" id="connector6terminal" y1="107.673" stroke-width="2.4" x1="174.5" y2="107.673" x2="180.329"/>
 <line  fill="none" stroke="#000000" id="connector6pin" y1="107.673" stroke-width="2.4" x1="159.069" y2="107.673" x2="180.329"/>
 <line  fill="none" stroke="#000000" id="connector7terminal" y1="65.153" stroke-width="2.4" x1="175.5" y2="65.153" x2="180.329"/>
 <line  fill="none" stroke="#000000" id="connector7pin" y1="65.153" stroke-width="2.4" x1="159.069" y2="65.153" x2="180.329"/>
 <line  fill="none" stroke="#000000" id="connector8terminal" y1="22.633" stroke-width="2.4" x1="176.25" y2="22.633" x2="180.329"/>
 <line  fill="none" stroke="#000000" id="connector8pin" y1="22.633" stroke-width="2.4" x1="159.069" y2="22.633" x2="180.329"/>
</svg>
