<?xml version="1.0" encoding="utf-8"?>
<!-- Generator: Adobe Illustrator 16.0.0, SVG Export Plug-In . SVG Version: 6.00 Build 0)  -->
<!DOCTYPE svg PUBLIC "-//W3C//DTD SVG 1.1//EN" "http://www.w3.org/Graphics/SVG/1.1/DTD/svg11.dtd">
<svg version="1.1" id="svg2" xmlns:xml="http://www.w3.org/XML/1998/namespace"
	 xmlns="http://www.w3.org/2000/svg" xmlns:xlink="http://www.w3.org/1999/xlink" x="0px" y="0px" width="45.745px" height="43.2px"
	 viewBox="0 0 45.745 43.2" enable-background="new 0 0 45.745 43.2" xml:space="preserve">
<g id="schematic">
	<polyline fill="none" stroke="#000000" stroke-width="0.7" stroke-linecap="round" points="4.147,17.557 21.622,27.475 
		21.622,37.743 	"/>
	<polygon points="4.252,19.504 0,15.188 5.84,16.799 	"/>
	<polyline fill="none" stroke="#000000" stroke-width="0.7" stroke-linecap="round" points="14.422,36 14.422,34.559 11.543,32.401 
		18.022,28.799 11.543,25.2 18.022,21.6 11.543,18 18.022,14.401 11.543,10.8 14.422,8.64 14.422,7.2 	"/>
	<path id="connector1terminal" fill="none" d="M21.991,43.2v-1.055l-0.674,0.018V43.2H21.991z"/>
	
		<line id="connector1pin" fill="none" stroke="#787878" stroke-width="0.7" stroke-linecap="round" x1="21.643" y1="42.85" x2="21.643" y2="36"/>
	
		<line id="connector3pin" fill="none" stroke="#787878" stroke-width="0.7" stroke-linecap="round" x1="14.422" y1="42.85" x2="14.422" y2="36"/>
	<path id="connector3terminal" fill="none" d="M14.069,42.178h0.703L14.741,43.2h-0.656L14.069,42.178z"/>
	
		<line id="connector0pin" fill="none" stroke="#787878" stroke-width="0.7" stroke-linecap="round" x1="14.422" y1="0.35" x2="14.422" y2="7.55"/>
	<path id="connector0terminal" fill="none" d="M14.084,0l-0.021,1.344l0.689-0.016L14.756,0H14.084z"/>
	<polyline fill="none" stroke="#000000" stroke-width="0.7" stroke-linecap="round" points="25.747,17.557 43.221,27.475 
		43.221,37.743 	"/>
	<polygon points="25.853,19.504 21.6,15.188 27.44,16.799 	"/>
	<polyline fill="none" stroke="#000000" stroke-width="0.7" stroke-linecap="round" points="36.022,36 36.022,34.559 33.143,32.401 
		39.622,28.799 33.143,25.2 39.622,21.6 33.143,18 39.622,14.401 33.143,10.8 36.022,8.64 14.422,8.64 	"/>
	<path id="connector2terminal" fill="none" d="M43.59,43.2v-1.055l-0.674,0.018V43.2H43.59z"/>
	
		<line id="connector2pin" fill="none" stroke="#787878" stroke-width="0.7" stroke-linecap="round" x1="43.243" y1="42.85" x2="43.243" y2="36"/>
	
		<line id="connector4pin" fill="none" stroke="#787878" stroke-width="0.7" stroke-linecap="round" x1="36.022" y1="42.85" x2="36.022" y2="36"/>
	<path id="connector4terminal" fill="none" d="M35.668,42.178h0.703L36.34,43.2h-0.656L35.668,42.178z"/>
</g>
</svg>
