<?xml version="1.0" encoding="utf-8"?>
<!-- Generator: Adobe Illustrator 16.0.0, SVG Export Plug-In . SVG Version: 6.00 Build 0)  -->
<!DOCTYPE svg PUBLIC "-//W3C//DTD SVG 1.1//EN" "http://www.w3.org/Graphics/SVG/1.1/DTD/svg11.dtd">
<svg version="1.1"
	 id="svg2" xmlns:cc="http://creativecommons.org/ns#" xmlns:rdf="http://www.w3.org/1999/02/22-rdf-syntax-ns#" xmlns:sodipodi="http://sodipodi.sourceforge.net/DTD/sodipodi-0.dtd" xmlns:dc="http://purl.org/dc/elements/1.1/" xmlns:inkscape="http://www.inkscape.org/namespaces/inkscape" xmlns:svg="http://www.w3.org/2000/svg"
	 xmlns="http://www.w3.org/2000/svg" xmlns:xlink="http://www.w3.org/1999/xlink" x="0px" y="0px" width="43.197px"
	 height="29.538px" viewBox="0 0 43.197 29.538" enable-background="new 0 0 43.197 29.538" xml:space="preserve">
<g>
	<g id="schematic">
		<path d="M13.831,22.337H10.23c-0.192,0-0.35-0.155-0.35-0.35s0.156-0.351,0.35-0.351h3.601c0.192,0,0.35,0.156,0.35,0.351
			S14.024,22.337,13.831,22.337z"/>
		<path d="M10.23,22.337h-3.6c-0.193,0-0.35-0.155-0.35-0.35s0.156-0.351,0.35-0.351h3.6c0.193,0,0.351,0.156,0.351,0.351
			S10.424,22.337,10.23,22.337z"/>
		<polygon fill="#FFFFFF" points="10.23,21.988 6.631,14.788 10.23,14.788 13.831,14.788 		"/>
		<path d="M10.23,22.77l-4.166-8.333h8.333L10.23,22.77z M7.197,15.138l3.033,6.068l3.034-6.068H7.197z"/>
		<path d="M10.23,22.212c-0.124,0-0.225-0.101-0.225-0.225v-7.2c0-0.124,0.101-0.225,0.225-0.225s0.226,0.101,0.226,0.225v7.2
			C10.455,22.112,10.354,22.212,10.23,22.212z"/>
		<path d="M2.131,19.512c-0.058,0-0.115-0.021-0.159-0.064c-0.088-0.088-0.088-0.23,0-0.318l2.34-2.341
			c0.088-0.088,0.23-0.088,0.318,0s0.088,0.23,0,0.318l-2.34,2.341C2.246,19.492,2.188,19.512,2.131,19.512z"/>
		<path d="M2.491,22.752c-0.059,0-0.115-0.021-0.159-0.064c-0.088-0.088-0.088-0.23,0-0.318l2.34-2.34
			c0.088-0.088,0.229-0.088,0.318,0c0.088,0.088,0.088,0.23,0,0.318l-2.341,2.34C2.606,22.731,2.549,22.752,2.491,22.752z"/>
		<path d="M10.23,15.138c-0.192,0-0.35-0.157-0.35-0.35v-7.2c0-0.193,0.156-0.35,0.35-0.35c0.194,0,0.351,0.157,0.351,0.35v7.2
			C10.58,14.98,10.424,15.138,10.23,15.138z"/>
		<polygon fill="none" points="10.23,7.587 10.231,7.587 10.231,7.587 		"/>
		<path d="M0.511,20.908l1.08-2.521l1.44,1.438L0.511,20.908z"/>
		<path d="M0.871,24.147l1.08-2.521l1.438,1.438L0.871,24.147z"/>
		<path d="M42.631,22.337H39.03c-0.192,0-0.35-0.155-0.35-0.35s0.156-0.351,0.35-0.351h3.601c0.192,0,0.35,0.156,0.35,0.351
			S42.824,22.337,42.631,22.337z"/>
		<path d="M39.03,22.337h-3.6c-0.193,0-0.35-0.155-0.35-0.35s0.156-0.351,0.35-0.351h3.6c0.193,0,0.351,0.156,0.351,0.351
			S39.224,22.337,39.03,22.337z"/>
		<polygon fill="#FFFFFF" points="39.03,21.988 35.431,14.788 39.03,14.788 42.631,14.788 		"/>
		<path d="M39.03,22.77l-4.166-8.333h8.333L39.03,22.77z M35.997,15.138l3.033,6.068l3.034-6.068H35.997z"/>
		<path d="M39.03,22.212c-0.124,0-0.225-0.101-0.225-0.225v-7.2c0-0.124,0.101-0.225,0.225-0.225s0.226,0.101,0.226,0.225v7.2
			C39.255,22.112,39.154,22.212,39.03,22.212z"/>
		<path d="M30.931,19.512c-0.058,0-0.115-0.021-0.159-0.064c-0.088-0.088-0.088-0.23,0-0.318l2.34-2.341
			c0.088-0.088,0.23-0.088,0.318,0s0.088,0.23,0,0.318l-2.34,2.341C31.046,19.492,30.988,19.512,30.931,19.512z"/>
		<path d="M31.291,22.752c-0.059,0-0.115-0.021-0.159-0.064c-0.088-0.088-0.088-0.23,0-0.318l2.34-2.34
			c0.088-0.088,0.229-0.088,0.318,0c0.088,0.088,0.088,0.23,0,0.318l-2.341,2.34C31.406,22.731,31.349,22.752,31.291,22.752z"/>
		<path d="M39.03,15.138c-0.192,0-0.35-0.157-0.35-0.35v-7.2c0-0.193,0.156-0.35,0.35-0.35c0.194,0,0.351,0.157,0.351,0.35v7.2
			C39.38,14.98,39.224,15.138,39.03,15.138z"/>
		<polygon fill="none" points="39.03,7.587 39.031,7.587 39.031,7.587 		"/>
		<path d="M29.311,20.908l1.08-2.521l1.44,1.438L29.311,20.908z"/>
		<path d="M29.671,24.147l1.08-2.521l1.438,1.438L29.671,24.147z"/>
			<rect id="connector4terminal" x="38.681" y="27.332" fill="none" width="0.7" height="2.206"/>
			<line id="connector4pin" fill="#787878" stroke="#787878" stroke-width="0.75" stroke-linecap="round" stroke-linejoin="round" stroke-miterlimit="10" x1="39.03" y1="22.212" x2="39.031" y2="29.145"/>
		
		<rect id="connector0terminal" x="9.881" y="27.784" fill="none" width="0.7" height="1.754"/>
		<line id="connector0pin" fill="#787878" stroke="#787878" stroke-width="0.75" stroke-linecap="round" stroke-linejoin="round" stroke-miterlimit="10" x1="10.23" y1="22.212" x2="10.231" y2="29.145"/>
		
		<polygon id="connector1terminal" fill="none" points="24.273,0 24.999,0 24.999,2.222 24.273,2.207 		"/>
		<line id="connector1pin" fill="none" stroke="#787878" stroke-width="0.75" stroke-linecap="round" stroke-linejoin="round" stroke-miterlimit="10" x1="24.63" y1="7.587" x2="24.63" y2="0.387"/>
		
			<line fill="none" stroke="#000000" stroke-width="0.75" stroke-linecap="round" stroke-miterlimit="10" x1="10.23" y1="7.587" x2="39.03" y2="7.587"/>
	</g>
</g>
</svg>
