<?xml version='1.0' encoding='UTF-8' standalone='no'?>
<svg xmlns="http://www.w3.org/2000/svg"  width="1.8in" version="1.2" height="1.505in" viewBox="0 0 1800 1505" baseProfile="tiny" id="0">
<desc><referenceFile>generic_ic_dip_8_schem.svg</referenceFile></desc>

 <g   id="schematic">
  <rect  width="1180" x="315" y="15" fill="none"  height="1475" stroke="#000000" stroke-linejoin="round" stroke-linecap="round" id="0.0.0" stroke-width="30"/>
  <text  x="900" y="465" font-family="DroidSans" fill="#000000"  text-anchor="middle" stroke="none" id="label" font-size="235">IC</text>
  <line  fill="none"  stroke="#000000" stroke-linejoin="round" stroke-linecap="round" id="0.0.2" y1="315" stroke-width="30" x1="15" y2="315" x2="300"/>
  <rect  width="300" x="0" y="300" fill="none"  height="30" stroke="none" id="connector0pin" stroke-width="0"/>
  <rect  width="30" x="0" y="300" fill="none"  height="30" stroke="none" id="connector0terminal" stroke-width="0"/>
  <text  x="390" y="350" font-family="DroidSans" fill="#000000"  text-anchor="start" stroke="none" id="label0" font-size="130">1</text>
  <line  fill="none"  stroke="#000000" stroke-linejoin="round" stroke-linecap="round" id="0.0.6" y1="315" stroke-width="30" x1="1500" y2="315" x2="1785"/>
  <rect  width="300" x="1500" y="300" fill="none"  height="30" stroke="none" id="connector7pin" stroke-width="0"/>
  <rect  width="30" x="1770" y="300" fill="none"  height="30" stroke="none" id="connector7terminal" stroke-width="0"/>
  <text  x="1410" y="350" font-family="DroidSans" fill="#000000"  text-anchor="end" stroke="none" id="label7" font-size="130">8</text>
  <line  fill="none"  stroke="#000000" stroke-linejoin="round" stroke-linecap="round" id="0.0.10" y1="610" stroke-width="30" x1="15" y2="610" x2="300"/>
  <rect  width="300" x="0" y="595" fill="none"  height="30" stroke="none" id="connector1pin" stroke-width="0"/>
  <rect  width="30" x="0" y="595" fill="none"  height="30" stroke="none" id="connector1terminal" stroke-width="0"/>
  <text  x="390" y="645" font-family="DroidSans" fill="#000000"  text-anchor="start" stroke="none" id="label1" font-size="130">2</text>
  <line  fill="none"  stroke="#000000" stroke-linejoin="round" stroke-linecap="round" id="0.0.14" y1="610" stroke-width="30" x1="1500" y2="610" x2="1785"/>
  <rect  width="300" x="1500" y="595" fill="none"  height="30" stroke="none" id="connector6pin" stroke-width="0"/>
  <rect  width="30" x="1770" y="595" fill="none"  height="30" stroke="none" id="connector6terminal" stroke-width="0"/>
  <text  x="1410" y="645" font-family="DroidSans" fill="#000000"  text-anchor="end" stroke="none" id="label6" font-size="130">7</text>
  <line  fill="none"  stroke="#000000" stroke-linejoin="round" stroke-linecap="round" id="0.0.18" y1="905" stroke-width="30" x1="15" y2="905" x2="300"/>
  <rect  width="300" x="0" y="890" fill="none"  height="30" stroke="none" id="connector2pin" stroke-width="0"/>
  <rect  width="30" x="0" y="890" fill="none"  height="30" stroke="none" id="connector2terminal" stroke-width="0"/>
  <text  x="390" y="940" font-family="DroidSans" fill="#000000"  text-anchor="start" stroke="none" id="label2" font-size="130">3</text>
  <line  fill="none"  stroke="#000000" stroke-linejoin="round" stroke-linecap="round" id="0.0.22" y1="905" stroke-width="30" x1="1500" y2="905" x2="1785"/>
  <rect  width="300" x="1500" y="890" fill="none"  height="30" stroke="none" id="connector5pin" stroke-width="0"/>
  <rect  width="30" x="1770" y="890" fill="none"  height="30" stroke="none" id="connector5terminal" stroke-width="0"/>
  <text  x="1410" y="940" font-family="DroidSans" fill="#000000"  text-anchor="end" stroke="none" id="label5" font-size="130">6</text>
  <line  fill="none"  stroke="#000000" stroke-linejoin="round" stroke-linecap="round" id="0.0.26" y1="1200" stroke-width="30" x1="15" y2="1200" x2="300"/>
  <rect  width="300" x="0" y="1185" fill="none"  height="30" stroke="none" id="connector3pin" stroke-width="0"/>
  <rect  width="30" x="0" y="1185" fill="none"  height="30" stroke="none" id="connector3terminal" stroke-width="0"/>
  <text  x="390" y="1235" font-family="DroidSans" fill="#000000"  text-anchor="start" stroke="none" id="label3" font-size="130">4</text>
  <line  fill="none"  stroke="#000000" stroke-linejoin="round" stroke-linecap="round" id="0.0.30" y1="1200" stroke-width="30" x1="1500" y2="1200" x2="1785"/>
  <rect  width="300" x="1500" y="1185" fill="none"  height="30" stroke="none" id="connector4pin" stroke-width="0"/>
  <rect  width="30" x="1770" y="1185" fill="none"  height="30" stroke="none" id="connector4terminal" stroke-width="0"/>
  <text  x="1410" y="1235" font-family="DroidSans" fill="#000000"  text-anchor="end" stroke="none" id="label4" font-size="130">5</text>
 </g>
</svg>
