<?xml version="1.0" encoding="utf-8"?>
<!-- Generator: Adobe Illustrator 16.0.0, SVG Export Plug-In . SVG Version: 6.00 Build 0)  -->
<!DOCTYPE svg PUBLIC "-//W3C//DTD SVG 1.1//EN" "http://www.w3.org/Graphics/SVG/1.1/DTD/svg11.dtd">
<svg version="1.1" id="svg2" xmlns:xml="http://www.w3.org/XML/1998/namespace"
	 xmlns="http://www.w3.org/2000/svg" xmlns:xlink="http://www.w3.org/1999/xlink" x="0px" y="0px" width="17.152px"
	 height="29.677px" viewBox="0 0 17.152 29.677" enable-background="new 0 0 17.152 29.677" xml:space="preserve">
<g>
	
		<line fill="none" stroke="#000000" stroke-width="0.9" stroke-linecap="round" stroke-linejoin="round" stroke-miterlimit="10" x1="8.626" y1="24.761" x2="8.626" y2="20.338"/>
	
		<line fill="none" stroke="#000000" stroke-width="0.9" stroke-linecap="round" stroke-linejoin="round" stroke-miterlimit="10" x1="8.626" y1="10.036" x2="8.626" y2="5.613"/>
	<g id="schematic">
		<g>
			<g>
				<rect id="connector1terminal" x="8.18" fill="none" width="0.859" height="1.883"/>
				<rect id="connector0terminal" x="8.164" y="27.789" fill="none" width="0.891" height="1.888"/>
			</g>
			
				<line id="connector1pin" fill="none" stroke="#787878" stroke-width="0.9" stroke-linecap="round" stroke-linejoin="round" stroke-miterlimit="10" x1="8.626" y1="0.475" x2="8.626" y2="7.004"/>
			
				<line id="connector0pin" fill="none" stroke="#787878" stroke-width="0.9" stroke-linecap="round" stroke-linejoin="round" stroke-miterlimit="10" x1="8.626" y1="23.367" x2="8.626" y2="29.228"/>
			<path stroke="#000000" stroke-width="0.7087" stroke-linecap="round" stroke-linejoin="round" d="M14.021,11.448L3.234,11.446
				C4.418,9.74,6.393,8.624,8.626,8.624C10.862,8.624,12.836,9.741,14.021,11.448z"/>
			<path stroke="#000000" stroke-width="0.7087" stroke-linecap="round" stroke-linejoin="round" d="M3.234,18.926h10.787
				c-1.186,1.704-3.159,2.824-5.394,2.824C6.393,21.749,4.419,20.632,3.234,18.926z"/>
			
				<circle fill="none" stroke="#000000" stroke-width="0.9" stroke-linecap="round" stroke-linejoin="round" cx="8.627" cy="15.186" r="8.181"/>
			
				<circle stroke="#000000" stroke-width="0.7087" stroke-linecap="round" stroke-linejoin="round" cx="14.021" cy="16.874" r="1.025"/>
		</g>
	</g>
	<g id="schematic_1_">
		<path fill="#787878" d="M6.703,3.481v0.892H6.55L6.178,4.03C6.125,3.981,6.078,3.938,6.034,3.899S5.948,3.828,5.906,3.801
			C5.864,3.774,5.822,3.754,5.781,3.738C5.738,3.724,5.693,3.717,5.643,3.717c-0.038,0-0.072,0.006-0.103,0.018
			S5.487,3.762,5.465,3.781C5.446,3.803,5.43,3.826,5.419,3.854s-0.016,0.06-0.016,0.094c0,0.062,0.013,0.118,0.038,0.167
			c0.023,0.051,0.057,0.098,0.096,0.143L5.421,4.358C5.399,4.334,5.375,4.303,5.357,4.274C5.335,4.246,5.318,4.211,5.302,4.178
			C5.288,4.144,5.277,4.106,5.267,4.068C5.258,4.03,5.253,3.989,5.253,3.947c0-0.063,0.009-0.119,0.026-0.169
			c0.018-0.051,0.043-0.094,0.076-0.129c0.031-0.035,0.071-0.063,0.119-0.082s0.101-0.028,0.159-0.028
			c0.057,0,0.108,0.01,0.158,0.026s0.101,0.041,0.148,0.069c0.048,0.031,0.097,0.066,0.146,0.109
			c0.049,0.041,0.101,0.088,0.152,0.137l0.294,0.273h0.008V3.481H6.703z"/>
		<path fill="#787878" d="M6.693,26.037v0.172H5.801c-0.028,0-0.059,0-0.091,0c-0.031,0-0.063-0.002-0.095-0.002
			c-0.032-0.002-0.063-0.002-0.092-0.004c-0.028,0-0.054-0.002-0.076-0.002c0.012,0.012,0.021,0.021,0.03,0.029
			s0.017,0.018,0.023,0.025c0.008,0.01,0.017,0.02,0.025,0.029c0.008,0.01,0.019,0.021,0.03,0.035l0.118,0.145l-0.12,0.094
			l-0.292-0.373v-0.146h1.43V26.037z"/>
	</g>
</g>
</svg>
