<?xml version='1.0' encoding='UTF-8' standalone='no'?>
<svg xmlns="http://www.w3.org/2000/svg"  width=".58in" x="0px" version="1.2" y="0px" height=".72in" baseProfile="tiny" id="0">
 <desc   id="0.0" oldid="0.0">
  <referenceFile   id="0.0.0" oldid="0.0.0">OFT-schem.svg</referenceFile>
 </desc>
 <desc   id="0.1" oldid="0.1">OFT</desc>
 <g   style="display:inline" id="schematic" transform="translate(18,0)">
  <g   id="g10" transform="translate(-0.464,0)">
   <path   id="path12" d="M 24.464,61.909 L 24.464,44.004 C 24.464,43.389 24.962,42.892 25.577,42.892 L 25.577,42.892 C 26.192,42.892 26.69,43.389 26.69,44.004 L 26.69,44.004 L 26.69,61.909 C 26.69,62.524 26.192,63.021 25.577,63.021 L 25.577,63.021 C 24.962,63.021 24.464,62.524 24.464,61.909 L 24.464,61.909 z"/>
  </g>
  <g   id="g14">
   <path   id="path16" d="M 24.463,19.799 L 24.463,1.742 C 24.463,1.126 24.961,0.628 25.578,0.628 L 25.578,0.628 C 26.193,0.628 26.691,1.126 26.691,1.742 L 26.691,1.742 L 26.691,19.799 C 26.691,20.414 26.193,20.912 25.578,20.912 L 25.578,20.912 C 24.961,20.912 24.463,20.414 24.463,19.799 L 24.463,19.799 z"/>
  </g>
  <g   id="g18">
   <g   id="0.2.2.0" transform="matrix(1,0,0,0.758523,1.9676114,7.7460046)">
    <polygon  points="9.719,45.658 9.719,17.954 11.947,17.954 11.947,45.658 9.719,45.658 "  id="polygon20"/>
   </g>
  </g>
  <circle  fill="none" cx="16.556999"  cy="31.806999" stroke="#000000" r="14.953" id="circle22" stroke-width="1.84990001"/>
  <g   id="0.2.4" transform="translate(-2.9,0.1)">
   <path   stroke="black" id="lightning1" stroke-width="1" d="M 0,5 L 7.5,12.5 L 9,11 L 10,15 L 6,14 L 7.5,12.5 z"/>
   <path   stroke="black" id="lightning2" stroke-width="1" d="M -5,10 L 2.5,17.5 L 4,16 L 5,20 L 1,19 L 2.5,17.5 z"/>
  </g>
  <g   id="g28">
   <g   id="g30">
    <path   id="path32"/>
   </g>
   <g   id="g34" transform="matrix(0.9712211,0,0,0.9055168,2.3963302,3.732273)">
    <g   id="0.2.5.1.0" transform="translate(-0.810366,0.7243051)">
     <polygon  points="10.339,32.678 11.657,31.172 19.455,37.998 18.139,39.502 10.339,32.678 "  id="polygon36"/>
    </g>
   </g>
   <g   id="g38">
    <g   id="0.2.5.2.0" transform="translate(0.6558705,0.3935223)">
     <polygon  points="20.024,35.706 25.265,44.41 15.942,40.371 20.024,35.706 "  id="polygon40"/>
    </g>
   </g>
  </g>
  <g   id="g42">
   <g   id="0.2.6.0" transform="matrix(0.8853087,0,0,0.9020797,3.0026186,1.8687119)">
    <polygon  points="10.168,30.921 24.929,19.084 26.18,20.644 11.419,32.48 10.168,30.921 "  id="polygon44"/>
   </g>
  </g>
  <g   id="0.2.7" transform="translate(-18,0)">
   <rect  width="1.893" x="42.632999" y="1.237"  height="9.783" id="connector1pin"/>
   <rect  width="0.86699998" x="43.140999" y="0.87599999"  height="0.68400002" id="connector1terminal"/>
   <rect  width="2.0241742" x="41.967129" y="52.569"  height="9.7810001" id="connector0pin"/>
   <rect  width="0.86699998" x="43" y="62.131001"  height="0.68599999" id="connector0terminal"/>
  </g>
 </g>
</svg>
