<?xml version="1.0" encoding="utf-8"?>
<!-- Generator: Adobe Illustrator 16.0.0, SVG Export Plug-In . SVG Version: 6.00 Build 0)  -->
<!DOCTYPE svg PUBLIC "-//W3C//DTD SVG 1.1//EN" "http://www.w3.org/Graphics/SVG/1.1/DTD/svg11.dtd">
<svg version="1.1" id="_x30_" xmlns="http://www.w3.org/2000/svg" xmlns:xlink="http://www.w3.org/1999/xlink" x="0px" y="0px"
	 width="17.543px" height="29.639px" viewBox="0 0 17.543 29.639" enable-background="new 0 0 17.543 29.639" xml:space="preserve">
<g id="schematic">
	
		<line fill="none" stroke="#000000" stroke-width="0.75" stroke-linecap="round" stroke-miterlimit="10" x1="14.369" y1="4.036" x2="14.369" y2="9.17"/>
	
		<line fill="none" stroke="#000000" stroke-width="0.75" stroke-linecap="round" stroke-miterlimit="10" x1="14.369" y1="20.035" x2="14.369" y2="25.169"/>
	<polygon id="polygon20" points="8.02,19.173 8.02,9.57 9.039,9.57 9.039,19.173 	"/>
	<circle id="circle22" fill="none" stroke="#000000" stroke-width="0.75" cx="10.246" cy="14.342" r="6.833"/>
	<path id="lightning1" stroke="#000000" stroke-width="0.75" stroke-linecap="round" stroke-linejoin="round" d="M2.323,3.499
		l2.619,2.543L5.531,5.45l0.394,1.575L4.351,6.632l0.59-0.59L2.323,3.499z"/>
	<path id="lightning2" stroke="#000000" stroke-width="0.75" stroke-linecap="round" stroke-linejoin="round" d="M0.356,5.465
		l2.617,2.542l0.59-0.59l0.394,1.574L2.384,8.599l0.589-0.591L0.356,5.465z"/>
	<polygon id="polygon36" points="8.004,15.333 8.589,14.711 12.05,17.535 11.466,18.158 	"/>
	<polygon id="polygon40" points="12.131,16.303 14.525,20.281 10.264,18.435 	"/>
	<polygon id="polygon44" points="8.166,13.407 14.137,8.528 14.644,9.17 8.672,14.049 	"/>
	<rect id="connector1terminal" x="13.896" fill="none" width="0.938" height="1.701"/>
	<polygon id="connector0terminal" fill="none" points="13.924,27.639 14.814,27.639 14.802,29.639 13.911,29.639 	"/>
	<path fill="#787878" d="M12.854,3.59v0.892h-0.152L12.33,4.139c-0.053-0.049-0.101-0.093-0.145-0.131s-0.086-0.071-0.128-0.099
		c-0.042-0.026-0.084-0.047-0.125-0.063c-0.043-0.015-0.088-0.021-0.138-0.021c-0.038,0-0.072,0.006-0.103,0.018
		s-0.054,0.027-0.075,0.047c-0.02,0.021-0.035,0.045-0.046,0.073s-0.016,0.06-0.016,0.094c0,0.062,0.013,0.118,0.038,0.167
		c0.023,0.051,0.057,0.098,0.096,0.143l-0.116,0.101c-0.022-0.024-0.046-0.056-0.064-0.084c-0.021-0.028-0.039-0.063-0.055-0.097
		c-0.015-0.034-0.025-0.071-0.035-0.109c-0.009-0.038-0.014-0.079-0.014-0.121c0-0.063,0.009-0.119,0.026-0.169
		c0.018-0.051,0.043-0.094,0.076-0.129c0.031-0.035,0.071-0.063,0.119-0.082s0.101-0.028,0.159-0.028
		c0.057,0,0.108,0.01,0.158,0.026s0.101,0.041,0.148,0.069c0.048,0.031,0.097,0.066,0.146,0.109
		c0.049,0.041,0.101,0.088,0.152,0.137l0.294,0.273h0.008V3.59H12.854z"/>
	<path fill="#787878" d="M12.844,25.204v0.172h-0.892c-0.028,0-0.059,0-0.091,0c-0.031,0-0.063-0.002-0.095-0.002
		c-0.032-0.002-0.063-0.002-0.092-0.004c-0.028-0.001-0.054-0.002-0.076-0.002c0.012,0.012,0.021,0.021,0.03,0.029
		s0.017,0.018,0.023,0.025c0.008,0.01,0.017,0.019,0.025,0.028c0.008,0.011,0.019,0.021,0.03,0.035l0.118,0.146l-0.12,0.094
		l-0.292-0.374v-0.146h1.43V25.204z"/>
	
		<line id="connector0pin" fill="none" stroke="#787878" stroke-width="0.9" stroke-linecap="round" stroke-linejoin="round" stroke-miterlimit="10" x1="14.369" y1="21.996" x2="14.369" y2="29.196"/>
	
		<line fill="none" stroke="#787878" stroke-width="0.9" stroke-linecap="round" stroke-linejoin="round" stroke-miterlimit="10" x1="14.369" y1="21.996" x2="14.369" y2="29.196"/>
	
		<line id="connector1pin" fill="none" stroke="#787878" stroke-width="0.9" stroke-linecap="round" stroke-linejoin="round" stroke-miterlimit="10" x1="14.369" y1="0.436" x2="14.369" y2="7.636"/>
</g>
</svg>
