<?xml version="1.0" encoding="utf-8"?>
<!-- Generator: Adobe Illustrator 16.0.0, SVG Export Plug-In . SVG Version: 6.00 Build 0)  -->
<svg version="1.2" baseProfile="tiny" id="Layer_1" xmlns:svg="http://www.w3.org/2000/svg"
	 xmlns="http://www.w3.org/2000/svg" xmlns:xlink="http://www.w3.org/1999/xlink" x="0px" y="0px" width="51.1px" height="43.92px"
	 viewBox="0 0 51.1 43.92" xml:space="preserve">
<g id="schematic">
	<polygon fill="#FFFFFF" stroke="#000000" stroke-width="0.9" stroke-linecap="round" points="7.55,7.56 7.55,36.36 7.55,43.56 
		43.55,43.56 43.55,36.36 43.55,29.16 43.55,14.76 43.55,7.56 43.55,0.36 7.55,0.36 	"/>
	<path fill="none" stroke="#000000" stroke-width="0.5" d="M14.754,16.92c2.585-0.199,4.519-2.455,4.319-5.04
		c-0.179-2.308-2.014-4.142-4.319-4.32"/>
	<path fill="none" stroke="#000000" stroke-width="0.5" d="M14.75,12.6c-1.193-0.348-2.442,0.337-2.79,1.53
		c-0.351,1.193,0.337,2.442,1.527,2.79c0.412,0.12,0.851,0.12,1.263,0"/>
	<path fill="none" stroke="#000000" stroke-width="0.5" d="M14.75,24.12c3.181-0.895,5.034-4.199,4.14-7.38
		c-0.563-2.007-2.133-3.576-4.14-4.14"/>
	<path fill="none" stroke="#000000" stroke-width="0.5" d="M14.75,19.8c-1.193-0.348-2.442,0.337-2.79,1.53
		c-0.351,1.192,0.337,2.442,1.527,2.79c0.412,0.119,0.851,0.119,1.263,0"/>
	<path fill="none" stroke="#000000" stroke-width="0.5" d="M14.75,31.319c3.181-0.928,5.008-4.258,4.08-7.439
		c-0.574-1.968-2.112-3.506-4.08-4.08"/>
	<path fill="none" stroke="#000000" stroke-width="0.5" d="M14.75,27c-1.193-0.349-2.442,0.337-2.79,1.53
		c-0.351,1.191,0.337,2.441,1.527,2.789c0.412,0.121,0.851,0.121,1.263,0"/>
	<path fill="none" stroke="#000000" stroke-width="0.5" d="M14.75,36.36c2.585-0.199,4.519-2.455,4.317-5.041
		c-0.177-2.309-2.012-4.143-4.317-4.319"/>
	<line fill="none" stroke="#000000" stroke-width="0.5" stroke-linecap="round" x1="43.55" y1="7.56" x2="29.15" y2="7.56"/>
	<line fill="none" stroke="#000000" stroke-width="0.5" stroke-linecap="round" x1="29.15" y1="7.56" x2="29.15" y2="14.76"/>
	<line fill="none" stroke="#000000" stroke-width="0.5" stroke-linecap="round" x1="43.55" y1="36.36" x2="29.15" y2="36.36"/>
	<line fill="none" stroke="#000000" stroke-width="0.5" stroke-linecap="round" x1="29.15" y1="36.36" x2="29.15" y2="29.16"/>
	<line fill="none" stroke="#000000" stroke-width="0.5" stroke-linecap="round" x1="36.35" y1="21.96" x2="31.31" y2="16.92"/>
	<line fill="none" stroke="#000000" stroke-width="0.5" stroke-linecap="round" x1="29.15" y1="14.76" x2="31.31" y2="12.6"/>
	<line fill="none" stroke="#000000" stroke-width="0.5" stroke-linecap="round" x1="29.15" y1="14.76" x2="26.99" y2="12.6"/>
	<line fill="none" stroke="#000000" stroke-width="0.5" stroke-linecap="round" x1="29.15" y1="29.16" x2="31.31" y2="31.319"/>
	<line fill="none" stroke="#000000" stroke-width="0.5" stroke-linecap="round" x1="29.15" y1="29.16" x2="26.99" y2="31.319"/>
	<line fill="none" stroke="#000000" stroke-width="0.5" stroke-linecap="round" x1="7.55" y1="7.56" x2="14.75" y2="7.56"/>
	<line fill="none" stroke="#000000" stroke-width="0.5" stroke-linecap="round" x1="7.55" y1="36.36" x2="14.75" y2="36.36"/>
	<line fill="none" stroke="#000000" stroke-width="0.5" stroke-linecap="round" x1="36.35" y1="21.96" x2="43.55" y2="21.96"/>
	
		<line id="connector5pin" fill="none" stroke="#787878" stroke-width="0.75" stroke-linecap="round" x1="0.35" y1="36.36" x2="7.55" y2="36.36"/>
	<path id="connector5terminal" fill="none" d="M0.35,36.36L0.35,36.36L0.35,36.36z"/>
	<text transform="matrix(1 0 0 1 3.2268 35.6611)" fill="#787878" font-family="'DroidSans'" font-size="2">5</text>
	
		<line id="connector3pin" fill="none" stroke="#787878" stroke-width="0.75" stroke-linecap="round" x1="50.75" y1="36.36" x2="43.55" y2="36.36"/>
	<path id="connector3terminal" fill="none" d="M50.75,36.36L50.75,36.36L50.75,36.36z"/>
	<text transform="matrix(1 0 0 1 46.426 35.6611)" fill="#787878" font-family="'DroidSans'" font-size="2">3</text>
	
		<line id="connector2pin" fill="none" stroke="#787878" stroke-width="0.75" stroke-linecap="round" x1="50.75" y1="7.56" x2="43.55" y2="7.56"/>
	<path id="connector2terminal" fill="none" d="M50.75,7.56L50.75,7.56L50.75,7.56z"/>
	<text transform="matrix(1 0 0 1 46.426 6.8613)" fill="#787878" font-family="'DroidSans'" font-size="2">2</text>
	
		<line id="connector1pin" fill="none" stroke="#787878" stroke-width="0.75" stroke-linecap="round" x1="0.35" y1="7.56" x2="7.55" y2="7.56"/>
	<path id="connector1terminal" fill="none" d="M0.35,7.56L0.35,7.56L0.35,7.56z"/>
	<text transform="matrix(1 0 0 1 3.2268 6.8613)" fill="#787878" font-family="'DroidSans'" font-size="2">1</text>
	
		<line id="connector4pin" fill="none" stroke="#787878" stroke-width="0.75" stroke-linecap="round" x1="50.75" y1="21.96" x2="43.55" y2="21.96"/>
	<path id="connector4terminal" fill="none" d="M50.75,21.96L50.75,21.96L50.75,21.96z"/>
	<text transform="matrix(1 0 0 1 46.427 21.2607)" fill="#787878" font-family="'DroidSans'" font-size="2">4</text>
</g>
</svg>
