<?xml version="1.0" encoding="utf-8"?>
<!-- Generator: Adobe Illustrator 16.0.0, SVG Export Plug-In . SVG Version: 6.00 Build 0)  -->
<!DOCTYPE svg PUBLIC "-//W3C//DTD SVG 1.1//EN" "http://www.w3.org/Graphics/SVG/1.1/DTD/svg11.dtd">
<svg version="1.1" id="Layer_1" xmlns:svg="http://www.w3.org/2000/svg"
	 xmlns="http://www.w3.org/2000/svg" xmlns:xlink="http://www.w3.org/1999/xlink" x="0px" y="0px" width="193.738px"
	 height="363.817px" viewBox="0 0 193.738 363.817" enable-background="new 0 0 193.738 363.817" xml:space="preserve">
<g id="schematic">
	
		<rect x="22.46" y="1.2" fill="none" stroke="#000000" stroke-width="0.9" stroke-linecap="round" stroke-linejoin="round" width="148.819" height="361.417"/>
	<text id="label" transform="matrix(1 0 0 1 88.48 43.7202)" font-family="'DroidSans'" font-size="18">IC</text>
	
		<line fill="none" stroke="#000000" stroke-width="0.75" stroke-linecap="round" stroke-linejoin="round" x1="1.2" y1="43.72" x2="21.26" y2="43.72"/>
	<rect id="connector0pin" y="42.52" fill="none" width="21.26" height="2.4"/>
	<rect id="connector0terminal" y="42.52" fill="none" width="2.4" height="2.4"/>
	<text id="label0" transform="matrix(1 0 0 1 27.7397 46.1206)" font-family="'DroidSans'" font-size="9.936">1</text>
	
		<line fill="none" stroke="#000000" stroke-width="0.75" stroke-linecap="round" stroke-linejoin="round" x1="1.2" y1="64.979" x2="21.26" y2="64.979"/>
	<rect id="connector1pin" y="63.779" fill="none" width="21.26" height="2.4"/>
	<rect id="connector1terminal" y="63.779" fill="none" width="2.4" height="2.4"/>
	<text id="label1" transform="matrix(1 0 0 1 27.7397 67.3804)" font-family="'DroidSans'" font-size="9.936">2</text>
	
		<line fill="none" stroke="#000000" stroke-width="0.75" stroke-linecap="round" stroke-linejoin="round" x1="1.2" y1="86.239" x2="21.26" y2="86.239"/>
	<rect id="connector2pin" y="85.039" fill="none" width="21.26" height="2.4"/>
	<rect id="connector2terminal" y="85.039" fill="none" width="2.4" height="2.4"/>
	<text id="label2" transform="matrix(1 0 0 1 27.7397 88.6396)" font-family="'DroidSans'" font-size="9.936">3</text>
	
		<line fill="none" stroke="#000000" stroke-width="0.75" stroke-linecap="round" stroke-linejoin="round" x1="1.2" y1="107.499" x2="21.26" y2="107.499"/>
	<rect id="connector3pin" y="106.299" fill="none" width="21.26" height="2.4"/>
	<rect id="connector3terminal" y="106.299" fill="none" width="2.4" height="2.4"/>
	<text id="label3" transform="matrix(1 0 0 1 27.7397 109.8999)" font-family="'DroidSans'" font-size="9.936">4</text>
	
		<line fill="none" stroke="#000000" stroke-width="0.75" stroke-linecap="round" stroke-linejoin="round" x1="1.2" y1="128.759" x2="21.26" y2="128.759"/>
	<rect id="connector4pin" y="127.559" fill="none" width="21.26" height="2.4"/>
	<rect id="connector4terminal" y="127.559" fill="none" width="2.4" height="2.4"/>
	<text id="label4" transform="matrix(1 0 0 1 27.7397 131.1597)" font-family="'DroidSans'" font-size="9.936">5</text>
	
		<line fill="none" stroke="#000000" stroke-width="0.75" stroke-linecap="round" stroke-linejoin="round" x1="1.2" y1="150.019" x2="21.26" y2="150.019"/>
	<rect id="connector5pin" y="148.819" fill="none" width="21.26" height="2.4"/>
	<rect id="connector5terminal" y="148.819" fill="none" width="2.4" height="2.4"/>
	<text id="label5" transform="matrix(1 0 0 1 27.7397 152.4194)" font-family="'DroidSans'" font-size="9.936">6</text>
	
		<line fill="none" stroke="#000000" stroke-width="0.75" stroke-linecap="round" stroke-linejoin="round" x1="1.2" y1="171.279" x2="21.26" y2="171.279"/>
	<rect id="connector6pin" y="170.078" fill="none" width="21.26" height="2.4"/>
	<rect id="connector6terminal" y="170.078" fill="none" width="2.4" height="2.4"/>
	<text id="label6" transform="matrix(1 0 0 1 27.7397 173.6792)" font-family="'DroidSans'" font-size="9.936">7</text>
	
		<line fill="none" stroke="#000000" stroke-width="0.75" stroke-linecap="round" stroke-linejoin="round" x1="1.2" y1="192.54" x2="21.26" y2="192.54"/>
	<rect id="connector7pin" y="191.339" fill="none" width="21.26" height="2.399"/>
	<rect id="connector7terminal" y="191.339" fill="none" width="2.4" height="2.399"/>
	<text id="label7" transform="matrix(1 0 0 1 27.7397 194.9399)" font-family="'DroidSans'" font-size="9.936">8</text>
	
		<line fill="none" stroke="#000000" stroke-width="0.75" stroke-linecap="round" stroke-linejoin="round" x1="1.2" y1="213.798" x2="21.26" y2="213.798"/>
	<rect id="connector8pin" y="212.6" fill="none" width="21.26" height="2.399"/>
	<rect id="connector8terminal" y="212.6" fill="none" width="2.4" height="2.399"/>
	<text id="label8" transform="matrix(1 0 0 1 27.7397 216.1997)" font-family="'DroidSans'" font-size="9.936">9</text>
	
		<line fill="none" stroke="#000000" stroke-width="0.75" stroke-linecap="round" stroke-linejoin="round" x1="1.2" y1="235.059" x2="21.26" y2="235.059"/>
	<rect id="connector9pin" y="233.858" fill="none" width="21.26" height="2.4"/>
	<rect id="connector9terminal" y="233.858" fill="none" width="2.4" height="2.4"/>
	<text id="label9" transform="matrix(1 0 0 1 27.7397 237.4585)" font-family="'DroidSans'" font-size="9.936">10</text>
	
		<line fill="none" stroke="#000000" stroke-width="0.75" stroke-linecap="round" stroke-linejoin="round" x1="1.2" y1="256.319" x2="21.26" y2="256.319"/>
	<rect id="connector10pin" y="255.118" fill="none" width="21.26" height="2.4"/>
	<rect id="connector10terminal" y="255.118" fill="none" width="2.4" height="2.4"/>
	<text id="label10" transform="matrix(1 0 0 1 27.7397 258.7192)" font-family="'DroidSans'" font-size="9.936">11</text>
	
		<line fill="none" stroke="#000000" stroke-width="0.75" stroke-linecap="round" stroke-linejoin="round" x1="1.2" y1="277.579" x2="21.26" y2="277.579"/>
	<rect id="connector11pin" y="276.378" fill="none" width="21.26" height="2.399"/>
	<rect id="connector11terminal" y="276.378" fill="none" width="2.4" height="2.399"/>
	<text id="label11" transform="matrix(1 0 0 1 27.7397 279.979)" font-family="'DroidSans'" font-size="9.936">12</text>
	
		<line fill="none" stroke="#000000" stroke-width="0.75" stroke-linecap="round" stroke-linejoin="round" x1="1.2" y1="298.838" x2="21.26" y2="298.838"/>
	<rect id="connector12pin" y="297.639" fill="none" width="21.26" height="2.4"/>
	<rect id="connector12terminal" y="297.639" fill="none" width="2.4" height="2.4"/>
	<text id="label12" transform="matrix(1 0 0 1 27.7397 301.2388)" font-family="'DroidSans'" font-size="9.936">13</text>
	
		<line fill="none" stroke="#000000" stroke-width="0.75" stroke-linecap="round" stroke-linejoin="round" x1="1.2" y1="320.098" x2="21.26" y2="320.098"/>
	<rect id="connector13pin" y="318.897" fill="none" width="21.26" height="2.4"/>
	<rect id="connector13terminal" y="318.897" fill="none" width="2.4" height="2.4"/>
	<text id="label13" transform="matrix(1 0 0 1 27.7397 322.4985)" font-family="'DroidSans'" font-size="9.936">14</text>
	
		<line fill="none" stroke="#000000" stroke-width="0.75" stroke-linecap="round" stroke-linejoin="round" x1="171.279" y1="43.72" x2="192.539" y2="43.72"/>
	<rect id="connector27pin" x="172.479" y="42.52" fill="none" width="21.261" height="2.4"/>
	<rect id="connector27terminal" x="191.34" y="42.52" fill="none" width="2.399" height="2.4"/>
	<text id="label27" transform="matrix(1 0 0 1 155.0547 46.1206)" font-family="'DroidSans'" font-size="9.936">28</text>
	
		<line fill="none" stroke="#000000" stroke-width="0.75" stroke-linecap="round" stroke-linejoin="round" x1="171.279" y1="64.979" x2="192.539" y2="64.979"/>
	<rect id="connector26pin" x="172.479" y="63.779" fill="none" width="21.261" height="2.4"/>
	<rect id="connector26terminal" x="191.34" y="63.779" fill="none" width="2.399" height="2.4"/>
	<text id="label26" transform="matrix(1 0 0 1 155.0547 67.3804)" font-family="'DroidSans'" font-size="9.936">27</text>
	
		<line fill="none" stroke="#000000" stroke-width="0.75" stroke-linecap="round" stroke-linejoin="round" x1="171.279" y1="86.239" x2="192.539" y2="86.239"/>
	<rect id="connector25pin" x="172.479" y="85.039" fill="none" width="21.261" height="2.4"/>
	<rect id="connector25terminal" x="191.34" y="85.039" fill="none" width="2.399" height="2.4"/>
	<text id="label25" transform="matrix(1 0 0 1 155.0547 88.6396)" font-family="'DroidSans'" font-size="9.936">26</text>
	
		<line fill="none" stroke="#000000" stroke-width="0.75" stroke-linecap="round" stroke-linejoin="round" x1="171.279" y1="107.499" x2="192.539" y2="107.499"/>
	<rect id="connector24pin" x="172.479" y="106.299" fill="none" width="21.261" height="2.4"/>
	<rect id="connector24terminal" x="191.34" y="106.299" fill="none" width="2.399" height="2.4"/>
	<text id="label24" transform="matrix(1 0 0 1 155.0547 109.8999)" font-family="'DroidSans'" font-size="9.936">25</text>
	
		<line fill="none" stroke="#000000" stroke-width="0.75" stroke-linecap="round" stroke-linejoin="round" x1="171.279" y1="128.759" x2="192.539" y2="128.759"/>
	<rect id="connector23pin" x="172.479" y="127.559" fill="none" width="21.261" height="2.4"/>
	<rect id="connector23terminal" x="191.34" y="127.559" fill="none" width="2.399" height="2.4"/>
	<text id="label23" transform="matrix(1 0 0 1 155.0547 131.1597)" font-family="'DroidSans'" font-size="9.936">24</text>
	
		<line fill="none" stroke="#000000" stroke-width="0.75" stroke-linecap="round" stroke-linejoin="round" x1="171.279" y1="150.019" x2="192.539" y2="150.019"/>
	<rect id="connector22pin" x="172.479" y="148.819" fill="none" width="21.261" height="2.4"/>
	<rect id="connector22terminal" x="191.34" y="148.819" fill="none" width="2.399" height="2.4"/>
	<text id="label22" transform="matrix(1 0 0 1 155.0547 152.4194)" font-family="'DroidSans'" font-size="9.936">23</text>
	
		<line fill="none" stroke="#000000" stroke-width="0.75" stroke-linecap="round" stroke-linejoin="round" x1="171.279" y1="171.279" x2="192.539" y2="171.279"/>
	<rect id="connector21pin" x="172.479" y="170.078" fill="none" width="21.261" height="2.4"/>
	<rect id="connector21terminal" x="191.34" y="170.078" fill="none" width="2.399" height="2.4"/>
	<text id="label21" transform="matrix(1 0 0 1 155.0547 173.6792)" font-family="'DroidSans'" font-size="9.936">22</text>
	
		<line fill="none" stroke="#000000" stroke-width="0.75" stroke-linecap="round" stroke-linejoin="round" x1="171.279" y1="192.54" x2="192.539" y2="192.54"/>
	<rect id="connector20pin" x="172.479" y="191.339" fill="none" width="21.261" height="2.399"/>
	<rect id="connector20terminal" x="191.34" y="191.339" fill="none" width="2.399" height="2.399"/>
	<text id="label20" transform="matrix(1 0 0 1 155.0547 194.9399)" font-family="'DroidSans'" font-size="9.936">21</text>
	
		<line fill="none" stroke="#000000" stroke-width="0.75" stroke-linecap="round" stroke-linejoin="round" x1="171.279" y1="213.798" x2="192.539" y2="213.798"/>
	<rect id="connector19pin" x="172.479" y="212.6" fill="none" width="21.261" height="2.399"/>
	<rect id="connector19terminal" x="191.34" y="212.6" fill="none" width="2.399" height="2.399"/>
	<text id="label19" transform="matrix(1 0 0 1 155.0547 216.1997)" font-family="'DroidSans'" font-size="9.936">20</text>
	
		<line fill="none" stroke="#000000" stroke-width="0.75" stroke-linecap="round" stroke-linejoin="round" x1="171.279" y1="235.059" x2="192.539" y2="235.059"/>
	<rect id="connector18pin" x="172.479" y="233.858" fill="none" width="21.261" height="2.4"/>
	<rect id="connector18terminal" x="191.34" y="233.858" fill="none" width="2.399" height="2.4"/>
	<text id="label18" transform="matrix(1 0 0 1 155.0547 237.4585)" font-family="'DroidSans'" font-size="9.936">19</text>
	
		<line fill="none" stroke="#000000" stroke-width="0.75" stroke-linecap="round" stroke-linejoin="round" x1="171.279" y1="256.319" x2="192.539" y2="256.319"/>
	<rect id="connector17pin" x="172.479" y="255.118" fill="none" width="21.261" height="2.4"/>
	<rect id="connector17terminal" x="191.34" y="255.118" fill="none" width="2.399" height="2.4"/>
	<text id="label17" transform="matrix(1 0 0 1 155.0547 258.7192)" font-family="'DroidSans'" font-size="9.936">18</text>
	
		<line fill="none" stroke="#000000" stroke-width="0.75" stroke-linecap="round" stroke-linejoin="round" x1="171.279" y1="277.579" x2="192.539" y2="277.579"/>
	<rect id="connector16pin" x="172.479" y="276.378" fill="none" width="21.261" height="2.399"/>
	<rect id="connector16terminal" x="191.34" y="276.378" fill="none" width="2.399" height="2.399"/>
	<text id="label16" transform="matrix(1 0 0 1 155.0547 279.979)" font-family="'DroidSans'" font-size="9.936">17</text>
	
		<line fill="none" stroke="#000000" stroke-width="0.75" stroke-linecap="round" stroke-linejoin="round" x1="171.279" y1="298.838" x2="192.539" y2="298.838"/>
	<rect id="connector15pin" x="172.479" y="297.639" fill="none" width="21.261" height="2.4"/>
	<rect id="connector15terminal" x="191.34" y="297.639" fill="none" width="2.399" height="2.4"/>
	<text id="label15" transform="matrix(1 0 0 1 155.0547 301.2388)" font-family="'DroidSans'" font-size="9.936">16</text>
	
		<line fill="none" stroke="#000000" stroke-width="0.75" stroke-linecap="round" stroke-linejoin="round" x1="171.279" y1="320.098" x2="192.539" y2="320.098"/>
	<rect id="connector14pin" x="172.479" y="318.897" fill="none" width="21.261" height="2.4"/>
	<rect id="connector14terminal" x="191.34" y="318.897" fill="none" width="2.399" height="2.4"/>
	<text id="label14" transform="matrix(1 0 0 1 155.0547 322.4985)" font-family="'DroidSans'" font-size="9.936">15</text>
</g>
</svg>
