<?xml version='1.0' encoding='utf-8'?>
<!-- Generator: Adobe Illustrator 15.0.2, SVG Export Plug-In . SVG Version: 6.00 Build 0)  -->
<svg xmlns="http://www.w3.org/2000/svg"  width="3.41847in" xml:space="preserve" xmlns:xml="http://www.w3.org/XML/1998/namespace" x="0px" version="1.2" y="0px" overflow="inherit" height="0.986111in" viewBox="0 0 246.13 71" baseProfile="tiny" id="0">
 <desc   id="0.0" oldid="0.0">
  <referenceFile   id="0.0.0" oldid="0.0.0">pololu_mq_gas_sensor_carrier_schematic.svg</referenceFile>
 </desc>
 <text  font-family="DroidSans"  id="0.1" transform="matrix(1 0 0 1 18.5 27.5)" font-size="18">Pololu MQ Gas</text>
 <text  font-family="DroidSans"  id="0.2" transform="matrix(1 0 0 1 18.5 49.1001)" font-size="18">Sensor Carrier</text>
 <text  font-family="DroidSans"  id="0.3" transform="matrix(1 0 0 1 196.5645 60)" font-size="10">GND</text>
 <text  font-family="DroidSans"  id="0.4" transform="matrix(1 0 0 1 200.2559 38.5)" font-size="10">V</text>
 <text  font-family="DroidSans"  id="0.5" transform="matrix(1 0 0 1 205.7344 38.5)" font-size="10">C</text>
 <text  font-family="DroidSans"  id="0.6" transform="matrix(1 0 0 1 211.5645 38.5)" font-size="10">C</text>
 <text  font-family="DroidSans"  id="0.7" transform="matrix(1 0 0 1 198 17.3188)" font-size="10">OUT</text>
 <rect  width="222" x="1.5" y="1.5" fill="none"  height="68" stroke="#000000" id="0.8" stroke-width="3" stroke-miterlimit="10"/>
 <line  fill="none"  stroke="#000000" id="connector5pin" y1="14.059" stroke-width="3" x1="224.87" y2="14.059" x2="246.13" stroke-miterlimit="10"/>
 <line  fill="none"  stroke="#000000" id="connector6pin" y1="35.319" stroke-width="3" x1="224.87" y2="35.319" x2="246.13" stroke-miterlimit="10"/>
 <line  fill="none"  stroke="#000000" id="connector4pin" y1="56.579" stroke-width="3" x1="224.87" y2="56.579" x2="246.13" stroke-miterlimit="10"/>
</svg>
