<?xml version='1.0' encoding='UTF-8' standalone='no'?>
<svg xmlns="http://www.w3.org/2000/svg" width="164.59999" version="1.2" gorn="0"  height="131.87582" viewBox="0 0 1828.8888 1465.2867" id="svg2870">
    <desc >
        <referenceFile >pt4115-schematic.svg</referenceFile>
    </desc>
    <metadata  id="metadata2920">
        <rdf:RDF xmlns:rdf="http://www.w3.org/1999/02/22-rdf-syntax-ns#">
            <cc:Work xmlns:rdf="http://www.w3.org/1999/02/22-rdf-syntax-ns#" xmlns:cc="http://creativecommons.org/ns#" rdf:about="">
                <dc:format xmlns:dc="http://purl.org/dc/elements/1.1/">image/svg+xml</dc:format>
                <dc:type xmlns:rdf="http://www.w3.org/1999/02/22-rdf-syntax-ns#" rdf:resource="http://purl.org/dc/dcmitype/StillImage" xmlns:dc="http://purl.org/dc/elements/1.1/"/>
                <dc:title xmlns:dc="http://purl.org/dc/elements/1.1/"/>
            </cc:Work>
        </rdf:RDF>
    </metadata>
    <defs  id="defs2918"/>
    <g  transform="translate(0,235.2868)">
        <g >
            <g >
                <g >
                    <g gorn="0.3.0.0.0.0"  id="schematic">
                        <rect width="1200" x="315" y="15" fill="none" gorn="0.3.0.0.0.0.0"  height="1164.8022" stroke="#000000" style="stroke-linecap:round;stroke-linejoin:round" id="rect2873" stroke-width="26.43636513"/>
                        <g fill="#000000" gorn="0.3.0.0.0.0.1"  stroke="none" style="text-align:center;line-height:125%;writing-mode:lr-tb;text-anchor:middle;font-family:Droid Sans" id="label" font-size="2611.11">
                            <g gorn="0.3.0.0.0.0.1.0"  style="" id="tspan3090">
                                <path gorn="0.3.0.0.0.0.1.0.0"  style="" id="path3108" d="m 644.25671,-185.25763 c -1.2e-4,6.96138 -1.07108,13.65489 -3.21289,20.08057 -2.06554,6.42587 -5.50792,12.12492 -10.32715,17.09716 -4.81944,4.89591 -11.20696,8.83553 -19.16259,11.81885 -7.87932,2.90697 -17.63273,4.36042 -29.26026,4.36035 l -17.21191,0 0,65.290532 -21.34277,0 0,-167.758792 41.53808,0 c 10.25058,1.7e-4 19.08602,1.10938 26.50635,3.32764 7.42015,2.14209 13.53993,5.31673 18.35937,9.52392 4.81923,4.13102 8.37635,9.25634 10.67139,15.37598 2.2948,6.11993 3.44226,13.08118 3.44238,20.88379 m -79.1748,35.22705 14.80225,0 c 7.11419,8e-5 13.31047,-0.61189 18.58886,-1.83594 5.35474,-1.22387 9.75333,-3.17455 13.1958,-5.85205 3.51879,-2.75381 6.15795,-6.27269 7.91748,-10.55664 1.75934,-4.36024 2.63906,-9.63856 2.63916,-15.83496 -10e-5,-10.8625 -3.13649,-18.89472 -9.40918,-24.09668 -6.27287,-5.27817 -16.06452,-7.91733 -29.375,-7.91748 l -18.35937,0 0,66.09375"/>
                                <path gorn="0.3.0.0.0.0.1.0.1"  style="" id="path3110" d="m 728.02136,-66.610168 -21.45752,0 0,-148.940432 -47.96386,0 0,-18.81836 117.2705,0 0,18.81836 -47.84912,0 0,148.940432"/>
                                <path gorn="0.3.0.0.0.0.1.0.2"  style="" id="path3112" d="m 903.1239,-104.24689 -24.44092,0 0,37.636722 -20.19531,0 0,-37.636722 -77.45361,0 0,-18.24463 76.07666,-112.79541 21.57226,0 0,111.99219 24.44092,0 0,19.04785 m -44.63623,-19.04785 0,-40.84961 c -8e-5,-4.28375 0.0382,-8.75884 0.11475,-13.42529 0.15291,-4.74272 0.30591,-9.33256 0.45898,-13.76953 0.15292,-4.51322 0.30591,-8.72057 0.45899,-12.62207 0.22941,-3.90123 0.3824,-7.15236 0.45898,-9.75342 l -1.03271,0 c -0.53557,1.53009 -1.22404,3.25128 -2.06543,5.16357 -0.76506,1.83608 -1.64478,3.71027 -2.63916,5.62256 -0.91805,1.83607 -1.87426,3.63376 -2.86866,5.39307 -0.99454,1.75957 -1.9125,3.25127 -2.7539,4.4751 l -47.16065,69.76562 57.02881,0"/>
                                <path gorn="0.3.0.0.0.0.1.0.3"  style="" id="path3114" d="m 989.41296,-66.610168 -20.19531,0 0,-104.763182 c -6e-5,-3.28928 -6e-5,-6.80816 0,-10.55664 0.0764,-3.74826 0.15293,-7.45838 0.22949,-11.13037 0.15294,-3.74825 0.26768,-7.30537 0.34424,-10.67139 0.15293,-3.44224 0.26768,-6.46389 0.34424,-9.06494 -1.30052,1.3771 -2.44798,2.5628 -3.44238,3.55713 -0.99453,0.9946 -2.02724,1.95082 -3.09815,2.86865 -0.99452,0.91811 -2.06548,1.91257 -3.21289,2.9834 -1.14751,0.9946 -2.52446,2.18031 -4.13086,3.55713 l -16.98242,13.88427 -11.01562,-14.11377 43.94775,-34.30908 17.21191,0 0,167.758792"/>
                                <path gorn="0.3.0.0.0.0.1.0.4"  style="" id="path3116" d="m 1118.8466,-66.610168 -20.1954,0 0,-104.763182 c 0,-3.28928 0,-6.80816 0,-10.55664 0.076,-3.74826 0.153,-7.45838 0.2295,-11.13037 0.153,-3.74825 0.2677,-7.30537 0.3443,-10.67139 0.1529,-3.44224 0.2677,-6.46389 0.3442,-9.06494 -1.3005,1.3771 -2.448,2.5628 -3.4424,3.55713 -0.9945,0.9946 -2.0272,1.95082 -3.0981,2.86865 -0.9945,0.91811 -2.0655,1.91257 -3.2129,2.9834 -1.1475,0.9946 -2.5245,2.18031 -4.1309,3.55713 l -16.9824,13.88427 -11.0156,-14.11377 43.9477,-34.30908 17.212,0 0,167.758792"/>
                                <path gorn="0.3.0.0.0.0.1.0.5"  style="" id="path3118" d="m 1229.2323,-169.53741 c 7.5732,1e-4 14.6109,1.07106 21.1133,3.21289 6.5787,2.06552 12.2777,5.16366 17.0971,9.29443 4.8958,4.13095 8.7206,9.25627 11.4747,15.37598 2.7537,6.11986 4.1307,13.19586 4.1308,21.22802 -10e-5,8.72075 -1.3006,16.56173 -3.9013,23.522953 -2.6011,6.961286 -6.4642,12.85158 -11.5894,17.670898 -5.1254,4.819344 -11.4747,8.529464 -19.0479,11.130371 -7.4968,2.524413 -16.141,3.786619 -25.9326,3.786621 -3.9014,-2e-6 -7.7645,-0.191245 -11.5893,-0.57373 -3.7484,-0.382488 -7.3821,-0.956218 -10.9009,-1.721191 -3.4424,-0.688476 -6.7318,-1.606444 -9.8682,-2.753907 -3.1364,-1.147457 -5.9668,-2.48616 -8.4912,-4.016113 l 0,-19.736328 c 2.5244,1.759465 5.4696,3.32766 8.8355,4.70459 3.4423,1.376973 7.0377,2.524433 10.7861,3.442383 3.7483,0.917986 7.4967,1.64471 11.2451,2.180175 3.8248,0.459 7.3437,0.688492 10.5567,0.688477 6.0432,1.5e-5 11.4362,-0.68846 16.1792,-2.06543 4.7427,-1.453431 8.7588,-3.671854 12.0483,-6.655273 3.2893,-2.983371 5.8137,-6.73174 7.5732,-11.245116 1.7594,-4.51331 2.6391,-9.86812 2.6392,-16.06445 -10e-5,-10.93907 -3.366,-19.27728 -10.0977,-25.01465 -6.7318,-5.81372 -16.5235,-8.72062 -29.375,-8.72071 -2.0654,9e-5 -4.3221,0.11484 -6.77,0.34424 -2.3714,0.15308 -4.7811,0.38257 -7.229,0.68848 -2.3714,0.30607 -4.6664,0.65031 -6.8847,1.03271 -2.142,0.30608 -4.0162,0.61207 -5.6226,0.91797 l -10.3272,-6.54053 6.3111,-78.94531 79.1748,0 0,19.04785 -61.0449,0 -4.4751,48.07862 c 2.4478,-0.45889 5.6607,-0.95612 9.6386,-1.4917 4.0543,-0.53538 8.8354,-0.80312 14.3433,-0.80322"/>
                            </g>
                        </g>
                        <line fill="none" gorn="0.3.0.0.0.0.2"  stroke="#000000" style="stroke-linecap:round;stroke-linejoin:round" id="line2876" y1="315" x1="15" y2="315" stroke-width="30" x2="300"/>
                        <rect width="300" x="0" y="300" fill="none" gorn="0.3.0.0.0.0.3"  height="30" id="connector0pin" stroke-width="0"/>
                        <rect width="30" x="0" y="300" fill="none" gorn="0.3.0.0.0.0.4"  height="30" id="connector0terminal" stroke-width="0"/>
                        <g fill="#000000" gorn="0.3.0.0.0.0.5"  stroke="none" style="text-align:start;line-height:125%;writing-mode:lr-tb;text-anchor:start;font-family:Droid Sans" id="label0" font-size="1444.44">
                            <g gorn="0.3.0.0.0.0.5.0"  style="" id="tspan3072">
                                <path gorn="0.3.0.0.0.0.5.0.0"  style="" id="path3141" d="m 451.50879,325.18066 c -6e-5,4.10484 -0.74062,7.78648 -2.22168,11.04493 -1.43886,3.21615 -3.51243,5.94564 -6.2207,8.18847 -2.70839,2.24284 -6.00917,3.95671 -9.90235,5.1416 -3.89327,1.14258 -8.27314,1.71387 -13.13965,1.71387 -4.69729,0 -9.09832,-0.38086 -13.20312,-1.14258 -4.06251,-0.7194 -7.46909,-1.7985 -10.21973,-3.2373 l 0,-11.29883 c 1.4388,0.6771 3.06803,1.35418 4.8877,2.03125 1.86196,0.63478 3.80858,1.20607 5.83984,1.71387 2.03123,0.50782 4.12596,0.931 6.28418,1.26953 2.15818,0.29623 4.29522,0.44434 6.41113,0.44433 6.7708,10e-6 11.76429,-1.26952 14.98047,-3.80859 3.25842,-2.53905 4.88765,-6.17837 4.8877,-10.91797 -5e-5,-2.28513 -0.31743,-4.27406 -0.95215,-5.96679 -0.5925,-1.69268 -1.6716,-3.23728 -3.23731,-4.63379 -1.52348,-1.43877 -3.57588,-2.81409 -6.15722,-4.12598 -2.58142,-1.35413 -5.83988,-2.81409 -9.77539,-4.37988 -3.7663,-1.48108 -7.04592,-3.08915 -9.83887,-4.82422 -2.75067,-1.7773 -5.03582,-3.76623 -6.85547,-5.9668 -1.77735,-2.20046 -3.11036,-4.69721 -3.99902,-7.49023 -0.84636,-2.79291 -1.26954,-5.96673 -1.26953,-9.52149 -10e-6,-3.72388 0.67707,-7.04582 2.03125,-9.96582 1.35415,-2.91984 3.25845,-5.37426 5.71289,-7.36328 2.45441,-2.03116 5.37433,-3.57575 8.75976,-4.63379 3.42771,-1.05785 7.19398,-1.58682 11.29883,-1.58691 5.03577,9e-5 9.56376,0.48675 13.58399,1.45996 4.02013,0.93108 7.59597,2.13713 10.72753,3.61816 l -4.25292,9.90235 c -2.75071,-1.22714 -5.88222,-2.28508 -9.39454,-3.17383 -3.47009,-0.93091 -7.06709,-1.3964 -10.79101,-1.39649 -5.16279,9e-5 -9.16181,1.20614 -11.99707,3.61817 -2.83531,2.36987 -4.25295,5.58601 -4.25293,9.64844 -2e-5,2.41217 0.31736,4.5069 0.95215,6.28418 0.63474,1.73508 1.69268,3.322 3.17382,4.76074 1.4811,1.39654 3.42771,2.72955 5.83985,3.99902 2.45439,1.22727 5.45895,2.53912 9.01367,3.93555 3.85087,1.52349 7.21512,3.08924 10.09277,4.69726 2.91987,1.60812 5.35314,3.42778 7.29981,5.45899 1.94656,2.03129 3.40652,4.37992 4.37988,7.0459 1.01557,2.66604 1.52338,5.81871 1.52344,9.458"/>
                                <path gorn="0.3.0.0.0.0.5.0.1"  style="" id="path3143" d="m 508.8916,257.19727 12.50488,0 14.53614,54.33593 c 0.63468,2.36983 1.24829,4.73962 1.84082,7.10938 0.63468,2.36982 1.20597,4.67613 1.71386,6.91894 0.55005,2.20055 1.01555,4.29527 1.39649,6.28418 0.42309,1.98895 0.76163,3.78745 1.01562,5.39551 0.16919,-1.60806 0.38078,-3.36424 0.63477,-5.26855 0.25382,-1.90428 0.55004,-3.89321 0.88867,-5.9668 0.33846,-2.11586 0.69816,-4.2529 1.0791,-6.41113 0.42309,-2.20049 0.86743,-4.33753 1.33301,-6.41114 l 12.69531,-55.98632 12.63184,0 -23.2959,92.80273 -11.93359,0 -16.12305,-59.54102 c -0.59251,-2.15814 -1.1638,-4.37981 -1.71387,-6.66503 -0.55019,-2.28509 -1.058,-4.42213 -1.52343,-6.41114 -0.50788,-2.3274 -0.99453,-4.59139 -1.45997,-6.79199 -0.46555,2.15828 -0.93104,4.40112 -1.39648,6.72852 -0.42323,1.989 -0.90989,4.16836 -1.45996,6.53808 -0.50787,2.36986 -1.058,4.69733 -1.65039,6.98242 L 495.24414,350 l -11.93359,0 -24.50196,-92.80273 12.50489,0 14.15527,56.43066 c 0.50778,1.94665 0.97328,3.9779 1.39648,6.09375 0.42315,2.0736 0.80401,4.14716 1.14258,6.2207 0.38083,2.07359 0.71937,4.08368 1.01563,6.03028 0.29619,1.90431 0.5501,3.66049 0.76172,5.26855 0.21155,-1.56574 0.46546,-3.3854 0.76171,-5.45898 0.33851,-2.07355 0.71937,-4.25291 1.14258,-6.53809 0.42315,-2.28513 0.86748,-4.59144 1.33301,-6.91894 0.50778,-2.36976 1.03675,-4.59144 1.58691,-6.66504 l 14.28223,-54.46289"/>
                            </g>
                        </g>
                        <line fill="none" gorn="0.3.0.0.0.0.6"  stroke="#000000" style="stroke-linecap:round;stroke-linejoin:round" id="line2881" y1="315" x1="1515" y2="315" stroke-width="30" x2="1815"/>
                        <rect width="300" x="1530" y="300" fill="none" gorn="0.3.0.0.0.0.7"  height="30" id="connector4pin" stroke-width="0"/>
                        <rect width="30" x="1830" y="300" fill="none" gorn="0.3.0.0.0.0.8"  height="30" id="connector7terminal" stroke-width="0"/>
                        <g fill="#000000" gorn="0.3.0.0.0.0.9"  stroke="none" style="text-align:end;line-height:125%;writing-mode:lr-tb;text-anchor:end;font-family:Droid Sans" id="label7" font-size="1444.44">
                            <g gorn="0.3.0.0.0.0.9.0"  style="" id="tspan3080">
                                <path gorn="0.3.0.0.0.0.9.0.0"  style="" id="path3134" d="m 1288.4814,257.19727 12.5684,0 -31.04,92.80273 -11.8702,0 -30.913,-92.80273 12.5048,0 18.7256,58.84277 c 1.2272,3.85094 2.2852,7.5749 3.1739,11.17187 0.8886,3.55471 1.6926,6.89781 2.4121,10.0293 0.6347,-3.13149 1.4387,-6.47459 2.4121,-10.0293 0.9732,-3.59697 2.1158,-7.44788 3.4277,-11.55273 l 18.5986,-58.46191"/>
                                <path gorn="0.3.0.0.0.0.9.0.1"  style="" id="path3136" d="m 1339.9609,350 -33.6425,0 0,-6.47461 10.9179,-2.60254 0,-74.64844 -10.9179,-2.60254 0,-6.4746 33.6425,0 0,6.4746 -10.9179,2.60254 0,74.64844 10.9179,2.60254 0,6.47461"/>
                                <path gorn="0.3.0.0.0.0.9.0.2"  style="" id="path3138" d="m 1427.4316,350 -13.6474,0 -45.6397,-76.80664 -0.5078,0 c 0.2539,3.25854 0.4655,6.49584 0.6348,9.71191 0.1692,2.75072 0.2962,5.62832 0.3808,8.63282 0.127,3.00461 0.1904,5.71294 0.1905,8.125 l 0,50.33691 -10.918,0 0,-92.80273 13.5205,0 45.4492,76.42578 0.4444,0 c -0.1271,-3.21613 -0.2752,-6.38995 -0.4444,-9.52149 -0.042,-1.35414 -0.1058,-2.72946 -0.1904,-4.12597 -0.042,-1.43877 -0.1059,-2.85642 -0.1904,-4.25293 -0.042,-1.43877 -0.085,-2.81409 -0.127,-4.12598 -10e-5,-1.31181 -10e-5,-2.51786 0,-3.61816 l 0,-50.78125 11.0449,0 0,92.80273"/>
                            </g>
                        </g>
                        <line fill="none" gorn="0.3.0.0.0.0.10"  stroke="#000000" style="stroke-linecap:round;stroke-linejoin:round" id="line2886" y1="615" x1="15" y2="615" stroke-width="30" x2="300"/>
                        <rect width="300" x="0" y="600" fill="none" gorn="0.3.0.0.0.0.11"  height="30" id="connector2pin" stroke-width="0"/>
                        <rect width="30" x="0" y="600" fill="none"  height="30" stroke-width="0"/>
                        <g fill="#000000" gorn="0.3.0.0.0.0.13"  stroke="none" style="text-align:start;line-height:125%;writing-mode:lr-tb;text-anchor:start;font-family:Droid Sans" id="label1" font-size="1444.44">
                            <g gorn="0.3.0.0.0.0.13.0"  style="" id="tspan3074">
                                <path gorn="0.3.0.0.0.0.13.0.0"  style="" id="path3146" d="m 447.25168,586.97919 30.72265,0 0,45.51269 c -2.32755,0.76172 -4.67618,1.43881 -7.04589,2.03125 -2.36987,0.59245 -4.80313,1.0791 -7.29981,1.45996 -2.49681,0.42318 -5.1205,0.74056 -7.87109,0.95215 -2.75071,0.21159 -5.71295,0.31738 -8.88672,0.31738 -6.64392,0 -12.52608,-1.10026 -17.64649,-3.30078 -5.12046,-2.24283 -9.43687,-5.41666 -12.94921,-9.52148 -3.51239,-4.14712 -6.1784,-9.16176 -7.99805,-15.04395 -1.81967,-5.92444 -2.7295,-12.56832 -2.72949,-19.93164 -10e-6,-7.27859 0.99445,-13.85899 2.9834,-19.74121 2.03123,-5.88209 4.97231,-10.87557 8.82324,-14.98047 3.85089,-4.14705 8.59046,-7.32087 14.21875,-9.52148 5.67053,-2.24275 12.12397,-3.36416 19.36035,-3.36426 4.69721,10e-5 9.20404,0.46559 13.52051,1.39649 4.31633,0.93108 8.33651,2.28524 12.06054,4.0625 l -4.57031,10.2832 c -1.52351,-0.71932 -3.1739,-1.39641 -4.95117,-2.03125 -1.73509,-0.63469 -3.5336,-1.18482 -5.39551,-1.65039 -1.86204,-0.50773 -3.78749,-0.90975 -5.77637,-1.20606 -1.94667,-0.29614 -3.89328,-0.44425 -5.83984,-0.44433 -5.16281,8e-5 -9.73311,0.86759 -13.71094,2.60254 -3.9779,1.69278 -7.32099,4.14721 -10.02929,7.36328 -2.66605,3.21621 -4.69729,7.1306 -6.09375,11.74316 -1.39651,4.61269 -2.09475,9.81776 -2.09473,15.61524 -2e-5,5.50134 0.57127,10.53714 1.71387,15.10742 1.18487,4.57034 3.04685,8.50588 5.58593,11.80664 2.53904,3.3008 5.81866,5.86101 9.83887,7.68066 4.02014,1.81967 8.86552,2.7295 14.53613,2.72949 1.86193,10e-6 3.55464,-0.0423 5.07813,-0.12695 1.5657,-0.12694 3.0045,-0.27505 4.31641,-0.44433 1.31178,-0.16927 2.53899,-0.35969 3.68164,-0.57129 1.18483,-0.2539 2.3274,-0.48665 3.42773,-0.69825 l 0,-27.67578 -18.97949,0 0,-10.41015"/>
                                <path gorn="0.3.0.0.0.0.13.0.1"  style="" id="path3148" d="m 569.38058,635.98309 -13.64746,0 -45.63964,-76.80664 -0.50782,0 c 0.25389,3.25854 0.46547,6.49584 0.63477,9.71192 0.16925,2.75071 0.2962,5.62831 0.38086,8.63281 0.12693,3.00461 0.1904,5.71294 0.19043,8.125 l 0,50.33691 -10.91797,0 0,-92.80273 13.52051,0 45.44922,76.42578 0.44433,0 c -0.12702,-3.21613 -0.27514,-6.38995 -0.44433,-9.52148 -0.0424,-1.35414 -0.10587,-2.72947 -0.19043,-4.12598 -0.0424,-1.43877 -0.10587,-2.85641 -0.19043,-4.25293 -0.0424,-1.43877 -0.0847,-2.81409 -0.12696,-4.12598 -7e-5,-1.31181 -7e-5,-2.51786 0,-3.61816 l 0,-50.78125 11.04492,0 0,92.80273"/>
                                <path gorn="0.3.0.0.0.0.13.0.2"  style="" id="path3150" d="m 662.94504,588.69305 c -8e-5,7.82882 -1.01571,14.70544 -3.04688,20.62989 -2.03132,5.88218 -4.9724,10.81219 -8.82324,14.79004 -3.85098,3.93555 -8.59055,6.89779 -14.21875,8.88671 -5.58599,1.98894 -11.93364,2.9834 -19.04297,2.9834 l -23.23242,0 0,-92.80273 25.83496,0 c 6.47457,9e-5 12.33556,0.9734 17.58301,2.91992 5.24733,1.9467 9.71185,4.84546 13.39355,8.69629 3.68157,3.80867 6.51685,8.54825 8.50586,14.21875 2.03117,5.67063 3.0468,12.22987 3.04688,19.67773 m -12.50488,0.38086 c -7e-5,-6.17833 -0.69831,-11.51035 -2.09473,-15.99609 -1.39655,-4.52793 -3.4278,-8.25188 -6.09375,-11.17188 -2.66607,-2.91984 -5.94569,-5.07804 -9.83887,-6.4746 -3.89327,-1.43872 -8.31547,-2.15812 -13.2666,-2.15821 l -12.75879,0 0,72.55371 10.2832,0 c 11.17183,1e-5 19.59305,-3.08918 25.26368,-9.26757 5.6705,-6.17836 8.50579,-15.34014 8.50586,-27.48536"/>
                            </g>
                        </g>
                        <rect width="300" x="1530" y="600" fill="none" gorn="0.3.0.0.0.0.14"  height="30" id="connector6pin" stroke-width="0"/>
                        <rect width="30" x="1830" y="600" fill="none" gorn="0.3.0.0.0.0.15"  height="30" id="connector6terminal" stroke-width="0"/>
                        <line fill="none" gorn="0.3.0.0.0.0.16"  stroke="#000000" style="stroke-linecap:round;stroke-linejoin:round" id="line2896" y1="915" x1="15" y2="915" stroke-width="30" x2="300"/>
                        <rect width="300" x="0" y="900" fill="none" gorn="0.3.0.0.0.0.17"  height="30" id="connector1pin" stroke-width="0"/>
                        <rect width="30" x="0" y="900" fill="none"  height="30" stroke-width="0"/>
                        <g fill="#000000" gorn="0.3.0.0.0.0.19"  stroke="none" style="text-align:start;line-height:125%;writing-mode:lr-tb;text-anchor:start;font-family:Droid Sans" id="label2" font-size="1444.44">
                            <g gorn="0.3.0.0.0.0.19.0"  style="" id="tspan3076">
                                <path gorn="0.3.0.0.0.0.19.0.0"  style="" id="path3153" d="m 470.99609,902.70996 c -8e-5,7.82882 -1.0157,14.70544 -3.04687,20.62988 -2.03133,5.88219 -4.9724,10.81219 -8.82324,14.79004 -3.85098,3.93556 -8.59056,6.89779 -14.21875,8.88672 C 439.32124,949.00553 432.97359,950 425.86426,950 l -23.23242,0 0,-92.80273 25.83496,0 c 6.47456,9e-5 12.33556,0.97339 17.583,2.91992 5.24734,1.9467 9.71185,4.84546 13.39356,8.69629 3.68157,3.80867 6.51685,8.54825 8.50586,14.21875 2.03117,5.67063 3.04679,12.22987 3.04687,19.67773 m -12.50488,0.38086 c -7e-5,-6.17833 -0.69831,-11.51036 -2.09473,-15.99609 -1.39655,-4.52793 -3.42779,-8.25189 -6.09375,-11.17188 -2.66607,-2.91984 -5.94569,-5.07804 -9.83886,-6.47461 -3.89328,-1.43872 -8.31547,-2.15812 -13.2666,-2.1582 l -12.75879,0 0,72.55371 10.2832,0 c 11.17183,10e-6 19.59304,-3.08918 25.26367,-9.26758 5.67051,-6.17836 8.50579,-15.34013 8.50586,-27.48535"/>
                                <path gorn="0.3.0.0.0.0.19.0.1"  style="" id="path3155" d="m 516.44531,950 -33.64258,0 0,-6.47461 10.91797,-2.60254 0,-74.64844 -10.91797,-2.60254 0,-6.4746 33.64258,0 0,6.4746 -10.91797,2.60254 0,74.64844 10.91797,2.60254 0,6.47461"/>
                                <path gorn="0.3.0.0.0.0.19.0.2"  style="" id="path3157" d="m 572.74902,950 -28.12011,-81.25 -0.50782,0 c 0.25389,3.13159 0.46548,6.24194 0.63477,9.33105 0.16925,2.66609 0.2962,5.48021 0.38086,8.44239 0.12693,2.91998 0.1904,5.58599 0.19043,7.99804 l 0,55.47852 -10.91797,0 0,-92.80273 17.51953,0 26.15234,75.66406 0.38086,0 26.2793,-75.66406 17.51953,0 0,92.80273 -11.80664,0 0,-56.30371 c -9e-5,-2.20046 0.0422,-4.71836 0.12695,-7.55371 0.0846,-2.83522 0.19035,-5.54355 0.31739,-8.125 0.16918,-3.00448 0.31729,-6.05136 0.44433,-9.14063 l -0.50781,0 L 582.46094,950 l -9.71192,0"/>
                            </g>
                        </g>
                        <line fill="none" gorn="0.3.0.0.0.0.20"  stroke="#000000" style="stroke-linecap:round;stroke-linejoin:round" id="line2901" y1="915" x1="1515" y2="915" stroke-width="30" x2="1815"/>
                        <rect width="300" x="1530" y="900" fill="none" gorn="0.3.0.0.0.0.21"  height="30" id="connector3pin" stroke-width="0"/>
                        <rect width="30" x="1830" y="900" fill="none" gorn="0.3.0.0.0.0.22"  height="30" id="connector5terminal" stroke-width="0"/>
                        <g fill="#000000" gorn="0.3.0.0.0.0.23"  stroke="none" style="text-align:end;line-height:125%;writing-mode:lr-tb;text-anchor:end;font-family:Droid Sans" id="label5" font-size="1444.44">
                            <g gorn="0.3.0.0.0.0.23.0"  style="" id="tspan3084">
                                <path gorn="0.3.0.0.0.0.23.0.0"  style="" id="path3127" d="m 1249.6338,866.27441 c -4.5281,9e-5 -8.6329,0.8676 -12.3145,2.60254 -3.6816,1.69279 -6.8343,4.14722 -9.458,7.36328 -2.5814,3.21622 -4.5915,7.1306 -6.0302,11.74317 -1.3966,4.61269 -2.0948,9.81776 -2.0948,15.61523 0,5.96684 0.6136,11.27771 1.8408,15.93262 1.2696,4.61266 3.1527,8.50588 5.6495,11.67969 2.4967,3.17384 5.607,5.58595 9.331,7.23633 3.7239,1.6504 8.0827,2.47559 13.0762,2.47558 3.7662,10e-6 7.3421,-0.35969 10.7275,-1.0791 3.3854,-0.76171 6.7285,-1.62922 10.0293,-2.60254 l 0,10.2832 c -1.6504,0.63477 -3.3008,1.20606 -4.9511,1.71387 -1.6505,0.4655 -3.3855,0.84636 -5.2051,1.14258 -1.7774,0.29622 -3.7029,0.50781 -5.7764,0.63476 -2.0313,0.16927 -4.2953,0.25391 -6.792,0.25391 -6.9401,0 -12.9492,-1.14258 -18.0273,-3.42773 -5.0782,-2.28515 -9.2888,-5.52246 -12.6319,-9.71192 -3.3008,-4.18943 -5.7552,-9.22524 -7.3632,-15.10742 -1.6081,-5.88213 -2.4122,-12.39905 -2.4122,-19.55078 0,-7.02469 0.9099,-13.45697 2.7295,-19.29688 1.862,-5.83977 4.5703,-10.85441 8.125,-15.04394 3.597,-4.18937 8.0404,-7.44783 13.3301,-9.77539 5.2897,-2.32738 11.3623,-3.49112 18.2178,-3.49121 4.5702,9e-5 8.929,0.46559 13.0762,1.39648 4.147,0.93108 7.8921,2.28525 11.2353,4.0625 l -4.9512,9.90235 c -2.666,-1.35409 -5.5648,-2.51783 -8.6962,-3.49122 -3.1316,-0.97322 -6.6863,-1.45987 -10.6641,-1.45996"/>
                                <path gorn="0.3.0.0.0.0.23.0.1"  style="" id="path3129" d="m 1339.2627,925.18066 c -10e-5,4.10484 -0.7406,7.78648 -2.2217,11.04493 -1.4388,3.21615 -3.5124,5.94564 -6.2207,8.18847 -2.7084,2.24284 -6.0091,3.95671 -9.9023,5.1416 -3.8933,1.14258 -8.2732,1.71387 -13.1397,1.71387 -4.6973,0 -9.0983,-0.38086 -13.2031,-1.14258 -4.0625,-0.7194 -7.4691,-1.7985 -10.2197,-3.2373 l 0,-11.29883 c 1.4388,0.6771 3.068,1.35418 4.8877,2.03125 1.8619,0.63478 3.8085,1.20607 5.8398,1.71387 2.0312,0.50782 4.126,0.931 6.2842,1.26953 2.1582,0.29623 4.2952,0.44434 6.4111,0.44433 6.7708,10e-6 11.7643,-1.26952 14.9805,-3.80859 3.2584,-2.53905 4.8876,-6.17837 4.8877,-10.91797 -10e-5,-2.28513 -0.3174,-4.27406 -0.9522,-5.96679 -0.5925,-1.69268 -1.6716,-3.23728 -3.2373,-4.63379 -1.5235,-1.43877 -3.5759,-2.81409 -6.1572,-4.12598 -2.5814,-1.35413 -5.8399,-2.81409 -9.7754,-4.37988 -3.7663,-1.48108 -7.0459,-3.08915 -9.8389,-4.82422 -2.7506,-1.7773 -5.0358,-3.76623 -6.8554,-5.9668 -1.7774,-2.20046 -3.1104,-4.69721 -3.999,-7.49023 -0.8464,-2.79291 -1.2696,-5.96673 -1.2696,-9.52149 0,-3.72388 0.6771,-7.04582 2.0313,-9.96582 1.3541,-2.91984 3.2584,-5.37426 5.7129,-7.36328 2.4544,-2.03116 5.3743,-3.57575 8.7597,-4.63379 3.4277,-1.05785 7.194,-1.58682 11.2989,-1.58691 5.0357,9e-5 9.5637,0.48675 13.5839,1.45996 4.0202,0.93108 7.596,2.13713 10.7276,3.61816 l -4.2529,9.90235 c -2.7508,-1.22714 -5.8823,-2.28508 -9.3946,-3.17383 -3.4701,-0.93091 -7.0671,-1.3964 -10.791,-1.39649 -5.1628,9e-5 -9.1618,1.20614 -11.9971,3.61817 -2.8353,2.36987 -4.2529,5.58601 -4.2529,9.64844 0,2.41217 0.3174,4.5069 0.9522,6.28418 0.6347,1.73508 1.6926,3.322 3.1738,4.76074 1.4811,1.39654 3.4277,2.72955 5.8398,3.99902 2.4544,1.22727 5.459,2.53912 9.0137,3.93555 3.8509,1.52349 7.2151,3.08924 10.0928,4.69726 2.9198,1.60812 5.3531,3.42778 7.2998,5.45899 1.9465,2.03129 3.4065,4.37992 4.3799,7.0459 1.0155,2.66604 1.5233,5.81871 1.5234,9.458"/>
                                <path gorn="0.3.0.0.0.0.23.0.2"  style="" id="path3131" d="m 1427.4316,950 -13.6474,0 -45.6397,-76.80664 -0.5078,0 c 0.2539,3.25854 0.4655,6.49584 0.6348,9.71191 0.1692,2.75072 0.2962,5.62832 0.3808,8.63282 0.127,3.00461 0.1904,5.71294 0.1905,8.125 l 0,50.33691 -10.918,0 0,-92.80273 13.5205,0 45.4492,76.42578 0.4444,0 c -0.1271,-3.21613 -0.2752,-6.38995 -0.4444,-9.52149 -0.042,-1.35414 -0.1058,-2.72946 -0.1904,-4.12597 -0.042,-1.43877 -0.1059,-2.85642 -0.1904,-4.25293 -0.042,-1.43877 -0.085,-2.81409 -0.127,-4.12598 -10e-5,-1.31181 -10e-5,-2.51786 0,-3.61816 l 0,-50.78125 11.0449,0 0,92.80273"/>
                            </g>
                        </g>
                        <rect width="300" x="0" y="1200" fill="none"  height="30" stroke-width="0"/>
                        <rect width="30" x="0" y="1200" fill="none" gorn="0.3.0.0.0.0.25"  height="30" id="connector3terminal" stroke-width="0"/>
                        <rect width="300" x="1530" y="1200" fill="none"  height="30" stroke-width="0"/>
                        <rect width="30" x="1830" y="1200" fill="none" gorn="0.3.0.0.0.0.27"  height="30" id="connector4terminal" stroke-width="0"/>
                        <g fill="#000000" gorn="0.3.0.0.0.0.28"  stroke="none" style="text-align:start;line-height:125%;writing-mode:lr-tb;text-anchor:start;font-family:Droid Sans" id="label0-1-2" font-size="1444.44">
                            <g gorn="0.3.0.0.0.0.28.0"  style="" id="tspan3194">
                                <path gorn="0.3.0.0.0.0.28.0.0"  style="" id="path3163" d="m 200.43517,580.89374 -57.89063,0 0,-9.90235 22.2168,-24.18457 c 3.17379,-3.42769 6.00908,-6.5592 8.50586,-9.39453 2.4967,-2.83524 4.61259,-5.60704 6.34765,-8.31543 1.7773,-2.70828 3.13147,-5.41661 4.0625,-8.125 0.93094,-2.75059 1.39644,-5.73398 1.39649,-8.95019 -5e-5,-2.49668 -0.35975,-4.69719 -1.0791,-6.60157 -0.71945,-1.90421 -1.75623,-3.51229 -3.11036,-4.82421 -1.31189,-1.35409 -2.87764,-2.36971 -4.69726,-3.04688 -1.8197,-0.677 -3.85095,-1.01554 -6.09375,-1.01562 -4.02021,8e-5 -7.65953,0.82528 -10.91797,2.47558 -3.21617,1.60816 -6.2842,3.68172 -9.2041,6.22071 l -6.47461,-7.55372 c 1.6927,-1.52335 3.51236,-2.94099 5.45898,-4.25293 1.9466,-1.35407 4.04133,-2.51781 6.28418,-3.49121 2.24282,-0.97321 4.61261,-1.73493 7.10938,-2.28515 2.49671,-0.59236 5.12041,-0.88858 7.87109,-0.88867 4.06246,9e-5 7.72294,0.57138 10.98145,1.71386 3.30073,1.14267 6.0937,2.79306 8.3789,4.95117 2.2851,2.11598 4.04129,4.71851 5.26856,7.80762 1.26947,3.04695 1.90423,6.49584 1.90429,10.34668 -6e-5,3.59707 -0.57134,7.0248 -1.71386,10.2832 -1.10032,3.25852 -2.64492,6.47467 -4.63379,9.64844 -1.94667,3.13156 -4.2953,6.28422 -7.0459,9.45801 -2.70838,3.17386 -5.64946,6.47464 -8.82324,9.90234 l -17.83692,18.9795 0,0.50781 43.73536,0 0,10.53711"/>
                            </g>
                        </g>
                        <g fill="#000000" gorn="0.3.0.0.0.0.29"  stroke="none" style="text-align:start;line-height:125%;writing-mode:lr-tb;text-anchor:start;font-family:Droid Sans" id="label0-0-3" font-size="1444.44">
                            <g gorn="0.3.0.0.0.0.29.0"  style="" id="tspan3192">
                                <path gorn="0.3.0.0.0.0.29.0.0"  style="" id="path3166" d="m 182.00578,281.26321 -11.17187,0 0,-57.9541 c -4e-5,-1.8196 -4e-5,-3.76621 0,-5.83984 0.0423,-2.0735 0.0846,-4.12591 0.12695,-6.15723 0.0846,-2.07349 0.14808,-4.04126 0.19043,-5.90332 0.0846,-1.90422 0.14808,-3.57576 0.19043,-5.01465 -0.71943,0.7618 -1.3542,1.41773 -1.9043,1.96778 -0.55016,0.55021 -1.12145,1.07918 -1.71386,1.58691 -0.55016,0.50789 -1.14261,1.05802 -1.77735,1.65039 -0.63479,0.55021 -1.39651,1.20613 -2.28515,1.96778 l -9.39453,7.68066 -6.09375,-7.80762 24.31152,-18.97949 9.52148,0 0,92.80273"/>
                            </g>
                        </g>
                        <g fill="#000000" gorn="0.3.0.0.0.0.30"  stroke="none" style="text-align:start;line-height:125%;writing-mode:lr-tb;text-anchor:start;font-family:Droid Sans" id="label0-5-1" font-size="1444.44">
                            <g gorn="0.3.0.0.0.0.30.0"  style="" id="tspan3196">
                                <path gorn="0.3.0.0.0.0.30.0.0"  style="" id="path3160" d="m 192.65071,806.84045 c -6e-5,3.08926 -0.48671,5.90339 -1.45996,8.44239 -0.97337,2.53912 -2.34869,4.73964 -4.12598,6.60156 -1.73508,1.86203 -3.8298,3.40663 -6.28418,4.63379 -2.45447,1.18494 -5.18396,2.0313 -8.18847,2.53906 l 0,0.38086 c 7.49018,0.93104 13.18191,3.32199 17.07519,7.17285 3.89317,3.80863 5.83978,8.78096 5.83985,14.91699 -7e-5,4.06253 -0.69831,7.78648 -2.09473,11.17188 -1.35423,3.38543 -3.42779,6.30535 -6.2207,8.75976 -2.79302,2.45444 -6.32655,4.35873 -10.60059,5.7129 -4.27413,1.35416 -9.33109,2.03124 -15.1709,2.03125 -4.61265,-1e-5 -8.97137,-0.35971 -13.07617,-1.07911 -4.06251,-0.7194 -7.89226,-2.03124 -11.48926,-3.93554 l 0,-10.79102 c 3.68163,1.94663 7.65949,3.44891 11.9336,4.50684 4.31638,1.05795 8.44235,1.58692 12.37793,1.58691 3.89319,1e-5 7.25745,-0.42317 10.09277,-1.26953 2.83524,-0.84634 5.16272,-2.0524 6.98242,-3.61816 1.86193,-1.56574 3.2161,-3.4912 4.0625,-5.77637 0.88862,-2.28514 1.33296,-4.84535 1.33301,-7.68067 -5e-5,-2.87757 -0.57134,-5.33199 -1.71387,-7.36328 -1.10031,-2.07353 -2.68722,-3.76623 -4.76074,-5.07812 -2.07361,-1.35413 -4.61267,-2.34859 -7.61719,-2.9834 -2.96227,-0.63472 -6.32653,-0.95211 -10.09277,-0.95215 l -8.44238,0 0,-9.58496 8.44238,0 c 3.4277,5e-5 6.47457,-0.42312 9.14062,-1.26953 2.66598,-0.8463 4.88766,-2.05235 6.66504,-3.61816 1.81962,-1.5657 3.19494,-3.42768 4.12598,-5.58594 0.93094,-2.15814 1.39643,-4.52793 1.39648,-7.10938 -5e-5,-2.20045 -0.3809,-4.16822 -1.14257,-5.90332 -0.76177,-1.73495 -1.84087,-3.19491 -3.23731,-4.37988 -1.39653,-1.22713 -3.06807,-2.15812 -5.01465,-2.79297 -1.94665,-0.63468 -4.10485,-0.95206 -6.47461,-0.95215 -4.52802,9e-5 -8.52704,0.71949 -11.99707,2.15821 -3.42775,1.39656 -6.70737,3.23738 -9.83886,5.52246 l -5.83985,-7.93457 c 1.60807,-1.31177 3.38541,-2.53898 5.33203,-3.68164 1.98892,-1.14249 4.14712,-2.13696 6.47461,-2.9834 2.32746,-0.88858 4.80304,-1.58682 7.42676,-2.09473 2.66599,-0.50772 5.48011,-0.76162 8.44238,-0.76172 4.57028,10e-5 8.5693,0.57138 11.99707,1.71387 3.47001,1.14267 6.36877,2.75074 8.69629,4.82422 2.32742,2.03133 4.0836,4.4646 5.26856,7.2998 1.18483,2.79305 1.77728,5.86108 1.77734,9.2041"/>
                            </g>
                        </g>
                        <g fill="#000000" gorn="0.3.0.0.0.0.31"  stroke="none" style="text-align:start;line-height:125%;writing-mode:lr-tb;text-anchor:start;font-family:Droid Sans" id="label0-4-3" font-size="1444.44">
                            <g gorn="0.3.0.0.0.0.31.0"  style="" id="tspan3202">
                                <path gorn="0.3.0.0.0.0.31.0.0"  style="" id="path3124" d="m 1705.2695,852.41565 -13.5205,0 0,20.82031 -11.1719,0 0,-20.82031 -42.8466,0 0,-10.09277 42.0849,-62.39746 11.9336,0 0,61.95312 13.5205,0 0,10.53711 m -24.6924,-10.53711 0,-22.59766 c 0,-2.36973 0.021,-4.84532 0.063,-7.42675 0.085,-2.62364 0.1693,-5.1627 0.2539,-7.61719 0.085,-2.49667 0.1693,-4.82415 0.2539,-6.98242 0.1269,-2.15813 0.2116,-3.95663 0.2539,-5.39551 l -0.5712,0 c -0.2963,0.84643 -0.6772,1.79858 -1.1426,2.85644 -0.4232,1.01571 -0.9099,2.05249 -1.46,3.11036 -0.5078,1.0157 -1.0368,2.01016 -1.5869,2.98339 -0.5502,0.97338 -1.058,1.79858 -1.5234,2.47559 l -26.0889,38.59375 31.5478,0"/>
                            </g>
                        </g>
                        <g fill="#000000" gorn="0.3.0.0.0.0.32"  stroke="none" style="text-align:start;line-height:125%;writing-mode:lr-tb;text-anchor:start;font-family:Droid Sans" id="label0-2-9-0" font-size="1444.44">
                            <g gorn="0.3.0.0.0.0.32.0"  style="" id="tspan5085">
                                <path gorn="0.3.0.0.0.0.32.0.0"  style="" id="path3121" d="m 1670.9449,222.37561 c 4.1895,6e-5 8.0827,0.5925 11.6797,1.77734 3.6393,1.14264 6.792,2.8565 9.458,5.14161 2.7083,2.2852 4.8242,5.12048 6.3477,8.50586 1.5234,3.38545 2.2851,7.29983 2.2852,11.74316 -10e-5,4.82424 -0.7195,9.1618 -2.1582,13.01269 -1.4389,3.85093 -3.576,7.10939 -6.4112,9.7754 -2.8353,2.66601 -6.3477,4.71842 -10.5371,6.15722 -4.1472,1.39649 -8.9291,2.09473 -14.3457,2.09473 -2.1582,0 -4.2953,-0.1058 -6.4111,-0.31738 -2.0736,-0.21159 -4.0837,-0.52898 -6.0303,-0.95215 -1.9043,-0.38086 -3.724,-0.88867 -5.459,-1.52344 -1.735,-0.63476 -3.3008,-1.37532 -4.6973,-2.22168 l 0,-10.91797 c 1.3965,0.97332 3.0258,1.84083 4.8877,2.60254 1.9043,0.76173 3.8933,1.3965 5.9668,1.9043 2.0736,0.50782 4.1472,0.90984 6.2207,1.20605 2.1159,0.25392 4.0625,0.38087 5.8399,0.38086 3.3431,10e-6 6.3264,-0.38085 8.9502,-1.14258 2.6236,-0.80402 4.8453,-2.03124 6.665,-3.68164 1.8196,-1.65037 3.2161,-3.72394 4.1895,-6.2207 0.9732,-2.49672 1.4599,-5.45896 1.4599,-8.88672 0,-6.0514 -1.862,-10.66402 -5.5859,-13.83789 -3.724,-3.2161 -9.1407,-4.82417 -16.25,-4.82422 -1.1426,5e-5 -2.391,0.0635 -3.7451,0.19043 -1.3119,0.0847 -2.6449,0.21164 -3.999,0.38086 -1.3119,0.16932 -2.5814,0.35975 -3.8086,0.57129 -1.1849,0.16932 -2.2217,0.33859 -3.1104,0.50781 l -5.7129,-3.61816 3.4912,-43.67188 43.7989,0 0,10.53711 -33.7696,0 -2.4756,26.59668 c 1.3542,-0.25385 3.1315,-0.52891 5.3321,-0.82519 2.2428,-0.29617 4.8876,-0.44428 7.9345,-0.44434"/>
                            </g>
                        </g>
                    </g>
                </g>
            </g>
        </g>
    </g>
</svg>
