<?xml version='1.0' encoding='utf-8'?>
<!-- Generator: Adobe Illustrator 13.0.0, SVG Export Plug-In . SVG Version: 6.00 Build 14948)  -->
<svg width="0.826in" x="0px" version="1.2" y="0px" xmlns="http://www.w3.org/2000/svg" height="0.378in" baseProfile="tiny" xmlns:xlink="http://www.w3.org/1999/xlink" id="svg2" xml:space="preserve">
 <rect width="10" x="63.448" y="0.13" height="2" id="connector0pin"/>
 <rect width="10" x="63.448" y="32.131" height="2" id="connector1pin"/>
 <rect width="10" x="0.731" y="0.134" height="2" id="connector2pin"/>
 <rect width="10" x="0.731" y="32.135" height="2" id="connector3pin"/>
 <rect width="0.684" x="73.34" y="0.663" height="0.866" id="connector0terminal"/>
 <rect width="0.684" x="73.34" y="32.664" height="0.866" id="connector1terminal"/>
 <rect width="0.688" x="0.221" y="0.666" height="0.866" id="connector2terminal"/>
 <rect width="0.688" x="0.221" y="32.666" height="0.866" id="connector3terminal"/>
 <g id="schematic">
  <path fill="none" stroke="#000000" stroke-linecap="round" stroke-width="2" d="M7.131,17.116"/>
  <path fill="none" stroke="#000000" stroke-linecap="round" stroke-width="2" d="M25.034,17.116"/>
  <polyline fill="none" points="73.298,1.116 60.241,1.116 60.241,33.116 73.298,33.116 " stroke="#000000" stroke-linejoin="round" stroke-linecap="round" stroke-width="2"/>
  <line fill="none" stroke="#000000" stroke-linecap="round" y1="17.116" stroke-width="2" x1="49.241" y2="17.116" x2="60.241"/>
  <polyline fill="none" points="0.978,33.116 14.034,33.116 14.034,1.116 0.978,1.116 " stroke="#000000" stroke-linejoin="round" stroke-linecap="round" stroke-width="2"/>
  <polyline fill="none" points="47.745,7.538 25.034,17.116 14.034,17.116 " stroke="#000000" stroke-linecap="round" stroke-width="2"/>
 </g>
 <rect width="5" x="34.47727272727272" y="0.6022727272727479" fill="none" height="5" id="connector4"/>
 <rect width="5" x="34.47727272727275" y="29.19318181818178" fill="none" height="5" id="connector5"/>
</svg>
