<?xml version='1.0' encoding='utf-8'?>
<!DOCTYPE svg>
<!-- Generator: Adobe Illustrator 16.0.4, SVG Export Plug-In . SVG Version: 6.00 Build 0)  -->
<svg xmlns="http://www.w3.org/2000/svg"  width="2.69081in" xml:space="preserve" xmlns:xml="http://www.w3.org/XML/1998/namespace" x="0px" version="1.1" y="0px" height="5.64356in" viewBox="0 0 193.738 406.336" id="0" enable-background="new 0 0 193.738 406.336">
 <desc   id="0.0" oldid="0.0">
  <referenceFile   id="0.0.0" oldid="0.0.0">RedFly_Shield_v1_3_schematic.svg</referenceFile>
 </desc>
 <desc   id="0.1" oldid="0.1">Fritzing schematic generated by brd2svg</desc>
 <g   id="schematic">
  <rect  width="148.819" x="22.46" y="22.46" fill="none"  height="361.417" stroke="#000000" stroke-linejoin="round" stroke-linecap="round" id="0.2.0" stroke-width="2.4"/>
  <text  font-family="DroidSans"  id="label" transform="matrix(1 0 0 1 64.4116 64.98)" font-size="18">Arduino</text>
  <text  font-family="DroidSans"  id="label_1_" transform="matrix(1 0 0 1 75.4375 86.2397)" font-size="18">WiFly</text>
  <text  font-family="DroidSans"  id="label_2_" transform="matrix(1 0 0 1 72.1504 107.4995)" font-size="18">Shield</text>
  <line  fill="none"  stroke="#000000" stroke-linejoin="round" stroke-linecap="round" id="0.2.4" y1="64.979" stroke-width="2.4" x1="1.2" y2="64.979" x2="21.26"/>
  <rect  width="21.26" y="63.779" fill="none"  height="2.4" id="connector78pin"/>
  <rect  width="2.4" y="63.779" fill="none"  height="2.4" id="connector78terminal"/>
  <text  font-family="DroidSans"  id="label78" transform="matrix(1 0 0 1 27.7402 67.3804)" font-size="9.936">RES</text>
  <line  fill="none"  stroke="#000000" stroke-linejoin="round" stroke-linecap="round" id="0.2.8" y1="86.239" stroke-width="2.4" x1="1.2" y2="86.239" x2="21.26"/>
  <rect  width="21.26" y="85.039" fill="none"  height="2.4" id="connector62pin"/>
  <rect  width="2.4" y="85.039" fill="none"  height="2.4" id="connector62terminal"/>
  <text  font-family="DroidSans"  id="label62" transform="matrix(1 0 0 1 27.7402 88.6401)" font-size="9.936">AREF</text>
  <line  fill="none"  stroke="#000000" stroke-linejoin="round" stroke-linecap="round" id="0.2.12" y1="128.759" stroke-width="2.4" x1="1.2" y2="128.759" x2="21.26"/>
  <rect  width="21.26" y="127.559" fill="none"  height="2.4" id="connector56pin"/>
  <rect  width="2.4" y="127.559" fill="none"  height="2.4" id="connector56terminal"/>
  <text  font-family="DroidSans"  id="label56" transform="matrix(1 0 0 1 27.7402 131.1597)" font-size="9.936">A0</text>
  <line  fill="none"  stroke="#000000" stroke-linejoin="round" stroke-linecap="round" id="0.2.16" y1="150.019" stroke-width="2.4" x1="1.2" y2="150.019" x2="21.26"/>
  <rect  width="21.26" y="148.819" fill="none"  height="2.4" id="connector57pin"/>
  <rect  width="2.4" y="148.819" fill="none"  height="2.4" id="connector57terminal"/>
  <text  font-family="DroidSans"  id="label57" transform="matrix(1 0 0 1 27.7402 152.4194)" font-size="9.936">A1</text>
  <line  fill="none"  stroke="#000000" stroke-linejoin="round" stroke-linecap="round" id="0.2.20" y1="171.279" stroke-width="2.4" x1="1.2" y2="171.279" x2="21.26"/>
  <rect  width="21.26" y="170.078" fill="none"  height="2.4" id="connector58pin"/>
  <rect  width="2.4" y="170.078" fill="none"  height="2.4" id="connector58terminal"/>
  <text  font-family="DroidSans"  id="label58" transform="matrix(1 0 0 1 27.7402 173.6782)" font-size="9.936">A2</text>
  <line  fill="none"  stroke="#000000" stroke-linejoin="round" stroke-linecap="round" id="0.2.24" y1="192.539" stroke-width="2.4" x1="1.2" y2="192.539" x2="21.26"/>
  <rect  width="21.26" y="191.339" fill="none"  height="2.4" id="connector59pin"/>
  <rect  width="2.4" y="191.339" fill="none"  height="2.4" id="connector59terminal"/>
  <text  font-family="DroidSans"  id="label59" transform="matrix(1 0 0 1 27.7402 194.9399)" font-size="9.936">A3</text>
  <line  fill="none"  stroke="#000000" stroke-linejoin="round" stroke-linecap="round" id="0.2.28" y1="213.797" stroke-width="2.4" x1="1.2" y2="213.797" x2="21.26"/>
  <rect  width="21.26" y="212.599" fill="none"  height="2.399" id="connector60pin"/>
  <rect  width="2.4" y="212.599" fill="none"  height="2.399" id="connector60terminal"/>
  <text  font-family="DroidSans"  id="label60" transform="matrix(1 0 0 1 27.7402 216.1997)" font-size="9.936">A4</text>
  <line  fill="none"  stroke="#000000" stroke-linejoin="round" stroke-linecap="round" id="0.2.32" y1="235.058" stroke-width="2.4" x1="1.2" y2="235.058" x2="21.26"/>
  <rect  width="21.26" y="233.858" fill="none"  height="2.4" id="connector61pin"/>
  <rect  width="2.4" y="233.858" fill="none"  height="2.4" id="connector61terminal"/>
  <text  font-family="DroidSans"  id="label61" transform="matrix(1 0 0 1 27.7402 237.4585)" font-size="9.936">A5</text>
  <line  fill="none"  stroke="#000000" stroke-linejoin="round" stroke-linecap="round" id="0.2.36" y1="64.979" stroke-width="2.4" x1="171.279" y2="64.979" x2="192.539"/>
  <rect  width="21.261" x="172.479" y="63.779" fill="none"  height="2.4" id="connector74pin"/>
  <rect  width="2.399" x="191.34" y="63.779" fill="none"  height="2.4" id="connector74terminal"/>
  <text  font-family="DroidSans"  id="label74" transform="matrix(1 0 0 1 144.2158 67.3804)" font-size="9.936">SCLK</text>
  <line  fill="none"  stroke="#000000" stroke-linejoin="round" stroke-linecap="round" id="0.2.40" y1="86.239" stroke-width="2.4" x1="171.279" y2="86.239" x2="192.539"/>
  <rect  width="21.261" x="172.479" y="85.039" fill="none"  height="2.4" id="connector73pin"/>
  <rect  width="2.399" x="191.34" y="85.039" fill="none"  height="2.4" id="connector73terminal"/>
  <text  font-family="DroidSans"  id="label73" transform="matrix(1 0 0 1 141.4551 88.6401)" font-size="9.936">MISO</text>
  <line  fill="none"  stroke="#000000" stroke-linejoin="round" stroke-linecap="round" id="0.2.44" y1="107.499" stroke-width="2.4" x1="171.279" y2="107.499" x2="192.539"/>
  <rect  width="21.261" x="172.479" y="106.299" fill="none"  height="2.4" id="connector72pin"/>
  <rect  width="2.399" x="191.34" y="106.299" fill="none"  height="2.4" id="connector72terminal"/>
  <text  font-family="DroidSans"  id="label72" transform="matrix(1 0 0 1 141.4551 109.8999)" font-size="9.936">MOSI</text>
  <line  fill="none"  stroke="#000000" stroke-linejoin="round" stroke-linecap="round" id="0.2.48" y1="128.759" stroke-width="2.4" x1="171.279" y2="128.759" x2="192.539"/>
  <rect  width="21.261" x="172.479" y="127.559" fill="none"  height="2.4" id="connector71pin"/>
  <rect  width="2.399" x="191.34" y="127.559" fill="none"  height="2.4" id="connector71terminal"/>
  <text  font-family="DroidSans"  id="label71" transform="matrix(1 0 0 1 154.8496 131.1597)" font-size="9.936">CS</text>
  <line  fill="none"  stroke="#000000" stroke-linejoin="round" stroke-linecap="round" id="0.2.52" y1="150.019" stroke-width="2.4" x1="171.279" y2="150.019" x2="192.539"/>
  <rect  width="21.261" x="172.479" y="148.819" fill="none"  height="2.4" id="connector70pin"/>
  <rect  width="2.399" x="191.34" y="148.819" fill="none"  height="2.4" id="connector70terminal"/>
  <text  font-family="DroidSans"  id="label70" transform="matrix(1 0 0 1 153.7295 152.4194)" font-size="9.936">D9</text>
  <line  fill="none"  stroke="#000000" stroke-linejoin="round" stroke-linecap="round" id="0.2.56" y1="171.279" stroke-width="2.4" x1="171.279" y2="171.279" x2="192.539"/>
  <rect  width="21.261" x="172.479" y="170.078" fill="none"  height="2.4" id="connector69pin"/>
  <rect  width="2.399" x="191.34" y="170.078" fill="none"  height="2.4" id="connector69terminal"/>
  <text  font-family="DroidSans"  id="label69" transform="matrix(1 0 0 1 153.7295 173.6782)" font-size="9.936">D8</text>
  <line  fill="none"  stroke="#000000" stroke-linejoin="round" stroke-linecap="round" id="0.2.60" y1="192.539" stroke-width="2.4" x1="171.279" y2="192.539" x2="192.539"/>
  <rect  width="21.261" x="172.479" y="191.339" fill="none"  height="2.4" id="connector68pin"/>
  <rect  width="2.399" x="191.34" y="191.339" fill="none"  height="2.4" id="connector68terminal"/>
  <text  font-family="DroidSans"  id="label68" transform="matrix(1 0 0 1 153.7295 194.9399)" font-size="9.936">D7</text>
  <line  fill="none"  stroke="#000000" stroke-linejoin="round" stroke-linecap="round" id="0.2.64" y1="213.797" stroke-width="2.4" x1="171.279" y2="213.797" x2="192.539"/>
  <rect  width="21.261" x="172.479" y="212.599" fill="none"  height="2.399" id="connector67pin"/>
  <rect  width="2.399" x="191.34" y="212.599" fill="none"  height="2.399" id="connector67terminal"/>
  <text  font-family="DroidSans"  id="label67" transform="matrix(1 0 0 1 153.7295 216.1997)" font-size="9.936">D6</text>
  <line  fill="none"  stroke="#000000" stroke-linejoin="round" stroke-linecap="round" id="0.2.68" y1="235.058" stroke-width="2.4" x1="171.279" y2="235.058" x2="192.539"/>
  <rect  width="21.261" x="172.479" y="233.858" fill="none"  height="2.4" id="connector66pin"/>
  <rect  width="2.399" x="191.34" y="233.858" fill="none"  height="2.4" id="connector66terminal"/>
  <text  font-family="DroidSans"  id="label66" transform="matrix(1 0 0 1 153.7295 237.4585)" font-size="9.936">D5</text>
  <line  fill="none"  stroke="#000000" stroke-linejoin="round" stroke-linecap="round" id="0.2.72" y1="256.318" stroke-width="2.4" x1="171.279" y2="256.318" x2="192.539"/>
  <rect  width="21.261" x="172.479" y="255.118" fill="none"  height="2.4" id="connector65pin"/>
  <rect  width="2.399" x="191.34" y="255.118" fill="none"  height="2.4" id="connector65terminal"/>
  <text  font-family="DroidSans"  id="label65" transform="matrix(1 0 0 1 153.7295 258.7183)" font-size="9.936">D4</text>
  <line  fill="none"  stroke="#000000" stroke-linejoin="round" stroke-linecap="round" id="0.2.76" y1="277.579" stroke-width="2.4" x1="171.279" y2="277.579" x2="192.539"/>
  <rect  width="21.261" x="172.479" y="276.377" fill="none"  height="2.4" id="connector64pin"/>
  <rect  width="2.399" x="191.34" y="276.377" fill="none"  height="2.4" id="connector64terminal"/>
  <text  font-family="DroidSans"  id="label64" transform="matrix(1 0 0 1 153.7295 279.978)" font-size="9.936">D3</text>
  <line  fill="none"  stroke="#000000" stroke-linejoin="round" stroke-linecap="round" id="0.2.80" y1="298.836" stroke-width="2.4" x1="171.279" y2="298.836" x2="192.539"/>
  <rect  width="21.261" x="172.479" y="297.638" fill="none"  height="2.399" id="connector63pin"/>
  <rect  width="2.399" x="191.34" y="297.638" fill="none"  height="2.399" id="connector63terminal"/>
  <text  font-family="DroidSans"  id="label63" transform="matrix(1 0 0 1 153.7295 301.2388)" font-size="9.936">D2</text>
  <line  fill="none"  stroke="#000000" stroke-linejoin="round" stroke-linecap="round" id="0.2.84" y1="320.098" stroke-width="2.4" x1="171.279" y2="320.098" x2="192.539"/>
  <rect  width="21.261" x="172.479" y="318.897" fill="none"  height="2.4" id="connector80pin"/>
  <rect  width="2.399" x="191.34" y="318.897" fill="none"  height="2.4" id="connector80terminal"/>
  <text  font-family="DroidSans"  id="label80" transform="matrix(1 0 0 1 155.4082 322.4976)" font-size="9.936">TX</text>
  <line  fill="none"  stroke="#000000" stroke-linejoin="round" stroke-linecap="round" id="0.2.88" y1="341.358" stroke-width="2.4" x1="171.279" y2="341.358" x2="192.539"/>
  <rect  width="21.261" x="172.479" y="340.159" fill="none"  height="2.398" id="connector79pin"/>
  <rect  width="2.399" x="191.34" y="340.159" fill="none"  height="2.398" id="connector79terminal"/>
  <text  font-family="DroidSans"  id="label79" transform="matrix(1 0 0 1 154.7051 343.7583)" font-size="9.936">RX</text>
  <line  fill="none"  stroke="#000000" stroke-linejoin="round" stroke-linecap="round" id="0.2.92" y1="1.2" stroke-width="2.4" x1="64.979" y2="21.26" x2="64.979"/>
  <rect  width="2.4" x="63.78" fill="none"  height="21.26" id="connector54pin"/>
  <polygon  fill="none" points="63.78,0 66.18,0 66.18,0 "  id="connector54terminal"/>
  <text  font-family="DroidSans"  id="label54" transform="matrix(1 0 0 1 58.1753 33.8608)" font-size="9.936">3.3</text>
  <line  fill="none"  stroke="#000000" stroke-linejoin="round" stroke-linecap="round" id="0.2.96" y1="1.2" stroke-width="2.4" x1="86.24" y2="21.26" x2="86.24"/>
  <rect  width="2.4" x="85.04" fill="none"  height="21.26" id="connector55pin"/>
  <polygon  fill="none" points="85.04,0 87.439,0 87.439,0 "  id="connector55terminal"/>
  <text  font-family="DroidSans"  id="label55" transform="matrix(1 0 0 1 80.6821 33.8608)" font-size="9.936">5V</text>
  <line  fill="none"  stroke="#000000" stroke-linejoin="round" stroke-linecap="round" id="0.2.100" y1="1.2" stroke-width="2.4" x1="107.499" y2="21.26" x2="107.499"/>
  <rect  width="2.4" x="106.299" fill="none"  height="21.26" id="connector81pin"/>
  <polygon  fill="none" points="106.299,0 108.699,0 108.699,0 "  id="connector81terminal"/>
  <text  font-family="DroidSans"  id="label81" transform="matrix(1 0 0 1 99.373 33.8608)" font-size="9.936">VIN</text>
  <line  fill="none"  stroke="#000000" stroke-linejoin="round" stroke-linecap="round" id="0.2.104" y1="385.077" stroke-width="2.4" x1="96.87" y2="405.137" x2="96.87"/>
  <rect  width="2.4" x="95.669" y="385.077" fill="none"  height="21.26" id="connector75pin"/>
  <polygon  fill="none" points="95.669,406.336 98.069,406.336 98.069,406.336 "  id="connector75terminal"/>
  <text  font-family="DroidSans"  id="label75" transform="matrix(1 0 0 1 86.4219 379.3179)" font-size="9.936">GND</text>
  <rect  width="2.4" x="95.669" y="385.077" fill="none"  height="21.26" id="connector76pin"/>
  <polygon  fill="none" points="95.669,406.336 98.069,406.336 98.069,406.336 "  id="connector76terminal"/>
  <rect  width="2.4" x="95.669" y="385.077" fill="none"  height="21.26" id="connector77pin"/>
  <polygon  fill="none" points="95.669,406.336 98.069,406.336 98.069,406.336 "  id="connector77terminal"/>
  <line  fill="none"  stroke="#000000" stroke-linejoin="round" stroke-linecap="round" id="0.2.112" y1="277.578" stroke-width="2.4" x1="1.2" y2="277.578" x2="21.26"/>
  <rect  width="21.26" y="276.377" fill="none"  height="2.4" id="connector156pin"/>
  <rect  width="2.4" y="276.377" fill="none"  height="2.4" id="0.2.114"/>
  <text  font-family="DroidSans"  id="label82" transform="matrix(1 0 0 1 27.7402 279.979)" font-size="9.936">IOREF</text>
  <line  fill="none"  stroke="#000000" stroke-linejoin="round" stroke-linecap="round" id="0.2.116" y1="298.837" stroke-width="2.4" x1="1.2" y2="298.837" x2="21.26"/>
  <rect  width="21.26" y="297.637" fill="none"  height="2.4" id="connector157pin"/>
  <rect  width="2.4" y="297.637" fill="none"  height="2.4" id="0.2.118"/>
  <line  fill="none"  stroke="#000000" stroke-linejoin="round" stroke-linecap="round" id="0.2.119" y1="320.097" stroke-width="2.4" x1="1.2" y2="320.097" x2="21.26"/>
  <rect  width="21.26" y="318.897" fill="none"  height="2.4" id="connector158pin"/>
  <rect  width="2.4" y="318.897" fill="none"  height="2.4" id="0.2.121"/>
  <text  font-family="DroidSans"  id="label84" transform="matrix(1 0 0 1 27.7402 322.4985)" font-size="9.936">SDA</text>
  <line  fill="none"  stroke="#000000" stroke-linejoin="round" stroke-linecap="round" id="0.2.123" y1="341.357" stroke-width="2.4" x1="1.2" y2="341.357" x2="21.26"/>
  <rect  width="21.26" y="340.157" fill="none"  height="2.4" id="connector159pin"/>
  <rect  width="2.4" y="340.157" fill="none"  height="2.4" id="0.2.125"/>
  <text  font-family="DroidSans"  id="label85" transform="matrix(1 0 0 1 27.7402 343.7583)" font-size="9.936">SCL</text>
 </g>
</svg>
