<?xml version="1.0" encoding="utf-8"?>
<!-- Generator: Adobe Illustrator 16.0.0, SVG Export Plug-In . SVG Version: 6.00 Build 0)  -->
<!DOCTYPE svg PUBLIC "-//W3C//DTD SVG 1.1//EN" "http://www.w3.org/Graphics/SVG/1.1/DTD/svg11.dtd">
<svg version="1.1" id="Layer_1" xmlns:svg="http://www.w3.org/2000/svg"
	 xmlns="http://www.w3.org/2000/svg" xmlns:xlink="http://www.w3.org/1999/xlink" x="0px" y="0px" width="29.832px"
	 height="58.759px" viewBox="0 0 29.832 58.759" enable-background="new 0 0 29.832 58.759" xml:space="preserve">
<g id="schematic">
	<rect x="0.576" y="0.592" fill="#FFFFFF" width="21.6" height="57.6"/>
	<text id="label" x="3.593" y="27.1252" font-family="'DroidSans'" font-size="4.25">MIRF</text>
	<line fill="none" stroke="#000000" stroke-width="0.9" stroke-linecap="round" x1="0.576" y1="58.192" x2="22.176" y2="58.192"/>
	<line fill="none" stroke="#000000" stroke-width="0.9" stroke-linecap="round" x1="22.176" y1="58.192" x2="22.176" y2="0.592"/>
	<line fill="none" stroke="#000000" stroke-width="0.9" stroke-linecap="round" x1="22.176" y1="0.592" x2="0.576" y2="0.592"/>
	<line fill="none" stroke="#000000" stroke-width="0.9" stroke-linecap="round" x1="0.576" y1="0.592" x2="0.576" y2="58.192"/>
	<text x="13.4436" y="9.592" fill="#505050" font-family="'DroidSans'" font-size="3.7417">3.3V</text>
	<text x="16.4631" y="16.7913" fill="#505050" font-family="'DroidSans'" font-size="3.7417">CE</text>
	<text x="16.4963" y="23.9924" fill="#505050" font-family="'DroidSans'" font-size="3.7417">CS</text>
	<text x="13.8669" y="31.1917" fill="#505050" font-family="'DroidSans'" font-size="3.7417">DR1</text>
	<text x="12.3723" y="38.3909" fill="#505050" font-family="'DroidSans'" font-size="3.7417">CLK1</text>
	<text x="12.1282" y="45.592" fill="#505050" font-family="'DroidSans'" font-size="3.7417">DATA</text>
	<text x="12.8254" y="52.7913" fill="#505050" font-family="'DroidSans'" font-size="3.7417">GND</text>
	
		<line id="connector6pin" fill="none" stroke="#787878" stroke-width="0.75" stroke-linecap="round" x1="22.176" y1="7.792" x2="29.376" y2="7.792"/>
	<rect id="connector6terminal" x="29.393" y="7.792" fill="none" width="0.001" height="0"/>
	<text x="25.0867" y="6.7424" fill="#8C8C8C" font-family="'DroidSans'" font-size="2.5">7</text>
	
		<line id="connector5pin" fill="none" stroke="#787878" stroke-width="0.75" stroke-linecap="round" x1="22.176" y1="14.991" x2="29.376" y2="14.991"/>
	<rect id="connector5terminal" x="29.393" y="14.991" fill="none" width="0.001" height="0.001"/>
	<text x="25.0867" y="13.9417" fill="#8C8C8C" font-family="'DroidSans'" font-size="2.5">6</text>
	
		<line id="connector4pin" fill="none" stroke="#787878" stroke-width="0.75" stroke-linecap="round" x1="22.176" y1="22.192" x2="29.376" y2="22.192"/>
	<rect id="connector4terminal" x="29.393" y="22.192" fill="none" width="0.001" height="0"/>
	<text x="25.0867" y="21.1409" fill="#8C8C8C" font-family="'DroidSans'" font-size="2.5">5</text>
	
		<line id="connector3pin" fill="none" stroke="#787878" stroke-width="0.75" stroke-linecap="round" x1="22.176" y1="29.392" x2="29.376" y2="29.392"/>
	<rect id="connector3terminal" x="29.393" y="29.392" fill="none" width="0.001" height="0"/>
	<text x="25.0867" y="28.342" fill="#8C8C8C" font-family="'DroidSans'" font-size="2.5">4</text>
	
		<line id="connector2pin" fill="none" stroke="#787878" stroke-width="0.75" stroke-linecap="round" x1="22.176" y1="36.592" x2="29.376" y2="36.592"/>
	<rect id="connector2terminal" x="29.393" y="36.592" fill="none" width="0.001" height="0"/>
	<text x="25.0867" y="35.5413" fill="#8C8C8C" font-family="'DroidSans'" font-size="2.5">3</text>
	
		<line id="connector1pin" fill="none" stroke="#787878" stroke-width="0.75" stroke-linecap="round" x1="22.176" y1="43.792" x2="29.376" y2="43.792"/>
	<rect id="connector1terminal" x="29.393" y="43.792" fill="none" width="0.001" height="0"/>
	<text x="25.0867" y="42.7424" fill="#8C8C8C" font-family="'DroidSans'" font-size="2.5">2</text>
	
		<line id="connector0pin" fill="none" stroke="#787878" stroke-width="0.75" stroke-linecap="round" x1="22.176" y1="50.991" x2="29.376" y2="50.991"/>
	<rect id="connector0terminal" x="29.393" y="50.991" fill="none" width="0.001" height="0.001"/>
	<text x="25.0867" y="49.9417" fill="#8C8C8C" font-family="'DroidSans'" font-size="2.5">1</text>
</g>
</svg>
