<?xml version="1.0" encoding="utf-8"?>
<!-- Generator: Adobe Illustrator 16.0.0, SVG Export Plug-In . SVG Version: 6.00 Build 0)  -->
<!DOCTYPE svg PUBLIC "-//W3C//DTD SVG 1.1//EN" "http://www.w3.org/Graphics/SVG/1.1/DTD/svg11.dtd">
<svg version="1.1" id="Layer_1" xmlns:svg="http://www.w3.org/2000/svg"
	 xmlns="http://www.w3.org/2000/svg" xmlns:xlink="http://www.w3.org/1999/xlink" x="0px" y="0px" width="108.951px"
	 height="108.765px" viewBox="0 0 108.951 108.765" enable-background="new 0 0 108.951 108.765" xml:space="preserve">
<g id="schematic">
	<rect x="14.883" y="0.36" fill="#FFFFFF" width="79.2" height="108"/>
	<rect x="14.883" y="0.36" fill="#FFFFFF" width="79.2" height="108"/>
	<line fill="none" stroke="#000000" stroke-width="0.9" stroke-linecap="round" x1="14.883" y1="108.36" x2="14.883" y2="0.36"/>
	<line fill="none" stroke="#000000" stroke-width="0.9" stroke-linecap="round" x1="14.883" y1="0.36" x2="94.083" y2="0.36"/>
	<line fill="none" stroke="#000000" stroke-width="0.9" stroke-linecap="round" x1="94.083" y1="0.36" x2="94.083" y2="108.36"/>
	<line fill="none" stroke="#000000" stroke-width="0.9" stroke-linecap="round" x1="94.083" y1="108.36" x2="14.883" y2="108.36"/>
	
		<line id="connector0pin" fill="none" stroke="#787878" stroke-width="0.75" stroke-linecap="round" x1="0.483" y1="7.56" x2="14.883" y2="7.56"/>
	<rect id="connector0terminal" x="0.483" y="7.56" fill="none" width="0" height="0"/>
	<text x="6.9949" y="6.51" fill="#8C8C8C" font-family="'DroidSans'" font-size="2.5">1</text>
	<text x="16.9832" y="8.26" fill="#787878" font-family="'DroidSans'" font-size="3.5">TXD</text>
	
		<line id="connector1pin" fill="none" stroke="#787878" stroke-width="0.75" stroke-linecap="round" x1="0.483" y1="14.76" x2="14.883" y2="14.76"/>
	<rect id="connector1terminal" x="0.483" y="14.76" fill="none" width="0" height="0"/>
	<text x="6.9949" y="13.7092" fill="#8C8C8C" font-family="'DroidSans'" font-size="2.5">2</text>
	<text x="16.9832" y="15.4592" fill="#787878" font-family="'DroidSans'" font-size="3.5">DTR_N</text>
	
		<line id="connector2pin" fill="none" stroke="#787878" stroke-width="0.75" stroke-linecap="round" x1="0.483" y1="21.96" x2="14.883" y2="21.96"/>
	<rect id="connector2terminal" x="0.483" y="21.96" fill="none" width="0" height="0"/>
	<text x="6.9949" y="20.9104" fill="#8C8C8C" font-family="'DroidSans'" font-size="2.5">3</text>
	<text x="16.9832" y="22.6604" fill="#787878" font-family="'DroidSans'" font-size="3.5">RTS_N</text>
	
		<line id="connector3pin" fill="none" stroke="#787878" stroke-width="0.75" stroke-linecap="round" x1="0.483" y1="29.16" x2="14.883" y2="29.16"/>
	<rect id="connector3terminal" x="0.483" y="29.16" fill="none" width="0" height="0"/>
	<text x="6.9949" y="28.1096" fill="#8C8C8C" font-family="'DroidSans'" font-size="2.5">4</text>
	<text x="16.9832" y="29.8596" fill="#787878" font-family="'DroidSans'" font-size="3.5">VDD_325</text>
	
		<line id="connector4pin" fill="none" stroke="#787878" stroke-width="0.75" stroke-linecap="round" x1="0.483" y1="36.36" x2="14.883" y2="36.36"/>
	<rect id="connector4terminal" x="0.483" y="36.36" fill="none" width="0" height="0.001"/>
	<text x="6.9949" y="35.3108" fill="#8C8C8C" font-family="'DroidSans'" font-size="2.5">5</text>
	<text x="16.9832" y="37.0588" fill="#787878" font-family="'DroidSans'" font-size="3.5">RXD</text>
	
		<line id="connector5pin" fill="none" stroke="#787878" stroke-width="0.75" stroke-linecap="round" x1="0.483" y1="43.56" x2="14.883" y2="43.56"/>
	<rect id="connector5terminal" x="0.483" y="43.56" fill="none" width="0" height="0"/>
	<text x="6.9949" y="42.51" fill="#8C8C8C" font-family="'DroidSans'" font-size="2.5">6</text>
	<text x="16.9832" y="44.26" fill="#787878" font-family="'DroidSans'" font-size="3.5">RI_N</text>
	
		<line id="connector6pin" fill="none" stroke="#787878" stroke-width="0.75" stroke-linecap="round" x1="0.483" y1="50.76" x2="14.883" y2="50.76"/>
	<rect id="connector6terminal" x="0.483" y="50.76" fill="none" width="0" height="0"/>
	<text x="6.9949" y="49.7092" fill="#8C8C8C" font-family="'DroidSans'" font-size="2.5">7</text>
	<text x="16.9832" y="51.4592" fill="#787878" font-family="'DroidSans'" font-size="3.5">GND</text>
	
		<line id="connector7pin" fill="none" stroke="#787878" stroke-width="0.75" stroke-linecap="round" x1="0.483" y1="57.96" x2="14.883" y2="57.96"/>
	<rect id="connector7terminal" x="0.483" y="57.96" fill="none" width="0" height="0"/>
	<text x="6.9949" y="56.9104" fill="#8C8C8C" font-family="'DroidSans'" font-size="2.5">8</text>
	<text x="16.9832" y="58.6604" fill="#787878" font-family="'DroidSans'" font-size="3.5">VDD_33</text>
	
		<line id="connector8pin" fill="none" stroke="#787878" stroke-width="0.75" stroke-linecap="round" x1="0.483" y1="65.16" x2="14.883" y2="65.16"/>
	<rect id="connector8terminal" x="0.483" y="65.16" fill="none" width="0" height="0"/>
	<text x="6.9949" y="64.1096" fill="#8C8C8C" font-family="'DroidSans'" font-size="2.5">9</text>
	<text x="16.9832" y="65.8596" fill="#787878" font-family="'DroidSans'" font-size="3.5">DSR_N</text>
	
		<line id="connector9pin" fill="none" stroke="#787878" stroke-width="0.75" stroke-linecap="round" x1="0.483" y1="72.36" x2="14.883" y2="72.36"/>
	<rect id="connector9terminal" x="0.483" y="72.36" fill="none" width="0" height="0.001"/>
	<text x="6.3054" y="71.3088" fill="#8C8C8C" font-family="'DroidSans'" font-size="2.5">10</text>
	<text x="16.9832" y="73.0588" fill="#787878" font-family="'DroidSans'" font-size="3.5">DCD_N</text>
	
		<line id="connector10pin" fill="none" stroke="#787878" stroke-width="0.75" stroke-linecap="round" x1="0.483" y1="79.56" x2="14.883" y2="79.56"/>
	<rect id="connector10terminal" x="0.483" y="79.56" fill="none" width="0" height="0"/>
	<text x="6.3054" y="78.51" fill="#8C8C8C" font-family="'DroidSans'" font-size="2.5">11</text>
	<text x="16.9832" y="80.26" fill="#787878" font-family="'DroidSans'" font-size="3.5">CTS_N</text>
	
		<line id="connector11pin" fill="none" stroke="#787878" stroke-width="0.75" stroke-linecap="round" x1="0.483" y1="86.76" x2="14.883" y2="86.76"/>
	<rect id="connector11terminal" x="0.483" y="86.76" fill="none" width="0" height="0"/>
	<text x="6.3054" y="85.7092" fill="#8C8C8C" font-family="'DroidSans'" font-size="2.5">12</text>
	<text x="16.9832" y="87.4592" fill="#787878" font-family="'DroidSans'" font-size="3.5">SHTD_N</text>
	
		<line id="connector12pin" fill="none" stroke="#787878" stroke-width="0.75" stroke-linecap="round" x1="0.483" y1="93.96" x2="14.883" y2="93.96"/>
	<rect id="connector12terminal" x="0.483" y="93.96" fill="none" width="0" height="0"/>
	<text x="6.3054" y="92.9104" fill="#8C8C8C" font-family="'DroidSans'" font-size="2.5">13</text>
	<text x="16.9832" y="94.6604" fill="#787878" font-family="'DroidSans'" font-size="3.5">EE_CLK</text>
	
		<line id="connector13pin" fill="none" stroke="#787878" stroke-width="0.75" stroke-linecap="round" x1="0.483" y1="101.159" x2="14.883" y2="101.159"/>
	<rect id="connector13terminal" x="0.483" y="101.159" fill="none" width="0" height="0.001"/>
	<text x="6.3054" y="100.1096" fill="#8C8C8C" font-family="'DroidSans'" font-size="2.5">14</text>
	<text x="16.9832" y="101.8596" fill="#787878" font-family="'DroidSans'" font-size="3.5">EE_DATA</text>
	
		<line id="connector14pin" fill="none" stroke="#787878" stroke-width="0.75" stroke-linecap="round" x1="108.483" y1="101.159" x2="94.083" y2="101.159"/>
	<rect id="connector14terminal" x="108.483" y="101.159" fill="none" width="0" height="0.001"/>
	<text x="99.905" y="100.1096" fill="#8C8C8C" font-family="'DroidSans'" font-size="2.5">15</text>
	<text x="87.571" y="101.8596" fill="#787878" font-family="'DroidSans'" font-size="3.5">DP</text>
	
		<line id="connector15pin" fill="none" stroke="#787878" stroke-width="0.75" stroke-linecap="round" x1="108.483" y1="93.96" x2="94.083" y2="93.96"/>
	<rect id="connector15terminal" x="108.483" y="93.96" fill="none" width="0" height="0"/>
	<text x="99.905" y="92.9104" fill="#8C8C8C" font-family="'DroidSans'" font-size="2.5">16</text>
	<text x="86.5437" y="94.6604" fill="#787878" font-family="'DroidSans'" font-size="3.5">DM</text>
	
		<line id="connector16pin" fill="none" stroke="#787878" stroke-width="0.75" stroke-linecap="round" x1="108.483" y1="86.76" x2="94.083" y2="86.76"/>
	<rect id="connector16terminal" x="108.483" y="86.76" fill="none" width="0" height="0"/>
	<text x="99.905" y="85.7092" fill="#8C8C8C" font-family="'DroidSans'" font-size="2.5">17</text>
	<text x="82.1726" y="87.4592" fill="#787878" font-family="'DroidSans'" font-size="3.5">VO_33</text>
	<line id="connector17pin" fill="none" x1="14.883" y1="50.76" x2="0.483" y2="50.76"/>
	<rect id="connector17terminal" x="0.483" y="50.76" fill="none" width="0" height="0"/>
	
		<line id="connector18pin" fill="none" stroke="#787878" stroke-width="0.75" stroke-linecap="round" x1="108.483" y1="72.36" x2="94.083" y2="72.36"/>
	<rect id="connector18terminal" x="108.483" y="72.36" fill="none" width="0" height="0.001"/>
	<text x="99.905" y="71.3088" fill="#8C8C8C" font-family="'DroidSans'" font-size="2.5">19</text>
	<text x="78.6003" y="73.0588" fill="#787878" font-family="'DroidSans'" font-size="3.5">RESET_N</text>
	
		<line id="connector19pin" fill="none" stroke="#787878" stroke-width="0.75" stroke-linecap="round" x1="108.483" y1="65.16" x2="94.083" y2="65.16"/>
	<rect id="connector19terminal" x="108.483" y="65.16" fill="none" width="0" height="0"/>
	<text x="99.905" y="64.1096" fill="#8C8C8C" font-family="'DroidSans'" font-size="2.5">20</text>
	<text x="81.8406" y="65.8596" fill="#787878" font-family="'DroidSans'" font-size="3.5">VDD_5</text>
	<line id="connector20pin" fill="none" x1="14.883" y1="50.76" x2="0.483" y2="50.76"/>
	<rect id="connector20terminal" x="0.483" y="50.76" fill="none" width="0" height="0"/>
	
		<line id="connector21pin" fill="none" stroke="#787878" stroke-width="0.75" stroke-linecap="round" x1="108.483" y1="50.76" x2="94.083" y2="50.76"/>
	<rect id="connector21terminal" x="108.483" y="50.76" fill="none" width="0" height="0"/>
	<text x="99.905" y="49.7092" fill="#8C8C8C" font-family="'DroidSans'" font-size="2.5">22</text>
	<text x="85.6238" y="51.4592" fill="#787878" font-family="'DroidSans'" font-size="3.5">GP0</text>
	
		<line id="connector22pin" fill="none" stroke="#787878" stroke-width="0.75" stroke-linecap="round" x1="108.483" y1="43.56" x2="94.083" y2="43.56"/>
	<rect id="connector22terminal" x="108.483" y="43.56" fill="none" width="0" height="0"/>
	<text x="99.905" y="42.51" fill="#8C8C8C" font-family="'DroidSans'" font-size="2.5">23</text>
	<text x="85.6238" y="44.26" fill="#787878" font-family="'DroidSans'" font-size="3.5">GP1</text>
	
		<line id="connector23pin" fill="none" stroke="#787878" stroke-width="0.75" stroke-linecap="round" x1="108.483" y1="36.36" x2="94.083" y2="36.36"/>
	<rect id="connector23terminal" x="108.483" y="36.36" fill="none" width="0" height="0.001"/>
	<text x="99.905" y="35.3108" fill="#8C8C8C" font-family="'DroidSans'" font-size="2.5">24</text>
	<text x="77.7839" y="37.0588" fill="#787878" font-family="'DroidSans'" font-size="3.5">VDD_33A</text>
	
		<line id="connector24pin" fill="none" stroke="#787878" stroke-width="0.75" stroke-linecap="round" x1="108.483" y1="29.16" x2="94.083" y2="29.16"/>
	<rect id="connector24terminal" x="108.483" y="29.16" fill="none" width="0" height="0"/>
	<text x="99.905" y="28.1096" fill="#8C8C8C" font-family="'DroidSans'" font-size="2.5">25</text>
	<text x="81.0554" y="29.8596" fill="#787878" font-family="'DroidSans'" font-size="3.5">GND_A</text>
	
		<line id="connector25pin" fill="none" stroke="#787878" stroke-width="0.75" stroke-linecap="round" x1="108.483" y1="21.96" x2="94.083" y2="21.96"/>
	<rect id="connector25terminal" x="108.483" y="21.96" fill="none" width="0" height="0"/>
	<text x="99.905" y="20.9104" fill="#8C8C8C" font-family="'DroidSans'" font-size="2.5">26</text>
	<text x="77.7917" y="22.6604" fill="#787878" font-family="'DroidSans'" font-size="3.5">PLL_TEST</text>
	
		<line id="connector26pin" fill="none" stroke="#787878" stroke-width="0.75" stroke-linecap="round" x1="108.483" y1="14.76" x2="94.083" y2="14.76"/>
	<rect id="connector26terminal" x="108.483" y="14.76" fill="none" width="0" height="0"/>
	<text x="99.905" y="13.7092" fill="#8C8C8C" font-family="'DroidSans'" font-size="2.5">27</text>
	<text x="83.53" y="15.4592" fill="#787878" font-family="'DroidSans'" font-size="3.5">OSC1</text>
	
		<line id="connector27pin" fill="none" stroke="#787878" stroke-width="0.75" stroke-linecap="round" x1="108.483" y1="7.56" x2="94.083" y2="7.56"/>
	<rect id="connector27terminal" x="108.483" y="7.56" fill="none" width="0" height="0"/>
	<text x="99.905" y="6.51" fill="#8C8C8C" font-family="'DroidSans'" font-size="2.5">28</text>
	<text x="83.53" y="8.26" fill="#787878" font-family="'DroidSans'" font-size="3.5">OSC2</text>
	<text id="label_1_" x="52.2136" y="49.8264" font-family="'DroidSans'" font-size="4.25">PL</text>
	<text id="label_2_" x="47.3464" y="54.3596" font-family="'DroidSans'" font-size="4.25">2303XA</text>
</g>
</svg>
