<?xml version="1.0" encoding="utf-8"?>
<!-- Generator: Adobe Illustrator 16.0.0, SVG Export Plug-In . SVG Version: 6.00 Build 0)  -->
<!DOCTYPE svg PUBLIC "-//W3C//DTD SVG 1.1//EN" "http://www.w3.org/Graphics/SVG/1.1/DTD/svg11.dtd">
<svg version="1.1" id="Layer_1" xmlns:svg="http://www.w3.org/2000/svg"
	 xmlns="http://www.w3.org/2000/svg" xmlns:xlink="http://www.w3.org/1999/xlink" x="0px" y="0px" width="72.699px"
	 height="123.121px" viewBox="0 0 72.699 123.121" enable-background="new 0 0 72.699 123.121" xml:space="preserve">
<g id="schematic">
	<rect x="7.55" y="0.36" fill="#FFFFFF" width="57.6" height="122.399"/>
	<text id="label" x="18.967" y="59.2935" font-family="'DroidSans'" font-size="4.1102">STP16CP05/A6282</text>
	<line fill="none" stroke="#000000" stroke-width="0.9" stroke-linecap="round" x1="65.15" y1="122.759" x2="65.15" y2="0.36"/>
	<line fill="none" stroke="#000000" stroke-width="0.9" stroke-linecap="round" x1="65.15" y1="0.36" x2="7.55" y2="0.36"/>
	<line fill="none" stroke="#000000" stroke-width="0.9" stroke-linecap="round" x1="7.55" y1="0.36" x2="7.55" y2="122.759"/>
	<line fill="none" stroke="#000000" stroke-width="0.9" stroke-linecap="round" x1="7.55" y1="122.759" x2="65.15" y2="122.759"/>
	
		<line id="connector0pin" fill="none" stroke="#787878" stroke-width="0.75" stroke-linecap="round" x1="0.35" y1="115.56" x2="7.55" y2="115.56"/>
	<rect id="connector0terminal" x="0.35" y="115.56" fill="none" width="0" height="0"/>
	<text x="3.262" y="114.5103" fill="#8C8C8C" font-family="'DroidSans'" font-size="2.5">1</text>
	<text x="9.6506" y="116.2603" fill="#787878" font-family="'DroidSans'" font-size="3.5">GND</text>
	
		<line id="connector1pin" fill="none" stroke="#787878" stroke-width="0.75" stroke-linecap="round" x1="0.35" y1="29.16" x2="7.55" y2="29.16"/>
	<rect id="connector1terminal" x="0.35" y="29.16" fill="none" width="0" height="0"/>
	<text x="3.262" y="28.1099" fill="#8C8C8C" font-family="'DroidSans'" font-size="2.5">2</text>
	<text x="9.6506" y="29.8599" fill="#787878" font-family="'DroidSans'" font-size="3.5">SDI</text>
	
		<line id="connector2pin" fill="none" stroke="#787878" stroke-width="0.75" stroke-linecap="round" x1="0.35" y1="36.36" x2="7.55" y2="36.36"/>
	<rect id="connector2terminal" x="0.35" y="36.36" fill="none" width="0" height="0"/>
	<text x="3.262" y="35.311" fill="#8C8C8C" font-family="'DroidSans'" font-size="2.5">3</text>
	<text x="9.6506" y="37.0591" fill="#787878" font-family="'DroidSans'" font-size="3.5">CLK</text>
	
		<line id="connector3pin" fill="none" stroke="#787878" stroke-width="0.75" stroke-linecap="round" x1="0.35" y1="57.96" x2="7.55" y2="57.96"/>
	<rect id="connector3terminal" x="0.35" y="57.96" fill="none" width="0" height="0"/>
	<text x="3.262" y="56.9106" fill="#8C8C8C" font-family="'DroidSans'" font-size="2.5">4</text>
	<text x="9.6506" y="58.6606" fill="#787878" font-family="'DroidSans'" font-size="3.5">LE</text>
	
		<line id="connector4pin" fill="none" stroke="#787878" stroke-width="0.75" stroke-linecap="round" x1="72.35" y1="7.56" x2="65.15" y2="7.56"/>
	<rect id="connector4terminal" x="72.35" y="7.56" fill="none" width="0" height="0"/>
	<text x="68.0627" y="6.5103" fill="#8C8C8C" font-family="'DroidSans'" font-size="2.5">5</text>
	<text x="54.2639" y="8.2603" fill="#787878" font-family="'DroidSans'" font-size="3.5">OUT0</text>
	
		<line id="connector5pin" fill="none" stroke="#787878" stroke-width="0.75" stroke-linecap="round" x1="72.35" y1="14.76" x2="65.15" y2="14.76"/>
	<rect id="connector5terminal" x="72.35" y="14.76" fill="none" width="0" height="0"/>
	<text x="68.0627" y="13.7095" fill="#8C8C8C" font-family="'DroidSans'" font-size="2.5">6</text>
	<text x="54.2639" y="15.4595" fill="#787878" font-family="'DroidSans'" font-size="3.5">OUT1</text>
	
		<line id="connector6pin" fill="none" stroke="#787878" stroke-width="0.75" stroke-linecap="round" x1="72.35" y1="21.96" x2="65.15" y2="21.96"/>
	<rect id="connector6terminal" x="72.35" y="21.96" fill="none" width="0" height="0"/>
	<text x="68.0627" y="20.9106" fill="#8C8C8C" font-family="'DroidSans'" font-size="2.5">7</text>
	<text x="54.2639" y="22.6606" fill="#787878" font-family="'DroidSans'" font-size="3.5">OUT2</text>
	
		<line id="connector7pin" fill="none" stroke="#787878" stroke-width="0.75" stroke-linecap="round" x1="72.35" y1="29.16" x2="65.15" y2="29.16"/>
	<rect id="connector7terminal" x="72.35" y="29.16" fill="none" width="0" height="0"/>
	<text x="68.0627" y="28.1099" fill="#8C8C8C" font-family="'DroidSans'" font-size="2.5">8</text>
	<text x="54.2639" y="29.8599" fill="#787878" font-family="'DroidSans'" font-size="3.5">OUT3</text>
	
		<line id="connector8pin" fill="none" stroke="#787878" stroke-width="0.75" stroke-linecap="round" x1="72.35" y1="36.36" x2="65.15" y2="36.36"/>
	<rect id="connector8terminal" x="72.35" y="36.36" fill="none" width="0" height="0"/>
	<text x="68.0627" y="35.311" fill="#8C8C8C" font-family="'DroidSans'" font-size="2.5">9</text>
	<text x="54.2639" y="37.0591" fill="#787878" font-family="'DroidSans'" font-size="3.5">OUT4</text>
	
		<line id="connector9pin" fill="none" stroke="#787878" stroke-width="0.75" stroke-linecap="round" x1="72.35" y1="43.56" x2="65.15" y2="43.56"/>
	<rect id="connector9terminal" x="72.35" y="43.56" fill="none" width="0" height="0"/>
	<text x="67.3733" y="42.5103" fill="#8C8C8C" font-family="'DroidSans'" font-size="2.5">10</text>
	<text x="54.2639" y="44.2603" fill="#787878" font-family="'DroidSans'" font-size="3.5">OUT5</text>
	
		<line id="connector10pin" fill="none" stroke="#787878" stroke-width="0.75" stroke-linecap="round" x1="72.35" y1="50.76" x2="65.15" y2="50.76"/>
	<rect id="connector10terminal" x="72.35" y="50.76" fill="none" width="0" height="0"/>
	<text x="67.3733" y="49.7095" fill="#8C8C8C" font-family="'DroidSans'" font-size="2.5">11</text>
	<text x="54.2639" y="51.4595" fill="#787878" font-family="'DroidSans'" font-size="3.5">OUT6</text>
	
		<line id="connector11pin" fill="none" stroke="#787878" stroke-width="0.75" stroke-linecap="round" x1="72.35" y1="57.96" x2="65.15" y2="57.96"/>
	<rect id="connector11terminal" x="72.35" y="57.96" fill="none" width="0" height="0"/>
	<text x="67.3733" y="56.9106" fill="#8C8C8C" font-family="'DroidSans'" font-size="2.5">12</text>
	<text x="54.2639" y="58.6606" fill="#787878" font-family="'DroidSans'" font-size="3.5">OUT7</text>
	
		<line id="connector23pin" fill="none" stroke="#787878" stroke-width="0.75" stroke-linecap="round" x1="0.35" y1="7.56" x2="7.55" y2="7.56"/>
	<rect id="connector23terminal" x="0.35" y="7.56" fill="none" width="0" height="0"/>
	<text x="2.5725" y="6.5103" fill="#8C8C8C" font-family="'DroidSans'" font-size="2.5">24</text>
	<text x="9.6506" y="8.2603" fill="#787878" font-family="'DroidSans'" font-size="3.5">VDD</text>
	
		<line id="connector22pin" fill="none" stroke="#787878" stroke-width="0.75" stroke-linecap="round" x1="0.35" y1="72.36" x2="7.55" y2="72.36"/>
	<rect id="connector22terminal" x="0.35" y="72.36" fill="none" width="0" height="0.001"/>
	<text x="2.5725" y="71.311" fill="#8C8C8C" font-family="'DroidSans'" font-size="2.5">23</text>
	<text x="9.6506" y="73.0591" fill="#787878" font-family="'DroidSans'" font-size="3.5">REXT</text>
	
		<line id="connector21pin" fill="none" stroke="#787878" stroke-width="0.75" stroke-linecap="round" x1="0.35" y1="21.96" x2="7.55" y2="21.96"/>
	<rect id="connector21terminal" x="0.35" y="21.96" fill="none" width="0" height="0"/>
	<text x="2.5725" y="20.9106" fill="#8C8C8C" font-family="'DroidSans'" font-size="2.5">22</text>
	<text x="9.6506" y="22.6606" fill="#787878" font-family="'DroidSans'" font-size="3.5">SDO</text>
	
		<line id="connector20pin" fill="none" stroke="#787878" stroke-width="0.75" stroke-linecap="round" x1="0.35" y1="50.76" x2="7.55" y2="50.76"/>
	<rect id="connector20terminal" x="0.35" y="50.76" fill="none" width="0" height="0"/>
	<text x="2.5725" y="49.7095" fill="#8C8C8C" font-family="'DroidSans'" font-size="2.5">21</text>
	<text x="9.6506" y="51.4595" fill="#787878" font-family="'DroidSans'" font-size="3.5">~OE</text>
	
		<line id="connector19pin" fill="none" stroke="#787878" stroke-width="0.75" stroke-linecap="round" x1="72.35" y1="115.56" x2="65.15" y2="115.56"/>
	<rect id="connector19terminal" x="72.35" y="115.56" fill="none" width="0" height="0"/>
	<text x="67.3733" y="114.5103" fill="#8C8C8C" font-family="'DroidSans'" font-size="2.5">20</text>
	<text x="52.3362" y="116.2603" fill="#787878" font-family="'DroidSans'" font-size="3.5">OUT15</text>
	
		<line id="connector18pin" fill="none" stroke="#787878" stroke-width="0.75" stroke-linecap="round" x1="72.35" y1="108.36" x2="65.15" y2="108.36"/>
	<rect id="connector18terminal" x="72.35" y="108.36" fill="none" width="0" height="0.001"/>
	<text x="67.3733" y="107.311" fill="#8C8C8C" font-family="'DroidSans'" font-size="2.5">19</text>
	<text x="52.3362" y="109.0591" fill="#787878" font-family="'DroidSans'" font-size="3.5">OUT14</text>
	
		<line id="connector17pin" fill="none" stroke="#787878" stroke-width="0.75" stroke-linecap="round" x1="72.35" y1="101.16" x2="65.15" y2="101.16"/>
	<rect id="connector17terminal" x="72.35" y="101.16" fill="none" width="0" height="0"/>
	<text x="67.3733" y="100.1099" fill="#8C8C8C" font-family="'DroidSans'" font-size="2.5">18</text>
	<text x="52.3362" y="101.8599" fill="#787878" font-family="'DroidSans'" font-size="3.5">OUT13</text>
	
		<line id="connector16pin" fill="none" stroke="#787878" stroke-width="0.75" stroke-linecap="round" x1="72.35" y1="93.96" x2="65.15" y2="93.96"/>
	<rect id="connector16terminal" x="72.35" y="93.96" fill="none" width="0" height="0"/>
	<text x="67.3733" y="92.9106" fill="#8C8C8C" font-family="'DroidSans'" font-size="2.5">17</text>
	<text x="52.3362" y="94.6606" fill="#787878" font-family="'DroidSans'" font-size="3.5">OUT12</text>
	
		<line id="connector15pin" fill="none" stroke="#787878" stroke-width="0.75" stroke-linecap="round" x1="72.35" y1="86.76" x2="65.15" y2="86.76"/>
	<rect id="connector15terminal" x="72.35" y="86.76" fill="none" width="0" height="0"/>
	<text x="67.3733" y="85.7095" fill="#8C8C8C" font-family="'DroidSans'" font-size="2.5">16</text>
	<text x="52.3362" y="87.4595" fill="#787878" font-family="'DroidSans'" font-size="3.5">OUT11</text>
	
		<line id="connector14pin" fill="none" stroke="#787878" stroke-width="0.75" stroke-linecap="round" x1="72.35" y1="79.56" x2="65.15" y2="79.56"/>
	<rect id="connector14terminal" x="72.35" y="79.56" fill="none" width="0" height="0"/>
	<text x="67.3733" y="78.5103" fill="#8C8C8C" font-family="'DroidSans'" font-size="2.5">15</text>
	<text x="52.3362" y="80.2603" fill="#787878" font-family="'DroidSans'" font-size="3.5">OUT10</text>
	
		<line id="connector12pin" fill="none" stroke="#787878" stroke-width="0.75" stroke-linecap="round" x1="72.35" y1="65.16" x2="65.15" y2="65.16"/>
	<rect id="connector12terminal" x="72.35" y="65.16" fill="none" width="0" height="0"/>
	<text x="67.3733" y="64.1099" fill="#8C8C8C" font-family="'DroidSans'" font-size="2.5">13</text>
	<text x="54.2639" y="65.8599" fill="#787878" font-family="'DroidSans'" font-size="3.5">OUT8</text>
	
		<line id="connector13pin" fill="none" stroke="#787878" stroke-width="0.75" stroke-linecap="round" x1="72.35" y1="72.36" x2="65.15" y2="72.36"/>
	<rect id="connector13terminal" x="72.35" y="72.36" fill="none" width="0" height="0.001"/>
	<text x="67.3733" y="71.311" fill="#8C8C8C" font-family="'DroidSans'" font-size="2.5">14</text>
	<text x="54.2639" y="73.0591" fill="#787878" font-family="'DroidSans'" font-size="3.5">OUT9</text>
</g>
</svg>
