<?xml version="1.0" encoding="utf-8"?>
<!-- Generator: Adobe Illustrator 16.0.0, SVG Export Plug-In . SVG Version: 6.00 Build 0)  -->
<!DOCTYPE svg PUBLIC "-//W3C//DTD SVG 1.1//EN" "http://www.w3.org/Graphics/SVG/1.1/DTD/svg11.dtd">
<svg version="1.1" id="Layer_1" xmlns:svg="http://www.w3.org/2000/svg"
	 xmlns="http://www.w3.org/2000/svg" xmlns:xlink="http://www.w3.org/1999/xlink" x="0px" y="0px" width="115.9px"
	 height="101.52px" viewBox="0 0 115.9 101.52" enable-background="new 0 0 115.9 101.52" xml:space="preserve">
<g id="schematic">
	<rect x="21.95" y="0.36" fill="#FFFFFF" width="72" height="100.801"/>
	<rect x="21.95" y="0.36" fill="#FFFFFF" width="72" height="100.801"/>
	<rect x="21.95" y="0.36" fill="#FFFFFF" width="72" height="100.801"/>
	<line fill="none" stroke="#000000" stroke-width="0.9" stroke-linecap="round" x1="21.95" y1="101.16" x2="21.95" y2="0.36"/>
	<line fill="none" stroke="#000000" stroke-width="0.9" stroke-linecap="round" x1="21.95" y1="0.36" x2="93.95" y2="0.36"/>
	<line fill="none" stroke="#000000" stroke-width="0.9" stroke-linecap="round" x1="21.95" y1="101.16" x2="93.95" y2="101.16"/>
	
		<line fill="none" stroke="#000000" stroke-width="0.9" stroke-linecap="round" stroke-linejoin="round" x1="93.95" y1="101.16" x2="93.95" y2="0.36"/>
	
		<line id="connector15pin" fill="none" stroke="#787878" stroke-width="0.75" stroke-linecap="round" x1="0.35" y1="7.56" x2="21.95" y2="7.56"/>
	<rect id="connector15terminal" x="0.35" y="7.56" fill="none" width="0" height="0"/>
	<text x="9.7732" y="6.51" fill="#8C8C8C" font-family="'DroidSans'" font-size="2.5">16</text>
	<text x="24.0496" y="8.26" fill="#787878" font-family="'DroidSans'" font-size="3.5">VCC</text>
	
		<line id="connector7pin" fill="none" stroke="#787878" stroke-width="0.75" stroke-linecap="round" x1="0.35" y1="93.96" x2="21.95" y2="93.96"/>
	<rect id="connector7terminal" x="0.35" y="93.96" fill="none" width="0" height="0"/>
	<text x="10.4597" y="92.9094" fill="#8C8C8C" font-family="'DroidSans'" font-size="2.5">8</text>
	<text x="24.0496" y="94.6594" fill="#787878" font-family="'DroidSans'" font-size="3.5">GND</text>
	
		<line id="connector10pin" fill="none" stroke="#787878" stroke-width="0.75" stroke-linecap="round" x1="115.55" y1="36.36" x2="93.95" y2="36.36"/>
	<rect id="connector10terminal" x="115.55" y="36.36" fill="none" width="0.001" height="0.001"/>
	<text x="103.371" y="8 35.3088" fill="#8C8C8C" font-family="'DroidSans'" font-size="2.5">11</text>
	<text x="88.0066" y="37.0579" fill="#787878" font-family="'DroidSans'" font-size="3.5">X3</text>
	
		<line id="connector12pin" fill="none" stroke="#787878" stroke-width="0.75" stroke-linecap="round" x1="0.35" y1="29.16" x2="21.95" y2="29.16"/>
	<rect id="connector12terminal" x="0.35" y="29.16" fill="none" width="0" height="0"/>
	<text x="9.7732" y="28.1086" fill="#8C8C8C" font-family="'DroidSans'" font-size="2.5">13</text>
	<text x="24.0496" y="29.8596" fill="#787878" font-family="'DroidSans'" font-size="3.5">IN/OUT_X</text>
	
		<line id="connector14pin" fill="none" stroke="#787878" stroke-width="0.75" stroke-linecap="round" x1="115.55" y1="29.16" x2="93.95" y2="29.16"/>
	<rect id="connector14terminal" x="115.55" y="29.16" fill="none" width="0.001" height="0"/>
	<text x="103.371" y="8 28.1086" fill="#8C8C8C" font-family="'DroidSans'" font-size="2.5">15</text>
	<text x="88.0066" y="29.8596" fill="#787878" font-family="'DroidSans'" font-size="3.5">X2</text>
	
		<line id="connector13pin" fill="none" stroke="#787878" stroke-width="0.75" stroke-linecap="round" x1="115.55" y1="21.96" x2="93.95" y2="21.96"/>
	<rect id="connector13terminal" x="115.55" y="21.96" fill="none" width="0.001" height="0"/>
	<text x="103.371" y="8 20.9094" fill="#8C8C8C" font-family="'DroidSans'" font-size="2.5">14</text>
	<text x="88.0066" y="22.6594" fill="#787878" font-family="'DroidSans'" font-size="3.5">X1</text>
	
		<line id="connector4pin" fill="none" stroke="#787878" stroke-width="0.75" stroke-linecap="round" x1="115.55" y1="65.16" x2="93.95" y2="65.16"/>
	<rect id="connector4terminal" x="115.55" y="65.16" fill="none" width="0.001" height="0"/>
	<text x="104.061" y="3 64.1096" fill="#8C8C8C" font-family="'DroidSans'" font-size="2.5">5</text>
	<text x="88.0769" y="65.8586" fill="#787878" font-family="'DroidSans'" font-size="3.5">Y1</text>
	
		<line id="connector1pin" fill="none" stroke="#787878" stroke-width="0.75" stroke-linecap="round" x1="115.55" y1="72.36" x2="93.95" y2="72.36"/>
	<rect id="connector1terminal" x="115.55" y="72.36" fill="none" width="0.001" height="0.001"/>
	<text x="104.061" y="3 71.3079" fill="#8C8C8C" font-family="'DroidSans'" font-size="2.5">2</text>
	<text x="88.0769" y="73.0588" fill="#787878" font-family="'DroidSans'" font-size="3.5">Y2</text>
	
		<line id="connector11pin" fill="none" stroke="#787878" stroke-width="0.75" stroke-linecap="round" x1="115.55" y1="14.76" x2="93.95" y2="14.76"/>
	<rect id="connector11terminal" x="115.55" y="14.76" fill="none" width="0.001" height="0"/>
	<text x="103.371" y="8 13.7083" fill="#8C8C8C" font-family="'DroidSans'" font-size="2.5">12</text>
	<text x="88.0066" y="15.4583" fill="#787878" font-family="'DroidSans'" font-size="3.5">X0</text>
	
		<line id="connector0pin" fill="none" stroke="#787878" stroke-width="0.75" stroke-linecap="round" x1="115.55" y1="57.96" x2="93.95" y2="57.96"/>
	<rect id="connector0terminal" x="115.55" y="57.96" fill="none" width="0.001" height="0"/>
	<text x="104.061" y="3 56.9094" fill="#8C8C8C" font-family="'DroidSans'" font-size="2.5">1</text>
	<text x="88.0769" y="58.6604" fill="#787878" font-family="'DroidSans'" font-size="3.5">Y0</text>
	
		<line id="connector3pin" fill="none" stroke="#787878" stroke-width="0.75" stroke-linecap="round" x1="115.55" y1="79.56" x2="93.95" y2="79.56"/>
	<rect id="connector3terminal" x="115.55" y="79.56" fill="none" width="0.001" height="0"/>
	<text x="104.061" y="3 78.509" fill="#8C8C8C" font-family="'DroidSans'" font-size="2.5">4</text>
	<text x="88.0769" y="80.259" fill="#787878" font-family="'DroidSans'" font-size="3.5">Y3</text>
	
		<line id="connector2pin" fill="none" stroke="#787878" stroke-width="0.75" stroke-linecap="round" x1="0.35" y1="36.36" x2="21.95" y2="36.36"/>
	<rect id="connector2terminal" x="0.35" y="36.36" fill="none" width="0" height="0.001"/>
	<text x="10.4597" y="35.3088" fill="#8C8C8C" font-family="'DroidSans'" font-size="2.5">3</text>
	<text x="24.0496" y="37.0579" fill="#787878" font-family="'DroidSans'" font-size="3.5">IN/OUT_Y</text>
	
		<line id="connector9pin" fill="none" stroke="#787878" stroke-width="0.75" stroke-linecap="round" x1="0.35" y1="57.96" x2="21.95" y2="57.96"/>
	<rect id="connector9terminal" x="0.35" y="57.96" fill="none" width="0" height="0"/>
	<text x="9.7732" y="56.9094" fill="#8C8C8C" font-family="'DroidSans'" font-size="2.5">10</text>
	<text x="24.0496" y="58.6604" fill="#787878" font-family="'DroidSans'" font-size="3.5">A</text>
	
		<line id="connector8pin" fill="none" stroke="#787878" stroke-width="0.75" stroke-linecap="round" x1="0.35" y1="65.16" x2="21.95" y2="65.16"/>
	<rect id="connector8terminal" x="0.35" y="65.16" fill="none" width="0" height="0"/>
	<text x="10.4597" y="64.1096" fill="#8C8C8C" font-family="'DroidSans'" font-size="2.5">9</text>
	<text x="24.0496" y="65.8586" fill="#787878" font-family="'DroidSans'" font-size="3.5">B</text>
	
		<line id="connector6pin" fill="none" stroke="#787878" stroke-width="0.75" stroke-linecap="round" x1="0.35" y1="14.76" x2="21.95" y2="14.76"/>
	<rect id="connector6terminal" x="0.35" y="14.76" fill="none" width="0" height="0"/>
	<text x="10.4597" y="13.7083" fill="#8C8C8C" font-family="'DroidSans'" font-size="2.5">7</text>
	<text x="24.0496" y="15.4583" fill="#787878" font-family="'DroidSans'" font-size="3.5">VEE</text>
	
		<line id="connector5pin" fill="none" stroke="#787878" stroke-width="0.75" stroke-linecap="round" x1="0.35" y1="86.76" x2="21.95" y2="86.76"/>
	<rect id="connector5terminal" x="0.35" y="86.76" fill="none" width="0" height="0"/>
	<text x="10.4597" y="85.7092" fill="#8C8C8C" font-family="'DroidSans'" font-size="2.5">6</text>
	<text x="24.0496" y="87.4592" fill="#787878" font-family="'DroidSans'" font-size="3.5">INH</text>
	<text id="label_3_" x="46.948" y="43.9592" font-family="'DroidSans'" font-size="4.25">74VHC4052</text>
	<text id="label_4_" x="49.7488" y="48.4924" font-family="'DroidSans'" font-size="4.25">ANALOG</text>
	<text id="label_5_" x="53.4539" y="53.0266" font-family="'DroidSans'" font-size="4.25">MUX</text>
</g>
</svg>
