<?xml version="1.0" encoding="utf-8"?>
<!-- Generator: Adobe Illustrator 16.0.0, SVG Export Plug-In . SVG Version: 6.00 Build 0)  -->
<svg version="1.2" baseProfile="tiny" id="Layer_1" xmlns:svg="http://www.w3.org/2000/svg"
	 xmlns="http://www.w3.org/2000/svg" xmlns:xlink="http://www.w3.org/1999/xlink" x="0px" y="0px" width="61.2px" height="43.92px"
	 viewBox="0 0 61.2 43.92" xml:space="preserve">
<g id="schematic">
	<rect x="0.36" y="0.36" fill="#FFFFFF" width="43.2" height="43.2"/>
	<rect x="0.36" y="0.36" fill="#FFFFFF" width="43.2" height="43.2"/>
	<rect x="0.36" y="0.36" fill="#FFFFFF" width="43.2" height="43.2"/>
	<text x="9.2949" y="17.4272" font-family="'DroidSans'" font-size="4.25">M</text>
	<text x="12.9932" y="17.4272" font-family="'DroidSans'" font-size="4.25">I</text>
	<text x="14.4331" y="17.4272" font-family="'DroidSans'" font-size="4.25">D</text>
	<text x="17.2988" y="17.4272" font-family="'DroidSans'" font-size="4.25">I</text>
	<text x="8.1016" y="21.9604" font-family="'DroidSans'" font-size="4.25">C</text>
	<text x="10.5791" y="21.9604" font-family="'DroidSans'" font-size="4.25">O</text>
	<text x="13.7334" y="21.9604" font-family="'DroidSans'" font-size="4.25">N</text>
	<text x="16.832" y="21.9604" font-family="'DroidSans'" font-size="4.25">N</text>
	<text id="label_5_" x="6.5449" y="26.4932" font-family="'DroidSans'" font-size="4.25">FEMALE</text>
	<line fill="none" stroke="#000000" stroke-width="0.9" stroke-linecap="round" x1="0.36" y1="43.56" x2="43.56" y2="43.56"/>
	<line fill="none" stroke="#000000" stroke-width="0.9" stroke-linecap="round" x1="43.56" y1="43.56" x2="43.56" y2="0.36"/>
	<line fill="none" stroke="#000000" stroke-width="0.9" stroke-linecap="round" x1="43.56" y1="0.36" x2="0.36" y2="0.36"/>
	<line fill="none" stroke="#000000" stroke-width="0.9" stroke-linecap="round" x1="0.36" y1="0.36" x2="0.36" y2="43.56"/>
	<line fill="none" stroke="#000000" stroke-width="0.75" stroke-linecap="round" x1="57.959" y1="36.36" x2="55.081" y2="39.239"/>
	<line fill="none" stroke="#000000" stroke-width="0.75" stroke-linecap="round" x1="60.84" y1="33.479" x2="57.959" y2="36.36"/>
	<line fill="none" stroke="#000000" stroke-width="0.75" stroke-linecap="round" x1="57.959" y1="36.36" x2="55.799" y2="34.2"/>
	<line fill="none" stroke="#000000" stroke-width="0.75" stroke-linecap="round" x1="57.959" y1="36.36" x2="60.84" y2="39.239"/>
	<line fill="none" stroke="#000000" stroke-width="0.75" stroke-linecap="round" x1="57.959" y1="36.36" x2="55.081" y2="33.479"/>
	<line fill="none" stroke="#000000" stroke-width="0.75" stroke-linecap="round" x1="57.959" y1="29.16" x2="55.081" y2="32.04"/>
	<line fill="none" stroke="#000000" stroke-width="0.75" stroke-linecap="round" x1="60.84" y1="26.28" x2="57.959" y2="29.16"/>
	<line fill="none" stroke="#000000" stroke-width="0.75" stroke-linecap="round" x1="57.959" y1="29.16" x2="55.799" y2="27"/>
	<line fill="none" stroke="#000000" stroke-width="0.75" stroke-linecap="round" x1="57.959" y1="29.16" x2="60.84" y2="32.04"/>
	<line fill="none" stroke="#000000" stroke-width="0.75" stroke-linecap="round" x1="57.959" y1="29.16" x2="55.081" y2="26.28"/>
	<line fill="none" stroke="#000000" stroke-width="0.75" stroke-linecap="round" x1="57.959" y1="21.96" x2="55.081" y2="24.84"/>
	<line fill="none" stroke="#000000" stroke-width="0.75" stroke-linecap="round" x1="60.84" y1="19.08" x2="57.959" y2="21.96"/>
	<line fill="none" stroke="#000000" stroke-width="0.75" stroke-linecap="round" x1="57.959" y1="21.96" x2="55.799" y2="19.8"/>
	<line fill="none" stroke="#000000" stroke-width="0.75" stroke-linecap="round" x1="57.959" y1="21.96" x2="60.84" y2="24.84"/>
	<line fill="none" stroke="#000000" stroke-width="0.75" stroke-linecap="round" x1="57.959" y1="21.96" x2="55.081" y2="19.08"/>
	
		<line id="connector2pin" fill="none" stroke="#787878" stroke-width="0.75" stroke-linecap="round" x1="57.959" y1="36.36" x2="43.56" y2="36.36"/>
	<rect id="connector2terminal" x="57.959" y="36.36" fill="none" width="0.001" height="0"/>
	<text x="50.0728" y="35.3096" fill="#8C8C8C" font-family="'DroidSans'" font-size="2.5">3</text>
	<text x="34.8716" y="37.0596" fill="#787878" font-family="'DroidSans'" font-size="3.5">NC3</text>
	
		<line id="connector1pin" fill="none" stroke="#787878" stroke-width="0.75" stroke-linecap="round" x1="57.959" y1="29.16" x2="43.56" y2="29.16"/>
	<rect id="connector1terminal" x="57.959" y="29.16" fill="none" width="0.001" height="0"/>
	<text x="50.0728" y="28.1104" fill="#8C8C8C" font-family="'DroidSans'" font-size="2.5">2</text>
	<text x="34.8716" y="29.8604" fill="#787878" font-family="'DroidSans'" font-size="3.5">NC2</text>
	
		<line id="connector0pin" fill="none" stroke="#787878" stroke-width="0.75" stroke-linecap="round" x1="57.959" y1="21.96" x2="43.56" y2="21.96"/>
	<rect id="connector0terminal" x="57.959" y="21.96" fill="none" width="0.001" height="0"/>
	<text x="50.0728" y="20.9111" fill="#8C8C8C" font-family="'DroidSans'" font-size="2.5">1</text>
	<text x="34.8716" y="22.6611" fill="#787878" font-family="'DroidSans'" font-size="3.5">NC1</text>
	
		<line id="connector4pin" fill="none" stroke="#787878" stroke-width="0.75" stroke-linecap="round" x1="57.959" y1="14.76" x2="43.56" y2="14.76"/>
	<rect id="connector4terminal" x="57.959" y="14.76" fill="none" width="0.001" height="0"/>
	<text x="50.0728" y="13.71" fill="#8C8C8C" font-family="'DroidSans'" font-size="2.5">5</text>
	<text x="25.3848" y="15.46" fill="#787878" font-family="'DroidSans'" font-size="3.5">M</text>
	<text x="28.4302" y="15.46" fill="#787878" font-family="'DroidSans'" font-size="3.5">I</text>
	<text x="29.6162" y="15.46" fill="#787878" font-family="'DroidSans'" font-size="3.5">D</text>
	<text x="31.9771" y="15.46" fill="#787878" font-family="'DroidSans'" font-size="3.5">I</text>
	<text x="33.1626" y="15.46" fill="#787878" font-family="'DroidSans'" font-size="3.5">_</text>
	<text x="34.6021" y="15.46" fill="#787878" font-family="'DroidSans'" font-size="3.5">O</text>
	<text x="37.1997" y="15.46" fill="#787878" font-family="'DroidSans'" font-size="3.5">U</text>
	<text x="39.6431" y="15.46" fill="#787878" font-family="'DroidSans'" font-size="3.5">T</text>
	
		<line id="connector3pin" fill="none" stroke="#787878" stroke-width="0.75" stroke-linecap="round" x1="57.959" y1="7.56" x2="43.56" y2="7.56"/>
	<rect id="connector3terminal" x="57.959" y="7.56" fill="none" width="0.001" height="0"/>
	<text x="50.0728" y="6.5107" fill="#8C8C8C" font-family="'DroidSans'" font-size="2.5">4</text>
	<text x="28.5059" y="8.2607" fill="#787878" font-family="'DroidSans'" font-size="3.5">M</text>
	<text x="31.5513" y="8.2607" fill="#787878" font-family="'DroidSans'" font-size="3.5">I</text>
	<text x="32.7368" y="8.2607" fill="#787878" font-family="'DroidSans'" font-size="3.5">D</text>
	<text x="35.0981" y="8.2607" fill="#787878" font-family="'DroidSans'" font-size="3.5">I</text>
	<text x="36.2837" y="8.2607" fill="#787878" font-family="'DroidSans'" font-size="3.5">_</text>
	<text x="37.7231" y="8.2607" fill="#787878" font-family="'DroidSans'" font-size="3.5">I</text>
	<text x="38.9087" y="8.2607" fill="#787878" font-family="'DroidSans'" font-size="3.5">N</text>
</g>
</svg>
