<?xml version="1.0" encoding="utf-8"?>
<!-- Generator: Adobe Illustrator 16.0.0, SVG Export Plug-In . SVG Version: 6.00 Build 0)  -->
<!DOCTYPE svg PUBLIC "-//W3C//DTD SVG 1.1//EN" "http://www.w3.org/Graphics/SVG/1.1/DTD/svg11.dtd">
<svg version="1.1" id="Layer_1" xmlns:svg="http://www.w3.org/2000/svg"
	 xmlns="http://www.w3.org/2000/svg" xmlns:xlink="http://www.w3.org/1999/xlink" x="0px" y="0px" width="65.635px"
	 height="180.968px" viewBox="0 0 65.635 180.968" enable-background="new 0 0 65.635 180.968" xml:space="preserve">
<g id="schematic">
	<rect x="14.772" y="0.477" fill="#FFFFFF" width="50.4" height="180"/>
	<text id="label" x="31.8838" y="83.6777" font-family="'DroidSans'" font-size="4.25">CAMERA</text>
	<rect x="14.772" y="0.477" fill="#FFFFFF" width="50.4" height="180"/>
	<text id="label_1_" x="31.8838" y="83.6777" font-family="'DroidSans'" font-size="4.25">CAMERA</text>
	<text id="label_2_" x="33.0049" y="88.2109" font-family="'DroidSans'" font-size="4.25">SFV24R</text>
	<rect x="14.772" y="0.477" fill="#FFFFFF" width="50.4" height="180"/>
	<text id="label_3_" x="31.8838" y="83.6777" font-family="'DroidSans'" font-size="4.25">CAMERA</text>
	<text id="label_4_" x="33.0049" y="88.2109" font-family="'DroidSans'" font-size="4.25">SFV24R</text>
	<text id="label_5_" x="36.5967" y="92.7441" font-family="'DroidSans'" font-size="4.25">2ST</text>
	<line fill="none" stroke="#000000" stroke-width="0.9" stroke-linecap="round" x1="14.772" y1="0.477" x2="14.772" y2="180.477"/>
	
		<line fill="none" stroke="#000000" stroke-width="0.9" stroke-linecap="round" x1="14.772" y1="180.477" x2="65.173" y2="180.477"/>
	<line fill="none" stroke="#000000" stroke-width="0.9" stroke-linecap="round" x1="65.173" y1="180.477" x2="65.173" y2="0.477"/>
	<line fill="none" stroke="#000000" stroke-width="0.9" stroke-linecap="round" x1="65.173" y1="0.477" x2="14.772" y2="0.477"/>
	
		<line id="connector0pin" fill="none" stroke="#787878" stroke-width="0.75" stroke-linecap="round" x1="0.373" y1="7.677" x2="14.772" y2="7.677"/>
	<rect id="connector0terminal" x="0.373" y="7.677" fill="none" width="0" height="0"/>
	<text x="6.8838" y="6.627" fill="#8C8C8C" font-family="'DroidSans'" font-size="2.5">1</text>
	<text x="16.8721" y="8.377" fill="#787878" font-family="'DroidSans'" font-size="3.5">SCLK</text>
	
		<line id="connector1pin" fill="none" stroke="#787878" stroke-width="0.75" stroke-linecap="round" x1="0.373" y1="14.876" x2="14.772" y2="14.876"/>
	<rect id="connector1terminal" x="0.373" y="14.876" fill="none" width="0" height="0"/>
	<text x="6.8838" y="13.8281" fill="#8C8C8C" font-family="'DroidSans'" font-size="2.5">2</text>
	<text x="16.8721" y="15.5762" fill="#787878" font-family="'DroidSans'" font-size="3.5">AGND</text>
	
		<line id="connector2pin" fill="none" stroke="#787878" stroke-width="0.75" stroke-linecap="round" x1="0.373" y1="22.077" x2="14.772" y2="22.077"/>
	<rect id="connector2terminal" x="0.373" y="22.077" fill="none" width="0" height="0"/>
	<text x="6.8838" y="21.0273" fill="#8C8C8C" font-family="'DroidSans'" font-size="2.5">3</text>
	<text x="16.8721" y="22.7773" fill="#787878" font-family="'DroidSans'" font-size="3.5">AVDD28</text>
	
		<line id="connector3pin" fill="none" stroke="#787878" stroke-width="0.75" stroke-linecap="round" x1="0.373" y1="29.277" x2="14.772" y2="29.277"/>
	<rect id="connector3terminal" x="0.373" y="29.277" fill="none" width="0" height="0"/>
	<text x="6.8838" y="28.2266" fill="#8C8C8C" font-family="'DroidSans'" font-size="2.5">4</text>
	<text x="16.8721" y="29.9766" fill="#787878" font-family="'DroidSans'" font-size="3.5">RESET_N</text>
	
		<line id="connector4pin" fill="none" stroke="#787878" stroke-width="0.75" stroke-linecap="round" x1="0.373" y1="36.477" x2="14.772" y2="36.477"/>
	<rect id="connector4terminal" x="0.373" y="36.477" fill="none" width="0" height="0"/>
	<text x="6.8838" y="35.4277" fill="#8C8C8C" font-family="'DroidSans'" font-size="2.5">5</text>
	<text x="16.8721" y="37.1777" fill="#787878" font-family="'DroidSans'" font-size="3.5">CLK_IN</text>
	
		<line id="connector5pin" fill="none" stroke="#787878" stroke-width="0.75" stroke-linecap="round" x1="0.373" y1="43.677" x2="14.772" y2="43.677"/>
	<rect id="connector5terminal" x="0.373" y="43.677" fill="none" width="0" height="0"/>
	<text x="6.8838" y="42.627" fill="#8C8C8C" font-family="'DroidSans'" font-size="2.5">6</text>
	<text x="16.8721" y="44.377" fill="#787878" font-family="'DroidSans'" font-size="3.5">DGND</text>
	
		<line id="connector6pin" fill="none" stroke="#787878" stroke-width="0.75" stroke-linecap="round" x1="0.373" y1="50.877" x2="14.772" y2="50.877"/>
	<rect id="connector6terminal" x="0.373" y="50.877" fill="none" width="0" height="0"/>
	<text x="6.8838" y="49.8281" fill="#8C8C8C" font-family="'DroidSans'" font-size="2.5">7</text>
	<text x="16.8721" y="51.5762" fill="#787878" font-family="'DroidSans'" font-size="3.5">DOUT_0</text>
	
		<line id="connector7pin" fill="none" stroke="#787878" stroke-width="0.75" stroke-linecap="round" x1="0.373" y1="58.077" x2="14.772" y2="58.077"/>
	<rect id="connector7terminal" x="0.373" y="58.077" fill="none" width="0" height="0"/>
	<text x="6.8838" y="57.0273" fill="#8C8C8C" font-family="'DroidSans'" font-size="2.5">8</text>
	<text x="16.8721" y="58.7773" fill="#787878" font-family="'DroidSans'" font-size="3.5">DOUT_1</text>
	
		<line id="connector8pin" fill="none" stroke="#787878" stroke-width="0.75" stroke-linecap="round" x1="0.373" y1="65.277" x2="14.772" y2="65.277"/>
	<rect id="connector8terminal" x="0.373" y="65.277" fill="none" width="0" height="0"/>
	<text x="6.8838" y="64.2266" fill="#8C8C8C" font-family="'DroidSans'" font-size="2.5">9</text>
	<text x="16.8721" y="65.9766" fill="#787878" font-family="'DroidSans'" font-size="3.5">DOUT_2</text>
	
		<line id="connector9pin" fill="none" stroke="#787878" stroke-width="0.75" stroke-linecap="round" x1="0.373" y1="72.477" x2="14.772" y2="72.477"/>
	<rect id="connector9terminal" x="0.373" y="72.477" fill="none" width="0" height="0"/>
	<text x="6.1963" y="71.4277" fill="#8C8C8C" font-family="'DroidSans'" font-size="2.5">10</text>
	<text x="16.8721" y="73.1777" fill="#787878" font-family="'DroidSans'" font-size="3.5">DOUT_3</text>
	
		<line id="connector10pin" fill="none" stroke="#787878" stroke-width="0.75" stroke-linecap="round" x1="0.373" y1="79.677" x2="14.772" y2="79.677"/>
	<rect id="connector10terminal" x="0.373" y="79.677" fill="none" width="0" height="0"/>
	<text x="6.1963" y="78.627" fill="#8C8C8C" font-family="'DroidSans'" font-size="2.5">11</text>
	<text x="16.8721" y="80.377" fill="#787878" font-family="'DroidSans'" font-size="3.5">DOUT_4</text>
	
		<line id="connector11pin" fill="none" stroke="#787878" stroke-width="0.75" stroke-linecap="round" x1="0.373" y1="86.877" x2="14.772" y2="86.877"/>
	<rect id="connector11terminal" x="0.373" y="86.877" fill="none" width="0" height="0"/>
	<text x="6.1963" y="85.8281" fill="#8C8C8C" font-family="'DroidSans'" font-size="2.5">12</text>
	<text x="16.8721" y="87.5762" fill="#787878" font-family="'DroidSans'" font-size="3.5">DOUT_5</text>
	
		<line id="connector12pin" fill="none" stroke="#787878" stroke-width="0.75" stroke-linecap="round" x1="0.373" y1="94.076" x2="14.772" y2="94.076"/>
	<rect id="connector12terminal" x="0.373" y="94.076" fill="none" width="0" height="0.001"/>
	<text x="6.1963" y="93.0273" fill="#8C8C8C" font-family="'DroidSans'" font-size="2.5">13</text>
	<text x="16.8721" y="94.7773" fill="#787878" font-family="'DroidSans'" font-size="3.5">DOUT_6</text>
	
		<line id="connector13pin" fill="none" stroke="#787878" stroke-width="0.75" stroke-linecap="round" x1="0.373" y1="101.277" x2="14.772" y2="101.277"/>
	<rect id="connector13terminal" x="0.373" y="101.277" fill="none" width="0" height="0"/>
	<text x="6.1963" y="100.2266" fill="#8C8C8C" font-family="'DroidSans'" font-size="2.5">14</text>
	<text x="16.8721" y="101.9766" fill="#787878" font-family="'DroidSans'" font-size="3.5">DOUT_7</text>
	
		<line id="connector14pin" fill="none" stroke="#787878" stroke-width="0.75" stroke-linecap="round" x1="0.373" y1="108.477" x2="14.772" y2="108.477"/>
	<rect id="connector14terminal" x="0.373" y="108.477" fill="none" width="0" height="0"/>
	<text x="6.1963" y="107.4277" fill="#8C8C8C" font-family="'DroidSans'" font-size="2.5">15</text>
	<text x="16.8721" y="109.1777" fill="#787878" font-family="'DroidSans'" font-size="3.5">DOUT_8</text>
	
		<line id="connector15pin" fill="none" stroke="#787878" stroke-width="0.75" stroke-linecap="round" x1="0.373" y1="115.677" x2="14.772" y2="115.677"/>
	<rect id="connector15terminal" x="0.373" y="115.677" fill="none" width="0" height="0.001"/>
	<text x="6.1963" y="114.627" fill="#8C8C8C" font-family="'DroidSans'" font-size="2.5">16</text>
	<text x="16.8721" y="116.377" fill="#787878" font-family="'DroidSans'" font-size="3.5">VCLK_OUT</text>
	
		<line id="connector16pin" fill="none" stroke="#787878" stroke-width="0.75" stroke-linecap="round" x1="0.373" y1="122.877" x2="14.772" y2="122.877"/>
	<rect id="connector16terminal" x="0.373" y="122.877" fill="none" width="0" height="0"/>
	<text x="6.1963" y="121.8281" fill="#8C8C8C" font-family="'DroidSans'" font-size="2.5">17</text>
	<text x="16.8721" y="123.5762" fill="#787878" font-family="'DroidSans'" font-size="3.5">VALIDH</text>
	
		<line id="connector17pin" fill="none" stroke="#787878" stroke-width="0.75" stroke-linecap="round" x1="0.373" y1="130.076" x2="14.772" y2="130.076"/>
	<rect id="connector17terminal" x="0.373" y="130.076" fill="none" width="0" height="0.001"/>
	<text x="6.1963" y="129.0273" fill="#8C8C8C" font-family="'DroidSans'" font-size="2.5">18</text>
	<text x="16.8721" y="130.7773" fill="#787878" font-family="'DroidSans'" font-size="3.5">VALIDV</text>
	
		<line id="connector18pin" fill="none" stroke="#787878" stroke-width="0.75" stroke-linecap="round" x1="0.373" y1="137.277" x2="14.772" y2="137.277"/>
	<rect id="connector18terminal" x="0.373" y="137.277" fill="none" width="0" height="0"/>
	<text x="6.1963" y="136.2266" fill="#8C8C8C" font-family="'DroidSans'" font-size="2.5">19</text>
	<text x="16.8721" y="137.9766" fill="#787878" font-family="'DroidSans'" font-size="3.5">DVDD28</text>
	
		<line id="connector19pin" fill="none" stroke="#787878" stroke-width="0.75" stroke-linecap="round" x1="0.373" y1="144.477" x2="14.772" y2="144.477"/>
	<rect id="connector19terminal" x="0.373" y="144.477" fill="none" width="0" height="0"/>
	<text x="6.1963" y="143.4277" fill="#8C8C8C" font-family="'DroidSans'" font-size="2.5">20</text>
	<text x="16.8721" y="145.1777" fill="#787878" font-family="'DroidSans'" font-size="3.5">SDIN</text>
	
		<line id="connector20pin" fill="none" stroke="#787878" stroke-width="0.75" stroke-linecap="round" x1="0.373" y1="151.677" x2="14.772" y2="151.677"/>
	<rect id="connector20terminal" x="0.373" y="151.677" fill="none" width="0" height="0.001"/>
	<text x="6.1963" y="150.627" fill="#8C8C8C" font-family="'DroidSans'" font-size="2.5">21</text>
	<text x="16.8721" y="152.377" fill="#787878" font-family="'DroidSans'" font-size="3.5">PS1</text>
	
		<line id="connector21pin" fill="none" stroke="#787878" stroke-width="0.75" stroke-linecap="round" x1="0.373" y1="158.877" x2="14.772" y2="158.877"/>
	<rect id="connector21terminal" x="0.373" y="158.877" fill="none" width="0" height="0"/>
	<text x="6.1963" y="157.8281" fill="#8C8C8C" font-family="'DroidSans'" font-size="2.5">22</text>
	<text x="16.8721" y="159.5762" fill="#787878" font-family="'DroidSans'" font-size="3.5">PS2</text>
	
		<line id="connector22pin" fill="none" stroke="#787878" stroke-width="0.75" stroke-linecap="round" x1="0.373" y1="166.076" x2="14.772" y2="166.076"/>
	<rect id="connector22terminal" x="0.373" y="166.076" fill="none" width="0" height="0.001"/>
	<text x="6.1963" y="165.0273" fill="#8C8C8C" font-family="'DroidSans'" font-size="2.5">23</text>
	<text x="16.8721" y="166.7773" fill="#787878" font-family="'DroidSans'" font-size="3.5">SHIELD</text>
	
		<line id="connector23pin" fill="none" stroke="#787878" stroke-width="0.75" stroke-linecap="round" x1="0.373" y1="173.277" x2="14.772" y2="173.277"/>
	<rect id="connector23terminal" x="0.373" y="173.277" fill="none" width="0" height="0"/>
	<text x="6.1963" y="172.2266" fill="#8C8C8C" font-family="'DroidSans'" font-size="2.5">24</text>
	<text x="16.8721" y="173.9766" fill="#787878" font-family="'DroidSans'" font-size="3.5">LED_CTRL</text>
</g>
</svg>
