<?xml version="1.0" encoding="utf-8"?>
<!-- Generator: Adobe Illustrator 16.0.0, SVG Export Plug-In . SVG Version: 6.00 Build 0)  -->
<!DOCTYPE svg PUBLIC "-//W3C//DTD SVG 1.1//EN" "http://www.w3.org/Graphics/SVG/1.1/DTD/svg11.dtd">
<svg version="1.1" id="Layer_1" xmlns:svg="http://www.w3.org/2000/svg"
	 xmlns="http://www.w3.org/2000/svg" xmlns:xlink="http://www.w3.org/1999/xlink" x="0px" y="0px" width="158.75px"
	 height="339.119px" viewBox="0 0 158.75 339.119" enable-background="new 0 0 158.75 339.119" xml:space="preserve">
<g id="schematic">
	<rect x="14.883" y="0.36" fill="#FFFFFF" width="115.2" height="338.4"/>
	<text id="label" x="66.3838" y="167.2932" font-family="'DroidSans'" font-size="4.25">GE864</text>
	<line fill="none" stroke="#000000" stroke-width="0.9" stroke-linecap="round" x1="14.883" y1="0.36" x2="130.083" y2="0.36"/>
	<line fill="none" stroke="#000000" stroke-width="0.9" stroke-linecap="round" x1="130.083" y1="0.36" x2="130.083" y2="338.76"/>
	<line fill="none" stroke="#000000" stroke-width="0.9" stroke-linecap="round" x1="130.083" y1="338.76" x2="14.883" y2="338.76"/>
	<line fill="none" stroke="#000000" stroke-width="0.9" stroke-linecap="round" x1="14.883" y1="338.76" x2="14.883" y2="0.36"/>
	
		<line id="connector93pin" fill="none" stroke="#787878" stroke-width="0.75" stroke-linecap="round" x1="0.483" y1="180.36" x2="14.883" y2="180.36"/>
	<rect id="connector93terminal" x="0.483" y="180.36" fill="none" width="0" height="0.001"/>
	<text x="6.3057" y="179.3088" fill="#8C8C8C" font-family="'DroidSans'" font-size="2.5">94</text>
	<text x="16.9834" y="181.0588" fill="#787878" font-family="'DroidSans'" font-size="3.5">EAR_MT-</text>
	
		<line id="connector107pin" fill="none" stroke="#787878" stroke-width="0.75" stroke-linecap="round" x1="0.483" y1="187.56" x2="14.883" y2="187.56"/>
	<rect id="connector107terminal" x="0.483" y="187.56" fill="none" width="0" height="0"/>
	<text x="5.6182" y="186.51" fill="#8C8C8C" font-family="'DroidSans'" font-size="2.5">108</text>
	<text x="16.9834" y="188.26" fill="#787878" font-family="'DroidSans'" font-size="3.5">EAR_MT+</text>
	
		<line id="connector109pin" fill="none" stroke="#787878" stroke-width="0.75" stroke-linecap="round" x1="0.483" y1="194.76" x2="14.883" y2="194.76"/>
	<rect id="connector109terminal" x="0.483" y="194.76" fill="none" width="0" height="0"/>
	<text x="5.6182" y="193.7092" fill="#8C8C8C" font-family="'DroidSans'" font-size="2.5">110</text>
	<text x="16.9834" y="195.4592" fill="#787878" font-family="'DroidSans'" font-size="3.5">EAR_HF+</text>
	
		<line id="connector108pin" fill="none" stroke="#787878" stroke-width="0.75" stroke-linecap="round" x1="0.483" y1="201.96" x2="14.883" y2="201.96"/>
	<rect id="connector108terminal" x="0.483" y="201.96" fill="none" width="0" height="0"/>
	<text x="5.6182" y="200.9104" fill="#8C8C8C" font-family="'DroidSans'" font-size="2.5">109</text>
	<text x="16.9834" y="202.6604" fill="#787878" font-family="'DroidSans'" font-size="3.5">EAR_HF-</text>
	
		<line id="connector84pin" fill="none" stroke="#787878" stroke-width="0.75" stroke-linecap="round" x1="0.483" y1="209.159" x2="14.883" y2="209.159"/>
	<rect id="connector84terminal" x="0.483" y="209.159" fill="none" width="0" height="0.001"/>
	<text x="6.3057" y="208.1096" fill="#8C8C8C" font-family="'DroidSans'" font-size="2.5">85</text>
	<text x="16.9834" y="209.8596" fill="#787878" font-family="'DroidSans'" font-size="3.5">MIC_MT+</text>
	
		<line id="connector98pin" fill="none" stroke="#787878" stroke-width="0.75" stroke-linecap="round" x1="0.483" y1="216.36" x2="14.883" y2="216.36"/>
	<rect id="connector98terminal" x="0.483" y="216.36" fill="none" width="0" height="0.001"/>
	<text x="6.3057" y="215.3088" fill="#8C8C8C" font-family="'DroidSans'" font-size="2.5">99</text>
	<text x="16.9834" y="217.0588" fill="#787878" font-family="'DroidSans'" font-size="3.5">MIC_MT-</text>
	
		<line id="connector87pin" fill="none" stroke="#787878" stroke-width="0.75" stroke-linecap="round" x1="0.483" y1="223.56" x2="14.883" y2="223.56"/>
	<rect id="connector87terminal" x="0.483" y="223.56" fill="none" width="0" height="0"/>
	<text x="6.3057" y="222.51" fill="#8C8C8C" font-family="'DroidSans'" font-size="2.5">88</text>
	<text x="16.9834" y="224.26" fill="#787878" font-family="'DroidSans'" font-size="3.5">MIC_HF+</text>
	
		<line id="connector97pin" fill="none" stroke="#787878" stroke-width="0.75" stroke-linecap="round" x1="0.483" y1="230.76" x2="14.883" y2="230.76"/>
	<rect id="connector97terminal" x="0.483" y="230.76" fill="none" width="0" height="0"/>
	<text x="6.3057" y="229.7092" fill="#8C8C8C" font-family="'DroidSans'" font-size="2.5">98</text>
	<text x="16.9834" y="231.4592" fill="#787878" font-family="'DroidSans'" font-size="3.5">MIC_HF-</text>
	
		<line id="connector96pin" fill="none" stroke="#787878" stroke-width="0.75" stroke-linecap="round" x1="144.483" y1="129.96" x2="130.083" y2="129.96"/>
	<rect id="connector96terminal" x="144.483" y="129.96" fill="none" width="0" height="0"/>
	<text x="135.9053" y="128.9104" fill="#8C8C8C" font-family="'DroidSans'" font-size="2.5">97</text>
	<text x="122.0947" y="130.6604" fill="#787878" font-family="'DroidSans'" font-size="3.5">AXE</text>
	
		<line id="connector101pin" fill="none" stroke="#787878" stroke-width="0.75" stroke-linecap="round" x1="144.483" y1="122.76" x2="130.083" y2="122.76"/>
	<rect id="connector101terminal" x="144.483" y="122.76" fill="none" width="0" height="0"/>
	<text x="135.2178" y="121.7092" fill="#8C8C8C" font-family="'DroidSans'" font-size="2.5">102</text>
	<text x="116.0791" y="123.4592" fill="#787878" font-family="'DroidSans'" font-size="3.5">SIMCLK</text>
	
		<line id="connector89pin" fill="none" stroke="#787878" stroke-width="0.75" stroke-linecap="round" x1="144.483" y1="115.56" x2="130.083" y2="115.56"/>
	<rect id="connector89terminal" x="144.483" y="115.56" fill="none" width="0" height="0"/>
	<text x="135.9053" y="114.51" fill="#8C8C8C" font-family="'DroidSans'" font-size="2.5">90</text>
	<text x="116.2373" y="116.26" fill="#787878" font-family="'DroidSans'" font-size="3.5">SIMRST</text>
	
		<line id="connector100pin" fill="none" stroke="#787878" stroke-width="0.75" stroke-linecap="round" x1="144.483" y1="108.36" x2="130.083" y2="108.36"/>
	<rect id="connector100terminal" x="144.483" y="108.36" fill="none" width="0" height="0.001"/>
	<text x="135.2178" y="107.3108" fill="#8C8C8C" font-family="'DroidSans'" font-size="2.5">101</text>
	<text x="118.184" y="6 109.0588" fill="#787878" font-family="'DroidSans'" font-size="3.5">SIMIO</text>
	
		<line id="connector114pin" fill="none" stroke="#787878" stroke-width="0.75" stroke-linecap="round" x1="144.483" y1="101.16" x2="130.083" y2="101.16"/>
	<rect id="connector114terminal" x="144.483" y="101.16" fill="none" width="0" height="0"/>
	<text x="135.2178" y="100.1096" fill="#8C8C8C" font-family="'DroidSans'" font-size="2.5">115</text>
	<text x="118.1982" y="101.8596" fill="#787878" font-family="'DroidSans'" font-size="3.5">SIMIN</text>
	
		<line id="connector38pin" fill="none" stroke="#787878" stroke-width="0.75" stroke-linecap="round" x1="144.483" y1="93.96" x2="130.083" y2="93.96"/>
	<rect id="connector38terminal" x="144.483" y="93.96" fill="none" width="0" height="0"/>
	<text x="135.9053" y="92.9104" fill="#8C8C8C" font-family="'DroidSans'" font-size="2.5">39</text>
	<text x="115.8662" y="94.6604" fill="#787878" font-family="'DroidSans'" font-size="3.5">SIMVCC</text>
	
		<line id="connector112pin" fill="none" stroke="#787878" stroke-width="0.75" stroke-linecap="round" x1="0.483" y1="101.16" x2="14.883" y2="101.16"/>
	<rect id="connector112terminal" x="0.483" y="101.16" fill="none" width="0" height="0"/>
	<text x="5.6182" y="100.1096" fill="#8C8C8C" font-family="'DroidSans'" font-size="2.5">113</text>
	<text x="16.9834" y="101.8596" fill="#787878" font-family="'DroidSans'" font-size="3.5">TX_TRACE</text>
	
		<line id="connector103pin" fill="none" stroke="#787878" stroke-width="0.75" stroke-linecap="round" x1="0.483" y1="108.36" x2="14.883" y2="108.36"/>
	<rect id="connector103terminal" x="0.483" y="108.36" fill="none" width="0" height="0.001"/>
	<text x="5.6182" y="107.3108" fill="#8C8C8C" font-family="'DroidSans'" font-size="2.5">104</text>
	<text x="16.9834" y="109.0588" fill="#787878" font-family="'DroidSans'" font-size="3.5">RX_TRACE</text>
	
		<line id="connector69pin" fill="none" stroke="#787878" stroke-width="0.75" stroke-linecap="round" x1="0.483" y1="115.56" x2="14.883" y2="115.56"/>
	<rect id="connector69terminal" x="0.483" y="115.56" fill="none" width="0" height="0"/>
	<text x="6.3057" y="114.51" fill="#8C8C8C" font-family="'DroidSans'" font-size="2.5">70</text>
	<text x="16.9834" y="116.26" fill="#787878" font-family="'DroidSans'" font-size="3.5">C103/TXD</text>
	
		<line id="connector86pin" fill="none" stroke="#787878" stroke-width="0.75" stroke-linecap="round" x1="0.483" y1="122.76" x2="14.883" y2="122.76"/>
	<rect id="connector86terminal" x="0.483" y="122.76" fill="none" width="0" height="0"/>
	<text x="6.3057" y="121.7092" fill="#8C8C8C" font-family="'DroidSans'" font-size="2.5">87</text>
	<text x="16.9834" y="123.4592" fill="#787878" font-family="'DroidSans'" font-size="3.5">C104/RXD</text>
	
		<line id="connector70pin" fill="none" stroke="#787878" stroke-width="0.75" stroke-linecap="round" x1="0.483" y1="129.96" x2="14.883" y2="129.96"/>
	<rect id="connector70terminal" x="0.483" y="129.96" fill="none" width="0" height="0"/>
	<text x="6.3057" y="128.9104" fill="#8C8C8C" font-family="'DroidSans'" font-size="2.5">71</text>
	<text x="16.9834" y="130.6604" fill="#787878" font-family="'DroidSans'" font-size="3.5">C108/DTR</text>
	
		<line id="connector71pin" fill="none" stroke="#787878" stroke-width="0.75" stroke-linecap="round" x1="0.483" y1="137.16" x2="14.883" y2="137.16"/>
	<rect id="connector71terminal" x="0.483" y="137.16" fill="none" width="0" height="0"/>
	<text x="6.3057" y="136.1096" fill="#8C8C8C" font-family="'DroidSans'" font-size="2.5">72</text>
	<text x="16.9834" y="137.8596" fill="#787878" font-family="'DroidSans'" font-size="3.5">C105/RTS</text>
	
		<line id="connector60pin" fill="none" stroke="#787878" stroke-width="0.75" stroke-linecap="round" x1="0.483" y1="144.36" x2="14.883" y2="144.36"/>
	<rect id="connector60terminal" x="0.483" y="144.36" fill="none" width="0" height="0.001"/>
	<text x="6.3057" y="143.3088" fill="#8C8C8C" font-family="'DroidSans'" font-size="2.5">61</text>
	<text x="16.9834" y="145.0588" fill="#787878" font-family="'DroidSans'" font-size="3.5">C106/CTS</text>
	
		<line id="connector88pin" fill="none" stroke="#787878" stroke-width="0.75" stroke-linecap="round" x1="0.483" y1="151.56" x2="14.883" y2="151.56"/>
	<rect id="connector88terminal" x="0.483" y="151.56" fill="none" width="0" height="0"/>
	<text x="6.3057" y="150.51" fill="#8C8C8C" font-family="'DroidSans'" font-size="2.5">89</text>
	<text x="16.9834" y="152.26" fill="#787878" font-family="'DroidSans'" font-size="3.5">C109/DCD</text>
	
		<line id="connector110pin" fill="none" stroke="#787878" stroke-width="0.75" stroke-linecap="round" x1="0.483" y1="158.76" x2="14.883" y2="158.76"/>
	<rect id="connector110terminal" x="0.483" y="158.76" fill="none" width="0" height="0"/>
	<text x="5.6182" y="157.7092" fill="#8C8C8C" font-family="'DroidSans'" font-size="2.5">111</text>
	<text x="16.9834" y="159.4592" fill="#787878" font-family="'DroidSans'" font-size="3.5">C107/DSR</text>
	
		<line id="connector63pin" fill="none" stroke="#787878" stroke-width="0.75" stroke-linecap="round" x1="0.483" y1="165.96" x2="14.883" y2="165.96"/>
	<rect id="connector63terminal" x="0.483" y="165.96" fill="none" width="0" height="0"/>
	<text x="6.3057" y="164.9104" fill="#8C8C8C" font-family="'DroidSans'" font-size="2.5">64</text>
	<text x="16.9834" y="166.6604" fill="#787878" font-family="'DroidSans'" font-size="3.5">C125/RING</text>
	
		<line id="connector67pin" fill="none" stroke="#787878" stroke-width="0.75" stroke-linecap="round" x1="144.483" y1="29.16" x2="130.083" y2="29.16"/>
	<rect id="connector67terminal" x="144.483" y="29.16" fill="none" width="0" height="0"/>
	<text x="135.9053" y="28.1096" fill="#8C8C8C" font-family="'DroidSans'" font-size="2.5">68</text>
	<text x="113.1221" y="29.8596" fill="#787878" font-family="'DroidSans'" font-size="3.5">DAC_OUT</text>
	
		<line id="connector120pin" fill="none" stroke="#787878" stroke-width="0.75" stroke-linecap="round" x1="144.483" y1="36.36" x2="130.083" y2="36.36"/>
	<rect id="connector120terminal" x="144.483" y="36.36" fill="none" width="0" height="0.001"/>
	<text x="135.2178" y="35.3108" fill="#8C8C8C" font-family="'DroidSans'" font-size="2.5">121</text>
	<text x="114.2803" y="37.0588" fill="#787878" font-family="'DroidSans'" font-size="3.5">ACD_IN1</text>
	
		<line id="connector119pin" fill="none" stroke="#787878" stroke-width="0.75" stroke-linecap="round" x1="144.483" y1="43.56" x2="130.083" y2="43.56"/>
	<rect id="connector119terminal" x="144.483" y="43.56" fill="none" width="0" height="0.001"/>
	<text x="135.2178" y="42.51" fill="#8C8C8C" font-family="'DroidSans'" font-size="2.5">120</text>
	<text x="114.2471" y="44.26" fill="#787878" font-family="'DroidSans'" font-size="3.5">ADC_IN2</text>
	
		<line id="connector117pin" fill="none" stroke="#787878" stroke-width="0.75" stroke-linecap="round" x1="144.483" y1="50.76" x2="130.083" y2="50.76"/>
	<rect id="connector117terminal" x="144.483" y="50.76" fill="none" width="0" height="0"/>
	<text x="135.2178" y="49.7092" fill="#8C8C8C" font-family="'DroidSans'" font-size="2.5">118</text>
	<text x="114.2471" y="51.4592" fill="#787878" font-family="'DroidSans'" font-size="3.5">ADC_IN3</text>
	
		<line id="connector14pin" fill="none" stroke="#787878" stroke-width="0.75" stroke-linecap="round" x1="0.483" y1="72.36" x2="14.883" y2="72.36"/>
	<rect id="connector14terminal" x="0.483" y="72.36" fill="none" width="0" height="0.001"/>
	<text x="6.3057" y="71.3108" fill="#8C8C8C" font-family="'DroidSans'" font-size="2.5">15</text>
	<text x="16.9834" y="73.0588" fill="#787878" font-family="'DroidSans'" font-size="3.5">RESET</text>
	
		<line id="connector15pin" fill="none" stroke="#787878" stroke-width="0.75" stroke-linecap="round" x1="0.483" y1="79.56" x2="14.883" y2="79.56"/>
	<rect id="connector15terminal" x="0.483" y="79.56" fill="none" width="0" height="0.001"/>
	<text x="6.3057" y="78.51" fill="#8C8C8C" font-family="'DroidSans'" font-size="2.5">16</text>
	<text x="16.9834" y="80.26" fill="#787878" font-family="'DroidSans'" font-size="3.5">VRTC</text>
	
		<line id="connector77pin" fill="none" stroke="#787878" stroke-width="0.75" stroke-linecap="round" x1="0.483" y1="86.76" x2="14.883" y2="86.76"/>
	<rect id="connector77terminal" x="0.483" y="86.76" fill="none" width="0" height="0"/>
	<text x="6.3057" y="85.7092" fill="#8C8C8C" font-family="'DroidSans'" font-size="2.5">78</text>
	<text x="16.9834" y="87.4592" fill="#787878" font-family="'DroidSans'" font-size="3.5">STAT_LED</text>
	
		<line id="connector8pin" fill="none" stroke="#787878" stroke-width="0.75" stroke-linecap="round" x1="0.483" y1="7.56" x2="14.883" y2="7.56"/>
	<rect id="connector8terminal" x="0.483" y="7.56" fill="none" width="0" height="0.001"/>
	<text x="6.9951" y="6.51" fill="#8C8C8C" font-family="'DroidSans'" font-size="2.5">9</text>
	<text x="16.9834" y="8.26" fill="#787878" font-family="'DroidSans'" font-size="3.5">CHARGE</text>
	<line id="connector21pin" fill="none" x1="0.483" y1="7.56" x2="14.883" y2="7.56"/>
	<rect id="connector21terminal" x="0.483" y="7.56" fill="none" width="0" height="0.001"/>
	
		<line id="connector51pin" fill="none" stroke="#787878" stroke-width="0.75" stroke-linecap="round" x1="0.483" y1="65.16" x2="14.883" y2="65.16"/>
	<rect id="connector51terminal" x="0.483" y="65.16" fill="none" width="0" height="0"/>
	<text x="6.3057" y="64.1096" fill="#8C8C8C" font-family="'DroidSans'" font-size="2.5">52</text>
	<text x="16.9834" y="65.8596" fill="#787878" font-family="'DroidSans'" font-size="3.5">ON_OFF</text>
	
		<line id="connector44pin" fill="none" stroke="#787878" stroke-width="0.75" stroke-linecap="round" x1="144.483" y1="65.16" x2="130.083" y2="65.16"/>
	<rect id="connector44terminal" x="144.483" y="65.16" fill="none" width="0" height="0"/>
	<text x="135.9053" y="64.1096" fill="#8C8C8C" font-family="'DroidSans'" font-size="2.5">45</text>
	<text x="117.7197" y="65.8596" fill="#787878" font-family="'DroidSans'" font-size="3.5">VAUX1</text>
	
		<line id="connector82pin" fill="none" stroke="#787878" stroke-width="0.75" stroke-linecap="round" x1="144.483" y1="72.36" x2="130.083" y2="72.36"/>
	<rect id="connector82terminal" x="144.483" y="72.36" fill="none" width="0" height="0.001"/>
	<text x="135.9053" y="71.3108" fill="#8C8C8C" font-family="'DroidSans'" font-size="2.5">83</text>
	<text x="112.6143" y="73.0588" fill="#787878" font-family="'DroidSans'" font-size="3.5">PWRMON</text>
	
		<line id="connector39pin" fill="none" stroke="#787878" stroke-width="0.75" stroke-linecap="round" x1="144.483" y1="7.56" x2="130.083" y2="7.56"/>
	<rect id="connector39terminal" x="144.483" y="7.56" fill="none" width="0" height="0.001"/>
	<text x="135.9053" y="6.51" fill="#8C8C8C" font-family="'DroidSans'" font-size="2.5">40</text>
	<text x="112.4092" y="8.26" fill="#787878" font-family="'DroidSans'" font-size="3.5">ANTENNA</text>
	
		<line id="connector66pin" fill="none" stroke="#787878" stroke-width="0.75" stroke-linecap="round" x1="144.483" y1="79.56" x2="130.083" y2="79.56"/>
	<rect id="connector66terminal" x="144.483" y="79.56" fill="none" width="0" height="0.001"/>
	<text x="135.9053" y="78.51" fill="#8C8C8C" font-family="'DroidSans'" font-size="2.5">67</text>
	<text x="112.4834" y="80.26" fill="#787878" font-family="'DroidSans'" font-size="3.5">DV12_CLK</text>
	
		<line id="connector41pin" fill="none" stroke="#787878" stroke-width="0.75" stroke-linecap="round" x1="144.483" y1="223.56" x2="130.083" y2="223.56"/>
	<rect id="connector41terminal" x="144.483" y="223.56" fill="none" width="0" height="0"/>
	<text x="135.9053" y="222.51" fill="#8C8C8C" font-family="'DroidSans'" font-size="2.5">42</text>
	<text x="112.7959" y="224.26" fill="#787878" font-family="'DroidSans'" font-size="3.5">TGPIO_12</text>
	
		<line id="connector12pin" fill="none" stroke="#787878" stroke-width="0.75" stroke-linecap="round" x1="144.483" y1="158.76" x2="130.083" y2="158.76"/>
	<rect id="connector12terminal" x="144.483" y="158.76" fill="none" width="0" height="0"/>
	<text x="135.9053" y="157.7092" fill="#8C8C8C" font-family="'DroidSans'" font-size="2.5">13</text>
	<text x="112.7959" y="159.4592" fill="#787878" font-family="'DroidSans'" font-size="3.5">TGPIO_03</text>
	
		<line id="connector24pin" fill="none" stroke="#787878" stroke-width="0.75" stroke-linecap="round" x1="144.483" y1="165.96" x2="130.083" y2="165.96"/>
	<rect id="connector24terminal" x="144.483" y="165.96" fill="none" width="0" height="0"/>
	<text x="135.9053" y="164.9104" fill="#8C8C8C" font-family="'DroidSans'" font-size="2.5">25</text>
	<text x="112.7959" y="166.6604" fill="#787878" font-family="'DroidSans'" font-size="3.5">TGPIO_04</text>
	
		<line id="connector27pin" fill="none" stroke="#787878" stroke-width="0.75" stroke-linecap="round" x1="144.483" y1="281.159" x2="130.083" y2="281.159"/>
	<rect id="connector27terminal" x="144.483" y="281.159" fill="none" width="0" height="0.001"/>
	<text x="135.9053" y="280.1096" fill="#8C8C8C" font-family="'DroidSans'" font-size="2.5">28</text>
	<text x="112.7959" y="281.8596" fill="#787878" font-family="'DroidSans'" font-size="3.5">TGPIO_20</text>
	
		<line id="connector35pin" fill="none" stroke="#787878" stroke-width="0.75" stroke-linecap="round" x1="144.483" y1="237.96" x2="130.083" y2="237.96"/>
	<rect id="connector35terminal" x="144.483" y="237.96" fill="none" width="0" height="0"/>
	<text x="135.9053" y="236.9104" fill="#8C8C8C" font-family="'DroidSans'" font-size="2.5">36</text>
	<text x="112.7959" y="238.6604" fill="#787878" font-family="'DroidSans'" font-size="3.5">TGPIO_14</text>
	
		<line id="connector2pin" fill="none" stroke="#787878" stroke-width="0.75" stroke-linecap="round" x1="144.483" y1="216.36" x2="130.083" y2="216.36"/>
	<rect id="connector2terminal" x="144.483" y="216.36" fill="none" width="0" height="0.001"/>
	<text x="136.5947" y="215.3088" fill="#8C8C8C" font-family="'DroidSans'" font-size="2.5">3</text>
	<text x="112.7959" y="217.0588" fill="#787878" font-family="'DroidSans'" font-size="3.5">TGPIO_11</text>
	
		<line id="connector4pin" fill="none" stroke="#787878" stroke-width="0.75" stroke-linecap="round" x1="144.483" y1="273.96" x2="130.083" y2="273.96"/>
	<rect id="connector4terminal" x="144.483" y="273.96" fill="none" width="0" height="0"/>
	<text x="136.5947" y="272.9104" fill="#8C8C8C" font-family="'DroidSans'" font-size="2.5">5</text>
	<text x="112.7959" y="274.6604" fill="#787878" font-family="'DroidSans'" font-size="3.5">TGPIO_19</text>
	
		<line id="connector5pin" fill="none" stroke="#787878" stroke-width="0.75" stroke-linecap="round" x1="144.483" y1="144.36" x2="130.083" y2="144.36"/>
	<rect id="connector5terminal" x="144.483" y="144.36" fill="none" width="0" height="0.001"/>
	<text x="136.5947" y="143.3088" fill="#8C8C8C" font-family="'DroidSans'" font-size="2.5">6</text>
	<text x="112.7959" y="145.0588" fill="#787878" font-family="'DroidSans'" font-size="3.5">TGPIO_01</text>
	
		<line id="connector74pin" fill="none" stroke="#787878" stroke-width="0.75" stroke-linecap="round" x1="144.483" y1="266.76" x2="130.083" y2="266.76"/>
	<rect id="connector74terminal" x="144.483" y="266.76" fill="none" width="0" height="0"/>
	<text x="135.9053" y="265.7092" fill="#8C8C8C" font-family="'DroidSans'" font-size="2.5">75</text>
	<text x="112.7959" y="267.4592" fill="#787878" font-family="'DroidSans'" font-size="3.5">TGPIO_18</text>
	
		<line id="connector53pin" fill="none" stroke="#787878" stroke-width="0.75" stroke-linecap="round" x1="144.483" y1="259.56" x2="130.083" y2="259.56"/>
	<rect id="connector53terminal" x="144.483" y="259.56" fill="none" width="0" height="0"/>
	<text x="135.9053" y="258.51" fill="#8C8C8C" font-family="'DroidSans'" font-size="2.5">54</text>
	<text x="112.7959" y="260.26" fill="#787878" font-family="'DroidSans'" font-size="3.5">TGPIO_17</text>
	
		<line id="connector52pin" fill="none" stroke="#787878" stroke-width="0.75" stroke-linecap="round" x1="144.483" y1="245.159" x2="130.083" y2="245.159"/>
	<rect id="connector52terminal" x="144.483" y="245.159" fill="none" width="0" height="0.001"/>
	<text x="135.9053" y="244.1096" fill="#8C8C8C" font-family="'DroidSans'" font-size="2.5">53</text>
	<text x="112.7959" y="245.8596" fill="#787878" font-family="'DroidSans'" font-size="3.5">TGPIO_15</text>
	
		<line id="connector118pin" fill="none" stroke="#787878" stroke-width="0.75" stroke-linecap="round" x1="144.483" y1="194.76" x2="130.083" y2="194.76"/>
	<rect id="connector118terminal" x="144.483" y="194.76" fill="none" width="0" height="0"/>
	<text x="135.2178" y="193.7092" fill="#8C8C8C" font-family="'DroidSans'" font-size="2.5">119</text>
	<text x="112.7959" y="195.4592" fill="#787878" font-family="'DroidSans'" font-size="3.5">TGPIO_08</text>
	
		<line id="connector46pin" fill="none" stroke="#787878" stroke-width="0.75" stroke-linecap="round" x1="144.483" y1="180.36" x2="130.083" y2="180.36"/>
	<rect id="connector46terminal" x="144.483" y="180.36" fill="none" width="0" height="0.001"/>
	<text x="135.9053" y="179.3088" fill="#8C8C8C" font-family="'DroidSans'" font-size="2.5">47</text>
	<text x="100.4053" y="181.0588" fill="#787878" font-family="'DroidSans'" font-size="3.5">TGPIO_06/ALARM</text>
	
		<line id="connector90pin" fill="none" stroke="#787878" stroke-width="0.75" stroke-linecap="round" x1="144.483" y1="201.96" x2="130.083" y2="201.96"/>
	<rect id="connector90terminal" x="144.483" y="201.96" fill="none" width="0" height="0"/>
	<text x="135.9053" y="200.9104" fill="#8C8C8C" font-family="'DroidSans'" font-size="2.5">91</text>
	<text x="112.7959" y="202.6604" fill="#787878" font-family="'DroidSans'" font-size="3.5">TGPIO_09</text>
	
		<line id="connector65pin" fill="none" stroke="#787878" stroke-width="0.75" stroke-linecap="round" x1="144.483" y1="151.56" x2="130.083" y2="151.56"/>
	<rect id="connector65terminal" x="144.483" y="151.56" fill="none" width="0" height="0"/>
	<text x="135.9053" y="150.51" fill="#8C8C8C" font-family="'DroidSans'" font-size="2.5">66</text>
	<text x="106.083" y="152.26" fill="#787878" font-family="'DroidSans'" font-size="3.5">TGPIO_02/JDR</text>
	
		<line id="connector94pin" fill="none" stroke="#787878" stroke-width="0.75" stroke-linecap="round" x1="144.483" y1="187.56" x2="130.083" y2="187.56"/>
	<rect id="connector94terminal" x="144.483" y="187.56" fill="none" width="0" height="0"/>
	<text x="135.9053" y="186.51" fill="#8C8C8C" font-family="'DroidSans'" font-size="2.5">95</text>
	<text x="99.1865" y="188.26" fill="#787878" font-family="'DroidSans'" font-size="3.5">TGPIO_07/BUZZER</text>
	
		<line id="connector55pin" fill="none" stroke="#787878" stroke-width="0.75" stroke-linecap="round" x1="144.483" y1="252.36" x2="130.083" y2="252.36"/>
	<rect id="connector55terminal" x="144.483" y="252.36" fill="none" width="0" height="0.001"/>
	<text x="135.9053" y="251.3088" fill="#8C8C8C" font-family="'DroidSans'" font-size="2.5">56</text>
	<text x="112.7959" y="253.0588" fill="#787878" font-family="'DroidSans'" font-size="3.5">TGPIO_16</text>
	
		<line id="connector106pin" fill="none" stroke="#787878" stroke-width="0.75" stroke-linecap="round" x1="144.483" y1="230.76" x2="130.083" y2="230.76"/>
	<rect id="connector106terminal" x="144.483" y="230.76" fill="none" width="0" height="0"/>
	<text x="135.2178" y="229.7092" fill="#8C8C8C" font-family="'DroidSans'" font-size="2.5">107</text>
	<text x="112.7959" y="231.4592" fill="#787878" font-family="'DroidSans'" font-size="3.5">TGPIO_13</text>
	
		<line id="connector83pin" fill="none" stroke="#787878" stroke-width="0.75" stroke-linecap="round" x1="144.483" y1="173.16" x2="130.083" y2="173.16"/>
	<rect id="connector83terminal" x="144.483" y="173.16" fill="none" width="0" height="0"/>
	<text x="135.9053" y="172.1096" fill="#8C8C8C" font-family="'DroidSans'" font-size="2.5">84</text>
	<text x="95.7803" y="173.8596" fill="#787878" font-family="'DroidSans'" font-size="3.5">TGPIO_05/RFTXMON</text>
	
		<line id="connector105pin" fill="none" stroke="#787878" stroke-width="0.75" stroke-linecap="round" x1="144.483" y1="288.36" x2="130.083" y2="288.36"/>
	<rect id="connector105terminal" x="144.483" y="288.36" fill="none" width="0" height="0"/>
	<text x="135.2178" y="287.3108" fill="#8C8C8C" font-family="'DroidSans'" font-size="2.5">106</text>
	<text x="112.7959" y="289.0588" fill="#787878" font-family="'DroidSans'" font-size="3.5">TGPIO_21</text>
	
		<line id="connector80pin" fill="none" stroke="#787878" stroke-width="0.75" stroke-linecap="round" x1="144.483" y1="295.56" x2="130.083" y2="295.56"/>
	<rect id="connector80terminal" x="144.483" y="295.56" fill="none" width="0" height="0"/>
	<text x="135.9053" y="294.51" fill="#8C8C8C" font-family="'DroidSans'" font-size="2.5">81</text>
	<text x="112.7959" y="296.26" fill="#787878" font-family="'DroidSans'" font-size="3.5">TGPIO_22</text>
	
		<line id="connector32pin" fill="none" stroke="#787878" stroke-width="0.75" stroke-linecap="round" x1="144.483" y1="209.159" x2="130.083" y2="209.159"/>
	<rect id="connector32terminal" x="144.483" y="209.159" fill="none" width="0" height="0.001"/>
	<text x="135.9053" y="208.1096" fill="#8C8C8C" font-family="'DroidSans'" font-size="2.5">33</text>
	<text x="112.7959" y="209.8596" fill="#787878" font-family="'DroidSans'" font-size="3.5">TGPIO_10</text>
	
		<line id="connector9pin" fill="none" stroke="#787878" stroke-width="0.75" stroke-linecap="round" x1="0.483" y1="29.16" x2="14.883" y2="29.16"/>
	<rect id="connector9terminal" x="0.483" y="29.16" fill="none" width="0" height="0"/>
	<text x="6.3057" y="28.1096" fill="#8C8C8C" font-family="'DroidSans'" font-size="2.5">10</text>
	<text x="16.9834" y="29.8596" fill="#787878" font-family="'DroidSans'" font-size="3.5">VBATT</text>
	<line id="connector7pin" fill="none" x1="0.483" y1="29.16" x2="14.883" y2="29.16"/>
	<rect id="connector7terminal" x="0.483" y="29.16" fill="none" width="0" height="0"/>
	<line id="connector16pin" fill="none" x1="0.483" y1="29.16" x2="14.883" y2="29.16"/>
	<rect id="connector16terminal" x="0.483" y="29.16" fill="none" width="0" height="0"/>
	<line id="connector18pin" fill="none" x1="0.483" y1="29.16" x2="14.883" y2="29.16"/>
	<rect id="connector18terminal" x="0.483" y="29.16" fill="none" width="0" height="0"/>
	
		<line id="connector3pin" fill="none" stroke="#787878" stroke-width="0.75" stroke-linecap="round" x1="0.483" y1="245.159" x2="14.883" y2="245.159"/>
	<rect id="connector3terminal" x="0.483" y="245.159" fill="none" width="0" height="0.001"/>
	<text x="6.9951" y="244.1096" fill="#8C8C8C" font-family="'DroidSans'" font-size="2.5">4</text>
	<text x="16.9834" y="245.8596" fill="#787878" font-family="'DroidSans'" font-size="3.5">GND</text>
	<line id="connector1pin" fill="none" x1="0.483" y1="245.159" x2="14.883" y2="245.159"/>
	<rect id="connector1terminal" x="0.483" y="245.159" fill="none" width="0" height="0.001"/>
	<line id="connector10pin" fill="none" x1="0.483" y1="245.159" x2="14.883" y2="245.159"/>
	<rect id="connector10terminal" x="0.483" y="245.159" fill="none" width="0" height="0.001"/>
	<line id="connector6pin" fill="none" x1="0.483" y1="245.159" x2="14.883" y2="245.159"/>
	<rect id="connector6terminal" x="0.483" y="245.159" fill="none" width="0" height="0.001"/>
	<line id="connector20pin" fill="none" x1="0.483" y1="245.159" x2="14.883" y2="245.159"/>
	<rect id="connector20terminal" x="0.483" y="245.159" fill="none" width="0" height="0.001"/>
	<line id="connector17pin" fill="none" x1="0.483" y1="245.159" x2="14.883" y2="245.159"/>
	<rect id="connector17terminal" x="0.483" y="245.159" fill="none" width="0" height="0.001"/>
	<line id="connector31pin" fill="none" x1="0.483" y1="245.159" x2="14.883" y2="245.159"/>
	<rect id="connector31terminal" x="0.483" y="245.159" fill="none" width="0" height="0.001"/>
	<line id="connector29pin" fill="none" x1="0.483" y1="245.159" x2="14.883" y2="245.159"/>
	<rect id="connector29terminal" x="0.483" y="245.159" fill="none" width="0" height="0.001"/>
	<line id="connector28pin" fill="none" x1="0.483" y1="245.159" x2="14.883" y2="245.159"/>
	<rect id="connector28terminal" x="0.483" y="245.159" fill="none" width="0" height="0.001"/>
	<line id="connector40pin" fill="none" x1="0.483" y1="245.159" x2="14.883" y2="245.159"/>
	<rect id="connector40terminal" x="0.483" y="245.159" fill="none" width="0" height="0.001"/>
	<line id="connector49pin" fill="none" x1="0.483" y1="245.159" x2="14.883" y2="245.159"/>
	<rect id="connector49terminal" x="0.483" y="245.159" fill="none" width="0" height="0.001"/>
	<line id="connector64pin" fill="none" x1="0.483" y1="245.159" x2="14.883" y2="245.159"/>
	<rect id="connector64terminal" x="0.483" y="245.159" fill="none" width="0" height="0.001"/>
	<line id="connector57pin" fill="none" x1="0.483" y1="245.159" x2="14.883" y2="245.159"/>
	<rect id="connector57terminal" x="0.483" y="245.159" fill="none" width="0" height="0.001"/>
	<line id="connector58pin" fill="none" x1="14.883" y1="245.159" x2="0.483" y2="245.159"/>
	<rect id="connector58terminal" x="0.483" y="245.159" fill="none" width="0" height="0.001"/>
	<line id="connector111pin" fill="none" x1="14.883" y1="245.159" x2="0.483" y2="245.159"/>
	<rect id="connector111terminal" x="0.483" y="245.159" fill="none" width="0" height="0.001"/>
	<line id="connector115pin" fill="none" x1="14.883" y1="245.159" x2="0.483" y2="245.159"/>
	<rect id="connector115terminal" x="0.483" y="245.159" fill="none" width="0" height="0.001"/>
	<line id="connector116pin" fill="none" x1="14.883" y1="245.159" x2="0.483" y2="245.159"/>
	<rect id="connector116terminal" x="0.483" y="245.159" fill="none" width="0" height="0.001"/>
</g>
</svg>
