<?xml version="1.0" encoding="utf-8"?>
<!-- Generator: Adobe Illustrator 16.0.0, SVG Export Plug-In . SVG Version: 6.00 Build 0)  -->
<svg version="1.2" baseProfile="tiny" id="Layer_1" xmlns:svg="http://www.w3.org/2000/svg"
	 xmlns="http://www.w3.org/2000/svg" xmlns:xlink="http://www.w3.org/1999/xlink" x="0px" y="0px" width="36.608px"
	 height="18.31px" viewBox="0 0 36.608 18.31" xml:space="preserve">
<g id="schematic">
	<line fill="none" stroke="#000000" stroke-width="0.5" stroke-linecap="round" x1="0.216" y1="17.911" x2="7.416" y2="10.71"/>
	<line fill="none" stroke="#000000" stroke-width="0.5" stroke-linecap="round" x1="7.416" y1="10.71" x2="14.616" y2="17.911"/>
	<line fill="none" stroke="#000000" stroke-width="0.5" stroke-linecap="round" x1="14.616" y1="17.911" x2="21.816" y2="17.911"/>
	<line fill="none" stroke="#000000" stroke-width="0.5" stroke-linecap="round" x1="21.816" y1="17.911" x2="29.016" y2="17.911"/>
	<line fill="none" stroke="#000000" stroke-width="0.5" stroke-linecap="round" x1="21.816" y1="10.71" x2="29.016" y2="10.71"/>
	<rect x="0.216" y="1.351" width="28.8" height="4.32"/>
	
		<line id="connector2pin" fill="none" stroke="#787878" stroke-width="0.75" stroke-linecap="round" x1="36.215" y1="10.71" x2="29.016" y2="10.71"/>
	<rect id="connector2terminal" x="36.215" y="10.71" fill="none" width="0.001" height="0.001"/>
	<text x="31.9282" y="9.6592" fill="#8C8C8C" font-family="'DroidSans'" font-size="2.5">3</text>
	
		<line id="connector1pin" fill="none" stroke="#787878" stroke-width="0.75" stroke-linecap="round" x1="36.215" y1="17.911" x2="29.016" y2="17.911"/>
	<rect id="connector1terminal" x="36.215" y="17.911" fill="none" width="0.001" height="0"/>
	<text x="31.9282" y="16.8604" fill="#8C8C8C" font-family="'DroidSans'" font-size="2.5">2</text>
	
		<line id="connector0pin" fill="none" stroke="#787878" stroke-width="0.75" stroke-linecap="round" x1="36.215" y1="3.511" x2="29.016" y2="3.511"/>
	<rect id="connector0terminal" x="36.215" y="3.511" fill="none" width="0.001" height="0"/>
	<text x="31.9282" y="2.4604" fill="#8C8C8C" font-family="'DroidSans'" font-size="2.5">1</text>
	<line fill="none" stroke="#000000" stroke-width="0.5" stroke-linecap="round" x1="21.816" y1="10.71" x2="21.816" y2="3.511"/>
	<text x="13.2432" y="7.208" fill="#505050" font-family="'DroidSans'" font-size="1.4173">OPEN WHEN</text>
	<text x="13.2432" y="8.4512" fill="#505050" font-family="'DroidSans'" font-size="1.4173">C</text>
	<text x="14.0693" y="8.4512" fill="#505050" font-family="'DroidSans'" font-size="1.4173">O</text>
	<text x="15.1216" y="8.4512" fill="#505050" font-family="'DroidSans'" font-size="1.4173">N</text>
	<text x="16.1548" y="8.4512" fill="#505050" font-family="'DroidSans'" font-size="1.4173">N</text>
	<text x="17.188" y="8.4512" fill="#505050" font-family="'DroidSans'" font-size="1.4173">E</text>
	<text x="17.936" y="8.4512" fill="#505050" font-family="'DroidSans'" font-size="1.4173">C</text>
	<text x="18.7905" y="8.4512" fill="#505050" font-family="'DroidSans'" font-size="1.4173">T</text>
	<text x="19.5264" y="8.4512" fill="#505050" font-family="'DroidSans'" font-size="1.4173">E</text>
	<text x="20.2744" y="8.4512" fill="#505050" font-family="'DroidSans'" font-size="1.4173">D</text>
</g>
</svg>
