<?xml version="1.0" encoding="utf-8"?>
<!-- Generator: Adobe Illustrator 16.0.0, SVG Export Plug-In . SVG Version: 6.00 Build 0)  -->
<!DOCTYPE svg PUBLIC "-//W3C//DTD SVG 1.1//EN" "http://www.w3.org/Graphics/SVG/1.1/DTD/svg11.dtd">
<svg version="1.1" id="Layer_1" xmlns:svg="http://www.w3.org/2000/svg"
	 xmlns="http://www.w3.org/2000/svg" xmlns:xlink="http://www.w3.org/1999/xlink" x="0px" y="0px" width="79.9px" height="65.52px"
	 viewBox="0 0 79.9 65.52" enable-background="new 0 0 79.9 65.52" xml:space="preserve">
<g id="schematic">
	<rect x="14.75" y="0.36" fill="#FFFFFF" width="50.4" height="64.801"/>
	<rect x="14.75" y="0.36" fill="#FFFFFF" width="50.4" height="64.801"/>
	<rect x="14.75" y="0.36" fill="#FFFFFF" width="50.4" height="64.801"/>
	<line fill="none" stroke="#000000" stroke-width="0.9" stroke-linecap="round" x1="14.75" y1="65.16" x2="65.15" y2="65.16"/>
	<line fill="none" stroke="#000000" stroke-width="0.9" stroke-linecap="round" x1="65.15" y1="65.16" x2="65.15" y2="0.36"/>
	<line fill="none" stroke="#000000" stroke-width="0.9" stroke-linecap="round" x1="65.15" y1="0.36" x2="14.75" y2="0.36"/>
	<line fill="none" stroke="#000000" stroke-width="0.9" stroke-linecap="round" x1="14.75" y1="0.36" x2="14.75" y2="65.16"/>
	
		<line id="connector6pin" fill="none" stroke="#787878" stroke-width="0.75" stroke-linecap="round" x1="0.35" y1="57.96" x2="14.75" y2="57.96"/>
	<rect id="connector6terminal" x="0.35" y="57.96" fill="none" width="0" height="0"/>
	<text x="6.8611" y="56.9104" fill="#8C8C8C" font-family="'DroidSans'" font-size="2.5">7</text>
	<text x="16.8494" y="58.6604" fill="#787878" font-family="'DroidSans'" font-size="3.5">GND</text>
	
		<line id="connector5pin" fill="none" stroke="#787878" stroke-width="0.75" stroke-linecap="round" x1="0.35" y1="50.76" x2="14.75" y2="50.76"/>
	<rect id="connector5terminal" x="0.35" y="50.76" fill="none" width="0" height="0"/>
	<text x="6.8611" y="49.7092" fill="#8C8C8C" font-family="'DroidSans'" font-size="2.5">6</text>
	<text x="16.8494" y="51.4592" fill="#787878" font-family="'DroidSans'" font-size="3.5">TRIG</text>
	
		<line id="connector4pin" fill="none" stroke="#787878" stroke-width="0.75" stroke-linecap="round" x1="0.35" y1="43.56" x2="14.75" y2="43.56"/>
	<rect id="connector4terminal" x="0.35" y="43.56" fill="none" width="0" height="0"/>
	<text x="6.8611" y="42.51" fill="#8C8C8C" font-family="'DroidSans'" font-size="2.5">5</text>
	<text x="16.8494" y="44.26" fill="#787878" font-family="'DroidSans'" font-size="3.5">OUT</text>
	
		<line id="connector2pin" fill="none" stroke="#787878" stroke-width="0.75" stroke-linecap="round" x1="0.35" y1="29.16" x2="14.75" y2="29.16"/>
	<rect id="connector2terminal" x="0.35" y="29.16" fill="none" width="0" height="0"/>
	<text x="6.8611" y="28.1096" fill="#8C8C8C" font-family="'DroidSans'" font-size="2.5">3</text>
	<text x="16.8494" y="29.8596" fill="#787878" font-family="'DroidSans'" font-size="3.5">CV</text>
	
		<line id="connector3pin" fill="none" stroke="#787878" stroke-width="0.75" stroke-linecap="round" x1="0.35" y1="36.36" x2="14.75" y2="36.36"/>
	<rect id="connector3terminal" x="0.35" y="36.36" fill="none" width="0" height="0.001"/>
	<text x="6.8611" y="35.3108" fill="#8C8C8C" font-family="'DroidSans'" font-size="2.5">4</text>
	<text x="16.8494" y="37.0588" fill="#787878" font-family="'DroidSans'" font-size="3.5">RST</text>
	
		<line id="connector1pin" fill="none" stroke="#787878" stroke-width="0.75" stroke-linecap="round" x1="0.35" y1="21.96" x2="14.75" y2="21.96"/>
	<rect id="connector1terminal" x="0.35" y="21.96" fill="none" width="0" height="0"/>
	<text x="6.8611" y="20.9104" fill="#8C8C8C" font-family="'DroidSans'" font-size="2.5">2</text>
	<text x="16.8494" y="22.6604" fill="#787878" font-family="'DroidSans'" font-size="3.5">THR</text>
	
		<line id="connector0pin" fill="none" stroke="#787878" stroke-width="0.75" stroke-linecap="round" x1="0.35" y1="14.76" x2="14.75" y2="14.76"/>
	<rect id="connector0terminal" x="0.35" y="14.76" fill="none" width="0" height="0"/>
	<text x="6.8611" y="13.7092" fill="#8C8C8C" font-family="'DroidSans'" font-size="2.5">1</text>
	<text x="16.8494" y="15.4592" fill="#787878" font-family="'DroidSans'" font-size="3.5">DIS</text>
	
		<line id="connector7pin" fill="none" stroke="#787878" stroke-width="0.75" stroke-linecap="round" x1="79.55" y1="50.76" x2="65.15" y2="50.76"/>
	<rect id="connector7terminal" x="79.55" y="50.76" fill="none" width="0.001" height="0"/>
	<text x="71.6619" y="49.7092" fill="#8C8C8C" font-family="'DroidSans'" font-size="2.5">8</text>
	<text x="53.6736" y="51.4592" fill="#787878" font-family="'DroidSans'" font-size="3.5">TRIG2</text>
	
		<line id="connector8pin" fill="none" stroke="#787878" stroke-width="0.75" stroke-linecap="round" x1="79.55" y1="43.56" x2="65.15" y2="43.56"/>
	<rect id="connector8terminal" x="79.55" y="43.56" fill="none" width="0.001" height="0"/>
	<text x="71.6619" y="42.51" fill="#8C8C8C" font-family="'DroidSans'" font-size="2.5">9</text>
	<text x="54.2634" y="44.26" fill="#787878" font-family="'DroidSans'" font-size="3.5">OUT2</text>
	
		<line id="connector9pin" fill="none" stroke="#787878" stroke-width="0.75" stroke-linecap="round" x1="79.55" y1="36.36" x2="65.15" y2="36.36"/>
	<rect id="connector9terminal" x="79.55" y="36.36" fill="none" width="0.001" height="0.001"/>
	<text x="70.9724" y="35.3108" fill="#8C8C8C" font-family="'DroidSans'" font-size="2.5">10</text>
	<text x="55.4236" y="37.0588" fill="#787878" font-family="'DroidSans'" font-size="3.5">RST2</text>
	
		<line id="connector10pin" fill="none" stroke="#787878" stroke-width="0.75" stroke-linecap="round" x1="79.55" y1="29.16" x2="65.15" y2="29.16"/>
	<rect id="connector10terminal" x="79.55" y="29.16" fill="none" width="0.001" height="0"/>
	<text x="70.9724" y="28.1096" fill="#8C8C8C" font-family="'DroidSans'" font-size="2.5">11</text>
	<text x="57.0232" y="29.8596" fill="#787878" font-family="'DroidSans'" font-size="3.5">CV2</text>
	
		<line id="connector11pin" fill="none" stroke="#787878" stroke-width="0.75" stroke-linecap="round" x1="79.55" y1="21.96" x2="65.15" y2="21.96"/>
	<rect id="connector11terminal" x="79.55" y="21.96" fill="none" width="0.001" height="0"/>
	<text x="70.9724" y="20.9104" fill="#8C8C8C" font-family="'DroidSans'" font-size="2.5">12</text>
	<text x="54.7869" y="22.6604" fill="#787878" font-family="'DroidSans'" font-size="3.5">THR2</text>
	
		<line id="connector12pin" fill="none" stroke="#787878" stroke-width="0.75" stroke-linecap="round" x1="79.55" y1="14.76" x2="65.15" y2="14.76"/>
	<rect id="connector12terminal" x="79.55" y="14.76" fill="none" width="0.001" height="0"/>
	<text x="70.9724" y="13.7092" fill="#8C8C8C" font-family="'DroidSans'" font-size="2.5">13</text>
	<text x="55.7595" y="15.4592" fill="#787878" font-family="'DroidSans'" font-size="3.5">DIS2</text>
	
		<line id="connector13pin" fill="none" stroke="#787878" stroke-width="0.75" stroke-linecap="round" x1="79.55" y1="7.56" x2="65.15" y2="7.56"/>
	<rect id="connector13terminal" x="79.55" y="7.56" fill="none" width="0.001" height="0"/>
	<text x="70.9724" y="6.51" fill="#8C8C8C" font-family="'DroidSans'" font-size="2.5">14</text>
	<text x="56.9802" y="8.26" fill="#787878" font-family="'DroidSans'" font-size="3.5">VCC</text>
	<text id="label_3_" x="36.4392" y="25.9592" font-family="'DroidSans'" font-size="4.25">556</text>
	<text id="label_4_" x="33.9021" y="30.4924" font-family="'DroidSans'" font-size="4.25">TIMER</text>
	<text id="label_5_" x="34.697" y="35.0256" font-family="'DroidSans'" font-size="4.25">DUAL</text>
</g>
</svg>
