<?xml version="1.0" encoding="utf-8"?>
<!-- Generator: Adobe Illustrator 16.0.0, SVG Export Plug-In . SVG Version: 6.00 Build 0)  -->
<!DOCTYPE svg PUBLIC "-//W3C//DTD SVG 1.1//EN" "http://www.w3.org/Graphics/SVG/1.1/DTD/svg11.dtd">
<svg version="1.1" id="Layer_1" xmlns:svg="http://www.w3.org/2000/svg"
	 xmlns="http://www.w3.org/2000/svg" xmlns:xlink="http://www.w3.org/1999/xlink" x="0px" y="0px" width="137.5px"
	 height="166.32px" viewBox="0 0 137.5 166.32" enable-background="new 0 0 137.5 166.32" xml:space="preserve">
<g id="schematic">
	<rect x="14.75" y="0.36" fill="#FFFFFF" width="108" height="165.6"/>
	<rect x="14.75" y="0.36" fill="#FFFFFF" width="108" height="165.6"/>
	<rect x="14.75" y="0.36" fill="#FFFFFF" width="108" height="165.6"/>
	<text id="label_5_" x="67.5791" y="85.4265" font-family="'DroidSans'" font-size="4.25">2</text>
	<line fill="none" stroke="#000000" stroke-width="0.9" stroke-linecap="round" x1="14.75" y1="0.36" x2="122.75" y2="0.36"/>
	<line fill="none" stroke="#000000" stroke-width="0.9" stroke-linecap="round" x1="122.75" y1="0.36" x2="122.75" y2="165.96"/>
	<line fill="none" stroke="#000000" stroke-width="0.9" stroke-linecap="round" x1="122.75" y1="165.96" x2="14.75" y2="165.96"/>
	<line fill="none" stroke="#000000" stroke-width="0.9" stroke-linecap="round" x1="14.75" y1="165.96" x2="14.75" y2="0.36"/>
	
		<line id="connector18pin" fill="none" stroke="#787878" stroke-width="0.75" stroke-linecap="round" x1="137.15" y1="158.76" x2="122.75" y2="158.76"/>
	<rect id="connector18terminal" x="137.15" y="158.76" fill="none" width="0" height="0.001"/>
	<text x="128.5713" y="157.7097" fill="#8C8C8C" font-family="'DroidSans'" font-size="2.5">19</text>
	<text x="106.4717" y="159.4587" fill="#787878" font-family="'DroidSans'" font-size="3.5">PB5(SCK)</text>
	
		<line id="connector9pin" fill="none" stroke="#787878" stroke-width="0.75" stroke-linecap="round" x1="0.35" y1="65.16" x2="14.75" y2="65.16"/>
	<rect id="connector9terminal" x="0.35" y="65.16" fill="none" width="0" height="0"/>
	<text x="6.1738" y="64.1101" fill="#8C8C8C" font-family="'DroidSans'" font-size="2.5">10</text>
	<text x="16.8486" y="65.8591" fill="#787878" font-family="'DroidSans'" font-size="3.5">PB7(XTAL2/TOSC2)</text>
	
		<line id="connector8pin" fill="none" stroke="#787878" stroke-width="0.75" stroke-linecap="round" x1="0.35" y1="50.76" x2="14.75" y2="50.76"/>
	<rect id="connector8terminal" x="0.35" y="50.76" fill="none" width="0" height="0"/>
	<text x="6.8604" y="49.7097" fill="#8C8C8C" font-family="'DroidSans'" font-size="2.5">9</text>
	<text x="16.8486" y="51.4587" fill="#787878" font-family="'DroidSans'" font-size="3.5">PB6(XTAL1/TOSC1)</text>
	
		<line id="connector7pin" fill="none" stroke="#787878" stroke-width="0.75" stroke-linecap="round" x1="0.35" y1="122.76" x2="14.75" y2="122.76"/>
	<rect id="connector7terminal" x="0.35" y="122.76" fill="none" width="0" height="0.001"/>
	<text x="6.8604" y="121.7087" fill="#8C8C8C" font-family="'DroidSans'" font-size="2.5">8</text>
	<text x="16.8486" y="123.4587" fill="#787878" font-family="'DroidSans'" font-size="3.5">GND</text>
	
		<line id="connector6pin" fill="none" stroke="#787878" stroke-width="0.75" stroke-linecap="round" x1="0.35" y1="86.76" x2="14.75" y2="86.76"/>
	<rect id="connector6terminal" x="0.35" y="86.76" fill="none" width="0" height="0.001"/>
	<text x="6.8604" y="85.7097" fill="#8C8C8C" font-family="'DroidSans'" font-size="2.5">7</text>
	<text x="16.8486" y="87.4597" fill="#787878" font-family="'DroidSans'" font-size="3.5">VCC</text>
	
		<line id="connector21pin" fill="none" stroke="#787878" stroke-width="0.75" stroke-linecap="round" x1="0.35" y1="129.96" x2="14.75" y2="129.96"/>
	<rect id="connector21terminal" x="0.35" y="129.96" fill="none" width="0" height="0.001"/>
	<text x="6.1738" y="128.9109" fill="#8C8C8C" font-family="'DroidSans'" font-size="2.5">22</text>
	<text x="16.8486" y="130.6599" fill="#787878" font-family="'DroidSans'" font-size="3.5">AGND</text>
	
		<line id="connector20pin" fill="none" stroke="#787878" stroke-width="0.75" stroke-linecap="round" x1="0.35" y1="101.16" x2="14.75" y2="101.16"/>
	<rect id="connector20terminal" x="0.35" y="101.16" fill="none" width="0" height="0"/>
	<text x="6.1738" y="100.1101" fill="#8C8C8C" font-family="'DroidSans'" font-size="2.5">21</text>
	<text x="16.8486" y="101.8601" fill="#787878" font-family="'DroidSans'" font-size="3.5">AREF</text>
	
		<line id="connector19pin" fill="none" stroke="#787878" stroke-width="0.75" stroke-linecap="round" x1="0.35" y1="93.96" x2="14.75" y2="93.96"/>
	<rect id="connector19terminal" x="0.35" y="93.96" fill="none" width="0" height="0.001"/>
	<text x="6.1738" y="92.9099" fill="#8C8C8C" font-family="'DroidSans'" font-size="2.5">20</text>
	<text x="16.8486" y="94.6599" fill="#787878" font-family="'DroidSans'" font-size="3.5">AVCC</text>
	
		<line id="connector17pin" fill="none" stroke="#787878" stroke-width="0.75" stroke-linecap="round" x1="137.15" y1="151.56" x2="122.75" y2="151.56"/>
	<rect id="connector17terminal" x="137.15" y="151.56" fill="none" width="0" height="0"/>
	<text x="128.5713" y="150.5095" fill="#8C8C8C" font-family="'DroidSans'" font-size="2.5">18</text>
	<text x="103.7803" y="152.2595" fill="#787878" font-family="'DroidSans'" font-size="3.5">PB4(MISO)</text>
	
		<line id="connector16pin" fill="none" stroke="#787878" stroke-width="0.75" stroke-linecap="round" x1="137.15" y1="144.36" x2="122.75" y2="144.36"/>
	<rect id="connector16terminal" x="137.15" y="144.36" fill="none" width="0" height="0"/>
	<text x="128.5713" y="143.3093" fill="#8C8C8C" font-family="'DroidSans'" font-size="2.5">17</text>
	<text x="95.8369" y="145.0593" fill="#787878" font-family="'DroidSans'" font-size="3.5">PB3(MOSI/OC2)</text>
	
		<line id="connector15pin" fill="none" stroke="#787878" stroke-width="0.75" stroke-linecap="round" x1="137.15" y1="137.16" x2="122.75" y2="137.16"/>
	<rect id="connector15terminal" x="137.15" y="137.16" fill="none" width="0" height="0"/>
	<text x="128.5713" y="136.1091" fill="#8C8C8C" font-family="'DroidSans'" font-size="2.5">16</text>
	<text x="98.6768" y="137.8601" fill="#787878" font-family="'DroidSans'" font-size="3.5">PB2(SS/OC1B)</text>
	
		<line id="connector14pin" fill="none" stroke="#787878" stroke-width="0.75" stroke-linecap="round" x1="137.15" y1="129.96" x2="122.75" y2="129.96"/>
	<rect id="connector14terminal" x="137.15" y="129.96" fill="none" width="0" height="0.001"/>
	<text x="128.5713" y="128.9109" fill="#8C8C8C" font-family="'DroidSans'" font-size="2.5">15</text>
	<text x="103.6611" y="130.6599" fill="#787878" font-family="'DroidSans'" font-size="3.5">PB1(OC1A)</text>
	
		<line id="connector13pin" fill="none" stroke="#787878" stroke-width="0.75" stroke-linecap="round" x1="137.15" y1="122.76" x2="122.75" y2="122.76"/>
	<rect id="connector13terminal" x="137.15" y="122.76" fill="none" width="0" height="0.001"/>
	<text x="128.5713" y="121.7087" fill="#8C8C8C" font-family="'DroidSans'" font-size="2.5">14</text>
	<text x="107.145" y="5 123.4587" fill="#787878" font-family="'DroidSans'" font-size="3.5">PB0(ICP)</text>
	
		<line id="connector12pin" fill="none" stroke="#787878" stroke-width="0.75" stroke-linecap="round" x1="137.15" y1="108.36" x2="122.75" y2="108.36"/>
	<rect id="connector12terminal" x="137.15" y="108.36" fill="none" width="0" height="0"/>
	<text x="128.5713" y="107.3093" fill="#8C8C8C" font-family="'DroidSans'" font-size="2.5">13</text>
	<text x="104.4111" y="109.0583" fill="#787878" font-family="'DroidSans'" font-size="3.5">PD7(AIN1)</text>
	
		<line id="connector11pin" fill="none" stroke="#787878" stroke-width="0.75" stroke-linecap="round" x1="137.15" y1="101.16" x2="122.75" y2="101.16"/>
	<rect id="connector11terminal" x="137.15" y="101.16" fill="none" width="0" height="0"/>
	<text x="128.5713" y="100.1101" fill="#8C8C8C" font-family="'DroidSans'" font-size="2.5">12</text>
	<text x="104.4111" y="101.8601" fill="#787878" font-family="'DroidSans'" font-size="3.5">PD6(AIN0)</text>
	
		<line id="connector10pin" fill="none" stroke="#787878" stroke-width="0.75" stroke-linecap="round" x1="137.15" y1="93.96" x2="122.75" y2="93.96"/>
	<rect id="connector10terminal" x="137.15" y="93.96" fill="none" width="0" height="0.001"/>
	<text x="128.5713" y="92.9099" fill="#8C8C8C" font-family="'DroidSans'" font-size="2.5">11</text>
	<text x="108.46" y="94.6599" fill="#787878" font-family="'DroidSans'" font-size="3.5">PD5(T1)</text>
	
		<line id="connector5pin" fill="none" stroke="#787878" stroke-width="0.75" stroke-linecap="round" x1="137.15" y1="86.76" x2="122.75" y2="86.76"/>
	<rect id="connector5terminal" x="137.15" y="86.76" fill="none" width="0" height="0.001"/>
	<text x="129.2617" y="85.7097" fill="#8C8C8C" font-family="'DroidSans'" font-size="2.5">6</text>
	<text x="101.1729" y="87.4597" fill="#787878" font-family="'DroidSans'" font-size="3.5">PD4(XCK/T0)</text>
	
		<line id="connector4pin" fill="none" stroke="#787878" stroke-width="0.75" stroke-linecap="round" x1="137.15" y1="79.56" x2="122.75" y2="79.56"/>
	<rect id="connector4terminal" x="137.15" y="79.56" fill="none" width="0" height="0"/>
	<text x="129.2617" y="78.5095" fill="#8C8C8C" font-family="'DroidSans'" font-size="2.5">5</text>
	<text x="104.7236" y="80.2595" fill="#787878" font-family="'DroidSans'" font-size="3.5">PD3(INT1)</text>
	
		<line id="connector3pin" fill="none" stroke="#787878" stroke-width="0.75" stroke-linecap="round" x1="137.15" y1="72.36" x2="122.75" y2="72.36"/>
	<rect id="connector3terminal" x="137.15" y="72.36" fill="none" width="0" height="0"/>
	<text x="129.2617" y="71.3083" fill="#8C8C8C" font-family="'DroidSans'" font-size="2.5">4</text>
	<text x="104.7236" y="73.0593" fill="#787878" font-family="'DroidSans'" font-size="3.5">PD2(INT0)</text>
	
		<line id="connector2pin" fill="none" stroke="#787878" stroke-width="0.75" stroke-linecap="round" x1="137.15" y1="65.16" x2="122.75" y2="65.16"/>
	<rect id="connector2terminal" x="137.15" y="65.16" fill="none" width="0" height="0"/>
	<text x="129.2617" y="64.1101" fill="#8C8C8C" font-family="'DroidSans'" font-size="2.5">3</text>
	<text x="106.0791" y="65.8591" fill="#787878" font-family="'DroidSans'" font-size="3.5">PD1(TXD)</text>
	
		<line id="connector1pin" fill="none" stroke="#787878" stroke-width="0.75" stroke-linecap="round" x1="137.15" y1="57.96" x2="122.75" y2="57.96"/>
	<rect id="connector1terminal" x="137.15" y="57.96" fill="none" width="0" height="0.001"/>
	<text x="129.2617" y="56.9099" fill="#8C8C8C" font-family="'DroidSans'" font-size="2.5">2</text>
	<text x="105.832" y="58.6609" fill="#787878" font-family="'DroidSans'" font-size="3.5">PD0(RXD)</text>
	
		<line id="connector27pin" fill="none" stroke="#787878" stroke-width="0.75" stroke-linecap="round" x1="137.15" y1="43.56" x2="122.75" y2="43.56"/>
	<rect id="connector27terminal" x="137.15" y="43.56" fill="none" width="0" height="0"/>
	<text x="128.5713" y="42.5095" fill="#8C8C8C" font-family="'DroidSans'" font-size="2.5">28</text>
	<text x="97.0107" y="44.2605" fill="#787878" font-family="'DroidSans'" font-size="3.5">PC5(ADC5/SCL)</text>
	
		<line id="connector26pin" fill="none" stroke="#787878" stroke-width="0.75" stroke-linecap="round" x1="137.15" y1="36.36" x2="122.75" y2="36.36"/>
	<rect id="connector26terminal" x="137.15" y="36.36" fill="none" width="0" height="0"/>
	<text x="128.5713" y="35.3093" fill="#8C8C8C" font-family="'DroidSans'" font-size="2.5">27</text>
	<text x="96.3525" y="37.0583" fill="#787878" font-family="'DroidSans'" font-size="3.5">PC4(ADC4/SDA)</text>
	
		<line id="connector25pin" fill="none" stroke="#787878" stroke-width="0.75" stroke-linecap="round" x1="137.15" y1="29.16" x2="122.75" y2="29.16"/>
	<rect id="connector25terminal" x="137.15" y="29.16" fill="none" width="0" height="0"/>
	<text x="128.5713" y="28.1091" fill="#8C8C8C" font-family="'DroidSans'" font-size="2.5">26</text>
	<text x="103.9619" y="29.8601" fill="#787878" font-family="'DroidSans'" font-size="3.5">PC3(ADC3)</text>
	
		<line id="connector24pin" fill="none" stroke="#787878" stroke-width="0.75" stroke-linecap="round" x1="137.15" y1="21.96" x2="122.75" y2="21.96"/>
	<rect id="connector24terminal" x="137.15" y="21.96" fill="none" width="0" height="0.001"/>
	<text x="128.5713" y="20.9099" fill="#8C8C8C" font-family="'DroidSans'" font-size="2.5">25</text>
	<text x="103.9619" y="22.6599" fill="#787878" font-family="'DroidSans'" font-size="3.5">PC2(ADC2)</text>
	
		<line id="connector23pin" fill="none" stroke="#787878" stroke-width="0.75" stroke-linecap="round" x1="137.15" y1="14.76" x2="122.75" y2="14.76"/>
	<rect id="connector23terminal" x="137.15" y="14.76" fill="none" width="0" height="0"/>
	<text x="128.5713" y="13.7087" fill="#8C8C8C" font-family="'DroidSans'" font-size="2.5">24</text>
	<text x="103.9619" y="15.4587" fill="#787878" font-family="'DroidSans'" font-size="3.5">PC1(ADC1)</text>
	
		<line id="connector22pin" fill="none" stroke="#787878" stroke-width="0.75" stroke-linecap="round" x1="137.15" y1="7.56" x2="122.75" y2="7.56"/>
	<rect id="connector22terminal" x="137.15" y="7.56" fill="none" width="0" height="0"/>
	<text x="128.5713" y="6.5105" fill="#8C8C8C" font-family="'DroidSans'" font-size="2.5">23</text>
	<text x="103.9619" y="8.2605" fill="#787878" font-family="'DroidSans'" font-size="3.5">PC0(ADC0)</text>
	
		<line id="connector0pin" fill="none" stroke="#787878" stroke-width="0.75" stroke-linecap="round" x1="0.35" y1="7.56" x2="14.75" y2="7.56"/>
	<rect id="connector0terminal" x="0.35" y="7.56" fill="none" width="0" height="0"/>
	<text x="6.8604" y="6.5105" fill="#8C8C8C" font-family="'DroidSans'" font-size="2.5">1</text>
	<text x="16.8486" y="8.2605" fill="#787878" font-family="'DroidSans'" font-size="3.5">PC6(/RESET)</text>
	<text id="label_1_" x="66.4092" y="76.3601" font-family="'DroidSans'" font-size="4.25">23</text>
	<text id="label_2_" x="65.6592" y="80.8923" font-family="'DroidSans'" font-size="4.25">I/O</text>
</g>
</svg>
