<?xml version="1.0" encoding="utf-8"?>
<!-- Generator: Adobe Illustrator 16.0.0, SVG Export Plug-In . SVG Version: 6.00 Build 0)  -->
<!DOCTYPE svg PUBLIC "-//W3C//DTD SVG 1.1//EN" "http://www.w3.org/Graphics/SVG/1.1/DTD/svg11.dtd">
<svg version="1.1" id="Layer_1" xmlns:svg="http://www.w3.org/2000/svg"
	 xmlns="http://www.w3.org/2000/svg" xmlns:xlink="http://www.w3.org/1999/xlink" x="0px" y="0px" width="58.3px" height="43.92px"
	 viewBox="0 0 58.3 43.92" enable-background="new 0 0 58.3 43.92" xml:space="preserve">
<g id="schematic">
	<rect x="7.55" y="0.36" fill="#FFFFFF" width="43.2" height="43.2"/>
	<rect x="7.55" y="0.36" fill="#FFFFFF" width="43.2" height="43.2"/>
	<text id="label_1_" x="21.8848" y="34.0938" font-family="'DroidSans'" font-size="4.25">BUFFER</text>
	<text id="label_2_" x="23.8984" y="38.627" font-family="'DroidSans'" font-size="4.25">DUAL</text>
	<line fill="none" stroke="#000000" stroke-width="0.9" stroke-linecap="round" x1="7.55" y1="0.36" x2="50.75" y2="0.36"/>
	<line fill="none" stroke="#000000" stroke-width="0.9" stroke-linecap="round" x1="50.75" y1="0.36" x2="50.75" y2="43.56"/>
	<line fill="none" stroke="#000000" stroke-width="0.9" stroke-linecap="round" x1="50.75" y1="43.56" x2="7.55" y2="43.56"/>
	<line fill="none" stroke="#000000" stroke-width="0.9" stroke-linecap="round" x1="7.55" y1="43.56" x2="7.55" y2="0.36"/>
	<line fill="none" stroke="#000000" stroke-width="0.75" stroke-linecap="round" x1="24.83" y1="24.84" x2="24.83" y2="21.96"/>
	<line fill="none" stroke="#000000" stroke-width="0.75" stroke-linecap="round" x1="24.83" y1="21.96" x2="24.83" y2="19.08"/>
	<line fill="none" stroke="#000000" stroke-width="0.75" stroke-linecap="round" x1="24.83" y1="19.08" x2="29.871" y2="21.96"/>
	<line fill="none" stroke="#000000" stroke-width="0.75" stroke-linecap="round" x1="29.871" y1="21.96" x2="24.83" y2="24.84"/>
	<line fill="none" stroke="#000000" stroke-width="0.75" stroke-linecap="round" x1="24.83" y1="21.96" x2="22.67" y2="21.96"/>
	<line fill="none" stroke="#000000" stroke-width="0.75" stroke-linecap="round" x1="24.83" y1="10.44" x2="24.83" y2="7.56"/>
	<line fill="none" stroke="#000000" stroke-width="0.75" stroke-linecap="round" x1="24.83" y1="7.56" x2="24.83" y2="4.68"/>
	<line fill="none" stroke="#000000" stroke-width="0.75" stroke-linecap="round" x1="24.83" y1="4.68" x2="29.871" y2="7.56"/>
	<line fill="none" stroke="#000000" stroke-width="0.75" stroke-linecap="round" x1="29.871" y1="7.56" x2="24.83" y2="10.44"/>
	<line fill="none" stroke="#000000" stroke-width="0.75" stroke-linecap="round" x1="24.83" y1="7.56" x2="22.67" y2="7.56"/>
	<line fill="none" stroke="#000000" stroke-width="0.75" stroke-linecap="round" x1="29.871" y1="21.96" x2="31.31" y2="21.96"/>
	<line fill="none" stroke="#000000" stroke-width="0.75" stroke-linecap="round" x1="29.871" y1="7.56" x2="31.31" y2="7.56"/>
	
		<line id="connector2pin" fill="none" stroke="#787878" stroke-width="0.75" stroke-linecap="round" x1="0.35" y1="7.56" x2="7.55" y2="7.56"/>
	<rect id="connector2terminal" x="0.35" y="7.56" fill="none" width="0" height="0"/>
	<text x="3.2617" y="6.5107" fill="#8C8C8C" font-family="'DroidSans'" font-size="2.5">3</text>
	<text x="9.6504" y="8.2607" fill="#787878" font-family="'DroidSans'" font-size="3.5">A2</text>
	
		<line id="connector0pin" fill="none" stroke="#787878" stroke-width="0.75" stroke-linecap="round" x1="0.35" y1="21.96" x2="7.55" y2="21.96"/>
	<rect id="connector0terminal" x="0.35" y="21.96" fill="none" width="0" height="0"/>
	<text x="3.2617" y="20.9111" fill="#8C8C8C" font-family="'DroidSans'" font-size="2.5">1</text>
	<text x="9.6504" y="22.6611" fill="#787878" font-family="'DroidSans'" font-size="3.5">A1</text>
	
		<line id="connector1pin" fill="none" stroke="#787878" stroke-width="0.75" stroke-linecap="round" x1="0.35" y1="36.36" x2="7.55" y2="36.36"/>
	<rect id="connector1terminal" x="0.35" y="36.36" fill="none" width="0" height="0"/>
	<text x="3.2617" y="35.3096" fill="#8C8C8C" font-family="'DroidSans'" font-size="2.5">2</text>
	<text x="9.6504" y="37.0596" fill="#787878" font-family="'DroidSans'" font-size="3.5">GND</text>
	
		<line id="connector5pin" fill="none" stroke="#787878" stroke-width="0.75" stroke-linecap="round" x1="57.951" y1="36.36" x2="50.75" y2="36.36"/>
	<rect id="connector5terminal" x="57.951" y="36.36" fill="none" width="0" height="0"/>
	<text x="53.6616" y="35.3096" fill="#8C8C8C" font-family="'DroidSans'" font-size="2.5">6</text>
	<text x="44.8784" y="37.0596" fill="#787878" font-family="'DroidSans'" font-size="3.5">Y1</text>
	
		<line id="connector4pin" fill="none" stroke="#787878" stroke-width="0.75" stroke-linecap="round" x1="57.951" y1="7.56" x2="50.75" y2="7.56"/>
	<rect id="connector4terminal" x="57.951" y="7.56" fill="none" width="0" height="0"/>
	<text x="53.6616" y="6.5107" fill="#8C8C8C" font-family="'DroidSans'" font-size="2.5">5</text>
	<text x="42.5815" y="8.2607" fill="#787878" font-family="'DroidSans'" font-size="3.5">VCC</text>
	
		<line id="connector3pin" fill="none" stroke="#787878" stroke-width="0.75" stroke-linecap="round" x1="57.951" y1="21.96" x2="50.75" y2="21.96"/>
	<rect id="connector3terminal" x="57.951" y="21.96" fill="none" width="0" height="0"/>
	<text x="53.6616" y="20.9111" fill="#8C8C8C" font-family="'DroidSans'" font-size="2.5">4</text>
	<text x="44.8784" y="22.6611" fill="#787878" font-family="'DroidSans'" font-size="3.5">Y2</text>
</g>
</svg>
