<?xml version="1.0" encoding="utf-8"?>
<!-- Generator: Adobe Illustrator 16.0.0, SVG Export Plug-In . SVG Version: 6.00 Build 0)  -->
<!DOCTYPE svg PUBLIC "-//W3C//DTD SVG 1.1//EN" "http://www.w3.org/Graphics/SVG/1.1/DTD/svg11.dtd">
<svg version="1.1" id="Layer_1" xmlns:svg="http://www.w3.org/2000/svg"
	 xmlns="http://www.w3.org/2000/svg" xmlns:xlink="http://www.w3.org/1999/xlink" x="0px" y="0px" width="123.157px"
	 height="310.528px" viewBox="0 0 123.157 310.528" enable-background="new 0 0 123.157 310.528" xml:space="preserve">
<g id="schematic">
	<rect x="14.75" y="0.507" fill="#FFFFFF" width="93.599" height="309.598"/>
	<text id="label" x="55.4521" y="153.0413" font-family="'DroidSans'" font-size="4.25">GE863</text>
	<line fill="none" stroke="#000000" stroke-width="0.9" stroke-linecap="round" x1="14.75" y1="0.507" x2="14.75" y2="310.105"/>
	
		<line fill="none" stroke="#000000" stroke-width="0.9" stroke-linecap="round" x1="14.75" y1="310.105" x2="108.349" y2="310.105"/>
	
		<line fill="none" stroke="#000000" stroke-width="0.9" stroke-linecap="round" x1="108.349" y1="310.105" x2="108.349" y2="0.507"/>
	<line fill="none" stroke="#000000" stroke-width="0.9" stroke-linecap="round" x1="108.349" y1="0.507" x2="14.75" y2="0.507"/>
	
		<line id="connector0pin" fill="none" stroke="#787878" stroke-width="0.75" stroke-linecap="round" x1="0.35" y1="101.307" x2="14.75" y2="101.307"/>
	<rect id="connector0terminal" x="0.35" y="101.307" fill="none" width="0" height="0"/>
	<text x="6.8623" y="100.2581" fill="#8C8C8C" font-family="'DroidSans'" font-size="2.5">1</text>
	<text x="16.8506" y="102.0081" fill="#787878" font-family="'DroidSans'" font-size="3.5">GPIO13</text>
	
		<line id="connector1pin" fill="none" stroke="#787878" stroke-width="0.75" stroke-linecap="round" x1="0.35" y1="108.506" x2="14.75" y2="108.506"/>
	<rect id="connector1terminal" x="0.35" y="108.506" fill="none" width="0" height="0.001"/>
	<text x="6.8623" y="107.4573" fill="#8C8C8C" font-family="'DroidSans'" font-size="2.5">2</text>
	<text x="16.8506" y="109.2063" fill="#787878" font-family="'DroidSans'" font-size="3.5">GPIO12</text>
	
		<line id="connector2pin" fill="none" stroke="#787878" stroke-width="0.75" stroke-linecap="round" x1="0.35" y1="115.706" x2="14.75" y2="115.706"/>
	<rect id="connector2terminal" x="0.35" y="115.706" fill="none" width="0" height="0"/>
	<text x="6.8623" y="114.6575" fill="#8C8C8C" font-family="'DroidSans'" font-size="2.5">3</text>
	<text x="16.8506" y="116.4075" fill="#787878" font-family="'DroidSans'" font-size="3.5">GPIO11</text>
	
		<line id="connector3pin" fill="none" stroke="#787878" stroke-width="0.75" stroke-linecap="round" x1="0.35" y1="122.906" x2="14.75" y2="122.906"/>
	<rect id="connector3terminal" x="0.35" y="122.906" fill="none" width="0" height="0"/>
	<text x="6.8623" y="121.8577" fill="#8C8C8C" font-family="'DroidSans'" font-size="2.5">4</text>
	<text x="16.8506" y="123.6067" fill="#787878" font-family="'DroidSans'" font-size="3.5">GPIO10</text>
	
		<line id="connector4pin" fill="none" stroke="#787878" stroke-width="0.75" stroke-linecap="round" x1="0.35" y1="130.107" x2="14.75" y2="130.107"/>
	<rect id="connector4terminal" x="0.35" y="130.107" fill="none" width="0" height="0"/>
	<text x="6.8623" y="129.0559" fill="#8C8C8C" font-family="'DroidSans'" font-size="2.5">5</text>
	<text x="16.8506" y="130.8069" fill="#787878" font-family="'DroidSans'" font-size="3.5">GPIO9/CAM_RST</text>
	
		<line id="connector5pin" fill="none" stroke="#787878" stroke-width="0.75" stroke-linecap="round" x1="0.35" y1="137.307" x2="14.75" y2="137.307"/>
	<rect id="connector5terminal" x="0.35" y="137.307" fill="none" width="0" height="0"/>
	<text x="6.8623" y="136.2581" fill="#8C8C8C" font-family="'DroidSans'" font-size="2.5">6</text>
	<text x="16.8506" y="138.0081" fill="#787878" font-family="'DroidSans'" font-size="3.5">GPIO8/CAM_ON</text>
	
		<line id="connector6pin" fill="none" stroke="#787878" stroke-width="0.75" stroke-linecap="round" x1="0.35" y1="58.107" x2="14.75" y2="58.107"/>
	<rect id="connector6terminal" x="0.35" y="58.107" fill="none" width="0" height="0"/>
	<text x="6.8623" y="57.0588" fill="#8C8C8C" font-family="'DroidSans'" font-size="2.5">7</text>
	<text x="16.8506" y="58.8059" fill="#787878" font-family="'DroidSans'" font-size="3.5">CAM_CLK</text>
	
		<line id="connector7pin" fill="none" stroke="#787878" stroke-width="0.75" stroke-linecap="round" x1="0.35" y1="202.107" x2="14.75" y2="202.107"/>
	<rect id="connector7terminal" x="0.35" y="202.107" fill="none" width="0" height="0"/>
	<text x="6.8623" y="201.0564" fill="#8C8C8C" font-family="'DroidSans'" font-size="2.5">8</text>
	<text x="16.8506" y="202.8064" fill="#787878" font-family="'DroidSans'" font-size="3.5">GND</text>
	
		<line id="connector8pin" fill="none" stroke="#787878" stroke-width="0.75" stroke-linecap="round" x1="122.75" y1="137.307" x2="108.349" y2="137.307"/>
	<rect id="connector8terminal" x="122.75" y="137.307" fill="none" width="0" height="0"/>
	<text x="114.8628" y="136.2581" fill="#8C8C8C" font-family="'DroidSans'" font-size="2.5">9</text>
	<text x="92.9585" y="138.0081" fill="#787878" font-family="'DroidSans'" font-size="3.5">EAR_MT-</text>
	
		<line id="connector9pin" fill="none" stroke="#787878" stroke-width="0.75" stroke-linecap="round" x1="122.75" y1="130.107" x2="108.349" y2="130.107"/>
	<rect id="connector9terminal" x="122.75" y="130.107" fill="none" width="0" height="0"/>
	<text x="114.1733" y="129.0559" fill="#8C8C8C" font-family="'DroidSans'" font-size="2.5">10</text>
	<text x="91.9819" y="130.8069" fill="#787878" font-family="'DroidSans'" font-size="3.5">EAR_MT+</text>
	
		<line id="connector10pin" fill="none" stroke="#787878" stroke-width="0.75" stroke-linecap="round" x1="122.75" y1="122.906" x2="108.349" y2="122.906"/>
	<rect id="connector10terminal" x="122.75" y="122.906" fill="none" width="0" height="0"/>
	<text x="114.1733" y="121.8577" fill="#8C8C8C" font-family="'DroidSans'" font-size="2.5">11</text>
	<text x="92.6714" y="123.6067" fill="#787878" font-family="'DroidSans'" font-size="3.5">EAR_HF+</text>
	
		<line id="connector11pin" fill="none" stroke="#787878" stroke-width="0.75" stroke-linecap="round" x1="122.75" y1="115.706" x2="108.349" y2="115.706"/>
	<rect id="connector11terminal" x="122.75" y="115.706" fill="none" width="0" height="0"/>
	<text x="114.1733" y="114.6575" fill="#8C8C8C" font-family="'DroidSans'" font-size="2.5">12</text>
	<text x="93.4722" y="116.4075" fill="#787878" font-family="'DroidSans'" font-size="3.5">EAR_HF-</text>
	
		<line id="connector12pin" fill="none" stroke="#787878" stroke-width="0.75" stroke-linecap="round" x1="122.75" y1="108.506" x2="108.349" y2="108.506"/>
	<rect id="connector12terminal" x="122.75" y="108.506" fill="none" width="0" height="0.001"/>
	<text x="114.1733" y="107.4573" fill="#8C8C8C" font-family="'DroidSans'" font-size="2.5">13</text>
	<text x="91.7144" y="109.2063" fill="#787878" font-family="'DroidSans'" font-size="3.5">MIC_MT+</text>
	
		<line id="connector13pin" fill="none" stroke="#787878" stroke-width="0.75" stroke-linecap="round" x1="122.75" y1="101.307" x2="108.349" y2="101.307"/>
	<rect id="connector13terminal" x="122.75" y="101.307" fill="none" width="0" height="0"/>
	<text x="114.1733" y="100.2581" fill="#8C8C8C" font-family="'DroidSans'" font-size="2.5">14</text>
	<text x="92.2144" y="102.0081" fill="#787878" font-family="'DroidSans'" font-size="3.5">MIN_MT-</text>
	
		<line id="connector14pin" fill="none" stroke="#787878" stroke-width="0.75" stroke-linecap="round" x1="122.75" y1="94.107" x2="108.349" y2="94.107"/>
	<rect id="connector14terminal" x="122.75" y="94.107" fill="none" width="0" height="0"/>
	<text x="114.1733" y="93.0569" fill="#8C8C8C" font-family="'DroidSans'" font-size="2.5">15</text>
	<text x="92.4019" y="94.8059" fill="#787878" font-family="'DroidSans'" font-size="3.5">MIC_HF+</text>
	
		<line id="connector15pin" fill="none" stroke="#787878" stroke-width="0.75" stroke-linecap="round" x1="122.75" y1="86.906" x2="108.349" y2="86.906"/>
	<rect id="connector15terminal" x="122.75" y="86.906" fill="none" width="0" height="0"/>
	<text x="114.1733" y="85.8567" fill="#8C8C8C" font-family="'DroidSans'" font-size="2.5">16</text>
	<text x="93.2046" y="87.6077" fill="#787878" font-family="'DroidSans'" font-size="3.5">MIC_HF-</text>
	<line id="connector16pin" fill="none" x1="0.35" y1="202.107" x2="14.75" y2="202.107"/>
	<rect id="connector16terminal" x="0.35" y="202.107" fill="none" width="0" height="0"/>
	
		<line id="connector17pin" fill="none" stroke="#787878" stroke-width="0.75" stroke-linecap="round" x1="122.75" y1="274.107" x2="108.349" y2="274.107"/>
	<rect id="connector17terminal" x="122.75" y="274.107" fill="none" width="0" height="0"/>
	<text x="114.1733" y="273.0583" fill="#8C8C8C" font-family="'DroidSans'" font-size="2.5">18</text>
	<text x="94.3472" y="274.8064" fill="#787878" font-family="'DroidSans'" font-size="3.5">SIMCLK</text>
	
		<line id="connector18pin" fill="none" stroke="#787878" stroke-width="0.75" stroke-linecap="round" x1="122.75" y1="266.906" x2="108.349" y2="266.906"/>
	<rect id="connector18terminal" x="122.75" y="266.906" fill="none" width="0" height="0"/>
	<text x="114.1733" y="265.8572" fill="#8C8C8C" font-family="'DroidSans'" font-size="2.5">19</text>
	<text x="94.5054" y="267.6072" fill="#787878" font-family="'DroidSans'" font-size="3.5">SIMRST</text>
	
		<line id="connector19pin" fill="none" stroke="#787878" stroke-width="0.75" stroke-linecap="round" x1="122.75" y1="259.707" x2="108.349" y2="259.707"/>
	<rect id="connector19terminal" x="122.75" y="259.707" fill="none" width="0" height="0"/>
	<text x="114.1733" y="258.658" fill="#8C8C8C" font-family="'DroidSans'" font-size="2.5">20</text>
	<text x="96.4526" y="260.406" fill="#787878" font-family="'DroidSans'" font-size="3.5">SIMIO</text>
	
		<line id="connector20pin" fill="none" stroke="#787878" stroke-width="0.75" stroke-linecap="round" x1="122.75" y1="252.506" x2="108.349" y2="252.506"/>
	<rect id="connector20terminal" x="122.75" y="252.506" fill="none" width="0" height="0"/>
	<text x="114.1733" y="251.4568" fill="#8C8C8C" font-family="'DroidSans'" font-size="2.5">21</text>
	<text x="96.4663" y="253.2068" fill="#787878" font-family="'DroidSans'" font-size="3.5">SIMIN</text>
	
		<line id="connector21pin" fill="none" stroke="#787878" stroke-width="0.75" stroke-linecap="round" x1="122.75" y1="245.306" x2="108.349" y2="245.306"/>
	<rect id="connector21terminal" x="122.75" y="245.306" fill="none" width="0" height="0"/>
	<text x="114.1733" y="244.2576" fill="#8C8C8C" font-family="'DroidSans'" font-size="2.5">22</text>
	<text x="94.1343" y="246.0076" fill="#787878" font-family="'DroidSans'" font-size="3.5">SIMVCC</text>
	
		<line id="connector22pin" fill="none" stroke="#787878" stroke-width="0.75" stroke-linecap="round" x1="122.75" y1="238.105" x2="108.349" y2="238.105"/>
	<rect id="connector22terminal" x="122.75" y="238.105" fill="none" width="0" height="0.002"/>
	<text x="114.1733" y="237.0564" fill="#8C8C8C" font-family="'DroidSans'" font-size="2.5">23</text>
	<text x="92.5151" y="238.8064" fill="#787878" font-family="'DroidSans'" font-size="3.5">ADC_IN1</text>
	
		<line id="connector23pin" fill="none" stroke="#787878" stroke-width="0.75" stroke-linecap="round" x1="122.75" y1="230.906" x2="108.349" y2="230.906"/>
	<rect id="connector23terminal" x="122.75" y="230.906" fill="none" width="0" height="0"/>
	<text x="114.1733" y="229.8572" fill="#8C8C8C" font-family="'DroidSans'" font-size="2.5">24</text>
	<text x="98.4097" y="231.6072" fill="#787878" font-family="'DroidSans'" font-size="3.5">VRTC</text>
	
		<line id="connector24pin" fill="none" stroke="#787878" stroke-width="0.75" stroke-linecap="round" x1="122.75" y1="223.707" x2="108.349" y2="223.707"/>
	<rect id="connector24terminal" x="122.75" y="223.707" fill="none" width="0" height="0"/>
	<text x="114.1733" y="222.656" fill="#8C8C8C" font-family="'DroidSans'" font-size="2.5">25</text>
	<text x="91.1479" y="224.406" fill="#787878" font-family="'DroidSans'" font-size="3.5">TX_TRACE</text>
	
		<line id="connector25pin" fill="none" stroke="#787878" stroke-width="0.75" stroke-linecap="round" x1="122.75" y1="216.506" x2="108.349" y2="216.506"/>
	<rect id="connector25terminal" x="122.75" y="216.506" fill="none" width="0" height="0"/>
	<text x="114.1733" y="215.4568" fill="#8C8C8C" font-family="'DroidSans'" font-size="2.5">26</text>
	<text x="90.9019" y="217.2068" fill="#787878" font-family="'DroidSans'" font-size="3.5">RX_TRACE</text>
	
		<line id="connector26pin" fill="none" stroke="#787878" stroke-width="0.75" stroke-linecap="round" x1="122.75" y1="7.707" x2="108.349" y2="7.707"/>
	<rect id="connector26terminal" x="122.75" y="7.707" fill="none" width="0" height="0"/>
	<text x="114.1733" y="6.6575" fill="#8C8C8C" font-family="'DroidSans'" font-size="2.5">27</text>
	<text x="96.5054" y="8.4075" fill="#787878" font-family="'DroidSans'" font-size="3.5">VBATT</text>
	<line id="connector27pin" fill="none" x1="0.35" y1="202.107" x2="14.75" y2="202.107"/>
	<rect id="connector27terminal" x="0.35" y="202.107" fill="none" width="0" height="0"/>
	
		<line id="connector28pin" fill="none" stroke="#787878" stroke-width="0.75" stroke-linecap="round" x1="0.35" y1="22.107" x2="14.75" y2="22.107"/>
	<rect id="connector28terminal" x="0.35" y="22.107" fill="none" width="0" height="0"/>
	<text x="6.1748" y="21.0588" fill="#8C8C8C" font-family="'DroidSans'" font-size="2.5">29</text>
	<text x="16.8506" y="22.8069" fill="#787878" font-family="'DroidSans'" font-size="3.5">STAT_LED</text>
	
		<line id="connector29pin" fill="none" stroke="#787878" stroke-width="0.75" stroke-linecap="round" x1="122.75" y1="295.707" x2="108.349" y2="295.707"/>
	<rect id="connector29terminal" x="122.75" y="295.707" fill="none" width="0" height="0"/>
	<text x="114.1733" y="294.658" fill="#8C8C8C" font-family="'DroidSans'" font-size="2.5">30</text>
	<text x="100.3628" y="296.406" fill="#787878" font-family="'DroidSans'" font-size="3.5">AXE</text>
	
		<line id="connector30pin" fill="none" stroke="#787878" stroke-width="0.75" stroke-linecap="round" x1="0.35" y1="43.706" x2="14.75" y2="43.706"/>
	<rect id="connector30terminal" x="0.35" y="43.706" fill="none" width="0" height="0.001"/>
	<text x="6.1748" y="42.6584" fill="#8C8C8C" font-family="'DroidSans'" font-size="2.5">31</text>
	<text x="16.8506" y="44.4084" fill="#787878" font-family="'DroidSans'" font-size="3.5">VAUX1</text>
	
		<line id="connector31pin" fill="none" stroke="#787878" stroke-width="0.75" stroke-linecap="round" x1="0.35" y1="166.107" x2="14.75" y2="166.107"/>
	<rect id="connector31terminal" x="0.35" y="166.107" fill="none" width="0" height="0"/>
	<text x="6.1748" y="165.0559" fill="#8C8C8C" font-family="'DroidSans'" font-size="2.5">32</text>
	<text x="16.8506" y="166.8059" fill="#787878" font-family="'DroidSans'" font-size="3.5">GPIO4/CAM_SDA</text>
	
		<line id="connector32pin" fill="none" stroke="#787878" stroke-width="0.75" stroke-linecap="round" x1="0.35" y1="180.506" x2="14.75" y2="180.506"/>
	<rect id="connector32terminal" x="0.35" y="180.506" fill="none" width="0" height="0"/>
	<text x="6.1748" y="179.4568" fill="#8C8C8C" font-family="'DroidSans'" font-size="2.5">33</text>
	<text x="16.8506" y="181.2068" fill="#787878" font-family="'DroidSans'" font-size="3.5">GPIO2/JDR</text>
	
		<line id="connector33pin" fill="none" stroke="#787878" stroke-width="0.75" stroke-linecap="round" x1="0.35" y1="187.707" x2="14.75" y2="187.707"/>
	<rect id="connector33terminal" x="0.35" y="187.707" fill="none" width="0" height="0"/>
	<text x="6.1748" y="186.658" fill="#8C8C8C" font-family="'DroidSans'" font-size="2.5">34</text>
	<text x="16.8506" y="188.406" fill="#787878" font-family="'DroidSans'" font-size="3.5">GPIO1</text>
	
		<line id="connector34pin" fill="none" stroke="#787878" stroke-width="0.75" stroke-linecap="round" x1="0.35" y1="29.307" x2="14.75" y2="29.307"/>
	<rect id="connector34terminal" x="0.35" y="29.307" fill="none" width="0" height="0"/>
	<text x="6.1748" y="28.2571" fill="#8C8C8C" font-family="'DroidSans'" font-size="2.5">35</text>
	<text x="16.8506" y="30.0081" fill="#787878" font-family="'DroidSans'" font-size="3.5">CHARGE</text>
	<line id="connector35pin" fill="none" x1="0.35" y1="202.107" x2="14.75" y2="202.107"/>
	<rect id="connector35terminal" x="0.35" y="202.107" fill="none" width="0" height="0"/>
	
		<line id="connector36pin" fill="none" stroke="#787878" stroke-width="0.75" stroke-linecap="round" x1="122.75" y1="202.107" x2="108.349" y2="202.107"/>
	<rect id="connector36terminal" x="122.75" y="202.107" fill="none" width="0" height="0"/>
	<text x="114.1733" y="201.0564" fill="#8C8C8C" font-family="'DroidSans'" font-size="2.5">37</text>
	<text x="90.9272" y="202.8064" fill="#787878" font-family="'DroidSans'" font-size="3.5">C103/TXD</text>
	
		<line id="connector37pin" fill="none" stroke="#787878" stroke-width="0.75" stroke-linecap="round" x1="122.75" y1="194.906" x2="108.349" y2="194.906"/>
	<rect id="connector37terminal" x="122.75" y="194.906" fill="none" width="0" height="0"/>
	<text x="114.1733" y="193.8572" fill="#8C8C8C" font-family="'DroidSans'" font-size="2.5">38</text>
	<text x="90.6792" y="195.6072" fill="#787878" font-family="'DroidSans'" font-size="3.5">C104/RXD</text>
	
		<line id="connector38pin" fill="none" stroke="#787878" stroke-width="0.75" stroke-linecap="round" x1="122.75" y1="187.707" x2="108.349" y2="187.707"/>
	<rect id="connector38terminal" x="122.75" y="187.707" fill="none" width="0" height="0"/>
	<text x="114.1733" y="186.658" fill="#8C8C8C" font-family="'DroidSans'" font-size="2.5">39</text>
	<text x="90.8804" y="188.406" fill="#787878" font-family="'DroidSans'" font-size="3.5">C108/DTR</text>
	
		<line id="connector39pin" fill="none" stroke="#787878" stroke-width="0.75" stroke-linecap="round" x1="122.75" y1="180.506" x2="108.349" y2="180.506"/>
	<rect id="connector39terminal" x="122.75" y="180.506" fill="none" width="0" height="0"/>
	<text x="114.1733" y="179.4568" fill="#8C8C8C" font-family="'DroidSans'" font-size="2.5">40</text>
	<text x="91.4214" y="181.2068" fill="#787878" font-family="'DroidSans'" font-size="3.5">C105/RTS</text>
	
		<line id="connector40pin" fill="none" stroke="#787878" stroke-width="0.75" stroke-linecap="round" x1="122.75" y1="173.306" x2="108.349" y2="173.306"/>
	<rect id="connector40terminal" x="122.75" y="173.306" fill="none" width="0" height="0"/>
	<text x="114.1733" y="172.2576" fill="#8C8C8C" font-family="'DroidSans'" font-size="2.5">41</text>
	<text x="91.3413" y="174.0076" fill="#787878" font-family="'DroidSans'" font-size="3.5">C106/CTS</text>
	
		<line id="connector41pin" fill="none" stroke="#787878" stroke-width="0.75" stroke-linecap="round" x1="122.75" y1="166.107" x2="108.349" y2="166.107"/>
	<rect id="connector41terminal" x="122.75" y="166.107" fill="none" width="0" height="0"/>
	<text x="114.1733" y="165.0559" fill="#8C8C8C" font-family="'DroidSans'" font-size="2.5">42</text>
	<text x="90.1499" y="166.8059" fill="#787878" font-family="'DroidSans'" font-size="3.5">C109/DCD</text>
	
		<line id="connector42pin" fill="none" stroke="#787878" stroke-width="0.75" stroke-linecap="round" x1="122.75" y1="158.906" x2="108.349" y2="158.906"/>
	<rect id="connector42terminal" x="122.75" y="158.906" fill="none" width="0" height="0"/>
	<text x="114.1733" y="157.8577" fill="#8C8C8C" font-family="'DroidSans'" font-size="2.5">43</text>
	<text x="90.7769" y="159.6077" fill="#787878" font-family="'DroidSans'" font-size="3.5">C107/DSR</text>
	
		<line id="connector43pin" fill="none" stroke="#787878" stroke-width="0.75" stroke-linecap="round" x1="122.75" y1="151.706" x2="108.349" y2="151.706"/>
	<rect id="connector43terminal" x="122.75" y="151.706" fill="none" width="0" height="0"/>
	<text x="114.1733" y="150.6584" fill="#8C8C8C" font-family="'DroidSans'" font-size="2.5">44</text>
	<text x="88.8354" y="152.4084" fill="#787878" font-family="'DroidSans'" font-size="3.5">C125/RING</text>
	<line id="connector44pin" fill="none" x1="0.35" y1="202.107" x2="14.75" y2="202.107"/>
	<rect id="connector44terminal" x="0.35" y="202.107" fill="none" width="0" height="0"/>
	
		<line id="connector45pin" fill="none" stroke="#787878" stroke-width="0.75" stroke-linecap="round" x1="0.35" y1="14.906" x2="14.75" y2="14.906"/>
	<rect id="connector45terminal" x="0.35" y="14.906" fill="none" width="0" height="0.001"/>
	<text x="6.1748" y="13.8577" fill="#8C8C8C" font-family="'DroidSans'" font-size="2.5">46</text>
	<text x="16.8506" y="15.6077" fill="#787878" font-family="'DroidSans'" font-size="3.5">ON/OFF</text>
	
		<line id="connector46pin" fill="none" stroke="#787878" stroke-width="0.75" stroke-linecap="round" x1="0.35" y1="7.707" x2="14.75" y2="7.707"/>
	<rect id="connector46terminal" x="0.35" y="7.707" fill="none" width="0" height="0"/>
	<text x="6.1748" y="6.6575" fill="#8C8C8C" font-family="'DroidSans'" font-size="2.5">47</text>
	<text x="16.8506" y="8.4075" fill="#787878" font-family="'DroidSans'" font-size="3.5">RESET</text>
	<line id="connector47pin" fill="none" x1="0.35" y1="202.107" x2="14.75" y2="202.107"/>
	<rect id="connector47terminal" x="0.35" y="202.107" fill="none" width="0" height="0"/>
	
		<line id="connector48pin" fill="none" stroke="#787878" stroke-width="0.75" stroke-linecap="round" x1="122.75" y1="22.107" x2="108.349" y2="22.107"/>
	<rect id="connector48terminal" x="122.75" y="22.107" fill="none" width="0" height="0"/>
	<text x="114.1733" y="21.0588" fill="#8C8C8C" font-family="'DroidSans'" font-size="2.5">49</text>
	<text x="99.7554" y="22.8069" fill="#787878" font-family="'DroidSans'" font-size="3.5">ANT</text>
	<line id="connector49pin" fill="none" x1="0.35" y1="202.107" x2="14.75" y2="202.107"/>
	<rect id="connector49terminal" x="0.35" y="202.107" fill="none" width="0" height="0"/>
	
		<line id="connector50pin" fill="none" stroke="#787878" stroke-width="0.75" stroke-linecap="round" x1="0.35" y1="144.506" x2="14.75" y2="144.506"/>
	<rect id="connector50terminal" x="0.35" y="144.506" fill="none" width="0" height="0.001"/>
	<text x="6.1748" y="143.4573" fill="#8C8C8C" font-family="'DroidSans'" font-size="2.5">51</text>
	<text x="16.8506" y="145.2073" fill="#787878" font-family="'DroidSans'" font-size="3.5">GPIO7/BUZZER</text>
	
		<line id="connector51pin" fill="none" stroke="#787878" stroke-width="0.75" stroke-linecap="round" x1="0.35" y1="50.906" x2="14.75" y2="50.906"/>
	<rect id="connector51terminal" x="0.35" y="50.906" fill="none" width="0" height="0"/>
	<text x="6.1748" y="49.8577" fill="#8C8C8C" font-family="'DroidSans'" font-size="2.5">52</text>
	<text x="16.8506" y="51.6077" fill="#787878" font-family="'DroidSans'" font-size="3.5">PWRMON</text>
	
		<line id="connector52pin" fill="none" stroke="#787878" stroke-width="0.75" stroke-linecap="round" x1="0.35" y1="158.906" x2="14.75" y2="158.906"/>
	<rect id="connector52terminal" x="0.35" y="158.906" fill="none" width="0" height="0"/>
	<text x="6.1748" y="157.8577" fill="#8C8C8C" font-family="'DroidSans'" font-size="2.5">53</text>
	<text x="16.8506" y="159.6077" fill="#787878" font-family="'DroidSans'" font-size="3.5">GPIO5</text>
	
		<line id="connector53pin" fill="none" stroke="#787878" stroke-width="0.75" stroke-linecap="round" x1="0.35" y1="151.706" x2="14.75" y2="151.706"/>
	<rect id="connector53terminal" x="0.35" y="151.706" fill="none" width="0" height="0"/>
	<text x="6.1748" y="150.6584" fill="#8C8C8C" font-family="'DroidSans'" font-size="2.5">54</text>
	<text x="16.8506" y="152.4084" fill="#787878" font-family="'DroidSans'" font-size="3.5">GPIO6</text>
	
		<line id="connector54pin" fill="none" stroke="#787878" stroke-width="0.75" stroke-linecap="round" x1="0.35" y1="173.306" x2="14.75" y2="173.306"/>
	<rect id="connector54terminal" x="0.35" y="173.306" fill="none" width="0" height="0"/>
	<text x="6.1748" y="172.2576" fill="#8C8C8C" font-family="'DroidSans'" font-size="2.5">55</text>
	<text x="16.8506" y="174.0076" fill="#787878" font-family="'DroidSans'" font-size="3.5">GPIO3/CAM_SCL</text>
	<line id="connector55pin" fill="none" x1="0.35" y1="202.107" x2="14.75" y2="202.107"/>
	<rect id="connector55terminal" x="0.35" y="202.107" fill="none" width="0" height="0"/>
	
		<line id="connector58pin" fill="none" stroke="#787878" stroke-width="0.75" stroke-linecap="round" x1="0.35" y1="72.507" x2="14.75" y2="72.507"/>
	<rect id="connector58terminal" x="0.35" y="72.507" fill="none" width="0" height="0"/>
	<text x="6.1748" y="71.4563" fill="#8C8C8C" font-family="'DroidSans'" font-size="2.5">59</text>
	<text x="16.8506" y="73.2073" fill="#787878" font-family="'DroidSans'" font-size="3.5">GPIO17</text>
	
		<line id="connector59pin" fill="none" stroke="#787878" stroke-width="0.75" stroke-linecap="round" x1="0.35" y1="94.107" x2="14.75" y2="94.107"/>
	<rect id="connector59terminal" x="0.35" y="94.107" fill="none" width="0" height="0"/>
	<text x="6.1748" y="93.0569" fill="#8C8C8C" font-family="'DroidSans'" font-size="2.5">60</text>
	<text x="16.8506" y="94.8059" fill="#787878" font-family="'DroidSans'" font-size="3.5">GPIO14</text>
	
		<line id="connector62pin" fill="none" stroke="#787878" stroke-width="0.75" stroke-linecap="round" x1="122.75" y1="288.506" x2="108.349" y2="288.506"/>
	<rect id="connector62terminal" x="122.75" y="288.506" fill="none" width="0" height="0"/>
	<text x="114.1733" y="287.4587" fill="#8C8C8C" font-family="'DroidSans'" font-size="2.5">63</text>
	<text x="91.3882" y="289.2068" fill="#787878" font-family="'DroidSans'" font-size="3.5">DAC_OUT</text>
	
		<line id="connector63pin" fill="none" stroke="#787878" stroke-width="0.75" stroke-linecap="round" x1="0.35" y1="79.706" x2="14.75" y2="79.706"/>
	<rect id="connector63terminal" x="0.35" y="79.706" fill="none" width="0" height="0.001"/>
	<text x="6.1748" y="78.6575" fill="#8C8C8C" font-family="'DroidSans'" font-size="2.5">64</text>
	<text x="16.8506" y="80.4084" fill="#787878" font-family="'DroidSans'" font-size="3.5">GPIO16</text>
	<line id="connector66pin" fill="none" x1="0.35" y1="202.107" x2="14.75" y2="202.107"/>
	<rect id="connector66terminal" x="0.35" y="202.107" fill="none" width="0" height="0"/>
	
		<line id="connector67pin" fill="none" stroke="#787878" stroke-width="0.75" stroke-linecap="round" x1="122.75" y1="72.507" x2="108.349" y2="72.507"/>
	<rect id="connector67terminal" x="122.75" y="72.507" fill="none" width="0" height="0"/>
	<text x="114.1733" y="71.4563" fill="#8C8C8C" font-family="'DroidSans'" font-size="2.5">68</text>
	<text x="94.8335" y="73.2073" fill="#787878" font-family="'DroidSans'" font-size="3.5">TX_GPS</text>
	<line id="connector68pin" fill="none" x1="0.35" y1="202.107" x2="14.75" y2="202.107"/>
	<rect id="connector68terminal" x="0.35" y="202.107" fill="none" width="0" height="0"/>
	
		<line id="connector70pin" fill="none" stroke="#787878" stroke-width="0.75" stroke-linecap="round" x1="0.35" y1="86.906" x2="14.75" y2="86.906"/>
	<rect id="connector70terminal" x="0.35" y="86.906" fill="none" width="0" height="0"/>
	<text x="6.1748" y="85.8567" fill="#8C8C8C" font-family="'DroidSans'" font-size="2.5">71</text>
	<text x="16.8506" y="87.6077" fill="#787878" font-family="'DroidSans'" font-size="3.5">GPIO15</text>
	<line id="connector71pin" fill="none" x1="0.35" y1="202.107" x2="14.75" y2="202.107"/>
	<rect id="connector71terminal" x="0.35" y="202.107" fill="none" width="0" height="0"/>
	
		<line id="connector72pin" fill="none" stroke="#787878" stroke-width="0.75" stroke-linecap="round" x1="122.75" y1="65.307" x2="108.349" y2="65.307"/>
	<rect id="connector72terminal" x="122.75" y="65.307" fill="none" width="0" height="0"/>
	<text x="114.1733" y="64.2581" fill="#8C8C8C" font-family="'DroidSans'" font-size="2.5">73</text>
	<text x="94.5854" y="66.0081" fill="#787878" font-family="'DroidSans'" font-size="3.5">RX_GPS</text>
	
		<line id="connector74pin" fill="none" stroke="#787878" stroke-width="0.75" stroke-linecap="round" x1="122.75" y1="58.107" x2="108.349" y2="58.107"/>
	<rect id="connector74terminal" x="122.75" y="58.107" fill="none" width="0" height="0"/>
	<text x="114.1733" y="57.0588" fill="#8C8C8C" font-family="'DroidSans'" font-size="2.5">75</text>
	<text x="100.4019" y="58.8059" fill="#787878" font-family="'DroidSans'" font-size="3.5">PPS</text>
	
		<line id="connector75pin" fill="none" stroke="#787878" stroke-width="0.75" stroke-linecap="round" x1="0.35" y1="65.307" x2="14.75" y2="65.307"/>
	<rect id="connector75terminal" x="0.35" y="65.307" fill="none" width="0" height="0"/>
	<text x="6.1748" y="64.2581" fill="#8C8C8C" font-family="'DroidSans'" font-size="2.5">76</text>
	<text x="16.8506" y="66.0081" fill="#787878" font-family="'DroidSans'" font-size="3.5">GPIO18</text>
	<line id="connector76pin" fill="none" x1="0.35" y1="202.107" x2="14.75" y2="202.107"/>
	<rect id="connector76terminal" x="0.35" y="202.107" fill="none" width="0" height="0"/>
	
		<line id="connector77pin" fill="none" stroke="#787878" stroke-width="0.75" stroke-linecap="round" x1="122.75" y1="50.906" x2="108.349" y2="50.906"/>
	<rect id="connector77terminal" x="122.75" y="50.906" fill="none" width="0" height="0"/>
	<text x="114.1733" y="49.8577" fill="#8C8C8C" font-family="'DroidSans'" font-size="2.5">78</text>
	<text x="87.269" y="51.6077" fill="#787878" font-family="'DroidSans'" font-size="3.5">RX_GPS_BIN</text>
	<line id="connector78pin" fill="none" x1="0.35" y1="202.107" x2="14.75" y2="202.107"/>
	<rect id="connector78terminal" x="0.35" y="202.107" fill="none" width="0" height="0"/>
	
		<line id="connector79pin" fill="none" stroke="#787878" stroke-width="0.75" stroke-linecap="round" x1="122.75" y1="43.706" x2="108.349" y2="43.706"/>
	<rect id="connector79terminal" x="122.75" y="43.706" fill="none" width="0" height="0.001"/>
	<text x="114.1733" y="42.6584" fill="#8C8C8C" font-family="'DroidSans'" font-size="2.5">80</text>
	<text x="87.5171" y="44.4084" fill="#787878" font-family="'DroidSans'" font-size="3.5">TX_GPS_BIN</text>
	<line id="connector81pin" fill="none" x1="0.35" y1="202.107" x2="14.75" y2="202.107"/>
	<rect id="connector81terminal" x="0.35" y="202.107" fill="none" width="0" height="0"/>
	
		<line id="connector82pin" fill="none" stroke="#787878" stroke-width="0.75" stroke-linecap="round" x1="122.75" y1="29.307" x2="108.349" y2="29.307"/>
	<rect id="connector82terminal" x="122.75" y="29.307" fill="none" width="0" height="0"/>
	<text x="114.1733" y="28.2571" fill="#8C8C8C" font-family="'DroidSans'" font-size="2.5">83</text>
	<text x="92.0679" y="30.0081" fill="#787878" font-family="'DroidSans'" font-size="3.5">GPS_ANT</text>
	
		<line id="connector83pin" fill="none" stroke="#787878" stroke-width="0.75" stroke-linecap="round" x1="0.35" y1="302.906" x2="14.75" y2="302.906"/>
	<rect id="connector83terminal" x="0.35" y="302.906" fill="none" width="0" height="0"/>
	<text x="6.1748" y="301.8572" fill="#8C8C8C" font-family="'DroidSans'" font-size="2.5">84</text>
	<text x="16.8506" y="303.6072" fill="#787878" font-family="'DroidSans'" font-size="3.5">GND_GPS</text>
</g>
</svg>
