<?xml version="1.0" encoding="utf-8"?>
<!-- Generator: Adobe Illustrator 16.0.0, SVG Export Plug-In . SVG Version: 6.00 Build 0)  -->
<!DOCTYPE svg PUBLIC "-//W3C//DTD SVG 1.1//EN" "http://www.w3.org/Graphics/SVG/1.1/DTD/svg11.dtd">
<svg version="1.1" id="Layer_1" xmlns:svg="http://www.w3.org/2000/svg"
	 xmlns="http://www.w3.org/2000/svg" xmlns:xlink="http://www.w3.org/1999/xlink" x="0px" y="0px" width="104.525px"
	 height="152.074px" viewBox="0 0 104.525 152.074" enable-background="new 0 0 104.525 152.074" xml:space="preserve">
<g id="schematic">
	<rect x="14.75" y="0.36" fill="#FFFFFF" width="72" height="151.199"/>
	<text id="label" x="41.542" y="73.6951" font-family="'DroidSans'" font-size="4.25">ENC28J60</text>
	<line fill="none" stroke="#000000" stroke-width="0.9" stroke-linecap="round" x1="14.75" y1="151.559" x2="86.75" y2="151.559"/>
	<line fill="none" stroke="#000000" stroke-width="0.9" stroke-linecap="round" x1="86.75" y1="151.559" x2="86.75" y2="0.36"/>
	<line fill="none" stroke="#000000" stroke-width="0.9" stroke-linecap="round" x1="86.75" y1="0.36" x2="14.75" y2="0.36"/>
	<line fill="none" stroke="#000000" stroke-width="0.9" stroke-linecap="round" x1="14.75" y1="0.36" x2="14.75" y2="151.559"/>
	<line fill="none" stroke="#000000" stroke-width="0.75" stroke-linecap="round" x1="97.55" y1="126.36" x2="104.029" y2="119.88"/>
	<line fill="none" stroke="#000000" stroke-width="0.75" stroke-linecap="round" x1="104.029" y1="126.36" x2="97.55" y2="119.88"/>
	
		<line id="connector0pin" fill="none" stroke="#787878" stroke-width="0.75" stroke-linecap="round" x1="0.35" y1="108.36" x2="14.75" y2="108.36"/>
	<rect id="connector0terminal" x="0.35" y="108.36" fill="none" width="0" height="0"/>
	<text x="6.8613" y="107.3103" fill="#8C8C8C" font-family="'DroidSans'" font-size="2.5">1</text>
	<text x="16.8506" y="109.0603" fill="#787878" font-family="'DroidSans'" font-size="3.5">VCAP</text>
	
		<line id="connector1pin" fill="none" stroke="#787878" stroke-width="0.75" stroke-linecap="round" x1="0.35" y1="122.76" x2="14.75" y2="122.76"/>
	<rect id="connector1terminal" x="0.35" y="122.76" fill="none" width="0" height="0.001"/>
	<text x="6.8613" y="121.7107" fill="#8C8C8C" font-family="'DroidSans'" font-size="2.5">2</text>
	<text x="16.8506" y="123.4597" fill="#787878" font-family="'DroidSans'" font-size="3.5">VSS</text>
	
		<line id="connector2pin" fill="none" stroke="#787878" stroke-width="0.75" stroke-linecap="round" x1="101.15" y1="108.36" x2="86.75" y2="108.36"/>
	<rect id="connector2terminal" x="101.15" y="108.36" fill="none" width="0" height="0"/>
	<text x="93.2627" y="107.3103" fill="#8C8C8C" font-family="'DroidSans'" font-size="2.5">3</text>
	<text x="72.0068" y="109.0603" fill="#787878" font-family="'DroidSans'" font-size="3.5">CLKOUT</text>
	
		<line id="connector3pin" fill="none" stroke="#787878" stroke-width="0.75" stroke-linecap="round" x1="101.15" y1="101.16" x2="86.75" y2="101.16"/>
	<rect id="connector3terminal" x="101.15" y="101.16" fill="none" width="0" height="0"/>
	<text x="93.2627" y="100.1111" fill="#8C8C8C" font-family="'DroidSans'" font-size="2.5">4</text>
	<text x="77.79 1" y="01.8611" fill="#787878" font-family="'DroidSans'" font-size="3.5">/INT</text>
	
		<line id="connector4pin" fill="none" stroke="#787878" stroke-width="0.75" stroke-linecap="round" x1="101.15" y1="122.76" x2="86.75" y2="122.76"/>
	<rect id="connector4terminal" x="101.15" y="122.76" fill="none" width="0" height="0.001"/>
	<text x="93.2627" y="121.7107" fill="#8C8C8C" font-family="'DroidSans'" font-size="2.5">5</text>
	<text x="79.9893" y="123.4597" fill="#787878" font-family="'DroidSans'" font-size="3.5">NC</text>
	
		<line id="connector5pin" fill="none" stroke="#787878" stroke-width="0.75" stroke-linecap="round" x1="101.15" y1="86.76" x2="86.75" y2="86.76"/>
	<rect id="connector5terminal" x="101.15" y="86.76" fill="none" width="0" height="0.001"/>
	<text x="93.2627" y="85.7097" fill="#8C8C8C" font-family="'DroidSans'" font-size="2.5">6</text>
	<text x="80.2373" y="87.4597" fill="#787878" font-family="'DroidSans'" font-size="3.5">SO</text>
	
		<line id="connector6pin" fill="none" stroke="#787878" stroke-width="0.75" stroke-linecap="round" x1="101.15" y1="79.56" x2="86.75" y2="79.56"/>
	<rect id="connector6terminal" x="101.15" y="79.56" fill="none" width="0" height="0"/>
	<text x="93.2627" y="78.5115" fill="#8C8C8C" font-family="'DroidSans'" font-size="2.5">7</text>
	<text x="81.6475" y="80.2615" fill="#787878" font-family="'DroidSans'" font-size="3.5">SI</text>
	
		<line id="connector7pin" fill="none" stroke="#787878" stroke-width="0.75" stroke-linecap="round" x1="101.15" y1="72.36" x2="86.75" y2="72.36"/>
	<rect id="connector7terminal" x="101.15" y="72.36" fill="none" width="0" height="0"/>
	<text x="93.2627" y="71.3103" fill="#8C8C8C" font-family="'DroidSans'" font-size="2.5">8</text>
	<text x="78.6963" y="73.0593" fill="#787878" font-family="'DroidSans'" font-size="3.5">SCK</text>
	
		<line id="connector8pin" fill="none" stroke="#787878" stroke-width="0.75" stroke-linecap="round" x1="0.35" y1="14.76" x2="14.75" y2="14.76"/>
	<rect id="connector8terminal" x="0.35" y="14.76" fill="none" width="0" height="0"/>
	<text x="6.8613" y="13.7107" fill="#8C8C8C" font-family="'DroidSans'" font-size="2.5">9</text>
	<text x="16.8506" y="15.4597" fill="#787878" font-family="'DroidSans'" font-size="3.5">CS</text>
	
		<line id="connector9pin" fill="none" stroke="#787878" stroke-width="0.75" stroke-linecap="round" x1="0.35" y1="7.56" x2="14.75" y2="7.56"/>
	<rect id="connector9terminal" x="0.35" y="7.56" fill="none" width="0" height="0"/>
	<text x="6.1748" y="6.5105" fill="#8C8C8C" font-family="'DroidSans'" font-size="2.5">10</text>
	<text x="16.8506" y="8.2615" fill="#787878" font-family="'DroidSans'" font-size="3.5">RESET</text>
	
		<line id="connector10pin" fill="none" stroke="#787878" stroke-width="0.75" stroke-linecap="round" x1="0.35" y1="137.16" x2="14.75" y2="137.16"/>
	<rect id="connector10terminal" x="0.35" y="137.16" fill="none" width="0" height="0"/>
	<text x="6.1748" y="136.1111" fill="#8C8C8C" font-family="'DroidSans'" font-size="2.5">11</text>
	<text x="16.8506" y="137.8611" fill="#787878" font-family="'DroidSans'" font-size="3.5">VSSRX</text>
	
		<line id="connector11pin" fill="none" stroke="#787878" stroke-width="0.75" stroke-linecap="round" x1="101.15" y1="36.36" x2="86.75" y2="36.36"/>
	<rect id="connector11terminal" x="101.15" y="36.36" fill="none" width="0" height="0"/>
	<text x="92.5732" y="35.3123" fill="#8C8C8C" font-family="'DroidSans'" font-size="2.5">12</text>
	<text x="75.9541" y="37.0603" fill="#787878" font-family="'DroidSans'" font-size="3.5">TPIN-</text>
	
		<line id="connector12pin" fill="none" stroke="#787878" stroke-width="0.75" stroke-linecap="round" x1="101.15" y1="29.16" x2="86.75" y2="29.16"/>
	<rect id="connector12terminal" x="101.15" y="29.16" fill="none" width="0" height="0.001"/>
	<text x="92.5732" y="28.1111" fill="#8C8C8C" font-family="'DroidSans'" font-size="2.5">13</text>
	<text x="75.1514" y="29.8611" fill="#787878" font-family="'DroidSans'" font-size="3.5">TPIN+</text>
	
		<line id="connector13pin" fill="none" stroke="#787878" stroke-width="0.75" stroke-linecap="round" x1="0.35" y1="101.16" x2="14.75" y2="101.16"/>
	<rect id="connector13terminal" x="0.35" y="101.16" fill="none" width="0" height="0"/>
	<text x="6.1748" y="100.1111" fill="#8C8C8C" font-family="'DroidSans'" font-size="2.5">14</text>
	<text x="16.8506" y="101.8611" fill="#787878" font-family="'DroidSans'" font-size="3.5">RBIAS</text>
	
		<line id="connector14pin" fill="none" stroke="#787878" stroke-width="0.75" stroke-linecap="round" x1="0.35" y1="86.76" x2="14.75" y2="86.76"/>
	<rect id="connector14terminal" x="0.35" y="86.76" fill="none" width="0" height="0.001"/>
	<text x="6.1748" y="85.7097" fill="#8C8C8C" font-family="'DroidSans'" font-size="2.5">15</text>
	<text x="16.8506" y="87.4597" fill="#787878" font-family="'DroidSans'" font-size="3.5">VDDTX</text>
	
		<line id="connector15pin" fill="none" stroke="#787878" stroke-width="0.75" stroke-linecap="round" x1="101.15" y1="57.96" x2="86.75" y2="57.96"/>
	<rect id="connector15terminal" x="101.15" y="57.96" fill="none" width="0" height="0.001"/>
	<text x="92.5732" y="56.9119" fill="#8C8C8C" font-family="'DroidSans'" font-size="2.5">16</text>
	<text x="73.0068" y="58.6619" fill="#787878" font-family="'DroidSans'" font-size="3.5">TPOUT-</text>
	
		<line id="connector16pin" fill="none" stroke="#787878" stroke-width="0.75" stroke-linecap="round" x1="101.15" y1="50.76" x2="86.75" y2="50.76"/>
	<rect id="connector16terminal" x="101.15" y="50.76" fill="none" width="0" height="0"/>
	<text x="92.5732" y="49.7097" fill="#8C8C8C" font-family="'DroidSans'" font-size="2.5">17</text>
	<text x="72.0313" y="51.4607" fill="#787878" font-family="'DroidSans'" font-size="3.5">TPOUT+</text>
	
		<line id="connector17pin" fill="none" stroke="#787878" stroke-width="0.75" stroke-linecap="round" x1="0.35" y1="144.36" x2="14.75" y2="144.36"/>
	<rect id="connector17terminal" x="0.35" y="144.36" fill="none" width="0" height="0"/>
	<text x="6.1748" y="143.3103" fill="#8C8C8C" font-family="'DroidSans'" font-size="2.5">18</text>
	<text x="16.8506" y="145.0603" fill="#787878" font-family="'DroidSans'" font-size="3.5">VSSTX</text>
	
		<line id="connector18pin" fill="none" stroke="#787878" stroke-width="0.75" stroke-linecap="round" x1="0.35" y1="79.56" x2="14.75" y2="79.56"/>
	<rect id="connector18terminal" x="0.35" y="79.56" fill="none" width="0" height="0"/>
	<text x="6.1748" y="78.5115" fill="#8C8C8C" font-family="'DroidSans'" font-size="2.5">19</text>
	<text x="16.8506" y="80.2615" fill="#787878" font-family="'DroidSans'" font-size="3.5">VDDRX</text>
	
		<line id="connector19pin" fill="none" stroke="#787878" stroke-width="0.75" stroke-linecap="round" x1="0.35" y1="72.36" x2="14.75" y2="72.36"/>
	<rect id="connector19terminal" x="0.35" y="72.36" fill="none" width="0" height="0"/>
	<text x="6.1748" y="71.3103" fill="#8C8C8C" font-family="'DroidSans'" font-size="2.5">20</text>
	<text x="16.8506" y="73.0593" fill="#787878" font-family="'DroidSans'" font-size="3.5">VDDPLL</text>
	
		<line id="connector20pin" fill="none" stroke="#787878" stroke-width="0.75" stroke-linecap="round" x1="0.35" y1="129.96" x2="14.75" y2="129.96"/>
	<rect id="connector20terminal" x="0.35" y="129.96" fill="none" width="0" height="0"/>
	<text x="6.1748" y="128.9109" fill="#8C8C8C" font-family="'DroidSans'" font-size="2.5">21</text>
	<text x="16.8506" y="130.6619" fill="#787878" font-family="'DroidSans'" font-size="3.5">VSSPLL</text>
	
		<line id="connector21pin" fill="none" stroke="#787878" stroke-width="0.75" stroke-linecap="round" x1="0.35" y1="50.76" x2="14.75" y2="50.76"/>
	<rect id="connector21terminal" x="0.35" y="50.76" fill="none" width="0" height="0"/>
	<text x="6.1748" y="49.7097" fill="#8C8C8C" font-family="'DroidSans'" font-size="2.5">22</text>
	<text x="16.8506" y="51.4607" fill="#787878" font-family="'DroidSans'" font-size="3.5">VSSOSC</text>
	
		<line id="connector22pin" fill="none" stroke="#787878" stroke-width="0.75" stroke-linecap="round" x1="0.35" y1="43.56" x2="14.75" y2="43.56"/>
	<rect id="connector22terminal" x="0.35" y="43.56" fill="none" width="0" height="0"/>
	<text x="6.1748" y="42.5115" fill="#8C8C8C" font-family="'DroidSans'" font-size="2.5">23</text>
	<text x="16.8506" y="44.2605" fill="#787878" font-family="'DroidSans'" font-size="3.5">OSC1</text>
	
		<line id="connector23pin" fill="none" stroke="#787878" stroke-width="0.75" stroke-linecap="round" x1="0.35" y1="36.36" x2="14.75" y2="36.36"/>
	<rect id="connector23terminal" x="0.35" y="36.36" fill="none" width="0" height="0"/>
	<text x="6.1748" y="35.3123" fill="#8C8C8C" font-family="'DroidSans'" font-size="2.5">24</text>
	<text x="16.8506" y="37.0603" fill="#787878" font-family="'DroidSans'" font-size="3.5">OSC2</text>
	
		<line id="connector24pin" fill="none" stroke="#787878" stroke-width="0.75" stroke-linecap="round" x1="0.35" y1="29.16" x2="14.75" y2="29.16"/>
	<rect id="connector24terminal" x="0.35" y="29.16" fill="none" width="0" height="0.001"/>
	<text x="6.1748" y="28.1111" fill="#8C8C8C" font-family="'DroidSans'" font-size="2.5">25</text>
	<text x="16.8506" y="29.8611" fill="#787878" font-family="'DroidSans'" font-size="3.5">VDDOSC</text>
	
		<line id="connector25pin" fill="none" stroke="#787878" stroke-width="0.75" stroke-linecap="round" x1="101.15" y1="14.76" x2="86.75" y2="14.76"/>
	<rect id="connector25terminal" x="101.15" y="14.76" fill="none" width="0" height="0"/>
	<text x="92.5732" y="13.7107" fill="#8C8C8C" font-family="'DroidSans'" font-size="2.5">26</text>
	<text x="76.5166" y="15.4597" fill="#787878" font-family="'DroidSans'" font-size="3.5">LEDB</text>
	
		<line id="connector26pin" fill="none" stroke="#787878" stroke-width="0.75" stroke-linecap="round" x1="101.15" y1="7.56" x2="86.75" y2="7.56"/>
	<rect id="connector26terminal" x="101.15" y="7.56" fill="none" width="0" height="0"/>
	<text x="92.5732" y="6.5105" fill="#8C8C8C" font-family="'DroidSans'" font-size="2.5">27</text>
	<text x="76.5967" y="8.2615" fill="#787878" font-family="'DroidSans'" font-size="3.5">LEDA</text>
	
		<line id="connector27pin" fill="none" stroke="#787878" stroke-width="0.75" stroke-linecap="round" x1="0.35" y1="65.16" x2="14.75" y2="65.16"/>
	<rect id="connector27terminal" x="0.35" y="65.16" fill="none" width="0" height="0"/>
	<text x="6.1748" y="64.1111" fill="#8C8C8C" font-family="'DroidSans'" font-size="2.5">28</text>
	<text x="16.8506" y="65.8611" fill="#787878" font-family="'DroidSans'" font-size="3.5">VDD</text>
</g>
</svg>
