<?xml version="1.0" encoding="utf-8"?>
<!-- Generator: Adobe Illustrator 16.0.0, SVG Export Plug-In . SVG Version: 6.00 Build 0)  -->
<!DOCTYPE svg PUBLIC "-//W3C//DTD SVG 1.1//EN" "http://www.w3.org/Graphics/SVG/1.1/DTD/svg11.dtd">
<svg version="1.1" id="Layer_1" xmlns:svg="http://www.w3.org/2000/svg"
	 xmlns="http://www.w3.org/2000/svg" xmlns:xlink="http://www.w3.org/1999/xlink" x="0px" y="0px" width="202.69px"
	 height="202.3px" viewBox="0 0 202.69 202.3" enable-background="new 0 0 202.69 202.3" xml:space="preserve">
<g id="schematic">
	<rect x="14.962" y="14.75" fill="#FFFFFF" width="172.8" height="172.8"/>
	<rect x="14.962" y="14.75" fill="#FFFFFF" width="172.8" height="172.8"/>
	<line fill="none" stroke="#000000" stroke-width="0.9" stroke-linecap="round" x1="14.962" y1="14.75" x2="187.762" y2="14.75"/>
	<line fill="none" stroke="#000000" stroke-width="0.9" stroke-linecap="round" x1="187.762" y1="14.75" x2="187.762" y2="187.55"/>
	<line fill="none" stroke="#000000" stroke-width="0.9" stroke-linecap="round" x1="187.762" y1="187.55" x2="14.962" y2="187.55"/>
	<line fill="none" stroke="#000000" stroke-width="0.9" stroke-linecap="round" x1="14.962" y1="187.55" x2="14.962" y2="14.75"/>
	
		<line id="connector0pin" fill="none" stroke="#787878" stroke-width="0.9" stroke-linecap="round" x1="0.562" y1="79.55" x2="14.962" y2="79.55"/>
	<rect id="connector0terminal" x="0.562" y="79.55" fill="none" width="0.001" height="0"/>
	<text x="7.0735" y="78.4995" fill="#8C8C8C" font-family="'DroidSans'" font-size="2.5">1</text>
	<text x="17.0618" y="80.2495" fill="#787878" font-family="'DroidSans'" font-size="3.5">!VPW_RX</text>
	
		<line id="connector1pin" fill="none" stroke="#787878" stroke-width="0.9" stroke-linecap="round" x1="0.562" y1="86.75" x2="14.962" y2="86.75"/>
	<rect id="connector1terminal" x="0.562" y="86.75" fill="none" width="0.001" height="0"/>
	<text x="7.0735 8" y="5.6997" fill="#8C8C8C" font-family="'DroidSans'" font-size="2.5">2</text>
	<text x="17.0618" y="87.4487" fill="#787878" font-family="'DroidSans'" font-size="3.5">PWM_RX</text>
	
		<line id="connector2pin" fill="none" stroke="#787878" stroke-width="0.9" stroke-linecap="round" x1="0.562" y1="93.95" x2="14.962" y2="93.95"/>
	<rect id="connector2terminal" x="0.562" y="93.95" fill="none" width="0.001" height="0"/>
	<text x="7.0735" y="92.9009" fill="#8C8C8C" font-family="'DroidSans'" font-size="2.5">3</text>
	<text x="17.0618" y="94.6499" fill="#787878" font-family="'DroidSans'" font-size="3.5">J1850_BUS+_TX</text>
	
		<line id="connector3pin" fill="none" stroke="#787878" stroke-width="0.9" stroke-linecap="round" x1="0.562" y1="101.15" x2="14.962" y2="101.15"/>
	<rect id="connector3terminal" x="0.562" y="101.15" fill="none" width="0.001" height="0"/>
	<text x="7.0735" y="100.1001" fill="#8C8C8C" font-family="'DroidSans'" font-size="2.5">4</text>
	<text x="17.0618" y="101.8491" fill="#787878" font-family="'DroidSans'" font-size="3.5">!J1850_BUS-_TX</text>
	
		<line id="connector4pin" fill="none" stroke="#787878" stroke-width="0.9" stroke-linecap="round" x1="0.562" y1="108.35" x2="14.962" y2="108.35"/>
	<rect id="connector4terminal" x="0.562" y="108.35" fill="none" width="0.001" height="0"/>
	<text x="7.0735" y="107.2983" fill="#8C8C8C" font-family="'DroidSans'" font-size="2.5">5</text>
	<text x="17.0618" y="109.0483" fill="#787878" font-family="'DroidSans'" font-size="3.5">VSS</text>
	
		<line id="connector5pin" fill="none" stroke="#787878" stroke-width="0.9" stroke-linecap="round" x1="0.562" y1="115.55" x2="14.962" y2="115.55"/>
	<rect id="connector5terminal" x="0.562" y="115.55" fill="none" width="0.001" height="0"/>
	<text x="7.0735" y="114.4995" fill="#8C8C8C" font-family="'DroidSans'" font-size="2.5">6</text>
	<text x="17.0618" y="116.2495" fill="#787878" font-family="'DroidSans'" font-size="3.5">OSC1</text>
	
		<line id="connector6pin" fill="none" stroke="#787878" stroke-width="0.9" stroke-linecap="round" x1="0.562" y1="122.75" x2="14.962" y2="122.75"/>
	<rect id="connector6terminal" x="0.562" y="122.75" fill="none" width="0.001" height="0.001"/>
	<text x="7.0735" y="121.6987" fill="#8C8C8C" font-family="'DroidSans'" font-size="2.5">7</text>
	<text x="17.0618" y="123.4487" fill="#787878" font-family="'DroidSans'" font-size="3.5">OSC2</text>
	
		<line id="connector7pin" fill="none" stroke="#787878" stroke-width="0.9" stroke-linecap="round" x1="79.762" y1="201.951" x2="79.762" y2="187.55"/>
	<rect id="connector7terminal" x="79.762" y="201.951" fill="none" width="0" height="0"/>
	<g transform="translate(32.6496,68.7035)">
		<g transform="rotate(270)">
			<text x="-126.7325" y="46.0635" fill="#8C8C8C" font-family="'DroidSans'" font-size="2.5">8</text>
		</g>
	</g>
	<g transform="translate(33.2669,65.4226)">
		<g transform="rotate(270)">
			<text x="-120.0271" y="47.1933" fill="#787878" font-family="'DroidSans'" font-size="3.5">!ISO_RX</text>
		</g>
	</g>
	
		<line id="connector8pin" fill="none" stroke="#787878" stroke-width="0.9" stroke-linecap="round" x1="86.962" y1="201.951" x2="86.962" y2="187.55"/>
	<rect id="connector8terminal" x="86.962" y="201.951" fill="none" width="0" height="0"/>
	<g transform="translate(35.1896,68.7035)">
		<g transform="rotate(270)">
			<text x="-126.7325" y="50.7218" fill="#8C8C8C" font-family="'DroidSans'" font-size="2.5">9</text>
		</g>
	</g>
	<g transform="translate(35.8069,65.4226)">
		<g transform="rotate(270)">
			<text x="-120.0271" y="51.8545" fill="#787878" font-family="'DroidSans'" font-size="3.5">!SLEEP</text>
		</g>
	</g>
	
		<line id="connector9pin" fill="none" stroke="#787878" stroke-width="0.9" stroke-linecap="round" x1="94.162" y1="201.951" x2="94.162" y2="187.55"/>
	<rect id="connector9terminal" x="94.162" y="201.951" fill="none" width="0" height="0"/>
	<g transform="translate(37.7296,68.7035)">
		<g transform="rotate(270)">
			<text x="-127.424" y="55.382" fill="#8C8C8C" font-family="'DroidSans'" font-size="2.5">10</text>
		</g>
	</g>
	<g transform="translate(38.3469,65.4226)">
		<g transform="rotate(270)">
			<text x="-120.0271" y="56.5147" fill="#787878" font-family="'DroidSans'" font-size="3.5">VDD</text>
		</g>
	</g>
	
		<line id="connector10pin" fill="none" stroke="#787878" stroke-width="0.9" stroke-linecap="round" x1="101.362" y1="201.951" x2="101.362" y2="187.55"/>
	<rect id="connector10terminal" x="101.362" y="201.951" fill="none" width="0.001" height="0"/>
	<g transform="translate(40.2696,68.7035)">
		<g transform="rotate(270)">
			<text x="-127.424" y="60.0432" fill="#8C8C8C" font-family="'DroidSans'" font-size="2.5">11</text>
		</g>
	</g>
	<g transform="translate(40.8869,65.4226)">
		<g transform="rotate(270)">
			<text x="-120.0271" y="61.1749" fill="#787878" font-family="'DroidSans'" font-size="3.5">CAN_RX</text>
		</g>
	</g>
	
		<line id="connector11pin" fill="none" stroke="#787878" stroke-width="0.9" stroke-linecap="round" x1="108.562" y1="201.951" x2="108.562" y2="187.55"/>
	<rect id="connector11terminal" x="108.562" y="201.951" fill="none" width="0.001" height="0"/>
	<g transform="translate(42.8096,68.7035)">
		<g transform="rotate(270)">
			<text x="-127.424" y="64.7014" fill="#8C8C8C" font-family="'DroidSans'" font-size="2.5">12</text>
		</g>
	</g>
	<g transform="translate(43.4269,65.4226)">
		<g transform="rotate(270)">
			<text x="-120.0271" y="65.8351" fill="#787878" font-family="'DroidSans'" font-size="3.5">CAN_TX</text>
		</g>
	</g>
	
		<line id="connector12pin" fill="none" stroke="#787878" stroke-width="0.9" stroke-linecap="round" x1="115.762" y1="201.951" x2="115.762" y2="187.55"/>
	<rect id="connector12terminal" x="115.762" y="201.951" fill="none" width="0" height="0"/>
	<g transform="translate(45.3496,68.7035)">
		<g transform="rotate(270)">
			<text x="-127.424" y="69.3625" fill="#8C8C8C" font-family="'DroidSans'" font-size="2.5">13</text>
		</g>
	</g>
	<g transform="translate(45.9669,65.4226)">
		<g transform="rotate(270)">
			<text x="-120.0271" y="70.4933" fill="#787878" font-family="'DroidSans'" font-size="3.5">UART_RX</text>
		</g>
	</g>
	
		<line id="connector13pin" fill="none" stroke="#787878" stroke-width="0.9" stroke-linecap="round" x1="122.962" y1="201.951" x2="122.962" y2="187.55"/>
	<rect id="connector13terminal" x="122.962" y="201.951" fill="none" width="0" height="0"/>
	<g transform="translate(47.8896,68.7035)">
		<g transform="rotate(270)">
			<text x="-127.424" y="74.0228" fill="#8C8C8C" font-family="'DroidSans'" font-size="2.5">14</text>
		</g>
	</g>
	<g transform="translate(48.5069,65.4226)">
		<g transform="rotate(270)">
			<text x="-120.0271" y="75.1545" fill="#787878" font-family="'DroidSans'" font-size="3.5">UART_TX</text>
		</g>
	</g>
	
		<line id="connector14pin" fill="none" stroke="#787878" stroke-width="0.9" stroke-linecap="round" x1="202.162" y1="122.75" x2="187.762" y2="122.75"/>
	<rect id="connector14terminal" x="202.162" y="122.75" fill="none" width="0" height="0.001"/>
	<text x="193.5862" y="121.6987" fill="#8C8C8C" font-family="'DroidSans'" font-size="2.5">15</text>
	<text x="169.3381" y="123.4487" fill="#787878" font-family="'DroidSans'" font-size="3.5">PWR_CTRL</text>
	<line id="connector15pin" fill="none" x1="14.962" y1="108.35" x2="0.562" y2="108.35"/>
	<rect id="connector15terminal" x="0.562" y="108.35" fill="none" width="0.001" height="0"/>
	
		<line id="connector16pin" fill="none" stroke="#787878" stroke-width="0.9" stroke-linecap="round" x1="202.162" y1="108.35" x2="187.762" y2="108.35"/>
	<rect id="connector16terminal" x="202.162" y="108.35" fill="none" width="0" height="0"/>
	<text x="193.5862" y="107.2983" fill="#8C8C8C" font-family="'DroidSans'" font-size="2.5">17</text>
	<text x="177.4905" y="109.0483" fill="#787878" font-family="'DroidSans'" font-size="3.5">VCAP</text>
	
		<line id="connector17pin" fill="none" stroke="#787878" stroke-width="0.9" stroke-linecap="round" x1="202.162" y1="101.15" x2="187.762" y2="101.15"/>
	<rect id="connector17terminal" x="202.162" y="101.15" fill="none" width="0" height="0"/>
	<text x="193.5862" y="100.1001" fill="#8C8C8C" font-family="'DroidSans'" font-size="2.5">18</text>
	<text x="147.0735" y="101.8491" fill="#787878" font-family="'DroidSans'" font-size="3.5">!OBD_TX_LED!/!RST_NVM</text>
	
		<line id="connector18pin" fill="none" stroke="#787878" stroke-width="0.9" stroke-linecap="round" x1="202.162" y1="93.95" x2="187.762" y2="93.95"/>
	<rect id="connector18terminal" x="202.162" y="93.95" fill="none" width="0" height="0"/>
	<text x="193.5862" y="92.9009" fill="#8C8C8C" font-family="'DroidSans'" font-size="2.5">19</text>
	<text x="155.9944" y="94.6499" fill="#787878" font-family="'DroidSans'" font-size="3.5">!OBD_RX_LED!/!INT</text>
	
		<line id="connector19pin" fill="none" stroke="#787878" stroke-width="0.9" stroke-linecap="round" x1="202.162" y1="86.75" x2="187.762" y2="86.75"/>
	<rect id="connector19terminal" x="202.162" y="86.75" fill="none" width="0" height="0"/>
	<text x="193.5862" y="85.6997" fill="#8C8C8C" font-family="'DroidSans'" font-size="2.5">20</text>
	<text x="163.7649" y="87.4487" fill="#787878" font-family="'DroidSans'" font-size="3.5">!UART_TX_LED</text>
	
		<line id="connector20pin" fill="none" stroke="#787878" stroke-width="0.9" stroke-linecap="round" x1="202.162" y1="79.55" x2="187.762" y2="79.55"/>
	<rect id="connector20terminal" x="202.162" y="79.55" fill="none" width="0" height="0"/>
	<text x="193.5862" y="78.4995" fill="#8C8C8C" font-family="'DroidSans'" font-size="2.5">21</text>
	<text x="163.5198" y="80.2495" fill="#787878" font-family="'DroidSans'" font-size="3.5">!UART_RX_LED</text>
	
		<line id="connector21pin" fill="none" stroke="#787878" stroke-width="0.9" stroke-linecap="round" x1="122.962" y1="0.35" x2="122.962" y2="14.75"/>
	<rect id="connector21terminal" x="122.962" y="0.35" fill="none" width="0" height="0"/>
	<g transform="translate(47.8896,2.66347)">
		<g transform="rotate(270)">
			<text x="-6.2628" y="74.0228" fill="#8C8C8C" font-family="'DroidSans'" font-size="2.5">22</text>
		</g>
	</g>
	<g transform="translate(48.5069,5.9443)">
		<g transform="rotate(270)">
			<text x="-26.0816" y="75.1545" fill="#787878" font-family="'DroidSans'" font-size="3.5">!ISO_K_TX</text>
		</g>
	</g>
	
		<line id="connector22pin" fill="none" stroke="#787878" stroke-width="0.9" stroke-linecap="round" x1="115.762" y1="0.35" x2="115.762" y2="14.75"/>
	<rect id="connector22terminal" x="115.762" y="0.35" fill="none" width="0" height="0"/>
	<g transform="translate(45.3496,2.66347)">
		<g transform="rotate(270)">
			<text x="-6.2628" y="69.3625" fill="#8C8C8C" font-family="'DroidSans'" font-size="2.5">23</text>
		</g>
	</g>
	<g transform="translate(45.9669,5.9443)">
		<g transform="rotate(270)">
			<text x="-25.7749" y="70.4933" fill="#787878" font-family="'DroidSans'" font-size="3.5">!ISO_L_TX</text>
		</g>
	</g>
	
		<line id="connector23pin" fill="none" stroke="#787878" stroke-width="0.9" stroke-linecap="round" x1="108.562" y1="0.35" x2="108.562" y2="14.75"/>
	<rect id="connector23terminal" x="108.562" y="0.35" fill="none" width="0.001" height="0"/>
	<g transform="translate(42.8096,2.66347)">
		<g transform="rotate(270)">
			<text x="-6.2628" y="64.7014" fill="#8C8C8C" font-family="'DroidSans'" font-size="2.5">24</text>
		</g>
	</g>
	<g transform="translate(43.4269,5.9443)">
		<g transform="rotate(270)">
			<text x="-18.5503" y="65.8351" fill="#787878" font-family="'DroidSans'" font-size="3.5">AVSS</text>
		</g>
	</g>
	
		<line id="connector24pin" fill="none" stroke="#787878" stroke-width="0.9" stroke-linecap="round" x1="101.362" y1="0.35" x2="101.362" y2="14.75"/>
	<rect id="connector24terminal" x="101.362" y="0.35" fill="none" width="0.001" height="0"/>
	<g transform="translate(40.2696,2.66347)">
		<g transform="rotate(270)">
			<text x="-6.2628" y="60.0432" fill="#8C8C8C" font-family="'DroidSans'" font-size="2.5">25</text>
		</g>
	</g>
	<g transform="translate(40.8869,5.9443)">
		<g transform="rotate(270)">
			<text x="-19.7046" y="61.1749" fill="#787878" font-family="'DroidSans'" font-size="3.5">AVDD</text>
		</g>
	</g>
	
		<line id="connector25pin" fill="none" stroke="#787878" stroke-width="0.9" stroke-linecap="round" x1="94.162" y1="0.35" x2="94.162" y2="14.75"/>
	<rect id="connector25terminal" x="94.162" y="0.35" fill="none" width="0" height="0"/>
	<g transform="translate(37.7296,2.66347)">
		<g transform="rotate(270)">
			<text x="-6.2628" y="55.382" fill="#8C8C8C" font-family="'DroidSans'" font-size="2.5">26</text>
		</g>
	</g>
	<g transform="translate(38.3469,5.9443)">
		<g transform="rotate(270)">
			<text x="-21.2378" y="56.5147" fill="#787878" font-family="'DroidSans'" font-size="3.5">!RESET</text>
		</g>
	</g>
	
		<line id="connector26pin" fill="none" stroke="#787878" stroke-width="0.9" stroke-linecap="round" x1="86.962" y1="0.35" x2="86.962" y2="14.75"/>
	<rect id="connector26terminal" x="86.962" y="0.35" fill="none" width="0" height="0"/>
	<g transform="translate(35.1896,2.66347)">
		<g transform="rotate(270)">
			<text x="-6.2628" y="50.7218" fill="#8C8C8C" font-family="'DroidSans'" font-size="2.5">27</text>
		</g>
	</g>
	<g transform="translate(35.8069,5.9443)">
		<g transform="rotate(270)">
			<text x="-29.5874" y="51.8545" fill="#787878" font-family="'DroidSans'" font-size="3.5">ANALOG_IN</text>
		</g>
	</g>
	
		<line id="connector27pin" fill="none" stroke="#787878" stroke-width="0.9" stroke-linecap="round" x1="79.762" y1="0.35" x2="79.762" y2="14.75"/>
	<rect id="connector27terminal" x="79.762" y="0.35" fill="none" width="0" height="0"/>
	<g transform="translate(32.6496,2.66347)">
		<g transform="rotate(270)">
			<text x="-6.2628" y="46.0635" fill="#8C8C8C" font-family="'DroidSans'" font-size="2.5">28</text>
		</g>
	</g>
	<g transform="translate(33.2669,5.9443)">
		<g transform="rotate(270)">
			<text x="-28.4038" y="47.1933" fill="#787878" font-family="'DroidSans'" font-size="3.5">PWM/!VPW</text>
		</g>
	</g>
	
		<line id="connector28pin" fill="none" stroke="#787878" stroke-width="0.9" stroke-linecap="round" x1="202.162" y1="173.15" x2="187.762" y2="173.15"/>
	<rect id="connector28terminal" x="202.162" y="173.15" fill="none" width="0" height="0"/>
	<text x="193.5862" y="172.0991" fill="#8C8C8C" font-family="'DroidSans'" font-size="2.5">29</text>
	<text x="179.2639" y="173.8491" fill="#787878" font-family="'DroidSans'" font-size="3.5">PAD</text>
	<text id="label_1_" x="92.926" y="96.6157" font-family="'DroidSans'" font-size="4.25">STN1110</text>
	<text id="label_2_" x="97.1926" y="101.1499" font-family="'DroidSans'" font-size="4.25">QFN</text>
</g>
</svg>
