<?xml version="1.0" encoding="utf-8"?>
<!-- Generator: Adobe Illustrator 16.0.0, SVG Export Plug-In . SVG Version: 6.00 Build 0)  -->
<!DOCTYPE svg PUBLIC "-//W3C//DTD SVG 1.1//EN" "http://www.w3.org/Graphics/SVG/1.1/DTD/svg11.dtd">
<svg version="1.1" id="Layer_1" xmlns:svg="http://www.w3.org/2000/svg"
	 xmlns="http://www.w3.org/2000/svg" xmlns:xlink="http://www.w3.org/1999/xlink" x="0px" y="0px" width="224.008px"
	 height="130.311px" viewBox="0 0 224.008 130.311" enable-background="new 0 0 224.008 130.311" xml:space="preserve">
<g id="schematic">
	<rect x="0.36" y="14.75" fill="#FFFFFF" width="216" height="115.2"/>
	<rect x="0.36" y="14.75" fill="#FFFFFF" width="216" height="115.2"/>
	<rect x="0.36" y="14.75" fill="#FFFFFF" width="216" height="115.2"/>
	<rect x="0.36" y="14.75" fill="#FFFFFF" width="216" height="115.2"/>
	<text id="label_7_" x="97.0439" y="33.4827" font-family="'DroidSans'" font-size="4.25">7 SEGMENT</text>
	<text id="label_8_" x="101.7666" y="38.0159" font-family="'DroidSans'" font-size="4.25">4DIGIT</text>
	<text id="label_9_" x="97.0693" y="42.5481" font-family="'DroidSans'" font-size="4.25">YOUNGSUN</text>
	<line fill="none" stroke="#000000" stroke-width="0.9" stroke-linecap="round" x1="216.359" y1="14.75" x2="216.359" y2="129.95"/>
	<line fill="none" stroke="#000000" stroke-width="0.9" stroke-linecap="round" x1="216.359" y1="129.95" x2="0.36" y2="129.95"/>
	<line fill="none" stroke="#000000" stroke-width="0.9" stroke-linecap="round" x1="0.36" y1="129.95" x2="0.36" y2="14.75"/>
	<line fill="none" stroke="#000000" stroke-width="0.9" stroke-linecap="round" x1="43.56" y1="47.15" x2="47.16" y2="50.75"/>
	<line fill="none" stroke="#000000" stroke-width="0.9" stroke-linecap="round" x1="47.16" y1="50.75" x2="43.56" y2="54.35"/>
	<line fill="none" stroke="#000000" stroke-width="0.9" stroke-linecap="round" x1="43.56" y1="54.35" x2="21.96" y2="54.35"/>
	<line fill="none" stroke="#000000" stroke-width="0.9" stroke-linecap="round" x1="21.96" y1="54.35" x2="18.36" y2="50.75"/>
	<line fill="none" stroke="#000000" stroke-width="0.9" stroke-linecap="round" x1="18.36" y1="50.75" x2="21.96" y2="47.15"/>
	<line fill="none" stroke="#000000" stroke-width="0.9" stroke-linecap="round" x1="21.96" y1="47.15" x2="43.56" y2="47.15"/>
	<line fill="none" stroke="#000000" stroke-width="0.9" stroke-linecap="round" x1="47.88" y1="54.35" x2="51.48" y2="57.95"/>
	<line fill="none" stroke="#000000" stroke-width="0.9" stroke-linecap="round" x1="47.88" y1="54.35" x2="44.28" y2="57.95"/>
	<line fill="none" stroke="#000000" stroke-width="0.9" stroke-linecap="round" x1="44.28" y1="57.95" x2="40.68" y2="79.55"/>
	<line fill="none" stroke="#000000" stroke-width="0.9" stroke-linecap="round" x1="40.68" y1="79.55" x2="44.28" y2="83.15"/>
	<line fill="none" stroke="#000000" stroke-width="0.9" stroke-linecap="round" x1="44.28" y1="83.15" x2="47.88" y2="79.55"/>
	<line fill="none" stroke="#000000" stroke-width="0.9" stroke-linecap="round" x1="47.88" y1="79.55" x2="51.48" y2="57.95"/>
	<line fill="none" stroke="#000000" stroke-width="0.9" stroke-linecap="round" x1="14.76" y1="86.75" x2="18.36" y2="83.15"/>
	<line fill="none" stroke="#000000" stroke-width="0.9" stroke-linecap="round" x1="14.76" y1="86.75" x2="18.36" y2="90.35"/>
	<line fill="none" stroke="#000000" stroke-width="0.9" stroke-linecap="round" x1="18.36" y1="90.35" x2="39.96" y2="90.35"/>
	<line fill="none" stroke="#000000" stroke-width="0.9" stroke-linecap="round" x1="39.96" y1="90.35" x2="43.56" y2="86.75"/>
	<line fill="none" stroke="#000000" stroke-width="0.9" stroke-linecap="round" x1="43.56" y1="86.75" x2="39.96" y2="83.15"/>
	<line fill="none" stroke="#000000" stroke-width="0.9" stroke-linecap="round" x1="39.96" y1="83.15" x2="18.36" y2="83.15"/>
	<line fill="none" stroke="#000000" stroke-width="0.9" stroke-linecap="round" x1="11.16" y1="122.75" x2="14.76" y2="119.15"/>
	<line fill="none" stroke="#000000" stroke-width="0.9" stroke-linecap="round" x1="11.16" y1="122.75" x2="14.76" y2="126.35"/>
	<line fill="none" stroke="#000000" stroke-width="0.9" stroke-linecap="round" x1="14.76" y1="126.35" x2="36.36" y2="126.35"/>
	<line fill="none" stroke="#000000" stroke-width="0.9" stroke-linecap="round" x1="36.36" y1="126.35" x2="39.96" y2="122.75"/>
	<line fill="none" stroke="#000000" stroke-width="0.9" stroke-linecap="round" x1="39.96" y1="122.75" x2="36.36" y2="119.15"/>
	<line fill="none" stroke="#000000" stroke-width="0.9" stroke-linecap="round" x1="36.36" y1="119.15" x2="14.76" y2="119.15"/>
	<line fill="none" stroke="#000000" stroke-width="0.9" stroke-linecap="round" x1="17.64" y1="54.35" x2="21.24" y2="57.95"/>
	<line fill="none" stroke="#000000" stroke-width="0.9" stroke-linecap="round" x1="17.64" y1="54.35" x2="14.04" y2="57.95"/>
	<line fill="none" stroke="#000000" stroke-width="0.9" stroke-linecap="round" x1="14.04" y1="57.95" x2="10.44" y2="79.55"/>
	<line fill="none" stroke="#000000" stroke-width="0.9" stroke-linecap="round" x1="10.44" y1="79.55" x2="14.04" y2="83.15"/>
	<line fill="none" stroke="#000000" stroke-width="0.9" stroke-linecap="round" x1="14.04" y1="83.15" x2="17.64" y2="79.55"/>
	<line fill="none" stroke="#000000" stroke-width="0.9" stroke-linecap="round" x1="17.64" y1="79.55" x2="21.24" y2="57.95"/>
	<line fill="none" stroke="#000000" stroke-width="0.9" stroke-linecap="round" x1="14.04" y1="90.35" x2="17.64" y2="93.95"/>
	<line fill="none" stroke="#000000" stroke-width="0.9" stroke-linecap="round" x1="14.04" y1="90.35" x2="10.44" y2="93.95"/>
	<line fill="none" stroke="#000000" stroke-width="0.9" stroke-linecap="round" x1="10.44" y1="93.95" x2="6.84" y2="115.55"/>
	<line fill="none" stroke="#000000" stroke-width="0.9" stroke-linecap="round" x1="6.84" y1="115.55" x2="10.44" y2="119.15"/>
	<line fill="none" stroke="#000000" stroke-width="0.9" stroke-linecap="round" x1="10.44" y1="119.15" x2="14.04" y2="115.55"/>
	<line fill="none" stroke="#000000" stroke-width="0.9" stroke-linecap="round" x1="14.04" y1="115.55" x2="17.64" y2="93.95"/>
	<line fill="none" stroke="#000000" stroke-width="0.9" stroke-linecap="round" x1="44.28" y1="90.35" x2="47.88" y2="93.95"/>
	<line fill="none" stroke="#000000" stroke-width="0.9" stroke-linecap="round" x1="44.28" y1="90.35" x2="40.68" y2="93.95"/>
	<line fill="none" stroke="#000000" stroke-width="0.9" stroke-linecap="round" x1="40.68" y1="93.95" x2="37.08" y2="115.55"/>
	<line fill="none" stroke="#000000" stroke-width="0.9" stroke-linecap="round" x1="37.08" y1="115.55" x2="40.68" y2="119.15"/>
	<line fill="none" stroke="#000000" stroke-width="0.9" stroke-linecap="round" x1="40.68" y1="119.15" x2="44.28" y2="115.55"/>
	<line fill="none" stroke="#000000" stroke-width="0.9" stroke-linecap="round" x1="44.28" y1="115.55" x2="47.88" y2="93.95"/>
	<line fill="none" stroke="#000000" stroke-width="0.9" stroke-linecap="round" x1="93.96" y1="47.15" x2="97.56" y2="50.75"/>
	<line fill="none" stroke="#000000" stroke-width="0.9" stroke-linecap="round" x1="97.56" y1="50.75" x2="93.96" y2="54.35"/>
	<line fill="none" stroke="#000000" stroke-width="0.9" stroke-linecap="round" x1="93.96" y1="54.35" x2="72.36" y2="54.35"/>
	<line fill="none" stroke="#000000" stroke-width="0.9" stroke-linecap="round" x1="72.36" y1="54.35" x2="68.76" y2="50.75"/>
	<line fill="none" stroke="#000000" stroke-width="0.9" stroke-linecap="round" x1="68.76" y1="50.75" x2="72.36" y2="47.15"/>
	<line fill="none" stroke="#000000" stroke-width="0.9" stroke-linecap="round" x1="72.36" y1="47.15" x2="93.96" y2="47.15"/>
	<line fill="none" stroke="#000000" stroke-width="0.9" stroke-linecap="round" x1="98.28" y1="54.35" x2="101.88" y2="57.95"/>
	<line fill="none" stroke="#000000" stroke-width="0.9" stroke-linecap="round" x1="98.28" y1="54.35" x2="94.68" y2="57.95"/>
	<line fill="none" stroke="#000000" stroke-width="0.9" stroke-linecap="round" x1="94.68" y1="57.95" x2="91.08" y2="79.55"/>
	<line fill="none" stroke="#000000" stroke-width="0.9" stroke-linecap="round" x1="91.08" y1="79.55" x2="94.68" y2="83.15"/>
	<line fill="none" stroke="#000000" stroke-width="0.9" stroke-linecap="round" x1="94.68" y1="83.15" x2="98.28" y2="79.55"/>
	<line fill="none" stroke="#000000" stroke-width="0.9" stroke-linecap="round" x1="98.28" y1="79.55" x2="101.88" y2="57.95"/>
	<line fill="none" stroke="#000000" stroke-width="0.9" stroke-linecap="round" x1="65.16" y1="86.75" x2="68.76" y2="83.15"/>
	<line fill="none" stroke="#000000" stroke-width="0.9" stroke-linecap="round" x1="65.16" y1="86.75" x2="68.76" y2="90.35"/>
	<line fill="none" stroke="#000000" stroke-width="0.9" stroke-linecap="round" x1="68.76" y1="90.35" x2="90.36" y2="90.35"/>
	<line fill="none" stroke="#000000" stroke-width="0.9" stroke-linecap="round" x1="90.36" y1="90.35" x2="93.96" y2="86.75"/>
	<line fill="none" stroke="#000000" stroke-width="0.9" stroke-linecap="round" x1="93.96" y1="86.75" x2="90.36" y2="83.15"/>
	<line fill="none" stroke="#000000" stroke-width="0.9" stroke-linecap="round" x1="90.36" y1="83.15" x2="68.76" y2="83.15"/>
	<line fill="none" stroke="#000000" stroke-width="0.9" stroke-linecap="round" x1="61.56" y1="122.75" x2="65.16" y2="119.15"/>
	<line fill="none" stroke="#000000" stroke-width="0.9" stroke-linecap="round" x1="61.56" y1="122.75" x2="65.16" y2="126.35"/>
	<line fill="none" stroke="#000000" stroke-width="0.9" stroke-linecap="round" x1="65.16" y1="126.35" x2="86.76" y2="126.35"/>
	<line fill="none" stroke="#000000" stroke-width="0.9" stroke-linecap="round" x1="86.76" y1="126.35" x2="90.36" y2="122.75"/>
	<line fill="none" stroke="#000000" stroke-width="0.9" stroke-linecap="round" x1="90.36" y1="122.75" x2="86.76" y2="119.15"/>
	<line fill="none" stroke="#000000" stroke-width="0.9" stroke-linecap="round" x1="86.76" y1="119.15" x2="65.16" y2="119.15"/>
	<line fill="none" stroke="#000000" stroke-width="0.9" stroke-linecap="round" x1="68.04" y1="54.35" x2="71.64" y2="57.95"/>
	<line fill="none" stroke="#000000" stroke-width="0.9" stroke-linecap="round" x1="68.04" y1="54.35" x2="64.44" y2="57.95"/>
	<line fill="none" stroke="#000000" stroke-width="0.9" stroke-linecap="round" x1="64.44" y1="57.95" x2="60.84" y2="79.55"/>
	<line fill="none" stroke="#000000" stroke-width="0.9" stroke-linecap="round" x1="60.84" y1="79.55" x2="64.44" y2="83.15"/>
	<line fill="none" stroke="#000000" stroke-width="0.9" stroke-linecap="round" x1="64.44" y1="83.15" x2="68.04" y2="79.55"/>
	<line fill="none" stroke="#000000" stroke-width="0.9" stroke-linecap="round" x1="68.04" y1="79.55" x2="71.64" y2="57.95"/>
	<line fill="none" stroke="#000000" stroke-width="0.9" stroke-linecap="round" x1="64.44" y1="90.35" x2="68.04" y2="93.95"/>
	<line fill="none" stroke="#000000" stroke-width="0.9" stroke-linecap="round" x1="64.44" y1="90.35" x2="60.84" y2="93.95"/>
	<line fill="none" stroke="#000000" stroke-width="0.9" stroke-linecap="round" x1="60.84" y1="93.95" x2="57.24" y2="115.55"/>
	<line fill="none" stroke="#000000" stroke-width="0.9" stroke-linecap="round" x1="57.24" y1="115.55" x2="60.84" y2="119.15"/>
	<line fill="none" stroke="#000000" stroke-width="0.9" stroke-linecap="round" x1="60.84" y1="119.15" x2="64.44" y2="115.55"/>
	<line fill="none" stroke="#000000" stroke-width="0.9" stroke-linecap="round" x1="64.44" y1="115.55" x2="68.04" y2="93.95"/>
	<line fill="none" stroke="#000000" stroke-width="0.9" stroke-linecap="round" x1="94.68" y1="90.35" x2="98.28" y2="93.95"/>
	<line fill="none" stroke="#000000" stroke-width="0.9" stroke-linecap="round" x1="94.68" y1="90.35" x2="91.08" y2="93.95"/>
	<line fill="none" stroke="#000000" stroke-width="0.9" stroke-linecap="round" x1="91.08" y1="93.95" x2="87.48" y2="115.55"/>
	<line fill="none" stroke="#000000" stroke-width="0.9" stroke-linecap="round" x1="87.48" y1="115.55" x2="91.08" y2="119.15"/>
	<line fill="none" stroke="#000000" stroke-width="0.9" stroke-linecap="round" x1="91.08" y1="119.15" x2="94.68" y2="115.55"/>
	<line fill="none" stroke="#000000" stroke-width="0.9" stroke-linecap="round" x1="94.68" y1="115.55" x2="98.28" y2="93.95"/>
	<line fill="none" stroke="#000000" stroke-width="0.9" stroke-linecap="round" x1="151.561" y1="47.15" x2="155.16" y2="50.75"/>
	<line fill="none" stroke="#000000" stroke-width="0.9" stroke-linecap="round" x1="155.16" y1="50.75" x2="151.561" y2="54.35"/>
	<line fill="none" stroke="#000000" stroke-width="0.9" stroke-linecap="round" x1="151.561" y1="54.35" x2="129.96" y2="54.35"/>
	<line fill="none" stroke="#000000" stroke-width="0.9" stroke-linecap="round" x1="129.96" y1="54.35" x2="126.359" y2="50.75"/>
	<line fill="none" stroke="#000000" stroke-width="0.9" stroke-linecap="round" x1="126.359" y1="50.75" x2="129.96" y2="47.15"/>
	<line fill="none" stroke="#000000" stroke-width="0.9" stroke-linecap="round" x1="129.96" y1="47.15" x2="151.561" y2="47.15"/>
	<line fill="none" stroke="#000000" stroke-width="0.9" stroke-linecap="round" x1="155.88" y1="54.35" x2="159.48" y2="57.95"/>
	<line fill="none" stroke="#000000" stroke-width="0.9" stroke-linecap="round" x1="155.88" y1="54.35" x2="152.279" y2="57.95"/>
	<line fill="none" stroke="#000000" stroke-width="0.9" stroke-linecap="round" x1="152.279" y1="57.95" x2="148.68" y2="79.55"/>
	<line fill="none" stroke="#000000" stroke-width="0.9" stroke-linecap="round" x1="148.68" y1="79.55" x2="152.279" y2="83.15"/>
	<line fill="none" stroke="#000000" stroke-width="0.9" stroke-linecap="round" x1="152.279" y1="83.15" x2="155.88" y2="79.55"/>
	<line fill="none" stroke="#000000" stroke-width="0.9" stroke-linecap="round" x1="155.88" y1="79.55" x2="159.48" y2="57.95"/>
	<line fill="none" stroke="#000000" stroke-width="0.9" stroke-linecap="round" x1="122.76" y1="86.75" x2="126.359" y2="83.15"/>
	<line fill="none" stroke="#000000" stroke-width="0.9" stroke-linecap="round" x1="122.76" y1="86.75" x2="126.359" y2="90.35"/>
	<line fill="none" stroke="#000000" stroke-width="0.9" stroke-linecap="round" x1="126.359" y1="90.35" x2="147.96" y2="90.35"/>
	<line fill="none" stroke="#000000" stroke-width="0.9" stroke-linecap="round" x1="147.96" y1="90.35" x2="151.561" y2="86.75"/>
	<line fill="none" stroke="#000000" stroke-width="0.9" stroke-linecap="round" x1="151.561" y1="86.75" x2="147.96" y2="83.15"/>
	<line fill="none" stroke="#000000" stroke-width="0.9" stroke-linecap="round" x1="147.96" y1="83.15" x2="126.359" y2="83.15"/>
	<line fill="none" stroke="#000000" stroke-width="0.9" stroke-linecap="round" x1="119.16" y1="122.75" x2="122.76" y2="119.15"/>
	<line fill="none" stroke="#000000" stroke-width="0.9" stroke-linecap="round" x1="119.16" y1="122.75" x2="122.76" y2="126.35"/>
	<line fill="none" stroke="#000000" stroke-width="0.9" stroke-linecap="round" x1="122.76" y1="126.35" x2="144.359" y2="126.35"/>
	<line fill="none" stroke="#000000" stroke-width="0.9" stroke-linecap="round" x1="144.359" y1="126.35" x2="147.96" y2="122.75"/>
	<line fill="none" stroke="#000000" stroke-width="0.9" stroke-linecap="round" x1="147.96" y1="122.75" x2="144.359" y2="119.15"/>
	<line fill="none" stroke="#000000" stroke-width="0.9" stroke-linecap="round" x1="144.359" y1="119.15" x2="122.76" y2="119.15"/>
	<line fill="none" stroke="#000000" stroke-width="0.9" stroke-linecap="round" x1="125.641" y1="54.35" x2="129.24" y2="57.95"/>
	<line fill="none" stroke="#000000" stroke-width="0.9" stroke-linecap="round" x1="125.641" y1="54.35" x2="122.04" y2="57.95"/>
	<line fill="none" stroke="#000000" stroke-width="0.9" stroke-linecap="round" x1="122.04" y1="57.95" x2="118.439" y2="79.55"/>
	<line fill="none" stroke="#000000" stroke-width="0.9" stroke-linecap="round" x1="118.439" y1="79.55" x2="122.04" y2="83.15"/>
	<line fill="none" stroke="#000000" stroke-width="0.9" stroke-linecap="round" x1="122.04" y1="83.15" x2="125.641" y2="79.55"/>
	<line fill="none" stroke="#000000" stroke-width="0.9" stroke-linecap="round" x1="125.641" y1="79.55" x2="129.24" y2="57.95"/>
	<line fill="none" stroke="#000000" stroke-width="0.9" stroke-linecap="round" x1="122.04" y1="90.35" x2="125.641" y2="93.95"/>
	<line fill="none" stroke="#000000" stroke-width="0.9" stroke-linecap="round" x1="122.04" y1="90.35" x2="118.439" y2="93.95"/>
	<line fill="none" stroke="#000000" stroke-width="0.9" stroke-linecap="round" x1="118.439" y1="93.95" x2="114.84" y2="115.55"/>
	<line fill="none" stroke="#000000" stroke-width="0.9" stroke-linecap="round" x1="114.84" y1="115.55" x2="118.439" y2="119.15"/>
	<line fill="none" stroke="#000000" stroke-width="0.9" stroke-linecap="round" x1="118.439" y1="119.15" x2="122.04" y2="115.55"/>
	<line fill="none" stroke="#000000" stroke-width="0.9" stroke-linecap="round" x1="122.04" y1="115.55" x2="125.641" y2="93.95"/>
	<line fill="none" stroke="#000000" stroke-width="0.9" stroke-linecap="round" x1="152.279" y1="90.35" x2="155.88" y2="93.95"/>
	<line fill="none" stroke="#000000" stroke-width="0.9" stroke-linecap="round" x1="152.279" y1="90.35" x2="148.68" y2="93.95"/>
	<line fill="none" stroke="#000000" stroke-width="0.9" stroke-linecap="round" x1="148.68" y1="93.95" x2="145.08" y2="115.55"/>
	<line fill="none" stroke="#000000" stroke-width="0.9" stroke-linecap="round" x1="145.08" y1="115.55" x2="148.68" y2="119.15"/>
	<line fill="none" stroke="#000000" stroke-width="0.9" stroke-linecap="round" x1="148.68" y1="119.15" x2="152.279" y2="115.55"/>
	<line fill="none" stroke="#000000" stroke-width="0.9" stroke-linecap="round" x1="152.279" y1="115.55" x2="155.88" y2="93.95"/>
	<line fill="none" stroke="#000000" stroke-width="0.9" stroke-linecap="round" x1="201.96" y1="47.15" x2="205.561" y2="50.75"/>
	<line fill="none" stroke="#000000" stroke-width="0.9" stroke-linecap="round" x1="205.561" y1="50.75" x2="201.96" y2="54.35"/>
	<line fill="none" stroke="#000000" stroke-width="0.9" stroke-linecap="round" x1="201.96" y1="54.35" x2="180.359" y2="54.35"/>
	<line fill="none" stroke="#000000" stroke-width="0.9" stroke-linecap="round" x1="180.359" y1="54.35" x2="176.76" y2="50.75"/>
	<line fill="none" stroke="#000000" stroke-width="0.9" stroke-linecap="round" x1="176.76" y1="50.75" x2="180.359" y2="47.15"/>
	<line fill="none" stroke="#000000" stroke-width="0.9" stroke-linecap="round" x1="180.359" y1="47.15" x2="201.96" y2="47.15"/>
	<line fill="none" stroke="#000000" stroke-width="0.9" stroke-linecap="round" x1="206.279" y1="54.35" x2="209.88" y2="57.95"/>
	<line fill="none" stroke="#000000" stroke-width="0.9" stroke-linecap="round" x1="206.279" y1="54.35" x2="202.68" y2="57.95"/>
	<line fill="none" stroke="#000000" stroke-width="0.9" stroke-linecap="round" x1="202.68" y1="57.95" x2="199.08" y2="79.55"/>
	<line fill="none" stroke="#000000" stroke-width="0.9" stroke-linecap="round" x1="199.08" y1="79.55" x2="202.68" y2="83.15"/>
	<line fill="none" stroke="#000000" stroke-width="0.9" stroke-linecap="round" x1="202.68" y1="83.15" x2="206.279" y2="79.55"/>
	<line fill="none" stroke="#000000" stroke-width="0.9" stroke-linecap="round" x1="206.279" y1="79.55" x2="209.88" y2="57.95"/>
	<line fill="none" stroke="#000000" stroke-width="0.9" stroke-linecap="round" x1="173.16" y1="86.75" x2="176.76" y2="83.15"/>
	<line fill="none" stroke="#000000" stroke-width="0.9" stroke-linecap="round" x1="173.16" y1="86.75" x2="176.76" y2="90.35"/>
	<line fill="none" stroke="#000000" stroke-width="0.9" stroke-linecap="round" x1="176.76" y1="90.35" x2="198.359" y2="90.35"/>
	<line fill="none" stroke="#000000" stroke-width="0.9" stroke-linecap="round" x1="198.359" y1="90.35" x2="201.96" y2="86.75"/>
	<line fill="none" stroke="#000000" stroke-width="0.9" stroke-linecap="round" x1="201.96" y1="86.75" x2="198.359" y2="83.15"/>
	<line fill="none" stroke="#000000" stroke-width="0.9" stroke-linecap="round" x1="198.359" y1="83.15" x2="176.76" y2="83.15"/>
	<line fill="none" stroke="#000000" stroke-width="0.9" stroke-linecap="round" x1="169.561" y1="122.75" x2="173.16" y2="119.15"/>
	<line fill="none" stroke="#000000" stroke-width="0.9" stroke-linecap="round" x1="169.561" y1="122.75" x2="173.16" y2="126.35"/>
	<line fill="none" stroke="#000000" stroke-width="0.9" stroke-linecap="round" x1="173.16" y1="126.35" x2="194.76" y2="126.35"/>
	<line fill="none" stroke="#000000" stroke-width="0.9" stroke-linecap="round" x1="194.76" y1="126.35" x2="198.359" y2="122.75"/>
	<line fill="none" stroke="#000000" stroke-width="0.9" stroke-linecap="round" x1="198.359" y1="122.75" x2="194.76" y2="119.15"/>
	<line fill="none" stroke="#000000" stroke-width="0.9" stroke-linecap="round" x1="194.76" y1="119.15" x2="173.16" y2="119.15"/>
	<line fill="none" stroke="#000000" stroke-width="0.9" stroke-linecap="round" x1="176.04" y1="54.35" x2="179.641" y2="57.95"/>
	<line fill="none" stroke="#000000" stroke-width="0.9" stroke-linecap="round" x1="176.04" y1="54.35" x2="172.439" y2="57.95"/>
	<line fill="none" stroke="#000000" stroke-width="0.9" stroke-linecap="round" x1="172.439" y1="57.95" x2="168.84" y2="79.55"/>
	<line fill="none" stroke="#000000" stroke-width="0.9" stroke-linecap="round" x1="168.84" y1="79.55" x2="172.439" y2="83.15"/>
	<line fill="none" stroke="#000000" stroke-width="0.9" stroke-linecap="round" x1="172.439" y1="83.15" x2="176.04" y2="79.55"/>
	<line fill="none" stroke="#000000" stroke-width="0.9" stroke-linecap="round" x1="176.04" y1="79.55" x2="179.641" y2="57.95"/>
	<line fill="none" stroke="#000000" stroke-width="0.9" stroke-linecap="round" x1="172.439" y1="90.35" x2="176.04" y2="93.95"/>
	<line fill="none" stroke="#000000" stroke-width="0.9" stroke-linecap="round" x1="172.439" y1="90.35" x2="168.84" y2="93.95"/>
	<line fill="none" stroke="#000000" stroke-width="0.9" stroke-linecap="round" x1="168.84" y1="93.95" x2="165.24" y2="115.55"/>
	<line fill="none" stroke="#000000" stroke-width="0.9" stroke-linecap="round" x1="165.24" y1="115.55" x2="168.84" y2="119.15"/>
	<line fill="none" stroke="#000000" stroke-width="0.9" stroke-linecap="round" x1="168.84" y1="119.15" x2="172.439" y2="115.55"/>
	<line fill="none" stroke="#000000" stroke-width="0.9" stroke-linecap="round" x1="172.439" y1="115.55" x2="176.04" y2="93.95"/>
	<line fill="none" stroke="#000000" stroke-width="0.9" stroke-linecap="round" x1="202.68" y1="90.35" x2="206.279" y2="93.95"/>
	<line fill="none" stroke="#000000" stroke-width="0.9" stroke-linecap="round" x1="202.68" y1="90.35" x2="199.08" y2="93.95"/>
	<line fill="none" stroke="#000000" stroke-width="0.9" stroke-linecap="round" x1="199.08" y1="93.95" x2="195.48" y2="115.55"/>
	<line fill="none" stroke="#000000" stroke-width="0.9" stroke-linecap="round" x1="195.48" y1="115.55" x2="199.08" y2="119.15"/>
	<line fill="none" stroke="#000000" stroke-width="0.9" stroke-linecap="round" x1="199.08" y1="119.15" x2="202.68" y2="115.55"/>
	<line fill="none" stroke="#000000" stroke-width="0.9" stroke-linecap="round" x1="202.68" y1="115.55" x2="206.279" y2="93.95"/>
	<line fill="none" stroke="#000000" stroke-width="0.9" stroke-linecap="round" x1="216.359" y1="14.75" x2="0.36" y2="14.75"/>
	<circle fill="none" stroke="#000000" stroke-width="0.9" cx="50.76" cy="122.75" r="3.6"/>
	<circle fill="none" stroke="#000000" stroke-width="0.9" cx="101.16" cy="122.75" r="3.6"/>
	<circle fill="none" stroke="#000000" stroke-width="0.9" cx="158.76" cy="122.75" r="3.6"/>
	<circle fill="none" stroke="#000000" stroke-width="0.9" cx="209.16" cy="122.75" r="3.6"/>
	<circle fill="none" stroke="#000000" stroke-width="0.9" cx="106.2" cy="101.15" r="3.6"/>
	<circle fill="none" stroke="#000000" stroke-width="0.9" cx="109.8" cy="72.35" r="3.6"/>
	<circle fill="none" stroke="#000000" stroke-width="0.9" cx="165.96" cy="57.95" r="3.6"/>
	<text x="32.04 52" y=".1887" fill="#505050" font-family="'DroidSans'" font-size="3.744">A</text>
	<text x="45 70.18" y="87" fill="#505050" font-family="'DroidSans'" font-size="3.744">B</text>
	<text x="41.3994" y="106.1897" fill="#505050" font-family="'DroidSans'" font-size="3.744">C</text>
	<text x="24.8389" y="124.1887" fill="#505050" font-family="'DroidSans'" font-size="3.744">D</text>
	<text x="11.1602" y="106.1897" fill="#505050" font-family="'DroidSans'" font-size="3.744">E</text>
	<text x="14.7598" y="70.1887" fill="#505050" font-family="'DroidSans'" font-size="3.744">F</text>
	<text x="28.4385" y="88.1887" fill="#505050" font-family="'DroidSans'" font-size="3.744">G</text>
	<text x="48.5986" y="124.1887" fill="#505050" font-family="'DroidSans'" font-size="3.744">DP</text>
	<text x="82.4385" y="52.1887" fill="#505050" font-family="'DroidSans'" font-size="3.744">A</text>
	<text x="95.3994" y="70.1887" fill="#505050" font-family="'DroidSans'" font-size="3.744">B</text>
	<text x="91.8008" y="106.1897" fill="#505050" font-family="'DroidSans'" font-size="3.744">C</text>
	<text x="75.2393" y="124.1887" fill="#505050" font-family="'DroidSans'" font-size="3.744">D</text>
	<text x="61.5605" y="106.1897" fill="#505050" font-family="'DroidSans'" font-size="3.744">E</text>
	<text x="65.1592" y="70.1887" fill="#505050" font-family="'DroidSans'" font-size="3.744">F</text>
	<text x="78.8389" y="88.1887" fill="#505050" font-family="'DroidSans'" font-size="3.744">G</text>
	<text x="98.999" y="124.1887" fill="#505050" font-family="'DroidSans'" font-size="3.744">DP</text>
	<text x="140.0381" y="52.1887" fill="#505050" font-family="'DroidSans'" font-size="3.744">A</text>
	<text x="152.999" y="70.1887" fill="#505050" font-family="'DroidSans'" font-size="3.744">B</text>
	<text x="149.3994" y="106.1897" fill="#505050" font-family="'DroidSans'" font-size="3.744">C</text>
	<text x="132.8389" y="124.1887" fill="#505050" font-family="'DroidSans'" font-size="3.744">D</text>
	<text x="119.1592" y="106.1897" fill="#505050" font-family="'DroidSans'" font-size="3.744">E</text>
	<text x="122.7588" y="70.1887" fill="#505050" font-family="'DroidSans'" font-size="3.744">F</text>
	<text x="136.4395" y="88.1887" fill="#505050" font-family="'DroidSans'" font-size="3.744">G</text>
	<text x="156.5986" y="124.1887" fill="#505050" font-family="'DroidSans'" font-size="3.744">DP</text>
	<text x="190.4385" y="52.1887" fill="#505050" font-family="'DroidSans'" font-size="3.744">A</text>
	<text x="203.3994" y="70.1887" fill="#505050" font-family="'DroidSans'" font-size="3.744">B</text>
	<text x="199.7998" y="106.1897" fill="#505050" font-family="'DroidSans'" font-size="3.744">C</text>
	<text x="183.2393" y="124.1887" fill="#505050" font-family="'DroidSans'" font-size="3.744">D</text>
	<text x="169.5605" y="106.1897" fill="#505050" font-family="'DroidSans'" font-size="3.744">E</text>
	<text x="173.1602" y="70.1887" fill="#505050" font-family="'DroidSans'" font-size="3.744">F</text>
	<text x="186.8389" y="88.1887" fill="#505050" font-family="'DroidSans'" font-size="3.744">G</text>
	<text x="206.999" y="124.1887" fill="#505050" font-family="'DroidSans'" font-size="3.744">DP</text>
	<text x="104.0391" y="88.1887" fill="#505050" font-family="'DroidSans'" font-size="3.744">COL</text>
	<text x="161.6396" y="52.1887" fill="#505050" font-family="'DroidSans'" font-size="3.744">APOS</text>
	
		<line id="connector1pin" fill="none" stroke="#787878" stroke-width="0.75" stroke-linecap="round" x1="29.16" y1="0.35" x2="29.16" y2="14.75"/>
	<polygon id="connector1terminal" fill="none" points="29.16,0.35 29.16,0.35 29.16,0.35 	"/>
	<g transform="translate(9.91658,2.66347)">
		<g transform="rotate(270)">
			<text x="-5.5731" y="18.1918" fill="#8C8C8C" font-family="'DroidSans'" font-size="2.5">2</text>
		</g>
	</g>
	<g transform="translate(10.5339,5.9443)">
		<g transform="rotate(270)">
			<text x="-18.7591" y="19.3255" fill="#787878" font-family="'DroidSans'" font-size="3.5">DIG2</text>
		</g>
	</g>
	
		<line id="connector5pin" fill="none" stroke="#787878" stroke-width="0.75" stroke-linecap="round" x1="36.36" y1="0.35" x2="36.36" y2="14.75"/>
	<polygon id="connector5terminal" fill="none" points="36.36,0.35 36.36,0.35 36.36,0.35 	"/>
	<g transform="translate(12.4566,2.66347)">
		<g transform="rotate(270)">
			<text x="-5.5731" y="22.8539" fill="#8C8C8C" font-family="'DroidSans'" font-size="2.5">6</text>
		</g>
	</g>
	<g transform="translate(13.0739,5.9443)">
		<g transform="rotate(270)">
			<text x="-18.7591" y="23.9857" fill="#787878" font-family="'DroidSans'" font-size="3.5">DIG3</text>
		</g>
	</g>
	
		<line id="connector7pin" fill="none" stroke="#787878" stroke-width="0.75" stroke-linecap="round" x1="43.56" y1="0.35" x2="43.56" y2="14.75"/>
	<polygon id="connector7terminal" fill="none" points="43.56,0.35 43.56,0.35 43.56,0.35 	"/>
	<g transform="translate(14.9966,2.66347)">
		<g transform="rotate(270)">
			<text x="-5.5731" y="27.5122" fill="#8C8C8C" font-family="'DroidSans'" font-size="2.5">8</text>
		</g>
	</g>
	<g transform="translate(15.6139,5.9443)">
		<g transform="rotate(270)">
			<text x="-18.7591" y="28.6459" fill="#787878" font-family="'DroidSans'" font-size="3.5">DIG4</text>
		</g>
	</g>
	
		<line id="connector3pin" fill="none" stroke="#787878" stroke-width="0.75" stroke-linecap="round" x1="72.36" y1="0.35" x2="72.36" y2="14.75"/>
	<polygon id="connector3terminal" fill="none" points="72.36,0.35 72.36,0.35 72.36,0.35 	"/>
	<g transform="translate(25.1566,2.66347)">
		<g transform="rotate(270)">
			<text x="-5.5731" y="46.1539" fill="#8C8C8C" font-family="'DroidSans'" font-size="2.5">4</text>
		</g>
	</g>
	<g transform="translate(25.7739,5.9443)">
		<g transform="rotate(270)">
			<text x="-20.5169" y="47.2867" fill="#787878" font-family="'DroidSans'" font-size="3.5">COL-A</text>
		</g>
	</g>
	
		<line id="connector9pin" fill="none" stroke="#787878" stroke-width="0.75" stroke-linecap="round" x1="187.561" y1="0.35" x2="187.561" y2="14.75"/>
	<polygon id="connector9terminal" fill="none" points="187.561,0.35 187.561,0.35 187.561,0.35 	"/>
	<g transform="translate(65.7966,2.66347)">
		<g transform="rotate(270)">
			<text x="-6.2625" y="120.7122" fill="#8C8C8C" font-family="'DroidSans'" font-size="2.5">10</text>
		</g>
	</g>
	<g transform="translate(66.4139,5.9443)">
		<g transform="rotate(270)">
			<text x="-22.718" y="121.8449" fill="#787878" font-family="'DroidSans'" font-size="3.5">APOS-A</text>
		</g>
	</g>
	
		<line id="connector13pin" fill="none" stroke="#787878" stroke-width="0.75" stroke-linecap="round" x1="108.36" y1="0.35" x2="108.36" y2="14.75"/>
	<polygon id="connector13terminal" fill="none" points="108.36,0.35 108.36,0.35 108.36,0.35 	"/>
	<g transform="translate(37.8566,2.66347)">
		<g transform="rotate(270)">
			<text x="-6.2625" y="69.453" fill="#8C8C8C" font-family="'DroidSans'" font-size="2.5">14</text>
		</g>
	</g>
	<g transform="translate(38.4739,5.9443)">
		<g transform="rotate(270)">
			<text x="-13.0325" y="70.5866" fill="#787878" font-family="'DroidSans'" font-size="3.5">A</text>
		</g>
	</g>
	
		<line id="connector15pin" fill="none" stroke="#787878" stroke-width="0.75" stroke-linecap="round" x1="115.561" y1="0.35" x2="115.561" y2="14.75"/>
	<polygon id="connector15terminal" fill="none" points="115.561,0.35 115.561,0.35 115.561,0.35 	"/>
	<g transform="translate(40.3966,2.66347)">
		<g transform="rotate(270)">
			<text x="-6.2625" y="74.1132" fill="#8C8C8C" font-family="'DroidSans'" font-size="2.5">16</text>
		</g>
	</g>
	<g transform="translate(41.0139,5.9443)">
		<g transform="rotate(270)">
			<text x="-13.0794" y="75.2449" fill="#787878" font-family="'DroidSans'" font-size="3.5">B</text>
		</g>
	</g>
	
		<line id="connector12pin" fill="none" stroke="#787878" stroke-width="0.75" stroke-linecap="round" x1="122.76" y1="0.35" x2="122.76" y2="14.75"/>
	<polygon id="connector12terminal" fill="none" points="122.76,0.35 122.76,0.35 122.76,0.35 	"/>
	<g transform="translate(42.9366,2.66347)">
		<g transform="rotate(270)">
			<text x="-6.2625" y="78.7734" fill="#8C8C8C" font-family="'DroidSans'" font-size="2.5">13</text>
		</g>
	</g>
	<g transform="translate(43.5539,5.9443)">
		<g transform="rotate(270)">
			<text x="-13.0169" y="79.9051" fill="#787878" font-family="'DroidSans'" font-size="3.5">C</text>
		</g>
	</g>
	
		<line id="connector2pin" fill="none" stroke="#787878" stroke-width="0.75" stroke-linecap="round" x1="129.96" y1="0.35" x2="129.96" y2="14.75"/>
	<polygon id="connector2terminal" fill="none" points="129.96,0.35 129.961,0.35 129.961,0.35 	"/>
	<g transform="translate(45.4766,2.66347)">
		<g transform="rotate(270)">
			<text x="-5.5731" y="83.4336" fill="#8C8C8C" font-family="'DroidSans'" font-size="2.5">3</text>
		</g>
	</g>
	<g transform="translate(46.0939,5.9443)">
		<g transform="rotate(270)">
			<text x="-13.3001" y="84.5653" fill="#787878" font-family="'DroidSans'" font-size="3.5">D</text>
		</g>
	</g>
	
		<line id="connector4pin" fill="none" stroke="#787878" stroke-width="0.75" stroke-linecap="round" x1="137.16" y1="0.35" x2="137.16" y2="14.75"/>
	<polygon id="connector4terminal" fill="none" points="137.16,0.35 137.16,0.35 137.16,0.35 	"/>
	<g transform="translate(48.0166,2.66347)">
		<g transform="rotate(270)">
			<text x="-5.5731" y="88.0918" fill="#8C8C8C" font-family="'DroidSans'" font-size="2.5">5</text>
		</g>
	</g>
	<g transform="translate(48.6339,5.9443)">
		<g transform="rotate(270)">
			<text x="-12.7532" y="89.2245" fill="#787878" font-family="'DroidSans'" font-size="3.5">E</text>
		</g>
	</g>
	
		<line id="connector10pin" fill="none" stroke="#787878" stroke-width="0.75" stroke-linecap="round" x1="144.359" y1="0.35" x2="144.359" y2="14.75"/>
	<polygon id="connector10terminal" fill="none" points="144.359,0.35 144.359,0.35 144.359,0.35 	"/>
	<g transform="translate(50.5566,2.66347)">
		<g transform="rotate(270)">
			<text x="-6.2625" y="92.753" fill="#8C8C8C" font-family="'DroidSans'" font-size="2.5">11</text>
		</g>
	</g>
	<g transform="translate(51.1739,5.9443)">
		<g transform="rotate(270)">
			<text x="-12.6223" y="93.8857" fill="#787878" font-family="'DroidSans'" font-size="3.5">F</text>
		</g>
	</g>
	
		<line id="connector14pin" fill="none" stroke="#787878" stroke-width="0.75" stroke-linecap="round" x1="151.561" y1="0.35" x2="151.561" y2="14.75"/>
	<polygon id="connector14terminal" fill="none" points="151.561,0.35 151.561,0.35 151.561,0.35 	"/>
	<g transform="translate(53.0966,2.66347)">
		<g transform="rotate(270)">
			<text x="-6.2625" y="97.4122" fill="#8C8C8C" font-family="'DroidSans'" font-size="2.5">15</text>
		</g>
	</g>
	<g transform="translate(53.7139,5.9443)">
		<g transform="rotate(270)">
			<text x="-13.3196" y="98.5459" fill="#787878" font-family="'DroidSans'" font-size="3.5">G</text>
		</g>
	</g>
	
		<line id="connector6pin" fill="none" stroke="#787878" stroke-width="0.75" stroke-linecap="round" x1="158.76" y1="0.35" x2="158.76" y2="14.75"/>
	<polygon id="connector6terminal" fill="none" points="158.76,0.35 158.76,0.35 158.76,0.35 	"/>
	<g transform="translate(55.6366,2.66347)">
		<g transform="rotate(270)">
			<text x="-5.5731" y="102.0734" fill="#8C8C8C" font-family="'DroidSans'" font-size="2.5">7</text>
		</g>
	</g>
	<g transform="translate(56.2539,5.9443)">
		<g transform="rotate(270)">
			<text x="-15.3157" y="103.2041" fill="#787878" font-family="'DroidSans'" font-size="3.5">DP</text>
		</g>
	</g>
	
		<line id="connector11pin" fill="none" stroke="#787878" stroke-width="0.75" stroke-linecap="round" x1="79.56" y1="0.35" x2="79.56" y2="14.75"/>
	<polygon id="connector11terminal" fill="none" points="79.56,0.35 79.56,0.35 79.56,0.35 	"/>
	<g transform="translate(27.6966,2.66347)">
		<g transform="rotate(270)">
			<text x="-6.2625" y="50.8122" fill="#8C8C8C" font-family="'DroidSans'" font-size="2.5">12</text>
		</g>
	</g>
	<g transform="translate(28.3139,5.9443)">
		<g transform="rotate(270)">
			<text x="-20.4993" y="51.9449" fill="#787878" font-family="'DroidSans'" font-size="3.5">COL-C</text>
		</g>
	</g>
	
		<line id="connector8pin" fill="none" stroke="#787878" stroke-width="0.75" stroke-linecap="round" x1="194.76" y1="0.35" x2="194.76" y2="14.75"/>
	<polygon id="connector8terminal" fill="none" points="194.76,0.35 194.76,0.35 194.76,0.35 	"/>
	<g transform="translate(68.3366,2.66347)">
		<g transform="rotate(270)">
			<text x="-5.5731" y="125.3714" fill="#8C8C8C" font-family="'DroidSans'" font-size="2.5">9</text>
		</g>
	</g>
	<g transform="translate(68.9539,5.9443)">
		<g transform="rotate(270)">
			<text x="-22.6985" y="126.5041" fill="#787878" font-family="'DroidSans'" font-size="3.5">APOS-C</text>
		</g>
	</g>
	
		<line id="connector0pin" fill="none" stroke="#787878" stroke-width="0.75" stroke-linecap="round" x1="21.96" y1="0.35" x2="21.96" y2="14.75"/>
	<polygon id="connector0terminal" fill="none" points="21.96,0.35 21.96,0.35 21.96,0.35 	"/>
	<g transform="translate(7.37658,2.66347)">
		<g transform="rotate(270)">
			<text x="-5.5731" y="13.5326" fill="#8C8C8C" font-family="'DroidSans'" font-size="2.5">1</text>
		</g>
	</g>
	<g transform="translate(7.99394,5.9443)">
		<g transform="rotate(270)">
			<text x="-18.7591" y="14.6653" fill="#787878" font-family="'DroidSans'" font-size="3.5">DIG1</text>
		</g>
	</g>
</g>
</svg>
