<?xml version="1.0" encoding="utf-8"?>
<!-- Generator: Adobe Illustrator 16.0.0, SVG Export Plug-In . SVG Version: 6.00 Build 0)  -->
<svg version="1.2" baseProfile="tiny" id="Layer_1" xmlns:svg="http://www.w3.org/2000/svg"
	 xmlns="http://www.w3.org/2000/svg" xmlns:xlink="http://www.w3.org/1999/xlink" x="0px" y="0px" width="58.3px" height="15.121px"
	 viewBox="0 0 58.3 15.121" xml:space="preserve">
<g id="schematic">
	<path fill="none" stroke="#000000" stroke-width="0.9" d="M29.15,7.56c0,3.977-3.223,7.2-7.2,7.2s-7.2-3.224-7.2-7.2"/>
	<path fill="none" stroke="#000000" stroke-width="0.9" d="M29.15,7.56c0-3.977,3.224-7.2,7.2-7.2s7.2,3.224,7.2,7.2"/>
	
		<line id="connector0pin" fill="none" stroke="#787878" stroke-width="0.75" stroke-linecap="round" x1="0.35" y1="7.56" x2="14.75" y2="7.56"/>
	
		<line id="connector1pin" fill="none" stroke="#787878" stroke-width="0.75" stroke-linecap="round" x1="0.35" y1="7.56" x2="14.75" y2="7.56"/>
	<rect id="connector0terminal" x="0.35" y="7.56" fill="none" width="0" height="0"/>
	<text transform="matrix(1 0 0 1 6.8613 6.5103)" fill="#8C8C8C" font-family="'DroidSans'" font-size="2.5">1</text>
	
		<line id="connector2pin" fill="none" stroke="#787878" stroke-width="0.75" stroke-linecap="round" x1="57.951" y1="7.56" x2="43.55" y2="7.56"/>
	
		<line id="connector3pin" fill="none" stroke="#787878" stroke-width="0.75" stroke-linecap="round" x1="57.951" y1="7.56" x2="43.55" y2="7.56"/>
	<rect id="connector2terminal" x="57.951" y="7.56" fill="none" width="0" height="0"/>
	<text transform="matrix(1 0 0 1 50.062 6.5103)" fill="#8C8C8C" font-family="'DroidSans'" font-size="2.5">3</text>
</g>
</svg>
