<?xml version="1.0" encoding="utf-8"?>
<!-- Generator: Adobe Illustrator 16.0.0, SVG Export Plug-In . SVG Version: 6.00 Build 0)  -->
<!DOCTYPE svg PUBLIC "-//W3C//DTD SVG 1.1//EN" "http://www.w3.org/Graphics/SVG/1.1/DTD/svg11.dtd">
<svg version="1.1" id="Layer_1" xmlns:svg="http://www.w3.org/2000/svg"
	 xmlns="http://www.w3.org/2000/svg" xmlns:xlink="http://www.w3.org/1999/xlink" x="0px" y="0px" width="115.635px"
	 height="152.592px" viewBox="0 0 115.635 152.592" enable-background="new 0 0 115.635 152.592" xml:space="preserve">
<g id="schematic">
	<rect x="7.55" y="15.432" fill="#FFFFFF" width="93.6" height="136.799"/>
	<text id="label" x="46.4307" y="23.8989" font-family="'DroidSans'" font-size="4.25">ALPHANUMERIC</text>
	
		<line fill="none" stroke="#000000" stroke-width="0.9" stroke-linecap="round" x1="101.149" y1="15.432" x2="101.149" y2="152.231"/>
	<line fill="none" stroke="#000000" stroke-width="0.9" stroke-linecap="round" x1="101.149" y1="152.231" x2="7.55" y2="152.231"/>
	<line fill="none" stroke="#000000" stroke-width="0.9" stroke-linecap="round" x1="7.55" y1="152.231" x2="7.55" y2="15.432"/>
	<line fill="none" stroke="#000000" stroke-width="0.9" stroke-linecap="round" x1="7.55" y1="15.432" x2="101.149" y2="15.432"/>
	<line fill="none" stroke="#000000" stroke-width="0.9" stroke-linecap="round" x1="39.23" y1="31.272" x2="58.67" y2="31.272"/>
	<line fill="none" stroke="#000000" stroke-width="0.9" stroke-linecap="round" x1="58.67" y1="31.272" x2="58.67" y2="34.872"/>
	<line fill="none" stroke="#000000" stroke-width="0.9" stroke-linecap="round" x1="58.67" y1="34.872" x2="54.35" y2="38.472"/>
	<line fill="none" stroke="#000000" stroke-width="0.9" stroke-linecap="round" x1="54.35" y1="38.472" x2="40.67" y2="38.472"/>
	<line fill="none" stroke="#000000" stroke-width="0.9" stroke-linecap="round" x1="40.67" y1="38.472" x2="36.35" y2="34.152"/>
	<line fill="none" stroke="#000000" stroke-width="0.9" stroke-linecap="round" x1="36.35" y1="34.152" x2="39.23" y2="31.272"/>
	<line fill="none" stroke="#000000" stroke-width="0.9" stroke-linecap="round" x1="61.55" y1="31.272" x2="61.55" y2="34.872"/>
	<line fill="none" stroke="#000000" stroke-width="0.9" stroke-linecap="round" x1="61.55" y1="34.872" x2="65.149" y2="38.472"/>
	<line fill="none" stroke="#000000" stroke-width="0.9" stroke-linecap="round" x1="65.149" y1="38.472" x2="77.39" y2="38.472"/>
	<line fill="none" stroke="#000000" stroke-width="0.9" stroke-linecap="round" x1="77.39" y1="38.472" x2="82.43" y2="34.152"/>
	<line fill="none" stroke="#000000" stroke-width="0.9" stroke-linecap="round" x1="82.43" y1="34.152" x2="80.271" y2="31.272"/>
	<line fill="none" stroke="#000000" stroke-width="0.9" stroke-linecap="round" x1="80.271" y1="31.272" x2="61.55" y2="31.272"/>
	<line fill="none" stroke="#000000" stroke-width="0.9" stroke-linecap="round" x1="83.87" y1="35.592" x2="78.83" y2="39.912"/>
	<line fill="none" stroke="#000000" stroke-width="0.9" stroke-linecap="round" x1="78.83" y1="39.912" x2="75.229" y2="80.231"/>
	<line fill="none" stroke="#000000" stroke-width="0.9" stroke-linecap="round" x1="75.229" y1="80.231" x2="77.39" y2="83.112"/>
	<line fill="none" stroke="#000000" stroke-width="0.9" stroke-linecap="round" x1="77.39" y1="83.112" x2="82.43" y2="83.112"/>
	<line fill="none" stroke="#000000" stroke-width="0.9" stroke-linecap="round" x1="82.43" y1="83.112" x2="86.75" y2="40.632"/>
	<line fill="none" stroke="#000000" stroke-width="0.9" stroke-linecap="round" x1="86.75" y1="40.632" x2="83.87" y2="35.592"/>
	<line fill="none" stroke="#000000" stroke-width="0.9" stroke-linecap="round" x1="81.71" y1="86.712" x2="77.39" y2="129.192"/>
	<line fill="none" stroke="#000000" stroke-width="0.9" stroke-linecap="round" x1="77.39" y1="129.192" x2="74.51" y2="132.071"/>
	<line fill="none" stroke="#000000" stroke-width="0.9" stroke-linecap="round" x1="74.51" y1="132.071" x2="70.19" y2="128.472"/>
	<line fill="none" stroke="#000000" stroke-width="0.9" stroke-linecap="round" x1="70.19" y1="128.472" x2="73.069" y2="91.032"/>
	<line fill="none" stroke="#000000" stroke-width="0.9" stroke-linecap="round" x1="73.069" y1="91.032" x2="78.11" y2="86.712"/>
	<line fill="none" stroke="#000000" stroke-width="0.9" stroke-linecap="round" x1="78.11" y1="86.712" x2="81.71" y2="86.712"/>
	<line fill="none" stroke="#000000" stroke-width="0.9" stroke-linecap="round" x1="72.351" y1="134.231" x2="68.03" y2="130.632"/>
	<line fill="none" stroke="#000000" stroke-width="0.9" stroke-linecap="round" x1="68.03" y1="130.632" x2="54.35" y2="130.632"/>
	<line fill="none" stroke="#000000" stroke-width="0.9" stroke-linecap="round" x1="54.35" y1="130.632" x2="50.75" y2="133.512"/>
	<line fill="none" stroke="#000000" stroke-width="0.9" stroke-linecap="round" x1="50.75" y1="133.512" x2="50.75" y2="137.112"/>
	<line fill="none" stroke="#000000" stroke-width="0.9" stroke-linecap="round" x1="50.75" y1="137.112" x2="70.19" y2="137.112"/>
	<line fill="none" stroke="#000000" stroke-width="0.9" stroke-linecap="round" x1="70.19" y1="137.112" x2="72.351" y2="134.231"/>
	<line fill="none" stroke="#000000" stroke-width="0.9" stroke-linecap="round" x1="47.87" y1="133.512" x2="44.99" y2="130.632"/>
	<line fill="none" stroke="#000000" stroke-width="0.9" stroke-linecap="round" x1="44.99" y1="130.632" x2="31.31" y2="130.632"/>
	<line fill="none" stroke="#000000" stroke-width="0.9" stroke-linecap="round" x1="31.31" y1="130.632" x2="27.71" y2="134.231"/>
	<line fill="none" stroke="#000000" stroke-width="0.9" stroke-linecap="round" x1="27.71" y1="134.231" x2="30.59" y2="137.112"/>
	<line fill="none" stroke="#000000" stroke-width="0.9" stroke-linecap="round" x1="30.59" y1="137.112" x2="47.87" y2="137.112"/>
	<line fill="none" stroke="#000000" stroke-width="0.9" stroke-linecap="round" x1="47.87" y1="137.112" x2="47.87" y2="133.512"/>
	<line fill="none" stroke="#000000" stroke-width="0.9" stroke-linecap="round" x1="30.59" y1="127.751" x2="35.63" y2="90.312"/>
	<line fill="none" stroke="#000000" stroke-width="0.9" stroke-linecap="round" x1="35.63" y1="90.312" x2="32.75" y2="86.712"/>
	<line fill="none" stroke="#000000" stroke-width="0.9" stroke-linecap="round" x1="32.75" y1="86.712" x2="28.43" y2="86.712"/>
	<line fill="none" stroke="#000000" stroke-width="0.9" stroke-linecap="round" x1="28.43" y1="86.712" x2="24.11" y2="129.911"/>
	<line fill="none" stroke="#000000" stroke-width="0.9" stroke-linecap="round" x1="24.11" y1="129.911" x2="26.27" y2="132.792"/>
	<line fill="none" stroke="#000000" stroke-width="0.9" stroke-linecap="round" x1="26.27" y1="132.792" x2="30.59" y2="127.751"/>
	<line fill="none" stroke="#000000" stroke-width="0.9" stroke-linecap="round" x1="33.47" y1="83.112" x2="36.35" y2="80.231"/>
	<line fill="none" stroke="#000000" stroke-width="0.9" stroke-linecap="round" x1="36.35" y1="80.231" x2="39.95" y2="40.632"/>
	<line fill="none" stroke="#000000" stroke-width="0.9" stroke-linecap="round" x1="39.95" y1="40.632" x2="34.91" y2="35.592"/>
	<line fill="none" stroke="#000000" stroke-width="0.9" stroke-linecap="round" x1="34.91" y1="35.592" x2="32.75" y2="38.472"/>
	<line fill="none" stroke="#000000" stroke-width="0.9" stroke-linecap="round" x1="32.75" y1="38.472" x2="29.15" y2="83.112"/>
	<line fill="none" stroke="#000000" stroke-width="0.9" stroke-linecap="round" x1="29.15" y1="83.112" x2="33.47" y2="83.112"/>
	<line fill="none" stroke="#000000" stroke-width="0.9" stroke-linecap="round" x1="46.43" y1="127.751" x2="50.75" y2="91.032"/>
	<line fill="none" stroke="#000000" stroke-width="0.9" stroke-linecap="round" x1="50.75" y1="91.032" x2="55.07" y2="87.432"/>
	<line fill="none" stroke="#000000" stroke-width="0.9" stroke-linecap="round" x1="55.07" y1="87.432" x2="57.95" y2="91.032"/>
	<line fill="none" stroke="#000000" stroke-width="0.9" stroke-linecap="round" x1="57.95" y1="91.032" x2="52.91" y2="128.472"/>
	<line fill="none" stroke="#000000" stroke-width="0.9" stroke-linecap="round" x1="52.91" y1="128.472" x2="50.03" y2="131.352"/>
	<line fill="none" stroke="#000000" stroke-width="0.9" stroke-linecap="round" x1="50.03" y1="131.352" x2="46.43" y2="127.751"/>
	<line fill="none" stroke="#000000" stroke-width="0.9" stroke-linecap="round" x1="59.39" y1="79.512" x2="62.989" y2="40.632"/>
	<line fill="none" stroke="#000000" stroke-width="0.9" stroke-linecap="round" x1="62.989" y1="40.632" x2="60.11" y2="37.032"/>
	<line fill="none" stroke="#000000" stroke-width="0.9" stroke-linecap="round" x1="60.11" y1="37.032" x2="55.07" y2="41.352"/>
	<line fill="none" stroke="#000000" stroke-width="0.9" stroke-linecap="round" x1="55.07" y1="41.352" x2="52.19" y2="79.512"/>
	<line fill="none" stroke="#000000" stroke-width="0.9" stroke-linecap="round" x1="52.19" y1="79.512" x2="55.07" y2="83.112"/>
	<line fill="none" stroke="#000000" stroke-width="0.9" stroke-linecap="round" x1="55.07" y1="83.112" x2="59.39" y2="79.512"/>
	<line fill="none" stroke="#000000" stroke-width="0.9" stroke-linecap="round" x1="61.55" y1="80.952" x2="71.63" y2="80.952"/>
	<line fill="none" stroke="#000000" stroke-width="0.9" stroke-linecap="round" x1="71.63" y1="80.952" x2="75.229" y2="85.272"/>
	<line fill="none" stroke="#000000" stroke-width="0.9" stroke-linecap="round" x1="75.229" y1="85.272" x2="70.91" y2="88.872"/>
	<line fill="none" stroke="#000000" stroke-width="0.9" stroke-linecap="round" x1="70.91" y1="88.872" x2="60.11" y2="88.872"/>
	<line fill="none" stroke="#000000" stroke-width="0.9" stroke-linecap="round" x1="60.11" y1="88.872" x2="57.23" y2="85.272"/>
	<line fill="none" stroke="#000000" stroke-width="0.9" stroke-linecap="round" x1="57.23" y1="85.272" x2="61.55" y2="80.952"/>
	<line fill="none" stroke="#000000" stroke-width="0.9" stroke-linecap="round" x1="50.03" y1="80.952" x2="52.91" y2="85.272"/>
	<line fill="none" stroke="#000000" stroke-width="0.9" stroke-linecap="round" x1="52.91" y1="85.272" x2="49.31" y2="88.872"/>
	<line fill="none" stroke="#000000" stroke-width="0.9" stroke-linecap="round" x1="49.31" y1="88.872" x2="37.79" y2="88.872"/>
	<line fill="none" stroke="#000000" stroke-width="0.9" stroke-linecap="round" x1="37.79" y1="88.872" x2="34.91" y2="85.272"/>
	<line fill="none" stroke="#000000" stroke-width="0.9" stroke-linecap="round" x1="34.91" y1="85.272" x2="39.95" y2="80.952"/>
	<line fill="none" stroke="#000000" stroke-width="0.9" stroke-linecap="round" x1="39.95" y1="80.952" x2="50.03" y2="80.952"/>
	<line fill="none" stroke="#000000" stroke-width="0.9" stroke-linecap="round" x1="61.55" y1="78.792" x2="62.989" y2="63.672"/>
	<line fill="none" stroke="#000000" stroke-width="0.9" stroke-linecap="round" x1="62.989" y1="63.672" x2="76.67" y2="40.632"/>
	<line fill="none" stroke="#000000" stroke-width="0.9" stroke-linecap="round" x1="76.67" y1="40.632" x2="75.229" y2="55.032"/>
	<line fill="none" stroke="#000000" stroke-width="0.9" stroke-linecap="round" x1="75.229" y1="55.032" x2="61.55" y2="78.792"/>
	<line fill="none" stroke="#000000" stroke-width="0.9" stroke-linecap="round" x1="50.03" y1="78.792" x2="51.47" y2="63.672"/>
	<line fill="none" stroke="#000000" stroke-width="0.9" stroke-linecap="round" x1="51.47" y1="63.672" x2="42.11" y2="41.352"/>
	<line fill="none" stroke="#000000" stroke-width="0.9" stroke-linecap="round" x1="42.11" y1="41.352" x2="40.67" y2="54.312"/>
	<line fill="none" stroke="#000000" stroke-width="0.9" stroke-linecap="round" x1="40.67" y1="54.312" x2="50.03" y2="78.792"/>
	<line fill="none" stroke="#000000" stroke-width="0.9" stroke-linecap="round" x1="60.11" y1="92.472" x2="69.47" y2="112.632"/>
	<line fill="none" stroke="#000000" stroke-width="0.9" stroke-linecap="round" x1="69.47" y1="112.632" x2="68.03" y2="127.751"/>
	<line fill="none" stroke="#000000" stroke-width="0.9" stroke-linecap="round" x1="68.03" y1="127.751" x2="57.95" y2="106.151"/>
	<line fill="none" stroke="#000000" stroke-width="0.9" stroke-linecap="round" x1="57.95" y1="106.151" x2="60.11" y2="92.472"/>
	<line fill="none" stroke="#000000" stroke-width="0.9" stroke-linecap="round" x1="48.59" y1="92.472" x2="47.15" y2="105.432"/>
	<line fill="none" stroke="#000000" stroke-width="0.9" stroke-linecap="round" x1="47.15" y1="105.432" x2="32.75" y2="127.032"/>
	<line fill="none" stroke="#000000" stroke-width="0.9" stroke-linecap="round" x1="32.75" y1="127.032" x2="34.19" y2="113.352"/>
	<line fill="none" stroke="#000000" stroke-width="0.9" stroke-linecap="round" x1="34.19" y1="113.352" x2="48.59" y2="92.472"/>
	<circle fill="none" stroke="#000000" stroke-width="0.254" cx="27.71" cy="30.552" r="3.22"/>
	<circle fill="none" stroke="#000000" stroke-width="0.254" cx="81.71" cy="138.552" r="3.055"/>
	<text x="65.1494" y="65.5498" fill="#505050" font-family="'DroidSans'" font-size="4.252">K</text>
	<text x="79.5498" y="64.8311" fill="#505050" font-family="'DroidSans'" font-size="4.252">B</text>
	<text x="73.7881" y="111.6299" fill="#505050" font-family="'DroidSans'" font-size="4.252">C</text>
	<text x="62.9893" y="110.9111" fill="#505050" font-family="'DroidSans'" font-size="4.252">L</text>
	<text x="50.749" y="110.9111" fill="#505050" font-family="'DroidSans'" font-size="4.252">M</text>
	<text x="39.2305" y="110.9111" fill="#505050" font-family="'DroidSans'" font-size="4.252">N</text>
	<text x="27.708" y="110.9111" fill="#505050" font-family="'DroidSans'" font-size="4.252">E</text>
	<text x="35.9102" y="135.3896" fill="#505050" font-family="'DroidSans'" font-size="4.252">D1</text>
	<text x="58.2305" y="135.3896" fill="#505050" font-family="'DroidSans'" font-size="4.252">D2</text>
	<text x="75.9482" y="149.0703" fill="#505050" font-family="'DroidSans'" font-size="4.252">DP1</text>
	<text x="21.9482" y="25.5117" fill="#505050" font-family="'DroidSans'" font-size="4.252">DP2</text>
	<text x="44.5518" y="36.752" fill="#505050" font-family="'DroidSans'" font-size="4.252">A1</text>
	<text x="68.3105" y="36.752" fill="#505050" font-family="'DroidSans'" font-size="4.252">A2</text>
	<text x="32.749" y="64.8311" fill="#505050" font-family="'DroidSans'" font-size="4.252">F</text>
	<text x="45.71" y="64.8311" fill="#505050" font-family="'DroidSans'" font-size="4.252">H</text>
	<text x="55.7881" y="64.8311" fill="#505050" font-family="'DroidSans'" font-size="4.252">J</text>
	<text x="63.5518" y="86.1484" fill="#505050" font-family="'DroidSans'" font-size="4.252">G2</text>
	<text x="41.9512" y="86.1484" fill="#505050" font-family="'DroidSans'" font-size="4.252">G1</text>
	
		<line id="connector1pin" fill="none" stroke="#787878" stroke-width="0.75" stroke-linecap="round" x1="108.35" y1="29.832" x2="101.149" y2="29.832"/>
	<rect id="connector1terminal" x="108.35" y="29.832" fill="none" width="0.001" height="0"/>
	<text x="104.0596" y="28.7813" fill="#8C8C8C" font-family="'DroidSans'" font-size="2.5">2</text>
	<text x="94.9932" y="30.5322" fill="#787878" font-family="'DroidSans'" font-size="3.5">A1</text>
	
		<line id="connector17pin" fill="none" stroke="#787878" stroke-width="0.75" stroke-linecap="round" x1="108.35" y1="37.032" x2="101.149" y2="37.032"/>
	<rect id="connector17terminal" x="108.35" y="37.032" fill="none" width="0.001" height="0"/>
	<text x="103.3721" y="35.9814" fill="#8C8C8C" font-family="'DroidSans'" font-size="2.5">18</text>
	<text x="94.9932" y="37.7305" fill="#787878" font-family="'DroidSans'" font-size="3.5">A2</text>
	
		<line id="connector16pin" fill="none" stroke="#787878" stroke-width="0.75" stroke-linecap="round" x1="108.35" y1="44.232" x2="101.149" y2="44.232"/>
	<rect id="connector16terminal" x="108.35" y="44.232" fill="none" width="0.001" height="0"/>
	<text x="103.3721" y="43.1826" fill="#8C8C8C" font-family="'DroidSans'" font-size="2.5">17</text>
	<text x="96.874" y="44.9316" fill="#787878" font-family="'DroidSans'" font-size="3.5">B</text>
	
		<line id="connector13pin" fill="none" stroke="#787878" stroke-width="0.75" stroke-linecap="round" x1="108.35" y1="51.432" x2="101.149" y2="51.432"/>
	<rect id="connector13terminal" x="108.35" y="51.432" fill="none" width="0.001" height="0"/>
	<text x="103.3721" y="50.3809" fill="#8C8C8C" font-family="'DroidSans'" font-size="2.5">14</text>
	<text x="96.9385" y="52.1318" fill="#787878" font-family="'DroidSans'" font-size="3.5">C</text>
	
		<line id="connector7pin" fill="none" stroke="#787878" stroke-width="0.75" stroke-linecap="round" x1="108.35" y1="58.632" x2="101.149" y2="58.632"/>
	<rect id="connector7terminal" x="108.35" y="58.632" fill="none" width="0.001" height="0"/>
	<text x="104.0596" y="57.583" fill="#8C8C8C" font-family="'DroidSans'" font-size="2.5">8</text>
	<text x="94.7275" y="59.333" fill="#787878" font-family="'DroidSans'" font-size="3.5">D1</text>
	
		<line id="connector11pin" fill="none" stroke="#787878" stroke-width="0.75" stroke-linecap="round" x1="108.35" y1="65.832" x2="101.149" y2="65.832"/>
	<rect id="connector11terminal" x="108.35" y="65.832" fill="none" width="0.001" height="0"/>
	<text x="103.3721" y="64.7813" fill="#8C8C8C" font-family="'DroidSans'" font-size="2.5">12</text>
	<text x="94.7275" y="66.5313" fill="#787878" font-family="'DroidSans'" font-size="3.5">D2</text>
	
		<line id="connector6pin" fill="none" stroke="#787878" stroke-width="0.75" stroke-linecap="round" x1="108.35" y1="73.032" x2="101.149" y2="73.032"/>
	<rect id="connector6terminal" x="108.35" y="73.032" fill="none" width="0.001" height="0"/>
	<text x="104.0596" y="71.9814" fill="#8C8C8C" font-family="'DroidSans'" font-size="2.5">7</text>
	<text x="97.2021" y="73.7314" fill="#787878" font-family="'DroidSans'" font-size="3.5">E</text>
	
		<line id="connector3pin" fill="none" stroke="#787878" stroke-width="0.75" stroke-linecap="round" x1="108.35" y1="80.231" x2="101.149" y2="80.231"/>
	<rect id="connector3terminal" x="108.35" y="80.231" fill="none" width="0.001" height="0"/>
	<text x="104.0596" y="79.1816" fill="#8C8C8C" font-family="'DroidSans'" font-size="2.5">4</text>
	<text x="97.3291" y="80.9326" fill="#787878" font-family="'DroidSans'" font-size="3.5">F</text>
	
		<line id="connector5pin" fill="none" stroke="#787878" stroke-width="0.75" stroke-linecap="round" x1="108.35" y1="87.432" x2="101.149" y2="87.432"/>
	<rect id="connector5terminal" x="108.35" y="87.432" fill="none" width="0.001" height="0.001"/>
	<text x="104.0596" y="86.3818" fill="#8C8C8C" font-family="'DroidSans'" font-size="2.5">6</text>
	<text x="94.707" y="88.1309" fill="#787878" font-family="'DroidSans'" font-size="3.5">G1</text>
	
		<line id="connector15pin" fill="none" stroke="#787878" stroke-width="0.75" stroke-linecap="round" x1="108.35" y1="94.632" x2="101.149" y2="94.632"/>
	<rect id="connector15terminal" x="108.35" y="94.632" fill="none" width="0.001" height="0"/>
	<text x="103.3721" y="93.582" fill="#8C8C8C" font-family="'DroidSans'" font-size="2.5">16</text>
	<text x="94.707" y="95.333" fill="#787878" font-family="'DroidSans'" font-size="3.5">G2</text>
	
		<line id="connector2pin" fill="none" stroke="#787878" stroke-width="0.75" stroke-linecap="round" x1="108.35" y1="101.831" x2="101.149" y2="101.831"/>
	<rect id="connector2terminal" x="108.35" y="101.831" fill="none" width="0.001" height="0.001"/>
	<text x="104.0596" y="100.7822" fill="#8C8C8C" font-family="'DroidSans'" font-size="2.5">3</text>
	<text x="96.5947" y="102.5313" fill="#787878" font-family="'DroidSans'" font-size="3.5">H</text>
	
		<line id="connector19pin" fill="none" stroke="#787878" stroke-width="0.75" stroke-linecap="round" x1="108.35" y1="109.032" x2="101.149" y2="109.032"/>
	<rect id="connector19terminal" x="108.35" y="109.032" fill="none" width="0.001" height="0"/>
	<text x="103.3721" y="107.9814" fill="#8C8C8C" font-family="'DroidSans'" font-size="2.5">20</text>
	<text x="98.1006" y="109.7314" fill="#787878" font-family="'DroidSans'" font-size="3.5">J</text>
	
		<line id="connector18pin" fill="none" stroke="#787878" stroke-width="0.75" stroke-linecap="round" x1="108.35" y1="116.231" x2="101.149" y2="116.231"/>
	<rect id="connector18terminal" x="108.35" y="116.231" fill="none" width="0.001" height="0"/>
	<text x="103.3721" y="115.1816" fill="#8C8C8C" font-family="'DroidSans'" font-size="2.5">19</text>
	<text x="97.0225" y="116.9316" fill="#787878" font-family="'DroidSans'" font-size="3.5">K</text>
	
		<line id="connector12pin" fill="none" stroke="#787878" stroke-width="0.75" stroke-linecap="round" x1="108.35" y1="123.432" x2="101.149" y2="123.432"/>
	<rect id="connector12terminal" x="108.35" y="123.432" fill="none" width="0.001" height="0.001"/>
	<text x="103.3721" y="122.3809" fill="#8C8C8C" font-family="'DroidSans'" font-size="2.5">13</text>
	<text x="97.3291" y="124.1318" fill="#787878" font-family="'DroidSans'" font-size="3.5">L</text>
	
		<line id="connector9pin" fill="none" stroke="#787878" stroke-width="0.75" stroke-linecap="round" x1="108.35" y1="130.632" x2="101.149" y2="130.632"/>
	<rect id="connector9terminal" x="108.35" y="130.632" fill="none" width="0.001" height="0"/>
	<text x="103.3721" y="129.582" fill="#8C8C8C" font-family="'DroidSans'" font-size="2.5">10</text>
	<text x="96.0039" y="131.332" fill="#787878" font-family="'DroidSans'" font-size="3.5">M</text>
	
		<line id="connector8pin" fill="none" stroke="#787878" stroke-width="0.75" stroke-linecap="round" x1="108.35" y1="137.831" x2="101.149" y2="137.831"/>
	<rect id="connector8terminal" x="108.35" y="137.831" fill="none" width="0.001" height="0.001"/>
	<text x="104.0596" y="136.7822" fill="#8C8C8C" font-family="'DroidSans'" font-size="2.5">9</text>
	<text x="96.498" y="138.5322" fill="#787878" font-family="'DroidSans'" font-size="3.5">N</text>
	
		<line id="connector0pin" fill="none" stroke="#787878" stroke-width="0.75" stroke-linecap="round" x1="0.35" y1="137.831" x2="7.55" y2="137.831"/>
	<rect id="connector0terminal" x="0.35" y="137.831" fill="none" width="0" height="0.001"/>
	<text x="3.2607" y="136.7822" fill="#8C8C8C" font-family="'DroidSans'" font-size="2.5">1</text>
	<text x="9.6494" y="138.5322" fill="#787878" font-family="'DroidSans'" font-size="3.5">NC</text>
	<line id="connector10pin" fill="none" x1="0.35" y1="137.831" x2="7.55" y2="137.831"/>
	<rect id="connector10terminal" x="0.35" y="137.831" fill="none" width="0" height="0.001"/>
	
		<line id="connector4pin" fill="none" stroke="#787878" stroke-width="0.75" stroke-linecap="round" x1="0.35" y1="44.232" x2="7.55" y2="44.232"/>
	<rect id="connector4terminal" x="0.35" y="44.232" fill="none" width="0" height="0"/>
	<text x="3.2607" y="43.1826" fill="#8C8C8C" font-family="'DroidSans'" font-size="2.5">5</text>
	<text x="9.6494" y="44.9316" fill="#787878" font-family="'DroidSans'" font-size="3.5">VCC</text>
	<line id="connector14pin" fill="none" x1="0.35" y1="44.232" x2="7.55" y2="44.232"/>
	<rect id="connector14terminal" x="0.35" y="44.232" fill="none" width="0" height="0"/>
</g>
</svg>
