<?xml version="1.0" encoding="utf-8"?>
<!-- Generator: Adobe Illustrator 16.0.0, SVG Export Plug-In . SVG Version: 6.00 Build 0)  -->
<!DOCTYPE svg PUBLIC "-//W3C//DTD SVG 1.1//EN" "http://www.w3.org/Graphics/SVG/1.1/DTD/svg11.dtd">
<svg version="1.1" id="Layer_1" xmlns:svg="http://www.w3.org/2000/svg"
	 xmlns="http://www.w3.org/2000/svg" xmlns:xlink="http://www.w3.org/1999/xlink" x="0px" y="0px" width="101.806px"
	 height="130.32px" viewBox="0 0 101.806 130.32" enable-background="new 0 0 101.806 130.32" xml:space="preserve">
<g id="schematic">
	<rect x="14.962" y="0.36" fill="#FFFFFF" width="72" height="129.6"/>
	<text id="label" x="36.5337" y="62.8933" font-family="'DroidSans'" font-size="4.25">VENUS634FLPX</text>
	<line fill="none" stroke="#000000" stroke-width="0.9" stroke-linecap="round" x1="14.962" y1="129.96" x2="86.962" y2="129.96"/>
	<line fill="none" stroke="#000000" stroke-width="0.9" stroke-linecap="round" x1="86.962" y1="129.96" x2="86.962" y2="0.36"/>
	<line fill="none" stroke="#000000" stroke-width="0.9" stroke-linecap="round" x1="86.962" y1="0.36" x2="14.962" y2="0.36"/>
	<line fill="none" stroke="#000000" stroke-width="0.9" stroke-linecap="round" x1="14.962" y1="0.36" x2="14.962" y2="129.96"/>
	
		<line id="connector6pin" fill="none" stroke="#787878" stroke-width="0.75" stroke-linecap="round" x1="0.563" y1="65.16" x2="14.962" y2="65.16"/>
	<rect id="connector6terminal" x="0.563" y="65.16" fill="none" width="0" height="0"/>
	<text x="7.0747" y="64.1101" fill="#8C8C8C" font-family="'DroidSans'" font-size="2.5">7</text>
	<text x="17.063" y="65.8601" fill="#787878" font-family="'DroidSans'" font-size="3.5">LED</text>
	
		<line id="connector43pin" fill="none" stroke="#787878" stroke-width="0.75" stroke-linecap="round" x1="0.563" y1="57.96" x2="14.962" y2="57.96"/>
	<rect id="connector43terminal" x="0.563" y="57.96" fill="none" width="0" height="0.001"/>
	<text x="6.3853" y="56.9109" fill="#8C8C8C" font-family="'DroidSans'" font-size="2.5">44</text>
	<text x="17.063" y="58.6609" fill="#787878" font-family="'DroidSans'" font-size="3.5">TX</text>
	
		<line id="connector41pin" fill="none" stroke="#787878" stroke-width="0.75" stroke-linecap="round" x1="0.563" y1="50.76" x2="14.962" y2="50.76"/>
	<rect id="connector41terminal" x="0.563" y="50.76" fill="none" width="0" height="0"/>
	<text x="6.3853" y="49.7097" fill="#8C8C8C" font-family="'DroidSans'" font-size="2.5">42</text>
	<text x="17.063" y="51.4597" fill="#787878" font-family="'DroidSans'" font-size="3.5">RX</text>
	
		<line id="connector39pin" fill="none" stroke="#787878" stroke-width="0.75" stroke-linecap="round" x1="0.563" y1="43.56" x2="14.962" y2="43.56"/>
	<rect id="connector39terminal" x="0.563" y="43.56" fill="none" width="0" height="0"/>
	<text x="6.3853" y="42.5105" fill="#8C8C8C" font-family="'DroidSans'" font-size="2.5">40</text>
	<text x="17.063" y="44.2605" fill="#787878" font-family="'DroidSans'" font-size="3.5">PPS</text>
	
		<line id="connector40pin" fill="none" stroke="#787878" stroke-width="0.75" stroke-linecap="round" x1="0.563" y1="36.36" x2="14.962" y2="36.36"/>
	<rect id="connector40terminal" x="0.563" y="36.36" fill="none" width="0" height="0"/>
	<text x="6.3853" y="35.3113" fill="#8C8C8C" font-family="'DroidSans'" font-size="2.5">41</text>
	<text x="17.063" y="37.0593" fill="#787878" font-family="'DroidSans'" font-size="3.5">CLK</text>
	
		<line id="connector42pin" fill="none" stroke="#787878" stroke-width="0.75" stroke-linecap="round" x1="0.563" y1="29.16" x2="14.962" y2="29.16"/>
	<rect id="connector42terminal" x="0.563" y="29.16" fill="none" width="0" height="0"/>
	<text x="6.3853" y="28.1101" fill="#8C8C8C" font-family="'DroidSans'" font-size="2.5">43</text>
	<text x="17.063" y="29.8601" fill="#787878" font-family="'DroidSans'" font-size="3.5">CSN</text>
	
		<line id="connector38pin" fill="none" stroke="#787878" stroke-width="0.75" stroke-linecap="round" x1="0.563" y1="21.96" x2="14.962" y2="21.96"/>
	<rect id="connector38terminal" x="0.563" y="21.96" fill="none" width="0" height="0.001"/>
	<text x="6.3853" y="20.9109" fill="#8C8C8C" font-family="'DroidSans'" font-size="2.5">39</text>
	<text x="17.063" y="22.6609" fill="#787878" font-family="'DroidSans'" font-size="3.5">MISO</text>
	
		<line id="connector37pin" fill="none" stroke="#787878" stroke-width="0.75" stroke-linecap="round" x1="0.563" y1="14.76" x2="14.962" y2="14.76"/>
	<rect id="connector37terminal" x="0.563" y="14.76" fill="none" width="0" height="0"/>
	<text x="6.3853" y="13.7097" fill="#8C8C8C" font-family="'DroidSans'" font-size="2.5">38</text>
	<text x="17.063" y="15.4597" fill="#787878" font-family="'DroidSans'" font-size="3.5">MOSI</text>
	
		<line id="connector9pin" fill="none" stroke="#787878" stroke-width="0.75" stroke-linecap="round" x1="0.563" y1="72.36" x2="14.962" y2="72.36"/>
	<rect id="connector9terminal" x="0.563" y="72.36" fill="none" width="0" height="0"/>
	<text x="6.3853" y="71.3093" fill="#8C8C8C" font-family="'DroidSans'" font-size="2.5">10</text>
	<text x="17.063" y="73.0593" fill="#787878" font-family="'DroidSans'" font-size="3.5">GND</text>
	<line id="connector10pin" fill="none" x1="0.563" y1="72.36" x2="14.962" y2="72.36"/>
	<rect id="connector10terminal" x="0.563" y="72.36" fill="none" width="0" height="0"/>
	<line id="connector18pin" fill="none" x1="0.563" y1="72.36" x2="14.962" y2="72.36"/>
	<rect id="connector18terminal" x="0.563" y="72.36" fill="none" width="0" height="0"/>
	<line id="connector14pin" fill="none" x1="0.563" y1="72.36" x2="14.962" y2="72.36"/>
	<rect id="connector14terminal" x="0.563" y="72.36" fill="none" width="0" height="0"/>
	
		<line id="connector20pin" fill="none" stroke="#787878" stroke-width="0.75" stroke-linecap="round" x1="0.563" y1="101.16" x2="14.962" y2="101.16"/>
	<rect id="connector20terminal" x="0.563" y="101.16" fill="none" width="0" height="0"/>
	<text x="6.3853" y="100.1101" fill="#8C8C8C" font-family="'DroidSans'" font-size="2.5">21</text>
	<text x="17.063" y="101.8601" fill="#787878" font-family="'DroidSans'" font-size="3.5">GNDRF</text>
	<line id="connector21pin" fill="none" x1="0.563" y1="101.16" x2="14.962" y2="101.16"/>
	<rect id="connector21terminal" x="0.563" y="101.16" fill="none" width="0" height="0"/>
	<line id="connector23pin" fill="none" x1="0.563" y1="101.16" x2="14.962" y2="101.16"/>
	<rect id="connector23terminal" x="0.563" y="101.16" fill="none" width="0" height="0"/>
	<line id="connector24pin" fill="none" x1="0.563" y1="101.16" x2="14.962" y2="101.16"/>
	<rect id="connector24terminal" x="0.563" y="101.16" fill="none" width="0" height="0"/>
	<line id="connector26pin" fill="none" x1="14.979" y1="101.16" x2="0.579" y2="101.16"/>
	<rect id="connector26terminal" x="0.563" y="101.16" fill="none" width="0" height="0"/>
	<line id="connector27pin" fill="none" x1="14.927" y1="101.16" x2="0.527" y2="101.16"/>
	<rect id="connector27terminal" x="0.563" y="101.16" fill="none" width="0" height="0"/>
	<line id="connector28pin" fill="none" x1="14.979" y1="101.16" x2="0.579" y2="101.16"/>
	<rect id="connector28terminal" x="0.563" y="101.16" fill="none" width="0" height="0"/>
	<line id="connector30pin" fill="none" x1="14.979" y1="101.16" x2="0.579" y2="101.16"/>
	<rect id="connector30terminal" x="0.563" y="101.16" fill="none" width="0" height="0"/>
	<line id="connector32pin" fill="none" x1="14.979" y1="101.16" x2="0.58" y2="101.16"/>
	<rect id="connector32terminal" x="0.563" y="101.16" fill="none" width="0" height="0"/>
	
		<line id="connector16pin" fill="none" stroke="#787878" stroke-width="0.75" stroke-linecap="round" x1="101.363" y1="43.56" x2="86.962" y2="43.56"/>
	<rect id="connector16terminal" x="101.363" y="43.56" fill="none" width="0" height="0"/>
	<text x="92.7856" y="42.5105" fill="#8C8C8C" font-family="'DroidSans'" font-size="2.5">17</text>
	<text x="79.0103" y="44.2605" fill="#787878" font-family="'DroidSans'" font-size="3.5">RTC</text>
	
		<line id="connector8pin" fill="none" stroke="#787878" stroke-width="0.75" stroke-linecap="round" x1="101.363" y1="29.16" x2="86.962" y2="29.16"/>
	<rect id="connector8terminal" x="101.363" y="29.16" fill="none" width="0" height="0"/>
	<text x="93.4731" y="28.1101" fill="#8C8C8C" font-family="'DroidSans'" font-size="2.5">9</text>
	<text x="75.5571" y="29.8601" fill="#787878" font-family="'DroidSans'" font-size="3.5">BTSEL</text>
	
		<line id="connector0pin" fill="none" stroke="#787878" stroke-width="0.75" stroke-linecap="round" x1="101.363" y1="21.96" x2="86.962" y2="21.96"/>
	<rect id="connector0terminal" x="101.363" y="21.96" fill="none" width="0" height="0.001"/>
	<text x="93.4731" y="20.9109" fill="#8C8C8C" font-family="'DroidSans'" font-size="2.5">1</text>
	<text x="76.6138" y="22.6609" fill="#787878" font-family="'DroidSans'" font-size="3.5">RSTN</text>
	
		<line id="connector31pin" fill="none" stroke="#787878" stroke-width="0.75" stroke-linecap="round" x1="0.563" y1="7.56" x2="14.962" y2="7.56"/>
	<rect id="connector31terminal" x="0.563" y="7.56" fill="none" width="0" height="0"/>
	<text x="6.3853" y="6.5105" fill="#8C8C8C" font-family="'DroidSans'" font-size="2.5">32</text>
	<text x="17.063" y="8.2605" fill="#787878" font-family="'DroidSans'" font-size="3.5">RFIN</text>
	
		<line id="connector1pin" fill="none" stroke="#787878" stroke-width="0.75" stroke-linecap="round" x1="101.363" y1="7.56" x2="86.962" y2="7.56"/>
	<rect id="connector1terminal" x="101.363" y="7.56" fill="none" width="0" height="0"/>
	<text x="93.4731" y="6.5105" fill="#8C8C8C" font-family="'DroidSans'" font-size="2.5">2</text>
	<text x="78.7935" y="8.2605" fill="#787878" font-family="'DroidSans'" font-size="3.5">VCC</text>
	
		<line id="connector17pin" fill="none" stroke="#787878" stroke-width="0.75" stroke-linecap="round" x1="101.363" y1="36.36" x2="86.962" y2="36.36"/>
	<rect id="connector17terminal" x="101.363" y="36.36" fill="none" width="0" height="0"/>
	<text x="92.7856" y="35.3113" fill="#8C8C8C" font-family="'DroidSans'" font-size="2.5">18</text>
	<text x="76.9673" y="37.0593" fill="#787878" font-family="'DroidSans'" font-size="3.5">VBAT</text>
	
		<line id="connector5pin" fill="none" stroke="#787878" stroke-width="0.75" stroke-linecap="round" x1="101.363" y1="50.76" x2="86.962" y2="50.76"/>
	<rect id="connector5terminal" x="101.363" y="50.76" fill="none" width="0" height="0"/>
	<text x="93.4731" y="49.7097" fill="#8C8C8C" font-family="'DroidSans'" font-size="2.5">6</text>
	<text x="74.7544" y="51.4597" fill="#787878" font-family="'DroidSans'" font-size="3.5">GPIO1</text>
	
		<line id="connector35pin" fill="none" stroke="#787878" stroke-width="0.75" stroke-linecap="round" x1="101.363" y1="14.76" x2="86.962" y2="14.76"/>
	<rect id="connector35terminal" x="101.363" y="14.76" fill="none" width="0" height="0"/>
	<text x="92.7856" y="13.7097" fill="#8C8C8C" font-family="'DroidSans'" font-size="2.5">36</text>
	<text x="74.1372" y="15.4597" fill="#787878" font-family="'DroidSans'" font-size="3.5">REGEN</text>
	
		<line id="connector4pin" fill="none" stroke="#787878" stroke-width="0.75" stroke-linecap="round" x1="101.363" y1="57.96" x2="86.962" y2="57.96"/>
	<rect id="connector4terminal" x="101.363" y="57.96" fill="none" width="0" height="0.001"/>
	<text x="93.4731" y="56.9109" fill="#8C8C8C" font-family="'DroidSans'" font-size="2.5">5</text>
	<text x="74.7544" y="58.6609" fill="#787878" font-family="'DroidSans'" font-size="3.5">GPIO2</text>
	
		<line id="connector13pin" fill="none" stroke="#787878" stroke-width="0.75" stroke-linecap="round" x1="101.363" y1="65.16" x2="86.962" y2="65.16"/>
	<rect id="connector13terminal" x="101.363" y="65.16" fill="none" width="0" height="0"/>
	<text x="92.7856" y="64.1101" fill="#8C8C8C" font-family="'DroidSans'" font-size="2.5">14</text>
	<text x="72.8267" y="65.8601" fill="#787878" font-family="'DroidSans'" font-size="3.5">GPIO20</text>
	
		<line id="connector3pin" fill="none" stroke="#787878" stroke-width="0.75" stroke-linecap="round" x1="101.363" y1="79.56" x2="86.962" y2="79.56"/>
	<rect id="connector3terminal" x="101.363" y="79.56" fill="none" width="0" height="0"/>
	<text x="93.4731" y="78.5105" fill="#8C8C8C" font-family="'DroidSans'" font-size="2.5">4</text>
	<text x="75.2407" y="80.2605" fill="#787878" font-family="'DroidSans'" font-size="3.5">PIO12</text>
	
		<line id="connector36pin" fill="none" stroke="#787878" stroke-width="0.75" stroke-linecap="round" x1="101.363" y1="86.76" x2="86.962" y2="86.76"/>
	<rect id="connector36terminal" x="101.363" y="86.76" fill="none" width="0" height="0"/>
	<text x="92.7856" y="85.7097" fill="#8C8C8C" font-family="'DroidSans'" font-size="2.5">37</text>
	<text x="75.2407" y="87.4597" fill="#787878" font-family="'DroidSans'" font-size="3.5">PIO14</text>
	
		<line id="connector7pin" fill="none" stroke="#787878" stroke-width="0.75" stroke-linecap="round" x1="101.363" y1="72.36" x2="86.962" y2="72.36"/>
	<rect id="connector7terminal" x="101.363" y="72.36" fill="none" width="0" height="0"/>
	<text x="93.4731" y="71.3093" fill="#8C8C8C" font-family="'DroidSans'" font-size="2.5">8</text>
	<text x="72.8267" y="73.0593" fill="#787878" font-family="'DroidSans'" font-size="3.5">GPIO24</text>
</g>
</svg>
