<?xml version="1.0" encoding="utf-8"?>
<!-- Generator: Adobe Illustrator 16.0.0, SVG Export Plug-In . SVG Version: 6.00 Build 0)  -->
<!DOCTYPE svg PUBLIC "-//W3C//DTD SVG 1.1//EN" "http://www.w3.org/Graphics/SVG/1.1/DTD/svg11.dtd">
<svg version="1.1" id="Layer_1" xmlns:svg="http://www.w3.org/2000/svg"
	 xmlns="http://www.w3.org/2000/svg" xmlns:xlink="http://www.w3.org/1999/xlink" x="0px" y="0px" width="51.1px" height="29.52px"
	 viewBox="0 0 51.1 29.52" enable-background="new 0 0 51.1 29.52" xml:space="preserve">
<g id="schematic">
	<rect x="7.55" y="0.36" fill="#FFFFFF" width="36" height="28.802"/>
	<rect x="7.55" y="0.36" fill="#FFFFFF" width="36" height="28.802"/>
	<text id="label_1_" x="19.7595" y="12.4934" font-family="'DroidSans'" font-size="4.25">TEMP</text>
	<text id="label_2_" x="17.842" y="17.0266" font-family="'DroidSans'" font-size="4.25">SENSOR</text>
	<line fill="none" stroke="#000000" stroke-width="0.9" stroke-linecap="round" x1="7.55" y1="0.36" x2="43.55" y2="0.36"/>
	<line fill="none" stroke="#000000" stroke-width="0.9" stroke-linecap="round" x1="43.55" y1="0.36" x2="43.55" y2="29.16"/>
	<line fill="none" stroke="#000000" stroke-width="0.9" stroke-linecap="round" x1="43.55" y1="29.16" x2="7.55" y2="29.16"/>
	<line fill="none" stroke="#000000" stroke-width="0.9" stroke-linecap="round" x1="7.55" y1="29.16" x2="7.55" y2="0.36"/>
	
		<line id="connector2pin" fill="none" stroke="#787878" stroke-width="0.75" stroke-linecap="round" x1="0.35" y1="7.56" x2="7.55" y2="7.56"/>
	<polygon id="connector2terminal" fill="none" points="0.35,7.56 0.35,7.56 0.35,7.56 	"/>
	<text x="3.2625" y="6.51" fill="#8C8C8C" font-family="'DroidSans'" font-size="2.5">3</text>
	<text x="9.6506" y="8.26" fill="#787878" font-family="'DroidSans'" font-size="3.5">VCC</text>
	
		<line id="connector0pin" fill="none" stroke="#787878" stroke-width="0.75" stroke-linecap="round" x1="0.35" y1="21.96" x2="7.55" y2="21.96"/>
	<polygon id="connector0terminal" fill="none" points="0.35,21.96 0.35,21.96 0.35,21.96 	"/>
	<text x="3.2625" y="20.9104" fill="#8C8C8C" font-family="'DroidSans'" font-size="2.5">1</text>
	<text x="9.6506" y="22.6604" fill="#787878" font-family="'DroidSans'" font-size="3.5">GND</text>
	
		<line id="connector1pin" fill="none" stroke="#787878" stroke-width="0.75" stroke-linecap="round" x1="50.75" y1="14.76" x2="43.55" y2="14.76"/>
	<polygon id="connector1terminal" fill="none" points="50.75,14.76 50.75,14.76 50.75,14.76 	"/>
	<text x="46.4622" y="13.7092" fill="#8C8C8C" font-family="'DroidSans'" font-size="2.5">2</text>
	<text x="35.9807" y="15.4592" fill="#787878" font-family="'DroidSans'" font-size="3.5">ADJ</text>
</g>
</svg>
