<?xml version="1.0" encoding="utf-8"?>
<!-- Generator: Adobe Illustrator 16.0.0, SVG Export Plug-In . SVG Version: 6.00 Build 0)  -->
<!DOCTYPE svg PUBLIC "-//W3C//DTD SVG 1.1//EN" "http://www.w3.org/Graphics/SVG/1.1/DTD/svg11.dtd">
<svg version="1.1" id="Layer_1" xmlns:svg="http://www.w3.org/2000/svg"
	 xmlns="http://www.w3.org/2000/svg" xmlns:xlink="http://www.w3.org/1999/xlink" x="0px" y="0px" width="108.959px"
	 height="144.721px" viewBox="0 0 108.959 144.721" enable-background="new 0 0 108.959 144.721" xml:space="preserve">
<g id="schematic">
	<rect x="14.841" y="0.36" fill="#FFFFFF" width="79.2" height="144"/>
	<text id="label" x="40.1479" y="70.0916" font-family="'DroidSans'" font-size="4.25">WLANMODULE</text>
	<line fill="none" stroke="#000000" stroke-width="0.9" stroke-linecap="round" x1="14.841" y1="144.36" x2="14.841" y2="0.36"/>
	<line fill="none" stroke="#000000" stroke-width="0.9" stroke-linecap="round" x1="14.841" y1="0.36" x2="94.041" y2="0.36"/>
	<line fill="none" stroke="#000000" stroke-width="0.9" stroke-linecap="round" x1="94.041" y1="0.36" x2="94.041" y2="144.36"/>
	<line fill="none" stroke="#000000" stroke-width="0.9" stroke-linecap="round" x1="94.041" y1="144.36" x2="14.841" y2="144.36"/>
	
		<line id="connector0pin" fill="none" stroke="#787878" stroke-width="0.75" stroke-linecap="round" x1="0.441" y1="7.56" x2="14.841" y2="7.56"/>
	<rect id="connector0terminal" x="0.441" y="7.56" fill="none" width="0" height="0"/>
	<text x="6.9526" y="6.5105" fill="#8C8C8C" font-family="'DroidSans'" font-size="2.5">1</text>
	<text x="16.9409" y="8.2605" fill="#787878" font-family="'DroidSans'" font-size="3.5">VSS</text>
	
		<line id="connector1pin" fill="none" stroke="#787878" stroke-width="0.75" stroke-linecap="round" x1="108.441" y1="7.56" x2="94.041" y2="7.56"/>
	<rect id="connector1terminal" x="108.441" y="7.56" fill="none" width="0" height="0"/>
	<text x="100.552" y="7 6.5105" fill="#8C8C8C" font-family="'DroidSans'" font-size="2.5">2</text>
	<text x="87.1563" y="8.2605" fill="#787878" font-family="'DroidSans'" font-size="3.5">TSI</text>
	
		<line id="connector2pin" fill="none" stroke="#787878" stroke-width="0.75" stroke-linecap="round" x1="0.441" y1="14.76" x2="14.841" y2="14.76"/>
	<rect id="connector2terminal" x="0.441" y="14.76" fill="none" width="0" height="0"/>
	<text x="6.9526" y="13.7097" fill="#8C8C8C" font-family="'DroidSans'" font-size="2.5">3</text>
	<text x="16.9409" y="15.4587" fill="#787878" font-family="'DroidSans'" font-size="3.5">DVDD</text>
	<line id="connector3pin" fill="none" x1="14.841" y1="14.76" x2="0.441" y2="14.76"/>
	<rect id="connector3terminal" x="0.441" y="14.76" fill="none" width="0" height="0"/>
	
		<line id="connector4pin" fill="none" stroke="#787878" stroke-width="0.75" stroke-linecap="round" x1="0.441" y1="21.96" x2="14.841" y2="21.96"/>
	<rect id="connector4terminal" x="0.441" y="21.96" fill="none" width="0" height="0.001"/>
	<text x="6.9526" y="20.9099" fill="#8C8C8C" font-family="'DroidSans'" font-size="2.5">5</text>
	<text x="16.9409" y="22.6609" fill="#787878" font-family="'DroidSans'" font-size="3.5">V2.5</text>
	
		<line id="connector5pin" fill="none" stroke="#787878" stroke-width="0.75" stroke-linecap="round" x1="108.441" y1="21.96" x2="94.041" y2="21.96"/>
	<rect id="connector5terminal" x="108.441" y="21.96" fill="none" width="0" height="0.001"/>
	<text x="100.552" y="7 20.9099" fill="#8C8C8C" font-family="'DroidSans'" font-size="2.5">6</text>
	<text x="85.7129" y="22.6609" fill="#787878" font-family="'DroidSans'" font-size="3.5">RFU</text>
	
		<line id="connector6pin" fill="none" stroke="#787878" stroke-width="0.75" stroke-linecap="round" x1="0.441" y1="29.16" x2="14.841" y2="29.16"/>
	<rect id="connector6terminal" x="0.441" y="29.16" fill="none" width="0" height="0"/>
	<text x="6.9526" y="28.1101" fill="#8C8C8C" font-family="'DroidSans'" font-size="2.5">7</text>
	<text x="16.9409" y="29.8591" fill="#787878" font-family="'DroidSans'" font-size="3.5">/RST</text>
	
		<line id="connector7pin" fill="none" stroke="#787878" stroke-width="0.75" stroke-linecap="round" x1="108.441" y1="29.16" x2="94.041" y2="29.16"/>
	<rect id="connector7terminal" x="108.441" y="29.16" fill="none" width="0" height="0"/>
	<text x="100.552" y="7 28.1101" fill="#8C8C8C" font-family="'DroidSans'" font-size="2.5">8</text>
	<text x="85.2188" y="29.8591" fill="#787878" font-family="'DroidSans'" font-size="3.5">/TSS</text>
	
		<line id="connector8pin" fill="none" stroke="#787878" stroke-width="0.75" stroke-linecap="round" x1="0.441" y1="36.36" x2="14.841" y2="36.36"/>
	<rect id="connector8terminal" x="0.441" y="36.36" fill="none" width="0" height="0"/>
	<text x="6.9526" y="35.3113" fill="#8C8C8C" font-family="'DroidSans'" font-size="2.5">9</text>
	<text x="16.9409" y="37.0593" fill="#787878" font-family="'DroidSans'" font-size="3.5">G6</text>
	
		<line id="connector9pin" fill="none" stroke="#787878" stroke-width="0.75" stroke-linecap="round" x1="108.441" y1="36.36" x2="94.041" y2="36.36"/>
	<rect id="connector9terminal" x="108.441" y="36.36" fill="none" width="0" height="0"/>
	<text x="99.8633" y="35.3113" fill="#8C8C8C" font-family="'DroidSans'" font-size="2.5">10</text>
	<text x="85.7441" y="37.0593" fill="#787878" font-family="'DroidSans'" font-size="3.5">TSO</text>
	
		<line id="connector10pin" fill="none" stroke="#787878" stroke-width="0.75" stroke-linecap="round" x1="0.441" y1="43.56" x2="14.841" y2="43.56"/>
	<rect id="connector10terminal" x="0.441" y="43.56" fill="none" width="0" height="0"/>
	<text x="6.2632" y="42.5095" fill="#8C8C8C" font-family="'DroidSans'" font-size="2.5">11</text>
	<text x="16.9409" y="44.2605" fill="#787878" font-family="'DroidSans'" font-size="3.5">G3</text>
	
		<line id="connector11pin" fill="none" stroke="#787878" stroke-width="0.75" stroke-linecap="round" x1="108.441" y1="43.56" x2="94.041" y2="43.56"/>
	<rect id="connector11terminal" x="108.441" y="43.56" fill="none" width="0" height="0"/>
	<text x="99.8633" y="42.5095" fill="#8C8C8C" font-family="'DroidSans'" font-size="2.5">12</text>
	<text x="88.2949" y="44.2605" fill="#787878" font-family="'DroidSans'" font-size="3.5">F5</text>
	
		<line id="connector12pin" fill="none" stroke="#787878" stroke-width="0.75" stroke-linecap="round" x1="0.441" y1="50.76" x2="14.841" y2="50.76"/>
	<rect id="connector12terminal" x="0.441" y="50.76" fill="none" width="0" height="0"/>
	<text x="6.2632" y="49.7097" fill="#8C8C8C" font-family="'DroidSans'" font-size="2.5">13</text>
	<text x="16.9409" y="51.4597" fill="#787878" font-family="'DroidSans'" font-size="3.5">G5</text>
	
		<line id="connector13pin" fill="none" stroke="#787878" stroke-width="0.75" stroke-linecap="round" x1="108.441" y1="50.76" x2="94.041" y2="50.76"/>
	<rect id="connector13terminal" x="108.441" y="50.76" fill="none" width="0" height="0"/>
	<text x="99.8633" y="49.7097" fill="#8C8C8C" font-family="'DroidSans'" font-size="2.5">14</text>
	<text x="87.5977" y="51.4597" fill="#787878" font-family="'DroidSans'" font-size="3.5">G4</text>
	<line id="connector14pin" fill="none" x1="0.441" y1="7.56" x2="14.841" y2="7.56"/>
	<rect id="connector14terminal" x="0.441" y="7.56" fill="none" width="0" height="0"/>
	<line id="connector15pin" fill="none" x1="14.841" y1="7.56" x2="0.441" y2="7.56"/>
	<rect id="connector15terminal" x="0.441" y="7.56" fill="none" width="0" height="0"/>
	
		<line id="connector16pin" fill="none" stroke="#787878" stroke-width="0.75" stroke-linecap="round" x1="0.441" y1="65.16" x2="14.841" y2="65.16"/>
	<rect id="connector16terminal" x="0.441" y="65.16" fill="none" width="0" height="0"/>
	<text x="6.2632" y="64.1101" fill="#8C8C8C" font-family="'DroidSans'" font-size="2.5">17</text>
	<text x="16.9409" y="65.8601" fill="#787878" font-family="'DroidSans'" font-size="3.5">G2</text>
	
		<line id="connector17pin" fill="none" stroke="#787878" stroke-width="0.75" stroke-linecap="round" x1="108.441" y1="65.16" x2="94.041" y2="65.16"/>
	<rect id="connector17terminal" x="108.441" y="65.16" fill="none" width="0" height="0"/>
	<text x="99.8633" y="64.1101" fill="#8C8C8C" font-family="'DroidSans'" font-size="2.5">18</text>
	<text x="88.2949" y="65.8601" fill="#787878" font-family="'DroidSans'" font-size="3.5">F4</text>
	
		<line id="connector18pin" fill="none" stroke="#787878" stroke-width="0.75" stroke-linecap="round" x1="0.441" y1="72.36" x2="14.841" y2="72.36"/>
	<rect id="connector18terminal" x="0.441" y="72.36" fill="none" width="0" height="0"/>
	<text x="6.2632" y="71.3103" fill="#8C8C8C" font-family="'DroidSans'" font-size="2.5">19</text>
	<text x="16.9409" y="73.0583" fill="#787878" font-family="'DroidSans'" font-size="3.5">G1</text>
	
		<line id="connector19pin" fill="none" stroke="#787878" stroke-width="0.75" stroke-linecap="round" x1="108.441" y1="72.36" x2="94.041" y2="72.36"/>
	<rect id="connector19terminal" x="108.441" y="72.36" fill="none" width="0" height="0"/>
	<text x="99.8633" y="71.3103" fill="#8C8C8C" font-family="'DroidSans'" font-size="2.5">20</text>
	<text x="84.2051" y="73.0583" fill="#787878" font-family="'DroidSans'" font-size="3.5">TSCK</text>
	
		<line id="connector20pin" fill="none" stroke="#787878" stroke-width="0.75" stroke-linecap="round" x1="0.441" y1="79.56" x2="14.841" y2="79.56"/>
	<rect id="connector20terminal" x="0.441" y="79.56" fill="none" width="0" height="0"/>
	<text x="6.2632" y="78.5105" fill="#8C8C8C" font-family="'DroidSans'" font-size="2.5">21</text>
	<text x="16.9409" y="80.2595" fill="#787878" font-family="'DroidSans'" font-size="3.5">G7</text>
	
		<line id="connector21pin" fill="none" stroke="#787878" stroke-width="0.75" stroke-linecap="round" x1="108.441" y1="79.56" x2="94.041" y2="79.56"/>
	<rect id="connector21terminal" x="108.441" y="79.56" fill="none" width="0" height="0"/>
	<text x="99.8633" y="78.5105" fill="#8C8C8C" font-family="'DroidSans'" font-size="2.5">22</text>
	<text x="87.5977" y="80.2595" fill="#787878" font-family="'DroidSans'" font-size="3.5">G0</text>
	
		<line id="connector22pin" fill="none" stroke="#787878" stroke-width="0.75" stroke-linecap="round" x1="0.441" y1="86.76" x2="14.841" y2="86.76"/>
	<rect id="connector22terminal" x="0.441" y="86.76" fill="none" width="0" height="0"/>
	<text x="6.2632" y="85.7087" fill="#8C8C8C" font-family="'DroidSans'" font-size="2.5">23</text>
	<text x="16.9409" y="87.4597" fill="#787878" font-family="'DroidSans'" font-size="3.5">F6</text>
	
		<line id="connector23pin" fill="none" stroke="#787878" stroke-width="0.75" stroke-linecap="round" x1="108.441" y1="86.76" x2="94.041" y2="86.76"/>
	<rect id="connector23terminal" x="108.441" y="86.76" fill="none" width="0" height="0"/>
	<text x="99.8633" y="85.7087" fill="#8C8C8C" font-family="'DroidSans'" font-size="2.5">24</text>
	<text x="88.2949" y="87.4597" fill="#787878" font-family="'DroidSans'" font-size="3.5">F7</text>
	
		<line id="connector24pin" fill="none" stroke="#787878" stroke-width="0.75" stroke-linecap="round" x1="0.441" y1="93.96" x2="14.841" y2="93.96"/>
	<rect id="connector24terminal" x="0.441" y="93.96" fill="none" width="0" height="0.001"/>
	<text x="6.2632" y="92.9109" fill="#8C8C8C" font-family="'DroidSans'" font-size="2.5">25</text>
	<text x="16.9409" y="94.6599" fill="#787878" font-family="'DroidSans'" font-size="3.5">F0</text>
	
		<line id="connector25pin" fill="none" stroke="#787878" stroke-width="0.75" stroke-linecap="round" x1="108.441" y1="93.96" x2="94.041" y2="93.96"/>
	<rect id="connector25terminal" x="108.441" y="93.96" fill="none" width="0" height="0.001"/>
	<text x="99.8633" y="92.9109" fill="#8C8C8C" font-family="'DroidSans'" font-size="2.5">26</text>
	<text x="88.2949" y="94.6599" fill="#787878" font-family="'DroidSans'" font-size="3.5">F3</text>
	
		<line id="connector26pin" fill="none" stroke="#787878" stroke-width="0.75" stroke-linecap="round" x1="0.441" y1="101.16" x2="14.841" y2="101.16"/>
	<rect id="connector26terminal" x="0.441" y="101.16" fill="none" width="0" height="0"/>
	<text x="6.2632" y="100.1091" fill="#8C8C8C" font-family="'DroidSans'" font-size="2.5">27</text>
	<text x="16.9409" y="101.8601" fill="#787878" font-family="'DroidSans'" font-size="3.5">F2</text>
	
		<line id="connector27pin" fill="none" stroke="#787878" stroke-width="0.75" stroke-linecap="round" x1="108.441" y1="101.16" x2="94.041" y2="101.16"/>
	<rect id="connector27terminal" x="108.441" y="101.16" fill="none" width="0" height="0"/>
	<text x="99.8633" y="100.1091" fill="#8C8C8C" font-family="'DroidSans'" font-size="2.5">28</text>
	<text x="88.2949" y="101.8601" fill="#787878" font-family="'DroidSans'" font-size="3.5">F1</text>
	
		<line id="connector28pin" fill="none" stroke="#787878" stroke-width="0.75" stroke-linecap="round" x1="0.441" y1="108.36" x2="14.841" y2="108.36"/>
	<rect id="connector28terminal" x="0.441" y="108.36" fill="none" width="0" height="0"/>
	<text x="6.2632" y="107.3093" fill="#8C8C8C" font-family="'DroidSans'" font-size="2.5">29</text>
	<text x="16.9409" y="109.0593" fill="#787878" font-family="'DroidSans'" font-size="3.5">E6</text>
	
		<line id="connector29pin" fill="none" stroke="#787878" stroke-width="0.75" stroke-linecap="round" x1="108.441" y1="108.36" x2="94.041" y2="108.36"/>
	<rect id="connector29terminal" x="108.441" y="108.36" fill="none" width="0" height="0"/>
	<text x="99.8633" y="107.3093" fill="#8C8C8C" font-family="'DroidSans'" font-size="2.5">30</text>
	<text x="88.166" y="109.0593" fill="#787878" font-family="'DroidSans'" font-size="3.5">E5</text>
	
		<line id="connector30pin" fill="none" stroke="#787878" stroke-width="0.75" stroke-linecap="round" x1="0.441" y1="115.56" x2="14.841" y2="115.56"/>
	<rect id="connector30terminal" x="0.441" y="115.56" fill="none" width="0" height="0"/>
	<text x="6.2632" y="114.5095" fill="#8C8C8C" font-family="'DroidSans'" font-size="2.5">31</text>
	<text x="16.9409" y="116.2605" fill="#787878" font-family="'DroidSans'" font-size="3.5">E7</text>
	
		<line id="connector31pin" fill="none" stroke="#787878" stroke-width="0.75" stroke-linecap="round" x1="108.441" y1="115.56" x2="94.041" y2="115.56"/>
	<rect id="connector31terminal" x="108.441" y="115.56" fill="none" width="0" height="0"/>
	<text x="99.8633" y="114.5095" fill="#8C8C8C" font-family="'DroidSans'" font-size="2.5">32</text>
	<text x="88.166" y="116.2605" fill="#787878" font-family="'DroidSans'" font-size="3.5">E4</text>
	<line id="connector32pin" fill="none" x1="0.441" y1="14.76" x2="14.841" y2="14.76"/>
	<rect id="connector32terminal" x="0.441" y="14.76" fill="none" width="0" height="0"/>
	<line id="connector33pin" fill="none" x1="14.841" y1="14.76" x2="0.441" y2="14.76"/>
	<rect id="connector33terminal" x="0.441" y="14.76" fill="none" width="0" height="0"/>
	
		<line id="connector34pin" fill="none" stroke="#787878" stroke-width="0.75" stroke-linecap="round" x1="0.441" y1="129.96" x2="14.841" y2="129.96"/>
	<rect id="connector34terminal" x="0.441" y="129.96" fill="none" width="0" height="0.001"/>
	<text x="6.2632" y="128.9109" fill="#8C8C8C" font-family="'DroidSans'" font-size="2.5">35</text>
	<text x="16.9409" y="130.6609" fill="#787878" font-family="'DroidSans'" font-size="3.5">/RF_LED</text>
	<line id="connector35pin" fill="none" x1="14.841" y1="7.56" x2="0.441" y2="7.56"/>
	<rect id="connector35terminal" x="0.441" y="7.56" fill="none" width="0" height="0"/>
</g>
</svg>
