<?xml version='1.0' encoding='utf-8'?>
<!DOCTYPE svg PUBLIC '-//W3C//DTD SVG 1.1//EN' 'http://www.w3.org/Graphics/SVG/1.1/DTD/svg11.dtd'>
<!-- Generator: Adobe Illustrator 14.0.0, SVG Export Plug-In . SVG Version: 6.00 Build 43363)  -->
<svg xmlns="http://www.w3.org/2000/svg" width="2.42083in" xml:space="preserve" xmlns:xml="http://www.w3.org/XML/1998/namespace" x="0px" version="1.1" y="0px" height="4.4235in" viewBox="0 0 174.3 318.492" id="Layer_1" enable-background="new 0 0 174.3 318.492" >
 <defs xmlns="http://www.w3.org/2000/svg">
  <inkscape:perspective xmlns:inkscape="http://www.inkscape.org/namespaces/inkscape" id="perspective182" />
 </defs>
 <sodipodi:namedview xmlns:sodipodi="http://sodipodi.sourceforge.net/DTD/sodipodi-0.dtd" showgrid="false" objecttolerance="10.0" pagecolor="#ffffff" bordercolor="#666666" id="base" guidetolerance="10.0" borderopacity="1.0" gridtolerance="10.0" />
 <rect xmlns="http://www.w3.org/2000/svg" width="10" x="1.15" y="15.15" fill="none" height="2" id="connector0pin" />
 <rect xmlns="http://www.w3.org/2000/svg" width="10" x="1.15" y="41.15" fill="none" height="2" id="connector1pin" />
 <rect xmlns="http://www.w3.org/2000/svg" width="10" x="1.15" y="67.15" fill="none" height="2" id="connector2pin" />
 <rect xmlns="http://www.w3.org/2000/svg" width="10" x="1.15" y="93.15" fill="none" height="2" id="connector3pin" />
 <rect xmlns="http://www.w3.org/2000/svg" width="10" x="1.15" y="119.15" fill="none" height="2" id="connector4pin" />
 <rect xmlns="http://www.w3.org/2000/svg" width="10" x="1.15" y="145.15" fill="none" height="2" id="connector5pin" />
 <rect xmlns="http://www.w3.org/2000/svg" width="10" x="1.15" y="171.15" fill="none" height="2" id="connector6pin" />
 <rect xmlns="http://www.w3.org/2000/svg" width="10" x="1.15" y="197.15" fill="none" height="2" id="connector7pin" />
 <rect xmlns="http://www.w3.org/2000/svg" width="10" x="1.15" y="223.15" fill="none" height="2" id="connector8pin" />
 <rect xmlns="http://www.w3.org/2000/svg" width="10" x="1.15" y="249.15" fill="none" height="2" id="connector9pin" />
 <rect xmlns="http://www.w3.org/2000/svg" width="10" x="1.15" y="275.15" fill="none" height="2" id="connector10pin" />
 <rect xmlns="http://www.w3.org/2000/svg" width="10" x="1.15" y="301.15" fill="none" height="2" id="connector11pin" />
 <rect xmlns="http://www.w3.org/2000/svg" width="10" x="163.15" y="301.15" fill="none" height="2" id="connector12pin" />
 <rect xmlns="http://www.w3.org/2000/svg" width="10" x="163.15" y="275.15" fill="none" height="2" id="connector13pin" />
 <rect xmlns="http://www.w3.org/2000/svg" width="10" x="163.15" y="249.15" fill="none" height="2" id="connector14pin" />
 <rect xmlns="http://www.w3.org/2000/svg" width="10" x="163.15" y="223.15" fill="none" height="2" id="connector15pin" />
 <rect xmlns="http://www.w3.org/2000/svg" width="10" x="163.15" y="197.15" fill="none" height="2" id="connector16pin" />
 <rect xmlns="http://www.w3.org/2000/svg" width="10" x="163.15" y="171.15" fill="none" height="2" id="connector17pin" />
 <rect xmlns="http://www.w3.org/2000/svg" width="10" x="163.15" y="145.15" fill="none" height="2" id="connector18pin" />
 <rect xmlns="http://www.w3.org/2000/svg" width="10" x="163.15" y="119.15" fill="none" height="2" id="connector19pin" />
 <rect xmlns="http://www.w3.org/2000/svg" width="10" x="163.15" y="93.15" fill="none" height="2" id="connector20pin" />
 <rect xmlns="http://www.w3.org/2000/svg" width="10" x="163.15" y="67.15" fill="none" height="2" id="connector21pin" />
 <rect xmlns="http://www.w3.org/2000/svg" width="10" x="163.15" y="41.15" fill="none" height="2" id="connector22pin" />
 <rect xmlns="http://www.w3.org/2000/svg" width="10" x="163.15" y="15.15" fill="none" height="2" id="connector23pin" />
 <rect xmlns="http://www.w3.org/2000/svg" width="2" x="1.15" y="15.15" fill="none" height="2" id="connector0terminal" />
 <rect xmlns="http://www.w3.org/2000/svg" width="2" x="1.15" y="41.15" fill="none" height="2" id="connector1terminal" />
 <rect xmlns="http://www.w3.org/2000/svg" width="2" x="1.15" y="67.15" fill="none" height="2" id="connector2terminal" />
 <rect xmlns="http://www.w3.org/2000/svg" width="2" x="1.15" y="93.15" fill="none" height="2" id="connector3terminal" />
 <rect xmlns="http://www.w3.org/2000/svg" width="2" x="1.15" y="119.15" fill="none" height="2" id="connector4terminal" />
 <rect xmlns="http://www.w3.org/2000/svg" width="2" x="1.15" y="145.15" fill="none" height="2" id="connector5terminal" />
 <rect xmlns="http://www.w3.org/2000/svg" width="2" x="1.15" y="171.15" fill="none" height="2" id="connector6terminal" />
 <rect xmlns="http://www.w3.org/2000/svg" width="2" x="1.15" y="197.15" fill="none" height="2" id="connector7terminal" />
 <rect xmlns="http://www.w3.org/2000/svg" width="2" x="1.15" y="223.15" fill="none" height="2" id="connector8terminal" />
 <rect xmlns="http://www.w3.org/2000/svg" width="2" x="1.15" y="249.15" fill="none" height="2" id="connector9terminal" />
 <rect xmlns="http://www.w3.org/2000/svg" width="2" x="1.15" y="275.15" fill="none" height="2" id="connector10terminal" />
 <rect xmlns="http://www.w3.org/2000/svg" width="2" x="1.15" y="301.15" fill="none" height="2" id="connector11terminal" />
 <rect xmlns="http://www.w3.org/2000/svg" width="2" x="170.15" y="301.15" fill="none" height="2" id="connector12terminal" />
 <rect xmlns="http://www.w3.org/2000/svg" width="2" x="171.15" y="275.15" fill="none" height="2" id="connector13terminal" />
 <rect xmlns="http://www.w3.org/2000/svg" width="2" x="171.15" y="249.15" fill="none" height="2" id="connector14terminal" />
 <rect xmlns="http://www.w3.org/2000/svg" width="2" x="171.15" y="223.15" fill="none" height="2" id="connector15terminal" />
 <rect xmlns="http://www.w3.org/2000/svg" width="2" x="171.15" y="197.15" fill="none" height="2" id="connector16terminal" />
 <rect xmlns="http://www.w3.org/2000/svg" width="2" x="171.15" y="171.15" fill="none" height="2" id="connector17terminal" />
 <rect xmlns="http://www.w3.org/2000/svg" width="2" x="171.15" y="145.15" fill="none" height="2" id="connector18terminal" />
 <rect xmlns="http://www.w3.org/2000/svg" width="2" x="171.15" y="119.15" fill="none" height="2" id="connector19terminal" />
 <rect xmlns="http://www.w3.org/2000/svg" width="2" x="171.15" y="93.15" fill="none" height="2" id="connector20terminal" />
 <rect xmlns="http://www.w3.org/2000/svg" width="2" x="171.15" y="67.15" fill="none" height="2" id="connector21terminal" />
 <rect xmlns="http://www.w3.org/2000/svg" width="2" x="171.15" y="41.15" fill="none" height="2" id="connector22terminal" />
 <rect xmlns="http://www.w3.org/2000/svg" width="2" x="171.15" y="15.15" fill="none" height="2" id="connector23terminal" />
 <g xmlns="http://www.w3.org/2000/svg" id="schematic" >
  <rect xmlns="http://www.w3.org/2000/svg" width="110" x="32.15" y="1.15" fill="none" height="316" stroke="#000000" stroke-linejoin="round" id="box" stroke-linecap="round" stroke-width="2.3" />
  <line xmlns="http://www.w3.org/2000/svg" fill="none" stroke="#000000" stroke-linejoin="round" id="line61" stroke-linecap="round" y1="16.15" stroke-width="2.3" x1="1.15" y2="16.15" x2="32.15" />
  <line xmlns="http://www.w3.org/2000/svg" fill="none" stroke="#000000" stroke-linejoin="round" id="line63" stroke-linecap="round" y1="42.15" stroke-width="2.3" x1="1.15" y2="42.15" x2="32.15" />
  <line xmlns="http://www.w3.org/2000/svg" fill="none" stroke="#000000" stroke-linejoin="round" id="line65" stroke-linecap="round" y1="68.15" stroke-width="2.3" x1="1.15" y2="68.15" x2="32.15" />
  <line xmlns="http://www.w3.org/2000/svg" fill="none" stroke="#000000" stroke-linejoin="round" id="line67" stroke-linecap="round" y1="94.15" stroke-width="2.3" x1="1.15" y2="94.15" x2="32.15" />
  <line xmlns="http://www.w3.org/2000/svg" fill="none" stroke="#000000" stroke-linejoin="round" id="line69" stroke-linecap="round" y1="120.15" stroke-width="2.3" x1="1.15" y2="120.15" x2="32.15" />
  <line xmlns="http://www.w3.org/2000/svg" fill="none" stroke="#000000" stroke-linejoin="round" id="line71" stroke-linecap="round" y1="146.15" stroke-width="2.3" x1="1.15" y2="146.15" x2="32.15" />
  <line xmlns="http://www.w3.org/2000/svg" fill="none" stroke="#000000" stroke-linejoin="round" id="line73" stroke-linecap="round" y1="172.15" stroke-width="2.3" x1="1.15" y2="172.15" x2="32.15" />
  <line xmlns="http://www.w3.org/2000/svg" fill="none" stroke="#000000" stroke-linejoin="round" id="line75" stroke-linecap="round" y1="198.15" stroke-width="2.3" x1="1.15" y2="198.15" x2="32.15" />
  <line xmlns="http://www.w3.org/2000/svg" fill="none" stroke="#000000" stroke-linejoin="round" id="line77" stroke-linecap="round" y1="224.15" stroke-width="2.3" x1="1.15" y2="224.15" x2="32.15" />
  <line xmlns="http://www.w3.org/2000/svg" fill="none" stroke="#000000" stroke-linejoin="round" id="line79" stroke-linecap="round" y1="250.15" stroke-width="2.3" x1="1.15" y2="250.15" x2="32.15" />
  <line xmlns="http://www.w3.org/2000/svg" fill="none" stroke="#000000" stroke-linejoin="round" id="line81" stroke-linecap="round" y1="276.15" stroke-width="2.3" x1="1.15" y2="276.15" x2="32.15" />
  <line xmlns="http://www.w3.org/2000/svg" fill="none" stroke="#000000" stroke-linejoin="round" id="line83" stroke-linecap="round" y1="302.15" stroke-width="2.3" x1="1.15" y2="302.15" x2="32.15" />
  <line xmlns="http://www.w3.org/2000/svg" fill="none" stroke="#000000" stroke-linejoin="round" id="line93" stroke-linecap="round" y1="302.15" stroke-width="2.3" x1="142.15" y2="302.15" x2="173.15" />
  <line xmlns="http://www.w3.org/2000/svg" fill="none" stroke="#000000" stroke-linejoin="round" id="line95" stroke-linecap="round" y1="276.15" stroke-width="2.3" x1="142.15" y2="276.15" x2="173.15" />
  <line xmlns="http://www.w3.org/2000/svg" fill="none" stroke="#000000" stroke-linejoin="round" id="line97" stroke-linecap="round" y1="250.15" stroke-width="2.3" x1="142.15" y2="250.15" x2="173.15" />
  <line xmlns="http://www.w3.org/2000/svg" fill="none" stroke="#000000" stroke-linejoin="round" id="line99" stroke-linecap="round" y1="224.15" stroke-width="2.3" x1="142.15" y2="224.15" x2="173.15" />
  <line xmlns="http://www.w3.org/2000/svg" fill="none" stroke="#000000" stroke-linejoin="round" id="line101" stroke-linecap="round" y1="198.15" stroke-width="2.3" x1="142.15" y2="198.15" x2="173.15" />
  <line xmlns="http://www.w3.org/2000/svg" fill="none" stroke="#000000" stroke-linejoin="round" id="line103" stroke-linecap="round" y1="172.15" stroke-width="2.3" x1="142.15" y2="172.15" x2="173.15" />
  <line xmlns="http://www.w3.org/2000/svg" fill="none" stroke="#000000" stroke-linejoin="round" id="line105" stroke-linecap="round" y1="146.15" stroke-width="2.3" x1="142.15" y2="146.15" x2="173.15" />
  <line xmlns="http://www.w3.org/2000/svg" fill="none" stroke="#000000" stroke-linejoin="round" id="line107" stroke-linecap="round" y1="120.15" stroke-width="2.3" x1="142.15" y2="120.15" x2="173.15" />
  <line xmlns="http://www.w3.org/2000/svg" fill="none" stroke="#000000" stroke-linejoin="round" id="line109" stroke-linecap="round" y1="94.15" stroke-width="2.3" x1="142.15" y2="94.15" x2="173.15" />
  <line xmlns="http://www.w3.org/2000/svg" fill="none" stroke="#000000" stroke-linejoin="round" id="line111" stroke-linecap="round" y1="68.15" stroke-width="2.3" x1="142.15" y2="68.15" x2="173.15" />
  <line xmlns="http://www.w3.org/2000/svg" fill="none" stroke="#000000" stroke-linejoin="round" id="line113" stroke-linecap="round" y1="42.15" stroke-width="2.3" x1="142.15" y2="42.15" x2="173.15" />
  <line xmlns="http://www.w3.org/2000/svg" fill="none" stroke="#000000" stroke-linejoin="round" id="line115" stroke-linecap="round" y1="16.15" stroke-width="2.3" x1="142.15" y2="16.15" x2="173.15" />
  <g xmlns="http://www.w3.org/2000/svg" id="numbersOnPins" >
   <text xmlns="http://www.w3.org/2000/svg" font-family="Droid Sans" id="text120" transform="matrix(1 0 0 1 21.3906 12.9998)" font-size="12" >1</text>
   <text xmlns="http://www.w3.org/2000/svg" font-family="Droid Sans" id="text122" transform="matrix(1 0 0 1 21.3906 38.9998)" font-size="12" >2</text>
   <text xmlns="http://www.w3.org/2000/svg" font-family="Droid Sans" id="text124" transform="matrix(1 0 0 1 21.3906 64.9998)" font-size="12" >3</text>
   <text xmlns="http://www.w3.org/2000/svg" font-family="Droid Sans" id="text126" transform="matrix(1 0 0 1 21.3906 90.9998)" font-size="12" >4</text>
   <text xmlns="http://www.w3.org/2000/svg" font-family="Droid Sans" id="text128" transform="matrix(1 0 0 1 21.3906 116.9998)" font-size="12" >5</text>
   <text xmlns="http://www.w3.org/2000/svg" font-family="Droid Sans" id="text130" transform="matrix(1 0 0 1 21.3906 142.9998)" font-size="12" >6</text>
   <text xmlns="http://www.w3.org/2000/svg" font-family="Droid Sans" id="text132" transform="matrix(1 0 0 1 21.3906 168.9998)" font-size="12" >7</text>
   <text xmlns="http://www.w3.org/2000/svg" font-family="Droid Sans" id="text134" transform="matrix(1 0 0 1 21.3906 194.9998)" font-size="12" >8</text>
   <text xmlns="http://www.w3.org/2000/svg" font-family="Droid Sans" id="text136" transform="matrix(1 0 0 1 21.3906 220.9998)" font-size="12" >9</text>
   <text xmlns="http://www.w3.org/2000/svg" font-family="Droid Sans" id="text138" transform="matrix(1 0 0 1 14.7812 246.9998)" font-size="12" >10</text>
   <text xmlns="http://www.w3.org/2000/svg" font-family="Droid Sans" id="text140" transform="matrix(1 0 0 1 14.7812 272.9998)" font-size="12" >11</text>
   <text xmlns="http://www.w3.org/2000/svg" font-family="Droid Sans" id="text142" transform="matrix(1 0 0 1 14.7812 298.9998)" font-size="12" >12</text>
   <text xmlns="http://www.w3.org/2000/svg" font-family="Droid Sans" id="text152" transform="matrix(1 0 0 1 145.9995 298.9998)" font-size="12" >13</text>
   <text xmlns="http://www.w3.org/2000/svg" font-family="Droid Sans" id="text154" transform="matrix(1 0 0 1 145.9995 272.9998)" font-size="12" >14</text>
   <text xmlns="http://www.w3.org/2000/svg" font-family="Droid Sans" id="text156" transform="matrix(1 0 0 1 145.9995 246.9998)" font-size="12" >15</text>
   <text xmlns="http://www.w3.org/2000/svg" font-family="Droid Sans" id="text158" transform="matrix(1 0 0 1 145.9995 220.9998)" font-size="12" >16</text>
   <text xmlns="http://www.w3.org/2000/svg" font-family="Droid Sans" id="text160" transform="matrix(1 0 0 1 145.9995 194.9998)" font-size="12" >17</text>
   <text xmlns="http://www.w3.org/2000/svg" font-family="Droid Sans" id="text162" transform="matrix(1 0 0 1 145.9995 168.9998)" font-size="12" >18</text>
   <text xmlns="http://www.w3.org/2000/svg" font-family="Droid Sans" id="text164" transform="matrix(1 0 0 1 145.9995 142.9998)" font-size="12" >19</text>
   <text xmlns="http://www.w3.org/2000/svg" font-family="Droid Sans" id="text166" transform="matrix(1 0 0 1 145.9995 116.9998)" font-size="12" >20</text>
   <text xmlns="http://www.w3.org/2000/svg" font-family="Droid Sans" id="text168" transform="matrix(1 0 0 1 145.9995 90.9998)" font-size="12" >21</text>
   <text xmlns="http://www.w3.org/2000/svg" font-family="Droid Sans" id="text170" transform="matrix(1 0 0 1 145.9995 64.9998)" font-size="12" >22</text>
   <text xmlns="http://www.w3.org/2000/svg" font-family="Droid Sans" id="text172" transform="matrix(1 0 0 1 145.9995 38.9998)" font-size="12" >23</text>
   <text xmlns="http://www.w3.org/2000/svg" font-family="Droid Sans" id="text174" transform="matrix(1 0 0 1 145.9995 12.9998)" font-size="12" >24</text>
  </g>
  <g xmlns="http://www.w3.org/2000/svg" id="textOnPins" />
  <text xmlns="http://www.w3.org/2000/svg" font-family="Droid Sans" transform="matrix(1 0 0 1 42.6499 173.1501)" font-size="18" >STP16DP05</text>
 </g>
</svg>
