<?xml version='1.0' encoding='UTF-8' standalone='no'?>
<!-- Created with Fritzing (http://www.fritzing.org/) -->
<svg xmlns="http://www.w3.org/2000/svg"  width="3.28136in" x="0in" version="1.2" y="0in" height="3.28136in" viewBox="0 0 236.258 236.258" baseProfile="tiny">
 <desc >Fritzing schematic generated by brd2svg</desc>
 <g  id="schematic">
  <rect  width="191.339" x="22.4598" y="22.4598" fill="none" height="191.339" stroke="#000000" stroke-linejoin="round" stroke-linecap="round" stroke-width="2.4"/>
  <text  x="118.129" y="64.9795" font-family="DroidSans" fill="#000000" text-anchor="middle" stroke="none" id="label" font-size="18">TB6612FNG</text>
  <text  x="118.129" y="86.2394" font-family="DroidSans" fill="#000000" text-anchor="middle" stroke="none" id="label" font-size="18">Breakout</text>
  <line  fill="none" stroke="#000000" stroke-linejoin="round" stroke-linecap="round" y1="64.9795" stroke-width="2.4" x1="1.2" y2="64.9795" x2="21.2599"/>
  <rect  width="21.2599" x="0" y="63.7795" fill="none" height="2.4" id="connector10pin" stroke-width="0" connectorName="A01"/>
  <rect  width="2.4" x="0" y="63.7795" fill="none" height="2.4" id="connector10terminal" stroke-width="0"/>
  <text  x="27.7399" y="67.3795" font-family="DroidSans" fill="#000000" text-anchor="start" stroke="none" id="label10" font-size="9.936">A01</text>
  <line  fill="none" stroke="#000000" stroke-linejoin="round" stroke-linecap="round" y1="86.2394" stroke-width="2.4" x1="1.2" y2="86.2394" x2="21.2599"/>
  <rect  width="21.2599" x="0" y="85.0392" fill="none" height="2.4" id="connector9pin" stroke-width="0" connectorName="A02"/>
  <rect  width="2.4" x="0" y="85.0392" fill="none" height="2.4" id="connector9terminal" stroke-width="0"/>
  <text  x="27.7399" y="88.6392" font-family="DroidSans" fill="#000000" text-anchor="start" stroke="none" id="label9" font-size="9.936">A02</text>
  <line  fill="none" stroke="#000000" stroke-linejoin="round" stroke-linecap="round" y1="107.499" stroke-width="2.4" x1="1.2" y2="107.499" x2="21.2599"/>
  <rect  width="21.2599" x="0" y="106.299" fill="none" height="2.4" id="connector16pin" stroke-width="0" connectorName="AIN1"/>
  <rect  width="2.4" x="0" y="106.299" fill="none" height="2.4" id="connector16terminal" stroke-width="0"/>
  <text  x="27.7399" y="109.899" font-family="DroidSans" fill="#000000" text-anchor="start" stroke="none" id="label16" font-size="9.936">AIN1</text>
  <line  fill="none" stroke="#000000" stroke-linejoin="round" stroke-linecap="round" y1="128.759" stroke-width="2.4" x1="1.2" y2="128.759" x2="21.2599"/>
  <rect  width="21.2599" x="0" y="127.559" fill="none" height="2.4" id="connector15pin" stroke-width="0" connectorName="AIN2"/>
  <rect  width="2.4" x="0" y="127.559" fill="none" height="2.4" id="connector15terminal" stroke-width="0"/>
  <text  x="27.7399" y="131.159" font-family="DroidSans" fill="#000000" text-anchor="start" stroke="none" id="label15" font-size="9.936">AIN2</text>
  <line  fill="none" stroke="#000000" stroke-linejoin="round" stroke-linecap="round" y1="150.019" stroke-width="2.4" x1="1.2" y2="150.019" x2="21.2599"/>
  <rect  width="21.2599" x="0" y="148.819" fill="none" height="2.4" id="connector7pin" stroke-width="0" connectorName="B01"/>
  <rect  width="2.4" x="0" y="148.819" fill="none" height="2.4" id="connector7terminal" stroke-width="0"/>
  <text  x="27.7399" y="152.419" font-family="DroidSans" fill="#000000" text-anchor="start" stroke="none" id="label7" font-size="9.936">B01</text>
  <line  fill="none" stroke="#000000" stroke-linejoin="round" stroke-linecap="round" y1="64.9795" stroke-width="2.4" x1="213.798" y2="64.9795" x2="235.058"/>
  <rect  width="21.2599" x="214.998" y="63.7795" fill="none" connectorname="STBY" height="2.4" id="connector17pin" stroke-width="0"/>
  <rect  width="2.4" x="233.858" y="63.7795" fill="none" height="2.4" id="connector17terminal" stroke-width="0"/>
  <text  x="208.518" y="67.3795" font-family="DroidSans" fill="#000000" text-anchor="end" stroke="none" id="label17" font-size="9.936">STBY</text>
  <line  fill="none" stroke="#000000" stroke-linejoin="round" stroke-linecap="round" y1="86.2394" stroke-width="2.4" x1="213.798" y2="86.2394" x2="235.058"/>
  <rect  width="21.2599" x="214.998" y="85.0392" fill="none" connectorname="PWMB" height="2.4" id="connector20pin" stroke-width="0"/>
  <rect  width="2.4" x="233.858" y="85.0392" fill="none" height="2.4" id="connector20terminal" stroke-width="0"/>
  <text  x="208.518" y="88.6392" font-family="DroidSans" fill="#000000" text-anchor="end" stroke="none" id="label20" font-size="9.936">PWMB</text>
  <line  fill="none" stroke="#000000" stroke-linejoin="round" stroke-linecap="round" y1="107.499" stroke-width="2.4" x1="213.798" y2="107.499" x2="235.058"/>
  <rect  width="21.2599" x="214.998" y="106.299" fill="none" connectorname="PWMA" height="2.4" id="connector14pin" stroke-width="0"/>
  <rect  width="2.4" x="233.858" y="106.299" fill="none" height="2.4" id="connector14terminal" stroke-width="0"/>
  <text  x="208.518" y="109.899" font-family="DroidSans" fill="#000000" text-anchor="end" stroke="none" id="label14" font-size="9.936">PWMA</text>
  <line  fill="none" stroke="#000000" stroke-linejoin="round" stroke-linecap="round" y1="128.759" stroke-width="2.4" x1="213.798" y2="128.759" x2="235.058"/>
  <rect  width="21.2599" x="214.998" y="127.559" fill="none" connectorname="BIN2" height="2.4" id="connector19pin" stroke-width="0"/>
  <rect  width="2.4" x="233.858" y="127.559" fill="none" height="2.4" id="connector19terminal" stroke-width="0"/>
  <text  x="208.518" y="131.159" font-family="DroidSans" fill="#000000" text-anchor="end" stroke="none" id="label19" font-size="9.936">BIN2</text>
  <line  fill="none" stroke="#000000" stroke-linejoin="round" stroke-linecap="round" y1="150.019" stroke-width="2.4" x1="213.798" y2="150.019" x2="235.058"/>
  <rect  width="21.2599" x="214.998" y="148.819" fill="none" connectorname="BIN1" height="2.4" id="connector18pin" stroke-width="0"/>
  <rect  width="2.4" x="233.858" y="148.819" fill="none" height="2.4" id="connector18terminal" stroke-width="0"/>
  <text  x="208.518" y="152.419" font-family="DroidSans" fill="#000000" text-anchor="end" stroke="none" id="label18" font-size="9.936">BIN1</text>
  <line  fill="none" stroke="#000000" stroke-linejoin="round" stroke-linecap="round" y1="171.279" stroke-width="2.4" x1="213.798" y2="171.279" x2="235.058"/>
  <rect  width="21.2599" x="214.998" y="170.078" fill="none" connectorname="B02" height="2.4" id="connector8pin" stroke-width="0"/>
  <rect  width="2.4" x="233.858" y="170.078" fill="none" height="2.4" id="connector8terminal" stroke-width="0"/>
  <text  x="208.518" y="173.678" font-family="DroidSans" fill="#000000" text-anchor="end" stroke="none" id="label8" font-size="9.936">B02</text>
  <line  fill="none" stroke="#000000" stroke-linejoin="round" stroke-linecap="round" y1="1.2" stroke-width="2.4" x1="107.499" y2="21.2599" x2="107.499"/>
  <rect  width="2.4" x="106.299" y="0" fill="none" connectorname="VCC" height="21.2599" id="connector12pin" stroke-width="0"/>
  <rect  width="2.4" x="106.299" y="0" fill="none" height="0" id="connector12terminal" stroke-width="0"/>
  <text  x="107.499" y="33.8599" font-family="DroidSans" fill="#000000" text-anchor="middle" stroke="none" id="label12" font-size="9.936">VCC</text>
  <line  fill="none" stroke="#000000" stroke-linejoin="round" stroke-linecap="round" y1="1.2" stroke-width="2.4" x1="128.759" y2="21.2599" x2="128.759"/>
  <rect  width="2.4" x="127.559" y="0" fill="none" connectorname="VM" height="21.2599" id="connector13pin" stroke-width="0"/>
  <rect  width="2.4" x="127.559" y="0" fill="none" height="0" id="connector13terminal" stroke-width="0"/>
  <text  x="128.759" y="33.8599" font-family="DroidSans" fill="#000000" text-anchor="middle" stroke="none" id="label13" font-size="9.936">VM</text>
  <line  fill="none" stroke="#000000" stroke-linejoin="round" stroke-linecap="round" y1="214.998" stroke-width="2.4" x1="118.129" y2="235.058" x2="118.129"/>
  <rect  width="2.4" x="116.929" y="214.998" fill="none" connectorname="GND" height="21.2599" id="connector6pin" stroke-width="0"/>
  <rect  width="2.4" x="116.929" y="236.258" fill="none" height="0" id="connector6terminal" stroke-width="0"/>
  <text  x="118.129" y="209.238" font-family="DroidSans" fill="#000000" text-anchor="middle" stroke="none" id="label6" font-size="9.936">GND</text>
  <rect  width="2.4" x="116.929" y="214.998" fill="none" connectorname="GND" height="21.2599" id="connector11pin" stroke-width="0"/>
  <rect  width="2.4" x="116.929" y="236.258" fill="none" height="0" id="connector11terminal" stroke-width="0"/>
  <rect  width="2.4" x="116.929" y="214.998" fill="none" connectorname="GND" height="21.2599" id="connector21pin" stroke-width="0"/>
  <rect  width="2.4" x="116.929" y="236.258" fill="none" height="0" id="connector21terminal" stroke-width="0"/>
 </g>
</svg>
