<?xml version="1.0" encoding="utf-8"?>
<!-- Generator: Adobe Illustrator 16.0.0, SVG Export Plug-In . SVG Version: 6.00 Build 0)  -->
<!DOCTYPE svg PUBLIC "-//W3C//DTD SVG 1.1//EN" "http://www.w3.org/Graphics/SVG/1.1/DTD/svg11.dtd">
<svg version="1.1" id="svg2" xmlns:xml="http://www.w3.org/XML/1998/namespace"
	 xmlns="http://www.w3.org/2000/svg" xmlns:xlink="http://www.w3.org/1999/xlink" x="0px" y="0px" width="29.083px"
	 height="27.331px" viewBox="0 0 29.083 27.331" enable-background="new 0 0 29.083 27.331" xml:space="preserve">
<g id="schematic">
	
		<line fill="none" stroke="#000000" stroke-width="0.75" stroke-linecap="round" stroke-miterlimit="10" x1="21.865" y1="9.394" x2="15.855" y2="9.394"/>
	
		<line fill="none" stroke="#000000" stroke-width="0.75" stroke-linecap="round" stroke-miterlimit="10" x1="10.271" y1="9.394" x2="5.438" y2="9.394"/>
	<polyline fill="none" stroke="#000000" stroke-width="0.9" stroke-linecap="round" points="15.922,18.112 11.698,20.397 
		9.968,20.397 	"/>
	<rect id="connector5terminal" x="28.764" y="9.363" width="0.062" height="0.062"/>
	<polygon id="connector4terminal" fill="none" points="0,8.986 2.418,9.013 2.391,9.728 0,9.755 	"/>
	<rect id="connector3terminal" x="28.736" y="16.473" width="0.164" height="0.206"/>
	<rect id="connector2terminal" x="28.736" y="23.539" width="0.164" height="0.207"/>
	<polygon id="connector1terminal" fill="none" points="0,16.235 2.432,16.251 2.405,16.911 0,16.867 	"/>
	<rect id="connector0terminal" x="0" y="23.275" fill="none" width="2.418" height="0.742"/>
	
		<line id="connector5pin" fill="none" stroke="#787878" stroke-width="0.75" stroke-linecap="round" stroke-linejoin="round" stroke-miterlimit="10" x1="21.865" y1="9.394" x2="28.764" y2="9.394"/>
	<line fill="none" stroke="#000000" stroke-width="0.9" stroke-linecap="round" x1="15.811" y1="6.288" x2="15.811" y2="12.5"/>
	
		<line id="connector4pin" fill="none" stroke="#787878" stroke-width="0.75" stroke-linecap="round" stroke-linejoin="round" stroke-miterlimit="10" x1="0.4" y1="9.367" x2="6.646" y2="9.367"/>
	<polygon fill="none" stroke="#000000" stroke-width="0.9" stroke-linecap="round" stroke-linejoin="round" points="15.798,9.394 
		13.078,10.963 10.359,12.535 10.359,9.394 10.359,6.253 13.078,7.823 	"/>
	<path d="M17.441,4.318l-0.607-0.763l-0.349-0.437l-0.26-0.326l2.856-1.032L17.441,4.318L17.441,4.318z"/>
	<path d="M18.929,6.271l-0.608-0.762l-0.348-0.437l-0.259-0.326l2.856-1.034L18.929,6.271L18.929,6.271z"/>
	<line fill="none" stroke="#000000" stroke-width="0.9" stroke-linecap="round" x1="14.588" y1="5.36" x2="17.714" y2="2.776"/>
	<line fill="none" stroke="#000000" stroke-width="0.9" stroke-linecap="round" x1="16.962" y1="6.652" x2="18.969" y2="4.992"/>
	
		<line id="connector2pin" fill="none" stroke="#787878" stroke-width="0.75" stroke-linecap="round" stroke-linejoin="round" stroke-miterlimit="10" x1="21.605" y1="23.646" x2="28.726" y2="23.646"/>
	<polyline fill="none" stroke="#000000" stroke-width="0.75" stroke-linejoin="round" stroke-miterlimit="10" points="
		21.605,16.581 18.506,16.581 18.506,23.646 21.605,23.646 	"/>
	
		<line id="connector3pin" fill="none" stroke="#787878" stroke-width="0.75" stroke-linecap="round" stroke-linejoin="round" stroke-miterlimit="10" x1="28.726" y1="16.581" x2="21.896" y2="16.581"/>
	<line fill="none" stroke="#000000" stroke-width="0.9" stroke-linecap="round" x1="16.279" y1="20.397" x2="18.506" y2="20.397"/>
	
		<line id="connector1pin" fill="none" stroke="#787878" stroke-width="0.75" stroke-linecap="round" stroke-linejoin="round" stroke-miterlimit="10" x1="6.813" y1="16.58" x2="0.4" y2="16.577"/>
	<polyline fill="none" stroke="#000000" stroke-width="0.75" stroke-linejoin="round" stroke-miterlimit="10" points="6.815,23.645 
		9.968,23.646 9.968,16.581 6.813,16.58 	"/>
	
		<line id="connector0pin" fill="none" stroke="#787878" stroke-width="0.75" stroke-linecap="round" stroke-linejoin="round" stroke-miterlimit="10" x1="0.4" y1="23.643" x2="6.605" y2="23.645"/>
	<text transform="matrix(1 0 0 1 7.2468 22.7568)" font-family="'DroidSans'" font-size="2.9816">1</text>
	<text transform="matrix(1 0 0 1 7.2468 15.6821)" font-family="'DroidSans'" font-size="2.9816">2</text>
	<text transform="matrix(1 0 0 1 7.2468 8.5093)" font-family="'DroidSans'" font-size="2.9816">5</text>
	<text transform="matrix(1 0 0 1 19.6248 22.7568)" font-family="'DroidSans'" font-size="2.9816">3</text>
	<text transform="matrix(1 0 0 1 19.6248 15.6821)" font-family="'DroidSans'" font-size="2.9816">4</text>
	<text transform="matrix(1 0 0 1 19.6248 8.5093)" font-family="'DroidSans'" font-size="2.9816">6</text>
	<line fill="none" stroke="#000000" stroke-width="0.9" stroke-linecap="round" x1="6.651" y1="0.428" x2="21.865" y2="0.428"/>
	
		<rect x="6.651" y="0.428" fill="none" stroke="#000000" stroke-width="0.9" stroke-linecap="round" stroke-linejoin="round" width="15.245" height="26.479"/>
</g>
</svg>
