<?xml version='1.0' encoding='UTF-8' standalone='no'?>
<svg xmlns="http://www.w3.org/2000/svg" width="91.571526" x="0px" version="1.0" y="0px" height="72.074844" viewBox="0 0 91.321526 71.393997" id="svg2">
 <metadata  id="metadata5799">
  <rdf:RDF xmlns:rdf="http://www.w3.org/1999/02/22-rdf-syntax-ns#">
   <cc:Work xmlns:cc="http://creativecommons.org/ns#" rdf:about="" xmlns:rdf="http://www.w3.org/1999/02/22-rdf-syntax-ns#">
    <dc:format xmlns:dc="http://purl.org/dc/elements/1.1/">image/svg+xml</dc:format>
    <dc:type xmlns:dc="http://purl.org/dc/elements/1.1/" rdf:resource="http://purl.org/dc/dcmitype/StillImage" xmlns:rdf="http://www.w3.org/1999/02/22-rdf-syntax-ns#"/>
    <dc:title xmlns:dc="http://purl.org/dc/elements/1.1/"/>
   </cc:Work>
  </rdf:RDF>
 </metadata>
 <defs  id="defs5797"/>
 <sodipodi:namedview xmlns:sodipodi="http://sodipodi.sourceforge.net/DTD/sodipodi-0.dtd" showgrid="false" objecttolerance="10" pagecolor="#ffffff" bordercolor="#666666" id="namedview5795" borderopacity="1" guidetolerance="10" gridtolerance="10"/>
 <g  id="g5921">
  <line  style="fill:none;stroke:#000000;stroke-width:2;stroke-linecap:round;stroke-linejoin:round" id="connector0pin" y1="27.229061" x1="23.25" y2="27.229061" x2="1"/>
  <rect  width="1" x="0" y="26.072001" height="2" style="fill:none" id="connector0terminal"/>
  <line  style="fill:none;stroke:#000000;stroke-width:2;stroke-linecap:round;stroke-linejoin:round" id="connector1pin" y1="71.393997" y2="48.394001" x1="45.910091" x2="45.910091"/>
  <rect  width="2" x="44.910091" y="71" height="1" style="fill:none" id="connector1terminal"/>
  <line  style="fill:none;stroke:#000000;stroke-width:2;stroke-linecap:round;stroke-linejoin:round" id="connector2pin" y1="27.229061" y2="27.229061" x1="91.321526" x2="68.321526"/>
  <rect  width="1" x="91" y="26.072001" height="2" style="fill:none" id="connector2terminal"/>
  <rect  width="43.957275" x="24.068684" y="8.8279991" height="38.957275" style="fill:none;stroke:#000000;stroke-width:2;stroke-linecap:round;stroke-linejoin:round;stroke-miterlimit:4;stroke-dasharray:none" id="rect17"/>
  <path  style="font-size:8px;font-style:normal;font-weight:normal;fill:#000000;fill-opacity:1;stroke:none;font-family:DroidSans" id="text3320" d="m 58.851396,24.475793 0.789062,0 0,5.832031 -0.789062,0 0,-5.832031 m 2.359375,0 1.0625,0 2.585937,4.878906 0,-4.878906 0.765625,0 0,5.832031 -1.0625,0 -2.585937,-4.878906 0,4.878906 -0.765625,0 0,-5.832031"/>
  <path  style="font-size:8px;font-style:normal;font-weight:normal;fill:#000000;fill-opacity:1;stroke:none;font-family:DroidSans" id="text3324" d="m 39.667483,39.821093 c -0.572919,5e-6 -1.028648,0.213546 -1.367188,0.640625 -0.335939,0.427087 -0.503907,1.009118 -0.503906,1.746093 -10e-7,0.734378 0.167967,1.315106 0.503906,1.742188 0.33854,0.427084 0.794269,0.640625 1.367188,0.640625 0.572913,0 1.026037,-0.213541 1.359375,-0.640625 0.335933,-0.427082 0.503901,-1.00781 0.503906,-1.742188 -5e-6,-0.736975 -0.167973,-1.319006 -0.503906,-1.746093 -0.333338,-0.427079 -0.786462,-0.64062 -1.359375,-0.640625 m 0,-0.640625 c 0.817704,6e-6 1.471349,0.274745 1.960937,0.824218 0.489578,0.54688 0.73437,1.281254 0.734375,2.203125 -5e-6,0.919273 -0.244797,1.653648 -0.734375,2.203125 -0.489588,0.546876 -1.143233,0.820313 -1.960937,0.820313 -0.820315,0 -1.476564,-0.273437 -1.96875,-0.820313 -0.489584,-0.546873 -0.734376,-1.281248 -0.734375,-2.203125 -10e-7,-0.921871 0.244791,-1.656245 0.734375,-2.203125 0.492186,-0.549473 1.148435,-0.824212 1.96875,-0.824218 m 3.839844,0.105468 0.792968,0 0,3.542969 c -10e-7,0.625002 0.11328,1.075522 0.339844,1.351563 0.226561,0.273438 0.593748,0.410156 1.101563,0.410156 0.505205,0 0.87109,-0.136718 1.097656,-0.410156 0.226558,-0.276041 0.339839,-0.726561 0.339844,-1.351563 l 0,-3.542969 0.792968,0 0,3.640625 c -5e-6,0.760419 -0.188807,1.334637 -0.566406,1.722657 -0.375004,0.388021 -0.929691,0.582031 -1.664062,0.582031 -0.736982,0 -1.294273,-0.19401 -1.671875,-0.582031 -0.375001,-0.38802 -0.562501,-0.962238 -0.5625,-1.722657 l 0,-3.640625 m 5.140625,0 4.933593,0 0,0.664063 -2.070312,0 0,5.167969 -0.792969,0 0,-5.167969 -2.070312,0 0,-0.664063"/>
  <path  style="font-size:8px;font-style:normal;font-weight:normal;fill:#000000;fill-opacity:1;stroke:none;font-family:DroidSans" id="text2638" d="m 29.432744,25.006947 -1.070312,2.902344 2.144531,0 -1.074219,-2.902344 m -0.445312,-0.777344 0.894531,0 2.222656,5.832031 -0.820312,0 -0.53125,-1.496093 -2.628907,0 -0.53125,1.496093 -0.832031,0 2.226563,-5.832031 m 4.753906,0.648438 0,4.535156 0.953125,0 c 0.804684,1e-6 1.393225,-0.182291 1.765625,-0.546875 0.374995,-0.364582 0.562495,-0.940102 0.5625,-1.726563 -5e-6,-0.781246 -0.187505,-1.35286 -0.5625,-1.714843 -0.3724,-0.364579 -0.960941,-0.54687 -1.765625,-0.546875 l -0.953125,0 m -0.789063,-0.648438 1.621094,0 c 1.130205,6e-6 1.959631,0.235683 2.488281,0.707031 0.528641,0.468755 0.792963,1.203129 0.792969,2.203125 -6e-6,1.005211 -0.26563,1.743491 -0.796875,2.214844 -0.531254,0.471355 -1.359378,0.707031 -2.484375,0.707031 l -1.621094,0 0,-5.832031 m 6.15625,0 0.789063,0 0,5.425781 c -2e-6,0.703125 -0.134116,1.213541 -0.402344,1.53125 -0.265626,0.317707 -0.694011,0.476561 -1.285156,0.476563 l -0.300781,0 0,-0.664063 0.246093,0 c 0.348958,0 0.595052,-0.09766 0.738282,-0.292968 0.143228,-0.195313 0.214843,-0.545573 0.214843,-1.050782 l 0,-5.425781"/>
  <g style="font-size:5.93216467px;font-style:normal;font-weight:normal;line-height:125%;letter-spacing:0px;word-spacing:0px;fill:#000000;fill-opacity:1;stroke:none;font-family:Sans" id="text5917" xml:space="preserve">
   <text x="34.815269" y="14.944048" id="tspan5919">LT1086</text>
  </g>
 </g>
</svg>
