<?xml version='1.0' encoding='utf-8'?>
<!DOCTYPE svg PUBLIC '-//W3C//DTD SVG 1.1//EN' 'http://www.w3.org/Graphics/SVG/1.1/DTD/svg11.dtd'>
<svg width="0.80in" x="0px" version="1.1" y="0px" xmlns="http://www.w3.org/2000/svg" height="0.33in" viewBox="0 0 57.6 23.76" xmlns:xlink="http://www.w3.org/1999/xlink" id="svg2" enable-background="new 0 0 57.6 23.76" xml:space="preserve">
 <rect width="2.16" x="2.52" y="20.636" fill="none" height="3.124" id="connector0pin"/>
 <rect width="2.16" x="9.72" y="20.636" fill="none" height="3.124" id="connector1pin"/>
 <rect width="2.159" x="16.92" y="20.636" fill="none" height="3.124"/>
 <rect width="2.16" x="24.119" y="20.636" fill="none" height="3.124" id="connector3pin"/>
 <rect width="2.16" x="31.319" y="20.636" fill="none" height="3.124" id="connector4pin"/>
 <rect width="2.159" x="38.521" y="20.636" fill="none" height="3.124" id="connector5pin"/>
 <rect width="2.16" x="45.719" y="20.636" fill="none" height="3.124" id="connector6pin"/>
 <rect width="2.16" x="52.919" y="20.636" fill="none" height="3.124"/>
 <rect width="2.16" x="52.919" y="0" fill="none" height="3.125" id="connector8pin"/>
 <rect width="2.16" x="45.719" y="0" fill="none" height="3.125" id="connector9pin"/>
 <rect width="2.159" x="38.521" y="0" fill="none" height="3.125" id="connector10pin"/>
 <rect width="2.16" x="31.319" y="0" fill="none" height="3.125" id="connector11pin"/>
 <rect width="2.16" x="24.119" y="0" fill="none" height="3.125" id="connector12pin"/>
 <rect width="2.159" x="16.92" y="0" fill="none" height="3.125" id="connector13pin"/>
 <rect width="2.16" x="9.72" y="0" fill="none" height="3.125" id="connector14pin"/>
 <rect width="2.16" x="2.52" y="0" fill="none" height="3.125" id="connector15pin"/>
 <rect width="2.16" x="2.52" y="21.601" fill="none" height="2.159" id="connector0terminal"/>
 <rect width="2.16" x="9.72" y="21.601" fill="none" height="2.159" id="connector1terminal"/>
 <rect width="2.159" x="16.92" y="21.601" fill="none" height="2.159"/>
 <rect width="2.16" x="24.119" y="21.601" fill="none" height="2.159" id="connector3terminal"/>
 <rect width="2.16" x="31.319" y="21.601" fill="none" height="2.159" id="connector4terminal"/>
 <rect width="2.159" x="38.521" y="21.601" fill="none" height="2.159" id="connector5terminal"/>
 <rect width="2.16" x="45.719" y="21.601" fill="none" height="2.159" id="connector6terminal"/>
 <rect width="2.16" x="52.919" y="21.601" fill="none" height="2.159"/>
 <rect width="2.16" x="52.919" y="0" fill="none" height="2.16" id="connector8terminal"/>
 <rect width="2.16" x="45.719" y="0" fill="none" height="2.16" id="connector9terminal"/>
 <rect width="2.159" x="38.521" y="0" fill="none" height="2.16" id="connector10terminal"/>
 <rect width="2.16" x="31.319" y="0" fill="none" height="2.16" id="connector11terminal"/>
 <rect width="2.16" x="24.119" y="0" fill="none" height="2.16" id="connector12terminal"/>
 <rect width="2.159" x="16.92" y="0" fill="none" height="2.16" id="connector13terminal"/>
 <rect width="2.16" x="9.72" y="0" fill="none" height="2.16" id="connector14terminal"/>
 <rect width="2.16" x="2.52" y="0" fill="none" height="2.16" id="connector15terminal"/>
 <g id="breadboard">
  <rect width="2.16" x="2.52" y="18.949" fill="#8C8C8C" height="4.811"/>
  <rect width="2.16" x="9.72" y="18.949" fill="#8C8C8C" height="4.811"/>
  <rect width="2.159" x="16.92" y="18.949" fill="#8C8C8C" height="4.811"/>
  <rect width="2.16" x="24.119" y="18.949" fill="#8C8C8C" height="4.811"/>
  <rect width="2.16" x="31.319" y="18.949" fill="#8C8C8C" height="4.811"/>
  <rect width="2.159" x="38.521" y="18.949" fill="#8C8C8C" height="4.811"/>
  <rect width="2.16" x="45.719" y="18.949" fill="#8C8C8C" height="4.811"/>
  <rect width="2.16" x="52.919" y="18.949" fill="#8C8C8C" height="4.811"/>
  <rect width="2.16" x="52.919" y="0" fill="#8C8C8C" height="4.81"/>
  <rect width="2.16" x="45.719" y="0" fill="#8C8C8C" height="4.81"/>
  <rect width="2.159" x="38.521" y="0" fill="#8C8C8C" height="4.81"/>
  <rect width="2.16" x="31.319" y="0" fill="#8C8C8C" height="4.81"/>
  <rect width="2.16" x="24.119" y="0" fill="#8C8C8C" height="4.81"/>
  <rect width="2.159" x="16.92" y="0" fill="#8C8C8C" height="4.81"/>
  <rect width="2.16" x="9.72" y="0" fill="#8C8C8C" height="4.81"/>
  <rect width="2.16" x="2.52" y="0" fill="#8C8C8C" height="4.81"/>
  <polygon fill="#3D3D3D" points="0,2.16 57.6,2.16 57.059,8.281 0,8.281 "/>
  <polygon points="0,15.479 57.059,15.479 57.6,21.601 0,21.601 "/>
  <polygon fill="#8C8C8C" points="6.12,3.125 6.12,2.347 4.68,1.685 2.52,1.685 2.52,3.125 "/>
  <polygon fill="#8C8C8C" points="55.079,3.125 55.079,1.685 52.919,1.685 51.478,2.347 51.478,3.125 "/>
  <polygon fill="#8C8C8C" points="2.52,20.636 2.52,22.074 4.68,22.074 6.12,21.412 6.12,20.636 "/>
  <polygon fill="#8C8C8C" points="51.478,20.636 51.478,21.412 52.919,22.074 55.079,22.074 55.079,20.636 "/>
  <polygon fill="#8C8C8C" points="13.32,3.125 13.32,2.347 11.88,1.685 9.72,1.685 8.28,2.347 8.28,3.125 "/>
  <polygon fill="#8C8C8C" points="8.28,20.636 8.28,21.412 9.72,22.074 11.88,22.074 13.32,21.412 13.32,20.636 "/>
  <polygon fill="#8C8C8C" points="20.52,3.125 20.52,2.347 19.079,1.685 16.92,1.685 15.48,2.347 15.48,3.125 "/>
  <polygon fill="#8C8C8C" points="15.48,20.636 15.48,21.412 16.92,22.074 19.079,22.074 20.52,21.412 20.52,20.636 "/>
  <polygon fill="#8C8C8C" points="27.72,3.125 27.72,2.347 26.28,1.685 24.119,1.685 22.68,2.347 22.68,3.125 "/>
  <polygon fill="#8C8C8C" points="22.68,20.636 22.68,21.412 24.119,22.074 26.28,22.074 27.72,21.412 27.72,20.636 "/>
  <polygon fill="#8C8C8C" points="34.919,3.125 34.919,2.347 33.479,1.685 31.319,1.685 29.879,2.347 29.879,3.125 "/>
  <polygon fill="#8C8C8C" points="29.879,20.636 29.879,21.412 31.319,22.074 33.479,22.074 34.919,21.412 34.919,20.636 "/>
  <polygon fill="#8C8C8C" points="42.119,3.125 42.119,2.347 40.68,1.685 38.521,1.685 37.079,2.347 37.079,3.125 "/>
  <polygon fill="#8C8C8C" points="37.079,20.636 37.079,21.412 38.521,22.074 40.68,22.074 42.119,21.412 42.119,20.636 "/>
  <polygon fill="#8C8C8C" points="49.319,3.125 49.319,2.347 47.879,1.685 45.719,1.685 44.28,2.347 44.28,3.125 "/>
  <polygon fill="#8C8C8C" points="44.28,20.636 44.28,21.412 45.719,22.074 47.879,22.074 49.319,21.412 49.319,20.636 "/>
  <polygon fill="#141414" points="57.6,2.16 57.059,3.931 56.053,3.931 56.053,19.821 57.059,19.828 57.6,21.601 "/>
  <polygon fill="#1F1F1F" points="0,2.16 0.54,3.931 0.54,8.281 3.6,8.281 3.6,15.479 0.54,15.479 0.54,19.828 0,21.601 "/>
  <polygon fill="#1C1C1C" points="3.6,8.281 0.54,8.281 0.403,9.792 0.403,11.88 3.6,11.88 "/>
  <polygon fill="#383838" points="0.54,15.479 3.6,15.479 3.6,11.88 0.403,11.88 0.403,13.968 "/>
  <path fill="#303030" d="M0.54,3.931v4.32c1.713,0.324,3.017,1.822,3.017,3.629s-1.296,3.313-3.017,3.637v4.319h56.519V3.931H0.54z"/>
  <path fill="#262626" d="M0.403,9.792v4.196c1.059-0.121,1.887-1.008,1.887-2.102C2.29,10.8,1.469,9.9,0.403,9.792z"/>
  <circle fill="#212121" cx="4.68" cy="16.898" r="1.483"/>
 </g>
 <rect width="32.372" x="6.494" y="9.792" fill="none" height="5.95"/>
 <text fill="#E5E5E5" font-family="OCRA" transform="matrix(1 0 0 1 6.4939 14.0374)" font-size="5.76">74HC47</text>
 <rect width="0.002" x="54.08096152577036" y="22.63070148951033" fill="none" height="0.002" id="connector7terminal"/>
 <rect width="2.067970343997604" x="16.91748251748249" y="19.98501772860736" fill="none" height="3.235478198600413"/>
 <rect width="2.160000000000002" x="52.919" y="20.55242683242685" fill="none" height="3.05037037037037" id="connector7pin"/>
 <rect width="0.002" x="17.06634725910816" y="20.65965544742747" fill="none" height="0.002"/>
 <rect width="2.067970343997604" x="17.0678741623911" y="20.11555695436894" fill="none" height="3.159221136680537"/>
 <rect width="1.951541610169352" x="16.92861122032514" y="20.12222104659481" fill="none" height="3.024889495762499"/>
 <rect width="2.115643562226432" x="16.78955613577023" y="20.08899922923151" fill="none" height="3.091820830253118"/>
 <rect width="2.262210267100682" x="16.7686684073107" y="20.32271540469974" fill="none" height="2.966399267205452" id="connector2"/>
</svg>
