<?xml version="1.0" encoding="UTF-8" standalone="no"?>
<svg
   xmlns:dc="http://purl.org/dc/elements/1.1/"
   xmlns:cc="http://creativecommons.org/ns#"
   xmlns:rdf="http://www.w3.org/1999/02/22-rdf-syntax-ns#"
   xmlns:svg="http://www.w3.org/2000/svg"
   xmlns="http://www.w3.org/2000/svg"
   xmlns:sodipodi="http://sodipodi.sourceforge.net/DTD/sodipodi-0.dtd"
   xmlns:inkscape="http://www.inkscape.org/namespaces/inkscape"
   width="0.8in"
   version="1.2"
   height="0.33in"
   viewBox="0 0 80 33"
   id="0"
   inkscape:version="0.48.4 r9939"
   sodipodi:docname="svg.breadboard.generic_ic_dip_16_300mil_bread.svg_a4918f876081fd9956d4ed824b6008ed_breadboard.svg">
  <metadata
     id="metadata3125">
    <rdf:RDF>
      <cc:Work
         rdf:about="">
        <dc:format>image/svg+xml</dc:format>
        <dc:type
           rdf:resource="http://purl.org/dc/dcmitype/StillImage" />
      </cc:Work>
    </rdf:RDF>
  </metadata>
  <defs
     id="defs3123" />
  <sodipodi:namedview
     pagecolor="#ffffff"
     bordercolor="#666666"
     borderopacity="1"
     objecttolerance="10"
     gridtolerance="10"
     guidetolerance="10"
     inkscape:pageopacity="0"
     inkscape:pageshadow="2"
     inkscape:window-width="640"
     inkscape:window-height="480"
     id="namedview3121"
     showgrid="false"
     inkscape:zoom="4.3888889"
     inkscape:cx="36"
     inkscape:cy="14.85"
     inkscape:window-x="2876"
     inkscape:window-y="56"
     inkscape:window-maximized="0"
     inkscape:current-layer="breadboard" />
  <desc
     id="desc3057">
    <referenceFile
       id="referenceFile3059">generic_ic_dip_16_300mil_bread.svg</referenceFile>
  </desc>
  <g
     id="breadboard">
    <rect
       width="80"
       x="0"
       y="3"
       height="27"
       id="middle"
       style="fill:#dbd6ba" />
    <rect
       width="80"
       x="0"
       y="3"
       height="2.46"
       id="top"
       style="fill:#f0eacc" />
    <rect
       width="80"
       x="0"
       y="27.540001"
       height="2.46"
       id="bottom"
       style="fill:#c2bda5" />
    <polygon
       points="79.25,5.46 79.25,27.54 80,30 80,3 "
       id="right"
       style="fill:#c9c4ab" />
    <polygon
       points="0.75,5.46 0.75,27.54 0,30 0,3 "
       id="left"
       style="fill:#d6d2b6" />
    <polygon
       points="0.75,11.46 0.56,13.58 0.56,16.5 5,16.5 5,11.5 "
       id="left-upper-rect"
       style="fill:#c4bfa6" />
    <polygon
       points="5,21.55 5,16.5 0.56,16.5 0.56,19.42 0.75,21.55 "
       id="left-lower-rect"
       style="fill:#e6e0c3" />
    <path
       id="slot"
       d="m 0.56,13.58 v 5.83 c 1.47,-0.17 2.62,-1.4 2.62,-2.92 0,-1.52 -1.14,-2.74 -2.62,-2.91 z"
       inkscape:connector-curvature="0"
       style="fill:#ccc7ad" />
    <path
       id="cover"
       d="m 0.75,5.46 v 5.99 c 2.38,0.45 4.19,2.53 4.19,5.04 0,2.51 -1.8,4.6 -4.19,5.05 v 0.01 h 5 V 5.46 h -5 z"
       inkscape:connector-curvature="0"
       style="fill:#dbd6ba" />
    <circle
       cx="6.5"
       cy="23.469999"
       r="2.0599999"
       id="0.0.9"
       sodipodi:cx="6.5"
       sodipodi:cy="23.469999"
       sodipodi:rx="2.0599999"
       sodipodi:ry="2.0599999"
       style="fill:#c4bfa6" />
    <text
       x="6.5"
       y="16.5"
       id="label"
       font-size="8"
       style="font-size:8px;text-anchor:start;fill:#000000;stroke:none;font-family:OCRA">CNY74-4</text>
    <rect
       width="3"
       x="3.5"
       y="28.66"
       fill="#8C8C8C"
       height="4.34"
       id="connector0pin" />
    <rect
       width="3"
       x="3.5"
       y="30"
       fill="#8C8C8C"
       height="3"
       id="connector0terminal" />
    <polygon
       fill="#8C8C8C"
       points="3.5,28.66 3.5,30.66 6.5,30.66 8.5,29.74 8.5,28.66 "
       id="0.0.13" />
    <rect
       width="3"
       x="3.5"
       fill="#8C8C8C"
       height="4.34"
       id="connector15pin" />
    <rect
       width="3"
       x="3.5"
       fill="#8C8C8C"
       height="3"
       id="connector15terminal" />
    <polygon
       fill="#8C8C8C"
       points="8.5,4.34 8.5,3.26 6.5,2.34 3.5,2.34 3.5,4.34"
       id="0.0.16" />
    <rect
       width="3"
       x="73.5"
       y="28.66"
       fill="#8C8C8C"
       height="4.34"
       id="connector7pin" />
    <rect
       width="3"
       x="73.5"
       y="30"
       fill="#8C8C8C"
       height="3"
       id="connector7terminal" />
    <polygon
       fill="#8C8C8C"
       points="71.5,28.66 71.5,29.74 73.5,30.66 76.5,30.66 76.5,28.66"
       id="0.0.19" />
    <rect
       width="3"
       x="73.5"
       y="0"
       fill="#8C8C8C"
       height="4.34"
       id="connector8pin" />
    <rect
       width="3"
       x="73.5"
       y="0"
       fill="#8C8C8C"
       height="3"
       id="connector8terminal" />
    <polygon
       fill="#8C8C8C"
       points="76.5,4.34 76.5,2.34 73.5,2.34 71.5,3.26 71.5,4.34 "
       id="0.0.22" />
    <rect
       width="3"
       x="13.5"
       y="0"
       fill="#8C8C8C"
       height="4.34"
       id="connector14pin" />
    <rect
       width="3"
       x="13.5"
       fill="#8C8C8C"
       height="3"
       id="connector14terminal" />
    <polygon
       fill="#8C8C8C"
       points="18.5,4.34 18.5,3.26 16.5,2.34 13.5,2.34 11.5,3.26 11.5,4.34"
       id="0.0.25" />
    <rect
       width="3"
       x="23.5"
       y="0"
       fill="#8C8C8C"
       height="4.34"
       id="connector13pin" />
    <rect
       width="3"
       x="23.5"
       fill="#8C8C8C"
       height="3"
       id="connector13terminal" />
    <polygon
       fill="#8C8C8C"
       points="28.5,4.34 28.5,3.26 26.5,2.34 23.5,2.34 21.5,3.26 21.5,4.34"
       id="0.0.28" />
    <rect
       width="3"
       x="33.5"
       y="0"
       fill="#8C8C8C"
       height="4.34"
       id="connector12pin" />
    <rect
       width="3"
       x="33.5"
       fill="#8C8C8C"
       height="3"
       id="connector12terminal" />
    <polygon
       fill="#8C8C8C"
       points="38.5,4.34 38.5,3.26 36.5,2.34 33.5,2.34 31.5,3.26 31.5,4.34"
       id="0.0.31" />
    <rect
       width="3"
       x="43.5"
       y="0"
       fill="#8C8C8C"
       height="4.34"
       id="connector11pin" />
    <rect
       width="3"
       x="43.5"
       fill="#8C8C8C"
       height="3"
       id="connector11terminal" />
    <polygon
       fill="#8C8C8C"
       points="48.5,4.34 48.5,3.26 46.5,2.34 43.5,2.34 41.5,3.26 41.5,4.34"
       id="0.0.34" />
    <rect
       width="3"
       x="53.5"
       y="0"
       fill="#8C8C8C"
       height="4.34"
       id="connector10pin" />
    <rect
       width="3"
       x="53.5"
       fill="#8C8C8C"
       height="3"
       id="connector10terminal" />
    <polygon
       fill="#8C8C8C"
       points="58.5,4.34 58.5,3.26 56.5,2.34 53.5,2.34 51.5,3.26 51.5,4.34"
       id="0.0.37" />
    <rect
       width="3"
       x="63.5"
       y="0"
       fill="#8C8C8C"
       height="4.34"
       id="connector9pin" />
    <rect
       width="3"
       x="63.5"
       fill="#8C8C8C"
       height="3"
       id="connector9terminal" />
    <polygon
       fill="#8C8C8C"
       points="68.5,4.34 68.5,3.26 66.5,2.34 63.5,2.34 61.5,3.26 61.5,4.34"
       id="0.0.40" />
    <rect
       width="3"
       x="13.5"
       y="28.66"
       fill="#8C8C8C"
       height="4.34"
       id="connector1pin" />
    <rect
       width="3"
       x="13.5"
       y="30"
       fill="#8C8C8C"
       height="3"
       id="connector1terminal" />
    <polygon
       fill="#8C8C8C"
       points="11.5,28.66 11.5,29.74 13.5,30.66 16.5,30.66 18.5,29.74 18.5,28.66"
       id="0.0.43" />
    <rect
       width="3"
       x="23.5"
       y="28.66"
       fill="#8C8C8C"
       height="4.34"
       id="connector2pin" />
    <rect
       width="3"
       x="23.5"
       y="30"
       fill="#8C8C8C"
       height="3"
       id="connector2terminal" />
    <polygon
       fill="#8C8C8C"
       points="21.5,28.66 21.5,29.74 23.5,30.66 26.5,30.66 28.5,29.74 28.5,28.66"
       id="0.0.46" />
    <rect
       width="3"
       x="33.5"
       y="28.66"
       fill="#8C8C8C"
       height="4.34"
       id="connector3pin" />
    <rect
       width="3"
       x="33.5"
       y="30"
       fill="#8C8C8C"
       height="3"
       id="connector3terminal" />
    <polygon
       fill="#8C8C8C"
       points="31.5,28.66 31.5,29.74 33.5,30.66 36.5,30.66 38.5,29.74 38.5,28.66"
       id="0.0.49" />
    <rect
       width="3"
       x="43.5"
       y="28.66"
       fill="#8C8C8C"
       height="4.34"
       id="connector4pin" />
    <rect
       width="3"
       x="43.5"
       y="30"
       fill="#8C8C8C"
       height="3"
       id="connector4terminal" />
    <polygon
       fill="#8C8C8C"
       points="41.5,28.66 41.5,29.74 43.5,30.66 46.5,30.66 48.5,29.74 48.5,28.66"
       id="0.0.52" />
    <rect
       width="3"
       x="53.5"
       y="28.66"
       fill="#8C8C8C"
       height="4.34"
       id="connector5pin" />
    <rect
       width="3"
       x="53.5"
       y="30"
       fill="#8C8C8C"
       height="3"
       id="connector5terminal" />
    <polygon
       fill="#8C8C8C"
       points="51.5,28.66 51.5,29.74 53.5,30.66 56.5,30.66 58.5,29.74 58.5,28.66"
       id="0.0.55" />
    <rect
       width="3"
       x="63.5"
       y="28.66"
       fill="#8C8C8C"
       height="4.34"
       id="connector6pin" />
    <rect
       width="3"
       x="63.5"
       y="30"
       fill="#8C8C8C"
       height="3"
       id="connector6terminal" />
    <polygon
       fill="#8C8C8C"
       points="61.5,28.66 61.5,29.74 63.5,30.66 66.5,30.66 68.5,29.74 68.5,28.66"
       id="0.0.58" />
  </g>
</svg>
