<?xml version='1.0' encoding='utf-8'?>
<svg xmlns="http://www.w3.org/2000/svg"  width="0.4in" version="1.2" height="0.33in" viewBox="0 0 40 33" baseProfile="tiny" id="0">
<desc><referenceFile>generic_ic_dip_8_300mil_bread.svg</referenceFile></desc>

 <g   id="breadboard">
  <rect  width="40" x="0" y="3" fill="#303030"  height="27" id="middle"/>
  <rect  width="40" x="0" y="3.0" fill="#3D3D3D"  height="2.46" id="top"/>
  <rect  width="40" x="0" y="27.54" fill="#000000"  height="2.46" id="bottom"/>
  <polygon  fill="#141414" points="40,3 39.25,5.46 39.25,27.54 40,30"  id="right"/>
  <polygon  fill="#1F1F1F" points="0,3 0.75,5.46 0.75,27.54 0,30"  id="left"/>
  <polygon  fill="#1C1C1C" points="5,11.5 0.75,11.46 0.56,13.58 0.56,16.5 5,16.5"  id="left-upper-rect"/>
  <polygon  fill="#383838" points="0.75,21.55 5,21.55 5,16.5 0.56,16.5 0.56,19.42"  id="left-lower-rect"/>
  <path  fill="#262626"  id="slot" d="M0.56,13.58v5.83c1.47-0.17,2.62-1.4,2.62-2.92C3.18,14.97,2.04,13.75,0.56,13.58z"/>
  <path  fill="#303030"  id="cover" d="M0.75,5.46V11.45c2.38,0.45,4.19,2.53,4.19,5.04c0,2.51-1.8,4.6-4.19,5.05V21.55h5.0V5.46H0.75z"/>
  <circle  fill="#212121" cx="6.5"  cy="23.47" r="2.06" id="0.0.9"/>
  <text  x="6.5" y="16.5" fill="#e6e6e6" font-family="OCRA"  text-anchor="start" stroke="none" id="label" font-size="8">IC</text>
  <rect  width="3" x="3.5" y="28.66" fill="#8C8C8C"  height="4.34" id="connector0pin"/>
  <rect  width="3" x="3.5" y="30" fill="#8C8C8C"  height="3" id="connector0terminal"/>
  <polygon  fill="#8C8C8C" points="3.5,28.66 3.5,30.66 6.5,30.66 8.5,29.74 8.5,28.66 "  id="0.0.13"/>
  <rect  width="3" x="3.5" fill="#8C8C8C"  height="4.34" id="connector7pin"/>
  <rect  width="3" x="3.5" fill="#8C8C8C"  height="3" id="connector7terminal"/>
  <polygon  fill="#8C8C8C" points="8.5,4.34 8.5,3.26 6.5,2.34 3.5,2.34 3.5,4.34"  id="0.0.16"/>
  <rect  width="3" x="33.5" y="28.66" fill="#8C8C8C"  height="4.34" id="connector3pin"/>
  <rect  width="3" x="33.5" y="30" fill="#8C8C8C"  height="3" id="connector3terminal"/>
  <polygon  fill="#8C8C8C" points="31.5,28.66 31.5,29.74 33.5,30.66 36.5,30.66 36.5,28.66"  id="0.0.19"/>
  <rect  width="3" x="33.5" y="0" fill="#8C8C8C"  height="4.34" id="connector4pin"/>
  <rect  width="3" x="33.5" y="0" fill="#8C8C8C"  height="3" id="connector4terminal"/>
  <polygon  fill="#8C8C8C" points="36.5,4.34 36.5,2.34 33.5,2.34 31.5,3.26 31.5,4.34 "  id="0.0.22"/>
  <rect  width="3" x="13.5" y="0" fill="#8C8C8C"  height="4.34" id="connector6pin"/>
  <rect  width="3" x="13.5" fill="#8C8C8C"  height="3" id="connector6terminal"/>
  <polygon  fill="#8C8C8C" points="18.5,4.34 18.5,3.26 16.5,2.34 13.5,2.34 11.5,3.26 11.5,4.34"  id="0.0.25"/>
  <rect  width="3" x="23.5" y="0" fill="#8C8C8C"  height="4.34" id="connector5pin"/>
  <rect  width="3" x="23.5" fill="#8C8C8C"  height="3" id="connector5terminal"/>
  <polygon  fill="#8C8C8C" points="28.5,4.34 28.5,3.26 26.5,2.34 23.5,2.34 21.5,3.26 21.5,4.34"  id="0.0.28"/>
  <rect  width="3" x="13.5" y="28.66" fill="#8C8C8C"  height="4.34" id="connector1pin"/>
  <rect  width="3" x="13.5" y="30" fill="#8C8C8C"  height="3" id="connector1terminal"/>
  <polygon  fill="#8C8C8C" points="11.5,28.66 11.5,29.74 13.5,30.66 16.5,30.66 18.5,29.74 18.5,28.66"  id="0.0.31"/>
  <rect  width="3" x="23.5" y="28.66" fill="#8C8C8C"  height="4.34" id="connector2pin"/>
  <rect  width="3" x="23.5" y="30" fill="#8C8C8C"  height="3" id="connector2terminal"/>
  <polygon  fill="#8C8C8C" points="21.5,28.66 21.5,29.74 23.5,30.66 26.5,30.66 28.5,29.74 28.5,28.66"  id="0.0.34"/>
 </g>
</svg>
