<?xml version='1.0' encoding='UTF-8' standalone='no'?>
<svg xmlns="http://www.w3.org/2000/svg" width="0.80in" x="0px" version="1.1" y="0px" gorn="0"  height="0.33in" viewBox="0 0 57.6 23.76" xmlns:xml="http://www.w3.org/XML/1998/namespace" id="svg2" enable-background="new 0 0 57.6 23.76" xml:space="preserve">
    <desc >
        <referenceFile >HCTL2016.svg</referenceFile>
    </desc>
    <metadata  id="metadata126">
        <rdf:RDF xmlns:rdf="http://www.w3.org/1999/02/22-rdf-syntax-ns#">
            <cc:Work xmlns:rdf="http://www.w3.org/1999/02/22-rdf-syntax-ns#" xmlns:cc="http://creativecommons.org/ns#" rdf:about="">
                <dc:format xmlns:dc="http://purl.org/dc/elements/1.1/">image/svg+xml</dc:format>
                <dc:type xmlns:rdf="http://www.w3.org/1999/02/22-rdf-syntax-ns#" rdf:resource="http://purl.org/dc/dcmitype/StillImage" xmlns:dc="http://purl.org/dc/elements/1.1/"/>
                <dc:title xmlns:dc="http://purl.org/dc/elements/1.1/"/>
            </cc:Work>
        </rdf:RDF>
    </metadata>
    <defs  id="defs124"/>
    <rect width="2.16" x="2.52" y="20.636" fill="none" gorn="0.3"  height="3.124" id="connector0pin"/>
    <rect width="2.16" x="9.72" y="20.636" fill="none" gorn="0.4"  height="3.124" id="connector1pin"/>
    <rect width="2.159" x="16.92" y="20.636" fill="none" gorn="0.5"  height="3.124" id="connector2pin"/>
    <rect width="2.16" x="24.119" y="20.636" fill="none" gorn="0.6"  height="3.124" id="connector3pin"/>
    <rect width="2.16" x="31.319" y="20.636" fill="none" gorn="0.7"  height="3.124" id="connector4pin"/>
    <rect width="2.159" x="38.521" y="20.636" fill="none" gorn="0.8"  height="3.124" id="connector5pin"/>
    <rect width="2.16" x="45.719" y="20.636" fill="none" gorn="0.9"  height="3.124" id="connector6pin"/>
    <rect width="2.16" x="52.919" y="20.636" fill="none" gorn="0.10"  height="3.124" id="connector7pin"/>
    <rect width="2.16" x="52.919" y="0" fill="none" gorn="0.11"  height="3.125" id="connector8pin"/>
    <rect width="2.16" x="45.719" y="0" fill="none" gorn="0.12"  height="3.125" id="connector9pin"/>
    <rect width="2.159" x="38.521" y="0" fill="none" gorn="0.13"  height="3.125" id="connector10pin"/>
    <rect width="2.16" x="31.319" y="0" fill="none" gorn="0.14"  height="3.125" id="connector11pin"/>
    <rect width="2.16" x="24.119" y="0" fill="none" gorn="0.15"  height="3.125" id="connector12pin"/>
    <rect width="2.159" x="16.92" y="0" fill="none" gorn="0.16"  height="3.125" id="connector13pin"/>
    <rect width="2.16" x="9.72" y="0" fill="none" gorn="0.17"  height="3.125" id="connector14pin"/>
    <rect width="2.16" x="2.52" y="0" fill="none" gorn="0.18"  height="3.125" id="connector15pin"/>
    <rect width="2.16" x="2.52" y="21.601" fill="none" gorn="0.19"  height="2.159" id="connector0terminal"/>
    <rect width="2.16" x="9.72" y="21.601" fill="none" gorn="0.20"  height="2.159" id="connector1terminal"/>
    <rect width="2.159" x="16.92" y="21.601" fill="none" gorn="0.21"  height="2.159" id="connector2terminal"/>
    <rect width="2.16" x="24.119" y="21.601" fill="none" gorn="0.22"  height="2.159" id="connector3terminal"/>
    <rect width="2.16" x="31.319" y="21.601" fill="none" gorn="0.23"  height="2.159" id="connector4terminal"/>
    <rect width="2.159" x="38.521" y="21.601" fill="none" gorn="0.24"  height="2.159" id="connector5terminal"/>
    <rect width="2.16" x="45.719" y="21.601" fill="none" gorn="0.25"  height="2.159" id="connector6terminal"/>
    <rect width="2.16" x="52.919" y="21.601" fill="none" gorn="0.26"  height="2.159" id="connector7terminal"/>
    <rect width="2.16" x="52.919" y="0" fill="none" gorn="0.27"  height="2.16" id="connector8terminal"/>
    <rect width="2.16" x="45.719" y="0" fill="none" gorn="0.28"  height="2.16" id="connector9terminal"/>
    <rect width="2.159" x="38.521" y="0" fill="none" gorn="0.29"  height="2.16" id="connector10terminal"/>
    <rect width="2.16" x="31.319" y="0" fill="none" gorn="0.30"  height="2.16" id="connector11terminal"/>
    <rect width="2.16" x="24.119" y="0" fill="none" gorn="0.31"  height="2.16" id="connector12terminal"/>
    <rect width="2.159" x="16.92" y="0" fill="none" gorn="0.32"  height="2.16" id="connector13terminal"/>
    <rect width="2.16" x="9.72" y="0" fill="none" gorn="0.33"  height="2.16" id="connector14terminal"/>
    <rect width="2.16" x="2.52" y="0" fill="none" gorn="0.34"  height="2.16" id="connector15terminal"/>
    <g gorn="0.35"  id="breadboard">
        <rect width="2.16" x="2.52" y="18.949" fill="#8C8C8C" gorn="0.35.0"  height="4.811" id="rect36"/>
        <rect width="2.16" x="9.72" y="18.949" fill="#8C8C8C" gorn="0.35.1"  height="4.811" id="rect38"/>
        <rect width="2.159" x="16.92" y="18.949" fill="#8C8C8C" gorn="0.35.2"  height="4.811" id="rect40"/>
        <rect width="2.16" x="24.119" y="18.949" fill="#8C8C8C" gorn="0.35.3"  height="4.811" id="rect42"/>
        <rect width="2.16" x="31.319" y="18.949" fill="#8C8C8C" gorn="0.35.4"  height="4.811" id="rect44"/>
        <rect width="2.159" x="38.521" y="18.949" fill="#8C8C8C" gorn="0.35.5"  height="4.811" id="rect46"/>
        <rect width="2.16" x="45.719" y="18.949" fill="#8C8C8C" gorn="0.35.6"  height="4.811" id="rect48"/>
        <rect width="2.16" x="52.919" y="18.949" fill="#8C8C8C" gorn="0.35.7"  height="4.811" id="rect50"/>
        <rect width="2.16" x="52.919" y="0" fill="#8C8C8C" gorn="0.35.8"  height="4.81" id="rect52"/>
        <rect width="2.16" x="45.719" y="0" fill="#8C8C8C" gorn="0.35.9"  height="4.81" id="rect54"/>
        <rect width="2.159" x="38.521" y="0" fill="#8C8C8C" gorn="0.35.10"  height="4.81" id="rect56"/>
        <rect width="2.16" x="31.319" y="0" fill="#8C8C8C" gorn="0.35.11"  height="4.81" id="rect58"/>
        <rect width="2.16" x="24.119" y="0" fill="#8C8C8C" gorn="0.35.12"  height="4.81" id="rect60"/>
        <rect width="2.159" x="16.92" y="0" fill="#8C8C8C" gorn="0.35.13"  height="4.81" id="rect62"/>
        <rect width="2.16" x="9.72" y="0" fill="#8C8C8C" gorn="0.35.14"  height="4.81" id="rect64"/>
        <rect width="2.16" x="2.52" y="0" fill="#8C8C8C" gorn="0.35.15"  height="4.81" id="rect66"/>
        <polygon fill="#3D3D3D" points="0,2.16 57.6,2.16 57.059,8.281 0,8.281  " gorn="0.35.16"  id="polygon68"/>
        <polygon points="0,15.479 57.059,15.479 57.6,21.601 0,21.601  " gorn="0.35.17"  id="polygon70"/>
        <polygon fill="#8C8C8C" points="6.12,3.125 6.12,2.347 4.68,1.685 2.52,1.685 2.52,3.125  " gorn="0.35.18"  id="polygon72"/>
        <polygon fill="#8C8C8C" points="55.079,3.125 55.079,1.685 52.919,1.685 51.478,2.347 51.478,3.125  " gorn="0.35.19"  id="polygon74"/>
        <polygon fill="#8C8C8C" points="2.52,20.636 2.52,22.074 4.68,22.074 6.12,21.412 6.12,20.636  " gorn="0.35.20"  id="polygon76"/>
        <polygon fill="#8C8C8C" points="51.478,20.636 51.478,21.412 52.919,22.074 55.079,22.074 55.079,20.636  " gorn="0.35.21"  id="polygon78"/>
        <polygon fill="#8C8C8C" points="13.32,3.125 13.32,2.347 11.88,1.685 9.72,1.685 8.28,2.347 8.28,3.125  " gorn="0.35.22"  id="polygon80"/>
        <polygon fill="#8C8C8C" points="8.28,20.636 8.28,21.412 9.72,22.074 11.88,22.074 13.32,21.412 13.32,20.636  " gorn="0.35.23"  id="polygon82"/>
        <polygon fill="#8C8C8C" points="20.52,3.125 20.52,2.347 19.079,1.685 16.92,1.685 15.48,2.347 15.48,3.125  " gorn="0.35.24"  id="polygon84"/>
        <polygon fill="#8C8C8C" points="15.48,20.636 15.48,21.412 16.92,22.074 19.079,22.074 20.52,21.412 20.52,20.636  " gorn="0.35.25"  id="polygon86"/>
        <polygon fill="#8C8C8C" points="27.72,3.125 27.72,2.347 26.28,1.685 24.119,1.685 22.68,2.347 22.68,3.125  " gorn="0.35.26"  id="polygon88"/>
        <polygon fill="#8C8C8C" points="22.68,20.636 22.68,21.412 24.119,22.074 26.28,22.074 27.72,21.412 27.72,20.636  " gorn="0.35.27"  id="polygon90"/>
        <polygon fill="#8C8C8C" points="34.919,3.125 34.919,2.347 33.479,1.685 31.319,1.685 29.879,2.347 29.879,3.125  " gorn="0.35.28"  id="polygon92"/>
        <polygon fill="#8C8C8C" points="29.879,20.636 29.879,21.412 31.319,22.074 33.479,22.074 34.919,21.412 34.919,20.636  " gorn="0.35.29"  id="polygon94"/>
        <polygon fill="#8C8C8C" points="42.119,3.125 42.119,2.347 40.68,1.685 38.521,1.685 37.079,2.347 37.079,3.125  " gorn="0.35.30"  id="polygon96"/>
        <polygon fill="#8C8C8C" points="37.079,20.636 37.079,21.412 38.521,22.074 40.68,22.074 42.119,21.412 42.119,20.636  " gorn="0.35.31"  id="polygon98"/>
        <polygon fill="#8C8C8C" points="49.319,3.125 49.319,2.347 47.879,1.685 45.719,1.685 44.28,2.347 44.28,3.125  " gorn="0.35.32"  id="polygon100"/>
        <polygon fill="#8C8C8C" points="44.28,20.636 44.28,21.412 45.719,22.074 47.879,22.074 49.319,21.412 49.319,20.636  " gorn="0.35.33"  id="polygon102"/>
        <polygon fill="#141414" points="57.6,2.16 57.059,3.931 56.053,3.931 56.053,19.821 57.059,19.828 57.6,21.601  " gorn="0.35.34"  id="polygon104"/>
        <polygon fill="#1F1F1F" points="0,2.16 0.54,3.931 0.54,8.281 3.6,8.281 3.6,15.479 0.54,15.479 0.54,19.828 0,21.601  " gorn="0.35.35"  id="polygon106"/>
        <polygon fill="#1C1C1C" points="3.6,8.281 0.54,8.281 0.403,9.792 0.403,11.88 3.6,11.88  " gorn="0.35.36"  id="polygon108"/>
        <polygon fill="#383838" points="0.54,15.479 3.6,15.479 3.6,11.88 0.403,11.88 0.403,13.968  " gorn="0.35.37"  id="polygon110"/>
        <path fill="#303030" gorn="0.35.38"  id="path112" d="M0.54,3.931v4.32c1.713,0.324,3.017,1.822,3.017,3.629s-1.296,3.313-3.017,3.637v4.319h56.519V3.931H0.54z"/>
        <path fill="#262626" gorn="0.35.39"  id="path114" d="M0.403,9.792v4.196c1.059-0.121,1.887-1.008,1.887-2.102C2.29,10.8,1.469,9.9,0.403,9.792z"/>
        <circle fill="#212121" cx="4.68" gorn="0.35.40"  cy="16.898" r="1.483" id="circle116"/>
    </g>
    <rect width="32.372" x="6.494" y="9.792" fill="none" gorn="0.36"  height="5.95" id="rect118"/>
    <g  transform="translate(6.4939,14.0374)">
        <g >
            <text gorn="0.37.0.0"  style="font-size:5.76000023px;fill:#e5e5e5;font-family:OCRA" id="text120" font-size="5.76">HCTL-2016</text>
        </g>
    </g>
</svg>
