<?xml version='1.0' encoding='UTF-8' standalone='no'?>
<!-- Created with Inkscape (http://www.inkscape.org/) -->
<svg xmlns="http://www.w3.org/2000/svg" width="0.69999999in" version="1.2" gorn="0"  height="0.33000001in" viewBox="0 0 70 33" xmlns:xml="http://www.w3.org/XML/1998/namespace" id="svg2" xml:space="preserve">
    <desc >
        <referenceFile >SN74LS32N_breadboard.svg</referenceFile>
    </desc>
    <metadata  id="metadata76">
        <rdf:RDF xmlns:rdf="http://www.w3.org/1999/02/22-rdf-syntax-ns#">
            <cc:Work xmlns:rdf="http://www.w3.org/1999/02/22-rdf-syntax-ns#" xmlns:cc="http://creativecommons.org/ns#" rdf:about="">
                <dc:format xmlns:dc="http://purl.org/dc/elements/1.1/">image/svg+xml</dc:format>
                <dc:type xmlns:rdf="http://www.w3.org/1999/02/22-rdf-syntax-ns#" rdf:resource="http://purl.org/dc/dcmitype/StillImage" xmlns:dc="http://purl.org/dc/elements/1.1/"/>
                <dc:title xmlns:dc="http://purl.org/dc/elements/1.1/"/>
            </cc:Work>
        </rdf:RDF>
    </metadata>
    <defs  id="defs74"/>
    <g gorn="0.3"  id="breadboard">
        <rect width="70" x="0" y="3" gorn="0.3.0"  height="27" style="fill:#303030" id="middle"/>
        <rect width="70" x="0" y="3" gorn="0.3.1"  height="2.46" style="fill:#3d3d3d" id="top"/>
        <rect width="70" x="0" y="27.540001" gorn="0.3.2"  height="2.46" style="fill:#000000" id="bottom"/>
        <polygon points="69.25,5.46 69.25,27.54 70,30 70,3 " gorn="0.3.3"  style="fill:#141414" id="right"/>
        <polygon points="0.75,5.46 0.75,27.54 0,30 0,3 " gorn="0.3.4"  style="fill:#1f1f1f" id="left"/>
        <polygon points="0.75,11.46 0.56,13.58 0.56,16.5 5,16.5 5,11.5 " gorn="0.3.5"  style="fill:#1c1c1c" id="left-upper-rect"/>
        <polygon points="5,21.55 5,16.5 0.56,16.5 0.56,19.42 0.75,21.55 " gorn="0.3.6"  style="fill:#383838" id="left-lower-rect"/>
        <path gorn="0.3.7"  style="fill:#262626" id="slot" d="m 0.56,13.58 v 5.83 c 1.47,-0.17 2.62,-1.4 2.62,-2.92 0,-1.52 -1.14,-2.74 -2.62,-2.91 z"/>
        <path gorn="0.3.8"  style="fill:#303030" id="cover" d="m 0.75,5.46 v 5.99 c 2.38,0.45 4.19,2.53 4.19,5.04 0,2.51 -1.8,4.6 -4.19,5.05 v 0.01 h 5 V 5.46 h -5 z"/>
        <circle cx="6.5" gorn="0.3.9"  cy="23.469999" style="fill:#212121" r="2.0599999" id="circle13"/>
        <text x="13.114173" y="18.84252" gorn="0.3.10"  style="font-size:8px;text-anchor:start;fill:#e6e6e6;stroke:none;font-family:OCRA" id="label">SN74LS32N</text>
        <rect width="3" x="3.5" y="28.66" gorn="0.3.11"  height="4.3400002" style="fill:#8c8c8c" id="connector0pin"/>
        <rect width="3" x="3.5" y="30"  height="3" style="fill:#8c8c8c"/>
        <polygon points="3.5,30.66 6.5,30.66 8.5,29.74 8.5,28.66 3.5,28.66 " gorn="0.3.13"  style="fill:#8c8c8c" id="polygon18"/>
        <rect width="3" x="3.5" y="0" gorn="0.3.14"  height="4.3400002" style="fill:#8c8c8c" id="connector13pin"/>
        <rect width="3" x="3.5" y="0"  height="3" style="fill:#8c8c8c"/>
        <polygon points="8.5,3.26 6.5,2.34 3.5,2.34 3.5,4.34 8.5,4.34 " gorn="0.3.16"  style="fill:#8c8c8c" id="polygon22"/>
        <rect width="3" x="63.5" y="28.66" gorn="0.3.17"  height="4.3400002" style="fill:#8c8c8c" id="connector6pin"/>
        <rect width="3" x="63.5" y="30"  height="3" style="fill:#8c8c8c"/>
        <polygon points="61.5,29.74 63.5,30.66 66.5,30.66 66.5,28.66 61.5,28.66 " gorn="0.3.19"  style="fill:#8c8c8c" id="polygon26"/>
        <rect width="3" x="63.5" y="0" gorn="0.3.20"  height="4.3400002" style="fill:#8c8c8c" id="connector7pin"/>
        <rect width="3" x="63.5" y="0"  height="3" style="fill:#8c8c8c"/>
        <polygon points="66.5,2.34 63.5,2.34 61.5,3.26 61.5,4.34 66.5,4.34 " gorn="0.3.22"  style="fill:#8c8c8c" id="polygon30"/>
        <rect width="3" x="13.5" y="28.66" gorn="0.3.23"  height="4.3400002" style="fill:#8c8c8c" id="connector1pin"/>
        <rect width="3" x="13.5" y="30"  height="3" style="fill:#8c8c8c"/>
        <polygon points="11.5,29.74 13.5,30.66 16.5,30.66 18.5,29.74 18.5,28.66 11.5,28.66 " gorn="0.3.25"  style="fill:#8c8c8c" id="polygon34"/>
        <rect width="3" x="13.5" y="0" gorn="0.3.26"  height="4.3400002" style="fill:#8c8c8c" id="connector12pin"/>
        <rect width="3" x="13.5" y="0"  height="3" style="fill:#8c8c8c"/>
        <polygon points="18.5,3.26 16.5,2.34 13.5,2.34 11.5,3.26 11.5,4.34 18.5,4.34 " gorn="0.3.28"  style="fill:#8c8c8c" id="polygon38"/>
        <rect width="3" x="23.5" y="28.66" gorn="0.3.29"  height="4.3400002" style="fill:#8c8c8c" id="connector2pin"/>
        <rect width="3" x="23.5" y="30"  height="3" style="fill:#8c8c8c"/>
        <polygon points="21.5,29.74 23.5,30.66 26.5,30.66 28.5,29.74 28.5,28.66 21.5,28.66 " gorn="0.3.31"  style="fill:#8c8c8c" id="polygon42"/>
        <rect width="3" x="23.5" y="0" gorn="0.3.32"  height="4.3400002" style="fill:#8c8c8c" id="connector11pin"/>
        <rect width="3" x="23.5" y="0"  height="3" style="fill:#8c8c8c"/>
        <polygon points="28.5,3.26 26.5,2.34 23.5,2.34 21.5,3.26 21.5,4.34 28.5,4.34 " gorn="0.3.34"  style="fill:#8c8c8c" id="polygon46"/>
        <rect width="3" x="33.5" y="28.66" gorn="0.3.35"  height="4.3400002" style="fill:#8c8c8c" id="connector3pin"/>
        <rect width="3" x="33.5" y="30"  height="3" style="fill:#8c8c8c"/>
        <polygon points="31.5,29.74 33.5,30.66 36.5,30.66 38.5,29.74 38.5,28.66 31.5,28.66 " gorn="0.3.37"  style="fill:#8c8c8c" id="polygon50"/>
        <rect width="3" x="33.5" y="0" gorn="0.3.38"  height="4.3400002" style="fill:#8c8c8c" id="connector10pin"/>
        <rect width="3" x="33.5" y="0"  height="3" style="fill:#8c8c8c"/>
        <polygon points="38.5,3.26 36.5,2.34 33.5,2.34 31.5,3.26 31.5,4.34 38.5,4.34 " gorn="0.3.40"  style="fill:#8c8c8c" id="polygon54"/>
        <rect width="3" x="43.5" y="28.66" gorn="0.3.41"  height="4.3400002" style="fill:#8c8c8c" id="connector4pin"/>
        <rect width="3" x="43.5" y="30"  height="3" style="fill:#8c8c8c"/>
        <polygon points="41.5,29.74 43.5,30.66 46.5,30.66 48.5,29.74 48.5,28.66 41.5,28.66 " gorn="0.3.43"  style="fill:#8c8c8c" id="polygon58"/>
        <rect width="3" x="43.5" y="0" gorn="0.3.44"  height="4.3400002" style="fill:#8c8c8c" id="connector9pin"/>
        <rect width="3" x="43.5" y="0"  height="3" style="fill:#8c8c8c"/>
        <polygon points="48.5,3.26 46.5,2.34 43.5,2.34 41.5,3.26 41.5,4.34 48.5,4.34 " gorn="0.3.46"  style="fill:#8c8c8c" id="polygon62"/>
        <rect width="3" x="53.5" y="28.66" gorn="0.3.47"  height="4.3400002" style="fill:#8c8c8c" id="connector5pin"/>
        <rect width="3" x="53.5" y="30"  height="3" style="fill:#8c8c8c"/>
        <polygon points="51.5,29.74 53.5,30.66 56.5,30.66 58.5,29.74 58.5,28.66 51.5,28.66 " gorn="0.3.49"  style="fill:#8c8c8c" id="polygon66"/>
        <rect width="3" x="53.5" y="0" gorn="0.3.50"  height="4.3400002" style="fill:#8c8c8c" id="connector8pin"/>
        <rect width="3" x="53.5" y="0"  height="3" style="fill:#8c8c8c"/>
        <polygon points="58.5,3.26 56.5,2.34 53.5,2.34 51.5,3.26 51.5,4.34 58.5,4.34 " gorn="0.3.52"  style="fill:#8c8c8c" id="polygon70"/>
    </g>
</svg>
