<?xml version="1.0" encoding="UTF-8" standalone="no"?>
<!-- Created with Inkscape (http://www.inkscape.org/) -->

<svg
   xmlns:dc="http://purl.org/dc/elements/1.1/"
   xmlns:cc="http://creativecommons.org/ns#"
   xmlns:rdf="http://www.w3.org/1999/02/22-rdf-syntax-ns#"
   xmlns:svg="http://www.w3.org/2000/svg"
   xmlns="http://www.w3.org/2000/svg"
   version="1.1"
   width="299.05511"
   height="156.96851"
   viewBox="0 0 239.24417 125.57476"
   id="svg3272"
   xml:space="preserve"><metadata
   id="metadata3519"><rdf:RDF><cc:Work
       rdf:about=""><dc:format>image/svg+xml</dc:format><dc:type
         rdf:resource="http://purl.org/dc/dcmitype/StillImage" /><dc:title></dc:title></cc:Work></rdf:RDF></metadata><defs
   id="defs3517">
  
  
 
   
   
   
   
   
   
   
   
   
   
   
   
   
   
   
   
   
  
    
    
    
    
    
    
    
    
    
    
    
    
    
    
    
    
    
    
    
    
    
    
    
    
    
    
    
    
    
    
    
    
    
    
    
    
    
   
     
    </defs>
 <g
   transform="matrix(1,0,0,-1,0,125.57481)"
   id="Ebene_2" />
<g
   transform="translate(8.296634,-143.00516)"
   id="g4222" /><g
   transform="matrix(1.0814321,0,0,0.99681646,-2.9966348,7.6743384)"
   id="g4178" /><path
   d="m 227.62143,109.98425 c -2.19105,0 -3.96781,1.77568 -3.96781,3.9685 0,2.19005 1.77537,3.96851 3.96781,3.96851 2.19244,0 3.9692,-1.77707 3.9692,-3.96851 0,-2.19143 -1.77815,-3.9685 -3.9692,-3.9685 z M 213.16542,92.427669 h -17.66195 v 4.800668 h 17.66195 v -4.800668 z m 0,-72.585184 h -17.66195 v 4.800668 h 17.66195 v -4.800668 z m -84.71074,72.585184 h -17.66411 v 4.800668 h 17.66411 v -4.800668 z m 0,-72.585184 h -17.66411 v 4.800668 h 17.66411 V 19.842485 z M 43.741779,92.427669 h -17.66303 v 4.800668 h 17.66303 v -4.800668 z m 0,-72.585184 h -17.66303 v 4.800668 h 17.66303 V 19.842485 z M 3.119875e-8,125.57481 V -3.6991329e-5 H 239.24417 V 125.57481 H 3.119875e-8 z M 137.73347,116.98978 c -0.766,0 -1.38701,0.621 -1.38701,1.387 0,0.766 0.62101,1.387 1.38701,1.387 0.766,0 1.387,-0.621 1.387,-1.387 0,-0.766 -0.621,-1.387 -1.387,-1.387 z m -7.201,0 c -0.766,0 -1.387,0.621 -1.387,1.387 0,0.766 0.621,1.387 1.387,1.387 0.766,0 1.38699,-0.621 1.38699,-1.387 0,-0.766 -0.62099,-1.387 -1.38699,-1.387 z m -15.78701,1.386 c 0,0.766 0.62101,1.387 1.38701,1.387 0.766,0 1.387,-0.621 1.387,-1.387 0,-0.766 -0.621,-1.387 -1.387,-1.387 -0.766,0 -1.38701,0.622 -1.38701,1.387 z m -5.81199,-1.386 c -0.766,0 -1.387,0.621 -1.387,1.387 0,0.766 0.621,1.387 1.387,1.387 0.766,0 1.38699,-0.621 1.38699,-1.387 0,-0.766 -0.62099,-1.387 -1.38699,-1.387 z m -7.2,0 c -0.766,0 -1.387,0.621 -1.387,1.387 0,0.766 0.621,1.387 1.387,1.387 0.766,0 1.387,-0.621 1.387,-1.387 0,-0.766 -0.622,-1.387 -1.387,-1.387 z m -7.201004,0 c -0.766,0 -1.387,0.621 -1.387,1.387 0,0.766 0.621,1.387 1.387,1.387 0.766,0 1.387,-0.621 1.387,-1.387 0,-0.766 -0.621,-1.387 -1.387,-1.387 z m -7.2,0 c -0.766,0 -1.387,0.621 -1.387,1.387 0,0.766 0.621,1.387 1.387,1.387 0.766,0 1.387,-0.621 1.387,-1.387 0,-0.766 -0.621,-1.387 -1.387,-1.387 z m -7.199,0 c -0.766,0 -1.387,0.621 -1.387,1.387 0,0.766 0.621,1.387 1.387,1.387 0.766,0 1.387,-0.621 1.387,-1.387 0,-0.766 -0.621,-1.387 -1.387,-1.387 z m -7.2,0 c -0.766,0 -1.387,0.621 -1.387,1.387 0,0.766 0.621,1.387 1.387,1.387 0.766,0 1.387,-0.621 1.387,-1.387 0,-0.766 -0.621,-1.387 -1.387,-1.387 z m -7.199999,0 c -0.766002,0 -1.387001,0.621 -1.387001,1.387 0,0.766 0.620999,1.387 1.387001,1.387 0.766,0 1.386999,-0.621 1.386999,-1.387 0,-0.766 -0.622,-1.387 -1.386999,-1.387 z m -7.201001,0 c -0.766,0 -1.387,0.621 -1.387,1.387 0,0.766 0.621,1.387 1.387,1.387 0.766,0 1.387,-0.621 1.387,-1.387 0,-0.766 -0.621,-1.387 -1.387,-1.387 z m -22.986,1.386 c 0,0.766 0.620999,1.387 1.387001,1.387 0.766,0 1.386999,-0.621 1.386999,-1.387 0,-0.766 -0.620999,-1.387 -1.386999,-1.387 -0.766002,0 -1.387001,0.622 -1.387001,1.387 z m -5.813,-1.386 c -0.766,0 -1.387,0.621 -1.387,1.387 0,0.766 0.621,1.387 1.387,1.387 0.766,0 1.387,-0.621 1.387,-1.387 0,-0.766 -0.622,-1.387 -1.387,-1.387 z m 14.4,2.773 c 0.766,0 1.387,-0.621 1.387,-1.387 0,-0.766 -0.621,-1.387 -1.387,-1.387 -0.766,0 -1.387,0.621 -1.387,1.387 0,0.766 0.621,1.387 1.387,1.387 z m 7.2,0 c 0.766,0 1.387,-0.621 1.387,-1.387 0,-0.766 -0.621,-1.387 -1.387,-1.387 -0.766,0 -1.387,0.621 -1.387,1.387 0,0.766 0.622,1.387 1.387,1.387 z m 71.999004,0 c 0.766,0 1.387,-0.621 1.387,-1.387 0,-0.766 -0.621,-1.387 -1.387,-1.387 -0.766,0 -1.387,0.621 -1.387,1.387 0,0.766 0.62199,1.387 1.387,1.387 z M 11.622051,109.98425 c -2.191438,0 -3.9685052,1.77707 -3.9685052,3.9685 0,2.19144 1.7770672,3.96851 3.9685052,3.96851 2.191438,0 3.968505,-1.77568 3.968505,-3.96851 -0.0014,-2.19143 -1.777067,-3.9685 -3.968505,-3.9685 z M 7.3700813,14.173192 c 2.191438,0 3.9685047,-1.77599 3.9685047,-3.969201 0,-2.1932097 -1.7770667,-3.9678098 -3.9685047,-3.9678098 -2.1914382,0 -3.9685054,1.7759901 -3.9685054,3.9678098 0,2.191821 1.7770672,3.969201 3.9685054,3.969201 z m 224.7881687,0 c 2.19105,0 3.96781,-1.77568 3.96781,-3.96851 0,-2.1928204 -1.77537,-3.9685004 -3.96781,-3.9685004 -2.19244,0 -3.9692,1.77568 -3.9692,3.9685004 0,2.19283 1.77676,3.96851 3.9692,3.96851 z"
   id="path3278"
   style="fill:#1f7a34" /><g
   transform="matrix(0.95726042,0,0,1.0247474,11.082636,6.250238)"
   id="g4054"><path
     d="m 217.563,36.775 c -0.734,0 -1.336,0.602 -1.336,1.337 v 25.822 c 0,0.735 0.602,1.337 1.336,1.337 h 0.057 v 20.05 0.698 h -0.699 l -2.049,2.049 v 0.713 H 214.159 12.611 11.898 V 88.068 L 9.85,86.02 H 9.151 V 85.322 65.271 h 0.057 c 0.735,0 1.337,-0.602 1.337,-1.337 V 38.112 c 0,-0.735 -0.602,-1.337 -1.337,-1.337 H 9.151 V 16.726 16.028 H 9.85 l 2.049,-2.049 v -0.713 h 0.713 201.547 0.713 v 0.713 l 2.049,2.049 h 0.699 v 0.698 20.049 h -0.057 z"
     id="path3296"
     style="fill:#303030" /><rect
     width="202.96899"
     height="0.26699999"
     x="11.9"
     y="-88.474998"
     transform="scale(1,-1)"
     id="rect3472"
     style="fill:#606060" /><rect
     width="202.96899"
     height="0.30399999"
     x="11.9"
     y="-88.777"
     transform="scale(1,-1)"
     id="rect3474"
     style="fill:#212121" /><g
     id="g3887"><g
       transform="matrix(1,0,0,-1,0,102.047)"
       id="g3298">
     <path
   d="m 208.663,71.382 c 0,2.206 -1.805,4.011 -4.012,4.011 H 22.12 c -2.206,0 -4.011,-1.805 -4.011,-4.011 V 30.665 c 0,-2.206 1.805,-4.011 4.011,-4.011 h 182.531 c 2.207,0 4.012,1.805 4.012,4.011 v 40.717 z"
   id="path3300"
   style="fill:#87ad34" />
     <g
   id="g3302"
   style="opacity:0.2">
      <path
   d="m 208.655,30.646 v 40.755 c 0,-0.006 0.002,-0.012 0.002,-0.019 V 30.665 c 0,-0.007 -0.002,-0.013 -0.002,-0.019 z M 22.12,26.654 c -2.205,0 -4.011,1.806 -4.011,4.011 v 40.717 c 0,2.205 1.806,4.011 4.011,4.011 h 2.326 c -2.206,0 -4.011,-1.806 -4.011,-4.011 V 32.003 c 0,-2.206 1.805,-4.011 4.011,-4.011 h 183.165 c -0.735,-0.814 -1.787,-1.338 -2.964,-1.338 H 22.12 z"
   id="path3304"
   style="fill:#22420d" />
     </g>
    </g><g
       transform="matrix(1,0,0,-1,0,102.047)"
       id="g3306">
     <path
   d="m 210.358,18.618 c 0,-0.735 -0.602,-1.336 -1.336,-1.336 H 17.75 c -0.735,0 -1.336,0.602 -1.336,1.336 v 0.737 c 0,0.735 0.602,1.336 1.336,1.336 h 191.271 c 0.734,0 1.336,-0.602 1.336,-1.336 v -0.737 z"
   id="path3308"
   style="fill:#1a1a1a" />
     <path
   d="m 209.69,19.812 c 0,-0.484 -0.432,-0.88 -0.957,-0.88 H 18.117 c -0.526,0 -0.957,0.396 -0.957,0.88 0,0.484 0.431,0.88 0.957,0.88 h 190.616 c 0.525,-0.001 0.957,-0.397 0.957,-0.88 z"
   id="path3310"
   style="fill:#424242" />
    </g><g
       transform="matrix(1,0,0,-1,0,102.047)"
       id="g3312">
     <path
   d="m 210.358,82.056 c 0,-0.734 -0.602,-1.336 -1.336,-1.336 H 17.75 c -0.735,0 -1.336,0.602 -1.336,1.336 v 0.738 c 0,0.734 0.602,1.336 1.336,1.336 h 191.271 c 0.734,0 1.336,-0.602 1.336,-1.336 v -0.738 z"
   id="path3314"
   style="fill:#1a1a1a" />
     <path
   d="m 209.69,83.251 c 0,-0.484 -0.432,-0.88 -0.957,-0.88 H 18.117 c -0.526,0 -0.957,0.396 -0.957,0.88 0,0.483 0.431,0.879 0.957,0.879 h 190.616 c 0.525,0 0.957,-0.396 0.957,-0.879 z"
   id="path3316"
   style="fill:#424242" />
    </g><g
       transform="matrix(1,0,0,-1,0,102.047)"
       id="g3318">
     <line
   style="fill:none;stroke:#f2f2f2;stroke-width:0.2358;stroke-linecap:round;stroke-opacity:0.2"
   id="line3320"
   x2="12.05"
   y2="14.06"
   x1="9.9370003"
   y1="16.173" />
     <line
   style="fill:none;stroke:#f2f2f2;stroke-width:0.2358;stroke-linecap:round;stroke-opacity:0.2"
   id="line3322"
   x2="9.9589996"
   y2="85.862999"
   x1="12.072"
   y1="87.976997" />
    </g><g
       transform="matrix(1,0,0,-1,0,102.047)"
       id="g3324">
     <line
   style="fill:none;stroke:#f2f2f2;stroke-width:0.2358;stroke-linecap:round;stroke-opacity:0.2"
   id="line3326"
   x2="214.709"
   y2="14.06"
   x1="216.823"
   y1="16.173" />
     <line
   style="fill:none;stroke:#f2f2f2;stroke-width:0.2358;stroke-linecap:round;stroke-opacity:0.2"
   id="line3328"
   x2="216.80099"
   y2="85.862999"
   x1="214.688"
   y1="87.976997" />
    </g><path
       d="m 208.657,30.665 c 0,-2.205 -1.805,-4.011 -4.01,-4.011 H 22.12 c -2.205,0 -4.011,1.806 -4.011,4.011 v 40.717 c 0,2.205 1.806,4.011 4.011,4.011 h 182.527 c 2.205,0 4.01,-1.806 4.01,-4.011 V 30.665 z"
       id="path3330"
       style="fill:none;stroke:#1a1a1a;stroke-width:1.41499996;stroke-opacity:0.4" /><g
       transform="matrix(1,0,0,-1,0,102.047)"
       id="g3400">
     <rect
   width="10.027"
   height="16.521999"
   x="27.790001"
   y="51.369999"
   id="rect3402"
   style="fill:#1a1a1a;fill-opacity:0.1" />
     <rect
   width="10.027"
   height="16.521999"
   x="38.534"
   y="51.369999"
   id="rect3404"
   style="fill:#1a1a1a;fill-opacity:0.1" />
     <rect
   width="10.027"
   height="16.521999"
   x="49.278"
   y="51.369999"
   id="rect3406"
   style="fill:#1a1a1a;fill-opacity:0.1" />
     <rect
   width="10.028"
   height="16.521999"
   x="60.021999"
   y="51.369999"
   id="rect3408"
   style="fill:#1a1a1a;fill-opacity:0.1" />
     <rect
   width="10.027"
   height="16.521999"
   x="70.767998"
   y="51.369999"
   id="rect3410"
   style="fill:#1a1a1a;fill-opacity:0.1" />
     <rect
   width="10.027"
   height="16.521999"
   x="81.512001"
   y="51.369999"
   id="rect3412"
   style="fill:#1a1a1a;fill-opacity:0.1" />
     <rect
   width="10.027"
   height="16.521999"
   x="92.255997"
   y="51.369999"
   id="rect3414"
   style="fill:#1a1a1a;fill-opacity:0.1" />
     <rect
   width="10.027"
   height="16.521999"
   x="103"
   y="51.369999"
   id="rect3416"
   style="fill:#1a1a1a;fill-opacity:0.1" />
     <rect
   width="10.028"
   height="16.521999"
   x="113.744"
   y="51.369999"
   id="rect3418"
   style="fill:#1a1a1a;fill-opacity:0.1" />
     <rect
   width="10.027"
   height="16.521999"
   x="124.489"
   y="51.369999"
   id="rect3420"
   style="fill:#1a1a1a;fill-opacity:0.1" />
     <rect
   width="10.027"
   height="16.521999"
   x="135.233"
   y="51.369999"
   id="rect3422"
   style="fill:#1a1a1a;fill-opacity:0.1" />
     <rect
   width="10.027"
   height="16.521999"
   x="145.97701"
   y="51.369999"
   id="rect3424"
   style="fill:#1a1a1a;fill-opacity:0.1" />
     <rect
   width="10.027"
   height="16.521999"
   x="156.72099"
   y="51.369999"
   id="rect3426"
   style="fill:#1a1a1a;fill-opacity:0.1" />
     <rect
   width="10.027"
   height="16.521999"
   x="167.465"
   y="51.369999"
   id="rect3428"
   style="fill:#1a1a1a;fill-opacity:0.1" />
     <rect
   width="10.027"
   height="16.521999"
   x="178.209"
   y="51.369999"
   id="rect3430"
   style="fill:#1a1a1a;fill-opacity:0.1" />
     <rect
   width="10.027"
   height="16.521999"
   x="188.95399"
   y="51.369999"
   id="rect3432"
   style="fill:#1a1a1a;fill-opacity:0.1" />
     <rect
   width="10.027"
   height="16.521999"
   x="27.790001"
   y="34.153999"
   id="rect3434"
   style="fill:#1a1a1a;fill-opacity:0.1" />
     <rect
   width="10.027"
   height="16.521999"
   x="38.534"
   y="34.153999"
   id="rect3436"
   style="fill:#1a1a1a;fill-opacity:0.1" />
     <rect
   width="10.027"
   height="16.521999"
   x="49.278"
   y="34.153999"
   id="rect3438"
   style="fill:#1a1a1a;fill-opacity:0.1" />
     <rect
   width="10.028"
   height="16.521999"
   x="60.021999"
   y="34.153999"
   id="rect3440"
   style="fill:#1a1a1a;fill-opacity:0.1" />
     <rect
   width="10.027"
   height="16.521999"
   x="70.767998"
   y="34.153999"
   id="rect3442"
   style="fill:#1a1a1a;fill-opacity:0.1" />
     <rect
   width="10.027"
   height="16.521999"
   x="81.512001"
   y="34.153999"
   id="rect3444"
   style="fill:#1a1a1a;fill-opacity:0.1" />
     <rect
   width="10.027"
   height="16.521999"
   x="92.255997"
   y="34.153999"
   id="rect3446"
   style="fill:#1a1a1a;fill-opacity:0.1" />
     <rect
   width="10.027"
   height="16.521999"
   x="103"
   y="34.153999"
   id="rect3448"
   style="fill:#1a1a1a;fill-opacity:0.1" />
     <rect
   width="10.028"
   height="16.521999"
   x="113.744"
   y="34.153999"
   id="rect3450"
   style="fill:#1a1a1a;fill-opacity:0.1" />
     <rect
   width="10.027"
   height="16.521999"
   x="124.489"
   y="34.153999"
   id="rect3452"
   style="fill:#1a1a1a;fill-opacity:0.1" />
     <rect
   width="10.027"
   height="16.521999"
   x="135.233"
   y="34.153999"
   id="rect3454"
   style="fill:#1a1a1a;fill-opacity:0.1" />
     <rect
   width="10.027"
   height="16.521999"
   x="145.97701"
   y="34.153999"
   id="rect3456"
   style="fill:#1a1a1a;fill-opacity:0.1" />
     <rect
   width="10.027"
   height="16.521999"
   x="156.72099"
   y="34.153999"
   id="rect3458"
   style="fill:#1a1a1a;fill-opacity:0.1" />
     <rect
   width="10.027"
   height="16.521999"
   x="167.465"
   y="34.153999"
   id="rect3460"
   style="fill:#1a1a1a;fill-opacity:0.1" />
     <rect
   width="10.027"
   height="16.521999"
   x="178.209"
   y="34.153999"
   id="rect3462"
   style="fill:#1a1a1a;fill-opacity:0.1" />
     <rect
   width="10.027"
   height="16.521999"
   x="188.95399"
   y="34.153999"
   id="rect3464"
   style="fill:#1a1a1a;fill-opacity:0.1" />
    </g><g
       transform="matrix(1,0,0,-1,0,102.047)"
       id="g3466">
     <path
   d="M 9.454,65.223 V 86.02 H 9.722 V 65.168 c -0.083,0.035 -0.178,0.037 -0.268,0.055 z"
   id="path3468"
   style="fill:#606060" />
     <path
   d="M 9.722,36.881 V 16.026 H 9.454 v 20.8 c 0.09,0.018 0.185,0.02 0.268,0.055 z"
   id="path3470"
   style="fill:#606060" />
    </g><g
       transform="matrix(1,0,0,-1,0,102.047)"
       id="g3476">
     <path
   d="m 9.208,36.776 c 0.087,0 0.164,0.034 0.247,0.05 v -20.8 H 9.152 v 20.75 h 0.056 z"
   id="path3478"
   style="fill:#212121" />
     <path
   d="M 9.208,65.272 H 9.152 V 86.02 H 9.455 V 65.222 c -0.083,0.016 -0.16,0.05 -0.247,0.05 z"
   id="path3480"
   style="fill:#212121" />
    </g><rect
       width="202.96899"
       height="0.303"
       x="11.9"
       y="-13.566997"
       transform="scale(1,-1)"
       id="rect3482"
       style="fill:#212121" /><rect
       width="202.96899"
       height="0.26699999"
       x="11.9"
       y="-13.832004"
       transform="scale(1,-1)"
       id="rect3484"
       style="fill:#606060" /><g
       transform="matrix(1,0,0,-1,0,102.047)"
       id="g3486">
     <path
   d="m 217.563,65.272 c -0.089,0 -0.166,-0.034 -0.25,-0.051 V 86.02 h 0.305 V 65.272 h -0.055 z"
   id="path3488"
   style="fill:#212121" />
     <path
   d="m 217.563,36.776 h 0.055 v -20.75 h -0.305 v 20.801 c 0.084,-0.016 0.161,-0.051 0.25,-0.051 z"
   id="path3490"
   style="fill:#212121" />
    </g><g
       transform="matrix(1,0,0,-1,0,102.047)"
       id="g3492">
     <path
   d="M 217.049,65.168 V 86.02 h 0.266 V 65.222 c -0.089,-0.017 -0.184,-0.019 -0.266,-0.054 z"
   id="path3494"
   style="fill:#606060" />
     <path
   d="m 217.315,36.827 v -20.8 h -0.266 v 20.854 c 0.082,-0.035 0.177,-0.037 0.266,-0.054 z"
   id="path3496"
   style="fill:#606060" />
    </g></g></g><g
   transform="matrix(0.99999056,0,0,1.0000443,10.303319,19.792887)"
   id="g4003"><g
     id="g3953"><g
       transform="matrix(1,0,0,-1,0,102.047)"
       id="g3336">
     <path
   d="m 17.02,0 v 4.75 c 0,1.33 1.078,2.41 2.41,2.41 1.33,0 2.41,-1.08 2.41,-2.41 V 0 h -4.82 z m 2.41,4.854 c -0.766,0 -1.387,-0.621 -1.387,-1.387 0,-0.766 0.621,-1.387 1.387,-1.387 0.766,0 1.387,0.621 1.387,1.387 0,0.766 -0.622,1.387 -1.387,1.387 z"
   id="path3338"
   style="fill:#9a916c" />
    </g><g
       transform="matrix(1,0,0,-1,0,102.047)"
       id="g3340">
     <path
   d="m 24.22,0 v 4.75 c 0,1.33 1.078,2.41 2.41,2.41 1.33,0 2.41,-1.08 2.41,-2.41 V 0 h -4.82 z m 2.41,4.854 c -0.766,0 -1.387,-0.621 -1.387,-1.387 0,-0.766 0.621,-1.387 1.387,-1.387 0.766,0 1.387,0.621 1.387,1.387 0,0.766 -0.621,1.387 -1.387,1.387 z"
   id="path3342"
   style="fill:#9a916c" />
    </g><g
       transform="matrix(1,0,0,-1,0,102.047)"
       id="g3344">
     <path
   d="m 31.42,0 v 4.75 c 0,1.33 1.078,2.41 2.41,2.41 1.33,0 2.41,-1.08 2.41,-2.41 V 0 h -4.82 z m 2.41,4.854 c -0.766,0 -1.387,-0.621 -1.387,-1.387 0,-0.766 0.621,-1.387 1.387,-1.387 0.766,0 1.387,0.621 1.387,1.387 0,0.766 -0.621,1.387 -1.387,1.387 z"
   id="path3346"
   style="fill:#9a916c" />
    </g><g
       transform="matrix(1,0,0,-1,0,102.047)"
       id="g3348">
     <path
   d="m 38.62,0 v 4.75 c 0,1.33 1.078,2.41 2.41,2.41 1.33,0 2.41,-1.08 2.41,-2.41 V 0 h -4.82 z m 2.41,4.854 c -0.766,0 -1.387,-0.621 -1.387,-1.387 0,-0.766 0.621,-1.387 1.387,-1.387 0.766,0 1.387,0.621 1.387,1.387 0,0.766 -0.621,1.387 -1.387,1.387 z"
   id="path3350"
   style="fill:#9a916c" />
    </g><g
       transform="matrix(1,0,0,-1,0,102.047)"
       id="g3352">
     <path
   d="m 45.819,0 v 4.75 c 0,1.33 1.078,2.41 2.41,2.41 1.33,0 2.41,-1.08 2.41,-2.41 V 0 h -4.82 z m 2.41,4.854 c -0.766,0 -1.387,-0.621 -1.387,-1.387 0,-0.766 0.621,-1.387 1.387,-1.387 0.766,0 1.387,0.621 1.387,1.387 0,0.766 -0.621,1.387 -1.387,1.387 z"
   id="path3354"
   style="fill:#9a916c" />
    </g><g
       transform="matrix(1,0,0,-1,0,102.047)"
       id="g3356">
     <path
   d="m 53.02,0 v 4.75 c 0,1.33 1.078,2.41 2.41,2.41 1.33,0 2.41,-1.08 2.41,-2.41 V 0 h -4.82 z m 2.41,4.854 c -0.766,0 -1.387,-0.621 -1.387,-1.387 0,-0.766 0.621,-1.387 1.387,-1.387 0.766,0 1.387,0.621 1.387,1.387 0,0.766 -0.622,1.387 -1.387,1.387 z"
   id="path3358"
   style="fill:#9a916c" />
    </g><g
       transform="matrix(1,0,0,-1,0,102.047)"
       id="g3360">
     <path
   d="m 60.22,0 v 4.75 c 0,1.33 1.078,2.41 2.41,2.41 1.33,0 2.41,-1.08 2.41,-2.41 V 0 h -4.82 z m 2.41,4.854 c -0.766,0 -1.387,-0.621 -1.387,-1.387 0,-0.766 0.621,-1.387 1.387,-1.387 0.766,0 1.387,0.621 1.387,1.387 0,0.766 -0.621,1.387 -1.387,1.387 z"
   id="path3362"
   style="fill:#9a916c" />
    </g><g
       transform="matrix(1,0,0,-1,0,102.047)"
       id="g3364">
     <path
   d="m 67.42,0 v 4.75 c 0,1.33 1.078,2.41 2.41,2.41 1.33,0 2.41,-1.08 2.41,-2.41 V 0 h -4.82 z m 2.41,4.854 c -0.766,0 -1.387,-0.621 -1.387,-1.387 0,-0.766 0.621,-1.387 1.387,-1.387 0.766,0 1.387,0.621 1.387,1.387 0,0.766 -0.621,1.387 -1.387,1.387 z"
   id="path3366"
   style="fill:#9a916c" />
    </g><g
       transform="matrix(1,0,0,-1,0,102.047)"
       id="g3368">
     <path
   d="m 74.619,0 v 4.75 c 0,1.33 1.078,2.41 2.41,2.41 1.33,0 2.41,-1.08 2.41,-2.41 V 0 h -4.82 z m 2.41,4.854 c -0.766,0 -1.387,-0.621 -1.387,-1.387 0,-0.766 0.621,-1.387 1.387,-1.387 0.766,0 1.387,0.621 1.387,1.387 0,0.766 -0.621,1.387 -1.387,1.387 z"
   id="path3370"
   style="fill:#9a916c" />
    </g><g
       transform="matrix(1,0,0,-1,0,102.047)"
       id="g3372">
     <path
   d="m 81.819,0 v 4.75 c 0,1.33 1.078,2.41 2.41,2.41 1.33,0 2.41,-1.08 2.41,-2.41 V 0 h -4.82 z m 2.41,4.854 c -0.766,0 -1.387,-0.621 -1.387,-1.387 0,-0.766 0.621,-1.387 1.387,-1.387 0.766,0 1.387,0.621 1.387,1.387 0,0.766 -0.621,1.387 -1.387,1.387 z"
   id="path3374"
   style="fill:#9a916c" />
    </g><g
       transform="matrix(1,0,0,-1,0,102.047)"
       id="g3376">
     <path
   d="m 89.02,0 v 4.75 c 0,1.33 1.078,2.41 2.41,2.41 1.33,0 2.41,-1.08 2.41,-2.41 V 0 h -4.82 z m 2.41,4.854 c -0.766,0 -1.387,-0.621 -1.387,-1.387 0,-0.766 0.621,-1.387 1.387,-1.387 0.766,0 1.387,0.621 1.387,1.387 0,0.766 -0.622,1.387 -1.387,1.387 z"
   id="path3378"
   style="fill:#9a916c" />
    </g><g
       transform="matrix(1,0,0,-1,0,102.047)"
       id="g3380">
     <path
   d="m 96.22,0 v 4.75 c 0,1.33 1.078,2.41 2.41,2.41 1.33,0 2.41,-1.08 2.41,-2.41 V 0 h -4.82 z m 2.41,4.854 c -0.766,0 -1.387,-0.621 -1.387,-1.387 0,-0.766 0.621,-1.387 1.387,-1.387 0.766,0 1.387,0.621 1.387,1.387 0,0.766 -0.621,1.387 -1.387,1.387 z"
   id="path3382"
   style="fill:#9a916c" />
    </g><g
       transform="matrix(1,0,0,-1,0,102.047)"
       id="g3384">
     <path
   d="m 103.419,0 v 4.75 c 0,1.33 1.078,2.41 2.41,2.41 1.33,0 2.41,-1.08 2.41,-2.41 V 0 h -4.82 z m 2.41,4.854 c -0.766,0 -1.387,-0.621 -1.387,-1.387 0,-0.766 0.621,-1.387 1.387,-1.387 0.766,0 1.387,0.621 1.387,1.387 0,0.766 -0.621,1.387 -1.387,1.387 z"
   id="path3386"
   style="fill:#9a916c" />
    </g><g
       transform="matrix(1,0,0,-1,0,102.047)"
       id="g3388">
     <path
   d="m 110.619,0 v 4.75 c 0,1.33 1.078,2.41 2.41,2.41 1.33,0 2.411,-1.08 2.411,-2.41 V 0 h -4.821 z m 2.41,4.854 c -0.766,0 -1.387,-0.621 -1.387,-1.387 0,-0.766 0.621,-1.387 1.387,-1.387 0.766,0 1.387,0.621 1.387,1.387 0,0.766 -0.621,1.387 -1.387,1.387 z"
   id="path3390"
   style="fill:#9a916c" />
    </g><g
       transform="matrix(1,0,0,-1,0,102.047)"
       id="g3392">
     <path
   d="m 117.819,0 v 4.75 c 0,1.33 1.078,2.41 2.41,2.41 1.33,0 2.41,-1.08 2.41,-2.41 V 0 h -4.82 z m 2.41,4.854 c -0.766,0 -1.387,-0.621 -1.387,-1.387 0,-0.766 0.621,-1.387 1.387,-1.387 0.766,0 1.387,0.621 1.387,1.387 0,0.766 -0.621,1.387 -1.387,1.387 z"
   id="path3394"
   style="fill:#9a916c" />
    </g><g
       transform="matrix(1,0,0,-1,0,102.047)"
       id="g3396">
     <path
   d="m 125.02,0 v 4.75 c 0,1.33 1.078,2.41 2.41,2.41 1.33,0 2.41,-1.08 2.41,-2.41 V 0 h -4.82 z m 2.41,4.854 c -0.766,0 -1.387,-0.621 -1.387,-1.387 0,-0.766 0.621,-1.387 1.387,-1.387 0.766,0 1.387,0.621 1.387,1.387 0,0.766 -0.621,1.387 -1.387,1.387 z"
   id="path3398"
   style="fill:#9a916c" />
    </g><circle
       cx="19.43"
       cy="3.4679999"
       r="1.387"
       transform="matrix(1,0,0,-1,0,102.047)"
       id="connector0pin" /><circle
       cx="26.629999"
       cy="3.4679999"
       r="1.387"
       transform="matrix(1,0,0,-1,0,102.047)"
       id="connector1pin" /><circle
       cx="33.830002"
       cy="3.4679999"
       r="1.387"
       transform="matrix(1,0,0,-1,0,102.047)"
       id="connector2pin" /><circle
       cx="41.029999"
       cy="3.4679999"
       r="1.387"
       transform="matrix(1,0,0,-1,0,102.047)"
       id="connector3pin" /><circle
       cx="48.229"
       cy="3.4679999"
       r="1.387"
       transform="matrix(1,0,0,-1,0,102.047)"
       id="connector4pin" /><circle
       cx="55.43"
       cy="3.4679999"
       r="1.387"
       transform="matrix(1,0,0,-1,0,102.047)"
       id="connector5pin" /><path
       d="m 61.243,98.579 c 0,0.766 0.621,1.387 1.387,1.387 0.766,0 1.387,-0.621 1.387,-1.387 0,-0.766 -0.621,-1.387 -1.387,-1.387 -0.766,0 -1.387,0.622 -1.387,1.387"
       id="connector6pin" /><circle
       cx="69.830002"
       cy="3.4679999"
       r="1.387"
       transform="matrix(1,0,0,-1,0,102.047)"
       id="connector7pin" /><circle
       cx="77.028999"
       cy="3.4679999"
       r="1.387"
       transform="matrix(1,0,0,-1,0,102.047)"
       id="connector8pin" /><circle
       cx="84.228996"
       cy="3.4679999"
       r="1.387"
       transform="matrix(1,0,0,-1,0,102.047)"
       id="connector9pin" /><circle
       cx="91.43"
       cy="3.4679999"
       r="1.387"
       transform="matrix(1,0,0,-1,0,102.047)"
       id="connector10pin" /><circle
       cx="98.629997"
       cy="3.4679999"
       r="1.387"
       transform="matrix(1,0,0,-1,0,102.047)"
       id="connector11pin" /><circle
       cx="105.829"
       cy="3.4679999"
       r="1.387"
       transform="matrix(1,0,0,-1,0,102.047)"
       id="connector12pin" /><circle
       cx="113.029"
       cy="3.4679999"
       r="1.387"
       transform="matrix(1,0,0,-1,0,102.047)"
       id="connector13pin" /><circle
       cx="120.229"
       cy="3.4679999"
       r="1.387"
       transform="matrix(1,0,0,-1,0,102.047)"
       id="connector14pin" /><circle
       cx="127.43"
       cy="3.4679999"
       r="1.387"
       transform="matrix(1,0,0,-1,0,102.047)"
       id="connector15pin" /></g></g><path
   d="m 7.6521279,113.95233 c 0,2.19261 1.7777,3.97062 3.9699201,3.97062 2.19222,0 3.96993,-1.77661 3.96993,-3.97062 0,-2.19399 -1.77909,-3.96923 -3.97131,-3.96923 -2.1908401,0 -3.9685401,1.77663 -3.9685401,3.96923 z m -1.69937,10e-4 c 0,-3.12808 2.54064,-5.66986 5.6687301,-5.66986 3.13379,0 5.66986,2.54178 5.66986,5.66986 0,3.13266 -2.53607,5.66872 -5.66986,5.66872 -3.1280901,0 -5.6687301,-2.53606 -5.6687301,-5.66872 z"
   id="path4254"
   style="fill:#9a916c" /><path
   d="m 3.400158,10.20426 c 0,2.19261 1.7777,3.97062 3.9699205,3.97062 2.1922196,0 3.9699305,-1.77661 3.9699305,-3.97062 0,-2.1939904 -1.7790909,-3.9692304 -3.9713105,-3.9692304 -2.1908405,0 -3.9685405,1.77663 -3.9685405,3.9692304 z m -1.69937,0.001 c 0,-3.1280804 2.54064,-5.6698604 5.6687305,-5.6698604 3.1337905,0 5.6698605,2.54178 5.6698605,5.6698604 0,3.13266 -2.53607,5.66872 -5.6698605,5.66872 -3.1280905,0 -5.6687305,-2.53606 -5.6687305,-5.66872 z"
   id="path4256"
   style="fill:#9a916c" /><path
   d="m 223.6522,113.95233 c 0,2.19261 1.7777,3.97062 3.96992,3.97062 2.19222,0 3.96993,-1.77661 3.96993,-3.97062 0,-2.19399 -1.77909,-3.96923 -3.97131,-3.96923 -2.19084,0 -3.96854,1.77663 -3.96854,3.96923 z m -1.69937,10e-4 c 0,-3.12808 2.54064,-5.66986 5.66873,-5.66986 3.13379,0 5.66985,2.54178 5.66985,5.66986 0,3.13266 -2.53606,5.66872 -5.66985,5.66872 -3.12809,0 -5.66873,-2.53606 -5.66873,-5.66872 z"
   id="path4258"
   style="fill:#9a916c" /><path
   d="m 228.18763,10.20426 c 0,2.19261 1.7777,3.97062 3.96992,3.97062 2.19222,0 3.96993,-1.77661 3.96993,-3.97062 0,-2.1939904 -1.77909,-3.9692304 -3.97131,-3.9692304 -2.19084,0 -3.96854,1.77663 -3.96854,3.9692304 z m -1.69937,0.001 c 0,-3.1280804 2.54064,-5.6698604 5.66873,-5.6698604 3.13379,0 5.66986,2.54178 5.66986,5.6698604 0,3.13266 -2.53607,5.66872 -5.66986,5.66872 -3.12809,0 -5.66873,-2.53606 -5.66873,-5.66872 z"
   id="path3282"
   style="fill:#9a916c" /></svg>