<?xml version="1.0" encoding="utf-8"?>
<!-- Generator: Adobe Illustrator 16.0.0, SVG Export Plug-In . SVG Version: 6.00 Build 0)  -->
<svg version="1.2" baseProfile="tiny"
	 id="svg2" xmlns:rdf="http://www.w3.org/1999/02/22-rdf-syntax-ns#" xmlns:dc="http://purl.org/dc/elements/1.1/" xmlns:cc="http://creativecommons.org/ns#" xmlns:sodipodi="http://sodipodi.sourceforge.net/DTD/sodipodi-0.dtd" xmlns:inkscape="http://www.inkscape.org/namespaces/inkscape" xmlns:svg="http://www.w3.org/2000/svg"
	 xmlns="http://www.w3.org/2000/svg" xmlns:xlink="http://www.w3.org/1999/xlink" x="0px" y="0px" width="56.693px"
	 height="56.693px" viewBox="0 0 56.693 56.693" xml:space="preserve">
<g id="breadboard">
	<path id="PCB" fill="#201D18" d="M7.341,10.905l2.597-4.498l1.047,1.815c0,0,2.473,4.298,6.728,1.839
		c4.256-2.457,1.862-6.8,1.862-6.8l-1.048-1.815l5.23-0.002l9.191-0.015l5.194,0.001l-1.048,1.814c0,0-2.485,4.29,1.769,6.747
		c4.256,2.457,6.818-1.79,6.818-1.79l1.05-1.813l2.615,4.528l4.608,7.954l2.596,4.499h-2.095c0,0-4.957-0.009-4.957,4.906
		c0,4.913,4.957,5.01,4.957,5.01h2.095l-2.611,4.531l-4.586,7.969l-2.596,4.5l-1.049-1.816c0,0-2.473-4.297-6.727-1.84
		c-4.256,2.457-1.861,6.799-1.861,6.799l1.046,1.814l-5.229,0.002l-9.192,0.018l-5.195-0.002l1.048-1.813
		c0,0,2.485-4.291-1.768-6.746c-4.256-2.461-6.819,1.787-6.819,1.787l-1.049,1.814l-2.616-4.529L2.74,37.821l-2.597-4.498h2.095
		c0,0,4.957,0.008,4.957-4.906c0-4.916-4.957-5.012-4.957-5.012H0.144l2.613-4.531L7.341,10.905z"/>
	<g>
		<polygon fill="#C0B098" points="36.954,9.153 33.074,9.153 33.074,19.804 35.013,19.804 35.013,15.607 36.954,15.607 		"/>
		<polygon fill="#C0B098" points="20.554,9.153 24.434,9.153 24.434,19.804 22.494,19.804 22.494,15.607 20.554,15.607 		"/>
		<polygon fill="#C0B098" points="26.871,9.153 30.752,9.153 30.752,15.588 29.759,15.588 29.777,19.804 27.909,19.804 
			27.909,15.588 26.871,15.607 		"/>
	</g>
	<g>
		<polygon fill="#C0B098" points="20.554,47.428 24.434,47.428 24.434,36.778 22.494,36.778 22.494,40.975 20.554,40.975 		"/>
		<polygon fill="#C0B098" points="36.954,47.428 33.074,47.428 33.074,36.778 35.013,36.778 35.013,40.975 36.954,40.975 		"/>
		<polygon fill="#C0B098" points="30.636,47.428 26.756,47.428 26.756,40.995 27.75,40.995 27.73,36.778 29.598,36.778 
			29.598,40.995 30.636,40.975 		"/>
	</g>
	<path id="path10215" fill="#9FC5C5" d="M18.309,33.239l0.042-9.99c0,0,1.067-1.482,2.466-2.928c1.254-1.296,2.968-2.3,2.968-2.3
		l9.363-0.042c0,0,2.193,1.152,3.554,2.554c1.34,1.377,2.342,3.218,2.342,3.218l0.04,9.323c0,0-0.969,1.674-2.047,2.799
		c-1.199,1.252-3.429,2.719-3.429,2.719l-10.075,0.125c0,0-1.252-0.67-2.843-2.299C19.162,34.848,18.309,33.239,18.309,33.239z"/>
	<path id="path10211" fill="#B0D0D1" stroke="#FFFFFF" stroke-width="1.0552" d="M37.888,28.326c0,5.088-4.126,9.215-9.214,9.215
		s-9.214-4.127-9.214-9.215c0-5.091,4.124-9.215,9.214-9.215C33.765,19.114,37.888,23.238,37.888,28.326z"/>

		<rect x="43.313" y="14.161" transform="matrix(0.4999 0.8661 -0.8661 0.4999 38.7286 -33.7799)" fill="#FBBE0E" width="10.605" height="4.972"/>
	
		<rect x="2.785" y="37.563" transform="matrix(0.5001 0.866 -0.866 0.5001 38.7239 13.0199)" fill="#FBBE0E" width="10.6" height="4.971"/>
	
		<rect x="2.783" y="14.16" transform="matrix(0.5001 -0.866 0.866 0.5001 -10.3735 15.3229)" fill="#FBBE0E" width="10.603" height="4.971"/>
	
		<rect x="43.311" y="37.555" transform="matrix(0.4998 -0.8661 0.8661 0.4998 -10.3675 62.1324)" fill="#FBBE0E" width="10.603" height="4.975"/>
	<rect x="23.046" y="2.462" fill="#FBBE0E" width="10.605" height="4.97"/>
	<rect x="23.049" y="49.26" fill="#FBBE0E" width="10.603" height="4.971"/>
	<text transform="matrix(1 0 0 1 40.3074 22.4832)" fill="#FFFFFF" font-family="'OCRAStd'" font-size="4.3471">R+</text>
	<text transform="matrix(1 0 0 1 40.3074 37.7371)" fill="#FFFFFF" font-family="'OCRAStd'" font-size="4.3471">R-</text>
	<text transform="matrix(1 0 0 1 10.8274 22.4822)" fill="#FFFFFF" font-family="'OCRAStd'" font-size="4.3471">B+</text>
	<text transform="matrix(1 0 0 1 10.8274 37.7371)" fill="#FFFFFF" font-family="'OCRAStd'" font-size="4.3471">B-</text>
	<polygon id="connector6" fill="none" points="7.587,34.214 12.888,43.395 8.584,45.88 5.855,41.155 3.283,36.7 	"/>
	<polygon id="connector5" fill="none" points="23.049,49.26 33.651,49.26 33.651,54.231 29.164,54.231 23.049,54.231 	"/>
	<polygon id="connector4" fill="none" points="43.811,43.393 49.111,34.21 53.419,36.696 50.986,40.907 48.118,45.878 	"/>
	<polygon id="connector3" fill="none" points="48.114,10.811 51.488,16.653 53.418,19.995 49.112,22.481 43.809,13.298 	"/>
	<polygon id="connector2" fill="none" points="23.046,2.462 29.028,2.462 33.651,2.462 33.651,7.433 23.046,7.433 	"/>
	<polygon id="connector1" fill="none" points="3.281,19.995 5.948,15.375 8.583,10.812 12.888,13.299 7.586,22.481 	"/>
</g>
</svg>
