<?xml version='1.0' encoding='UTF-8' standalone='no'?>
<!-- Generator: Adobe Illustrator 14.0.0, SVG Export Plug-In . SVG Version: 6.00 Build 43363)  -->
<svg width="75.094742" xmlns:rdf="http://www.w3.org/1999/02/22-rdf-syntax-ns#" x="0px" version="1.1" y="0px" xmlns="http://www.w3.org/2000/svg" height="59.816841" viewBox="0 0 60.075793 47.85347" xmlns:xlink="http://www.w3.org/1999/xlink" xmlns:sodipodi="http://sodipodi.sourceforge.net/DTD/sodipodi-0.dtd" xmlns:cc="http://creativecommons.org/ns#" id="svg" enable-background="new 0 0 54 59.04" xmlns:dc="http://purl.org/dc/elements/1.1/" xml:space="preserve" xmlns:svg="http://www.w3.org/2000/svg" xmlns:inkscape="http://www.inkscape.org/namespaces/inkscape">
 <g id="breadboard">
  <metadata id="metadata3549">
   <rdf:RDF>
    <cc:Work rdf:about="">
     <dc:format>image/svg+xml</dc:format>
     <dc:type rdf:resource="http://purl.org/dc/dcmitype/StillImage"/>
     <dc:title/>
    </cc:Work>
   </rdf:RDF>
  </metadata>
  <defs id="defs3547"/>
  <sodipodi:namedview fit-margin-top="0" fit-margin-left="0" showgrid="false" fit-margin-bottom="0" objecttolerance="10" pagecolor="#ffffff" bordercolor="#666666" id="namedview3545" borderopacity="1" guidetolerance="10" gridtolerance="10" fit-margin-right="0"/>
  <circle cx="4.7379999" cy="7.2340002" style="fill:none" r="1.387" transform="translate(8.7006321,13.05095)"/>
  <circle cx="4.7379999" cy="14.538" style="fill:none" r="1.387" transform="translate(8.7006321,13.05095)"/>
  <circle cx="4.7379999" cy="21.841" style="fill:none" r="1.387" transform="translate(8.7006321,13.05095)"/>
  <circle cx="4.7379999" cy="29.145" style="fill:none" r="1.387" transform="translate(8.7006321,13.05095)"/>
  <rect width="51.099789" x="8.7006321" y="11.393685" height="36.459785" style="fill:#1f7a34" id="rect3406"/>
  <rect width="7.289" x="9.7936325" y="16.695948" height="29.506388" style="fill:none;stroke:#ffffff;stroke-width:0.44315121;stroke-linecap:round;stroke-linejoin:round;stroke-miterlimit:10" id="rect3414" stroke-miterlimit="10"/>
  <g id="g3416" transform="translate(8.7006321,13.05095)">
   <path style="fill:#9a916c" id="path3418" d="m 4.738,4.824 c -1.331,0 -2.409,1.078 -2.409,2.41 0,1.33 1.078,2.41 2.409,2.41 1.33,0 2.41,-1.08 2.41,-2.41 0,-1.332 -1.08,-2.41 -2.41,-2.41 z m 0,3.797 C 3.972,8.621 3.351,8 3.351,7.234 c 0,-0.766 0.621,-1.387 1.387,-1.387 0.767,0 1.388,0.621 1.388,1.387 0,0.766 -0.623,1.387 -1.388,1.387 z"/>
   <circle cx="4.7379999" cy="7.2280002" style="fill:#ffffff" r="1.387" id="hole_6_" d="m 6.1249999,7.2280002 c 0,0.7660189 -0.6209811,1.3869999 -1.387,1.3869999 C 3.971981,8.6150001 3.351,7.9940191 3.351,7.2280002 c 0,-0.766019 0.620981,-1.387 1.3869999,-1.387 0.7660189,0 1.387,0.620981 1.387,1.387 z"/>
  </g>
  <g id="g3421" transform="translate(8.7006321,13.05095)">
   <path style="fill:#9a916c" id="path3423" d="m 4.738,12.127 c -1.331,0 -2.409,1.078 -2.409,2.41 0,1.33 1.078,2.41 2.409,2.41 1.33,0 2.41,-1.08 2.41,-2.41 0,-1.331 -1.08,-2.41 -2.41,-2.41 z m 0,3.797 c -0.766,0 -1.387,-0.621 -1.387,-1.387 0,-0.766 0.621,-1.387 1.387,-1.387 0.767,0 1.388,0.621 1.388,1.387 -0.001,0.766 -0.623,1.387 -1.388,1.387 z"/>
   <circle cx="4.7379999" cy="14.532" style="fill:#ffffff" r="1.387" id="hole_5_" d="m 6.1249999,14.532 c 0,0.766019 -0.6209811,1.387 -1.387,1.387 C 3.971981,15.919 3.351,15.298019 3.351,14.532 c 0,-0.766019 0.620981,-1.387 1.3869999,-1.387 0.7660189,0 1.387,0.620981 1.387,1.387 z"/>
  </g>
  <g id="g3426" transform="translate(8.7006321,13.05095)">
   <path style="fill:#9a916c" id="path3428" d="m 4.738,19.431 c -1.331,0 -2.409,1.078 -2.409,2.41 0,1.33 1.078,2.41 2.409,2.41 1.33,0 2.41,-1.08 2.41,-2.41 0,-1.332 -1.08,-2.41 -2.41,-2.41 z m 0,3.797 c -0.766,0 -1.387,-0.621 -1.387,-1.387 0,-0.766 0.621,-1.387 1.387,-1.387 0.767,0 1.388,0.621 1.388,1.387 -0.001,0.766 -0.623,1.387 -1.388,1.387 z"/>
   <circle cx="4.7379999" cy="21.834999" style="fill:#ffffff" r="1.387" id="hole_4_" d="m 6.1249999,21.834999 c 0,0.766019 -0.6209811,1.387 -1.387,1.387 -0.7660189,0 -1.3869999,-0.620981 -1.3869999,-1.387 0,-0.766019 0.620981,-1.387 1.3869999,-1.387 0.7660189,0 1.387,0.620981 1.387,1.387 z"/>
  </g>
  <g id="g3431" transform="translate(8.7006321,13.05095)">
   <path style="fill:#9a916c" id="path3433" d="m 4.738,26.733 c -1.331,0 -2.409,1.078 -2.409,2.41 0,1.33 1.078,2.41 2.409,2.41 1.33,0 2.41,-1.08 2.41,-2.41 0,-1.331 -1.08,-2.41 -2.41,-2.41 z m 0,3.799 c -0.766,0 -1.387,-0.622 -1.387,-1.389 0,-0.766 0.621,-1.387 1.387,-1.387 0.767,0 1.388,0.621 1.388,1.387 -0.001,0.767 -0.623,1.389 -1.388,1.389 z"/>
   <circle cx="4.7379999" cy="29.139" style="fill:#ffffff" r="1.387" id="hole_3_" d="m 6.1249999,29.139 c 0,0.766019 -0.6209811,1.387 -1.387,1.387 C 3.971981,30.526 3.351,29.905019 3.351,29.139 c 0,-0.766019 0.620981,-1.387 1.3869999,-1.387 0.7660189,0 1.387,0.620981 1.387,1.387 z"/>
  </g>
  <text x="18.046333" y="21.481146" style="font-size:4px;fill:#ffffff;font-family:OCRA" id="text_7_" font-size="4">PON</text>
  <text x="33.291466" y="17.557247" style="font-size:4px;fill:#ffffff;font-family:OCRA" id="text_6_" font-size="4">DCF-77</text>
  <text x="18.462833" y="28.787731" style="font-size:4px;fill:#ffffff;font-family:OCRA" id="text_5_" font-size="4">DATA</text>
  <text x="17.712833" y="36.088531" style="font-size:4px;fill:#ffffff;font-family:OCRA" id="text_4_" font-size="4">GND</text>
  <text x="18.045832" y="43.389347" style="font-size:4px;fill:#ffffff;font-family:OCRA" id="text_3_" font-size="4">VDD</text>
  <g id="g3459" transform="translate(1.4501054,2.2787371)">
   <g id="g3461">
    <g id="g3463" enable-background="new    ">
     <g id="g3465">
      <circle cx="39.525002" cy="29.52" style="fill:#383838" id="circle3467" r="6.9200001" d="m 46.445002,29.52 c 0,3.821811 -3.09819,6.920001 -6.92,6.920001 -3.821811,0 -6.920001,-3.09819 -6.920001,-6.920001 0,-3.82181 3.09819,-6.92 6.920001,-6.92 3.82181,0 6.92,3.09819 6.92,6.92 z"/>
     </g>
     <g id="g3469" enable-background="new    ">
      <g id="g3471">
       <g id="g3473">
        <defs id="defs3475">
         <path id="SVGID_1_" d="m 39.525,22.6 c 0,-0.552 0,-1 0,-1 4.373,0 7.92,3.546 7.92,7.919 0,4.374 -3.547,7.921 -7.92,7.921 -4.375,0 -7.92,-3.547 -7.92,-7.921 0,-4.374 3.545,-7.919 7.92,-7.919 0,0 0,0.448 0,1 -3.82,0 -6.922,3.099 -6.92,6.919 -0.002,3.819 3.1,6.922 6.92,6.921 3.82,0.001 6.92,-3.102 6.92,-6.921 0,-3.82 -3.099,-6.919 -6.92,-6.919 z"/>
        </defs>
        <clipPath id="SVGID_2_">
         <use width="54" x="0" y="0" overflow="visible" height="59.040001" style="overflow:visible" id="use3479" xlink:href="#SVGID_1_"/>
        </clipPath>
        <g id="g3481" enable-background="new    " clip-path="url(#SVGID_2_)">
         <path style="fill:#404040" id="path3483" d="m 39.525,22.6 c 0,-0.552 0,-1 0,-1 4.373,0 7.92,3.546 7.92,7.919 0,4.374 -3.547,7.921 -7.92,7.921 -4.375,0 -7.92,-3.547 -7.92,-7.921 0,-4.374 3.545,-7.919 7.92,-7.919 0,0 0,0.448 0,1 -3.82,0 -6.922,3.099 -6.92,6.919 -0.002,3.819 3.1,6.922 6.92,6.921 3.82,0.001 6.92,-3.102 6.92,-6.921 0,-3.82 -3.099,-6.919 -6.92,-6.919"/>
         <path style="fill:#404040" id="path3485" d="m 39.525,22.6 c -0.118,0.123 -0.397,0.016 -0.567,0.023 -2.071,0.083 -6.351,1.934 -6.351,7.122 0,3.626 3.231,6.755 6.918,6.696 6.811,-0.106 9,-8.016 4.776,-11.927 -2.3,-2.132 -4.764,-1.928 -4.776,-1.914 0,-0.552 0,-1 0,-1 4.373,0 7.92,3.546 7.92,7.919 0,4.374 -3.547,7.921 -7.92,7.921 -4.375,0 -7.92,-3.547 -7.92,-7.921 0,-4.374 3.545,-7.919 7.92,-7.919 0,0 0,0.448 0,1"/>
         <path style="fill:#3f3f3f" id="path3487" d="m 39.525,22.593 c -0.118,0.123 -0.397,0.016 -0.568,0.023 -1.989,0.08 -6.352,1.986 -6.352,7.128 0,3.221 2.842,6.764 6.92,6.7 6.824,-0.107 9.02,-8.025 4.787,-11.94 -2.304,-2.133 -4.775,-1.924 -4.787,-1.911 0,-0.549 0,-0.993 0,-0.993 4.373,0 7.92,3.546 7.92,7.919 0,4.374 -3.547,7.921 -7.92,7.921 -4.375,0 -7.92,-3.547 -7.92,-7.921 0,-4.374 3.545,-7.919 7.92,-7.919 0,0 0,0.444 0,0.993"/>
         <path style="fill:#3d3d3d" id="path3489" d="m 39.525,22.587 c -0.118,0.123 -0.397,0.016 -0.568,0.023 -1.991,0.08 -6.355,1.987 -6.355,7.135 0,3.222 2.844,6.767 6.924,6.703 6.26,-0.1 9.269,-7.424 4.879,-11.875 -2.044,-2.073 -4.866,-2.001 -4.88,-1.986 0,-0.546 0,-0.987 0,-0.987 4.373,0 7.92,3.546 7.92,7.919 0,4.374 -3.547,7.921 -7.92,7.921 -4.375,0 -7.92,-3.547 -7.92,-7.921 0,-4.374 3.545,-7.919 7.92,-7.919 0,0 0,0.441 0,0.987"/>
         <path style="fill:#3c3c3c" id="path3491" d="m 39.525,22.581 c -0.118,0.124 -0.398,0.016 -0.569,0.023 -1.991,0.08 -6.356,1.989 -6.356,7.142 0,3.223 2.844,6.77 6.926,6.706 6.271,-0.098 9.285,-7.431 4.891,-11.888 -2.049,-2.075 -4.878,-1.999 -4.892,-1.983 0,-0.543 0,-0.98 0,-0.98 4.373,0 7.92,3.546 7.92,7.919 0,4.374 -3.547,7.921 -7.92,7.921 -4.375,0 -7.92,-3.547 -7.92,-7.921 0,-4.374 3.545,-7.919 7.92,-7.919 0,-10e-4 0,0.437 0,0.98"/>
         <path style="fill:#3b3b3b" id="path3493" d="m 39.525,22.574 c -0.118,0.124 -0.398,0.016 -0.569,0.023 -1.993,0.08 -6.36,1.991 -6.36,7.148 0,3.224 2.846,6.773 6.93,6.71 6.281,-0.1 9.304,-7.439 4.897,-11.904 -2.048,-2.072 -4.884,-1.992 -4.898,-1.977 0,-0.54 0,-0.974 0,-0.974 4.373,0 7.92,3.546 7.92,7.919 0,4.374 -3.547,7.921 -7.92,7.921 -4.375,0 -7.92,-3.547 -7.92,-7.921 0,-4.374 3.545,-7.919 7.92,-7.919 0,0 0,0.434 0,0.974"/>
         <path style="fill:#3a3a3a" id="path3495" d="m 39.525,22.568 c -0.118,0.123 -0.399,0.016 -0.57,0.022 -1.993,0.08 -6.363,1.992 -6.363,7.154 0,3.225 2.848,6.776 6.934,6.713 6.293,-0.1 9.32,-7.448 4.908,-11.917 -1.993,-2.013 -4.846,-2.038 -4.909,-1.972 0,-0.538 0,-0.968 0,-0.968 4.373,0 7.92,3.546 7.92,7.919 0,4.374 -3.547,7.921 -7.92,7.921 -4.375,0 -7.92,-3.547 -7.92,-7.921 0,-4.374 3.545,-7.919 7.92,-7.919 0,0 0,0.431 0,0.968"/>
         <path style="fill:#383838" id="path3497" d="m 39.525,22.562 c -0.118,0.124 -0.399,0.016 -0.57,0.023 -1.995,0.08 -6.367,1.994 -6.367,7.16 0,3.229 2.85,6.78 6.938,6.716 6.303,-0.1 9.334,-7.457 4.918,-11.927 -1.996,-2.017 -4.856,-2.038 -4.919,-1.972 0,-0.535 0,-0.962 0,-0.962 4.373,0 7.92,3.546 7.92,7.919 0,4.374 -3.547,7.921 -7.92,7.921 -4.375,0 -7.92,-3.547 -7.92,-7.921 0,-4.374 3.545,-7.919 7.92,-7.919 0,0 0,0.427 0,0.962"/>
         <path style="fill:#373737" id="path3499" d="m 39.525,22.556 c -0.119,0.124 -0.399,0.016 -0.571,0.023 -1.995,0.08 -6.369,1.996 -6.369,7.167 0,3.637 3.243,6.777 6.94,6.719 6.31,-0.098 9.348,-7.463 4.926,-11.939 -2.055,-2.081 -4.912,-1.985 -4.926,-1.97 0,-0.532 0,-0.956 0,-0.956 4.373,0 7.92,3.546 7.92,7.919 0,4.374 -3.547,7.921 -7.92,7.921 -4.375,0 -7.92,-3.547 -7.92,-7.921 0,-4.374 3.545,-7.919 7.92,-7.919 0,0 0,0.424 0,0.956"/>
         <path style="fill:#363636" id="path3501" d="m 39.525,22.549 c -0.119,0.124 -0.4,0.016 -0.571,0.023 -1.997,0.08 -6.373,1.997 -6.373,7.173 0,3.64 3.245,6.781 6.944,6.724 6.315,-0.1 9.361,-7.472 4.935,-11.953 -2.056,-2.081 -4.921,-1.982 -4.935,-1.967 0,-0.528 0,-0.949 0,-0.949 4.373,0 7.92,3.546 7.92,7.919 0,4.374 -3.547,7.921 -7.92,7.921 -4.375,0 -7.92,-3.547 -7.92,-7.921 0,-4.374 3.545,-7.919 7.92,-7.919 0,0 0,0.421 0,0.949"/>
         <path style="fill:#343434" id="path3503" d="m 39.525,22.543 c -0.119,0.124 -0.4,0.016 -0.572,0.023 -1.997,0.08 -6.375,1.999 -6.375,7.179 0,3.232 2.854,6.791 6.947,6.727 6.328,-0.097 9.379,-7.478 4.942,-11.965 -2.11,-2.139 -4.928,-1.979 -4.942,-1.964 0,-0.525 0,-0.943 0,-0.943 4.373,0 7.92,3.546 7.92,7.919 0,4.374 -3.547,7.921 -7.92,7.921 -4.375,0 -7.92,-3.547 -7.92,-7.921 0,-4.374 3.545,-7.919 7.92,-7.919 0,0 0,0.418 0,0.943"/>
         <path style="fill:#333333" id="path3505" d="m 39.525,22.537 c -0.119,0.124 -0.4,0.016 -0.572,0.023 -1.998,0.08 -6.379,2 -6.379,7.185 0,3.234 2.854,6.792 6.951,6.73 6.233,-0.096 9.356,-7.732 4.914,-12.017 -2.197,-2.117 -4.901,-1.936 -4.914,-1.921 0,-0.523 0,-0.937 0,-0.937 4.373,0 7.92,3.546 7.92,7.919 0,4.374 -3.547,7.921 -7.92,7.921 -4.375,0 -7.92,-3.547 -7.92,-7.921 0,-4.374 3.545,-7.919 7.92,-7.919 0,0 0,0.414 0,0.937"/>
         <path style="fill:#323232" id="path3507" d="m 39.525,22.53 c -0.119,0.124 -0.401,0.016 -0.573,0.021 -1.999,0.08 -6.382,2.001 -6.382,7.193 0,3.235 2.854,6.795 6.955,6.732 6.203,-0.097 9.313,-7.608 4.969,-11.997 -2.058,-2.074 -4.903,-2.018 -4.969,-1.949 0,-0.521 0,-0.93 0,-0.93 4.373,0 7.92,3.546 7.92,7.919 0,4.374 -3.547,7.921 -7.92,7.921 -4.375,0 -7.92,-3.547 -7.92,-7.921 0,-4.374 3.545,-7.919 7.92,-7.919 0,0 0,0.411 0,0.93"/>
         <path style="fill:#313131" id="path3509" d="m 39.525,22.518 c -0.119,0.125 -0.401,0.017 -0.574,0.024 -2,0.083 -6.385,2.011 -6.385,7.205 0,3.236 2.856,6.798 6.959,6.736 6.218,-0.095 9.338,-7.619 4.981,-12.016 -2.007,-2.029 -4.916,-2.017 -4.981,-1.949 0,-0.514 0,-0.917 0,-0.917 4.373,0 7.92,3.546 7.92,7.919 0,4.374 -3.547,7.921 -7.92,7.921 -4.375,0 -7.92,-3.547 -7.92,-7.921 0,-4.374 3.545,-7.919 7.92,-7.919 0,-10e-4 0,0.403 0,0.917"/>
         <path style="fill:#2f2f2f" id="path3511" d="m 39.525,22.506 c -0.119,0.125 -0.402,0.017 -0.575,0.024 -2,0.085 -6.386,2.02 -6.386,7.216 0,3.238 2.856,6.803 6.961,6.74 6.297,-0.097 9.442,-7.773 4.953,-12.081 -2.208,-2.117 -4.939,-1.914 -4.953,-1.899 0,-0.508 0,-0.906 0,-0.906 4.373,0 7.92,3.546 7.92,7.919 0,4.374 -3.547,7.921 -7.92,7.921 -4.375,0 -7.92,-3.547 -7.92,-7.921 0,-4.374 3.545,-7.919 7.92,-7.919 0,0 0,0.398 0,0.906"/>
         <path style="fill:#2e2e2e" id="path3513" d="m 39.525,22.494 c -0.119,0.125 -0.403,0.018 -0.576,0.025 -2.001,0.087 -6.389,2.029 -6.389,7.227 0,3.239 2.858,6.805 6.965,6.743 6.275,-0.096 9.427,-7.652 5.029,-12.068 -2.023,-2.031 -4.964,-1.996 -5.029,-1.927 0,-0.502 0,-0.894 0,-0.894 4.373,0 7.92,3.546 7.92,7.919 0,4.374 -3.547,7.921 -7.92,7.921 -4.375,0 -7.92,-3.547 -7.92,-7.921 0,-4.374 3.545,-7.919 7.92,-7.919 0,0 0,0.391 0,0.894"/>
         <path style="fill:#2d2d2d" id="path3515" d="m 39.525,22.481 c -0.121,0.125 -0.403,0.019 -0.576,0.026 -2.004,0.091 -6.393,2.039 -6.393,7.238 0,3.241 2.86,6.81 6.969,6.748 6.34,-0.098 9.514,-7.682 5.067,-12.113 -1.979,-1.974 -5.002,-1.966 -5.067,-1.899 0,-0.496 0,-0.881 0,-0.881 4.373,0 7.92,3.546 7.92,7.919 0,4.374 -3.547,7.921 -7.92,7.921 -4.375,0 -7.92,-3.547 -7.92,-7.921 0,-4.374 3.545,-7.919 7.92,-7.919 0,0 0,0.385 0,0.881"/>
         <path style="fill:#2c2c2c" id="path3517" d="m 39.525,22.47 c -0.121,0.125 -0.404,0.021 -0.577,0.027 -2.003,0.093 -6.396,2.048 -6.396,7.25 0,3.244 2.863,6.812 6.974,6.75 6.781,-0.103 9.217,-8.179 5.139,-12.179 -2.006,-1.965 -5.074,-1.918 -5.14,-1.848 0,-0.491 0,-0.87 0,-0.87 4.373,0 7.92,3.546 7.92,7.919 0,4.374 -3.547,7.921 -7.92,7.921 -4.375,0 -7.92,-3.547 -7.92,-7.921 0,-4.374 3.545,-7.919 7.92,-7.919 0,0 0,0.379 0,0.87"/>
         <path style="fill:#2a2a2a" id="path3519" d="m 39.525,22.446 c -0.118,0.125 -0.401,0.024 -0.573,0.035 -2.089,0.126 -6.401,2.067 -6.401,7.265 0,3.245 2.864,6.815 6.975,6.754 7.281,-0.109 9.02,-8.719 5.279,-12.306 -1.804,-1.726 -5.153,-1.882 -5.28,-1.748 0,-0.479 0,-0.846 0,-0.846 4.373,0 7.92,3.546 7.92,7.919 0,4.374 -3.547,7.921 -7.92,7.921 -4.375,0 -7.92,-3.547 -7.92,-7.921 0,-4.374 3.545,-7.919 7.92,-7.919 0,0 0,0.367 0,0.846"/>
         <path style="fill:#292929" id="path3521" d="m 39.525,22.415 c -0.117,0.125 -0.399,0.026 -0.571,0.037 -2.091,0.138 -6.407,2.102 -6.407,7.294 0,3.247 2.866,6.819 6.979,6.756 7.102,-0.106 9.213,-8.875 5.682,-12.388 -1.884,-1.871 -5.664,-1.719 -5.683,-1.699 0,-0.464 0,-0.815 0,-0.815 4.373,0 7.92,3.546 7.92,7.919 0,4.374 -3.547,7.921 -7.92,7.921 -4.375,0 -7.92,-3.547 -7.92,-7.921 0,-4.374 3.545,-7.919 7.92,-7.919 0,0 0,0.351 0,0.815"/>
         <path style="fill:#282828" id="path3523" d="m 39.525,22.369 c -0.09,0.099 -0.312,0.03 -0.444,0.043 -3.817,0.375 -6.688,3.597 -6.537,7.335 0.164,4.037 3.481,6.998 7.556,6.737 6.289,-0.401 7.455,-8.115 6.752,-9.981 0.383,0.93 0.594,1.948 0.594,3.017 0,4.374 -3.545,7.921 -7.92,7.921 -4.373,0 -7.92,-3.547 -7.92,-7.921 0,-4.374 3.547,-7.919 7.92,-7.919 -0.001,-10e-4 -0.001,0.327 -0.001,0.768"/>
         <path style="fill:#262626" id="path3525" d="m 39.525,22.288 c -0.08,0.091 -0.278,0.04 -0.398,0.057 -4.494,0.646 -6.715,4.212 -6.587,7.402 0.163,4.03 3.483,6.994 7.56,6.746 6.037,-0.369 7.291,-7.893 7.211,-8.434 0.09,0.473 0.135,0.961 0.135,1.46 0,4.374 -3.545,7.921 -7.92,7.921 -4.373,0 -7.92,-3.547 -7.92,-7.921 0,-4.374 3.547,-7.919 7.92,-7.919 -0.001,0 -0.001,0.289 -0.001,0.688"/>
         <path style="fill:#252525" id="path3527" d="m 39.525,22.109 c -0.078,0.104 -0.291,0.082 -0.418,0.114 -6.746,1.708 -6.662,6.669 -6.575,7.646 0.426,4.857 4.526,7.145 8.247,6.549 5.015,-0.801 6.662,-7.007 6.664,-7.067 0,0.057 0.002,0.112 0.002,0.169 0,4.374 -3.547,7.921 -7.92,7.921 -4.375,0 -7.92,-3.547 -7.92,-7.921 0,-4.374 3.545,-7.919 7.92,-7.919 0,-10e-4 0,0.204 0,0.508"/>
         <path style="fill:#242424" id="path3529" d="m 39.525,21.657 -1.344,0.677 c -1.521,0.603 -6.142,2.435 -5.613,8.104 0.326,3.504 4.037,6.876 8.33,5.973 0.49,-0.104 1.979,-0.416 3.41,-1.709 1.213,-1.095 3.019,-3.854 3.066,-4.136 -0.514,3.88 -3.832,6.875 -7.854,6.875 -4.373,0 -7.92,-3.547 -7.92,-7.921 0,-4.374 3.547,-7.919 7.92,-7.919 0.005,-10e-4 0.005,0.019 0.005,0.056"/>
         <path style="fill:#232323" id="path3531" d="m 38.49,21.669 c -0.088,0.029 -2.953,1.714 -4.209,3.138 -1.199,1.36 -1.575,2.811 -1.693,3.555 -0.555,3.516 1.518,6.293 3.68,7.387 2.334,1.183 4.449,0.834 5.812,0.336 2.559,-0.938 5.027,-4.277 5.039,-4.309 -0.973,3.273 -4.004,5.664 -7.594,5.664 -4.375,0 -7.92,-3.547 -7.92,-7.921 0,-4.044 3.031,-7.381 6.945,-7.86 -0.017,0.003 -0.042,0.007 -0.06,0.01"/>
         <path style="fill:#212121" id="path3533" d="m 37.073,21.989 c -0.019,0.011 -2.567,2.16 -3.619,3.938 -0.47,0.795 -1.021,2.104 -0.97,3.82 0.099,3.371 2.593,5.83 5.006,6.517 2.248,0.643 3.892,0.072 4.594,-0.17 1.338,-0.465 4.292,-2.648 4.498,-2.979 -1.311,2.564 -3.979,4.322 -7.059,4.322 -4.373,0 -7.92,-3.547 -7.92,-7.921 0,-3.545 2.33,-6.546 5.543,-7.556 -0.022,0.011 -0.05,0.02 -0.073,0.029"/>
         <path style="fill:#282828" id="path3535" d="m 43.625,22.746 c -0.861,-0.451 -2.705,-0.454 -4.102,-0.377 0,-0.441 0,-0.769 0,-0.769 1.533,0 2.965,0.435 4.177,1.189 -0.022,-0.013 -0.052,-0.031 -0.075,-0.043"/>
         <path style="fill:#262626" id="path3537" d="M 42.186,22.061 C 41.932,21.996 41.77,22.002 41.6,22.017 c -0.695,0.06 -1.382,0.19 -2.074,0.271 0,-0.399 0,-0.688 0,-0.688 0.955,0 1.871,0.169 2.721,0.479 -0.02,-0.005 -0.044,-0.014 -0.061,-0.018"/>
         <path style="fill:#252525" id="path3539" d="m 40.95,21.73 c -0.087,-0.006 -0.193,-0.013 -0.401,0.042 -0.348,0.092 -0.677,0.243 -1.023,0.336 0,-0.304 0,-0.509 0,-0.509 0.507,0 1,0.047 1.48,0.138 C 40.99,21.736 40.967,21.732 40.95,21.73"/>
         <path style="fill:#242424" id="path3541" d="m 39.753,21.605 c -0.067,0.007 -0.122,0.012 -0.229,0.052 0,-0.037 0,-0.057 0,-0.057 0.097,0 0.189,10e-4 0.283,0.005 -0.016,0 -0.037,-0.001 -0.054,0"/>
        </g>
       </g>
      </g>
     </g>
    </g>
   </g>
  </g>
  <rect width="60.07579" x="0" y="1.0357871" height="6.0075788" style="fill:#000000;fill-opacity:1;fill-rule:evenodd;stroke:none" id="rect3629"/>
  <rect width="10.979368" x="46.817684" y="-1.4709856e-006" height="8.0791578" style="fill:#aa4400;fill-opacity:1;stroke:none" id="rect4399"/>
  <path style="fill:#782323;fill-opacity:1;stroke:#782323;stroke-width:0.30228138;stroke-miterlimit:4;stroke-opacity:1;stroke-dasharray:none" id="path4415" d="m 57.589896,7.4576818 c 0,9.6123102 -0.207157,9.6123102 -0.207157,9.6123102 l 0,-0.369704"/>
  <path style="fill:#782323;fill-opacity:1;stroke:#782323;stroke-width:0.31999999;stroke-miterlimit:4;stroke-opacity:1;stroke-dasharray:none" id="path4417" d="m 47.024844,7.8719977 3.521684,9.3221083"/>
  <rect width="3.999999960050466" x="11.49181392541821" y="39.72524901913877" fill="none" height="3.999999765952201" id="connector40"/>
  <rect width="3.999999960050466" x="11.26284994301597" y="32.85632988038278" fill="none" height="3.999999765952201" id="connector41"/>
  <rect width="3.999999960050466" x="11.26284994301597" y="25.52948279904308" fill="none" height="3.999999765952204" id="connector42"/>
  <rect width="3.999999960050466" x="11.26284994301597" y="18.20263571770336" fill="none" height="3.999999765952201" id="connector43"/>
 </g>
</svg>
