<?xml version='1.0' encoding='UTF-8' standalone='no'?>
<svg xmlns="http://www.w3.org/2000/svg"  width="0.8in" x="0in" version="1.2" y="0in" height="0.33in" viewBox="0 0 800 330" id="0">
 <desc   id="0.0">
  <referenceFile   id="0.0.0">mcp3008_breadboard.svg</referenceFile>
 </desc>
 <metadata   id="0.1" oldid="metadata4692">
  <rdf:RDF xmlns:rdf="http://www.w3.org/1999/02/22-rdf-syntax-ns#"  id="0.1.0">
   <cc:Work xmlns:cc="http://creativecommons.org/ns#"  rdf:about="" xmlns:rdf="http://www.w3.org/1999/02/22-rdf-syntax-ns#" id="0.1.0.0">
    <dc:format xmlns:dc="http://purl.org/dc/elements/1.1/"  id="0.1.0.0.0">image/svg+xml</dc:format>
    <dc:type xmlns:dc="http://purl.org/dc/elements/1.1/"  id="0.1.0.0.1" rdf:resource="http://purl.org/dc/dcmitype/StillImage" xmlns:rdf="http://www.w3.org/1999/02/22-rdf-syntax-ns#"/>
    <dc:title xmlns:dc="http://purl.org/dc/elements/1.1/"  id="0.1.0.0.2"/>
   </cc:Work>
  </rdf:RDF>
 </metadata>
 <defs   id="0.2" oldid="defs4690"/>
 <g   id="breadboard">
  <rect  width="800" x="0" y="30" fill="#303030"  height="270" id="middle" stroke-width="0"/>
  <rect  width="800" x="0" y="30" fill="#3D3D3D"  height="24.6" id="top" stroke-width="0"/>
  <rect  width="800" x="0" y="275.4" fill="#000000"  height="24.6" id="bottom" stroke-width="0"/>
  <polygon  fill="#141414" points="800,30,792.5,54.6,792.5,275.4,800,300"  id="right" stroke-width="0"/>
  <polygon  fill="#1F1F1F" points="0,30,7.5,54.6,7.5,275.4,0,300"  id="left" stroke-width="0"/>
  <polygon  fill="#1C1C1C" points="50,115,7.5,114.6,5.6,135.8,5.6,165,50,165"  id="left-upper-rect" stroke-width="0"/>
  <polygon  fill="#383838" points="7.5,215.5,50,215.5,50,165,5.6,165,5.6,194.2"  id="left-lower-rect" stroke-width="0"/>
  <path  fill="#262626"  id="slot" stroke-width="0" d="M5.6,135.8l0,58.3c14.7,-1.7,26.2,-14,26.2,-29.2C31.8,149.7,20.4,137.5,5.6,135.8z"/>
  <path  fill="#303030"  id="cover" stroke-width="0" d="M7.5,54.6L7.5,114.5c23.8,4.5,41.9,25.3,41.9,50.4c0,25.1,-18,46,-41.9,50.5L7.5,215.5l50,0L57.5,54.6L7.5,54.6z"/>
  <circle  fill="#212121" cx="65"  cy="234.7" r="20.6" id="circle4621" stroke-width="0"/>
  <g  fill="#e6e6e6"  stroke="none" style="text-anchor:start;font-family:OCRA" id="label" font-size="1604.94">
   <text  x="54.9729" y="209.44446"  style="font-size:133.33333333px" id="tspan4713">MCP3008</text>
  </g>
  <rect  width="30" x="35" y="286.6" fill="#8C8C8C"  height="43.4" id="connector0pin" stroke-width="0"/>
  <rect  width="30" x="35" y="300" fill="#8C8C8C"  height="30" id="connector0terminal" stroke-width="0"/>
  <polygon  fill="#8C8C8C" points="35,286.6,35,306.6,65,306.6,85,297.4,85,286.6"  id="polygon4626" stroke-width="0"/>
  <rect  width="30" x="35" y="0" fill="#8C8C8C"  height="43.4" id="connector15pin" stroke-width="0"/>
  <rect  width="30" x="35" y="0" fill="#8C8C8C"  height="30" id="connector15terminal" stroke-width="0"/>
  <polygon  fill="#8C8C8C" points="85,43.4,85,32.6,65,23.4,35,23.4,35,43.4"  id="polygon4630" stroke-width="0"/>
  <rect  width="30" x="735" y="286.6" fill="#8C8C8C"  height="43.4" id="connector7pin" stroke-width="0"/>
  <rect  width="30" x="735" y="300" fill="#8C8C8C"  height="30" id="connector7terminal" stroke-width="0"/>
  <polygon  fill="#8C8C8C" points="715,286.6,715,297.4,735,306.6,765,306.6,765,286.6"  id="polygon4634" stroke-width="0"/>
  <rect  width="30" x="735" y="0" fill="#8C8C8C"  height="43.4" id="connector8pin" stroke-width="0"/>
  <rect  width="30" x="735" y="0" fill="#8C8C8C"  height="30" id="connector8terminal" stroke-width="0"/>
  <polygon  fill="#8C8C8C" points="765,43.4,765,23.4,735,23.4,715,32.6,715,43.4"  id="polygon4638" stroke-width="0"/>
  <rect  width="30" x="135" y="286.6" fill="#8C8C8C"  height="43.4" id="connector1pin" stroke-width="0"/>
  <rect  width="30" x="135" y="300" fill="#8C8C8C"  height="30" id="connector1terminal" stroke-width="0"/>
  <polygon  fill="#8C8C8C" points="115,286.6,115,297.4,135,306.6,165,306.6,185,297.4,185,286.6"  id="polygon4642" stroke-width="0"/>
  <rect  width="30" x="135" y="0" fill="#8C8C8C"  height="43.4" id="connector14pin" stroke-width="0"/>
  <rect  width="30" x="135" y="0" fill="#8C8C8C"  height="30" id="connector14terminal" stroke-width="0"/>
  <polygon  fill="#8C8C8C" points="185,43.4,185,32.6,165,23.4,135,23.4,115,32.6,115,43.4"  id="polygon4646" stroke-width="0"/>
  <rect  width="30" x="235" y="286.6" fill="#8C8C8C"  height="43.4" id="connector2pin" stroke-width="0"/>
  <rect  width="30" x="235" y="300" fill="#8C8C8C"  height="30" id="connector2terminal" stroke-width="0"/>
  <polygon  fill="#8C8C8C" points="215,286.6,215,297.4,235,306.6,265,306.6,285,297.4,285,286.6"  id="polygon4650" stroke-width="0"/>
  <rect  width="30" x="235" y="0" fill="#8C8C8C"  height="43.4" id="connector13pin" stroke-width="0"/>
  <rect  width="30" x="235" y="0" fill="#8C8C8C"  height="30" id="connector13terminal" stroke-width="0"/>
  <polygon  fill="#8C8C8C" points="285,43.4,285,32.6,265,23.4,235,23.4,215,32.6,215,43.4"  id="polygon4654" stroke-width="0"/>
  <rect  width="30" x="335" y="286.6" fill="#8C8C8C"  height="43.4" id="connector3pin" stroke-width="0"/>
  <rect  width="30" x="335" y="300" fill="#8C8C8C"  height="30" id="connector3terminal" stroke-width="0"/>
  <polygon  fill="#8C8C8C" points="315,286.6,315,297.4,335,306.6,365,306.6,385,297.4,385,286.6"  id="polygon4658" stroke-width="0"/>
  <rect  width="30" x="335" y="0" fill="#8C8C8C"  height="43.4" id="connector12pin" stroke-width="0"/>
  <rect  width="30" x="335" y="0" fill="#8C8C8C"  height="30" id="connector12terminal" stroke-width="0"/>
  <polygon  fill="#8C8C8C" points="385,43.4,385,32.6,365,23.4,335,23.4,315,32.6,315,43.4"  id="polygon4662" stroke-width="0"/>
  <rect  width="30" x="435" y="286.6" fill="#8C8C8C"  height="43.4" id="connector4pin" stroke-width="0"/>
  <rect  width="30" x="435" y="300" fill="#8C8C8C"  height="30" id="connector4terminal" stroke-width="0"/>
  <polygon  fill="#8C8C8C" points="415,286.6,415,297.4,435,306.6,465,306.6,485,297.4,485,286.6"  id="polygon4666" stroke-width="0"/>
  <rect  width="30" x="435" y="0" fill="#8C8C8C"  height="43.4" id="connector11pin" stroke-width="0"/>
  <rect  width="30" x="435" y="0" fill="#8C8C8C"  height="30" id="connector11terminal" stroke-width="0"/>
  <polygon  fill="#8C8C8C" points="485,43.4,485,32.6,465,23.4,435,23.4,415,32.6,415,43.4"  id="polygon4670" stroke-width="0"/>
  <rect  width="30" x="535" y="286.6" fill="#8C8C8C"  height="43.4" id="connector5pin" stroke-width="0"/>
  <rect  width="30" x="535" y="300" fill="#8C8C8C"  height="30" id="connector5terminal" stroke-width="0"/>
  <polygon  fill="#8C8C8C" points="515,286.6,515,297.4,535,306.6,565,306.6,585,297.4,585,286.6"  id="polygon4674" stroke-width="0"/>
  <rect  width="30" x="535" y="0" fill="#8C8C8C"  height="43.4" id="connector10pin" stroke-width="0"/>
  <rect  width="30" x="535" y="0" fill="#8C8C8C"  height="30" id="connector10terminal" stroke-width="0"/>
  <polygon  fill="#8C8C8C" points="585,43.4,585,32.6,565,23.4,535,23.4,515,32.6,515,43.4"  id="polygon4678" stroke-width="0"/>
  <rect  width="30" x="635" y="286.6" fill="#8C8C8C"  height="43.4" id="connector6pin" stroke-width="0"/>
  <rect  width="30" x="635" y="300" fill="#8C8C8C"  height="30" id="connector6terminal" stroke-width="0"/>
  <polygon  fill="#8C8C8C" points="615,286.6,615,297.4,635,306.6,665,306.6,685,297.4,685,286.6"  id="polygon4682" stroke-width="0"/>
  <rect  width="30" x="635" y="0" fill="#8C8C8C"  height="43.4" id="connector9pin" stroke-width="0"/>
  <rect  width="30" x="635" y="0" fill="#8C8C8C"  height="30" id="connector9terminal" stroke-width="0"/>
  <polygon  fill="#8C8C8C" points="685,43.4,685,32.6,665,23.4,635,23.4,615,32.6,615,43.4"  id="polygon4686" stroke-width="0"/>
 </g>
</svg>
