<?xml version='1.0' encoding='utf-8'?>
<!DOCTYPE svg>
<!-- Generator: Adobe Illustrator 16.0.0, SVG Export Plug-In . SVG Version: 6.00 Build 0)  -->
<svg xmlns="http://www.w3.org/2000/svg"  width="0.945861in" xml:space="preserve" xmlns:xml="http://www.w3.org/XML/1998/namespace" x="0px" version="1.1" y="0px" height="1.25893in" viewBox="0 0 68.102 90.643" id="0" enable-background="new -0.792 -2.088 68.102 90.643">
 <g   id="0.0" transform="translate(0.792,2.088)">
  <g   id="0.0.0">
   <g   id="0.0.0.0">
    <path  fill="#676666"  id="0.0.0.0.0" d="M64.931,30.447c-0.353,0.3-0.352,0.696-0.35,1.117c0.014,2.303,0.004,4.604,0.008,6.907c0.001,0.412,0.025,0.824,0.046,1.235c0.011,0.226,0.373,0.614,0.591,0.58c0.504-0.079,0.928,0.181,1.391,0.271c0.087,0.017,0.107,0.065,0.107,0.14c0.002,0.077,0,0.154,0,0.231c0,15.152,0,30.305,0.008,45.458c0,0.396-0.266,0.587-0.51,0.735c-0.219,0.132-0.408,0.277-0.578,0.452c-0.117,0.121-0.24,0.182-0.406,0.168c-0.096-0.009-0.192-0.003-0.289-0.003c-20.903,0-41.806-0.001-62.709,0.007c-0.328,0-0.521-0.205-0.743-0.37c-0.228-0.171-0.382-0.434-0.65-0.561c-0.08-0.038-0.069-0.108-0.071-0.173c-0.003-0.154,0-0.309,0-0.463c0-17.792,0-35.584,0-53.375c0-0.413,0.051-0.466,0.474-0.485c0.096-0.004,0.192,0,0.289-0.001c0.343-0.003,0.575-0.229,0.576-0.567c0.001-0.896,0.001-1.792,0-2.688c0-0.342-0.123-0.456-0.47-0.464C1.365,28.592,1,28.716,0.833,28.553c-0.181-0.177-0.057-0.546-0.057-0.831C0.773,22.588,0.775,17.454,0.769,12.32c0-0.212,0.062-0.354,0.216-0.497c0.601-0.557,1.17-1.147,1.785-1.687c0.992-0.869,1.906-1.821,2.895-2.691c0.794-0.698,1.529-1.461,2.322-2.159C8.99,4.4,9.924,3.443,10.921,2.553c0.509-0.455,1.001-0.925,1.499-1.391c0.09-0.084,0.178-0.142,0.305-0.125c0.057,0.007,0.115,0.001,0.173,0.001c17.329,0,34.66,0,51.988-0.004c0.248,0,0.447,0.087,0.61,0.261c0.349,0.372,0.731,0.706,1.12,1.034c0.086,0.072,0.111,0.141,0.107,0.242c-0.006,0.184-0.002,0.366-0.002,0.55c0,6.029,0,12.06,0,18.09c0,0.115-0.006,0.23-0.009,0.346c-0.104-0.002-0.21,0.007-0.313-0.007c-0.369-0.05-0.7,0.197-0.713,0.563c-0.006,0.183-0.041,0.356-0.063,0.534c-0.066,0.003-0.137,0.016-0.201,0.009c-0.587-0.059-0.835,0.17-0.835,0.771c0,1.066-0.012,2.133,0.004,3.199c0.017,1.052-0.077,2.106,0.103,3.157C64.737,30.028,64.712,30.274,64.931,30.447z M9.964,16.443c0-1.667-0.003-3.333,0.004-5c0.001-0.214-0.038-0.296-0.279-0.295c-1.763,0.012-3.526,0.012-5.289,0c-0.241-0.001-0.279,0.081-0.279,0.295c0.006,3.333,0.007,6.667-0.002,10c-0.001,0.251,0.08,0.295,0.31,0.294c1.744-0.009,3.487-0.012,5.23,0.002c0.271,0.003,0.311-0.085,0.309-0.324C9.959,19.756,9.964,18.099,9.964,16.443z M25.339,10.344c0,1.772,0.003,3.545-0.004,5.317c-0.001,0.214,0.038,0.297,0.279,0.295c1.628-0.013,3.256-0.013,4.884,0c0.241,0.001,0.279-0.081,0.279-0.295c-0.006-3.525-0.007-7.052,0.001-10.577c0.001-0.251-0.079-0.295-0.309-0.294c-1.609,0.01-3.218,0.013-4.826-0.002c-0.271-0.002-0.311,0.085-0.309,0.324C25.343,6.857,25.339,8.601,25.339,10.344z M51.638,10.344c0-1.753-0.003-3.506,0.006-5.26c0-0.214-0.039-0.297-0.279-0.295c-1.629,0.012-3.256,0.012-4.885,0C46.237,4.788,46.2,4.871,46.2,5.085c0.006,3.506,0.008,7.013-0.002,10.52c0,0.251,0.08,0.295,0.31,0.294c1.609-0.01,3.218-0.013,4.826,0.002c0.271,0.002,0.312-0.085,0.31-0.324C51.634,13.832,51.638,12.088,51.638,10.344z M23.72,10.417c0-1.772-0.004-3.545,0.005-5.317c0.001-0.229-0.042-0.312-0.294-0.31c-1.599,0.012-3.198,0.012-4.797,0c-0.252-0.002-0.295,0.08-0.294,0.31c0.007,3.535,0.007,7.071,0,10.606c0,0.229,0.042,0.312,0.294,0.31c1.599-0.013,3.198-0.013,4.797,0c0.252,0.001,0.295-0.08,0.294-0.31C23.716,13.943,23.72,12.179,23.72,10.417z M11.583,10.446c0,1.772,0.004,3.546-0.005,5.317c-0.001,0.23,0.042,0.313,0.294,0.31c1.599-0.012,3.198-0.012,4.797,0c0.252,0.003,0.295-0.079,0.294-0.31c-0.007-3.536-0.007-7.071,0-10.606c0-0.229-0.042-0.312-0.294-0.31c-1.599,0.012-3.198,0.012-4.797,0c-0.252-0.002-0.295,0.08-0.294,0.31C11.586,6.92,11.583,8.683,11.583,10.446z M37.767,10.344c0-1.753-0.004-3.506,0.004-5.26c0.002-0.214-0.037-0.297-0.278-0.295c-1.628,0.012-3.257,0.012-4.884,0c-0.241-0.001-0.279,0.081-0.279,0.295c0.006,3.486,0.007,6.975-0.002,10.461c0,0.252,0.079,0.296,0.31,0.294c1.609-0.01,3.217-0.013,4.826,0.002c0.271,0.002,0.312-0.085,0.31-0.326C37.763,13.793,37.767,12.069,37.767,10.344z M44.702,10.316c0-1.744-0.004-3.486,0.004-5.229c0.001-0.214-0.037-0.297-0.277-0.296c-1.629,0.012-3.257,0.012-4.885,0c-0.24-0.002-0.279,0.08-0.279,0.295c0.006,3.486,0.008,6.974-0.002,10.461c0,0.251,0.079,0.296,0.311,0.294c1.607-0.01,3.217-0.013,4.826,0.002c0.27,0.002,0.31-0.085,0.309-0.325C44.696,13.784,44.702,12.05,44.702,10.316z M53.198,10.27c0,1.744,0.003,3.487-0.004,5.231c-0.002,0.202,0.029,0.285,0.262,0.283c1.368-0.013,2.736-0.01,4.104-0.003c0.188,0.002,0.269-0.031,0.268-0.246c-0.008-3.497-0.008-6.994,0-10.491c0-0.209-0.067-0.253-0.264-0.252c-1.367,0.007-2.734,0.009-4.104-0.001c-0.225-0.002-0.268,0.068-0.268,0.277C53.202,6.802,53.198,8.536,53.198,10.27z M62.679,10.303c0-1.744-0.004-3.487,0.004-5.231c0-0.2-0.029-0.285-0.263-0.282c-1.116,0.013-2.235,0.01-3.353,0.002C58.879,4.79,58.799,4.823,58.8,5.039c0.008,3.497,0.006,6.994,0,10.489c-0.001,0.209,0.066,0.255,0.264,0.252c1.117-0.009,2.233-0.011,3.352,0.001c0.227,0.003,0.27-0.069,0.268-0.277C62.674,13.771,62.679,12.037,62.679,10.303z"/>
    <path  fill="#030303"  id="0.0.0.0.1" d="M64.931,30.447c-0.219-0.172-0.193-0.418-0.234-0.661c-0.18-1.051-0.086-2.105-0.102-3.157c-0.017-1.066-0.005-2.133-0.005-3.199c0-0.602,0.248-0.829,0.835-0.771c0.065,0.006,0.135-0.006,0.201-0.01c0.176,0.06,0.298,0.172,0.342,0.356c0.021,0.09,0.063,0.16,0.152,0.193c0.301,0.113,0.367,0.344,0.365,0.645c-0.01,1.549-0.004,3.099-0.006,4.648c0,0.388,0.056,0.786-0.17,1.142c-0.011,0.013-0.021,0.021-0.035,0.029c-0.082-0.018-0.135,0.003-0.133,0.099c-0.132,0.146-0.14,0.338-0.189,0.514c-0.081-0.011-0.117,0.024-0.105,0.105C65.547,30.482,65.233,30.392,64.931,30.447z"/>
    <path  fill="#656464"  id="0.0.0.0.2" d="M66.31,29.633c0.227-0.355,0.17-0.753,0.172-1.142c0.002-1.55-0.004-3.1,0.006-4.648c0.002-0.3-0.065-0.531-0.366-0.645c-0.091-0.033-0.131-0.104-0.151-0.193c-0.045-0.185-0.166-0.297-0.343-0.356c0.022-0.178,0.058-0.352,0.063-0.534c0.012-0.366,0.344-0.614,0.713-0.563c0.103,0.014,0.207,0.005,0.313,0.007c-0.025,0.188-0.191,0.119-0.292,0.143c-0.571,0.131-0.7,0.451-0.475,0.993c0.131,0.314,0.295,0.481,0.62,0.537c0.162,0.028,0.156,0.186,0.156,0.326c-0.002,1.723-0.002,3.446-0.002,5.169c0,0.154,0,0.309,0,0.462C66.724,29.598,66.724,29.599,66.31,29.633z"/>
    <path  fill="#656464"  id="0.0.0.0.3" d="M66.144,29.76c-0.002-0.095,0.051-0.116,0.131-0.099C66.278,29.758,66.202,29.748,66.144,29.76z"/>
    <path  fill="#676666"  id="0.0.0.0.4" d="M65.847,30.38c-0.012-0.082,0.024-0.117,0.105-0.105C65.991,30.385,65.957,30.421,65.847,30.38z"/>
    <path  fill="#FABD0E"  id="connector0pin" d="M9.964,16.443c0,1.657-0.005,3.313,0.005,4.972c0.001,0.239-0.039,0.328-0.309,0.324c-1.743-0.015-3.487-0.012-5.23-0.002c-0.23,0.001-0.311-0.042-0.31-0.294c0.009-3.333,0.008-6.667,0.002-10c0-0.214,0.038-0.296,0.279-0.295c1.763,0.012,3.525,0.012,5.289,0c0.241-0.001,0.28,0.081,0.279,0.295C9.96,13.109,9.964,14.776,9.964,16.443z"/>
    <path  fill="#FABD0E"  id="connector3pin" d="M25.339,10.344c0-1.744,0.004-3.487-0.005-5.231c-0.001-0.239,0.039-0.327,0.309-0.324C27.251,4.803,28.86,4.8,30.469,4.79c0.23-0.001,0.31,0.043,0.309,0.294c-0.009,3.525-0.007,7.052-0.001,10.577c0,0.214-0.038,0.297-0.279,0.295c-1.628-0.013-3.256-0.013-4.884,0c-0.241,0.001-0.28-0.081-0.279-0.295C25.342,13.889,25.339,12.117,25.339,10.344z"/>
    <path  fill="#FABD0E"  id="connector6pin" d="M51.638,10.344c0,1.744-0.004,3.487,0.006,5.231c0.002,0.239-0.037,0.327-0.31,0.324c-1.608-0.015-3.217-0.012-4.826-0.002c-0.229,0.001-0.31-0.043-0.31-0.294c0.01-3.506,0.008-7.013,0.002-10.52c0-0.214,0.037-0.297,0.279-0.295c1.627,0.012,3.256,0.012,4.883,0c0.242-0.001,0.281,0.081,0.279,0.295C51.635,6.838,51.638,8.591,51.638,10.344z"/>
    <path  fill="#FABD0E"  id="connector2pin" d="M23.72,10.417c0,1.763-0.004,3.525,0.005,5.289c0.001,0.229-0.042,0.312-0.294,0.31c-1.599-0.013-3.198-0.013-4.797,0c-0.251,0.001-0.294-0.08-0.294-0.31c0.007-3.535,0.007-7.071,0-10.606c0-0.229,0.042-0.312,0.294-0.31c1.599,0.012,3.198,0.012,4.797,0c0.252-0.002,0.295,0.08,0.294,0.31C23.716,6.872,23.72,8.644,23.72,10.417z"/>
    <path  fill="#FABD0E"  id="connector1pin" d="M11.583,10.446c0-1.763,0.004-3.525-0.005-5.289c-0.001-0.229,0.042-0.312,0.294-0.31c1.599,0.012,3.198,0.012,4.797,0c0.251-0.002,0.294,0.08,0.294,0.31c-0.007,3.536-0.007,7.071,0,10.606c0,0.23-0.042,0.313-0.294,0.31c-1.599-0.012-3.198-0.012-4.797,0c-0.252,0.003-0.295-0.079-0.294-0.31C11.586,13.99,11.583,12.218,11.583,10.446z"/>
    <path  fill="#FABD0E"  id="connector4pin" d="M37.767,10.344c0,1.725-0.004,3.449,0.006,5.173c0,0.24-0.039,0.328-0.311,0.326c-1.607-0.015-3.217-0.012-4.826-0.002c-0.23,0.001-0.31-0.042-0.31-0.294c0.009-3.487,0.008-6.975,0.002-10.461c0-0.214,0.038-0.297,0.279-0.295c1.628,0.012,3.255,0.012,4.884,0c0.24-0.001,0.279,0.081,0.279,0.295C37.763,6.838,37.767,8.591,37.767,10.344z"/>
    <path  fill="#FABD0E"  id="connector5pin" d="M44.702,10.316c0,1.734-0.006,3.469,0.005,5.202c0.001,0.24-0.039,0.328-0.31,0.325c-1.608-0.015-3.217-0.012-4.826-0.002c-0.229,0.001-0.311-0.043-0.309-0.294c0.008-3.487,0.008-6.976,0.002-10.461c-0.002-0.215,0.037-0.297,0.278-0.295c1.628,0.011,3.256,0.011,4.884,0c0.241-0.001,0.279,0.082,0.278,0.296C44.698,6.828,44.702,8.572,44.702,10.316z"/>
    <path  fill="#FABD0E"  id="connector7pin" d="M53.198,10.27c0-1.733,0.004-3.468-0.004-5.202c-0.002-0.208,0.041-0.279,0.267-0.277c1.368,0.011,2.735,0.009,4.104,0.001c0.194-0.001,0.263,0.042,0.263,0.252c-0.007,3.497-0.007,6.994,0,10.491c0.001,0.215-0.078,0.247-0.267,0.246c-1.369-0.007-2.736-0.01-4.104,0.003c-0.231,0.002-0.263-0.081-0.263-0.283C53.201,13.757,53.198,12.013,53.198,10.27z"/>
    <path  fill="#FABD0E"  id="connector8pin" d="M62.679,10.303c0,1.734-0.005,3.468,0.004,5.202c0.002,0.208-0.041,0.281-0.268,0.278c-1.117-0.013-2.234-0.011-3.352-0.002c-0.196,0.002-0.265-0.043-0.264-0.252c0.006-3.496,0.008-6.993,0-10.489c-0.001-0.217,0.078-0.249,0.268-0.248C60.185,4.8,61.304,4.803,62.42,4.79c0.231-0.003,0.263,0.082,0.263,0.282C62.675,6.816,62.679,8.56,62.679,10.303z"/>
   </g>
  </g>
  <desc   id="0.0.1" oldid="0.0.1">
   <referenceFile   id="0.0.1.0" oldid="0.0.1.0">microSD-socket.svg</referenceFile>
  </desc>
  <desc   id="0.0.2" oldid="0.0.2">Fritzing breadboard generated by brd2svg</desc>
  <text  fill="#FFFFFF" font-family="Droid Sans"  id="0.0.3" transform="matrix(-4.371139e-008 -1 1 -4.371139e-008 8.1685 28.8035)" font-size="4">N/A</text>
  <text  fill="#FFFFFF" font-family="Droid Sans"  id="0.0.4" transform="matrix(-4.371139e-008 -1 1 -4.371139e-008 16.5688 26.6433)" font-size="4">CS</text>
  <text  fill="#FFFFFF" font-family="Droid Sans"  id="0.0.5" transform="matrix(-4.371139e-008 -1 1 -4.371139e-008 22.5688 37.9392)" font-size="4">DI / MOSI</text>
  <text  fill="#FFFFFF" font-family="Droid Sans"  id="0.0.6" transform="matrix(-4.371139e-008 -1 1 -4.371139e-008 29.7681 30.2312)" font-size="4">GND</text>
  <text  fill="#FFFFFF" font-family="Droid Sans"  id="0.0.7" transform="matrix(-4.371139e-008 -1 1 -4.371139e-008 36.9678 41.8396)" font-size="4">VCC / +3.3V</text>
  <text  fill="#FFFFFF" font-family="Droid Sans"  id="0.0.8" transform="matrix(-4.371139e-008 -1 1 -4.371139e-008 44.1689 30.699)" font-size="4">SCLK</text>
  <text  fill="#FFFFFF" font-family="Droid Sans"  id="0.0.9" transform="matrix(-4.371139e-008 -1 1 -4.371139e-008 51.3682 30.2312)" font-size="4">GND</text>
  <text  fill="#FFFFFF" font-family="Droid Sans"  id="0.0.10" transform="matrix(-4.371139e-008 -1 1 -4.371139e-008 57.3682 39.739)" font-size="4">DO / MISO</text>
  <text  fill="#FFFFFF" font-family="Droid Sans"  id="0.0.11" transform="matrix(-4.371139e-008 -1 1 -4.371139e-008 62.1689 28.8035)" font-size="4">N/A</text>
  <g   id="layer1" transform="translate(48.1805,-428.3616)">
   <g   id="g19013" transform="translate(3.541339,3.537934)">
    <path  fill="#231F20"  id="path15576" d="M-20.558,489.626c0.526-2.295-1.479-3.368-3.855-4.081c-1.616-0.477-4.542-1.14-4.542-1.714c0-0.734,1.963-0.711,3.329-0.752c1.496-0.039,7.266-0.048,7.266-0.048l0.728-2.077c0,0-4.154-0.112-8.269,0.09c-5.94,0.299-7.047,1.615-7.185,2.877c-0.178,1.634,2.029,2.765,3.362,3.281c1.269,0.484,3.29,0.84,3.29,1.472c0,0.51-0.76,0.549-2.95,0.51c-3.386-0.064-6.239-0.396-6.239-0.396l-1.326,3.67c0,0,3.233,0.228,6.677,0.228C-25.359,492.682-21.301,492.868-20.558,489.626"/>
    <path  fill="#231F20"  id="path15578" d="M-10.592,484.777c0.04,0.089,0.072,0.17,0.088,0.259c0.049,0.339-0.088,0.678-0.402,1.002c-0.324,0.324-0.824,0.631-1.455,0.896c-0.639,0.274-1.422,0.502-2.295,0.68c-0.881,0.169-2.354,0.314-3.371,0.348l-1.666,4.695c3.847-0.169,14.492-0.129,18.582-5.213c0.519-0.809,0.606-1.641,0.162-2.449c-0.494-0.913-1.438-1.616-2.578-2.182l-7.152,1.802C-10.649,484.672-10.615,484.729-10.592,484.777"/>
    <path  fill="#231F20"  id="path15580" d="M-11.19,484.13c0.031,0.025,0.056,0.05,0.097,0.073l6.046-2.005c-0.412-0.177-0.986-0.388-1.406-0.5l-5.238,2.109C-11.546,483.88-11.313,484.049-11.19,484.13"/>
    <path  fill="#231F20"  id="path15582" d="M-12.912,483.426l3.573-2.224c-0.864-0.121-1.584-0.178-2.005-0.192c-1.674-0.04-2.335-0.072-4.188-0.064l-0.742,2.094c0.461,0.007,0.662-0.009,1.438,0.064C-14.132,483.169-13.485,483.282-12.912,483.426"/>
    <path  fill="#231F20"  id="path15584" d="M-3.981,497.692h-10.814c-0.42,0.023-0.518,0.153-0.518,0.485v2.351c0,0.325,0.098,0.463,0.518,0.478h10.814v1.771h-12.002c-0.938,0-1.439-0.354-1.439-1.13v-4.591c0-0.77,0.501-1.124,1.439-1.124h12.002V497.692z M-20.121,502.775h-2.094v-2.537h-9.238v2.537h-2.11v-6.845h2.11v2.537h9.238v-2.537h2.094V502.775z M-2.237,494.379h-33.104c-0.776,0-1.415,0.639-1.415,1.415v7.12c0,0.775,0.639,1.415,1.415,1.415h33.104c0.776,0,1.408-0.64,1.408-1.415v-7.12C-0.828,495.016-1.459,494.379-2.237,494.379"/>
    <path  fill="#231F20"  id="path15586" d="M-0.029,483.079l0.268-1.857h0.6l0.039-0.274h-1.496l-0.039,0.274h0.598l-0.268,1.857H-0.029z"/>
    <path  fill="#231F20"  id="path15588" d="M3.051,483.079v-2.133H2.776L2,482.401l-0.332-1.455H1.426l-0.703,2.133h0.285l0.523-1.632H1.54l0.363,1.632l0.864-1.616h0.009v1.616H3.051z"/>
   </g>
  </g>
 </g>
</svg>
