<?xml version="1.0" encoding="UTF-8" standalone="no"?>
<svg id="svg2" xmlns:rdf="http://www.w3.org/1999/02/22-rdf-syntax-ns#" style="enable-background:new;" xmlns="http://www.w3.org/2000/svg" xml:space="preserve" height="189" viewBox="0 0 201.44805 151.2" width="251.81" version="1.2" y="0px" x="0px" xmlns:cc="http://creativecommons.org/ns#" xmlns:dc="http://purl.org/dc/elements/1.1/"><metadata id="metadata430"><rdf:RDF><cc:Work rdf:about=""><dc:format>image/svg+xml</dc:format><dc:type rdf:resource="http://purl.org/dc/dcmitype/StillImage"/><dc:title/></cc:Work></rdf:RDF></metadata><defs id="defs428">
</defs>
<g id="breadboard"><g id="g3988" transform="translate(2.0211729,-1.9e-5)"><path id="path5990-7" style="enable-background:new;" d="m68.965-87.725,0,151.2,187.21,0,0-7.005,7.2265-7.2898,0-93.641-7.2265-6.5747,0-32.918-4.0752-3.7715-183.13,0zm42.941,2.8223c0.0743-0.0038,0.14621,0,0.22148,0,2.4088,0,4.36,1.9512,4.36,4.36,0,2.4087-1.9512,4.36-4.36,4.36-2.4087,0-4.36-1.9512-4.36-4.36,0-2.3335,1.834-4.2431,4.1385-4.36zm144.3,43.068c2.4087,0,4.36,1.9512,4.36,4.36,0,2.4087-1.9512,4.36-4.36,4.36-2.4087,0-4.36-1.9512-4.36-4.36,0-2.4087,1.9512-4.36,4.36-4.36zm-0.0759,79.359c2.4087,0,4.36,1.9575,4.36,4.3663,0,2.4087-1.9512,4.36-4.36,4.36s-4.36-1.9512-4.36-4.36c0-2.4087,1.9512-4.3663,4.36-4.3663z" transform="translate(-63.970903,87.725018)" fill="#1c1c1c"/><path id="Fid1" style="enable-background:new;" d="m28.499-368.49a6.5766,6.5766,0,1,1,-13.153,0,6.5766,6.5766,0,1,1,13.153,0z" transform="matrix(0.20249435,0,0,0.20249435,26.669779,219.98019)" fill="#f7bd13"/><path id="Fid2" style="enable-background:new;" d="m28.499-368.49a6.5766,6.5766,0,1,1,-13.153,0,6.5766,6.5766,0,1,1,13.153,0z" transform="matrix(0.20249435,0,0,0.20249435,182.16877,97.254427)" fill="#f7bd13"/><path id="Fid3" style="enable-background:new;" d="m28.499-368.49a6.5766,6.5766,0,1,1,-13.153,0,6.5766,6.5766,0,1,1,13.153,0z" transform="matrix(0.20249435,0,0,0.20249435,190.25631,182.46399)" fill="#f7bd13"/><path id="path4360" style="enable-background:new;" d="m93.439-73.531c-1.9867,0-3.6042,1.609-3.6042,3.5958,0,1.9867,1.6175,3.6042,3.6042,3.6042s3.5958-1.6175,3.5958-3.6042-1.609-3.5958-3.5958-3.5958zm0,1.8148c0.9857,0,1.7809,0.79523,1.7809,1.7809,0,0.98569-0.79522,1.7894-1.7809,1.7894-0.98569,0-1.7894-0.80371-1.7894-1.7894s0.8037-1.7809,1.7894-1.7809z" transform="translate(-63.970903,87.725018)" fill="#f7bd13"/><path id="path4362" style="enable-background:new;" d="m93.439-31.078c-1.9867,0-3.6042,1.609-3.6042,3.5958,0,1.9867,1.6175,3.6042,3.6042,3.6042s3.5958-1.6175,3.5958-3.6042-1.609-3.5958-3.5958-3.5958zm0,1.8148c0.9857,0,1.7809,0.79523,1.7809,1.7809,0,0.98569-0.79522,1.7894-1.7809,1.7894-0.98569,0-1.7894-0.80371-1.7894-1.7894s0.8037-1.7809,1.7894-1.7809z" transform="translate(-63.970903,87.725018)" fill="#f7bd13"/><path id="path5356" style="enable-background:new;" d="m93.146,26.915c-1.9867,0-3.6042,1.609-3.6042,3.5958,0,1.9867,1.6175,3.6042,3.6042,3.6042s3.5958-1.6175,3.5958-3.6042-1.609-3.5958-3.5958-3.5958zm0,1.8148c0.9857,0,1.7809,0.79523,1.7809,1.7809,0,0.98569-0.79522,1.7894-1.7809,1.7894-0.98569,0-1.7894-0.80371-1.7894-1.7894s0.80371-1.7809,1.7894-1.7809z" transform="translate(-63.970903,87.725018)" fill="#f7bd13"/><path id="path5358" style="enable-background:new;" d="m93.246,45.753c-1.829,0-3.3181,1.4813-3.3181,3.3103s1.4891,3.3181,3.3181,3.3181,3.3103-1.4891,3.3103-3.3181-1.4813-3.3103-3.3103-3.3103zm0,1.6708c0.90744,0,1.6395,0.73209,1.6395,1.6395,0,0.90743-0.73208,1.6473-1.6395,1.6473-0.90743,0-1.6473-0.7399-1.6473-1.6473,0-0.90744,0.7399-1.6395,1.6473-1.6395z" transform="translate(-63.970903,87.725018)" fill="#f7bd13"/><path id="path3436" style="enable-background:new;" d="m251.73-22.519c-0.70396,0-1.2771,0.57013-1.2771,1.2741,0,0.70396,0.57313,1.2771,1.2771,1.2771,0.70396,0,1.2741-0.57314,1.2741-1.2771s-0.57013-1.2741-1.2741-1.2741zm0,0.64305c0.34927,0,0.63104,0.28177,0.63104,0.63104,0,0.34926-0.28177,0.63404-0.63104,0.63404-0.34925,0-0.63404-0.28478-0.63404-0.63404s0.28479-0.63104,0.63404-0.63104z" transform="translate(-63.970903,87.725018)" fill="#f7bd13"/><path id="path3437" style="enable-background:new;" d="m255.17-22.519c-0.70396,0-1.2771,0.57013-1.2771,1.2741,0,0.70396,0.57313,1.2771,1.2771,1.2771,0.70396,0,1.2741-0.57314,1.2741-1.2771s-0.57013-1.2741-1.2741-1.2741zm0,0.64305c0.34927,0,0.63104,0.28177,0.63104,0.63104,0,0.34926-0.28177,0.63404-0.63104,0.63404-0.34925,0-0.63404-0.28478-0.63404-0.63404s0.28479-0.63104,0.63404-0.63104z" transform="translate(-63.970903,87.725018)" fill="#f7bd13"/><path id="path3439" style="enable-background:new;" d="m251.73-18.924c-0.70396,0-1.2771,0.57013-1.2771,1.2741,0,0.70396,0.57313,1.2771,1.2771,1.2771,0.70396,0,1.2741-0.57314,1.2741-1.2771s-0.57013-1.2741-1.2741-1.2741zm0,0.64305c0.34927,0,0.63104,0.28177,0.63104,0.63104,0,0.34926-0.28177,0.63404-0.63104,0.63404-0.34925,0-0.63404-0.28478-0.63404-0.63404s0.28479-0.63104,0.63404-0.63104z" transform="translate(-63.970903,87.725018)" fill="#f7bd13"/><path id="path3441" style="enable-background:new;" d="m255.17-18.924c-0.70396,0-1.2771,0.57013-1.2771,1.2741,0,0.70396,0.57313,1.2771,1.2771,1.2771,0.70396,0,1.2741-0.57314,1.2741-1.2771s-0.57013-1.2741-1.2741-1.2741zm0,0.64305c0.34927,0,0.63104,0.28177,0.63104,0.63104,0,0.34926-0.28177,0.63404-0.63104,0.63404-0.34925,0-0.63404-0.28478-0.63404-0.63404s0.28479-0.63104,0.63404-0.63104z" transform="translate(-63.970903,87.725018)" fill="#f7bd13"/><path id="path3443" style="enable-background:new;" d="m251.73-15.329c-0.70396,0-1.2771,0.57013-1.2771,1.2741,0,0.70396,0.57313,1.2771,1.2771,1.2771,0.70396,0,1.2741-0.57314,1.2741-1.2771s-0.57013-1.2741-1.2741-1.2741zm0,0.64305c0.34927,0,0.63104,0.28177,0.63104,0.63104,0,0.34926-0.28177,0.63404-0.63104,0.63404-0.34925,0-0.63404-0.28478-0.63404-0.63404s0.28479-0.63104,0.63404-0.63104z" transform="translate(-63.970903,87.725018)" fill="#f7bd13"/><path id="path3445" style="enable-background:new;" d="m255.17-15.329c-0.70396,0-1.2771,0.57013-1.2771,1.2741,0,0.70396,0.57313,1.2771,1.2771,1.2771,0.70396,0,1.2741-0.57314,1.2741-1.2771s-0.57013-1.2741-1.2741-1.2741zm0,0.64305c0.34927,0,0.63104,0.28177,0.63104,0.63104,0,0.34926-0.28177,0.63404-0.63104,0.63404-0.34925,0-0.63404-0.28478-0.63404-0.63404s0.28479-0.63104,0.63404-0.63104z" transform="translate(-63.970903,87.725018)" fill="#f7bd13"/><path id="path3447" style="enable-background:new;" d="m251.73-11.733c-0.70396,0-1.2771,0.57013-1.2771,1.2741,0,0.70396,0.57313,1.2771,1.2771,1.2771,0.70396,0,1.2741-0.57314,1.2741-1.2771s-0.57013-1.2741-1.2741-1.2741zm0,0.64305c0.34927,0,0.63104,0.28177,0.63104,0.63104,0,0.34926-0.28177,0.63404-0.63104,0.63404-0.34925,0-0.63404-0.28478-0.63404-0.63404s0.28479-0.63104,0.63404-0.63104z" transform="translate(-63.970903,87.725018)" fill="#f7bd13"/><path id="path3449" style="enable-background:new;" d="m255.17-11.733c-0.70396,0-1.2771,0.57013-1.2771,1.2741,0,0.70396,0.57313,1.2771,1.2771,1.2771,0.70396,0,1.2741-0.57314,1.2741-1.2771s-0.57013-1.2741-1.2741-1.2741zm0,0.64305c0.34927,0,0.63104,0.28177,0.63104,0.63104,0,0.34926-0.28177,0.63404-0.63104,0.63404-0.34925,0-0.63404-0.28478-0.63404-0.63404s0.28479-0.63104,0.63404-0.63104z" transform="translate(-63.970903,87.725018)" fill="#f7bd13"/><path id="path3451" style="enable-background:new;" d="m251.73-8.1378c-0.70396,0-1.2771,0.57013-1.2771,1.2741,0,0.70396,0.57313,1.2771,1.2771,1.2771,0.70396,0,1.2741-0.57314,1.2741-1.2771s-0.57013-1.2741-1.2741-1.2741zm0,0.64305c0.34927,0,0.63104,0.28177,0.63104,0.63104,0,0.34926-0.28177,0.63404-0.63104,0.63404-0.34925,0-0.63404-0.28478-0.63404-0.63404s0.28479-0.63104,0.63404-0.63104z" transform="translate(-63.970903,87.725018)" fill="#f7bd13"/><path id="path3453" style="enable-background:new;" d="m255.17-8.1378c-0.70396,0-1.2771,0.57013-1.2771,1.2741,0,0.70396,0.57313,1.2771,1.2771,1.2771,0.70396,0,1.2741-0.57314,1.2741-1.2771s-0.57013-1.2741-1.2741-1.2741zm0,0.64305c0.34927,0,0.63104,0.28177,0.63104,0.63104,0,0.34926-0.28177,0.63404-0.63104,0.63404-0.34925,0-0.63404-0.28478-0.63404-0.63404s0.28479-0.63104,0.63404-0.63104z" transform="translate(-63.970903,87.725018)" fill="#f7bd13"/><path id="rect8860" style="enable-background:new;" d="m71.412,90.733-2.9488,0,0,2.2528-16.832,0,0-0.94919-7.2518,0,0-2.8412,7.2518,0,0-10.118-7.2518,0,0-2.8412,7.2518,0,0-1.6263,16.832,0,0,2.8476,2.9488,0,0,13.276z" transform="translate(4.9943573,1.9e-5)" fill="#2e2e2e"/><rect id="C1" style="enable-background:new;" transform="matrix(1,0,0,-1,4.9943573,1.9e-5)" height="5.6696" width="3.5435" y="-86.524" x="34.089" fill="#2e2e2e"/><rect id="C2" style="enable-background:new;" transform="matrix(1,0,0,-1,4.9943573,1.9e-5)" height="4.5357" width="9.0714" y="-72.491" x="51.169" fill="#2e2e2e"/><rect id="C3" style="enable-background:new;" transform="matrix(1,0,0,-1,4.9943573,1.9e-5)" height="1.4174" width="2.8348" y="-98.572" x="18.71" fill="#2e2e2e"/><rect id="C4" style="enable-background:new;" transform="matrix(1,0,0,-1,4.9943573,1.9e-5)" height="1.4174" width="2.8348" y="-96.446" x="36.853" fill="#2e2e2e"/><rect id="C5" style="enable-background:new;" transform="matrix(1,0,0,-1,4.9943573,1.9e-5)" height="4.5357" width="9.0714" y="-82.271" x="76.824" fill="#2e2e2e"/><rect id="C6" style="enable-background:new;" transform="matrix(1,0,0,-1,4.9943573,1.9e-5)" height="4.5357" width="9.0714" y="-75.326" x="76.824" fill="#2e2e2e"/><rect id="C7" style="enable-background:new;" transform="matrix(1,0,0,-1,4.9943573,1.9e-5)" height="4.5357" width="9.0714" y="-103.67" x="77.337" fill="#2e2e2e"/><rect id="C8" style="enable-background:new;" transform="matrix(1,0,0,-1,4.9943573,1.9e-5)" height="4.5357" width="9.0714" y="-110.76" x="77.337" fill="#2e2e2e"/><rect id="C9" style="enable-background:new;" transform="matrix(1,0,0,-1,4.9943573,1.9e-5)" height="2.8348" width="1.4174" y="-103.53" x="18.426" fill="#2e2e2e"/><rect id="C10" style="enable-background:new;" transform="matrix(1,0,0,-1,4.9943573,1.9e-5)" height="1.4174" width="2.8348" y="-107.08" x="96.047" fill="#2e2e2e"/><rect id="C11" style="enable-background:new;" transform="matrix(1,0,0,-1,4.9943573,1.9e-5)" height="2.8348" width="1.4174" y="-97.154" x="138.2" fill="#2e2e2e"/><rect id="C12" style="enable-background:new;" transform="matrix(1,0,0,-1,4.9943573,1.9e-5)" height="2.8348" width="1.4174" y="-76.318" x="137.77" fill="#2e2e2e"/><rect id="C13" style="enable-background:new;" transform="matrix(1,0,0,-1,4.9943573,1.9e-5)" height="2.8348" width="1.4174" y="-73.2" x="98.51" fill="#2e2e2e"/><rect id="C14" style="enable-background:new;" transform="matrix(1,0,0,-1,4.9943573,1.9e-5)" height="2.8348" width="1.4174" y="-99.989" x="96.755" fill="#2e2e2e"/><rect id="C15" style="enable-background:new;" transform="matrix(1,0,0,-1,4.9943573,1.9e-5)" height="4.5357" width="9.0714" y="-108.64" x="140.75" fill="#2e2e2e"/><rect id="C16" style="enable-background:new;" transform="matrix(1,0,0,-1,4.9943573,1.9e-5)" height="4.5357" width="9.0714" y="-60.585" x="124.87" fill="#2e2e2e"/><rect id="C17" style="enable-background:new;" transform="matrix(1,0,0,-1,4.9943573,1.9e-5)" height="4.5357" width="9.0714" y="-67.105" x="124.87" fill="#2e2e2e"/><rect id="C18" style="enable-background:new;" transform="matrix(1,0,0,-1,4.9943573,1.9e-5)" height="3.5435" width="5.6696" y="-65.93" x="100.13" fill="#2e2e2e"/><rect id="C19" style="enable-background:new;" transform="matrix(1,0,0,-1,4.9943573,1.9e-5)" height="3.5435" width="5.6696" y="-89.146" x="140.75" fill="#2e2e2e"/><rect id="C20" style="enable-background:new;" transform="matrix(1,0,0,-1,4.9943573,1.9e-5)" height="1.4174" width="2.8348" y="-109.49" x="125.58" fill="#2e2e2e"/><rect id="C21" style="enable-background:new;" transform="matrix(1,0,0,-1,4.9943573,1.9e-5)" height="1.4174" width="2.8348" y="-112.32" x="125.58" fill="#2e2e2e"/><rect id="C22" style="enable-background:new;" transform="matrix(1,0,0,-1,4.9943573,1.9e-5)" height="1.4174" width="2.8348" y="-124.79" x="151.66" fill="#2e2e2e"/><rect id="C23" style="enable-background:new;" transform="matrix(1,0,0,-1,4.9943573,1.9e-5)" height="1.4174" width="2.8348" y="-123.38" x="103.47" fill="#2e2e2e"/><rect id="C24" style="enable-background:new;" transform="matrix(1,0,0,-1,4.9943573,1.9e-5)" height="1.4174" width="2.8348" y="-123.38" x="113.39" fill="#2e2e2e"/><rect id="C25" style="enable-background:new;" transform="matrix(1,0,0,-1,4.9943573,1.9e-5)" height="9.0714" width="17.009" y="-102.4" x="170.8" fill="#2e2e2e"/><rect id="C26" style="enable-background:new;" transform="matrix(1,0,0,-1,4.9943573,1.9e-5)" height="4.5357" width="9.0714" y="-110.05" x="174.06" fill="#2e2e2e"/><rect id="C27" style="enable-background:new;" transform="matrix(1,0,0,-1,4.9943573,1.9e-5)" height="9.0714" width="4.5357" y="-49.246" x="123.17" fill="#2e2e2e"/><rect id="C28" style="enable-background:new;" transform="matrix(1,0,0,-1,4.9943573,1.9e-5)" height="1.4174" width="2.8348" y="-53.923" x="119.06" fill="#2e2e2e"/><rect id="C29" style="enable-background:new;" transform="matrix(1,0,0,-1,4.9943573,1.9e-5)" height="1.4174" width="2.8348" y="-53.923" x="113.39" fill="#2e2e2e"/><rect id="C30" style="enable-background:new;" transform="matrix(1,0,0,-1,4.9943573,1.9e-5)" height="1.4174" width="2.8348" y="-53.923" x="104.89" fill="#2e2e2e"/><rect id="C31" style="enable-background:new;" transform="matrix(1,0,0,-1,4.9943573,1.9e-5)" height="1.4174" width="2.8348" y="-53.923" x="99.219" fill="#2e2e2e"/><rect id="C32" style="enable-background:new;" transform="matrix(1,0,0,-1,4.9943573,1.9e-5)" height="2.8348" width="1.4174" y="-47.545" x="89.92" fill="#2e2e2e"/><rect id="C33" style="enable-background:new;" transform="matrix(1,0,0,-1,4.9943573,1.9e-5)" height="1.4174" width="2.8348" y="-96.446" x="46.633" fill="#2e2e2e"/><rect id="C34" style="enable-background:new;" transform="matrix(1,0,0,-1,4.9943573,1.9e-5)" height="9.0714" width="4.5357" y="-35.78" x="123.17" fill="#2e2e2e"/><rect id="C35" style="enable-background:new;" transform="matrix(1,0,0,-1,4.9943573,1.9e-5)" height="1.4174" width="2.8348" y="-56.277" x="83.911" fill="#2e2e2e"/><rect id="C36" style="enable-background:new;" transform="matrix(1,0,0,-1,4.9943573,1.9e-5)" height="1.4174" width="2.8348" y="-39.835" x="82.919" fill="#2e2e2e"/><rect id="C37" style="enable-background:new;" transform="matrix(1,0,0,-1,4.9943573,1.9e-5)" height="4.5357" width="9.0714" y="-25.321" x="55.846" fill="#2e2e2e"/><rect id="D1" style="enable-background:new;" transform="matrix(1,0,0,-1,4.9943573,1.9e-5)" height="7.9375" width="12.19" y="-113.88" x="5.2444" fill="#2e2e2e"/><rect id="D4" style="enable-background:new;" transform="matrix(1,0,0,-1,4.9943573,1.9e-5)" height="2.8348" width="1.4174" y="-75.184" x="17.718" fill="#2e2e2e"/><rect id="D5" style="enable-background:new;" transform="matrix(1,0,0,-1,4.9943573,1.9e-5)" height="2.8348" width="1.4174" y="-84.256" x="17.718" fill="#2e2e2e"/><rect id="D6" style="enable-background:new;" transform="matrix(1,0,0,-1,4.9943573,1.9e-5)" height="2.8348" width="1.4174" y="-89.358" x="17.718" fill="#2e2e2e"/><rect id="F1" style="enable-background:new;" transform="matrix(1,0,0,-1,4.9943573,1.9e-5)" height="4.5357" width="9.0714" y="-67.105" x="4.8192" fill="#2e2e2e"/><rect id="L1" style="enable-background:new;" transform="matrix(1,0,0,-1,4.9943573,1.9e-5)" height="8.5045" width="8.5045" y="-93.611" x="88.251" fill="#2e2e2e"/><rect id="L2" style="enable-background:new;" transform="matrix(1,0,0,-1,4.9943573,1.9e-5)" height="1.4174" width="2.8348" y="-36.291" x="82.919" fill="#2e2e2e"/><rect id="Q1" style="enable-background:new;" transform="matrix(1,0,0,-1,4.9943573,1.9e-5)" height="4.5357" width="2.2679" y="-113.32" x="91.752" fill="#2e2e2e"/><rect id="Q2" style="enable-background:new;" transform="matrix(1,0,0,-1,4.9943573,1.9e-5)" height="5.6696" width="3.5435" y="-126.92" x="140.68" fill="#2e2e2e"/><rect id="Q3" style="enable-background:new;" transform="matrix(1,0,0,-1,4.9943573,1.9e-5)" height="5.6696" width="3.5435" y="-109.2" x="159.1" fill="#2e2e2e"/><rect id="Q4" style="enable-background:new;" transform="matrix(1,0,0,-1,4.9943573,1.9e-5)" height="8.221" width="3.6853" y="-77.169" x="29.34" fill="#2e2e2e"/><rect id="Q5" style="enable-background:new;" transform="matrix(1,0,0,-1,4.9943573,1.9e-5)" height="5.6696" width="3.5435" y="-98.572" x="159.1" fill="#2e2e2e"/><rect id="Q6" style="enable-background:new;" transform="matrix(1,0,0,-1,4.9943573,1.9e-5)" height="5.6696" width="3.5435" y="-72.633" x="90.927" fill="#2e2e2e"/><rect id="R2" style="enable-background:new;" transform="matrix(1,0,0,-1,4.9943573,1.9e-5)" height="2.8348" width="1.4174" y="-94.036" x="30.474" fill="#2e2e2e"/><rect id="R3" style="enable-background:new;" transform="matrix(1,0,0,-1,4.9943573,1.9e-5)" height="3.5435" width="5.6696" y="-71.995" x="40.821" fill="#2e2e2e"/><rect id="R4" style="enable-background:new;" transform="matrix(1,0,0,-1,4.9943573,1.9e-5)" height="5.6696" width="2.8348" y="-126.92" x="127.14" fill="#2e2e2e"/><rect id="R5" style="enable-background:new;" transform="matrix(1,0,0,-1,4.9943573,1.9e-5)" height="1.4174" width="2.8348" y="-118.42" x="93.549" fill="#2e2e2e"/><rect id="R6" style="enable-background:new;" transform="matrix(1,0,0,-1,4.9943573,1.9e-5)" height="2.8348" width="1.4174" y="-31.953" x="163" fill="#2e2e2e"/><rect id="R7" style="enable-background:new;" transform="matrix(1,0,0,-1,4.9943573,1.9e-5)" height="5.6696" width="2.8348" y="-119.12" x="76.54" fill="#2e2e2e"/><rect id="R8" style="enable-background:new;" transform="matrix(1,0,0,-1,4.9943573,1.9e-5)" height="2.8348" width="1.4174" y="-103.53" x="11.339" fill="#2e2e2e"/><rect id="R9" style="enable-background:new;" transform="matrix(1,0,0,-1,4.9943573,1.9e-5)" height="1.4174" width="2.8348" y="-96.446" x="81.501" fill="#2e2e2e"/><rect id="R10" style="enable-background:new;" transform="matrix(1,0,0,-1,4.9943573,1.9e-5)" height="1.4174" width="2.8348" y="-96.446" x="75.831" fill="#2e2e2e"/><rect id="R11" style="enable-background:new;" transform="matrix(1,0,0,-1,4.9943573,1.9e-5)" height="5.6696" width="2.8348" y="-98.572" x="150.25" fill="#2e2e2e"/><rect id="R12" style="enable-background:new;" transform="matrix(1,0,0,-1,4.9943573,1.9e-5)" height="5.6696" width="2.8348" y="-82.271" x="92.503" fill="#2e2e2e"/><rect id="R13" style="enable-background:new;" transform="matrix(1,0,0,-1,4.9943573,1.9e-5)" height="1.4174" width="2.8348" y="-109.34" x="112.68" fill="#2e2e2e"/><rect id="R14" style="enable-background:new;" transform="matrix(1,0,0,-1,4.9943573,1.9e-5)" height="2.8348" width="2.8348" y="-67.56" x="111.18" fill="#2e2e2e"/><rect id="R15" style="enable-background:new;" transform="matrix(1,0,0,-1,4.9943573,1.9e-5)" height="1.4174" width="2.8348" y="-7.8574" x="13.465" fill="#2e2e2e"/><rect id="R16" style="enable-background:new;" transform="matrix(1,0,0,-1,4.9943573,1.9e-5)" height="1.4174" width="2.8348" y="-12.11" x="13.465" fill="#2e2e2e"/><rect id="R17" style="enable-background:new;" transform="matrix(1,0,0,-1,4.9943573,1.9e-5)" height="1.4174" width="2.8348" y="-23.534" x="96.384" fill="#2e2e2e"/><rect id="R18" style="enable-background:new;" transform="matrix(1,0,0,-1,4.9943573,1.9e-5)" height="1.4174" width="2.8348" y="-52.591" x="83.769" fill="#2e2e2e"/><rect id="R19" style="enable-background:new;" transform="matrix(1,0,0,-1,4.9943573,1.9e-5)" height="1.4174" width="2.8348" y="-59.678" x="83.769" fill="#2e2e2e"/><rect id="R20" style="enable-background:new;" transform="matrix(1,0,0,-1,4.9943573,1.9e-5)" height="1.4174" width="2.8348" y="-32.748" x="82.919" fill="#2e2e2e"/><rect id="R21" style="enable-background:new;" transform="matrix(1,0,0,-1,4.9943573,1.9e-5)" height="1.4174" width="2.8348" y="-43.378" x="82.919" fill="#2e2e2e"/><rect id="R22" style="enable-background:new;" transform="matrix(1,0,0,-1,4.9943573,1.9e-5)" height="1.4174" width="2.8348" y="-7.8574" x="19.844" fill="#2e2e2e"/><rect id="R23" style="enable-background:new;" transform="matrix(1,0,0,-1,4.9943573,1.9e-5)" height="1.4174" width="2.8348" y="-7.8574" x="26.222" fill="#2e2e2e"/><rect id="R24" style="enable-background:new;" transform="matrix(1,0,0,-1,4.9943573,1.9e-5)" height="1.4174" width="2.8348" y="-12.11" x="19.844" fill="#2e2e2e"/><rect id="R25" style="enable-background:new;" transform="matrix(1,0,0,-1,4.9943573,1.9e-5)" height="1.4174" width="2.8348" y="-12.11" x="26.222" fill="#2e2e2e"/><rect id="R26" style="enable-background:new;" transform="matrix(1,0,0,-1,4.9943573,1.9e-5)" height="1.4174" width="2.8348" y="-118.42" x="85.753" fill="#2e2e2e"/><rect id="R27" style="enable-background:new;" transform="matrix(1,0,0,-1,4.9943573,1.9e-5)" height="1.4174" width="2.8348" y="-95.879" x="18.71" fill="#2e2e2e"/><rect id="R28" style="enable-background:new;" transform="matrix(1,0,0,-1,4.9943573,1.9e-5)" height="2.8348" width="1.4174" y="-103.53" x="14.883" fill="#2e2e2e"/><rect id="R30" style="enable-background:new;" transform="matrix(1,0,0,-1,4.9943573,1.9e-5)" height="2.8348" width="1.4174" y="-63.931" x="116.77" fill="#2e2e2e"/><rect id="R31" style="enable-background:new;" transform="matrix(1,0,0,-1,4.9943573,1.9e-5)" height="1.4174" width="2.8348" y="-93.044" x="18.71" fill="#2e2e2e"/><rect id="T1" style="enable-background:new;" transform="matrix(1,0,0,-1,4.9943573,1.9e-5)" height="36.002" width="20.156" y="-64.696" x="55.832" fill="#2e2e2e"/><rect id="U2" style="enable-background:new;" transform="matrix(1,0,0,-1,4.9943573,1.9e-5)" height="8.221" width="4.5357" y="-92.76" x="78.241" fill="#2e2e2e"/><rect id="U3" style="enable-background:new;" transform="matrix(1,0,0,-1,4.9943573,1.9e-5)" height="4.5354" width="8.2772" y="-108.74" x="22.667" fill="#2e2e2e"/><rect id="U4" style="enable-background:new;" transform="matrix(1,0,0,-1,4.9943573,1.9e-5)" height="28.348" width="28.348" y="-102.12" x="104.18" fill="#2e2e2e"/><rect id="U5" style="enable-background:new;" transform="matrix(1,0,0,-1,4.9943573,1.9e-5)" height="15.025" width="28.346" y="-45.844" x="92.729" fill="#2e2e2e"/><rect id="Y1" style="enable-background:new;" transform="matrix(1,0,0,-1,4.9943573,1.9e-5)" height="9.9219" width="17.009" y="-120.68" x="101.34" fill="#2e2e2e"/><rect id="rect9960" style="enable-background:new;" transform="translate(3.0275388e-8,1.9017882e-5)" height="7.0414" width="43.171" y="140.36" x="145.23" fill="#55adf7"/><g id="g9962" style="enable-background:new;" transform="matrix(0.25311793,0,0,0.25311793,106.00829,78.669074)"><polygon id="polygon9964" opacity="0.84016395" style="enable-background:new;" transform="matrix(4.0353725,0,0,4.0353725,-605.11285,-315.95545)" points="194.34,139.86,189.52,139.86,190.54,140.88,193.32,140.88" fill="#004987"/><polygon id="polygon9966" opacity="0.84016395" style="enable-background:new;" transform="matrix(4.0353725,0,0,4.0353725,-605.11285,-315.95545)" points="194.34,144.68,194.34,139.86,193.32,140.89,193.32,143.66" fill="#0a7bdc"/><polygon id="polygon9968" opacity="0.84016395" style="enable-background:new;" transform="matrix(4.0353725,0,0,4.0353725,-605.11285,-315.95545)" points="189.52,144.68,194.34,144.68,193.32,143.66,190.54,143.66" fill="#84c4f9"/><polygon id="polygon9970" opacity="0.84016395" style="enable-background:new;" transform="matrix(4.0353725,0,0,4.0353725,-605.11285,-315.95545)" points="189.52,139.86,189.52,144.68,190.54,143.66,190.54,140.88" fill="#0861ab"/></g><g id="g9972" style="enable-background:new;" transform="matrix(0.25311793,0,0,0.25311793,106.00829,78.669074)"><polygon id="polygon9974" opacity="0.84016395" style="enable-background:new;" transform="matrix(4.0353725,0,0,4.0353725,-576.31285,-315.95545)" points="194.34,139.86,189.52,139.86,190.54,140.88,193.32,140.88" fill="#0e5999"/><polygon id="polygon9976" opacity="0.84016395" style="enable-background:new;" transform="matrix(4.0353725,0,0,4.0353725,-576.31285,-315.95545)" points="194.34,144.68,194.34,139.86,193.32,140.89,193.32,143.66" fill="#1683e1"/><polygon id="polygon9978" opacity="0.84016395" style="enable-background:new;" transform="matrix(4.0353725,0,0,4.0353725,-576.31285,-315.95545)" points="189.52,144.68,194.34,144.68,193.32,143.66,190.54,143.66" fill="#7dc0f9"/><polygon id="polygon9980" opacity="0.84016395" style="enable-background:new;" transform="matrix(4.0353725,0,0,4.0353725,-576.31285,-315.95545)" points="189.52,139.86,189.52,144.68,190.54,143.66,190.54,140.88" fill="#156db8"/></g><g id="g9982" style="enable-background:new;" transform="matrix(0.25311793,0,0,0.25311793,106.00829,78.669074)"><polygon id="polygon9984" opacity="0.84016395" style="enable-background:new;" transform="matrix(4.0353725,0,0,4.0353725,-547.51285,-315.95545)" points="194.34,139.86,189.52,139.86,190.54,140.88,193.32,140.88" fill="#0e5999"/><polygon id="polygon9986" opacity="0.84016395" style="enable-background:new;" transform="matrix(4.0353725,0,0,4.0353725,-547.51285,-315.95545)" points="194.34,144.68,194.34,139.86,193.32,140.89,193.32,143.66" fill="#1683e1"/><polygon id="polygon9988" opacity="0.84016395" style="enable-background:new;" transform="matrix(4.0353725,0,0,4.0353725,-547.51285,-315.95545)" points="189.52,144.68,194.34,144.68,193.32,143.66,190.54,143.66" fill="#7dc0f9"/><polygon id="polygon9990" opacity="0.84016395" style="enable-background:new;" transform="matrix(4.0353725,0,0,4.0353725,-547.51285,-315.95545)" points="189.52,139.86,189.52,144.68,190.54,143.66,190.54,140.88" fill="#156db8"/></g><g id="g9992" style="enable-background:new;" transform="matrix(0.25311793,0,0,0.25311793,106.00829,78.669074)"><polygon id="polygon9994" opacity="0.84016395" style="enable-background:new;" transform="matrix(4.0353725,0,0,4.0353725,-519.98167,-315.95545)" points="194.34,139.86,189.52,139.86,190.54,140.88,193.32,140.88" fill="#0e5999"/><polygon id="polygon9996" opacity="0.84016395" style="enable-background:new;" transform="matrix(4.0353725,0,0,4.0353725,-519.98167,-315.95545)" points="194.34,144.68,194.34,139.86,193.32,140.89,193.32,143.66" fill="#1683e1"/><polygon id="polygon9998" opacity="0.84016395" style="enable-background:new;" transform="matrix(4.0353725,0,0,4.0353725,-519.98167,-315.95545)" points="189.52,144.68,194.34,144.68,193.32,143.66,190.54,143.66" fill="#7dc0f9"/><polygon id="polygon10000" opacity="0.84016395" style="enable-background:new;" transform="matrix(4.0353725,0,0,4.0353725,-519.98167,-315.95545)" points="189.52,139.86,189.52,144.68,190.54,143.66,190.54,140.88" fill="#156db8"/></g><g id="g10002" style="enable-background:new;" transform="matrix(0.25311793,0,0,0.25311793,106.00829,78.669074)"><polygon id="polygon10004" opacity="0.84016395" style="enable-background:new;" transform="matrix(4.0353725,0,0,4.0353725,-490.90639,-315.95545)" points="193.32,140.88,194.34,139.86,189.52,139.86,190.54,140.88" fill="#0e5999"/><polygon id="polygon10006" opacity="0.84016395" style="enable-background:new;" transform="matrix(4.0353725,0,0,4.0353725,-490.90639,-315.95545)" points="193.32,143.66,194.34,144.68,194.34,139.86,193.32,140.89" fill="#1683e1"/><polygon id="polygon10008" opacity="0.84016395" style="enable-background:new;" transform="matrix(4.0353725,0,0,4.0353725,-490.90639,-315.95545)" points="190.54,143.66,189.52,144.68,194.34,144.68,193.32,143.66" fill="#7dc0f9"/><polygon id="polygon10010" opacity="0.84016395" style="enable-background:new;" transform="matrix(4.0353725,0,0,4.0353725,-490.90639,-315.95545)" points="190.54,140.88,189.52,139.86,189.52,144.68,190.54,143.66" fill="#156db8"/></g><g id="g10012" style="enable-background:new;" transform="matrix(0.25311793,0,0,0.25311793,106.00829,78.669074)"><polygon id="polygon10014" opacity="0.84016395" style="enable-background:new;" transform="matrix(4.0353725,0,0,4.0353725,-462.43757,-315.95545)" points="190.54,140.88,193.32,140.88,194.34,139.86,189.52,139.86" fill="#0e5999"/><polygon id="polygon10016" opacity="0.84016395" style="enable-background:new;" transform="matrix(4.0353725,0,0,4.0353725,-462.43757,-315.95545)" points="193.32,140.89,193.32,143.66,194.34,144.68,194.34,139.86" fill="#1683e1"/><polygon id="polygon10018" opacity="0.84016395" style="enable-background:new;" transform="matrix(4.0353725,0,0,4.0353725,-462.43757,-315.95545)" points="193.32,143.66,190.54,143.66,189.52,144.68,194.34,144.68" fill="#7dc0f9"/><polygon id="polygon10020" opacity="0.84016395" style="enable-background:new;" transform="matrix(4.0353725,0,0,4.0353725,-462.43757,-315.95545)" points="190.54,143.66,190.54,140.88,189.52,139.86,189.52,144.68" fill="#156db8"/></g><rect id="rect10038" style="enable-background:new;" transform="translate(3.0275388e-8,1.9017882e-5)" height="7.0414" width="57.206" y="3.7586" x="131.2" fill="#55adf7"/><g id="g10040" style="enable-background:new;" transform="matrix(0.25311793,0,0,0.25311793,106.00829,-57.936873)"><polygon id="polygon10042" opacity="0.84016395" style="enable-background:new;" transform="matrix(4.0353725,0,0,4.0353725,-605.11285,-315.95545)" points="193.32,140.88,194.34,139.86,189.52,139.86,190.54,140.88" fill="#004987"/><polygon id="polygon10044" opacity="0.84016395" style="enable-background:new;" transform="matrix(4.0353725,0,0,4.0353725,-605.11285,-315.95545)" points="193.32,143.66,194.34,144.68,194.34,139.86,193.32,140.89" fill="#0a7bdc"/><polygon id="polygon10046" opacity="0.84016395" style="enable-background:new;" transform="matrix(4.0353725,0,0,4.0353725,-605.11285,-315.95545)" points="190.54,143.66,189.52,144.68,194.34,144.68,193.32,143.66" fill="#84c4f9"/><polygon id="polygon10048" opacity="0.84016395" style="enable-background:new;" transform="matrix(4.0353725,0,0,4.0353725,-605.11285,-315.95545)" points="190.54,140.88,189.52,139.86,189.52,144.68,190.54,143.66" fill="#0861ab"/></g><g id="g10050" style="enable-background:new;" transform="matrix(0.25311793,0,0,0.25311793,106.00829,-57.936873)"><polygon id="polygon10052" opacity="0.84016395" style="enable-background:new;" transform="matrix(4.0353725,0,0,4.0353725,-576.31285,-315.95545)" points="193.32,140.88,194.34,139.86,189.52,139.86,190.54,140.88" fill="#0e5999"/><polygon id="polygon10054" opacity="0.84016395" style="enable-background:new;" transform="matrix(4.0353725,0,0,4.0353725,-576.31285,-315.95545)" points="193.32,143.66,194.34,144.68,194.34,139.86,193.32,140.89" fill="#1683e1"/><polygon id="polygon10056" opacity="0.84016395" style="enable-background:new;" transform="matrix(4.0353725,0,0,4.0353725,-576.31285,-315.95545)" points="190.54,143.66,189.52,144.68,194.34,144.68,193.32,143.66" fill="#7dc0f9"/><polygon id="polygon10058" opacity="0.84016395" style="enable-background:new;" transform="matrix(4.0353725,0,0,4.0353725,-576.31285,-315.95545)" points="190.54,140.88,189.52,139.86,189.52,144.68,190.54,143.66" fill="#156db8"/></g><g id="g10060" style="enable-background:new;" transform="matrix(0.25311793,0,0,0.25311793,106.00829,-57.936873)"><polygon id="polygon10062" opacity="0.84016395" style="enable-background:new;" transform="matrix(4.0353725,0,0,4.0353725,-547.51285,-315.95545)" points="193.32,140.88,194.34,139.86,189.52,139.86,190.54,140.88" fill="#0e5999"/><polygon id="polygon10064" opacity="0.84016395" style="enable-background:new;" transform="matrix(4.0353725,0,0,4.0353725,-547.51285,-315.95545)" points="193.32,143.66,194.34,144.68,194.34,139.86,193.32,140.89" fill="#1683e1"/><polygon id="polygon10066" opacity="0.84016395" style="enable-background:new;" transform="matrix(4.0353725,0,0,4.0353725,-547.51285,-315.95545)" points="190.54,143.66,189.52,144.68,194.34,144.68,193.32,143.66" fill="#7dc0f9"/><polygon id="polygon10068" opacity="0.84016395" style="enable-background:new;" transform="matrix(4.0353725,0,0,4.0353725,-547.51285,-315.95545)" points="190.54,140.88,189.52,139.86,189.52,144.68,190.54,143.66" fill="#156db8"/></g><g id="g10070" style="enable-background:new;" transform="matrix(0.25311793,0,0,0.25311793,106.00829,-57.936873)"><polygon id="polygon10072" opacity="0.84016395" style="enable-background:new;" transform="matrix(4.0353725,0,0,4.0353725,-519.98167,-315.95545)" points="193.32,140.88,194.34,139.86,189.52,139.86,190.54,140.88" fill="#0e5999"/><polygon id="polygon10074" opacity="0.84016395" style="enable-background:new;" transform="matrix(4.0353725,0,0,4.0353725,-519.98167,-315.95545)" points="193.32,143.66,194.34,144.68,194.34,139.86,193.32,140.89" fill="#1683e1"/><polygon id="polygon10076" opacity="0.84016395" style="enable-background:new;" transform="matrix(4.0353725,0,0,4.0353725,-519.98167,-315.95545)" points="190.54,143.66,189.52,144.68,194.34,144.68,193.32,143.66" fill="#7dc0f9"/><polygon id="polygon10078" opacity="0.84016395" style="enable-background:new;" transform="matrix(4.0353725,0,0,4.0353725,-519.98167,-315.95545)" points="190.54,140.88,189.52,139.86,189.52,144.68,190.54,143.66" fill="#156db8"/></g><g id="g10080" style="enable-background:new;" transform="matrix(0.25311793,0,0,0.25311793,106.00829,-57.936873)"><polygon id="polygon10082" opacity="0.84016395" style="enable-background:new;" transform="matrix(4.0353725,0,0,4.0353725,-490.90639,-315.95545)" points="190.54,140.88,193.32,140.88,194.34,139.86,189.52,139.86" fill="#0e5999"/><polygon id="polygon10084" opacity="0.84016395" style="enable-background:new;" transform="matrix(4.0353725,0,0,4.0353725,-490.90639,-315.95545)" points="193.32,140.89,193.32,143.66,194.34,144.68,194.34,139.86" fill="#1683e1"/><polygon id="polygon10086" opacity="0.84016395" style="enable-background:new;" transform="matrix(4.0353725,0,0,4.0353725,-490.90639,-315.95545)" points="193.32,143.66,190.54,143.66,189.52,144.68,194.34,144.68" fill="#7dc0f9"/><polygon id="polygon10088" opacity="0.84016395" style="enable-background:new;" transform="matrix(4.0353725,0,0,4.0353725,-490.90639,-315.95545)" points="190.54,143.66,190.54,140.88,189.52,139.86,189.52,144.68" fill="#156db8"/></g><g id="g10090" style="enable-background:new;" transform="matrix(0.25311793,0,0,0.25311793,106.00829,-57.936873)"><polygon id="polygon10092" opacity="0.84016395" style="enable-background:new;" transform="matrix(4.0353725,0,0,4.0353725,-462.43757,-315.95545)" points="189.52,139.86,190.54,140.88,193.32,140.88,194.34,139.86" fill="#0e5999"/><polygon id="polygon10094" opacity="0.84016395" style="enable-background:new;" transform="matrix(4.0353725,0,0,4.0353725,-462.43757,-315.95545)" points="194.34,139.86,193.32,140.89,193.32,143.66,194.34,144.68" fill="#1683e1"/><polygon id="polygon10096" opacity="0.84016395" style="enable-background:new;" transform="matrix(4.0353725,0,0,4.0353725,-462.43757,-315.95545)" points="194.34,144.68,193.32,143.66,190.54,143.66,189.52,144.68" fill="#7dc0f9"/><polygon id="polygon10098" opacity="0.84016395" style="enable-background:new;" transform="matrix(4.0353725,0,0,4.0353725,-462.43757,-315.95545)" points="189.52,144.68,190.54,143.66,190.54,140.88,189.52,139.86" fill="#156db8"/></g><g id="g10181" style="enable-background:new;" transform="matrix(0.25311793,0,0,0.25311793,98.936343,-57.936873)"><polygon id="polygon10183" opacity="0.84016395" style="enable-background:new;" transform="matrix(4.0353725,0,0,4.0353725,-605.11285,-315.95545)" points="193.32,140.88,194.34,139.86,189.52,139.86,190.54,140.88" fill="#004987"/><polygon id="polygon10185" opacity="0.84016395" style="enable-background:new;" transform="matrix(4.0353725,0,0,4.0353725,-605.11285,-315.95545)" points="193.32,143.66,194.34,144.68,194.34,139.86,193.32,140.89" fill="#0a7bdc"/><polygon id="polygon10187" opacity="0.84016395" style="enable-background:new;" transform="matrix(4.0353725,0,0,4.0353725,-605.11285,-315.95545)" points="190.54,143.66,189.52,144.68,194.34,144.68,193.32,143.66" fill="#84c4f9"/><polygon id="polygon10189" opacity="0.84016395" style="enable-background:new;" transform="matrix(4.0353725,0,0,4.0353725,-605.11285,-315.95545)" points="190.54,140.88,189.52,139.86,189.52,144.68,190.54,143.66" fill="#0861ab"/></g><g id="g10193" style="enable-background:new;" transform="matrix(0.25311793,0,0,0.25311793,91.802022,-57.936873)"><polygon id="polygon10195" opacity="0.84016395" style="enable-background:new;" transform="matrix(4.0353725,0,0,4.0353725,-605.11285,-315.95545)" points="194.34,139.86,189.52,139.86,190.54,140.88,193.32,140.88" fill="#004987"/><polygon id="polygon10197" opacity="0.84016395" style="enable-background:new;" transform="matrix(4.0353725,0,0,4.0353725,-605.11285,-315.95545)" points="194.34,144.68,194.34,139.86,193.32,140.89,193.32,143.66" fill="#0a7bdc"/><polygon id="polygon10199" opacity="0.84016395" style="enable-background:new;" transform="matrix(4.0353725,0,0,4.0353725,-605.11285,-315.95545)" points="189.52,144.68,194.34,144.68,193.32,143.66,190.54,143.66" fill="#84c4f9"/><polygon id="polygon10201" opacity="0.84016395" style="enable-background:new;" transform="matrix(4.0353725,0,0,4.0353725,-605.11285,-315.95545)" points="189.52,139.86,189.52,144.68,190.54,143.66,190.54,140.88" fill="#0861ab"/></g><rect id="rect8764-5" style="enable-background:new;" transform="translate(3.0275388e-8,1.9017882e-5)" height="5.6693" width="3.5407" y="27.948" x="172.5" fill="#505050"/><rect id="rect6106-7" style="enable-background:new;" transform="matrix(0,1,-1,0,3.0275388e-8,1.9017882e-5)" height="3.5433" width="3.4268" y="-176.04" x="29.069" fill="#0000f7"/><rect id="rect8764-5-5" style="enable-background:new;" transform="translate(3.0275388e-8,1.9017882e-5)" height="5.6693" width="3.5407" y="91.668" x="30.092" fill="#505050"/><rect id="rect6106-7-6" style="enable-background:new;" transform="matrix(0,1,-1,0,3.0275388e-8,1.9017882e-5)" height="3.5433" width="3.4268" y="-33.634" x="92.79" fill="#e6e6e6"/><path id="path6010-1" style="enable-background:new;" d="m157.85,67.947c0-0.59104-0.47269-1.0779-1.0914-1.1668v-0.01825h-4.4111c-0.71449,0-1.2952,0.53041-1.2952,1.1856,0,0.65521,0.57944,1.1856,1.2952,1.1856h4.4111v-0.0191c0.61803-0.09007,1.0914-0.57692,1.0914-1.168z" transform="translate(3.0275388e-8,1.9017882e-5)" fill="#666"/><path id="path14215" d="m157.85,80.656c0-0.59104-0.47269-1.0779-1.0914-1.1668v-0.01825h-4.4111c-0.71449,0-1.2952,0.53041-1.2952,1.1856,0,0.65521,0.57944,1.1856,1.2952,1.1856h4.4111v-0.0191c0.61803-0.09007,1.0914-0.57692,1.0914-1.168z" style="enable-background:new;" fill="#666" transform="translate(3.0275388e-8,1.9017882e-5)"/><path id="path14217" d="m171.92,67.947c0-0.59104-0.47268-1.0779-1.0914-1.1668v-0.01825h-4.4111c-0.7145,0-1.2952,0.53041-1.2952,1.1856,0,0.65521,0.57944,1.1856,1.2952,1.1856h4.4111v-0.0191c0.61803-0.09007,1.0914-0.57692,1.0914-1.168z" style="enable-background:new;" fill="#666" transform="translate(3.0275388e-8,1.9017882e-5)"/><path id="path14219" style="enable-background:new;" d="m171.92,80.656c0-0.59104-0.47268-1.0779-1.0914-1.1668v-0.01825h-4.4111c-0.7145,0-1.2952,0.53041-1.2952,1.1856,0,0.65521,0.57944,1.1856,1.2952,1.1856h4.4111v-0.0191c0.61803-0.09007,1.0914-0.57692,1.0914-1.168z" transform="translate(3.0275388e-8,1.9017882e-5)" fill="#666"/><rect id="rect6112-4" style="enable-background:new;" transform="translate(3.0275388e-8,1.9017882e-5)" height="17.355" width="16.971" y="65.88" x="152.94" fill="#8c8c8c"/><path id="path6114-6" style="enable-background:new;" d="m169.53,68.321c0,0.85289-0.69151,1.5454-1.5464,1.5454-0.85187,0-1.5444-0.68946-1.5444-1.5454,0-0.84982,0.68947-1.5454,1.5444-1.5454,0.85493,0.0031,1.5464,0.69661,1.5464,1.5454z" transform="translate(3.0275388e-8,1.9017882e-5)" fill="#404040"/><path id="path6116-8" style="enable-background:new;" d="m156.54,68.321c0,0.85289-0.69151,1.5454-1.5454,1.5454-0.85493,0-1.5454-0.68946-1.5454-1.5454,0-0.84982,0.68947-1.5454,1.5454-1.5454,0.85493,0.0031,1.5454,0.69661,1.5454,1.5454z" transform="translate(3.0275388e-8,1.9017882e-5)" fill="#404040"/><circle id="circle6118-9" style="enable-background:new;" d="m 171.791,80.100998 c 0,0.834502 -0.6765,1.511 -1.511,1.511 -0.8345,0 -1.511,-0.676498 -1.511,-1.511 0,-0.834502 0.6765,-1.511 1.511,-1.511 0.8345,0 1.511,0.676498 1.511,1.511 z" transform="matrix(1.0214251,0,0,1.0214251,-18.924476,-0.50897799)" cy="80.101" cx="170.28" r="1.511" fill="#404040"/><circle id="circle6120-8" style="enable-background:new;" d="m 184.50101,80.100998 c 0,0.834502 -0.6765,1.511 -1.511,1.511 -0.83451,0 -1.511,-0.676498 -1.511,-1.511 0,-0.834502 0.67649,-1.511 1.511,-1.511 0.8345,0 1.511,0.676498 1.511,1.511 z" transform="matrix(1.0214251,0,0,1.0214251,-18.924476,-0.50897799)" cy="80.101" cx="182.99" r="1.511" fill="#404040"/><circle id="circle6122-3" style="enable-background:new;" d="m 181.16899,73.491997 c 0,2.711166 -2.19783,4.909 -4.909,4.909 -2.71116,0 -4.909,-2.197834 -4.909,-4.909 0,-2.711166 2.19784,-4.909 4.909,-4.909 2.71117,0 4.909,2.197834 4.909,4.909 z" transform="matrix(1.0214251,0,0,1.0214251,-18.616877,-0.50897799)" cy="73.492" cx="176.26" r="4.909" fill="#404040"/><rect id="MicroUSB" style="enable-background:new;" transform="translate(3.0275388e-8,1.9017882e-5)" height="22.73" width="14.635" y="75.022" x="3.1292" fill="#999"/><g id="g5520" style="enable-background:new;" transform="matrix(0,-0.59099447,0.59099447,0,-2.2130381,97.073603)">
<path id="path5522" fill="#4d4d4d" d="m30.074,21.386-2.64-1.524v1.134h-13.966c0.515-0.416,1.008-0.965,1.493-1.505,0.802-0.894,1.631-1.819,2.338-1.819h2.277c0.141,0.521,0.597,0.913,1.163,0.913,0.677,0,1.226-0.548,1.226-1.225s-0.549-1.226-1.226-1.226c-0.566,0-1.022,0.392-1.163,0.914h-2.277c-0.985,0-1.868,0.984-2.803,2.026-0.744,0.83-1.509,1.675-2.255,1.922h-1.82c-0.185-1.02-1.073-1.794-2.145-1.794-1.206,0-2.184,0.978-2.184,2.184,0,1.207,0.978,2.184,2.184,2.184,1.072,0,1.96-0.774,2.145-1.794h5.196c0.746,0.247,1.511,1.093,2.254,1.922,0.934,1.043,1.817,2.026,2.802,2.026h2.142v0.985h2.595v-2.595h-2.595v0.985h-2.142c-0.707,0-1.536-0.925-2.337-1.818-0.485-0.541-0.978-1.09-1.493-1.506h10.592v1.134l2.639-1.523z"/>
</g><rect id="rect4358" style="enable-background:new;" transform="translate(3.0275388e-8,1.9017882e-5)" height="41.329" width="57.26" y="18.599" x="-2.0212" fill="#000"/><rect id="rect4370" style="enable-background:new;" transform="translate(3.0275388e-8,1.9017882e-5)" height="45.213" width="39.26" y="99.682" x="37.989" fill="#999"/><rect id="rect4526" style="enable-background:new;" transform="translate(3.0275388e-8,1.9017882e-5)" height="4.5354" width="2.2661" y="8.4593" x="11.636" fill="#505050"/><rect id="rect4528" style="enable-background:new;" transform="matrix(0,1,-1,0,3.0275388e-8,1.9017882e-5)" height="2.2677" width="2.7414" y="-13.903" x="9.3563" fill="#008000"/><rect id="rect6264-2" style="enable-background:new;" transform="translate(3.0275388e-8,1.9017882e-5)" height="19.843" width="32.598" y="117.45" x="0.32406"/><rect id="rect9671" style="enable-background:new;" transform="translate(3.0275388e-8,1.9017882e-5)" height="7.0414" width="57.6" y="140.36" x="80.629" fill="#55adf7"/><g id="g9847" style="enable-background:new;" transform="matrix(0.25311793,0,0,0.25311793,55.789688,78.669074)"><polygon id="polygon9675" opacity="0.84016395" style="enable-background:new;" transform="matrix(4.0353725,0,0,4.0353725,-605.11285,-315.95545)" points="190.54,140.88,193.32,140.88,194.34,139.86,189.52,139.86" fill="#004987"/><polygon id="polygon9677" opacity="0.84016395" style="enable-background:new;" transform="matrix(4.0353725,0,0,4.0353725,-605.11285,-315.95545)" points="193.32,140.89,193.32,143.66,194.34,144.68,194.34,139.86" fill="#0a7bdc"/><polygon id="polygon9679" opacity="0.84016395" style="enable-background:new;" transform="matrix(4.0353725,0,0,4.0353725,-605.11285,-315.95545)" points="193.32,143.66,190.54,143.66,189.52,144.68,194.34,144.68" fill="#84c4f9"/><polygon id="polygon9681" opacity="0.84016395" style="enable-background:new;" transform="matrix(4.0353725,0,0,4.0353725,-605.11285,-315.95545)" points="190.54,143.66,190.54,140.88,189.52,139.86,189.52,144.68" fill="#0861ab"/></g><g id="g9853" style="enable-background:new;" transform="matrix(0.25311793,0,0,0.25311793,55.789688,78.669074)"><polygon id="polygon9685" opacity="0.84016395" style="enable-background:new;" transform="matrix(4.0353725,0,0,4.0353725,-576.31285,-315.95545)" points="190.54,140.88,193.32,140.88,194.34,139.86,189.52,139.86" fill="#0e5999"/><polygon id="polygon9687" opacity="0.84016395" style="enable-background:new;" transform="matrix(4.0353725,0,0,4.0353725,-576.31285,-315.95545)" points="193.32,140.89,193.32,143.66,194.34,144.68,194.34,139.86" fill="#1683e1"/><polygon id="polygon9689" opacity="0.84016395" style="enable-background:new;" transform="matrix(4.0353725,0,0,4.0353725,-576.31285,-315.95545)" points="193.32,143.66,190.54,143.66,189.52,144.68,194.34,144.68" fill="#7dc0f9"/><polygon id="polygon9691" opacity="0.84016395" style="enable-background:new;" transform="matrix(4.0353725,0,0,4.0353725,-576.31285,-315.95545)" points="190.54,143.66,190.54,140.88,189.52,139.86,189.52,144.68" fill="#156db8"/></g><g id="g9859" style="enable-background:new;" transform="matrix(0.25311793,0,0,0.25311793,55.789688,78.669074)"><polygon id="polygon9695" opacity="0.84016395" style="enable-background:new;" transform="matrix(4.0353725,0,0,4.0353725,-547.51285,-315.95545)" points="190.54,140.88,193.32,140.88,194.34,139.86,189.52,139.86" fill="#0e5999"/><polygon id="polygon9697" opacity="0.84016395" style="enable-background:new;" transform="matrix(4.0353725,0,0,4.0353725,-547.51285,-315.95545)" points="193.32,140.89,193.32,143.66,194.34,144.68,194.34,139.86" fill="#1683e1"/><polygon id="polygon9699" opacity="0.84016395" style="enable-background:new;" transform="matrix(4.0353725,0,0,4.0353725,-547.51285,-315.95545)" points="193.32,143.66,190.54,143.66,189.52,144.68,194.34,144.68" fill="#7dc0f9"/><polygon id="polygon9701" opacity="0.84016395" style="enable-background:new;" transform="matrix(4.0353725,0,0,4.0353725,-547.51285,-315.95545)" points="190.54,143.66,190.54,140.88,189.52,139.86,189.52,144.68" fill="#156db8"/></g><g id="g9865" style="enable-background:new;" transform="matrix(0.25311793,0,0,0.25311793,55.789688,78.669074)"><polygon id="polygon9705" opacity="0.84016395" style="enable-background:new;" transform="matrix(4.0353725,0,0,4.0353725,-519.98167,-315.95545)" points="190.54,140.88,193.32,140.88,194.34,139.86,189.52,139.86" fill="#0e5999"/><polygon id="polygon9707" opacity="0.84016395" style="enable-background:new;" transform="matrix(4.0353725,0,0,4.0353725,-519.98167,-315.95545)" points="193.32,140.89,193.32,143.66,194.34,144.68,194.34,139.86" fill="#1683e1"/><polygon id="polygon9709" opacity="0.84016395" style="enable-background:new;" transform="matrix(4.0353725,0,0,4.0353725,-519.98167,-315.95545)" points="193.32,143.66,190.54,143.66,189.52,144.68,194.34,144.68" fill="#7dc0f9"/><polygon id="polygon9711" opacity="0.84016395" style="enable-background:new;" transform="matrix(4.0353725,0,0,4.0353725,-519.98167,-315.95545)" points="190.54,143.66,190.54,140.88,189.52,139.86,189.52,144.68" fill="#156db8"/></g><g id="g9871" style="enable-background:new;" transform="matrix(0.25311793,0,0,0.25311793,55.789688,78.669074)"><polygon id="polygon9715" opacity="0.84016395" style="enable-background:new;" transform="matrix(4.0353725,0,0,4.0353725,-490.90639,-315.95545)" points="189.52,139.86,190.54,140.88,193.32,140.88,194.34,139.86" fill="#0e5999"/><polygon id="polygon9717" opacity="0.84016395" style="enable-background:new;" transform="matrix(4.0353725,0,0,4.0353725,-490.90639,-315.95545)" points="194.34,139.86,193.32,140.89,193.32,143.66,194.34,144.68" fill="#1683e1"/><polygon id="polygon9719" opacity="0.84016395" style="enable-background:new;" transform="matrix(4.0353725,0,0,4.0353725,-490.90639,-315.95545)" points="194.34,144.68,193.32,143.66,190.54,143.66,189.52,144.68" fill="#7dc0f9"/><polygon id="polygon9721" opacity="0.84016395" style="enable-background:new;" transform="matrix(4.0353725,0,0,4.0353725,-490.90639,-315.95545)" points="189.52,144.68,190.54,143.66,190.54,140.88,189.52,139.86" fill="#156db8"/></g><g id="g9877" style="enable-background:new;" transform="matrix(0.25311793,0,0,0.25311793,55.789688,78.669074)"><polygon id="polygon9725" opacity="0.84016395" style="enable-background:new;" transform="matrix(4.0353725,0,0,4.0353725,-462.43757,-315.95545)" points="194.34,139.86,189.52,139.86,190.54,140.88,193.32,140.88" fill="#0e5999"/><polygon id="polygon9727" opacity="0.84016395" style="enable-background:new;" transform="matrix(4.0353725,0,0,4.0353725,-462.43757,-315.95545)" points="194.34,144.68,194.34,139.86,193.32,140.89,193.32,143.66" fill="#1683e1"/><polygon id="polygon9729" opacity="0.84016395" style="enable-background:new;" transform="matrix(4.0353725,0,0,4.0353725,-462.43757,-315.95545)" points="189.52,144.68,194.34,144.68,193.32,143.66,190.54,143.66" fill="#7dc0f9"/><polygon id="polygon9731" opacity="0.84016395" style="enable-background:new;" transform="matrix(4.0353725,0,0,4.0353725,-462.43757,-315.95545)" points="189.52,139.86,189.52,144.68,190.54,143.66,190.54,140.88" fill="#156db8"/></g><g id="g3405" style="enable-background:new;" transform="matrix(0.25311793,0,0,0.25311793,41.389688,78.669074)"><polygon id="polygon3407" opacity="0.84016395" style="enable-background:new;" transform="matrix(4.0353725,0,0,4.0353725,-605.11285,-315.95545)" points="189.52,139.86,190.54,140.88,193.32,140.88,194.34,139.86" fill="#004987"/><polygon id="polygon3409" opacity="0.84016395" style="enable-background:new;" transform="matrix(4.0353725,0,0,4.0353725,-605.11285,-315.95545)" points="194.34,139.86,193.32,140.89,193.32,143.66,194.34,144.68" fill="#0a7bdc"/><polygon id="polygon3411" opacity="0.84016395" style="enable-background:new;" transform="matrix(4.0353725,0,0,4.0353725,-605.11285,-315.95545)" points="194.34,144.68,193.32,143.66,190.54,143.66,189.52,144.68" fill="#84c4f9"/><polygon id="polygon3413" opacity="0.84016395" style="enable-background:new;" transform="matrix(4.0353725,0,0,4.0353725,-605.11285,-315.95545)" points="189.52,144.68,190.54,143.66,190.54,140.88,189.52,139.86" fill="#0861ab"/></g><g id="g3415" style="enable-background:new;" transform="matrix(0.25311793,0,0,0.25311793,41.389688,78.669074)"><polygon id="polygon3417" opacity="0.84016395" style="enable-background:new;" transform="matrix(4.0353725,0,0,4.0353725,-576.31285,-315.95545)" points="189.52,139.86,190.54,140.88,193.32,140.88,194.34,139.86" fill="#0e5999"/><polygon id="polygon3419" opacity="0.84016395" style="enable-background:new;" transform="matrix(4.0353725,0,0,4.0353725,-576.31285,-315.95545)" points="194.34,139.86,193.32,140.89,193.32,143.66,194.34,144.68" fill="#1683e1"/><polygon id="polygon3421" opacity="0.84016395" style="enable-background:new;" transform="matrix(4.0353725,0,0,4.0353725,-576.31285,-315.95545)" points="194.34,144.68,193.32,143.66,190.54,143.66,189.52,144.68" fill="#7dc0f9"/><polygon id="polygon3423" opacity="0.84016395" style="enable-background:new;" transform="matrix(4.0353725,0,0,4.0353725,-576.31285,-315.95545)" points="189.52,144.68,190.54,143.66,190.54,140.88,189.52,139.86" fill="#156db8"/></g><rect id="rect10336" style="enable-background:new;" transform="translate(3.0275388e-8,1.9017882e-5)" height="7.0414" width="72.008" y="3.7586" x="54.66" fill="#55adf7"/><g id="g10338" style="enable-background:new;" transform="matrix(0.25311793,0,0,0.25311793,44.273576,-57.936873)"><polygon id="polygon10340" opacity="0.84016395" style="enable-background:new;" transform="matrix(4.0353725,0,0,4.0353725,-605.11285,-315.95545)" points="193.32,140.88,194.34,139.86,189.52,139.86,190.54,140.88" fill="#004987"/><polygon id="polygon10342" opacity="0.84016395" style="enable-background:new;" transform="matrix(4.0353725,0,0,4.0353725,-605.11285,-315.95545)" points="193.32,143.66,194.34,144.68,194.34,139.86,193.32,140.89" fill="#0a7bdc"/><polygon id="polygon10344" opacity="0.84016395" style="enable-background:new;" transform="matrix(4.0353725,0,0,4.0353725,-605.11285,-315.95545)" points="190.54,143.66,189.52,144.68,194.34,144.68,193.32,143.66" fill="#84c4f9"/><polygon id="polygon10346" opacity="0.84016395" style="enable-background:new;" transform="matrix(4.0353725,0,0,4.0353725,-605.11285,-315.95545)" points="190.54,140.88,189.52,139.86,189.52,144.68,190.54,143.66" fill="#0861ab"/></g><g id="g10348" style="enable-background:new;" transform="matrix(0.25311793,0,0,0.25311793,44.273576,-57.936873)"><polygon id="polygon10350" opacity="0.84016395" style="enable-background:new;" transform="matrix(4.0353725,0,0,4.0353725,-576.31285,-315.95545)" points="193.32,140.88,194.34,139.86,189.52,139.86,190.54,140.88" fill="#0e5999"/><polygon id="polygon10352" opacity="0.84016395" style="enable-background:new;" transform="matrix(4.0353725,0,0,4.0353725,-576.31285,-315.95545)" points="193.32,143.66,194.34,144.68,194.34,139.86,193.32,140.89" fill="#1683e1"/><polygon id="polygon10354" opacity="0.84016395" style="enable-background:new;" transform="matrix(4.0353725,0,0,4.0353725,-576.31285,-315.95545)" points="190.54,143.66,189.52,144.68,194.34,144.68,193.32,143.66" fill="#7dc0f9"/><polygon id="polygon10356" opacity="0.84016395" style="enable-background:new;" transform="matrix(4.0353725,0,0,4.0353725,-576.31285,-315.95545)" points="190.54,140.88,189.52,139.86,189.52,144.68,190.54,143.66" fill="#156db8"/></g><g id="g10358" style="enable-background:new;" transform="matrix(0.25311793,0,0,0.25311793,44.273576,-57.936873)"><polygon id="polygon10360" opacity="0.84016395" style="enable-background:new;" transform="matrix(4.0353725,0,0,4.0353725,-547.51285,-315.95545)" points="193.32,140.88,194.34,139.86,189.52,139.86,190.54,140.88" fill="#0e5999"/><polygon id="polygon10362" opacity="0.84016395" style="enable-background:new;" transform="matrix(4.0353725,0,0,4.0353725,-547.51285,-315.95545)" points="193.32,143.66,194.34,144.68,194.34,139.86,193.32,140.89" fill="#1683e1"/><polygon id="polygon10364" opacity="0.84016395" style="enable-background:new;" transform="matrix(4.0353725,0,0,4.0353725,-547.51285,-315.95545)" points="190.54,143.66,189.52,144.68,194.34,144.68,193.32,143.66" fill="#7dc0f9"/><polygon id="polygon10366" opacity="0.84016395" style="enable-background:new;" transform="matrix(4.0353725,0,0,4.0353725,-547.51285,-315.95545)" points="190.54,140.88,189.52,139.86,189.52,144.68,190.54,143.66" fill="#156db8"/></g><g id="g10368" style="enable-background:new;" transform="matrix(0.25311793,0,0,0.25311793,44.273576,-57.936873)"><polygon id="polygon10370" opacity="0.84016395" style="enable-background:new;" transform="matrix(4.0353725,0,0,4.0353725,-519.98167,-315.95545)" points="193.32,140.88,194.34,139.86,189.52,139.86,190.54,140.88" fill="#0e5999"/><polygon id="polygon10372" opacity="0.84016395" style="enable-background:new;" transform="matrix(4.0353725,0,0,4.0353725,-519.98167,-315.95545)" points="193.32,143.66,194.34,144.68,194.34,139.86,193.32,140.89" fill="#1683e1"/><polygon id="polygon10374" opacity="0.84016395" style="enable-background:new;" transform="matrix(4.0353725,0,0,4.0353725,-519.98167,-315.95545)" points="190.54,143.66,189.52,144.68,194.34,144.68,193.32,143.66" fill="#7dc0f9"/><polygon id="polygon10376" opacity="0.84016395" style="enable-background:new;" transform="matrix(4.0353725,0,0,4.0353725,-519.98167,-315.95545)" points="190.54,140.88,189.52,139.86,189.52,144.68,190.54,143.66" fill="#156db8"/></g><g id="g10378" style="enable-background:new;" transform="matrix(0.25311793,0,0,0.25311793,44.273576,-57.936873)"><polygon id="polygon10380" opacity="0.84016395" style="enable-background:new;" transform="matrix(4.0353725,0,0,4.0353725,-490.90639,-315.95545)" points="190.54,140.88,193.32,140.88,194.34,139.86,189.52,139.86" fill="#0e5999"/><polygon id="polygon10382" opacity="0.84016395" style="enable-background:new;" transform="matrix(4.0353725,0,0,4.0353725,-490.90639,-315.95545)" points="193.32,140.89,193.32,143.66,194.34,144.68,194.34,139.86" fill="#1683e1"/><polygon id="polygon10384" opacity="0.84016395" style="enable-background:new;" transform="matrix(4.0353725,0,0,4.0353725,-490.90639,-315.95545)" points="193.32,143.66,190.54,143.66,189.52,144.68,194.34,144.68" fill="#7dc0f9"/><polygon id="polygon10386" opacity="0.84016395" style="enable-background:new;" transform="matrix(4.0353725,0,0,4.0353725,-490.90639,-315.95545)" points="190.54,143.66,190.54,140.88,189.52,139.86,189.52,144.68" fill="#156db8"/></g><g id="g10388" style="enable-background:new;" transform="matrix(0.25311793,0,0,0.25311793,44.273576,-57.936873)"><polygon id="polygon10390" opacity="0.84016395" style="enable-background:new;" transform="matrix(4.0353725,0,0,4.0353725,-462.43757,-315.95545)" points="189.52,139.86,190.54,140.88,193.32,140.88,194.34,139.86" fill="#0e5999"/><polygon id="polygon10392" opacity="0.84016395" style="enable-background:new;" transform="matrix(4.0353725,0,0,4.0353725,-462.43757,-315.95545)" points="194.34,139.86,193.32,140.89,193.32,143.66,194.34,144.68" fill="#1683e1"/><polygon id="polygon10394" opacity="0.84016395" style="enable-background:new;" transform="matrix(4.0353725,0,0,4.0353725,-462.43757,-315.95545)" points="194.34,144.68,193.32,143.66,190.54,143.66,189.52,144.68" fill="#7dc0f9"/><polygon id="polygon10396" opacity="0.84016395" style="enable-background:new;" transform="matrix(4.0353725,0,0,4.0353725,-462.43757,-315.95545)" points="189.52,144.68,190.54,143.66,190.54,140.88,189.52,139.86" fill="#156db8"/></g><g id="g10398" style="enable-background:new;" transform="matrix(0.25311793,0,0,0.25311793,37.201633,-57.936873)"><polygon id="polygon10400" opacity="0.84016395" style="enable-background:new;" transform="matrix(4.0353725,0,0,4.0353725,-605.11285,-315.95545)" points="193.32,140.88,194.34,139.86,189.52,139.86,190.54,140.88" fill="#004987"/><polygon id="polygon10402" opacity="0.84016395" style="enable-background:new;" transform="matrix(4.0353725,0,0,4.0353725,-605.11285,-315.95545)" points="193.32,143.66,194.34,144.68,194.34,139.86,193.32,140.89" fill="#0a7bdc"/><polygon id="polygon10404" opacity="0.84016395" style="enable-background:new;" transform="matrix(4.0353725,0,0,4.0353725,-605.11285,-315.95545)" points="190.54,143.66,189.52,144.68,194.34,144.68,193.32,143.66" fill="#84c4f9"/><polygon id="polygon10406" opacity="0.84016395" style="enable-background:new;" transform="matrix(4.0353725,0,0,4.0353725,-605.11285,-315.95545)" points="190.54,140.88,189.52,139.86,189.52,144.68,190.54,143.66" fill="#0861ab"/></g><g id="g10408" style="enable-background:new;" transform="matrix(0.25311793,0,0,0.25311793,30.067312,-57.936873)"><polygon id="polygon10410" opacity="0.84016395" style="enable-background:new;" transform="matrix(4.0353725,0,0,4.0353725,-605.11285,-315.95545)" points="194.34,139.86,189.52,139.86,190.54,140.88,193.32,140.88" fill="#004987"/><polygon id="polygon10412" opacity="0.84016395" style="enable-background:new;" transform="matrix(4.0353725,0,0,4.0353725,-605.11285,-315.95545)" points="194.34,144.68,194.34,139.86,193.32,140.89,193.32,143.66" fill="#0a7bdc"/><polygon id="polygon10414" opacity="0.84016395" style="enable-background:new;" transform="matrix(4.0353725,0,0,4.0353725,-605.11285,-315.95545)" points="189.52,144.68,194.34,144.68,193.32,143.66,190.54,143.66" fill="#84c4f9"/><polygon id="polygon10416" opacity="0.84016395" style="enable-background:new;" transform="matrix(4.0353725,0,0,4.0353725,-605.11285,-315.95545)" points="189.52,139.86,189.52,144.68,190.54,143.66,190.54,140.88" fill="#0861ab"/></g><g id="g3591" style="enable-background:new;" transform="matrix(0.25311793,0,0,0.25311793,22.565096,-57.936873)"><polygon id="polygon3593" opacity="0.84016395" style="enable-background:new;" transform="matrix(4.0353725,0,0,4.0353725,-605.11285,-315.95545)" points="190.54,140.88,193.32,140.88,194.34,139.86,189.52,139.86" fill="#004987"/><polygon id="polygon3595" opacity="0.84016395" style="enable-background:new;" transform="matrix(4.0353725,0,0,4.0353725,-605.11285,-315.95545)" points="193.32,140.89,193.32,143.66,194.34,144.68,194.34,139.86" fill="#0a7bdc"/><polygon id="polygon3597" opacity="0.84016395" style="enable-background:new;" transform="matrix(4.0353725,0,0,4.0353725,-605.11285,-315.95545)" points="193.32,143.66,190.54,143.66,189.52,144.68,194.34,144.68" fill="#84c4f9"/><polygon id="polygon3599" opacity="0.84016395" style="enable-background:new;" transform="matrix(4.0353725,0,0,4.0353725,-605.11285,-315.95545)" points="190.54,143.66,190.54,140.88,189.52,139.86,189.52,144.68" fill="#0861ab"/></g><g id="g3601" style="enable-background:new;" transform="matrix(0.25311793,0,0,0.25311793,15.430775,-57.936873)"><polygon id="polygon3603" opacity="0.84016395" style="enable-background:new;" transform="matrix(4.0353725,0,0,4.0353725,-605.11285,-315.95545)" points="193.32,140.88,194.34,139.86,189.52,139.86,190.54,140.88" fill="#004987"/><polygon id="polygon3605" opacity="0.84016395" style="enable-background:new;" transform="matrix(4.0353725,0,0,4.0353725,-605.11285,-315.95545)" points="193.32,143.66,194.34,144.68,194.34,139.86,193.32,140.89" fill="#0a7bdc"/><polygon id="polygon3607" opacity="0.84016395" style="enable-background:new;" transform="matrix(4.0353725,0,0,4.0353725,-605.11285,-315.95545)" points="190.54,143.66,189.52,144.68,194.34,144.68,193.32,143.66" fill="#84c4f9"/><polygon id="polygon3609" opacity="0.84016395" style="enable-background:new;" transform="matrix(4.0353725,0,0,4.0353725,-605.11285,-315.95545)" points="190.54,140.88,189.52,139.86,189.52,144.68,190.54,143.66" fill="#0861ab"/></g><text id="text3151" style="writing-mode:lr-tb;text-anchor:start;text-align:start;" line-height="100%" font-family="Droid Sans" xml:space="preserve" font-size="5.60000038px" font-stretch="normal" font-variant="normal" y="22.721256" x="118.82306" font-weight="normal" font-style="normal" fill="#ffffff"><tspan id="tspan3153" style="writing-mode:lr-tb;text-anchor:start;text-align:start;" font-family="Droid Sans" font-size="5.60000038px" y="22.721256" font-stretch="normal" font-variant="normal" font-style="normal" x="118.82306" font-weight="normal" line-height="100%">Digital I/O</tspan></text>
<text id="text3161" style="writing-mode:lr-tb;text-anchor:start;text-align:start;" line-height="100%" font-family="Droid Sans" xml:space="preserve" transform="scale(1.0098053,0.99028987)" font-stretch="normal" font-size="4.84706593px" font-variant="normal" y="24.506704" x="168.73767" font-weight="normal" font-style="normal" fill="#ffffff"><tspan id="tspan3163" style="writing-mode:lr-tb;text-anchor:start;text-align:start;" font-family="Droid Sans" font-size="4.84706593px" y="24.506704" font-stretch="normal" font-variant="normal" font-style="normal" x="168.73767" font-weight="normal" line-height="100%">LED</tspan></text>
<text id="text3165" style="writing-mode:lr-tb;text-anchor:start;text-align:start;" font-family="Droid Sans" xml:space="preserve" transform="scale(0.93172948,1.0732729)" line-height="100%" y="82.052223" font-stretch="normal" font-size="4.15888786px" font-variant="normal" x="30.19751" font-weight="normal" font-style="normal" fill="#ffffff"><tspan id="tspan3167" style="writing-mode:lr-tb;text-anchor:start;text-align:start;" font-family="Droid Sans" font-size="4.15888786px" y="82.052223" font-stretch="normal" font-variant="normal" font-style="normal" x="30.19751" font-weight="normal" line-height="100%">PWR</tspan></text>
<text id="text3169" style="writing-mode:lr-tb;text-anchor:start;text-align:start;" line-height="100%" font-family="Droid Sans" xml:space="preserve" font-size="5.60000038px" font-style="normal" font-stretch="normal" font-variant="normal" y="128.31113" x="106.56316" font-weight="normal" fill="#ffffff"><tspan id="tspan3171" style="writing-mode:lr-tb;text-anchor:start;text-align:start;" font-family="Droid Sans" font-size="5.60000038px" y="128.31113" font-stretch="normal" font-variant="normal" font-style="normal" x="106.56316" font-weight="normal" line-height="100%">Power</tspan></text>
<text id="text3173" style="writing-mode:lr-tb;text-anchor:start;text-align:start;" line-height="100%" font-family="Droid Sans" xml:space="preserve" font-size="5.60000038px" font-stretch="normal" font-variant="normal" y="130.8255" x="155.27025" font-weight="normal" font-style="normal" fill="#ffffff"><tspan id="tspan3175" style="writing-mode:lr-tb;text-anchor:start;text-align:start;" font-family="Droid Sans" font-size="5.60000038px" y="130.8255" font-stretch="normal" font-variant="normal" font-style="normal" x="155.27025" font-weight="normal" line-height="100%">Analog In</tspan></text>
<text id="text3177" style="writing-mode:lr-tb;text-anchor:start;text-align:start;" line-height="100%" font-family="Droid Sans Mono" xml:space="preserve" transform="scale(1.0689727,0.93547758)" font-stretch="normal" font-size="6.58769894px" font-variant="normal" y="126.27583" x="117.11691" font-weight="normal" font-style="normal" fill="#ffffff"><tspan id="tspan3179" style="writing-mode:lr-tb;text-anchor:start;text-align:start;" font-family="Droid Sans Mono" font-size="6.58769894px" y="126.27583" font-stretch="normal" font-variant="normal" font-style="normal" x="117.11691" font-weight="normal" line-height="100%">www.netduino.com</tspan></text>
<text id="text3265" style="writing-mode:lr-tb;text-anchor:start;text-align:start;" line-height="100%" font-family="Droid Sans" xml:space="preserve" font-size="8.00000095px" font-stretch="normal" font-variant="normal" y="147.92143" x="7.9224286" font-weight="normal" font-style="normal" fill="#000000"><tspan id="tspan3267" style="writing-mode:lr-tb;text-anchor:start;text-align:start;" font-family="Droid Sans" font-size="4.80000019px" y="147.92143" font-stretch="normal" font-variant="normal" font-style="normal" x="7.9224286" font-weight="normal" line-height="100%" fill="#ffffff">7.5-9.0V</tspan></text>
<text id="text3269" style="writing-mode:lr-tb;text-anchor:start;text-align:start;" line-height="100%" font-family="Droid Sans" xml:space="preserve" font-size="4.80000019px" font-stretch="normal" font-variant="normal" y="75.912041" x="171.04176" font-weight="normal" font-style="normal" fill="#ffffff"><tspan id="tspan3271" style="writing-mode:lr-tb;text-anchor:start;text-align:start;" font-family="Droid Sans" font-size="4.80000019px" y="75.912041" font-stretch="normal" font-variant="normal" font-style="normal" x="171.04176" font-weight="normal" line-height="100%">BTN</tspan></text>
<text id="text10010" style="writing-mode:lr-tb;text-anchor:start;text-align:start;" font-family="Droid Sans" xml:space="preserve" transform="matrix(0,-0.835648,1.1966761,0,0,0)" line-height="125%" y="68.325493" font-stretch="normal" font-size="4.67962885px" font-variant="normal" x="-23.975937" font-weight="normal" font-style="normal" fill="#ffffff"><tspan id="tspan10012" y="68.325493" x="-23.975937">GND</tspan></text>
<text id="text10014" style="writing-mode:lr-tb;text-anchor:start;text-align:start;" font-family="Droid Sans" xml:space="preserve" transform="matrix(0,-1,1,0,0,0)" line-height="125%" y="89.064697" font-stretch="normal" font-size="5.60000038px" font-variant="normal" x="-17.477041" font-weight="normal" font-style="normal" fill="#ffffff"><tspan id="tspan10016" y="89.064697" x="-17.477041">13</tspan></text>
<text id="text10018" style="writing-mode:lr-tb;text-anchor:start;text-align:start;" font-family="Droid Sans" xml:space="preserve" transform="matrix(0,-1,1,0,0,0)" line-height="125%" y="96.330597" font-stretch="normal" font-size="5.60000038px" font-variant="normal" x="-17.474758" font-weight="normal" font-style="normal" fill="#ffffff"><tspan id="tspan10020" y="96.330597" x="-17.474758">12</tspan></text>
<text id="text10022" style="writing-mode:lr-tb;text-anchor:start;text-align:start;" font-family="Droid Sans" xml:space="preserve" transform="matrix(0,-1,1,0,0,0)" line-height="125%" y="103.59685" font-stretch="normal" font-size="5.60000038px" font-variant="normal" x="-17.457941" font-weight="normal" font-style="normal" fill="#ffffff"><tspan id="tspan10024" y="103.59685" x="-17.457941">11</tspan></text>
<text id="text10026" style="writing-mode:lr-tb;text-anchor:start;text-align:start;" font-family="Droid Sans" xml:space="preserve" transform="matrix(0,-1,1,0,0,0)" line-height="125%" y="110.78382" font-stretch="normal" font-size="5.60000038px" font-variant="normal" x="-17.459995" font-weight="normal" font-style="normal" fill="#ffffff"><tspan id="tspan10028" y="110.78382" x="-17.459995">10</tspan></text>
<text id="text10030" style="writing-mode:lr-tb;text-anchor:start;text-align:start;" font-family="Droid Sans" xml:space="preserve" transform="matrix(0,-1,1,0,0,0)" line-height="125%" y="118.06225" font-stretch="normal" font-size="5.60000038px" font-variant="normal" x="-14.369856" font-weight="normal" font-style="normal" fill="#ffffff"><tspan id="tspan10032" y="118.06225" x="-14.369856">9</tspan></text>
<text id="text10034" style="writing-mode:lr-tb;text-anchor:start;text-align:start;" font-family="Droid Sans" xml:space="preserve" transform="matrix(0,-1,1,0,0,0)" line-height="125%" y="125.35255" font-stretch="normal" font-size="5.60000038px" font-variant="normal" x="-14.387992" font-weight="normal" font-style="normal" fill="#ffffff"><tspan id="tspan10036" y="125.35255" x="-14.387992">8</tspan></text>
<text id="text3389" style="writing-mode:lr-tb;text-anchor:start;text-align:start;" line-height="125%" font-family="Droid Sans" xml:space="preserve" transform="matrix(0,-0.89404439,1.1185127,0,0,0)" font-stretch="normal" font-size="5.00664902px" font-variant="normal" y="60.22596" x="-19.281206" font-weight="normal" font-style="normal" fill="#ffffff"><tspan id="tspan3391" y="60.22596" x="-19.281206">SD</tspan></text>
<text id="text3393" style="writing-mode:lr-tb;text-anchor:start;text-align:start;" font-family="Droid Sans" xml:space="preserve" transform="matrix(0,-0.89521884,1.1170453,0,0,0)" line-height="125%" y="53.976761" font-stretch="normal" font-size="5.01322603px" font-variant="normal" x="-19.150734" font-weight="normal" font-style="normal" fill="#ffffff"><tspan id="tspan3395" y="53.976761" x="-19.150734">SC</tspan></text>
<text id="text10038" style="writing-mode:lr-tb;text-anchor:start;text-align:start;" font-family="Droid Sans" xml:space="preserve" transform="matrix(0,-1,1,0,0,0)" line-height="125%" y="136.56058" font-stretch="normal" font-size="5.60000038px" font-variant="normal" x="-14.496401" font-weight="normal" font-style="normal" fill="#ffffff"><tspan id="tspan10040" y="136.56058" x="-14.496401">7</tspan></text>
<text id="text10042" style="writing-mode:lr-tb;text-anchor:start;text-align:start;" font-family="Droid Sans" xml:space="preserve" transform="matrix(0,-1,1,0,0,0)" line-height="125%" y="143.89989" font-stretch="normal" font-size="5.60000038px" font-variant="normal" x="-14.487597" font-weight="normal" font-style="normal" fill="#ffffff"><tspan id="tspan10044" y="143.89989" x="-14.487597">6</tspan></text>
<text id="text10046" style="writing-mode:lr-tb;text-anchor:start;text-align:start;" font-family="Droid Sans" xml:space="preserve" transform="matrix(0,-1,1,0,0,0)" line-height="125%" y="151.0045" font-stretch="normal" font-size="5.60000038px" font-variant="normal" x="-14.509706" font-weight="normal" font-style="normal" fill="#ffffff"><tspan id="tspan10048" y="151.0045" x="-14.509706">5</tspan></text>
<text id="text10050" style="writing-mode:lr-tb;text-anchor:start;text-align:start;" font-family="Droid Sans" xml:space="preserve" transform="matrix(0,-1,1,0,0,0)" line-height="125%" y="158.18883" font-stretch="normal" font-size="5.60000038px" font-variant="normal" x="-14.496066" font-weight="normal" font-style="normal" fill="#ffffff"><tspan id="tspan10052" y="158.18883" x="-14.496066">4</tspan></text>
<text id="text10054" style="writing-mode:lr-tb;text-anchor:start;text-align:start;" font-family="Droid Sans" xml:space="preserve" transform="matrix(0,-1,1,0,0,0)" line-height="125%" y="165.47093" font-stretch="normal" font-size="5.60000038px" font-variant="normal" x="-14.504219" font-weight="normal" font-style="normal" fill="#ffffff"><tspan id="tspan10056" y="165.47093" x="-14.504219">3</tspan></text>
<text id="text10058" style="writing-mode:lr-tb;text-anchor:start;text-align:start;" font-family="Droid Sans" xml:space="preserve" transform="matrix(0,-1,1,0,0,0)" line-height="125%" y="172.49138" font-stretch="normal" font-size="5.60000038px" font-variant="normal" x="-14.502208" font-weight="normal" font-style="normal" fill="#ffffff"><tspan id="tspan10060" y="172.49138" x="-14.502208">2</tspan></text>
<text id="text10062" style="writing-mode:lr-tb;text-anchor:start;text-align:start;" font-family="Droid Sans" xml:space="preserve" transform="matrix(0,-1,1,0,0,0)" line-height="125%" y="179.81573" font-stretch="normal" font-size="5.60000038px" font-variant="normal" x="-14.49183" font-weight="normal" font-style="normal" fill="#ffffff"><tspan id="tspan10064" y="179.81573" x="-14.49183">1</tspan></text>
<text id="text10066" style="writing-mode:lr-tb;text-anchor:start;text-align:start;" font-family="Droid Sans" xml:space="preserve" transform="matrix(0,-1,1,0,0,0)" line-height="125%" y="187.09825" font-stretch="normal" font-size="5.60000038px" font-variant="normal" x="-14.49796" font-weight="normal" font-style="normal" fill="#ffffff"><tspan id="tspan10068" y="187.09825" x="-14.49796">0</tspan></text>
<text id="text10082" style="writing-mode:lr-tb;text-anchor:start;text-align:start;" font-family="Droid Sans" xml:space="preserve" transform="matrix(0,-0.97726508,1.0232638,0,0,0)" line-height="125%" y="98.351212" font-stretch="normal" font-size="5.47268486px" font-variant="normal" x="-141.94991" font-weight="normal" font-style="normal" fill="#ffffff"><tspan id="tspan10084" y="98.351212" x="-141.94991">/RESET</tspan></text>
<text id="text10086" style="writing-mode:lr-tb;text-anchor:start;text-align:start;" font-family="Droid Sans" xml:space="preserve" transform="matrix(0,-1,1,0,0,0)" line-height="125%" y="107.87072" font-stretch="normal" font-size="5.60000038px" font-variant="normal" x="-139.60316" font-weight="normal" font-style="normal" fill="#ffffff"><tspan id="tspan10088" y="107.87072" x="-139.60316">3V3</tspan></text>
<text id="text10090" style="writing-mode:lr-tb;text-anchor:start;text-align:start;" font-family="Droid Sans" xml:space="preserve" transform="matrix(0,-1,1,0,0,0)" line-height="125%" y="115.25291" font-stretch="normal" font-size="5.60000038px" font-variant="normal" x="-139.59904" font-weight="normal" font-style="normal" fill="#ffffff"><tspan id="tspan10092" y="115.25291" x="-139.59904">5V</tspan></text>
<text id="text10094" style="writing-mode:lr-tb;text-anchor:start;text-align:start;" font-family="Droid Sans" xml:space="preserve" transform="matrix(0,-1,1,0,0,0)" line-height="125%" y="136.82454" font-stretch="normal" font-size="5.60000038px" font-variant="normal" x="-139.59499" font-weight="normal" font-style="normal" fill="#ffffff"><tspan id="tspan10096" y="136.82454" x="-139.59499">VIN</tspan></text>
<text id="text10010-4" style="enable-background:new;writing-mode:lr-tb;text-anchor:start;text-align:start;" font-family="Droid Sans" xml:space="preserve" transform="matrix(0,-0.86230007,1.1596891,0,0,0)" line-height="125%" y="105.42197" font-stretch="normal" font-size="4.82888079px" font-variant="normal" x="-161.77829" font-weight="normal" font-style="normal" fill="#ffffff"><tspan id="tspan10012-0" y="105.42197" x="-161.77829">GND</tspan></text>
<text id="text10170" style="enable-background:new;writing-mode:lr-tb;text-anchor:start;text-align:start;" line-height="125%" font-family="Droid Sans" xml:space="preserve" transform="matrix(0,-0.86230007,1.1596891,0,0,0)" font-stretch="normal" font-size="4.82888079px" font-variant="normal" y="111.75381" x="-161.77753" font-weight="normal" font-style="normal" fill="#ffffff"><tspan id="tspan10172" y="111.75381" x="-161.77753">GND</tspan></text>
<text id="text3397" style="writing-mode:lr-tb;text-anchor:start;text-align:start;" line-height="125%" font-family="Droid Sans" xml:space="preserve" transform="matrix(0,-0.89918975,1.1121123,0,0,0)" font-stretch="normal" font-size="5.03546238px" font-variant="normal" y="84.137367" x="-153.93028" font-weight="normal" font-style="normal" fill="#ffffff"><tspan id="tspan3399" y="84.137367" x="-153.93028">IOREF</tspan></text>
<text id="text10046-9" style="enable-background:new;writing-mode:lr-tb;text-anchor:start;text-align:start;" font-family="Droid Sans" xml:space="preserve" transform="matrix(0,-1,1,0,0,0)" line-height="125%" y="187.17484" font-stretch="normal" font-size="5.60000038px" font-variant="normal" x="-139.59985" font-weight="normal" font-style="normal" fill="#ffffff"><tspan id="tspan10048-4" y="187.17484" x="-139.59985">5</tspan></text>
<text id="text10050-8" style="enable-background:new;writing-mode:lr-tb;text-anchor:start;text-align:start;" font-family="Droid Sans" xml:space="preserve" transform="matrix(0,-1,1,0,0,0)" line-height="125%" y="179.88805" font-stretch="normal" font-size="5.60000038px" font-variant="normal" x="-139.58974" font-weight="normal" font-style="normal" fill="#ffffff"><tspan id="tspan10052-8" y="179.88805" x="-139.58974">4</tspan></text>
<text id="text10054-2" style="enable-background:new;writing-mode:lr-tb;text-anchor:start;text-align:start;" font-family="Droid Sans" xml:space="preserve" transform="matrix(0,-1,1,0,0,0)" line-height="125%" y="172.61165" font-stretch="normal" font-size="5.60000038px" font-variant="normal" x="-139.5992" font-weight="normal" font-style="normal" fill="#ffffff"><tspan id="tspan10056-4" y="172.61165" x="-139.5992">3</tspan></text>
<text id="text10058-5" style="enable-background:new;writing-mode:lr-tb;text-anchor:start;text-align:start;" font-family="Droid Sans" xml:space="preserve" transform="matrix(0,-1,1,0,0,0)" line-height="125%" y="165.32823" font-stretch="normal" font-size="5.60000038px" font-variant="normal" x="-139.59306" font-weight="normal" font-style="normal" fill="#ffffff"><tspan id="tspan10060-5" y="165.32823" x="-139.59306">2</tspan></text>
<text id="text10062-1" style="enable-background:new;writing-mode:lr-tb;text-anchor:start;text-align:start;" font-family="Droid Sans" xml:space="preserve" transform="matrix(0,-1,1,0,0,0)" line-height="125%" y="158.04451" font-stretch="normal" font-size="5.60000038px" font-variant="normal" x="-139.58559" font-weight="normal" font-style="normal" fill="#ffffff"><tspan id="tspan10064-7" y="158.04451" x="-139.58559">1</tspan></text>
<text id="text10066-1" style="enable-background:new;writing-mode:lr-tb;text-anchor:start;text-align:start;" font-family="Droid Sans" xml:space="preserve" transform="matrix(0,-1,1,0,0,0)" line-height="125%" y="150.7635" font-stretch="normal" font-size="5.60000038px" font-variant="normal" x="-139.59279" font-weight="normal" font-style="normal" fill="#ffffff"><tspan id="tspan10068-1" y="150.7635" x="-139.59279">0</tspan></text>
<g id="g4512" fill="#FFF" transform="matrix(0.27246189,0,0,0.27246189,95.544552,-5.0926443)">
	<path id="path4514" d="m312.16,204.01v-7.576h-2.83v-1.014h6.809v1.014h-2.842v7.576h-1.137z"/>
	<path id="path4516" d="m317.26,204.01v-8.59h1.711l2.033,6.082c0.188,0.566,0.324,0.99,0.41,1.271,0.098-0.313,0.25-0.771,0.457-1.377l2.057-5.977h1.529v8.59h-1.096v-7.189l-2.496,7.189h-1.025l-2.484-7.313v7.313h-1.096z"/>
</g><g id="g4306" fill="#FFF"><path id="path4225" d="m138.23,45.96v-3.6443c0-1.64,1.1452-2.7333,2.6681-2.7333,1.5228,0,2.6681,1.0934,2.6681,2.7333v3.644h-1.1452v-3.6443c0-0.96323-0.70276-1.64-1.5228-1.64-0.81989,0-1.5228,0.67673-1.5228,1.64v3.644h-1.1452z"/><path id="path4227" d="m146.59,43.904-0.46851-0.91117,3.0845-1.718c-0.39043-0.39042-0.71578-0.59865-1.4187-0.59865-1.1845,0-2.0434,0.88496-2.0434,2.1605,0,1.2754,0.85893,2.1605,2.0434,2.1605,1.3536,0,1.8612-0.80688,2.0954-1.9523l1.1584,0.14316c-0.13014,1.653-1.4578,2.9025-3.2537,2.9025-1.7311,0-3.2409-1.3276-3.2409-3.2537,0-1.9263,1.5098-3.2539,3.2409-3.2539,1.4576,0,2.4338,0.76801,3.0196,1.9783l-4.2171,2.3427z"/><path id="path4229" d="m155.54,40.806h-2.2388v3.2799c0,0.58582,0.2733,0.78103,0.85894,0.78103h1.3797v1.0932h-1.5358c-1.1713,0-1.8482-0.78085-1.8482-2.0174v-5.7916h1.1452v1.5619h2.2386v1.093z"/><path id="path4231" d="m162.44,36.85v5.8048c0,2.0564-1.3144,3.4361-3.1498,3.4361-2.0304,0-3.2277-1.5619-3.2277-3.4101,0-1.7441,1.4057-3.0977,3.0064-3.0977,0.62486,0,1.2235,0.13014,1.7701,0.44248v1.1975c-0.41645-0.28631-1.0543-0.54659-1.5749-0.54659-1.2363,0-2.0564,0.85893-2.0564,2.1475,0,1.2756,0.85893,2.1735,2.0824,2.1735,1.0934,0,2.0044-0.8329,2.0044-2.5509v-5.5964h1.1454z"/><path id="path4233" d="m168.88,39.713v3.6443c0,1.64-1.1452,2.7333-2.6681,2.7333-1.5228,0-2.6681-1.0934-2.6681-2.7333v-3.6439h1.1452v3.6443c0,0.96323,0.70294,1.64,1.5228,1.64,0.82007,0,1.5228-0.67673,1.5228-1.64v-3.6439h1.1452z"/><path id="path4235" d="m171.28,37.631c0.44248,0,0.68974,0.33837,0.68974,0.68975s-0.24726,0.68975-0.68974,0.68975-0.68975-0.33837-0.68975-0.68975,0.24709-0.68975,0.68975-0.68975zm-0.57263,8.3298v-6.2473h1.1452v6.2473h-1.1452z"/><path id="path4237" d="m173.67,45.96v-3.6443c0-1.64,1.1452-2.7333,2.6681-2.7333,1.5228,0,2.6681,1.0934,2.6681,2.7333v3.6444h-1.148v-3.6443c0-0.96323-0.70294-1.64-1.5228-1.64-0.81989,0-1.5228,0.67673-1.5228,1.64v3.6443h-1.1452z"/><path id="path4239" d="m183.21,39.583c1.7309,0,3.2409,1.3276,3.2409,3.2539s-1.51,3.2537-3.2409,3.2537c-1.7311,0-3.2409-1.3276-3.2409-3.2537,0-1.9263,1.5098-3.2539,3.2409-3.2539zm0,5.4142c1.1845,0,2.0434-0.88496,2.0434-2.1605,0-1.2756-0.85893-2.1605-2.0434-2.1605s-2.0434,0.88496-2.0434,2.1605c0,1.2756,0.85893,2.1605,2.0434,2.1605z"/></g><g id="g4316" fill="#FFF" transform="translate(-6.5458343,-3.5849065)"><path id="path4241" d="m151.55,64.389v-5.7528c0-2.0564,1.3144-3.4361,3.1496-3.4361,2.0304,0,3.2277,1.5619,3.2277,3.4101,0,1.7439-1.4055,3.0975-3.0064,3.0975-0.62467,0-1.2235-0.13014-1.7701-0.44248v-1.1973c0.41645,0.28631,1.0543,0.54659,1.5749,0.54659,1.2365,0,2.0564-0.85911,2.0564-2.1477,0-1.2754-0.85893-2.1734-2.0824-2.1734-1.0932,0-2.0044,0.8329-2.0044,2.5509v5.5446h-1.1452z"/><path id="path4243" d="m159.14,61.577v-9.1106h1.1454v9.111h-1.15z"/><path id="path4245" d="m167.08,55.33v3.6441c0,1.64-1.1452,2.7331-2.6681,2.7331-1.5228,0-2.6681-1.0932-2.6681-2.7331v-3.644h1.1452v3.6441c0,0.96304,0.70295,1.64,1.5228,1.64,0.82007,0,1.5228-0.67692,1.5228-1.64v-3.644h1.1452z"/><path id="path4247" d="m168.03,60.484h3.2017c0.53376,0,0.74198-0.20804,0.74198-0.59865,0-1.1454-3.9436-0.70294-3.9436-2.8635,0-1.1062,0.76802-1.6918,2.1345-1.6918h2.6943v1.0932h-2.8895c-0.55961,0-0.72879,0.15617-0.74181,0.54659-0.013,1.0804,3.9436,0.62468,3.9436,2.8635,0,1.1843-0.8329,1.7439-1.9393,1.7439h-3.2017v-1.0932z"/></g><text id="text3453" style="enable-background:new;letter-spacing:0px;word-spacing:0px;" font-family="Droid Sans" xml:space="preserve" font-size="3.20000029px" line-height="125%" y="5.0262365" font-stretch="normal" font-variant="normal" font-style="normal" x="9.8624372" font-weight="normal" fill="#ffffff"><tspan id="tspan3455" y="5.0262365" x="9.8624372">ACT</tspan></text>
<text id="text3471" style="letter-spacing:0px;word-spacing:0px;" font-family="Droid Sans" xml:space="preserve" font-size="4.00000048px" line-height="125%" y="148.85837" font-stretch="normal" font-variant="normal" font-style="normal" x="50.34433" font-weight="normal" fill="#ffffff"><tspan id="tspan3473" y="148.85837" x="50.34433">MicroSD</tspan></text>
<path id="path3442" style="text-align:start;" fill="#FFF" d="m174.11,57.156,5.1058,0,0,1.3436-5.5867,0c-0.38659,0-0.68596-0.09076-0.89811-0.27226-0.21216-0.18151-0.31823-0.43727-0.31823-0.76729,0-0.18386,0.0613-0.3748,0.18386-0.57281,0.12258-0.19801,0.29702-0.38895,0.52332-0.57281l3.6208-2.9136c0.37244-0.29701,0.64706-0.61052,0.82386-0.94055,0.17679-0.33001,0.26519-0.69303,0.26519-1.0891,0-0.54216-0.18387-0.99122-0.5516-1.3472-0.36774-0.35594-0.83211-0.53391-1.3931-0.53392-0.56103,0.000009-1.0266,0.18505-1.3967,0.55514-0.3701,0.3701-0.55514,0.83801-0.55514,1.4037-0.17188,0.60982-1.2762,0.38867-1.37-0.10223,0-0.95232,0.28447-1.6056,0.928-2.2209,0.64353-0.61524,1.4627-0.92286,2.4574-0.92287,0.96647,0.000011,1.7609,0.29467,2.3832,0.88397,0.62231,0.58932,0.93347,1.3413,0.93347,2.2559,0,0.62232-0.1544,1.1975-0.4632,1.7255-0.30881,0.52803-0.80265,1.0537-1.4815,1.577z"/></g><g id="layer5" transform="translate(2.0211729,-1.9e-5)"><rect id="connector30pin" y="6.0094" x="56.987" height="2.773" width="2.774"/><rect id="connector31pin" y="6.0094" x="64.079" height="2.773" width="2.774"/><rect id="connector0pin" y="6.0094" x="71.595" height="2.773" width="2.774"/><rect id="connector1pin" y="6.0094" x="78.673" height="2.773" width="2.772"/><rect id="connector2pin" y="6.0094" x="85.752" height="2.773" width="2.772"/><rect id="connector3pin" y="6.0094" x="93.028" height="2.773" width="2.774"/><rect id="connector4pin" y="6.0094" x="100.31" height="2.773" width="2.773"/><rect id="connector5pin" y="6.0094" x="107.28" height="2.773" width="2.772"/><rect id="connector6pin" y="6.0094" x="114.66" height="2.773" width="2.773"/><rect id="connector7pin" y="6.0094" x="121.84" height="2.773" width="2.773"/><rect id="connector8pin" y="5.9103" x="133.31" height="2.773" width="2.772"/><rect id="connector9pin" y="5.9103" x="140.49" height="2.773" width="2.773"/><rect id="connector10pin" y="5.9103" x="147.47" height="2.773" width="2.772"/><rect id="connector11pin" y="5.9103" x="154.84" height="2.773" width="2.772"/><rect id="connector12pin" y="5.9103" x="162.02" height="2.773" width="2.774"/><rect id="connector13pin" y="5.9103" x="169.1" height="2.773" width="2.772"/><rect id="connector14pin" y="5.9103" x="176.38" height="2.773" width="2.771"/><rect id="connector15pin" y="5.9103" x="183.65" height="2.773" width="2.774"/><rect id="connector28pin" y="142.59" x="82.878" height="2.771" width="2.774"/><rect id="connector29pin" y="142.59" x="90.152" height="2.771" width="2.774"/><rect id="connector16pin" y="142.59" x="97.217" height="2.771" width="2.774"/><rect id="connector17pin" y="142.59" x="104.52" height="2.771" width="2.774"/><rect id="connector18pin" y="142.59" x="111.81" height="2.771" width="2.773"/><rect id="connector19pin" y="142.59" x="118.79" height="2.771" width="2.772"/><rect id="connector20pin" y="142.59" x="126.17" height="2.771" width="2.774"/><rect id="connector21pin" y="142.59" x="133.34" height="2.771" width="2.773"/><rect id="connector22pin" y="142.69" x="147.51" height="2.771" width="2.771"/><rect id="connector23pin" y="142.69" x="154.79" height="2.771" width="2.773"/><rect id="connector24pin" y="142.69" x="162.06" height="2.771" width="2.773"/><rect id="connector25pin" y="142.69" x="169.04" height="2.771" width="2.772"/><rect id="connector26pin" y="142.69" x="176.42" height="2.771" width="2.772"/><rect id="connector27pin" y="142.69" x="183.6" height="2.771" width="2.771"/></g></g></svg>
