<?xml version='1.0' encoding='UTF-8' standalone='no'?>
<svg xmlns="http://www.w3.org/2000/svg"  width="0.214667in" x="0in" version="1.2" y="0in" height="0.405653in" viewBox="0 0 214.667 405.653" baseProfile="tiny" id="0">
 <desc   id="0.0" oldid="0.0">
  <referenceFile   id="0.0.0" oldid="0.0.0">OFT-bread.svg</referenceFile>
 </desc>
 <desc   id="0.1" oldid="0.1">Phototransistor</desc>
 <g   id="breadboard">
  <line  fill="none"  stroke="#8C8C8C" id="connector0leg" stroke-linecap="round" y1="400" stroke-width="27.6112" y2="625.653" x1="62" x2="62"/>
  <line  fill="none"  stroke="#8C8C8C" id="connector1leg" stroke-linecap="round" y1="400" stroke-width="27.6112" y2="625.653" x1="162" x2="162"/>
  <rect  width="29.875" x="47.9306" y="269.153" fill="#8C8C8C"  height="136.5" id="0.1.4"/>
  <path  fill="#8C8C8C"  id="0.1.5" d="M177.847,405.653c0,-16.3056,-14.7917,-29.2083,-29.0139,-41.5556c-5.77779,-5.09723,-16.6528,-13.9028,-16.6528,-19.7778L132.181,268.333L102.167,268.333L102.167,348.611c0,14.7083,13.1528,26.0972,27.0278,38.1667c6.16668,5.23611,18.7361,17.3611,18.7361,24.5972"/>
  <g   id="g12">
   <path  opacity="0.3" fill="#111111"  id="color_path14" enable-background="new    " d="M162.417,195.82L162.417,136.111c0,-39.5139,-31.9862,-71.5695,-71.5418,-71.5695C51.3612,64.5417,19.3056,96.5417,19.3056,136.111l0,137.792c14.875,16.6806,41.3751,27.7917,71.5696,27.7917c46.6529,0,84.4862,-26.4167,84.4862,-59.1667l0,-15.375C175.361,215.625,170.57,204.917,162.417,195.82z"/>
   <path  opacity="0.5" fill="#E6E6E6"  id="path16" enable-background="new    " d="M162.417,195.82L162.417,136.111c0,-39.5139,-31.9862,-71.5695,-71.5418,-71.5695C51.3612,64.5417,19.3056,96.5417,19.3056,136.111l0,137.792c14.875,16.6806,41.3751,27.7917,71.5696,27.7917c46.6529,0,84.4862,-26.4167,84.4862,-59.1667l0,-15.375C175.361,215.625,170.57,204.917,162.417,195.82z"/>
   <path  opacity="0.9" fill="#D1D1D1"  id="path18" enable-background="new    " d="M162.417,195.82l0,31.3472c0,27.6528,-31.9584,50.1111,-71.5418,50.1111c-39.514,0,-71.5696,-22.3889,-71.5696,-50.1111l0,31.3472l0,15.4028c14.875,16.6667,41.3751,27.7778,71.5696,27.7778c46.6529,0,84.4862,-26.4167,84.4862,-59.1667l0,-15.3611C175.361,215.625,170.57,204.917,162.417,195.82z"/>
   <path  opacity="0.7" fill="#111111"  id="color_path20" enable-background="new    " d="M162.417,195.82l0,31.3472c0,27.6528,-31.9584,50.1111,-71.5418,50.1111c-39.514,0,-71.5696,-22.3889,-71.5696,-50.1111l0,31.3472l0,15.4028c14.875,16.6667,41.3751,27.7778,71.5696,27.7778c46.6529,0,84.4862,-26.4167,84.4862,-59.1667l0,-15.3611C175.361,215.625,170.57,204.917,162.417,195.82z"/>
   <path  opacity="0.25" fill="#111111"  id="color_path22" enable-background="new    " d="M162.417,195.82l0,31.3472c0,27.6528,-31.9584,50.1111,-71.5418,50.1111c-39.514,0,-71.5696,-22.3889,-71.5696,-50.1111l0,31.3472c14.875,16.6667,41.3751,27.7917,71.5696,27.7917c46.6529,0,84.4862,-26.4306,84.4862,-59.1528C175.361,215.625,170.57,204.917,162.417,195.82z"/>
   <ellipse  opacity="0.25" fill="#E6E6E6" cx="90.8751"  cy="227.167" rx="71.5696" ry="50.0834" id="ellipse24" enable-background="new    "/>
   <ellipse  opacity="0.25" fill="#111111" cx="90.8751"  cy="227.167" rx="71.5696" ry="50.0834" id="color_ellipse26" enable-background="new    "/>
   <path  opacity="0.85" fill="#000000"  id="color_path32" enable-background="new    " d="M162.417,195.82L162.417,136.111c0,-39.5139,-31.9862,-71.5695,-71.5418,-71.5695C51.3612,64.5417,19.3056,96.5417,19.3056,136.111l0,137.792c14.875,16.6806,41.3751,27.7917,71.5696,27.7917c46.6529,0,84.4862,-26.4167,84.4862,-59.1667l0,-15.375C175.361,215.625,170.57,204.917,162.417,195.82z"/>
   <path  opacity="0.5" fill="#FFFFFF"  id="path34" enable-background="new    " d="M124.209,102.445l14.4861,-2.76389C130.195,88.25,117.681,79.9167,102.931,77.0834l2.58334,10.9167C113.222,90.7223,119.709,95.8751,124.209,102.445z"/>
   <path  opacity="0.5" fill="#FFFFFF"  id="path36" enable-background="new    " d="M27.0556,265.722l0,15.3333c6.55557,5.34723,14.4722,9.86112,23.2917,13.2917l0,-15.375C41.5001,275.57,33.6389,271.083,27.0556,265.722z"/>
   <path  opacity="0.5" fill="#FFFFFF"  id="path38" enable-background="new    " d="M131.111,268.583c-2.58334,1.23611,-5.34723,2.31945,-8.12501,3.31945c-0.583334,0.208333,-1.19445,0.416667,-1.80556,0.597223c-5.69445,1.81945,-11.7222,3.20834,-18.125,3.98611c-0.750001,0.0972223,-1.52778,0.208333,-2.27778,0.208333c-3.23612,0.291667,-6.50001,0.583334,-9.80557,0.583334c-1.5,0,-3.09723,-0.166667,-4.7639,-0.25c-12.125,-0.583334,-23.5278,-3.18056,-33.2917,-7.45834l0,-84.6945L52.9167,136.153c0,-14.8472,8.55557,-27.5556,20.9306,-33.8195L73.639,101.806l-12.5972,-15.2778C44.1806,96.6528,32.8751,115.014,32.8751,136.125l0,120.181c-0.500001,-0.486111,-3.11112,-3.11111,-4.84723,-5.33334l-3.11112,6.93056c14.1528,14.9583,38.4584,24.8472,66.0695,24.8472c16.9722,0,32.6945,-3.76389,45.5556,-10.1111l-5.31945,-4.13889C131.111,268.583,131.111,268.583,131.111,268.583z"/>
  </g>
  <rect  width="30" x="47" y="375" fill="none"  height="30" id="connector0pin"/>
  <rect  width="30" x="147" y="375" fill="none"  height="30" id="connector1pin"/>
 </g>
</svg>
