<?xml version="1.0" encoding="utf-8"?>
<!-- Generator: Adobe Illustrator 16.0.0, SVG Export Plug-In . SVG Version: 6.00 Build 0)  -->
<svg version="1.2" baseProfile="tiny" id="Ebene_1" xmlns:svg="http://www.w3.org/2000/svg"
	 xmlns="http://www.w3.org/2000/svg" xmlns:xlink="http://www.w3.org/1999/xlink" x="0px" y="0px" width="79.2px" height="72px"
	 viewBox="0 0 79.2 72" xml:space="preserve">
<g id="breadboard">
	<g>
		<path fill="#1F7A34" d="M0,0v33.84c1.192,0,2.16,0.968,2.16,2.16c0,1.193-0.968,2.16-2.16,2.16V72h79.2V0H0z"/>
		<g>
			<g transform="translate(184.882,1134.05)">
				<rect id="connector1pin" x="-153.631" y="-1066.797" fill="#8D8C8C" width="2.299" height="2.296"/>
				<rect x="-153.069" y="-1066.242" fill="#8C8663" width="1.184" height="1.183"/>
				<polygon fill="#B8AF82" points="-153.631,-1064.502 -153.069,-1065.06 -153.069,-1066.296 -153.631,-1066.797 				"/>
				<polygon fill="#80795B" points="-151.889,-1066.24 -153.061,-1066.24 -153.631,-1066.797 -151.332,-1066.797 				"/>
				<polygon fill="#5E5B43" points="-151.889,-1065.06 -151.889,-1066.24 -151.332,-1066.797 -151.332,-1064.502 				"/>
				<polygon fill="#9A916C" points="-153.631,-1064.502 -153.063,-1065.06 -151.889,-1065.06 -151.332,-1064.502 				"/>
			</g>
			<g transform="translate(284.882,1134.05)">
				<rect id="connector2pin" x="-246.432" y="-1066.797" fill="#8D8C8C" width="2.3" height="2.296"/>
				<rect x="-245.87" y="-1066.242" fill="#8C8663" width="1.185" height="1.183"/>
				<polygon fill="#B8AF82" points="-246.432,-1064.502 -245.87,-1065.06 -245.87,-1066.296 -246.432,-1066.797 				"/>
				<polygon fill="#80795B" points="-244.687,-1066.24 -245.861,-1066.24 -246.432,-1066.797 -244.132,-1066.797 				"/>
				<polygon fill="#5E5B43" points="-244.687,-1065.06 -244.687,-1066.24 -244.132,-1066.797 -244.132,-1064.502 				"/>
				<polygon fill="#9A916C" points="-246.432,-1064.502 -245.863,-1065.06 -244.687,-1065.06 -244.132,-1064.502 				"/>
			</g>
			<g transform="translate(284.882,34.05)">
				<rect id="connector5pin" x="-246.432" y="-31.598" fill="#8D8C8C" width="2.3" height="2.297"/>
				<rect x="-245.87" y="-31.041" fill="#8C8663" width="1.185" height="1.183"/>
				<polygon fill="#B8AF82" points="-246.432,-29.301 -245.87,-29.86 -245.87,-31.096 -246.432,-31.598 				"/>
				<polygon fill="#80795B" points="-244.687,-31.039 -245.861,-31.039 -246.432,-31.598 -244.132,-31.598 				"/>
				<polygon fill="#5E5B43" points="-244.687,-29.86 -244.687,-31.039 -244.132,-31.598 -244.132,-29.301 				"/>
				<polygon fill="#9A916C" points="-246.432,-29.301 -245.863,-29.86 -244.687,-29.86 -244.132,-29.301 				"/>
			</g>
			<g transform="translate(384.882,1134.05)">
				<rect id="connector3pin" x="-339.23" y="-1066.797" fill="#8D8C8C" width="2.299" height="2.296"/>
				<rect x="-338.67" y="-1066.242" fill="#8C8663" width="1.185" height="1.183"/>
				<polygon fill="#B8AF82" points="-339.23,-1064.502 -338.67,-1065.06 -338.67,-1066.296 -339.23,-1066.797 				"/>
				<polygon fill="#80795B" points="-337.487,-1066.24 -338.662,-1066.24 -339.23,-1066.797 -336.932,-1066.797 				"/>
				<polygon fill="#5E5B43" points="-337.487,-1065.06 -337.487,-1066.24 -336.932,-1066.797 -336.932,-1064.502 				"/>
				<polygon fill="#9A916C" points="-339.23,-1064.502 -338.664,-1065.06 -337.487,-1065.06 -336.932,-1064.502 				"/>
			</g>
			<g transform="translate(384.882,34.05)">
				<rect id="connector4pin" x="-339.23" y="-31.598" fill="#8D8C8C" width="2.299" height="2.297"/>
				<rect x="-338.67" y="-31.041" fill="#8C8663" width="1.185" height="1.183"/>
				<polygon fill="#B8AF82" points="-339.23,-29.301 -338.67,-29.86 -338.67,-31.096 -339.23,-31.598 				"/>
				<polygon fill="#80795B" points="-337.487,-31.039 -338.662,-31.039 -339.23,-31.598 -336.932,-31.598 				"/>
				<polygon fill="#5E5B43" points="-337.487,-29.86 -337.487,-31.039 -336.932,-31.598 -336.932,-29.301 				"/>
				<polygon fill="#9A916C" points="-339.23,-29.301 -338.664,-29.86 -337.487,-29.86 -336.932,-29.301 				"/>
			</g>
		</g>
	</g>
	<g id="icon">
		<g>
			<path fill="#101010" d="M68.238,57.949c0,0.406-0.33,0.733-0.733,0.733H8.696c-0.403,0-0.733-0.327-0.733-0.733V37.532
				c0-0.408,0.33-0.733,0.733-0.733h58.809c0.403,0,0.733,0.325,0.733,0.733V57.949z"/>
			<path fill="#333333" d="M67.778,12.52h-2.391H10.813H8.422c-0.252,0-0.459,0.208-0.459,0.459v2.856v21.833
				c0,0.255,0.207,0.463,0.459,0.463h59.356c0.253,0,0.46-0.208,0.46-0.463V15.835v-2.855C68.238,12.728,68.031,12.52,67.778,12.52z
				"/>
		</g>
		<text transform="matrix(1 0 0 1 34.865 22.0798)" fill="#808080" font-family="'DroidSans'" font-size="3.8571">G2RL-14</text>
		<g>
			<text transform="matrix(1 0 0 1 34.866 36.343)" fill="#808080" font-family="'DroidSans'" font-size="2.7521">1</text>
			<text transform="matrix(1 0 0 1 36.3816 36.343)" fill="#808080" font-family="'DroidSans'" font-size="2.7521">6</text>
			<text transform="matrix(1 0 0 1 37.8977 36.343)" fill="#808080" font-family="'DroidSans'" font-size="2.7521">A</text>
			<text transform="matrix(1 0 0 1 39.5701 36.343)" fill="#808080" font-family="'DroidSans'" font-size="2.7521">/</text>
			<text transform="matrix(1 0 0 1 40.5974 36.343)" fill="#808080" font-family="'DroidSans'" font-size="2.7521">2</text>
			<text transform="matrix(1 0 0 1 42.1131 36.343)" fill="#808080" font-family="'DroidSans'" font-size="2.7521">5</text>
			<text transform="matrix(1 0 0 1 43.6287 36.343)" fill="#808080" font-family="'DroidSans'" font-size="2.7521">0</text>
			<text transform="matrix(1 0 0 1 45.1448 36.343)" fill="#808080" font-family="'DroidSans'" font-size="2.7521">V</text>
			<text transform="matrix(1 0 0 1 46.7078 36.343)" fill="#808080" font-family="'DroidSans'" font-size="2.7521"> </text>
			<text transform="matrix(1 0 0 1 47.4231 36.343)" fill="#808080" font-family="'DroidSans'" font-size="2.7521">~</text>
			<text transform="matrix(1 0 0 1 48.9388 36.343)" fill="#808080" font-family="'DroidSans'" font-size="2.7521"> </text>
			<text transform="matrix(1 0 0 1 49.6536 36.343)" fill="#808080" font-family="'DroidSans'" font-size="2.7521">/</text>
			<text transform="matrix(1 0 0 1 50.68 36.343)" fill="#808080" font-family="'DroidSans'" font-size="2.7521">A</text>
			<text transform="matrix(1 0 0 1 52.3264 36.343)" fill="#808080" font-family="'DroidSans'" font-size="2.7521">C</text>
			<text transform="matrix(1 0 0 1 53.9856 36.343)" fill="#808080" font-family="'DroidSans'" font-size="2.7521">1</text>
		</g>
		<g>
			<text transform="matrix(1 0 0 1 57.7796 17.3059)" fill="#808080" font-family="'DroidSans'" font-size="2.7521">J</text>
			<text transform="matrix(1 0 0 1 58.5257 17.3059)" fill="#808080" font-family="'DroidSans'" font-size="2.7521">A</text>
			<text transform="matrix(1 0 0 1 60.1985 17.3059)" fill="#808080" font-family="'DroidSans'" font-size="2.7521">P</text>
			<text transform="matrix(1 0 0 1 61.6751 17.3059)" fill="#808080" font-family="'DroidSans'" font-size="2.7521">A</text>
			<text transform="matrix(1 0 0 1 63.347 17.3059)" fill="#808080" font-family="'DroidSans'" font-size="2.7521">N</text>
		</g>
		<path fill-opacity="0.7" d="M7.962,57.717c0,0.403,0.33,0.733,0.733,0.733h58.809c0.403,0,0.733-0.33,0.733-0.733v0.232
			c0,0.406-0.33,0.733-0.733,0.733H8.696c-0.403,0-0.733-0.327-0.733-0.733V57.717z"/>
		<path fill-opacity="0.1" d="M68.238,36.7c0,0.257-0.207,0.462-0.46,0.462H8.422c-0.252,0-0.459-0.205-0.459-0.462v0.969
			c0,0.255,0.208,0.462,0.459,0.462h59.356c0.253,0,0.46-0.207,0.46-0.462V36.7L68.238,36.7z"/>
		<g>
			<path fill="#808080" d="M10.813,19.296c-0.063,0-0.126-0.021-0.178-0.066c-0.115-0.098-0.129-0.272-0.031-0.387l1.824-2.151
				h-1.614c-0.151,0-0.275-0.123-0.275-0.275v-1.933c0-0.152,0.124-0.275,0.275-0.275h2.308c0.152,0,0.275,0.123,0.275,0.275v4.262
				h1.56v-4.262c0-0.152,0.123-0.275,0.275-0.275s0.275,0.123,0.275,0.275v4.537c0,0.151-0.123,0.275-0.275,0.275h-2.109
				c-0.152,0-0.275-0.124-0.275-0.275v-1.972l-1.823,2.149C10.969,19.262,10.891,19.296,10.813,19.296z M11.089,16.142h1.758v-1.383
				h-1.758V16.142z"/>
		</g>
		<g>
			<g>
				<g>
					<path fill="#808080" d="M24.157,26.457h-6.824c-0.194,0-0.264-0.091-0.288-0.146c-0.024-0.054-0.045-0.167,0.084-0.31
						l3.29-3.654c0.173-0.192,0.479-0.192,0.653,0L24.359,26c0.13,0.143,0.108,0.256,0.085,0.31
						C24.421,26.365,24.351,26.457,24.157,26.457z M17.249,26.225c0.004,0,0.031,0.011,0.085,0.011h6.824
						c0.058,0,0.084-0.013,0.089-0.016c0,0,0,0,0,0c-0.002,0-0.011-0.028-0.049-0.072l-3.286-3.653
						c-0.089-0.098-0.237-0.098-0.327,0l-3.29,3.653C17.254,26.191,17.247,26.219,17.249,26.225
						C17.248,26.225,17.248,26.225,17.249,26.225z"/>
				</g>
			</g>
			<text transform="matrix(1 0 0 1 18.4041 26.1794)" fill="#808080" font-family="'OCRA'" font-size="2.3274">VDE</text>
		</g>
		<text transform="matrix(1 0 0 1 34.8645 27.595)" fill="#808080" font-family="'DroidSans'" font-size="5.1868">12VDC</text>
		<rect x="26.63" y="19.021" fill="#333333" width="5.133" height="14.488"/>
		<polygon fill="#4D4D4D" points="27.364,32.76 26.63,33.509 26.63,19.021 27.364,19.754 		"/>
		<polygon fill="#595959" points="31.763,33.509 31.03,32.76 31.03,19.754 31.763,19.021 		"/>
		<polygon fill="#666666" points="31.763,33.494 26.63,33.494 27.364,32.76 31.03,32.76 		"/>
		<polygon fill="#1A1A1A" points="31.03,19.754 27.364,19.754 26.63,19.021 31.763,19.021 		"/>
		<path fill="#1A1A1A" d="M29.869,22.541c0,0.372-0.301,0.672-0.672,0.672l0,0c-0.372,0-0.672-0.301-0.672-0.672l0,0
			c0-0.371,0.301-0.672,0.672-0.672l0,0C29.568,21.869,29.869,22.17,29.869,22.541L29.869,22.541z"/>
		<path fill="#1A1A1A" d="M29.869,26.558c0,0.371-0.301,0.673-0.672,0.673l0,0c-0.372,0-0.672-0.302-0.672-0.673l0,0
			c0-0.371,0.301-0.672,0.672-0.672l0,0C29.568,25.886,29.869,26.187,29.869,26.558L29.869,26.558z"/>
		<path fill="#1A1A1A" d="M29.869,30.576c0,0.372-0.301,0.673-0.672,0.673l0,0c-0.372,0-0.672-0.302-0.672-0.673l0,0
			c0-0.371,0.301-0.671,0.672-0.671l0,0C29.568,29.903,29.869,30.205,29.869,30.576L29.869,30.576z"/>
		<path fill="#4D4D4D" d="M29.869,22.388c0,0.372-0.301,0.672-0.672,0.672l0,0c-0.372,0-0.672-0.301-0.672-0.672l0,0
			c0-0.371,0.301-0.672,0.672-0.672l0,0C29.568,21.717,29.869,22.018,29.869,22.388L29.869,22.388z"/>
		<path fill="#4D4D4D" d="M29.869,26.405c0,0.372-0.301,0.673-0.672,0.673l0,0c-0.372,0-0.672-0.301-0.672-0.673l0,0
			c0-0.371,0.301-0.672,0.672-0.672l0,0C29.568,25.733,29.869,26.034,29.869,26.405L29.869,26.405z"/>
		<path fill="#4D4D4D" d="M29.869,30.423c0,0.372-0.301,0.673-0.672,0.673l0,0c-0.372,0-0.672-0.302-0.672-0.673l0,0
			c0-0.371,0.301-0.671,0.672-0.671l0,0C29.568,29.751,29.869,30.052,29.869,30.423L29.869,30.423z"/>
		<g>
			<rect x="52.464" y="25.046" fill="#808080" width="11.319" height="0.55"/>
		</g>
		<g>
			<g>
				<rect x="52.464" y="26.284" fill="#808080" width="0.55" height="0.55"/>
			</g>
			<g>
				<path fill="#808080" d="M62.098,26.834h-1.136v-0.55h1.136V26.834z M59.825,26.834H58.69v-0.55h1.137L59.825,26.834
					L59.825,26.834z M57.556,26.834H56.42v-0.55h1.136V26.834z M55.285,26.834H54.15v-0.55h1.136V26.834z"/>
			</g>
			<g>
				<rect x="63.233" y="26.284" fill="#808080" width="0.551" height="0.55"/>
			</g>
		</g>
		<text transform="matrix(1 0 0 1 34.865 17.3059)" fill="#808080" font-family="'DroidSans-Bold'" font-size="3.8571">OMRON</text>
		<path fill="#202020" d="M67.778,38.131c0.253,0,0.46-0.207,0.46-0.462V15.835v-2.855c0-0.252-0.207-0.46-0.46-0.46h-1.909v25.611
			H67.778L67.778,38.131z"/>
		<path fill="#FFFFFF" fill-opacity="0.15" d="M7.962,13.44c0-0.252,0.207-0.46,0.459-0.46h2.391h54.574h2.391
			c0.253,0,0.46,0.208,0.46,0.46v-0.46c0-0.252-0.207-0.459-0.46-0.459h-2.391H10.813H8.422c-0.252,0-0.459,0.208-0.459,0.459V13.44
			z"/>
	</g>
</g>
</svg>
