<?xml version='1.0' encoding='UTF-8' standalone='no'?>
<!-- Created with Inkscape (http://www.inkscape.org/) -->
<svg xmlns="http://www.w3.org/2000/svg"  width="50.31496" version="1.1" height="53.149605" id="0">
 <desc   id="0.0" oldid="0.0">
  <referenceFile   id="0.0.0" oldid="0.0.0">PEC11-4xxxK-Sxxx.breadboard.svg</referenceFile>
 </desc>
 <defs   id="0.1" oldid="0.1"/>
 <metadata   id="0.2" oldid="0.2">
  <rdf:RDF xmlns:rdf="http://www.w3.org/1999/02/22-rdf-syntax-ns#"  id="0.2.0" oldid="0.2.0">
   <cc:Work xmlns:cc="http://creativecommons.org/ns#"  rdf:about="" xmlns:rdf="http://www.w3.org/1999/02/22-rdf-syntax-ns#" id="0.2.0.0" oldid="0.2.0.0">
    <dc:format xmlns:dc="http://purl.org/dc/elements/1.1/"  id="0.2.0.0.0" oldid="0.2.0.0.0">image/svg+xml</dc:format>
    <dc:type xmlns:dc="http://purl.org/dc/elements/1.1/"  id="0.2.0.0.1" oldid="0.2.0.0.1" rdf:resource="http://purl.org/dc/dcmitype/StillImage" xmlns:rdf="http://www.w3.org/1999/02/22-rdf-syntax-ns#"/>
    <dc:title xmlns:dc="http://purl.org/dc/elements/1.1/"  id="0.2.0.0.2" oldid="0.2.0.0.2"/>
   </cc:Work>
  </rdf:RDF>
 </metadata>
 <g   id="layer1" transform="translate(-0.35433086,-998.1496)">
  <g   id="breadboard">
   <path  fill="#8c8c8c"  stroke="none" style="color:#000000;marker:none;visibility:visible;display:inline;overflow:visible;enable-background:accumulate" id="path4024" stroke-width="0.35433072" d="m 47.65748,1020.4724 3.011811,0 0,8.504 -3.011811,0 z"/>
   <path  fill="#8c8c8c"  stroke="none" style="color:#000000;marker:none;visibility:visible;display:inline;overflow:visible;enable-background:accumulate" id="path4004" stroke-width="0.35433072" d="m 3.3661419,1020.4724 -3.01181104,0 0,8.504 3.01181104,0 z"/>
   <rect  width="4.9606299" x="31.889763" y="998.1496" fill="#8c8c8c"  height="3.1889763" stroke="none" style="color:#000000;fill-rule:nonzero;marker:none;visibility:visible;display:inline;overflow:visible;enable-background:accumulate" fill-opacity="1" id="connector3pin" stroke-width="0.35433072"/>
   <rect  width="4.9606299" x="14.173228" y="998.1496" fill="#8c8c8c"  height="3.1889763" stroke="none" style="color:#000000;fill-rule:nonzero;marker:none;visibility:visible;display:inline;overflow:visible;enable-background:accumulate" fill-opacity="1" id="connector4pin" stroke-width="0.35433072"/>
   <rect  width="4.9606295" x="14.173228" y="1048.1102" fill="#8c8c8c"  height="3.1889744" stroke="none" style="color:#000000;fill-rule:nonzero;marker:none;visibility:visible;display:inline;overflow:visible;enable-background:accumulate" fill-opacity="1" id="connector0pin" stroke-width="0.35433072"/>
   <rect  width="4.9606299" x="23.031496" y="1048.1102" fill="#8c8c8c"  height="3.1889668" stroke="none" style="color:#000000;fill-rule:nonzero;marker:none;visibility:visible;display:inline;overflow:visible;enable-background:accumulate" fill-opacity="1" id="connector1pin" stroke-width="0.35433072"/>
   <rect  width="4.9606309" x="31.889763" y="1048.1102" fill="#8c8c8c"  height="3.1889668" stroke="none" style="color:#000000;fill-rule:nonzero;marker:none;visibility:visible;display:inline;overflow:visible;enable-background:accumulate" fill-opacity="1" id="connector2pin" stroke-width="0.35433072"/>
   <path  stroke-opacity="1" fill="#999999"  stroke="#666666" style="color:#000000;stroke-miterlimit:4;stroke-dasharray:none;marker:none;visibility:visible;display:inline;overflow:visible;enable-background:accumulate" id="path2999-8-0" stroke-width="0.35433072" d="m 47.699961,1043.1458 -2.303149,0.024 0,2.126 c 0,1.4173 -1.417323,2.8354 -2.834646,2.8346 l -34.0330231,-0.02 c -1.417323,-8e-4 -2.834646,-1.4173 -2.834646,-2.8346 l 0,-2.126 -2.303149,-0.024 -0.02521,-36.803 2.303149,-0.024 0,-2.126 c 0,-1.4173 1.417323,-2.8338 2.834646,-2.8346 l 34.0330241,-0.02 c 1.417323,-8e-4 2.834646,1.4173 2.834646,2.8346 l 0,2.126 2.303149,0.024 z"/>
   <g   id="0.3.0.8" transform="translate(25.51181,-27.637818)">
    <path  stroke-opacity="1" fill="#999999"  stroke="#404040" style="color:#000000;stroke-linecap:butt;stroke-linejoin:round;stroke-miterlimit:4;stroke-dasharray:none;stroke-dashoffset:0;marker:none;visibility:visible;display:inline;overflow:visible;enable-background:accumulate" id="path3880" stroke-width="0.35433072" d="m -13.110236,1033.937 a 1.7716533,1.7716533 0 1 1 -3.543307,0 1.7716533,1.7716533 0 1 1 3.543307,0 z"/>
   </g>
   <g   id="0.3.0.9" transform="translate(55.27559,-27.637818)">
    <path  stroke-opacity="1" fill="#404040"  stroke="#404040" style="color:#000000;stroke-linecap:butt;stroke-linejoin:round;stroke-miterlimit:4;stroke-dasharray:none;stroke-dashoffset:0;marker:none;visibility:visible;display:inline;overflow:visible;enable-background:accumulate" id="path3880-2" stroke-width="0.35433072" d="m -13.110236,1033.937 a 1.7716533,1.7716533 0 1 1 -3.543307,0 1.7716533,1.7716533 0 1 1 3.543307,0 z"/>
   </g>
   <g   id="0.3.0.10" transform="translate(25.51181,9.2125753)">
    <path  stroke-opacity="1" fill="#404040"  stroke="#404040" style="color:#000000;stroke-linecap:butt;stroke-linejoin:round;stroke-miterlimit:4;stroke-dasharray:none;stroke-dashoffset:0;marker:none;visibility:visible;display:inline;overflow:visible;enable-background:accumulate" id="path3880-1" stroke-width="0.35433072" d="m -13.110236,1033.937 a 1.7716533,1.7716533 0 1 1 -3.543307,0 1.7716533,1.7716533 0 1 1 3.543307,0 z"/>
   </g>
   <g   id="0.3.0.11" transform="translate(55.275591,9.2125753)">
    <path  stroke-opacity="1" fill="#999999"  stroke="#404040" style="color:#000000;stroke-linecap:butt;stroke-linejoin:round;stroke-miterlimit:4;stroke-dasharray:none;stroke-dashoffset:0;marker:none;visibility:visible;display:inline;overflow:visible;enable-background:accumulate" id="path3880-2-7" stroke-width="0.35433072" d="m -13.110236,1033.937 a 1.7716533,1.7716533 0 1 1 -3.543307,0 1.7716533,1.7716533 0 1 1 3.543307,0 z"/>
   </g>
   <path  stroke-opacity="1" fill="#404040"  stroke="#000000" style="color:#000000;stroke-linecap:butt;stroke-linejoin:round;stroke-miterlimit:4;stroke-dasharray:none;stroke-dashoffset:0;marker:none;visibility:visible;display:inline;overflow:visible;enable-background:accumulate" id="path4104" stroke-width="0.35433072" d="m 47.65748,1017.6349 -5.89884,0.01 c -2.731526,-6.2595 -8.977963,-10.6371 -16.246829,-10.6371 -7.264496,0 -13.507791,4.3723 -16.2418971,10.6289 l -5.903772,0 0,14.1743 5.904696,0 c 2.7345901,6.2554 8.9772961,10.6267 16.2409731,10.6267 7.257434,0 13.495652,-4.3637 16.233915,-10.6106 l 5.911754,-0.019 z"/>
   <g   id="0.3.0.13" transform="matrix(0.97222509,0,0,0.97222509,25.511774,1.5914363)">
    <path  stroke-opacity="1" fill="#999999"  stroke="#000000" style="color:#000000;stroke-linecap:butt;stroke-linejoin:round;stroke-miterlimit:4;stroke-dasharray:none;stroke-dashoffset:0;marker:none;visibility:visible;display:inline;overflow:visible;enable-background:accumulate" id="path3940" stroke-width="0.36445341" d="m 12.755905,1052.3622 a 12.755905,12.755905 0 1 1 -25.51181,0 12.755905,12.755905 0 1 1 25.51181,0 z"/>
   </g>
   <g   id="0.3.0.14" transform="matrix(0.96774636,0,0,0.96774636,25.533049,6.3046333)">
    <path  stroke-opacity="1" fill="none"  stroke="#404040" style="color:#000000;stroke-linecap:butt;stroke-linejoin:round;stroke-miterlimit:4;stroke-dasharray:none;stroke-dashoffset:0;marker:none;visibility:visible;display:inline;overflow:visible;enable-background:accumulate" id="path3942" stroke-width="0.36614007" d="m 10.984252,1052.3622 a 10.984252,10.984252 0 1 1 -21.968504,0 10.984252,10.984252 0 1 1 21.968504,0 z"/>
   </g>
   <path  stroke-opacity="1" fill="none"  stroke="#404040" style="color:#000000;stroke-linecap:butt;stroke-linejoin:round;stroke-miterlimit:4;stroke-dashoffset:0;marker:none;visibility:visible;display:inline;overflow:visible;enable-background:accumulate" id="path3946" stroke-width="0.35433072" d="m 15.037568,1022.8775 1.779109,-1.3179 -0.515761,-2.1531 2.122557,-0.6299 0.251761,-2.1997 2.209992,0.134 0.988918,-1.9809 2.030871,0.8818 1.606796,-1.5232 1.606795,1.5232 2.030871,-0.8818 0.988918,1.9809 2.209992,-0.134 0.251762,2.1997 2.122556,0.6299 -0.515761,2.1531 1.77911,1.3179 m 0,3.6938 -1.77911,1.3179 0.515761,2.1531 -2.122556,0.6299 -0.251762,2.1997 -2.209992,-0.134 -0.988918,1.9809 -2.030871,-0.8818 -1.606796,1.5232 -1.606795,-1.5232 -2.030871,0.8818 -0.988917,-1.9809 -2.209993,0.134 -0.251761,-2.1997 -2.122557,-0.6299 0.515761,-2.1531 -1.779109,-1.3179"/>
   <path  stroke-opacity="1" fill="none"  stroke="#404040" style="color:#000000;stroke-linecap:butt;stroke-linejoin:round;stroke-miterlimit:4;stroke-dashoffset:0;marker:none;visibility:visible;display:inline;overflow:visible;enable-background:accumulate" id="path3948" stroke-width="0.35433072" d="m 16.470353,1022.9479 c 0.827903,-4.238 4.561195,-7.4361 9.041458,-7.4361 4.479303,0 8.211956,3.1968 9.040924,7.4333 m 5.39e-4,3.5558 c -0.827889,4.2379 -4.561189,7.4361 -9.041463,7.4361 -4.480275,0 -8.213575,-3.1982 -9.041464,-7.4361"/>
   <path  stroke-opacity="1" fill="none"  stroke="#404040" style="color:#000000;stroke-linecap:butt;stroke-linejoin:round;stroke-miterlimit:4;stroke-dasharray:none;stroke-dashoffset:0;marker:none;visibility:visible;display:inline;overflow:visible;enable-background:accumulate" id="path3955" stroke-width="0.35433072" d="m 15.048453,1022.9527 20.945954,0"/>
   <path  stroke-opacity="1" fill="none"  stroke="#404040" style="color:#000000;stroke-linecap:butt;stroke-linejoin:round;stroke-miterlimit:4;stroke-dasharray:none;stroke-dashoffset:0;marker:none;visibility:visible;display:inline;overflow:visible;enable-background:accumulate" id="path3955-2" stroke-width="0.35433072" d="m 15.038834,1026.496 20.945954,0"/>
   <rect  width="4.9606295" x="14.173228" y="1048.8188" fill="#8c8c8c"  height="2.4803131" stroke="none" style="color:#000000;marker:none;visibility:visible;display:inline;overflow:visible;enable-background:accumulate" fill-opacity="1" id="connector0terminal" stroke-width="1.49881887"/>
   <rect  width="4.9606304" x="23.031496" y="1048.8188" fill="#8c8c8c"  height="2.4803131" stroke="none" style="color:#000000;marker:none;visibility:visible;display:inline;overflow:visible;enable-background:accumulate" fill-opacity="1" id="connector1terminal" stroke-width="1.49881887"/>
   <rect  width="4.9606314" x="31.889763" y="1048.8188" fill="#8c8c8c"  height="2.4803131" stroke="none" style="color:#000000;marker:none;visibility:visible;display:inline;overflow:visible;enable-background:accumulate" fill-opacity="1" id="connector2terminal" stroke-width="1.49881887"/>
   <rect  width="4.9606309" x="31.889763" y="998.1496" fill="#8c8c8c"  height="2.4803078" stroke="none" style="color:#000000;marker:none;visibility:visible;display:inline;overflow:visible;enable-background:accumulate" fill-opacity="1" id="connector3terminal" stroke-width="1.49881887"/>
   <rect  width="4.9606299" x="14.173228" y="998.1496" fill="#8c8c8c"  height="2.4803078" stroke="none" style="color:#000000;marker:none;visibility:visible;display:inline;overflow:visible;enable-background:accumulate" fill-opacity="1" id="connector4terminal" stroke-width="1.49881887"/>
  </g>
 </g>
</svg>
