<?xml version='1.0' encoding='utf-8'?>
<!DOCTYPE svg PUBLIC '-//W3C//DTD SVG 1.1//EN' 'http://www.w3.org/Graphics/SVG/1.1/DTD/svg11.dtd'>
<svg width="0.24518in" x="0px" version="1.1" y="0px" xmlns="http://www.w3.org/2000/svg" height="0.33002in" viewBox="0 0 24.518 33.002" xmlns:xlink="http://www.w3.org/1999/xlink" id="Layer_1" enable-background="new 0 0 24.518 33.002" xml:space="preserve" xmlns:svg="http://www.w3.org/2000/svg">
 <rect width="3" x="20.606" y="0.002" fill="none" height="4.25" id="connector0pin"/>
 <rect width="3" x="20.606" y="28.752" fill="none" height="4.25" id="connector1pin"/>
 <rect width="3" x="0.606" y="0.002" fill="none" height="4.25" id="connector2pin"/>
 <rect width="3" x="0.606" y="28.752" fill="none" height="4.25" id="connector3pin"/>
 <rect width="3" x="20.606" y="0.002" fill="none" height="3" id="connector0terminal"/>
 <rect width="3" x="20.606" y="30.002" fill="none" height="3" id="connector1terminal"/>
 <rect width="3" x="0.606" y="0.002" fill="none" height="3" id="connector2terminal"/>
 <rect width="3" x="0.606" y="30.002" fill="none" height="3" id="connector3terminal"/>
 <g id="breadboard">
  <g>
   <polygon fill="#8C8C8C" points="20.586,32.979 20.586,21.487 23.586,21.487 23.586,32.979 "/>
   <polygon fill="#8C8C8C" points="0.586,11.493 0.586,0.001 3.584,0.001 3.584,11.493 "/>
   <polygon fill="#8C8C8C" points="20.586,11.494 20.586,0 23.586,0 23.586,11.494 "/>
   <polygon fill="#8C8C8C" points="0.587,32.981 0.587,21.487 3.586,21.487 3.586,32.981 "/>
   <rect width="24.518" x="0.012" y="4.232" height="24.52"/>
   <path fill="#999999" d="M24.529,26.752c0,1.101-0.896,1.999-2,1.999H2.011c-1.101,0-1.999-0.898-1.999-1.999V6.23c0-1.1,0.898-1.998,1.999-1.998h20.521c1.103,0,1.997,0.898,1.997,1.998L24.529,26.752L24.529,26.752z"/>
   <circle cx="3.583" cy="7.803" r="2.124"/>
   <circle cx="21.018" cy="7.84" r="2.124"/>
   <circle cx="20.981" cy="25.275" r="2.124"/>
   <circle cx="3.546" cy="25.236" r="2.124"/>
   <circle fill="#3F3F3F" cx="12.27" cy="16.491" r="7.15"/>
   <linearGradient gradientTransform="matrix(1 0 0 -1 273 -448.8574)" id="SVGID_1_" y1="-465.3486" x1="-267.8796" y2="-465.3486" gradientUnits="userSpaceOnUse" x2="-253.5798">
    <stop offset="0" style="stop-color:#333333"/>
    <stop offset="1" style="stop-color:#3C3C3C"/>
   </linearGradient>
   <circle fill="url(#SVGID_1_)" cx="12.27" cy="16.491" r="7.15"/>
   <circle opacity="0.6" cx="12.395" cy="17.341" enable-background="new    " r="6.292"/>
   <circle fill="#735348" cx="12.279" cy="16.533" r="6.132"/>
   <path opacity="0.5" fill="#FFFFFF" enable-background="new    " d="M3.308,7.692c0.042-0.1,0.119-0.177,0.228-0.196L3.326,6.158C3.246,6.171,3.161,6.16,3.082,6.184L3.08,6.178C2.585,6.331,2.215,6.7,2.026,7.171L3.308,7.692z"/>
   <path opacity="0.5" fill="#FFFFFF" enable-background="new    " d="M20.741,7.728c0.041-0.102,0.118-0.179,0.229-0.197l-0.207-1.338c-0.082,0.015-0.166,0.002-0.245,0.026l-0.003-0.007c-0.493,0.152-0.864,0.521-1.053,0.993L20.741,7.728z"/>
   <path opacity="0.5" fill="#FFFFFF" enable-background="new    " d="M20.707,25.163c0.041-0.102,0.116-0.18,0.227-0.197l-0.207-1.337c-0.082,0.015-0.166,0.002-0.246,0.026l-0.002-0.01c-0.494,0.152-0.865,0.521-1.053,0.994L20.707,25.163z"/>
   <path opacity="0.5" fill="#FFFFFF" enable-background="new    " d="M3.271,25.126c0.041-0.102,0.118-0.176,0.229-0.195l-0.21-1.339c-0.082,0.017-0.166,0.002-0.245,0.027l-0.002-0.007c-0.495,0.15-0.865,0.521-1.056,0.992L3.271,25.126z"/>
   <path opacity="0.6" fill="#FFFFFF" enable-background="new    " d="M14.473,10.818c-0.475-0.185-0.975-0.318-1.504-0.378c-1.316-0.147-2.576,0.145-3.653,0.742L9.182,11.53c1.203-0.643,2.604-0.941,4.062-0.778c0.448,0.052,0.884,0.152,1.301,0.284L14.473,10.818z"/>
  </g>
 </g>
 <rect width="3.394216133942191" x="20.16742770167424" y="13.46270928462707" fill="none" height="5.159817351598217" id="connector4"/>
 <rect width="5.159817351598216" x="0.08371385083715191" y="13.46270928462707" fill="none" height="6.263318112633208" id="connector5"/>
</svg>
