<?xml version='1.0' encoding='utf-8'?>
<!DOCTYPE svg>
<!-- Generator: Adobe Illustrator 16.0.4, SVG Export Plug-In . SVG Version: 6.00 Build 0)  -->
<svg xmlns="http://www.w3.org/2000/svg"  width="2.70079in" xml:space="preserve" xmlns:xml="http://www.w3.org/XML/1998/namespace" x="0px" version="1.1" y="0px" height="2.1in" viewBox="0 0 194.457 151.2" id="0" enable-background="new 0 0 194.457 151.2">
 <desc   id="0.0" oldid="0.0">
  <referenceFile   id="0.0.0" oldid="0.0.0">RedFly_Shield_v1_3_breadboard.svg</referenceFile>
 </desc>
 <desc   id="0.1" oldid="0.1">Fritzing breadboard generated by brd2svg</desc>
 <g   id="breadboard">
  <g   id="icon">
   <path  fill="#C62717"  id="board" d="M183.62,0l3.601,3.6V36l7.198,7.2v93.599l-7.2,7.201v7.199H0l0,0V0 M182.654,129.374c0,2.348,1.904,4.252,4.253,4.252c2.348,0,4.252-1.904,4.252-4.252c0-2.35-1.904-4.252-4.252-4.252C184.559,125.122,182.654,127.024,182.654,129.374z M182.654,50.003c0,2.348,1.904,4.252,4.253,4.252c2.348,0,4.252-1.904,4.252-4.252c0-2.349-1.904-4.252-4.252-4.252C184.559,45.751,182.654,47.654,182.654,50.003z M38.539,7.2c0,2.584,2.095,4.68,4.68,4.68c2.585,0,4.68-2.095,4.68-4.68s-2.094-4.681-4.679-4.681c-2.584,0-4.68,2.095-4.681,4.679C38.539,7.199,38.539,7.199,38.539,7.2z M99.379,144c-0.002,0.795,0.643,1.439,1.438,1.44c0.795,0.002,1.441-0.644,1.441-1.438c0-0.002,0-0.002,0-0.004c0.002-0.795-0.643-1.44-1.438-1.441s-1.441,0.643-1.441,1.438C99.379,143.997,99.379,143.999,99.379,144z M106.579,144c-0.001,0.795,0.644,1.439,1.438,1.44c0.795,0.002,1.439-0.644,1.441-1.438c0-0.002,0-0.002,0-0.004c0-0.795-0.643-1.44-1.438-1.441s-1.44,0.643-1.442,1.438C106.579,143.997,106.579,143.999,106.579,144z M142.579,144c-0.001,0.795,0.644,1.439,1.438,1.44c0.795,0.002,1.439-0.644,1.441-1.438c0-0.002,0-0.002,0-0.004c0-0.795-0.643-1.44-1.438-1.441s-1.44,0.643-1.442,1.438C142.579,143.997,142.579,143.999,142.579,144z M149.779,144c-0.002,0.795,0.644,1.439,1.438,1.44c0.795,0.002,1.44-0.644,1.441-1.438c0-0.002,0-0.002,0-0.004c0.002-0.795-0.643-1.44-1.438-1.441c-0.796-0.001-1.441,0.643-1.443,1.438C149.779,143.997,149.779,143.999,149.779,144z M156.979,144c0,0.795,0.646,1.438,1.439,1.438c0.796,0,1.439-0.646,1.439-1.438c0-0.797-0.645-1.44-1.439-1.44C157.624,142.56,156.979,143.206,156.979,144z M164.178,144c0,0.795,0.646,1.438,1.441,1.438s1.439-0.646,1.439-1.438c0-0.797-0.646-1.44-1.439-1.44C164.824,142.56,164.178,143.206,164.178,144z M171.379,144c0,0.795,0.645,1.438,1.439,1.438c0.793,0,1.438-0.646,1.438-1.438c0-0.797-0.646-1.44-1.438-1.44C172.023,142.56,171.379,143.206,171.379,144z M178.579,144c0,0.795,0.646,1.438,1.44,1.438s1.439-0.646,1.439-1.438c0-0.797-0.645-1.44-1.439-1.44S178.579,143.206,178.579,144z M66.979,7.2c0,0.795,0.645,1.44,1.44,1.44s1.44-0.645,1.44-1.44s-0.645-1.44-1.44-1.44S66.979,6.405,66.979,7.2L66.979,7.2z M59.779,7.2c0,0.795,0.645,1.44,1.44,1.44s1.44-0.645,1.44-1.44s-0.645-1.44-1.44-1.44S59.779,6.405,59.779,7.2L59.779,7.2z M52.579,7.2c0,0.795,0.645,1.44,1.44,1.44s1.44-0.645,1.44-1.44s-0.645-1.44-1.44-1.44S52.579,6.405,52.579,7.2L52.579,7.2z M164.178,7.2c0,0.795,0.646,1.44,1.441,1.44s1.439-0.645,1.439-1.44s-0.646-1.44-1.439-1.44C164.824,5.76,164.178,6.405,164.178,7.2z M156.979,7.2c0,0.795,0.646,1.44,1.439,1.44c0.796,0,1.439-0.645,1.439-1.44s-0.645-1.44-1.439-1.44C157.624,5.76,156.979,6.405,156.979,7.2z M149.779,7.2c-0.002,0.795,0.644,1.44,1.438,1.442c0.795,0.001,1.44-0.643,1.441-1.438c0-0.001,0-0.003,0-0.004c0.002-0.795-0.643-1.441-1.438-1.442c-0.796-0.001-1.441,0.643-1.443,1.438C149.779,7.197,149.779,7.199,149.779,7.2z M142.579,7.2c-0.001,0.795,0.644,1.44,1.438,1.442c0.795,0.001,1.439-0.643,1.441-1.438c0-0.001,0-0.003,0-0.004c0-0.795-0.643-1.441-1.438-1.442c-0.797-0.001-1.44,0.643-1.442,1.438C142.579,7.197,142.579,7.199,142.579,7.2z M135.379,7.2c-0.002,0.795,0.643,1.44,1.438,1.442c0.795,0.001,1.441-0.643,1.441-1.438c0-0.001,0-0.003,0-0.004c0.002-0.795-0.643-1.441-1.438-1.442s-1.441,0.643-1.441,1.438C135.379,7.197,135.379,7.199,135.379,7.2z M128.178,7.2c0,0.795,0.645,1.44,1.438,1.442c0.796,0.001,1.44-0.643,1.442-1.438c0-0.001,0-0.003,0-0.004c0-0.795-0.644-1.441-1.438-1.442c-0.796-0.001-1.44,0.643-1.443,1.438C128.178,7.197,128.178,7.199,128.178,7.2z M117.379,7.2c-0.002,0.795,0.643,1.44,1.438,1.442c0.795,0.001,1.441-0.643,1.441-1.438c0-0.001,0-0.003,0-0.004c0.002-0.795-0.643-1.441-1.438-1.442s-1.441,0.643-1.441,1.438C117.379,7.197,117.379,7.199,117.379,7.2z M110.178,7.2c0,0.795,0.645,1.44,1.438,1.442c0.796,0.001,1.44-0.643,1.442-1.438c0-0.001,0-0.003,0-0.004c0-0.795-0.644-1.441-1.438-1.442c-0.796-0.001-1.44,0.643-1.443,1.438C110.178,7.197,110.178,7.199,110.178,7.2z M102.979,7.2c0,0.795,0.644,1.44,1.438,1.442c0.796,0.001,1.44-0.643,1.442-1.438c0-0.001,0-0.003,0-0.004c0-0.795-0.644-1.441-1.438-1.442s-1.44,0.643-1.44,1.438C102.979,7.197,102.979,7.199,102.979,7.2z M95.779,7.2c-0.001,0.795,0.644,1.44,1.438,1.442c0.795,0.001,1.44-0.643,1.441-1.438c0-0.001,0-0.003,0-0.004c0.002-0.795-0.643-1.441-1.438-1.442s-1.441,0.643-1.442,1.438C95.779,7.197,95.779,7.199,95.779,7.2z M88.579,7.2c-0.001,0.795,0.643,1.44,1.438,1.442c0.795,0.001,1.44-0.643,1.442-1.438c0-0.001,0-0.003,0-0.004c0-0.795-0.645-1.44-1.44-1.44S88.579,6.405,88.579,7.2L88.579,7.2z M81.379,7.2c0,0.795,0.645,1.44,1.44,1.44s1.44-0.645,1.44-1.44s-0.645-1.44-1.44-1.44S81.379,6.405,81.379,7.2L81.379,7.2z M113.779,144c-0.002,0.795,0.644,1.439,1.438,1.44c0.795,0.002,1.44-0.644,1.441-1.438c0-0.002,0-0.002,0-0.004c0.002-0.795-0.643-1.44-1.438-1.441c-0.796-0.001-1.441,0.643-1.443,1.438C113.779,143.997,113.779,143.999,113.779,144z M120.979,144c0,0.795,0.644,1.439,1.438,1.44c0.796,0.002,1.44-0.644,1.442-1.438c0-0.002,0-0.002,0-0.004c0-0.795-0.644-1.44-1.438-1.441s-1.44,0.643-1.44,1.438C120.979,143.997,120.979,143.999,120.979,144z M74.179,7.2c0,0.795,0.645,1.44,1.44,1.44s1.44-0.645,1.44-1.44s-0.645-1.44-1.44-1.44S74.179,6.405,74.179,7.2L74.179,7.2z M92.178,144c0,0.795,0.644,1.439,1.438,1.44c0.796,0.002,1.44-0.644,1.442-1.438c0-0.002,0-0.002,0-0.004c0.001-0.795-0.643-1.44-1.438-1.441c-0.796-0.001-1.441,0.643-1.443,1.438C92.178,143.997,92.178,143.999,92.178,144z M84.978,144c0,0.795,0.644,1.439,1.438,1.44c0.796,0.002,1.44-0.644,1.442-1.438c0-0.002,0-0.002,0-0.004c0.001-0.795-0.643-1.44-1.438-1.441c-0.796-0.001-1.441,0.643-1.443,1.438C84.978,143.997,84.978,143.999,84.978,144z M77.778,144c0,0.795,0.644,1.439,1.438,1.44c0.796,0.002,1.44-0.644,1.442-1.438c0-0.002,0-0.002,0-0.004c0.001-0.795-0.643-1.44-1.438-1.441c-0.796-0.001-1.441,0.643-1.443,1.438C77.778,143.997,77.778,143.999,77.778,144z M178.579,7.2c0,0.795,0.646,1.44,1.44,1.44s1.439-0.645,1.439-1.44s-0.645-1.44-1.439-1.44S178.579,6.405,178.579,7.2z M171.379,7.2c0,0.795,0.645,1.44,1.439,1.44c0.793,0,1.438-0.645,1.438-1.44s-0.646-1.44-1.438-1.44C172.023,5.76,171.379,6.405,171.379,7.2z M128.178,144c0,0.795,0.645,1.439,1.438,1.44c0.796,0.002,1.44-0.644,1.442-1.438c0-0.002,0-0.002,0-0.004c0-0.795-0.644-1.44-1.438-1.441c-0.796-0.001-1.44,0.643-1.443,1.438C128.178,143.997,128.178,143.999,128.178,144z"/>
   <g   id="Silkscreen">
    <title   id="0.2.0.1.0" oldid="0.2.0.1.0">layer 21</title>
    <g   id="0.2.0.1.1">
     <title   id="0.2.0.1.1.0" oldid="0.2.0.1.1.0">text:WiFly Shield</title>
     <text  fill="#FFFFFF" font-family="OCRA"  id="0.2.0.1.1.1" transform="matrix(1 0 0 1 4.1191 32.5693)" font-size="4.5936">RedFly-Shield</text>
    </g>
    <g   id="0.2.0.1.2">
     <title   id="0.2.0.1.2.0" oldid="0.2.0.1.2.0">element:JP6</title>
     <g   id="0.2.0.1.2.1">
      <title   id="0.2.0.1.2.1.0" oldid="0.2.0.1.2.1.0">package:SFE-NEW-WEBLOGO</title>
     </g>
    </g>
    <g   id="0.2.0.1.3">
     <title   id="0.2.0.1.3.0" oldid="0.2.0.1.3.0">element:JP7</title>
     <g   id="0.2.0.1.3.1">
      <title   id="0.2.0.1.3.1.0" oldid="0.2.0.1.3.1.0">package:FIDUCIAL-1X2</title>
     </g>
    </g>
    <g   id="0.2.0.1.4">
     <title   id="0.2.0.1.4.0" oldid="0.2.0.1.4.0">element:JP8</title>
     <g   id="0.2.0.1.4.1">
      <title   id="0.2.0.1.4.1.0" oldid="0.2.0.1.4.1.0">package:FIDUCIAL-1X2</title>
     </g>
    </g>
    <g   id="0.2.0.1.5">
     <title   id="0.2.0.1.5.0" oldid="0.2.0.1.5.0">element:R1</title>
     <g   id="0.2.0.1.5.1">
      <title   id="0.2.0.1.5.1.0" oldid="0.2.0.1.5.1.0">package:0402-RES</title>
     </g>
    </g>
    <g   id="0.2.0.1.6">
     <title   id="0.2.0.1.6.0" oldid="0.2.0.1.6.0">element:R2</title>
     <g   id="0.2.0.1.6.1">
      <title   id="0.2.0.1.6.1.0" oldid="0.2.0.1.6.1.0">package:0402-RES</title>
     </g>
    </g>
    <g   id="0.2.0.1.7">
     <title   id="0.2.0.1.7.0" oldid="0.2.0.1.7.0">element:R3</title>
     <g   id="0.2.0.1.7.1">
      <title   id="0.2.0.1.7.1.0" oldid="0.2.0.1.7.1.0">package:0402-RES</title>
     </g>
    </g>
    <g   id="0.2.0.1.8">
     <title   id="0.2.0.1.8.0" oldid="0.2.0.1.8.0">element:R4</title>
     <g   id="0.2.0.1.8.1">
      <title   id="0.2.0.1.8.1.0" oldid="0.2.0.1.8.1.0">package:0402-RES</title>
     </g>
    </g>
    <g   id="0.2.0.1.9">
     <title   id="0.2.0.1.9.0" oldid="0.2.0.1.9.0">element:R5</title>
     <g   id="0.2.0.1.9.1">
      <title   id="0.2.0.1.9.1.0" oldid="0.2.0.1.9.1.0">package:0402-RES</title>
     </g>
    </g>
    <g   id="0.2.0.1.10">
     <title   id="0.2.0.1.10.0" oldid="0.2.0.1.10.0">element:R6</title>
     <g   id="0.2.0.1.10.1">
      <title   id="0.2.0.1.10.1.0" oldid="0.2.0.1.10.1.0">package:0402-RES</title>
     </g>
    </g>
    <g   id="0.2.0.1.11">
     <title   id="0.2.0.1.11.0" oldid="0.2.0.1.11.0">element:R7</title>
     <g   id="0.2.0.1.11.1">
      <title   id="0.2.0.1.11.1.0" oldid="0.2.0.1.11.1.0">package:0402-RES</title>
     </g>
    </g>
    <g   id="0.2.0.1.12">
     <title   id="0.2.0.1.12.0" oldid="0.2.0.1.12.0">element:R8</title>
     <g   id="0.2.0.1.12.1">
      <title   id="0.2.0.1.12.1.0" oldid="0.2.0.1.12.1.0">package:0402-RES</title>
     </g>
    </g>
    <g   id="0.2.0.1.13">
     <title   id="0.2.0.1.13.0" oldid="0.2.0.1.13.0">element:R9</title>
     <g   id="0.2.0.1.13.1">
      <title   id="0.2.0.1.13.1.0" oldid="0.2.0.1.13.1.0">package:0402-RES</title>
     </g>
    </g>
    <g   id="0.2.0.1.14">
     <title   id="0.2.0.1.14.0" oldid="0.2.0.1.14.0">element:R10</title>
     <g   id="0.2.0.1.14.1">
      <title   id="0.2.0.1.14.1.0" oldid="0.2.0.1.14.1.0">package:0402-RES</title>
     </g>
    </g>
    <g   id="0.2.0.1.15">
     <title   id="0.2.0.1.15.0" oldid="0.2.0.1.15.0">element:U1</title>
     <g   id="0.2.0.1.15.1">
      <title   id="0.2.0.1.15.1.0" oldid="0.2.0.1.15.1.0">package:DUEMILANOVE_SHIELD</title>
      <g   id="0.2.0.1.15.1.1">
       <title   id="0.2.0.1.15.1.1.0" oldid="0.2.0.1.15.1.1.0">text:GND</title>
       <g   id="0.2.0.1.15.1.1.1" transform="matrix(1, 0, 0, 1, 91.44, 140.076)">
        <g   id="0.2.0.1.15.1.1.1.0" transform="rotate(-90)">
         <text  fill="#FFFFFF" font-family="OCRA"  id="0.2.0.1.15.1.1.1.0.0" transform="matrix(1 0 0 1 -6.561279e-04 25.2192)" font-size="3.3408">GND</text>
        </g>
       </g>
      </g>
      <g   id="0.2.0.1.15.1.2">
       <title   id="0.2.0.1.15.1.2.0" oldid="0.2.0.1.15.1.2.0">text:GND</title>
       <g   id="0.2.0.1.15.1.2.1" transform="matrix(1, 0, 0, 1, 98.64, 140.076)">
        <g   id="0.2.0.1.15.1.2.1.0" transform="rotate(-90)">
         <text  fill="#FFFFFF" font-family="OCRA"  id="0.2.0.1.15.1.2.1.0.0" transform="matrix(1 0 0 1 -6.561279e-04 25.2194)" font-size="3.3408">GND</text>
        </g>
       </g>
      </g>
      <g   id="0.2.0.1.15.1.3">
       <title   id="0.2.0.1.15.1.3.0" oldid="0.2.0.1.15.1.3.0">text:+5V</title>
       <g   id="0.2.0.1.15.1.3.1" transform="matrix(1, 0, 0, 1, 84.24, 140.076)">
        <g   id="0.2.0.1.15.1.3.1.0" transform="rotate(-90)">
         <text  fill="#FFFFFF" font-family="OCRA"  id="0.2.0.1.15.1.3.1.0.0" transform="matrix(1 0 0 1 -6.561279e-04 25.22)" font-size="3.3408">+5V</text>
        </g>
       </g>
      </g>
      <g   id="0.2.0.1.15.1.4">
       <title   id="0.2.0.1.15.1.4.0" oldid="0.2.0.1.15.1.4.0">text:RST</title>
       <g   id="0.2.0.1.15.1.4.1" transform="matrix(1, 0, 0, 1, 69.84, 140.076)">
        <g   id="0.2.0.1.15.1.4.1.0" transform="rotate(-90)">
         <text  fill="#FFFFFF" font-family="OCRA"  id="0.2.0.1.15.1.4.1.0.0" transform="matrix(1 0 0 1 -6.561279e-04 25.2196)" font-size="3.3408">RESET</text>
        </g>
       </g>
      </g>
      <g   id="0.2.0.1.15.1.5">
       <title   id="0.2.0.1.15.1.5.0" oldid="0.2.0.1.15.1.5.0">text:RST</title>
       <g   id="0.2.0.1.15.1.5.1" transform="matrix(1, 0, 0, 1, 69.84, 140.076)">
        <g   id="0.2.0.1.15.1.5.1.0" transform="rotate(-90)">
         <text  fill="#FFFFFF" font-family="OCRA"  id="0.2.0.1.15.1.5.1.0.0" transform="matrix(1 0 0 1 -6.561279e-04 18.0184)" font-size="3.3408">IOREF</text>
        </g>
       </g>
      </g>
      <g   id="0.2.0.1.15.1.6">
       <title   id="0.2.0.1.15.1.6.0" oldid="0.2.0.1.15.1.6.0">text:VIN</title>
       <g   id="0.2.0.1.15.1.6.1" transform="matrix(1, 0, 0, 1, 105.84, 140.076)">
        <g   id="0.2.0.1.15.1.6.1.0" transform="rotate(-90)">
         <text  fill="#FFFFFF" font-family="OCRA"  id="0.2.0.1.15.1.6.1.0.0" transform="matrix(1 0 0 1 -6.561279e-04 25.2196)" font-size="3.3408">VIN</text>
        </g>
       </g>
      </g>
      <g   id="0.2.0.1.15.1.7">
       <title   id="0.2.0.1.15.1.7.0" oldid="0.2.0.1.15.1.7.0">text:+3.3V</title>
       <g   id="0.2.0.1.15.1.7.1" transform="matrix(1, 0, 0, 1, 77.04, 140.076)">
        <g   id="0.2.0.1.15.1.7.1.0" transform="rotate(-90)">
         <text  fill="#FFFFFF" font-family="OCRA"  id="0.2.0.1.15.1.7.1.0.0" transform="matrix(1 0 0 1 -6.561279e-04 25.2178)" font-size="3.3408">+3.3V</text>
        </g>
       </g>
      </g>
      <g   id="0.2.0.1.15.1.8">
       <title   id="0.2.0.1.15.1.8.0" oldid="0.2.0.1.15.1.8.0">text:0</title>
       <g   id="0.2.0.1.15.1.8.1" transform="matrix(1, 0, 0, 1, 120.24, 140.076)">
        <g   id="0.2.0.1.15.1.8.1.0" transform="rotate(-90)">
         <text  fill="#FFFFFF" font-family="OCRA"  id="0.2.0.1.15.1.8.1.0.0" transform="matrix(1 0 0 1 -6.561279e-04 25.22)" font-size="3.3408">0</text>
        </g>
       </g>
      </g>
      <g   id="0.2.0.1.15.1.9">
       <title   id="0.2.0.1.15.1.9.0" oldid="0.2.0.1.15.1.9.0">text:1</title>
       <g   id="0.2.0.1.15.1.9.1" transform="matrix(1, 0, 0, 1, 127.44, 140.076)">
        <g   id="0.2.0.1.15.1.9.1.0" transform="rotate(-90)">
         <text  fill="#FFFFFF" font-family="OCRA"  id="0.2.0.1.15.1.9.1.0.0" transform="matrix(1 0 0 1 -6.561279e-04 25.2192)" font-size="3.3408">1</text>
        </g>
       </g>
      </g>
      <g   id="0.2.0.1.15.1.10">
       <title   id="0.2.0.1.15.1.10.0" oldid="0.2.0.1.15.1.10.0">text:2</title>
       <g   id="0.2.0.1.15.1.10.1" transform="matrix(1, 0, 0, 1, 134.64, 140.076)">
        <g   id="0.2.0.1.15.1.10.1.0" transform="rotate(-90)">
         <text  fill="#FFFFFF" font-family="OCRA"  id="0.2.0.1.15.1.10.1.0.0" transform="matrix(1 0 0 1 -6.561279e-04 25.2194)" font-size="3.3408">2</text>
        </g>
       </g>
      </g>
      <g   id="0.2.0.1.15.1.11">
       <title   id="0.2.0.1.15.1.11.0" oldid="0.2.0.1.15.1.11.0">text:3</title>
       <g   id="0.2.0.1.15.1.11.1" transform="matrix(1, 0, 0, 1, 141.84, 140.076)">
        <g   id="0.2.0.1.15.1.11.1.0" transform="rotate(-90)">
         <text  fill="#FFFFFF" font-family="OCRA"  id="0.2.0.1.15.1.11.1.0.0" transform="matrix(1 0 0 1 -6.561279e-04 25.2196)" font-size="3.3408">3</text>
        </g>
       </g>
      </g>
      <g   id="0.2.0.1.15.1.12">
       <title   id="0.2.0.1.15.1.12.0" oldid="0.2.0.1.15.1.12.0">text:4</title>
       <g   id="0.2.0.1.15.1.12.1" transform="matrix(1, 0, 0, 1, 149.04, 140.076)">
        <g   id="0.2.0.1.15.1.12.1.0" transform="rotate(-90)">
         <text  fill="#FFFFFF" font-family="OCRA"  id="0.2.0.1.15.1.12.1.0.0" transform="matrix(1 0 0 1 -6.561279e-04 25.2178)" font-size="3.3408">4</text>
        </g>
       </g>
      </g>
      <g   id="0.2.0.1.15.1.13">
       <title   id="0.2.0.1.15.1.13.0" oldid="0.2.0.1.15.1.13.0">text:5</title>
       <g   id="0.2.0.1.15.1.13.1" transform="matrix(1, 0, 0, 1, 156.24, 140.076)">
        <g   id="0.2.0.1.15.1.13.1.0" transform="rotate(-90)">
         <text  fill="#FFFFFF" font-family="OCRA"  id="0.2.0.1.15.1.13.1.0.0" transform="matrix(1 0 0 1 -6.561279e-04 25.22)" font-size="3.3408">5</text>
        </g>
       </g>
      </g>
      <g   id="0.2.0.1.15.1.14">
       <title   id="0.2.0.1.15.1.14.0" oldid="0.2.0.1.15.1.14.0">text:Analog In</title>
       <text  fill="#FFFFFF" font-family="OCRA"  id="0.2.0.1.15.1.14.1" transform="matrix(1 0 0 1 151.6816 136.2173)" font-size="3.3408">Analog In</text>
      </g>
      <g   id="0.2.0.1.15.1.15">
       <title   id="0.2.0.1.15.1.15.0" oldid="0.2.0.1.15.1.15.0">text:GND</title>
       <g   id="0.2.0.1.15.1.15.1" transform="matrix(1, 0, 0, 1, 52.3008, 10.8)">
        <g   id="0.2.0.1.15.1.15.1.0" transform="rotate(-90)">
         <text  fill="#FFFFFF" font-family="OCRA"  id="0.2.0.1.15.1.15.1.0.0" transform="matrix(1 0 0 1 -7.388 25.2187)" font-size="3.3408">GND</text>
        </g>
       </g>
      </g>
      <g   id="0.2.0.1.15.1.16">
       <title   id="0.2.0.1.15.1.16.0" oldid="0.2.0.1.15.1.16.0">text:13</title>
       <g   id="0.2.0.1.15.1.16.1" transform="matrix(1, 0, 0, 1, 59.5008, 10.8)">
        <g   id="0.2.0.1.15.1.16.1.0" transform="rotate(-90)">
         <text  fill="#FFFFFF" font-family="OCRA"  id="0.2.0.1.15.1.16.1.0.0" transform="matrix(1 0 0 1 -4.9993 25.2189)" font-size="3.3408">13</text>
        </g>
       </g>
      </g>
      <g   id="0.2.0.1.15.1.17">
       <title   id="0.2.0.1.15.1.17.0" oldid="0.2.0.1.15.1.17.0">text:12</title>
       <g   id="0.2.0.1.15.1.17.1" transform="matrix(1, 0, 0, 1, 66.7008, 10.8)">
        <g   id="0.2.0.1.15.1.17.1.0" transform="rotate(-90)">
         <text  fill="#FFFFFF" font-family="OCRA"  id="0.2.0.1.15.1.17.1.0.0" transform="matrix(1 0 0 1 -4.9993 25.2191)" font-size="3.3408">12</text>
        </g>
       </g>
      </g>
      <g   id="0.2.0.1.15.1.18">
       <title   id="0.2.0.1.15.1.18.0" oldid="0.2.0.1.15.1.18.0">text:11</title>
       <g   id="0.2.0.1.15.1.18.1" transform="matrix(1, 0, 0, 1, 73.9008, 10.8)">
        <g   id="0.2.0.1.15.1.18.1.0" transform="rotate(-90)">
         <text  fill="#FFFFFF" font-family="OCRA"  id="0.2.0.1.15.1.18.1.0.0" transform="matrix(1 0 0 1 -7.388 25.2183)" font-size="3.3408">~11</text>
        </g>
       </g>
      </g>
      <g   id="0.2.0.1.15.1.19">
       <title   id="0.2.0.1.15.1.19.0" oldid="0.2.0.1.15.1.19.0">text:AREF</title>
       <g   id="0.2.0.1.15.1.19.1" transform="matrix(1, 0, 0, 1, 45.1008, 10.8)">
        <g   id="0.2.0.1.15.1.19.1.0" transform="rotate(-90)">
         <text  fill="#FFFFFF" font-family="OCRA"  id="0.2.0.1.15.1.19.1.0.0" transform="matrix(1 0 0 1 -9.7767 25.2185)" font-size="3.3408">AREF</text>
        </g>
       </g>
      </g>
      <g   id="0.2.0.1.15.1.20">
       <title   id="0.2.0.1.15.1.20.0" oldid="0.2.0.1.15.1.20.0">text:AREF</title>
       <g   id="0.2.0.1.15.1.20.1" transform="matrix(1, 0, 0, 1, 45.1008, 10.8)">
        <g   id="0.2.0.1.15.1.20.1.0" transform="rotate(-90)">
         <text  fill="#FFFFFF" font-family="OCRA"  id="0.2.0.1.15.1.20.1.0.0" transform="matrix(1 0 0 1 -7.388 18.0183)" font-size="3.3408">SDA</text>
        </g>
       </g>
      </g>
      <g   id="0.2.0.1.15.1.21">
       <title   id="0.2.0.1.15.1.21.0" oldid="0.2.0.1.15.1.21.0">text:AREF</title>
       <g   id="0.2.0.1.15.1.21.1" transform="matrix(1, 0, 0, 1, 45.1008, 10.8)">
        <g   id="0.2.0.1.15.1.21.1.0" transform="rotate(-90)">
         <text  fill="#FFFFFF" font-family="OCRA"  id="0.2.0.1.15.1.21.1.0.0" transform="matrix(1 0 0 1 -7.388 10.8181)" font-size="3.3408">SCL</text>
        </g>
       </g>
      </g>
      <g   id="0.2.0.1.15.1.22">
       <title   id="0.2.0.1.15.1.22.0" oldid="0.2.0.1.15.1.22.0">text:10</title>
       <g   id="0.2.0.1.15.1.22.1" transform="matrix(1, 0, 0, 1, 81.1008, 10.8)">
        <g   id="0.2.0.1.15.1.22.1.0" transform="rotate(-90)">
         <text  fill="#FFFFFF" font-family="OCRA"  id="0.2.0.1.15.1.22.1.0.0" transform="matrix(1 0 0 1 -7.388 25.2176)" font-size="3.3408">~10</text>
        </g>
       </g>
      </g>
      <g   id="0.2.0.1.15.1.23">
       <title   id="0.2.0.1.15.1.23.0" oldid="0.2.0.1.15.1.23.0">text:9</title>
       <g   id="0.2.0.1.15.1.23.1" transform="matrix(1, 0, 0, 1, 88.3008, 10.8)">
        <g   id="0.2.0.1.15.1.23.1.0" transform="rotate(-90)">
         <text  fill="#FFFFFF" font-family="OCRA"  id="0.2.0.1.15.1.23.1.0.0" transform="matrix(1 0 0 1 -4.9993 25.2188)" font-size="3.3408">~9</text>
        </g>
       </g>
      </g>
      <g   id="0.2.0.1.15.1.24">
       <title   id="0.2.0.1.15.1.24.0" oldid="0.2.0.1.15.1.24.0">text:8</title>
       <g   id="0.2.0.1.15.1.24.1" transform="matrix(1, 0, 0, 1, 95.5008, 10.8)">
        <g   id="0.2.0.1.15.1.24.1.0" transform="rotate(-90)">
         <text  fill="#FFFFFF" font-family="OCRA"  id="0.2.0.1.15.1.24.1.0.0" transform="matrix(1 0 0 1 -2.6107 25.218)" font-size="3.3408">8</text>
        </g>
       </g>
      </g>
      <g   id="0.2.0.1.15.1.25">
       <title   id="0.2.0.1.15.1.25.0" oldid="0.2.0.1.15.1.25.0">text:7</title>
       <g   id="0.2.0.1.15.1.25.1" transform="matrix(1, 0, 0, 1, 106.301, 10.8)">
        <g   id="0.2.0.1.15.1.25.1.0" transform="rotate(-90)">
         <text  fill="#FFFFFF" font-family="OCRA"  id="0.2.0.1.15.1.25.1.0.0" transform="matrix(1 0 0 1 -2.6107 25.2185)" font-size="3.3408">7</text>
        </g>
       </g>
      </g>
      <g   id="0.2.0.1.15.1.26">
       <title   id="0.2.0.1.15.1.26.0" oldid="0.2.0.1.15.1.26.0">text:6</title>
       <g   id="0.2.0.1.15.1.26.1" transform="matrix(1, 0, 0, 1, 113.501, 10.8)">
        <g   id="0.2.0.1.15.1.26.1.0" transform="rotate(-90)">
         <text  fill="#FFFFFF" font-family="OCRA"  id="0.2.0.1.15.1.26.1.0.0" transform="matrix(1 0 0 1 -4.9993 25.2177)" font-size="3.3408">~6</text>
        </g>
       </g>
      </g>
      <g   id="0.2.0.1.15.1.27">
       <title   id="0.2.0.1.15.1.27.0" oldid="0.2.0.1.15.1.27.0">text:5</title>
       <g   id="0.2.0.1.15.1.27.1" transform="matrix(1, 0, 0, 1, 120.701, 10.8)">
        <g   id="0.2.0.1.15.1.27.1.0" transform="rotate(-90)">
         <text  fill="#FFFFFF" font-family="OCRA"  id="0.2.0.1.15.1.27.1.0.0" transform="matrix(1 0 0 1 -4.9993 25.2189)" font-size="3.3408">~5</text>
        </g>
       </g>
      </g>
      <g   id="0.2.0.1.15.1.28">
       <title   id="0.2.0.1.15.1.28.0" oldid="0.2.0.1.15.1.28.0">text:4</title>
       <g   id="0.2.0.1.15.1.28.1" transform="matrix(1, 0, 0, 1, 127.901, 10.8)">
        <g   id="0.2.0.1.15.1.28.1.0" transform="rotate(-90)">
         <text  fill="#FFFFFF" font-family="OCRA"  id="0.2.0.1.15.1.28.1.0.0" transform="matrix(1 0 0 1 -2.6107 25.2181)" font-size="3.3408">4</text>
        </g>
       </g>
      </g>
      <g   id="0.2.0.1.15.1.29">
       <title   id="0.2.0.1.15.1.29.0" oldid="0.2.0.1.15.1.29.0">text:3</title>
       <g   id="0.2.0.1.15.1.29.1" transform="matrix(1, 0, 0, 1, 135.101, 10.8)">
        <g   id="0.2.0.1.15.1.29.1.0" transform="rotate(-90)">
         <text  fill="#FFFFFF" font-family="OCRA"  id="0.2.0.1.15.1.29.1.0.0" transform="matrix(1 0 0 1 -4.9993 25.2193)" font-size="3.3408">~3</text>
        </g>
       </g>
      </g>
      <g   id="0.2.0.1.15.1.30">
       <title   id="0.2.0.1.15.1.30.0" oldid="0.2.0.1.15.1.30.0">text:2</title>
       <g   id="0.2.0.1.15.1.30.1" transform="matrix(1, 0, 0, 1, 142.301, 10.8)">
        <g   id="0.2.0.1.15.1.30.1.0" transform="rotate(-90)">
         <text  fill="#FFFFFF" font-family="OCRA"  id="0.2.0.1.15.1.30.1.0.0" transform="matrix(1 0 0 1 -2.6107 25.2185)" font-size="3.3408">2</text>
        </g>
       </g>
      </g>
      <g   id="0.2.0.1.15.1.31">
       <title   id="0.2.0.1.15.1.31.0" oldid="0.2.0.1.15.1.31.0">text:TX</title>
       <g   id="0.2.0.1.15.1.31.1" transform="matrix(1, 0, 0, 1, 149.501, 10.8)">
        <g   id="0.2.0.1.15.1.31.1.0" transform="rotate(-90)">
         <text  fill="#FFFFFF" font-family="OCRA"  id="0.2.0.1.15.1.31.1.0.0" transform="matrix(1 0 0 1 -4.9993 25.2177)" font-size="3.3408">TX</text>
        </g>
       </g>
      </g>
      <g   id="0.2.0.1.15.1.32">
       <title   id="0.2.0.1.15.1.32.0" oldid="0.2.0.1.15.1.32.0">text:RX</title>
       <g   id="0.2.0.1.15.1.32.1" transform="matrix(1, 0, 0, 1, 156.701, 10.8)">
        <g   id="0.2.0.1.15.1.32.1.0" transform="rotate(-90)">
         <text  fill="#FFFFFF" font-family="OCRA"  id="0.2.0.1.15.1.32.1.0.0" transform="matrix(1 0 0 1 -4.9993 25.2189)" font-size="3.3408">RX</text>
        </g>
       </g>
      </g>
     </g>
    </g>
    <g   id="0.2.0.1.16">
     <title   id="0.2.0.1.16.0" oldid="0.2.0.1.16.0">element:U2</title>
     <g   id="0.2.0.1.16.1">
      <title   id="0.2.0.1.16.1.0" oldid="0.2.0.1.16.1.0">package:WIFLY_GSX</title>
      <path  fill="none"  stroke="#FFFFFF" stroke-linecap="round" id="0.2.0.1.16.1.1" stroke-width="0.36" d="M193.762,122.145"/>
      <line  fill="none"  stroke="#FFFFFF" stroke-linecap="round" id="0.2.0.1.16.1.2" y1="122.145" stroke-width="0.36" x1="193.762" y2="122.145" x2="111.557"/>
      <polyline  fill="none" points="111.557,122.145 111.557,59.768 114.159,56.948 "  stroke="#FFFFFF" stroke-linecap="round" id="0.2.0.1.16.1.3" stroke-width="0.36"/>
      <line  fill="none"  stroke="#FFFFFF" stroke-linecap="round" id="0.2.0.1.16.1.4" y1="56.948" stroke-width="0.36" x1="114.159" y2="56.948" x2="193.762"/>
      <path  fill="none"  stroke="#FFFFFF" stroke-linecap="round" id="0.2.0.1.16.1.5" stroke-width="0.36" d="M193.762,56.948"/>
      <line  fill="none"  stroke="#FFFFFF" stroke-linecap="round" id="0.2.0.1.16.1.6" y1="56.948" stroke-width="0.36" x1="193.762" y2="122.145" x2="193.762"/>
     </g>
    </g>
   </g>
   <g   id="Bauteile">
    <rect  width="22.677" x="63.38" y="30.358" fill="#333333"  height="36.851" id="0.2.0.2.0"/>
    <rect  width="1.151" x="137.796" y="49.31" fill="#FFFFFF"  height="2.016" fill-opacity="0.15" id="0.2.0.2.1"/>
    <rect  width="18.425" x="60.797" y="92.821" fill="#333333"  height="9.922" id="0.2.0.2.2"/>
    <rect  width="1.152" x="133.029" y="49.361" fill="#FFFFFF"  height="2.017" fill-opacity="0.15" id="0.2.0.2.3"/>
    <rect  width="1.152" x="142.938" y="49.413" fill="#FFFFFF"  height="2.016" fill-opacity="0.15" id="0.2.0.2.4"/>
    <rect  width="1.152" x="156.363" y="49.258" fill="#FFFFFF"  height="2.016" fill-opacity="0.15" id="0.2.0.2.5"/>
    <rect  width="2.017" x="123.987" y="31.796" fill="#FFFFFF"  height="1.15" fill-opacity="0.15" id="0.2.0.2.6"/>
    <rect  width="2.016" x="139.734" y="31.741" fill="#FFFFFF"  height="1.15" fill-opacity="0.15" id="0.2.0.2.7"/>
    <circle  fill="#333333" cx="90.253"  cy="119" r="7.087" id="0.2.0.2.8"/>
    <circle  fill="#333333" cx="61.906"  cy="119" r="7.087" id="0.2.0.2.9"/>
   </g>
   <circle  fill="none" cx="100.818"  cy="144" stroke="#9A916C" id="connector54pin" r="2.052" stroke-width="1.224"/>
   <circle  fill="none" cx="108.02"  cy="144" stroke="#9A916C" id="connector55pin" r="2.052" stroke-width="1.224"/>
   <circle  fill="none" cx="144.02"  cy="144" stroke="#9A916C" id="connector56pin" r="2.052" stroke-width="1.224"/>
   <circle  fill="none" cx="151.219"  cy="144" stroke="#9A916C" id="connector57pin" r="2.052" stroke-width="1.224"/>
   <circle  fill="none" cx="158.418"  cy="144" stroke="#9A916C" id="connector58pin" r="2.052" stroke-width="1.224"/>
   <circle  fill="none" cx="165.62"  cy="144" stroke="#9A916C" id="connector59pin" r="2.052" stroke-width="1.224"/>
   <circle  fill="none" cx="172.818"  cy="144" stroke="#9A916C" id="connector60pin" r="2.052" stroke-width="1.224"/>
   <circle  fill="none" cx="180.02"  cy="144" stroke="#9A916C" id="connector61pin" r="2.052" stroke-width="1.224"/>
   <circle  fill="none" cx="68.419"  cy="7.2" stroke="#9A916C" id="connector62pin" r="2.052" stroke-width="1.224"/>
   <circle  fill="none" cx="165.62"  cy="7.2" stroke="#9A916C" id="connector63pin" r="2.052" stroke-width="1.224"/>
   <circle  fill="none" cx="158.418"  cy="7.2" stroke="#9A916C" id="connector64pin" r="2.052" stroke-width="1.224"/>
   <circle  fill="none" cx="151.219"  cy="7.2" stroke="#9A916C" id="connector65pin" r="2.052" stroke-width="1.224"/>
   <circle  fill="none" cx="144.02"  cy="7.2" stroke="#9A916C" id="connector66pin" r="2.052" stroke-width="1.224"/>
   <circle  fill="none" cx="136.818"  cy="7.2" stroke="#9A916C" id="connector67pin" r="2.052" stroke-width="1.224"/>
   <circle  fill="none" cx="129.62"  cy="7.2" stroke="#9A916C" id="connector68pin" r="2.052" stroke-width="1.224"/>
   <circle  fill="none" cx="118.818"  cy="7.2" stroke="#9A916C" id="connector69pin" r="2.052" stroke-width="1.224"/>
   <circle  fill="none" cx="111.62"  cy="7.2" stroke="#9A916C" id="connector70pin" r="2.052" stroke-width="1.224"/>
   <circle  fill="none" cx="104.418"  cy="7.2" stroke="#9A916C" id="connector71pin" r="2.052" stroke-width="1.224"/>
   <circle  fill="none" cx="97.219"  cy="7.2" stroke="#9A916C" id="connector72pin" r="2.052" stroke-width="1.224"/>
   <circle  fill="none" cx="90.019"  cy="7.2" stroke="#9A916C" id="connector73pin" r="2.052" stroke-width="1.224"/>
   <circle  fill="none" cx="82.819"  cy="7.2" stroke="#9A916C" id="connector74pin" r="2.052" stroke-width="1.224"/>
   <circle  fill="none" cx="115.219"  cy="144" stroke="#9A916C" id="connector75pin" r="2.052" stroke-width="1.224"/>
   <circle  fill="none" cx="122.418"  cy="144" stroke="#9A916C" id="connector76pin" r="2.052" stroke-width="1.224"/>
   <circle  fill="none" cx="75.619"  cy="7.2" stroke="#9A916C" id="connector77pin" r="2.052" stroke-width="1.224"/>
   <circle  fill="none" cx="93.62"  cy="144" stroke="#9A916C" id="connector78pin" r="2.052" stroke-width="1.224"/>
   <circle  fill="none" cx="180.02"  cy="7.2" stroke="#9A916C" id="connector79pin" r="2.052" stroke-width="1.224"/>
   <circle  fill="none" cx="172.818"  cy="7.2" stroke="#9A916C" id="connector80pin" r="2.052" stroke-width="1.224"/>
   <circle  fill="none" cx="129.62"  cy="144" stroke="#9A916C" id="connector81pin" r="2.052" stroke-width="1.224"/>
   <circle  fill="none" cx="86.42"  cy="144" stroke="#9A916C" id="connector82pin" r="2.052" stroke-width="1.224"/>
   <circle  fill="none" cx="79.22"  cy="144" stroke="#9A916C" id="connector83pin" r="2.052" stroke-width="1.224"/>
   <circle  fill="none" cx="61.219"  cy="7.2" stroke="#9A916C" id="connector158pin" r="2.052" stroke-width="1.224"/>
   <circle  fill="none" cx="54.019"  cy="7.2" stroke="#9A916C" id="connector159pin" r="2.052" stroke-width="1.224"/>
  </g>
  <g   id="duemilanove_shield" transform="matrix(1, 0, 0, 1, -14.5346, -31.2391)">
   <rect  width="43.197" x="93.879" y="34.849" fill="#404040"  height="7.199" id="0.2.1.0"/>
   <rect  width="57.602" x="140.615" y="34.849" fill="#404040"  height="7.199" id="0.2.1.1"/>
   <rect  width="57.6" x="90.23" y="171.572" fill="#404040"  height="7.199" id="0.2.1.2"/>
   <polyline  fill="#404040" points="154.966,178.771 154.966,171.572 198.165,171.572 198.165,178.771 "  id="0.2.1.3"/>
   <g   id="0.2.1.4">
    <polygon  fill="#2A2A29" points="95.064,36.034 96.09,37.058 98.873,37.058 99.896,36.034 "  id="0.2.1.4.0"/>
    <polygon  fill="#2A2A29" points="102.265,36.034 103.285,37.058 106.068,37.058 107.093,36.034 "  id="0.2.1.4.1"/>
    <polygon  fill="#2A2A29" points="109.461,36.034 110.484,37.058 113.267,37.058 114.292,36.034 "  id="0.2.1.4.2"/>
    <polygon  fill="#2A2A29" points="116.662,36.034 117.684,37.058 120.468,37.058 121.494,36.034 "  id="0.2.1.4.3"/>
    <polygon  fill="#2A2A29" points="123.859,36.034 124.885,37.058 127.669,37.058 128.693,36.034 "  id="0.2.1.4.4"/>
    <polygon  fill="#2A2A29" points="131.06,36.034 132.085,37.058 134.869,37.058 135.892,36.034 "  id="0.2.1.4.5"/>
    <polygon  fill="#2A2A29" points="141.803,36.034 142.826,37.058 145.609,37.058 146.634,36.034 "  id="0.2.1.4.6"/>
    <polygon  fill="#2A2A29" points="149.001,36.034 150.025,37.058 152.809,37.058 153.833,36.034 "  id="0.2.1.4.7"/>
    <polygon  fill="#2A2A29" points="156.201,36.034 157.226,37.058 160.009,37.058 161.033,36.034 "  id="0.2.1.4.8"/>
    <polygon  fill="#2A2A29" points="163.402,36.034 164.425,37.058 167.208,37.058 168.234,36.034 "  id="0.2.1.4.9"/>
    <polygon  fill="#2A2A29" points="170.601,36.034 171.624,37.058 174.408,37.058 175.434,36.034 "  id="0.2.1.4.10"/>
    <polygon  fill="#2A2A29" points="177.803,36.034 178.826,37.058 181.609,37.058 182.634,36.034 "  id="0.2.1.4.11"/>
    <polygon  fill="#2A2A29" points="185.001,36.034 186.025,37.058 188.809,37.058 189.833,36.034 "  id="0.2.1.4.12"/>
    <polygon  fill="#2A2A29" points="192.201,36.034 193.226,37.058 196.009,37.058 197.033,36.034 "  id="0.2.1.4.13"/>
    <polygon  fill="#2A2A29" points="105.816,172.755 106.84,173.781 109.623,173.781 110.648,172.755 "  id="0.2.1.4.14"/>
    <polygon  fill="#2A2A29" points="113.016,172.755 114.04,173.781 116.822,173.781 117.846,172.755 "  id="0.2.1.4.15"/>
    <polygon  fill="#2A2A29" points="120.216,172.755 121.24,173.781 124.023,173.781 125.048,172.755 "  id="0.2.1.4.16"/>
    <polygon  fill="#2A2A29" points="127.415,172.755 128.439,173.781 131.223,173.781 132.247,172.755 "  id="0.2.1.4.17"/>
    <polygon  fill="#2A2A29" points="134.617,172.755 135.639,173.781 138.423,173.781 139.449,172.755 "  id="0.2.1.4.18"/>
    <polygon  fill="#2A2A29" points="141.814,172.755 142.839,173.781 145.624,173.781 146.646,172.755 "  id="0.2.1.4.19"/>
    <polygon  fill="#2A2A29" points="156.148,172.755 157.173,173.781 159.958,173.781 160.98,172.755 "  id="0.2.1.4.20"/>
    <polygon  fill="#2A2A29" points="163.348,172.755 164.374,173.781 167.154,173.781 168.18,172.755 "  id="0.2.1.4.21"/>
    <polygon  fill="#2A2A29" points="170.55,172.755 171.574,173.781 174.355,173.781 175.382,172.755 "  id="0.2.1.4.22"/>
    <polygon  fill="#2A2A29" points="177.751,172.755 178.773,173.781 181.557,173.781 182.583,172.755 "  id="0.2.1.4.23"/>
    <polygon  fill="#2A2A29" points="184.951,172.755 185.973,173.781 188.757,173.781 189.783,172.755 "  id="0.2.1.4.24"/>
    <polygon  fill="#2A2A29" points="196.98,172.755 192.148,172.755 193.173,173.781 195.958,173.781 "  id="0.2.1.4.25"/>
    <polygon  fill="#2A2A29" points="98.616,172.755 99.64,173.781 102.423,173.781 103.448,172.755 "  id="0.2.1.4.26"/>
    <polygon  fill="#2A2A29" points="91.415,172.755 92.439,173.781 95.223,173.781 96.247,172.755 "  id="0.2.1.4.27"/>
   </g>
   <g   id="0.2.1.5">
    <polygon  fill="#474747" points="98.873,37.063 98.873,39.843 99.896,40.866 99.896,36.034 "  id="0.2.1.5.0"/>
    <polygon  fill="#474747" points="106.068,37.063 106.068,39.843 107.093,40.866 107.093,36.034 "  id="0.2.1.5.1"/>
    <polygon  fill="#474747" points="113.267,37.063 113.267,39.843 114.292,40.866 114.292,36.034 "  id="0.2.1.5.2"/>
    <polygon  fill="#474747" points="120.468,37.063 120.468,39.843 121.494,40.866 121.494,36.034 "  id="0.2.1.5.3"/>
    <polygon  fill="#474747" points="127.669,37.063 127.669,39.843 128.693,40.866 128.693,36.034 "  id="0.2.1.5.4"/>
    <polygon  fill="#474747" points="134.869,37.063 134.869,39.843 135.892,40.866 135.892,36.034 "  id="0.2.1.5.5"/>
    <polygon  fill="#474747" points="145.609,37.063 145.609,39.843 146.634,40.866 146.634,36.034 "  id="0.2.1.5.6"/>
    <polygon  fill="#474747" points="152.809,37.063 152.809,39.843 153.833,40.866 153.833,36.034 "  id="0.2.1.5.7"/>
    <polygon  fill="#474747" points="160.009,37.063 160.009,39.843 161.033,40.866 161.033,36.034 "  id="0.2.1.5.8"/>
    <polygon  fill="#474747" points="167.208,37.063 167.208,39.843 168.234,40.866 168.234,36.034 "  id="0.2.1.5.9"/>
    <polygon  fill="#474747" points="174.408,37.063 174.408,39.843 175.434,40.866 175.434,36.034 "  id="0.2.1.5.10"/>
    <polygon  fill="#474747" points="181.609,37.063 181.609,39.843 182.634,40.866 182.634,36.034 "  id="0.2.1.5.11"/>
    <polygon  fill="#474747" points="188.809,37.063 188.809,39.843 189.833,40.866 189.833,36.034 "  id="0.2.1.5.12"/>
    <polygon  fill="#474747" points="196.009,37.063 196.009,39.843 197.033,40.866 197.033,36.034 "  id="0.2.1.5.13"/>
    <polygon  fill="#474747" points="109.623,173.783 109.623,176.564 110.648,177.587 110.648,172.755 "  id="0.2.1.5.14"/>
    <polygon  fill="#474747" points="116.822,173.783 116.822,176.564 117.846,177.587 117.846,172.755 "  id="0.2.1.5.15"/>
    <polygon  fill="#474747" points="124.023,173.783 124.023,176.564 125.048,177.587 125.048,172.755 "  id="0.2.1.5.16"/>
    <polygon  fill="#474747" points="131.223,173.783 131.223,176.564 132.247,177.587 132.247,172.755 "  id="0.2.1.5.17"/>
    <polygon  fill="#474747" points="138.423,173.783 138.423,176.564 139.449,177.587 139.449,172.755 "  id="0.2.1.5.18"/>
    <polygon  fill="#474747" points="145.624,173.783 145.624,176.564 146.646,177.587 146.646,172.755 "  id="0.2.1.5.19"/>
    <polygon  fill="#474747" points="159.958,173.783 159.958,176.564 160.98,177.587 160.98,172.755 "  id="0.2.1.5.20"/>
    <polygon  fill="#474747" points="167.154,173.783 167.154,176.564 168.18,177.587 168.18,172.755 "  id="0.2.1.5.21"/>
    <polygon  fill="#474747" points="174.355,173.783 174.355,176.564 175.382,177.587 175.382,172.755 "  id="0.2.1.5.22"/>
    <polygon  fill="#474747" points="181.557,173.783 181.557,176.564 182.583,177.587 182.583,172.755 "  id="0.2.1.5.23"/>
    <polygon  fill="#474747" points="188.757,173.783 188.757,176.564 189.783,177.587 189.783,172.755 "  id="0.2.1.5.24"/>
    <polygon  fill="#474747" points="195.958,176.564 196.98,177.587 196.98,172.755 195.958,173.783 "  id="0.2.1.5.25"/>
    <polygon  fill="#474747" points="102.423,173.783 102.423,176.564 103.448,177.587 103.448,172.755 "  id="0.2.1.5.26"/>
    <polygon  fill="#474747" points="95.223,173.783 95.223,176.564 96.247,177.587 96.247,172.755 "  id="0.2.1.5.27"/>
   </g>
   <g   id="0.2.1.6">
    <polygon  fill="#595959" points="96.09,39.843 95.064,40.866 99.896,40.866 98.871,39.843 "  id="0.2.1.6.0"/>
    <polygon  fill="#595959" points="103.285,39.843 102.265,40.866 107.092,40.866 106.066,39.843 "  id="0.2.1.6.1"/>
    <polygon  fill="#595959" points="110.484,39.843 109.461,40.866 114.292,40.866 113.267,39.843 "  id="0.2.1.6.2"/>
    <polygon  fill="#595959" points="117.684,39.843 116.662,40.866 121.494,40.866 120.468,39.843 "  id="0.2.1.6.3"/>
    <polygon  fill="#595959" points="124.885,39.843 123.859,40.866 128.691,40.866 127.665,39.843 "  id="0.2.1.6.4"/>
    <polygon  fill="#595959" points="132.085,39.843 131.06,40.866 135.891,40.866 134.869,39.843 "  id="0.2.1.6.5"/>
    <polygon  fill="#595959" points="142.826,39.843 141.803,40.866 146.632,40.866 145.607,39.843 "  id="0.2.1.6.6"/>
    <polygon  fill="#595959" points="150.025,39.843 149.001,40.866 153.831,40.866 152.809,39.843 "  id="0.2.1.6.7"/>
    <polygon  fill="#595959" points="157.226,39.843 156.201,40.866 161.033,40.866 160.007,39.843 "  id="0.2.1.6.8"/>
    <polygon  fill="#595959" points="164.425,39.843 163.402,40.866 168.232,40.866 167.206,39.843 "  id="0.2.1.6.9"/>
    <polygon  fill="#595959" points="171.624,39.843 170.601,40.866 175.434,40.866 174.408,39.843 "  id="0.2.1.6.10"/>
    <polygon  fill="#595959" points="178.826,39.843 177.803,40.866 182.632,40.866 181.607,39.843 "  id="0.2.1.6.11"/>
    <polygon  fill="#595959" points="186.025,39.843 185.001,40.866 189.831,40.866 188.809,39.843 "  id="0.2.1.6.12"/>
    <polygon  fill="#595959" points="193.226,39.843 192.201,40.866 197.033,40.866 196.007,39.843 "  id="0.2.1.6.13"/>
    <polygon  fill="#595959" points="106.84,176.564 105.816,177.587 110.648,177.587 109.623,176.564 "  id="0.2.1.6.14"/>
    <polygon  fill="#595959" points="114.04,176.564 113.016,177.587 117.846,177.587 116.822,176.564 "  id="0.2.1.6.15"/>
    <polygon  fill="#595959" points="121.24,176.564 120.216,177.587 125.048,177.587 124.021,176.564 "  id="0.2.1.6.16"/>
    <polygon  fill="#595959" points="128.439,176.564 127.415,177.587 132.247,177.587 131.221,176.564 "  id="0.2.1.6.17"/>
    <polygon  fill="#595959" points="135.639,176.564 134.617,177.587 139.445,177.587 138.423,176.564 "  id="0.2.1.6.18"/>
    <polygon  fill="#595959" points="142.839,176.564 141.814,177.587 146.646,177.587 145.622,176.564 "  id="0.2.1.6.19"/>
    <polygon  fill="#595959" points="157.173,176.564 156.148,177.587 160.98,177.587 159.956,176.564 "  id="0.2.1.6.20"/>
    <polygon  fill="#595959" points="164.374,176.564 163.348,177.587 168.18,177.587 167.154,176.564 "  id="0.2.1.6.21"/>
    <polygon  fill="#595959" points="171.574,176.564 170.55,177.587 175.382,177.587 174.355,176.564 "  id="0.2.1.6.22"/>
    <polygon  fill="#595959" points="178.773,176.564 177.751,177.587 182.581,177.587 181.555,176.564 "  id="0.2.1.6.23"/>
    <polygon  fill="#595959" points="185.973,176.564 184.951,177.587 189.779,177.587 188.757,176.564 "  id="0.2.1.6.24"/>
    <polygon  fill="#595959" points="195.956,176.564 193.173,176.564 192.148,177.587 196.98,177.587 "  id="0.2.1.6.25"/>
    <polygon  fill="#595959" points="99.64,176.564 98.616,177.587 103.448,177.587 102.423,176.564 "  id="0.2.1.6.26"/>
    <polygon  fill="#595959" points="92.439,176.564 91.415,177.587 96.247,177.587 95.223,176.564 "  id="0.2.1.6.27"/>
   </g>
   <g   id="0.2.1.7">
    <polygon  fill="#373737" points="96.09,37.058 95.062,36.034 95.062,40.866 96.09,39.841 "  id="0.2.1.7.0"/>
    <polygon  fill="#373737" points="103.285,37.058 102.263,36.034 102.263,40.866 103.285,39.841 "  id="0.2.1.7.1"/>
    <polygon  fill="#373737" points="110.484,37.058 109.458,36.034 109.458,40.866 110.484,39.841 "  id="0.2.1.7.2"/>
    <polygon  fill="#373737" points="117.684,37.058 116.66,36.034 116.66,40.866 117.684,39.841 "  id="0.2.1.7.3"/>
    <polygon  fill="#373737" points="124.885,37.058 123.857,36.034 123.857,40.866 124.885,39.841 "  id="0.2.1.7.4"/>
    <polygon  fill="#373737" points="132.085,37.058 131.059,36.034 131.059,40.866 132.085,39.841 "  id="0.2.1.7.5"/>
    <polygon  fill="#373737" points="142.826,37.058 141.8,36.034 141.8,40.866 142.826,39.841 "  id="0.2.1.7.6"/>
    <polygon  fill="#373737" points="150.025,37.058 148.999,36.034 148.999,40.866 150.025,39.841 "  id="0.2.1.7.7"/>
    <polygon  fill="#373737" points="157.226,37.058 156.199,36.034 156.199,40.866 157.226,39.841 "  id="0.2.1.7.8"/>
    <polygon  fill="#373737" points="164.425,37.058 163.4,36.034 163.4,40.866 164.425,39.841 "  id="0.2.1.7.9"/>
    <polygon  fill="#373737" points="171.624,37.058 170.6,36.034 170.6,40.866 171.624,39.841 "  id="0.2.1.7.10"/>
    <polygon  fill="#373737" points="178.826,37.058 177.8,36.034 177.8,40.866 178.826,39.841 "  id="0.2.1.7.11"/>
    <polygon  fill="#373737" points="186.025,37.058 184.999,36.034 184.999,40.866 186.025,39.841 "  id="0.2.1.7.12"/>
    <polygon  fill="#373737" points="193.226,37.058 192.199,36.034 192.199,40.866 193.226,39.841 "  id="0.2.1.7.13"/>
    <polygon  fill="#373737" points="106.84,173.781 105.814,172.755 105.814,177.587 106.84,176.562 "  id="0.2.1.7.14"/>
    <polygon  fill="#373737" points="99.64,173.781 98.614,172.755 98.614,177.587 99.64,176.562 "  id="0.2.1.7.15"/>
    <polygon  fill="#373737" points="92.439,173.781 91.414,172.755 91.414,177.587 92.439,176.562 "  id="0.2.1.7.16"/>
    <polygon  fill="#373737" points="114.04,173.781 113.014,172.755 113.014,177.587 114.04,176.562 "  id="0.2.1.7.17"/>
    <polygon  fill="#373737" points="121.24,173.781 120.214,172.755 120.214,177.587 121.24,176.562 "  id="0.2.1.7.18"/>
    <polygon  fill="#373737" points="128.439,173.781 127.414,172.755 127.414,177.587 128.439,176.562 "  id="0.2.1.7.19"/>
    <polygon  fill="#373737" points="135.639,173.781 134.613,172.755 134.613,177.587 135.639,176.562 "  id="0.2.1.7.20"/>
    <polygon  fill="#373737" points="142.839,173.781 141.812,172.755 141.812,177.587 142.839,176.562 "  id="0.2.1.7.21"/>
    <polygon  fill="#373737" points="157.173,173.781 156.146,172.755 156.146,177.587 157.173,176.562 "  id="0.2.1.7.22"/>
    <polygon  fill="#373737" points="164.374,173.781 163.346,172.755 163.346,177.587 164.374,176.562 "  id="0.2.1.7.23"/>
    <polygon  fill="#373737" points="171.574,173.781 170.548,172.755 170.548,177.587 171.574,176.562 "  id="0.2.1.7.24"/>
    <polygon  fill="#373737" points="178.773,173.781 177.747,172.755 177.747,177.587 178.773,176.562 "  id="0.2.1.7.25"/>
    <polygon  fill="#373737" points="185.973,173.781 184.949,172.755 184.949,177.587 185.973,176.562 "  id="0.2.1.7.26"/>
    <polygon  fill="#373737" points="193.173,176.562 193.173,173.781 192.146,172.755 192.146,177.587 "  id="0.2.1.7.27"/>
   </g>
   <rect  width="2.78" x="96.093" y="37.058"  height="2.781" id="0.2.1.8"/>
   <rect  width="2.781" x="103.287" y="37.058"  height="2.781" id="0.2.1.9"/>
   <rect  width="2.781" x="110.486" y="37.058"  height="2.781" id="0.2.1.10"/>
   <rect  width="2.78" x="117.688" y="37.058"  height="2.781" id="0.2.1.11"/>
   <rect  width="2.778" x="124.888" y="37.058"  height="2.781" id="0.2.1.12"/>
   <rect  width="2.78" x="132.088" y="37.059"  height="2.781" id="0.2.1.13"/>
   <rect  width="2.781" x="142.828" y="37.058"  height="2.781" id="0.2.1.14"/>
   <rect  width="2.781" x="150.027" y="37.059"  height="2.781" id="0.2.1.15"/>
   <rect  width="2.78" x="157.229" y="37.058"  height="2.781" id="0.2.1.16"/>
   <rect  width="2.78" x="164.428" y="37.058"  height="2.781" id="0.2.1.17"/>
   <rect  width="2.78" x="171.627" y="37.059"  height="2.781" id="0.2.1.18"/>
   <rect  width="2.781" x="178.828" y="37.058"  height="2.781" id="0.2.1.19"/>
   <rect  width="2.781" x="186.027" y="37.059"  height="2.781" id="0.2.1.20"/>
   <rect  width="2.78" x="193.229" y="37.058"  height="2.781" id="0.2.1.21"/>
   <rect  width="2.78" x="106.844" y="173.781"  height="2.78" id="0.2.1.22"/>
   <rect  width="2.78" x="99.643" y="173.781"  height="2.78" id="connector156pin"/>
   <rect  width="2.778" x="114.044" y="173.781"  height="2.781" id="0.2.1.24"/>
   <rect  width="2.78" x="121.242" y="173.781"  height="2.781" id="0.2.1.25"/>
   <rect  width="2.78" x="128.442" y="173.781"  height="2.781" id="0.2.1.26"/>
   <rect  width="2.779" x="135.644" y="173.781"  height="2.781" id="0.2.1.27"/>
   <rect  width="2.779" x="142.843" y="173.781"  height="2.78" id="0.2.1.28"/>
   <rect  width="2.78" x="157.176" y="173.781"  height="2.78" id="0.2.1.29"/>
   <rect  width="2.78" x="164.377" y="173.781"  height="2.781" id="0.2.1.30"/>
   <rect  width="2.78" x="171.576" y="173.781"  height="2.781" id="0.2.1.31"/>
   <rect  width="2.781" x="178.775" y="173.781"  height="2.781" id="0.2.1.32"/>
   <rect  width="2.78" x="185.977" y="173.781"  height="2.781" id="0.2.1.33"/>
   <rect  width="2.78" x="193.176" y="173.781"  height="2.78" id="0.2.1.34"/>
   <rect  width="2.78" x="92.443" y="173.781"  height="2.78" id="connector157pin"/>
  </g>
  <g   id="wifly_gsx" transform="matrix(1, 0, 0, 1, 74.1499, 41.7575)">
   <g   id="0.2.2.0" transform="matrix(-1, 0, 0, -1, 107.716, 59.528)">
    <rect  width="79.228" x="-10.493" y="-19.477" fill="#006600"  height="62.154" id="Board"/>
    <g   id="RN_Chip">
     <rect  width="1.405" x="30.144" opacity="0.2" y="-10.983"  height="34.015" enable-background="new    " id="0.2.2.0.1.0"/>
     <polygon  fill="#606060" points="66.356,-10.612 66.356,-10.983 30.434,-10.983 30.434,-10.612 30.144,-10.612 30.144,22.663 30.434,22.663 30.434,23.033 66.356,23.033 66.356,22.663 66.645,22.663 66.645,-10.612 "  id="0.2.2.0.1.1"/>
     <g   id="0.2.2.0.1.2">
      <g  opacity="0.5"  id="0.2.2.0.1.2.0">
       <path  fill="#FFFFFF"  id="0.2.2.0.1.2.0.0" d="M66.456-10.578H31.161c-0.074,0-0.135-0.077-0.135-0.172c0-0.094,0.061-0.171,0.135-0.171h35.295c0.074,0,0.134,0.077,0.134,0.171C66.59-10.655,66.53-10.578,66.456-10.578z"/>
      </g>
      <g  opacity="0.5"  id="0.2.2.0.1.2.1">
       <path  fill="#FFFFFF"  id="0.2.2.0.1.2.1.0" d="M66.456,22.968H31.161c-0.074,0-0.135-0.077-0.135-0.171c0-0.095,0.061-0.171,0.135-0.171h35.295c0.074,0,0.134,0.076,0.134,0.171C66.59,22.89,66.53,22.968,66.456,22.968z"/>
      </g>
     </g>
     <rect  width="34.398" x="31.602" y="-9.73" fill="#FFFFFF"  height="31.498" id="0.2.2.0.1.3"/>
     <path  fill="#FFFFFF"  id="0.2.2.0.1.4" d="M30.682,22.527c-0.027,0-0.049-0.029-0.049-0.064v-32.875c0-0.036,0.021-0.065,0.049-0.065s0.051,0.03,0.051,0.065v32.875C30.733,22.498,30.71,22.527,30.682,22.527z"/>
     <path  fill="#FFFFFF"  id="0.2.2.0.1.5" d="M66.945,22.527c-0.028,0-0.05-0.029-0.05-0.064v-32.875c0-0.036,0.022-0.065,0.05-0.065s0.05,0.03,0.05,0.065v32.875C66.997,22.498,66.973,22.527,66.945,22.527z"/>
     <text  fill="#606060" font-family="OCRA"  id="0.2.2.0.1.6" transform="matrix(0.7833 0 0 1 34.2643 -3.1964)" font-size="3.9307">802.11b/g</text>
    </g>
    <rect  width="14.173" x="14.944" y="-10.283" fill="#333333"  height="14.174" id="0.2.2.0.2"/>
    <rect  width="19.843" x="-8.478" y="20.198" fill="#152A61"  height="5.67" stroke="#FFFFFF" id="0.2.2.0.3" stroke-width="0.25" stroke-miterlimit="10"/>
   </g>
  </g>
 </g>
</svg>
