<?xml version="1.0" encoding="utf-8"?>
<!-- Generator: Adobe Illustrator 16.0.0, SVG Export Plug-In . SVG Version: 6.00 Build 0)  -->
<svg version="1.2" baseProfile="tiny" id="Layer_1" xmlns:svg="http://www.w3.org/2000/svg"
	 xmlns="http://www.w3.org/2000/svg" xmlns:xlink="http://www.w3.org/1999/xlink" x="0px" y="0px" width="43.322px" height="72px"
	 viewBox="0 0 43.322 72" xml:space="preserve">
<desc>Fritzing breadboard generated by brd2svg</desc>
<g id="breadboard">
	<g id="icon">
		<path fill="#1F7A34" d="M0,0v33.84c1.193,0,2.16,0.968,2.16,2.16c0,1.193-0.967,2.16-2.16,2.16V72h43.322V0H0z"/>
		<g transform="translate(100,105.298)">
			<path fill="#1A1A1A" d="M-67.778-45.85c0,0.401-0.329,0.73-0.73,0.73H-88.17c-0.401,0-0.73-0.329-0.73-0.73v-12.841
				c0-0.401,0.329-0.73,0.73-0.73h19.662c0.401,0,0.73,0.329,0.73,0.73V-45.85z"/>
			<path fill="#333333" d="M-67.778-58.807c0,0.401-0.329,0.73-0.73,0.73H-88.17c-0.401,0-0.73-0.329-0.73-0.73v-37.259
				c0-0.402,0.329-0.73,0.73-0.73h19.662c0.401,0,0.73,0.329,0.73,0.73V-58.807z"/>
			<g>
				<circle fill="#1A1A1A" cx="-81.26" cy="-77.436" r="1.853"/>
				<circle cx="-81.26" cy="-77.246" r="0.436"/>
				<path d="M-81.26-78.906c0.958,0,1.735,0.729,1.833,1.66c0.006-0.063,0.019-0.125,0.019-0.192c0-1.022-0.83-1.852-1.853-1.852
					c-1.022,0-1.853,0.83-1.853,1.852c0,0.066,0.015,0.128,0.02,0.192C-82.996-78.177-82.218-78.906-81.26-78.906z"/>
			</g>
			<g>
				<path fill="#808080" d="M-85.679-81.278l-0.034-0.25c0.16-0.007,0.27-0.037,0.328-0.089c0.058-0.054,0.087-0.127,0.087-0.222
					c0-0.069-0.016-0.129-0.047-0.18s-0.076-0.085-0.13-0.104c-0.055-0.019-0.142-0.028-0.262-0.028h-1.44v-0.277h1.424
					c0.175,0,0.311,0.021,0.407,0.063c0.096,0.042,0.169,0.11,0.219,0.201c0.051,0.091,0.077,0.199,0.077,0.322
					c0,0.184-0.053,0.325-0.159,0.422C-85.314-81.323-85.471-81.274-85.679-81.278z"/>
				<path fill="#808080" d="M-85.087-82.713h-0.256l-1.339-1.072c-0.095-0.076-0.178-0.148-0.248-0.217v1.167h-0.247v-1.499h0.247
					l1.45,1.174l0.146,0.127v-1.335h0.247V-82.713z"/>
				<path fill="#808080" d="M-85.819-86.157l0.07-0.277c0.227,0.059,0.4,0.163,0.52,0.314c0.12,0.151,0.179,0.334,0.179,0.553
					c0,0.226-0.046,0.409-0.138,0.55c-0.091,0.141-0.225,0.248-0.399,0.322c-0.174,0.074-0.361,0.11-0.561,0.11
					c-0.218,0-0.408-0.042-0.57-0.125c-0.163-0.083-0.286-0.202-0.369-0.355c-0.084-0.153-0.128-0.322-0.128-0.506
					c0-0.209,0.054-0.385,0.161-0.528c0.106-0.143,0.256-0.243,0.449-0.298l0.065,0.272c-0.152,0.049-0.264,0.119-0.333,0.211
					c-0.07,0.092-0.105,0.208-0.105,0.349c0,0.161,0.039,0.294,0.116,0.403s0.18,0.184,0.31,0.229
					c0.13,0.044,0.264,0.065,0.401,0.065c0.179,0,0.333-0.026,0.467-0.078c0.132-0.051,0.231-0.132,0.297-0.242
					c0.065-0.109,0.098-0.228,0.098-0.354c0-0.156-0.045-0.287-0.135-0.394C-85.512-86.044-85.644-86.118-85.819-86.157z"/>
				<path fill="#808080" d="M-85.714-86.642h-0.258v-0.788h0.259L-85.714-86.642L-85.714-86.642z"/>
				<path fill="#808080" d="M-85.333-88.993h0.247v1.383c-0.061,0.001-0.121-0.009-0.177-0.03c-0.095-0.035-0.188-0.091-0.279-0.169
					c-0.091-0.077-0.197-0.189-0.316-0.336c-0.186-0.227-0.334-0.38-0.443-0.46c-0.108-0.081-0.212-0.12-0.309-0.12
					c-0.101,0-0.188,0.037-0.257,0.109c-0.07,0.072-0.105,0.167-0.105,0.284c0,0.124,0.038,0.223,0.111,0.297
					c0.073,0.073,0.177,0.111,0.308,0.112l-0.027,0.264c-0.197-0.019-0.347-0.086-0.45-0.204s-0.155-0.276-0.155-0.474
					c0-0.201,0.056-0.359,0.167-0.477c0.112-0.117,0.249-0.175,0.413-0.175c0.084,0,0.166,0.017,0.247,0.051s0.166,0.091,0.255,0.17
					c0.09,0.079,0.213,0.212,0.368,0.396c0.129,0.154,0.217,0.252,0.263,0.296c0.046,0.044,0.092,0.08,0.138,0.108L-85.333-88.993
					L-85.333-88.993z"/>
				<path fill="#808080" d="M-85.333-90.617h0.247v1.382c-0.061,0.001-0.121-0.008-0.177-0.03c-0.095-0.035-0.188-0.091-0.279-0.168
					c-0.091-0.078-0.197-0.189-0.316-0.336c-0.187-0.228-0.334-0.382-0.444-0.461c-0.108-0.08-0.211-0.12-0.309-0.12
					c-0.101,0-0.188,0.036-0.257,0.108c-0.071,0.073-0.106,0.167-0.106,0.285c0,0.124,0.038,0.223,0.111,0.296
					c0.074,0.074,0.177,0.112,0.308,0.113l-0.027,0.264c-0.197-0.019-0.347-0.086-0.45-0.204c-0.103-0.118-0.154-0.276-0.154-0.475
					c0-0.2,0.056-0.359,0.167-0.476c0.112-0.117,0.249-0.176,0.413-0.176c0.084,0,0.166,0.017,0.247,0.052
					c0.081,0.034,0.166,0.09,0.255,0.169c0.09,0.08,0.213,0.212,0.368,0.396c0.129,0.154,0.217,0.253,0.263,0.296
					c0.046,0.044,0.092,0.08,0.138,0.109L-85.333-90.617L-85.333-90.617z"/>
				<path fill="#808080" d="M-85.087-91.01h-2.09v-1.411h0.247v1.134h0.647v-0.981h0.247v0.981h0.95L-85.087-91.01L-85.087-91.01z"
					/>
			</g>
			<g>
				<path fill="#808080" d="M-77.346-78.999c-0.217,0-0.391-0.022-0.521-0.067c-0.133-0.044-0.234-0.11-0.306-0.198
					c-0.072-0.087-0.107-0.198-0.107-0.332c0-0.099,0.02-0.184,0.059-0.259c0.039-0.074,0.096-0.135,0.171-0.184
					c0.074-0.048,0.165-0.085,0.272-0.112c0.106-0.027,0.251-0.042,0.432-0.042c0.214,0,0.388,0.022,0.52,0.067
					c0.133,0.044,0.233,0.11,0.307,0.197c0.071,0.088,0.106,0.199,0.106,0.333c0,0.176-0.063,0.315-0.189,0.416
					C-76.754-79.059-77.002-78.999-77.346-78.999z M-77.346-79.23c0.301,0,0.5-0.035,0.599-0.106c0.101-0.07,0.149-0.157,0.149-0.26
					s-0.049-0.189-0.149-0.26c-0.1-0.07-0.299-0.105-0.599-0.105c-0.301,0-0.502,0.035-0.6,0.105
					c-0.099,0.071-0.149,0.159-0.149,0.263c0,0.104,0.044,0.186,0.131,0.248C-77.853-79.268-77.648-79.23-77.346-79.23z"/>
				<path fill="#808080" d="M-76.66-81.6h0.216v1.209c-0.053,0.001-0.105-0.007-0.155-0.026c-0.082-0.031-0.164-0.081-0.243-0.148
					c-0.08-0.068-0.172-0.166-0.278-0.294c-0.162-0.198-0.291-0.333-0.387-0.403c-0.095-0.07-0.185-0.105-0.27-0.105
					c-0.089,0-0.165,0.031-0.226,0.095c-0.062,0.063-0.092,0.147-0.092,0.249c0,0.108,0.033,0.195,0.098,0.26
					s0.155,0.098,0.27,0.099l-0.023,0.23c-0.171-0.015-0.304-0.075-0.393-0.177c-0.091-0.104-0.136-0.242-0.136-0.416
					c0-0.175,0.049-0.314,0.146-0.417c0.098-0.102,0.218-0.153,0.363-0.153c0.073,0,0.146,0.016,0.216,0.045s0.146,0.079,0.224,0.15
					c0.078,0.069,0.186,0.185,0.321,0.346c0.113,0.135,0.19,0.221,0.23,0.259c0.04,0.039,0.08,0.071,0.121,0.096L-76.66-81.6
					L-76.66-81.6z"/>
				<path fill="#808080" d="M-76.445-82.563h-0.438v0.794h-0.205l-1.186-0.836v-0.183h1.186v-0.247h0.205v0.247h0.438V-82.563z
					 M-77.088-82.563h-0.824l0.824,0.573V-82.563z"/>
				<path fill="#808080" d="M-76.445-83.878l-1.829,0.709v-0.262l1.33-0.476c0.105-0.038,0.206-0.07,0.3-0.096
					c-0.1-0.029-0.199-0.061-0.3-0.099l-1.33-0.494v-0.247l1.829,0.716V-83.878z"/>
				<path fill="#808080" d="M-76.445-85.06h-1.829v-0.629c0-0.143,0.009-0.252,0.026-0.326c0.024-0.105,0.068-0.194,0.131-0.268
					c0.082-0.096,0.186-0.168,0.313-0.217c0.127-0.048,0.272-0.071,0.435-0.071c0.14,0,0.263,0.016,0.37,0.048
					c0.106,0.032,0.197,0.074,0.267,0.125c0.069,0.05,0.125,0.107,0.165,0.167c0.041,0.061,0.072,0.132,0.093,0.218
					c0.021,0.085,0.03,0.183,0.03,0.294V-85.06z M-76.66-85.302v-0.39c0-0.121-0.011-0.214-0.033-0.284
					c-0.022-0.069-0.055-0.124-0.095-0.164c-0.058-0.058-0.135-0.102-0.231-0.135c-0.096-0.032-0.215-0.048-0.353-0.048
					c-0.191,0-0.339,0.031-0.441,0.094c-0.102,0.063-0.171,0.14-0.206,0.23c-0.025,0.065-0.038,0.168-0.038,0.313v0.384
					L-76.66-85.302L-76.66-85.302z"/>
				<path fill="#808080" d="M-77.085-88.211l0.062-0.242c0.198,0.05,0.35,0.142,0.454,0.274c0.104,0.132,0.156,0.293,0.156,0.483
					c0,0.197-0.04,0.358-0.12,0.481c-0.079,0.123-0.196,0.217-0.35,0.282c-0.151,0.064-0.314,0.096-0.489,0.096
					c-0.19,0-0.357-0.036-0.5-0.109c-0.142-0.072-0.25-0.176-0.323-0.311c-0.074-0.134-0.11-0.282-0.11-0.443
					c0-0.183,0.047-0.337,0.14-0.461c0.093-0.126,0.224-0.212,0.394-0.261l0.056,0.238c-0.134,0.042-0.23,0.104-0.291,0.185
					c-0.061,0.08-0.091,0.183-0.091,0.305c0,0.14,0.033,0.258,0.101,0.352c0.067,0.095,0.159,0.161,0.271,0.199
					c0.114,0.038,0.231,0.058,0.353,0.058c0.155,0,0.29-0.023,0.406-0.068c0.117-0.045,0.204-0.116,0.262-0.211
					c0.057-0.096,0.085-0.2,0.085-0.312c0-0.135-0.039-0.25-0.116-0.344C-76.816-88.115-76.931-88.178-77.085-88.211z"/>
				<path fill="#808080" d="M-76.993-88.636h-0.226v-0.69h0.226V-88.636z"/>
				<path fill="#808080" d="M-76.445-90.357v0.225h-1.431c0.051,0.054,0.104,0.125,0.154,0.213c0.053,0.087,0.092,0.167,0.117,0.236
					h-0.217c-0.06-0.125-0.131-0.235-0.215-0.329c-0.084-0.094-0.166-0.161-0.245-0.2v-0.146H-76.445z"/>
				<path fill="#808080" d="M-76.445-90.878h-0.225l-1.172-0.938c-0.082-0.066-0.155-0.13-0.216-0.19v1.021h-0.216v-1.31h0.216
					l1.269,1.027l0.129,0.111v-1.168h0.216L-76.445-90.878L-76.445-90.878z"/>
				<path fill="#808080" d="M-73.49-78.057l-0.034-0.258c0.146-0.03,0.251-0.08,0.314-0.15c0.064-0.071,0.097-0.157,0.097-0.258
					c0-0.121-0.042-0.223-0.125-0.306c-0.085-0.083-0.188-0.125-0.312-0.125c-0.118,0-0.216,0.039-0.292,0.115
					c-0.076,0.077-0.114,0.176-0.114,0.294c0,0.048,0.011,0.109,0.028,0.181l-0.226-0.028c0.002-0.017,0.003-0.031,0.003-0.042
					c0-0.11-0.028-0.208-0.085-0.295c-0.058-0.087-0.146-0.131-0.265-0.131c-0.094,0-0.172,0.032-0.232,0.096
					c-0.062,0.064-0.093,0.146-0.093,0.247s0.031,0.183,0.094,0.25c0.063,0.067,0.157,0.11,0.282,0.128l-0.046,0.257
					c-0.172-0.031-0.306-0.104-0.4-0.214c-0.095-0.111-0.142-0.25-0.142-0.415c0-0.114,0.024-0.219,0.074-0.315
					c0.05-0.097,0.116-0.17,0.2-0.221c0.083-0.05,0.173-0.076,0.27-0.076c0.089,0,0.172,0.024,0.247,0.073
					c0.074,0.049,0.132,0.121,0.176,0.215c0.028-0.123,0.088-0.219,0.178-0.288c0.09-0.068,0.202-0.103,0.337-0.103
					c0.183,0,0.338,0.066,0.465,0.199c0.127,0.132,0.19,0.302,0.19,0.505c0,0.183-0.054,0.336-0.164,0.457
					S-73.317-78.075-73.49-78.057z"/>
				<path fill="#808080" d="M-73.969-79.681c-0.247,0-0.446-0.026-0.598-0.076c-0.15-0.051-0.267-0.126-0.349-0.228
					c-0.082-0.101-0.122-0.226-0.122-0.379c0-0.112,0.021-0.211,0.067-0.295c0.045-0.084,0.11-0.154,0.195-0.21
					c0.086-0.056,0.189-0.098,0.312-0.13c0.121-0.031,0.288-0.047,0.494-0.047c0.246,0,0.443,0.025,0.594,0.076
					s0.268,0.125,0.351,0.226c0.082,0.102,0.123,0.228,0.123,0.381c0,0.201-0.073,0.36-0.217,0.474
					C-73.294-79.749-73.577-79.681-73.969-79.681z M-73.969-79.944c0.344,0,0.571-0.041,0.685-0.121
					c0.113-0.081,0.17-0.18,0.17-0.297s-0.057-0.217-0.171-0.297s-0.342-0.121-0.685-0.121c-0.345,0-0.573,0.04-0.687,0.121
					c-0.112,0.081-0.169,0.18-0.169,0.3c0,0.118,0.05,0.212,0.149,0.282C-74.548-79.989-74.314-79.944-73.969-79.944z"/>
				<path fill="#808080" d="M-72.938-82.006l-2.092,0.809v-0.299l1.52-0.543c0.121-0.044,0.235-0.081,0.343-0.11
					c-0.114-0.032-0.229-0.07-0.343-0.112l-1.52-0.564v-0.282l2.092,0.818V-82.006z"/>
				<path fill="#808080" d="M-72.938-83.358h-2.092v-0.72c0-0.164,0.011-0.288,0.03-0.373c0.027-0.12,0.076-0.222,0.15-0.307
					c0.092-0.11,0.212-0.193,0.356-0.248c0.145-0.055,0.311-0.082,0.497-0.082c0.159,0,0.3,0.018,0.423,0.055
					c0.122,0.038,0.224,0.085,0.305,0.143c0.079,0.058,0.143,0.122,0.189,0.19c0.047,0.069,0.08,0.152,0.104,0.25
					c0.025,0.099,0.037,0.21,0.037,0.337L-72.938-83.358L-72.938-83.358z M-73.186-83.635v-0.446c0-0.139-0.013-0.246-0.038-0.325
					c-0.025-0.078-0.062-0.141-0.107-0.188c-0.066-0.065-0.154-0.117-0.265-0.153c-0.111-0.036-0.245-0.055-0.403-0.055
					c-0.218,0-0.387,0.036-0.504,0.107c-0.118,0.072-0.196,0.16-0.236,0.262c-0.028,0.075-0.043,0.193-0.043,0.358v0.439H-73.186z"
					/>
				<path fill="#808080" d="M-73.672-86.96l0.071-0.277c0.227,0.059,0.4,0.162,0.52,0.313c0.119,0.151,0.179,0.334,0.179,0.553
					c0,0.226-0.046,0.409-0.138,0.55c-0.091,0.141-0.225,0.249-0.398,0.322c-0.174,0.074-0.36,0.11-0.561,0.11
					c-0.218,0-0.408-0.042-0.57-0.125c-0.161-0.083-0.285-0.201-0.369-0.354s-0.126-0.323-0.126-0.507
					c0-0.209,0.052-0.384,0.16-0.528c0.106-0.144,0.256-0.242,0.449-0.298l0.063,0.272c-0.152,0.048-0.262,0.119-0.332,0.211
					s-0.104,0.208-0.104,0.348c0,0.161,0.039,0.295,0.115,0.403c0.077,0.108,0.181,0.184,0.311,0.228
					c0.13,0.045,0.263,0.066,0.402,0.066c0.178,0,0.333-0.026,0.465-0.077c0.133-0.051,0.232-0.133,0.298-0.242
					c0.065-0.11,0.099-0.229,0.099-0.355c0-0.155-0.044-0.286-0.134-0.394C-73.363-86.847-73.496-86.921-73.672-86.96z"/>
				<path fill="#808080" d="M-72.938-88.44v0.257h-1.637c0.059,0.062,0.119,0.144,0.178,0.243c0.058,0.1,0.103,0.19,0.132,0.271
					h-0.248c-0.066-0.144-0.149-0.27-0.245-0.377c-0.096-0.107-0.189-0.183-0.279-0.228v-0.166L-72.938-88.44L-72.938-88.44z"/>
				<path fill="#808080" d="M-73.969-89.097c-0.247,0-0.446-0.026-0.598-0.077c-0.15-0.05-0.267-0.126-0.349-0.227
					c-0.082-0.101-0.122-0.227-0.122-0.379c0-0.112,0.021-0.211,0.067-0.294c0.045-0.084,0.11-0.154,0.195-0.21
					c0.086-0.056,0.189-0.098,0.312-0.13c0.121-0.031,0.288-0.046,0.494-0.046c0.246,0,0.443,0.026,0.594,0.076
					c0.15,0.051,0.268,0.126,0.351,0.227c0.082,0.101,0.123,0.227,0.123,0.38c0,0.202-0.073,0.36-0.217,0.475
					C-73.294-89.166-73.577-89.097-73.969-89.097z M-73.969-89.362c0.344,0,0.571-0.04,0.685-0.121s0.17-0.18,0.17-0.297
					s-0.057-0.217-0.171-0.297c-0.114-0.081-0.342-0.121-0.685-0.121c-0.345,0-0.573,0.04-0.687,0.121
					c-0.112,0.08-0.169,0.18-0.169,0.3c0,0.118,0.05,0.212,0.149,0.283C-74.548-89.405-74.314-89.362-73.969-89.362z"/>
				<path fill="#808080" d="M-72.938-90.597L-75.03-91.4v-0.298l2.092-0.856v0.315l-0.634,0.244v0.874l0.634,0.229V-90.597z
					 M-73.797-91.2v-0.71l-0.579,0.218c-0.175,0.067-0.32,0.116-0.434,0.148c0.134,0.027,0.267,0.064,0.399,0.113L-73.797-91.2z"/>
				<path fill="#808080" d="M-69.679-72.473h0.247v1.382c-0.062,0.001-0.121-0.009-0.179-0.03c-0.094-0.036-0.187-0.091-0.277-0.168
					c-0.092-0.078-0.198-0.189-0.317-0.336c-0.188-0.228-0.335-0.381-0.443-0.461c-0.108-0.08-0.211-0.12-0.308-0.12
					c-0.104,0-0.188,0.036-0.26,0.108c-0.069,0.073-0.104,0.167-0.104,0.285c0,0.124,0.037,0.223,0.11,0.296
					c0.074,0.074,0.177,0.111,0.309,0.113l-0.026,0.264c-0.198-0.019-0.349-0.085-0.451-0.204c-0.104-0.119-0.154-0.277-0.154-0.475
					c0-0.201,0.056-0.359,0.167-0.476c0.112-0.117,0.249-0.176,0.414-0.176c0.083,0,0.165,0.017,0.246,0.051
					c0.081,0.035,0.166,0.091,0.256,0.17c0.089,0.079,0.212,0.212,0.368,0.396c0.13,0.154,0.217,0.253,0.262,0.296
					c0.047,0.045,0.093,0.08,0.141,0.108V-72.473L-69.679-72.473z"/>
				<path fill="#808080" d="M-69.679-74.097h0.247v1.382c-0.062,0.001-0.121-0.009-0.179-0.03c-0.094-0.036-0.187-0.092-0.277-0.168
					c-0.092-0.078-0.198-0.19-0.317-0.336c-0.188-0.228-0.335-0.381-0.443-0.461c-0.108-0.079-0.211-0.12-0.308-0.12
					c-0.104,0-0.188,0.037-0.26,0.109c-0.069,0.072-0.104,0.167-0.104,0.285c0,0.124,0.037,0.223,0.11,0.296
					c0.074,0.074,0.177,0.111,0.309,0.113l-0.026,0.264c-0.198-0.019-0.349-0.086-0.451-0.204c-0.104-0.119-0.154-0.277-0.154-0.475
					c0-0.201,0.056-0.359,0.167-0.476c0.112-0.117,0.249-0.176,0.414-0.176c0.083,0,0.165,0.017,0.246,0.051
					c0.081,0.035,0.166,0.091,0.256,0.17c0.089,0.079,0.212,0.212,0.368,0.396c0.13,0.154,0.217,0.252,0.262,0.296
					c0.047,0.044,0.093,0.08,0.141,0.108V-74.097L-69.679-74.097z"/>
				<path fill="#808080" d="M-70.464-74.372c-0.247,0-0.446-0.025-0.598-0.076c-0.15-0.051-0.267-0.126-0.348-0.227
					c-0.082-0.102-0.123-0.227-0.123-0.38c0-0.112,0.021-0.211,0.067-0.295c0.046-0.083,0.11-0.154,0.195-0.209
					c0.086-0.056,0.189-0.099,0.312-0.131c0.123-0.031,0.287-0.046,0.495-0.046c0.245,0,0.442,0.025,0.594,0.075
					c0.15,0.05,0.267,0.125,0.35,0.227c0.083,0.101,0.124,0.228,0.124,0.38c0,0.201-0.072,0.36-0.217,0.475
					C-69.787-74.441-70.072-74.372-70.464-74.372z M-70.464-74.636c0.344,0,0.571-0.04,0.685-0.121
					c0.114-0.081,0.172-0.179,0.172-0.297c0-0.119-0.058-0.217-0.172-0.297c-0.113-0.08-0.342-0.12-0.685-0.12
					c-0.344,0-0.573,0.04-0.686,0.12c-0.113,0.081-0.169,0.18-0.169,0.3c0,0.118,0.049,0.212,0.149,0.283
					C-71.043-74.681-70.807-74.636-70.464-74.636z"/>
				<path fill="#808080" d="M-69.397-75.876l-2.163-0.606v-0.205l2.163,0.604V-75.876z"/>
				<path fill="#808080" d="M-69.679-78.159h0.247v1.383c-0.062,0.001-0.121-0.009-0.179-0.03c-0.094-0.036-0.187-0.091-0.277-0.169
					c-0.092-0.077-0.198-0.189-0.317-0.336c-0.188-0.227-0.335-0.38-0.443-0.46c-0.108-0.08-0.211-0.12-0.308-0.12
					c-0.104,0-0.188,0.037-0.26,0.109c-0.069,0.072-0.104,0.167-0.104,0.285c0,0.123,0.037,0.222,0.11,0.296
					c0.074,0.074,0.177,0.111,0.309,0.112l-0.026,0.264c-0.198-0.019-0.349-0.085-0.451-0.204c-0.104-0.118-0.154-0.276-0.154-0.474
					c0-0.201,0.056-0.359,0.167-0.477c0.112-0.117,0.249-0.175,0.414-0.175c0.083,0,0.165,0.017,0.246,0.051s0.166,0.091,0.256,0.17
					c0.089,0.079,0.212,0.212,0.368,0.396c0.13,0.154,0.217,0.252,0.262,0.296c0.047,0.044,0.093,0.08,0.141,0.108V-78.159
					L-69.679-78.159z"/>
				<path fill="#808080" d="M-69.981-78.434l-0.022-0.27c0.131-0.02,0.229-0.066,0.295-0.139c0.066-0.073,0.101-0.161,0.101-0.263
					c0-0.123-0.047-0.228-0.14-0.313c-0.094-0.086-0.217-0.128-0.371-0.128c-0.147,0-0.262,0.041-0.347,0.123
					c-0.085,0.082-0.127,0.19-0.127,0.323c0,0.083,0.018,0.157,0.056,0.225c0.037,0.066,0.086,0.118,0.146,0.157l-0.031,0.241
					l-1.074-0.203v-1.04h0.246v0.834l0.563,0.113c-0.088-0.125-0.132-0.257-0.132-0.395c0-0.183,0.063-0.337,0.189-0.462
					s0.29-0.188,0.488-0.188c0.189,0,0.352,0.055,0.491,0.166c0.168,0.134,0.254,0.316,0.254,0.549c0,0.19-0.054,0.345-0.16,0.466
					C-69.663-78.519-69.804-78.451-69.981-78.434z"/>
				<path fill="#808080" d="M-70.464-80.058c-0.247,0-0.446-0.026-0.598-0.076c-0.15-0.051-0.267-0.126-0.348-0.227
					c-0.082-0.101-0.123-0.227-0.123-0.379c0-0.112,0.021-0.211,0.067-0.294c0.046-0.085,0.11-0.154,0.195-0.21
					c0.086-0.055,0.189-0.098,0.312-0.13c0.123-0.031,0.287-0.046,0.495-0.046c0.245,0,0.442,0.026,0.594,0.076
					c0.15,0.051,0.267,0.126,0.35,0.227s0.124,0.227,0.124,0.38c0,0.202-0.072,0.36-0.217,0.475
					C-69.787-80.128-70.072-80.058-70.464-80.058z M-70.464-80.323c0.344,0,0.571-0.04,0.685-0.121
					c0.114-0.08,0.172-0.18,0.172-0.297c0-0.117-0.058-0.217-0.172-0.297c-0.113-0.081-0.342-0.12-0.685-0.12
					c-0.344,0-0.573,0.04-0.686,0.12c-0.113,0.08-0.169,0.181-0.169,0.3c0,0.118,0.049,0.212,0.149,0.283
					C-71.043-80.366-70.807-80.323-70.464-80.323z"/>
				<path fill="#808080" d="M-69.433-82.385l-2.091,0.81v-0.299l1.52-0.543c0.121-0.043,0.235-0.08,0.342-0.109
					c-0.114-0.032-0.229-0.07-0.342-0.113l-1.52-0.564v-0.283l2.091,0.819V-82.385z"/>
				<path fill="#808080" d="M-69.433-83.289l-2.091-0.804v-0.298l2.091-0.855v0.316l-0.633,0.244v0.874l0.633,0.229V-83.289z
					 M-70.29-83.892v-0.71l-0.579,0.219c-0.177,0.066-0.321,0.115-0.435,0.148c0.135,0.026,0.267,0.064,0.399,0.112L-70.29-83.892z"
					/>
				<path fill="#808080" d="M-70.165-86.96l0.07-0.277c0.228,0.059,0.4,0.162,0.52,0.313c0.119,0.151,0.18,0.334,0.18,0.553
					c0,0.226-0.047,0.409-0.139,0.55c-0.092,0.141-0.224,0.249-0.398,0.322c-0.173,0.074-0.359,0.11-0.561,0.11
					c-0.218,0-0.407-0.042-0.57-0.125c-0.162-0.083-0.285-0.201-0.369-0.354s-0.126-0.323-0.126-0.507
					c0-0.209,0.053-0.384,0.16-0.528c0.106-0.143,0.257-0.242,0.449-0.298l0.064,0.272c-0.153,0.048-0.264,0.119-0.333,0.211
					s-0.104,0.208-0.104,0.348c0,0.161,0.038,0.295,0.115,0.403c0.076,0.108,0.179,0.184,0.31,0.228
					c0.13,0.045,0.263,0.066,0.402,0.066c0.178,0,0.332-0.026,0.465-0.077c0.134-0.051,0.232-0.133,0.298-0.242
					c0.066-0.11,0.099-0.229,0.099-0.355c0-0.155-0.045-0.286-0.134-0.394C-69.858-86.849-69.99-86.921-70.165-86.96z"/>
				<path fill="#808080" d="M-69.433-88.44v0.257h-1.636c0.059,0.062,0.117,0.144,0.177,0.243c0.059,0.1,0.103,0.19,0.133,0.271
					h-0.248c-0.068-0.144-0.15-0.27-0.245-0.377c-0.097-0.107-0.19-0.183-0.28-0.228v-0.166L-69.433-88.44L-69.433-88.44z"/>
				<path fill="#808080" d="M-70.464-89.097c-0.247,0-0.446-0.026-0.598-0.077c-0.15-0.05-0.267-0.126-0.348-0.227
					c-0.082-0.1-0.123-0.227-0.123-0.379c0-0.112,0.021-0.211,0.067-0.294c0.046-0.085,0.11-0.154,0.195-0.21
					c0.086-0.056,0.189-0.098,0.312-0.13c0.123-0.031,0.287-0.046,0.495-0.046c0.245,0,0.442,0.026,0.594,0.076
					c0.15,0.051,0.267,0.126,0.35,0.227c0.083,0.1,0.124,0.227,0.124,0.38c0,0.202-0.072,0.36-0.217,0.475
					C-69.787-89.166-70.072-89.097-70.464-89.097z M-70.464-89.362c0.344,0,0.571-0.04,0.685-0.121
					c0.114-0.081,0.172-0.18,0.172-0.297s-0.058-0.217-0.172-0.297c-0.113-0.081-0.342-0.121-0.685-0.121
					c-0.344,0-0.573,0.04-0.686,0.121c-0.113,0.08-0.169,0.18-0.169,0.3c0,0.118,0.049,0.212,0.149,0.283
					C-71.043-89.405-70.807-89.362-70.464-89.362z"/>
				<path fill="#808080" d="M-69.433-90.597l-2.091-0.803v-0.298l2.091-0.856v0.315l-0.633,0.244v0.874l0.633,0.229V-90.597z
					 M-70.29-91.2v-0.71l-0.579,0.218c-0.177,0.067-0.321,0.116-0.435,0.148c0.135,0.027,0.267,0.064,0.399,0.113L-70.29-91.2z"/>
			</g>
			<g>
				<path fill="#808080" d="M-77.188-72.54c0-0.158,0.041-0.313,0.122-0.463c0.081-0.151,0.197-0.268,0.349-0.353
					c0.151-0.084,0.309-0.125,0.472-0.125s0.318,0.042,0.468,0.124c0.15,0.083,0.267,0.198,0.351,0.348
					c0.083,0.15,0.124,0.306,0.124,0.469c0,0.164-0.042,0.319-0.124,0.469c-0.083,0.149-0.2,0.265-0.351,0.35
					c-0.149,0.082-0.305,0.124-0.468,0.124c-0.164,0-0.32-0.042-0.472-0.127c-0.151-0.084-0.267-0.201-0.349-0.352
					C-77.147-72.228-77.188-72.383-77.188-72.54z M-77.031-72.54c0,0.132,0.034,0.26,0.102,0.386
					c0.068,0.125,0.166,0.224,0.291,0.293c0.126,0.072,0.257,0.107,0.394,0.107c0.136,0,0.266-0.035,0.391-0.104
					c0.125-0.07,0.221-0.167,0.289-0.292c0.071-0.124,0.105-0.255,0.105-0.39c0-0.135-0.034-0.266-0.105-0.39
					c-0.069-0.125-0.165-0.223-0.289-0.291c-0.125-0.07-0.256-0.104-0.391-0.104c-0.138,0-0.268,0.036-0.394,0.106
					c-0.126,0.07-0.224,0.167-0.291,0.293S-77.031-72.672-77.031-72.54z M-75.725-72.128h-1.014v-0.348
					c0-0.119,0.01-0.205,0.028-0.259c0.018-0.053,0.051-0.096,0.099-0.127c0.046-0.032,0.096-0.048,0.148-0.048
					c0.074,0,0.138,0.027,0.193,0.079c0.056,0.053,0.085,0.123,0.092,0.21c0.016-0.036,0.032-0.064,0.054-0.086
					c0.04-0.041,0.106-0.09,0.201-0.149l0.198-0.124v0.199l-0.16,0.09c-0.125,0.071-0.204,0.128-0.236,0.171
					c-0.023,0.03-0.034,0.074-0.034,0.131v0.096h0.431V-72.128L-75.725-72.128z M-76.295-72.291v-0.198
					c0-0.095-0.015-0.16-0.043-0.194c-0.027-0.034-0.065-0.052-0.111-0.052c-0.03,0-0.057,0.009-0.08,0.025s-0.042,0.04-0.053,0.07
					c-0.012,0.03-0.018,0.083-0.018,0.164v0.186L-76.295-72.291L-76.295-72.291z"/>
				<path fill="#808080" d="M-74.966-72.159v-0.242h1.058c0.184,0,0.331,0.021,0.438,0.062c0.107,0.042,0.197,0.117,0.264,0.226
					c0.067,0.108,0.103,0.251,0.103,0.428c0,0.171-0.03,0.311-0.089,0.421c-0.06,0.107-0.145,0.187-0.257,0.231
					c-0.112,0.047-0.266,0.071-0.459,0.071h-1.058v-0.241h1.057c0.159,0,0.276-0.016,0.351-0.045
					c0.076-0.029,0.134-0.08,0.175-0.152c0.04-0.073,0.061-0.16,0.061-0.263c0-0.178-0.04-0.305-0.121-0.381
					s-0.236-0.114-0.466-0.114L-74.966-72.159L-74.966-72.159z"/>
				<path fill="#808080" d="M-73.723-72.721l-0.021-0.229c0.092-0.011,0.168-0.036,0.227-0.076c0.058-0.04,0.105-0.101,0.141-0.184
					c0.037-0.084,0.056-0.177,0.056-0.281c0-0.093-0.015-0.174-0.042-0.245c-0.027-0.071-0.066-0.123-0.113-0.159
					c-0.048-0.035-0.1-0.051-0.156-0.051c-0.058,0-0.108,0.017-0.151,0.049c-0.043,0.034-0.078,0.088-0.106,0.166
					c-0.02,0.048-0.05,0.157-0.09,0.325c-0.04,0.168-0.078,0.287-0.113,0.354c-0.047,0.087-0.104,0.153-0.171,0.196
					c-0.067,0.043-0.144,0.064-0.228,0.064c-0.094,0-0.179-0.027-0.26-0.078c-0.08-0.053-0.141-0.13-0.183-0.229
					c-0.041-0.102-0.063-0.213-0.063-0.337c0-0.135,0.022-0.255,0.065-0.357c0.045-0.104,0.108-0.184,0.193-0.239
					c0.086-0.056,0.181-0.086,0.29-0.09l0.017,0.231c-0.115,0.014-0.203,0.054-0.263,0.128c-0.058,0.071-0.088,0.177-0.088,0.318
					c0,0.147,0.027,0.254,0.08,0.321c0.053,0.066,0.119,0.1,0.194,0.1c0.065,0,0.12-0.023,0.162-0.071
					c0.043-0.046,0.086-0.168,0.132-0.365c0.044-0.198,0.082-0.331,0.115-0.406c0.05-0.105,0.111-0.185,0.188-0.235
					c0.075-0.05,0.162-0.076,0.26-0.076c0.097,0,0.188,0.027,0.275,0.083c0.086,0.056,0.152,0.136,0.2,0.241
					c0.047,0.104,0.072,0.221,0.072,0.352c0,0.167-0.024,0.304-0.072,0.417c-0.049,0.111-0.121,0.199-0.218,0.263
					C-73.491-72.758-73.601-72.724-73.723-72.721z"/>
			</g>
			<g>
				<g>
					<g>
						<path fill="#808080" d="M-77.291-62.808c-0.076,0-0.151-0.026-0.21-0.076c-0.076-0.063-0.121-0.155-0.121-0.255v-2.256
							c0-0.172,0.131-0.314,0.303-0.33l3.631-0.305v-1.119c0-0.009,0-0.021-0.027-0.048c-0.114-0.11-0.407-0.174-0.556-0.169
							l-2.995,0.238c-0.182,0.014-0.341-0.121-0.354-0.304c-0.016-0.182,0.122-0.341,0.303-0.354l3.012-0.238
							c0.277-0.009,0.766,0.077,1.05,0.354c0.148,0.145,0.229,0.324,0.229,0.521v1.423c0,0.172-0.133,0.315-0.303,0.33l-1.704,0.142
							l1.885,1.528c0.141,0.114,0.163,0.322,0.048,0.465c-0.115,0.142-0.321,0.164-0.465,0.048l-1.718-1.392v1.135
							c0,0.158-0.111,0.294-0.267,0.324l-1.677,0.33C-77.25-62.81-77.271-62.808-77.291-62.808z M-76.962-65.09v1.552l1.018-0.202
							v-1.435L-76.962-65.09z"/>
					</g>
				</g>
			</g>
			<g>
				<path fill="#808080" d="M-70.571-63.139c-0.039,0.106-0.095,0.186-0.167,0.236c-0.073,0.051-0.158,0.076-0.26,0.076
					c-0.152,0-0.279-0.054-0.383-0.164c-0.104-0.109-0.155-0.256-0.155-0.437c0-0.183,0.053-0.33,0.159-0.441
					c0.105-0.111,0.234-0.167,0.387-0.167c0.097,0,0.182,0.025,0.254,0.076c0.071,0.05,0.127,0.128,0.165,0.23
					c0.043-0.128,0.11-0.226,0.203-0.292c0.094-0.067,0.204-0.102,0.334-0.102c0.179,0,0.329,0.063,0.45,0.19
					c0.122,0.127,0.183,0.292,0.183,0.5c0,0.207-0.061,0.372-0.183,0.5c-0.122,0.127-0.275,0.189-0.458,0.189
					c-0.136,0-0.249-0.034-0.341-0.104C-70.474-62.914-70.537-63.012-70.571-63.139z M-71.006-63.088c0.1,0,0.18-0.032,0.243-0.096
					c0.063-0.064,0.094-0.147,0.094-0.248c0-0.099-0.03-0.18-0.093-0.243s-0.139-0.096-0.229-0.096
					c-0.095,0-0.173,0.033-0.237,0.098c-0.064,0.065-0.097,0.146-0.097,0.243c0,0.099,0.031,0.181,0.094,0.244
					C-71.168-63.121-71.093-63.088-71.006-63.088z M-70.04-63.006c0.073,0,0.145-0.016,0.213-0.052
					c0.068-0.035,0.122-0.086,0.159-0.154c0.037-0.069,0.056-0.143,0.056-0.222c0-0.123-0.039-0.224-0.118-0.304
					c-0.078-0.08-0.179-0.12-0.301-0.12c-0.124,0-0.226,0.042-0.307,0.124s-0.121,0.185-0.121,0.309c0,0.121,0.04,0.222,0.119,0.3
					C-70.26-63.046-70.16-63.006-70.04-63.006z"/>
				<path fill="#808080" d="M-69.984-64.37l-0.023-0.269c0.132-0.021,0.23-0.067,0.297-0.14c0.065-0.072,0.099-0.16,0.099-0.263
					c0-0.124-0.046-0.229-0.14-0.314c-0.093-0.085-0.217-0.128-0.371-0.128c-0.146,0-0.261,0.041-0.347,0.123
					c-0.084,0.082-0.127,0.19-0.127,0.322c0,0.083,0.019,0.158,0.057,0.225c0.038,0.067,0.085,0.119,0.146,0.157l-0.031,0.241
					l-1.074-0.203v-1.039h0.245v0.834l0.563,0.113c-0.087-0.126-0.132-0.257-0.132-0.396c0-0.183,0.063-0.337,0.189-0.462
					c0.127-0.126,0.29-0.188,0.488-0.188c0.19,0,0.354,0.056,0.49,0.165c0.17,0.135,0.255,0.317,0.255,0.55
					c0,0.19-0.053,0.346-0.159,0.466C-69.667-64.454-69.809-64.386-69.984-64.37z"/>
				<path fill="#808080" d="M-71.168-66.055c-0.108,0-0.202-0.038-0.279-0.116c-0.077-0.077-0.115-0.17-0.115-0.278
					c0-0.11,0.038-0.204,0.115-0.281c0.076-0.078,0.17-0.115,0.279-0.115s0.203,0.038,0.281,0.116
					c0.077,0.076,0.116,0.169,0.116,0.28c0,0.108-0.039,0.201-0.116,0.278C-70.964-66.093-71.058-66.055-71.168-66.055z
					 M-71.168-66.21c0.067,0,0.124-0.023,0.171-0.07c0.047-0.048,0.07-0.104,0.07-0.171c0-0.065-0.022-0.122-0.07-0.169
					c-0.047-0.046-0.104-0.07-0.171-0.07c-0.065,0-0.122,0.023-0.169,0.07c-0.047,0.048-0.071,0.104-0.071,0.169
					c0,0.067,0.023,0.123,0.071,0.171C-71.289-66.235-71.234-66.21-71.168-66.21z"/>
				<path fill="#808080" d="M-70.169-68.758l0.069-0.277c0.228,0.059,0.401,0.163,0.521,0.313c0.119,0.15,0.178,0.334,0.178,0.553
					c0,0.226-0.046,0.409-0.138,0.551c-0.092,0.14-0.226,0.248-0.399,0.321s-0.36,0.11-0.561,0.11c-0.218,0-0.408-0.042-0.569-0.125
					c-0.162-0.083-0.285-0.201-0.369-0.354s-0.127-0.323-0.127-0.508c0-0.209,0.053-0.384,0.16-0.527
					c0.105-0.143,0.257-0.242,0.449-0.298l0.064,0.272c-0.152,0.048-0.263,0.118-0.333,0.211c-0.069,0.093-0.104,0.208-0.104,0.348
					c0,0.162,0.038,0.296,0.114,0.404c0.077,0.107,0.182,0.183,0.312,0.228s0.263,0.065,0.401,0.065
					c0.178,0,0.334-0.025,0.466-0.077c0.133-0.052,0.231-0.133,0.297-0.242s0.099-0.229,0.099-0.354
					c0-0.156-0.044-0.287-0.134-0.395C-69.861-68.647-69.993-68.72-70.169-68.758z"/>
			</g>
			<g>
				<path d="M-88.9-45.953c0,0.401,0.329,0.73,0.73,0.73h19.662c0.401,0,0.73-0.329,0.73-0.73v0.103c0,0.401-0.329,0.73-0.73,0.73
					H-88.17c-0.401,0-0.73-0.329-0.73-0.73V-45.953z"/>
				<path fill="#FFFFFF" fill-opacity="0.3" d="M-88.9-95.968c0-0.401,0.329-0.73,0.73-0.73h19.662c0.401,0,0.73,0.329,0.73,0.73
					v-0.098c0-0.402-0.329-0.73-0.73-0.73H-88.17c-0.401,0-0.73,0.329-0.73,0.73V-95.968z"/>
				<path fill="#FFFFFF" fill-opacity="0.3" d="M-67.778-58.709c0,0.402-0.329,0.73-0.73,0.73H-88.17c-0.401,0-0.73-0.328-0.73-0.73
					v-0.098c0,0.401,0.329,0.73,0.73,0.73h19.662c0.401,0,0.73-0.329,0.73-0.73V-58.709z"/>
			</g>
		</g>
	</g>
	<g transform="translate(184.882,1134.05)">
		<rect id="connector0pin" x="-171.571" y="-1066.798" fill="#8D8C8C" width="2.299" height="2.296"/>
		<rect x="-171.009" y="-1066.242" fill="#8C8663" width="1.184" height="1.182"/>
		<polygon fill="#B8AF82" points="-171.571,-1064.502 -171.009,-1065.061 -171.009,-1066.296 -171.571,-1066.798 		"/>
		<polygon fill="#80795B" points="-169.828,-1066.24 -171.001,-1066.24 -171.571,-1066.798 -169.272,-1066.798 		"/>
		<polygon fill="#5E5B43" points="-169.828,-1065.061 -169.828,-1066.24 -169.272,-1066.798 -169.272,-1064.502 		"/>
		<polygon fill="#9A916C" points="-171.571,-1064.502 -171.003,-1065.061 -169.828,-1065.061 -169.272,-1064.502 		"/>
	</g>
	<g transform="translate(284.882,1134.05)">
		<rect id="connector1pin" x="-264.37" y="-1066.798" fill="#8D8C8C" width="2.299" height="2.296"/>
		<rect x="-263.81" y="-1066.242" fill="#8C8663" width="1.185" height="1.182"/>
		<polygon fill="#B8AF82" points="-264.37,-1064.502 -263.81,-1065.061 -263.81,-1066.296 -264.37,-1066.798 		"/>
		<polygon fill="#80795B" points="-262.627,-1066.24 -263.801,-1066.24 -264.37,-1066.798 -262.072,-1066.798 		"/>
		<polygon fill="#5E5B43" points="-262.627,-1065.061 -262.627,-1066.24 -262.072,-1066.798 -262.072,-1064.502 		"/>
		<polygon fill="#9A916C" points="-264.37,-1064.502 -263.803,-1065.061 -262.627,-1065.061 -262.072,-1064.502 		"/>
	</g>
	<g transform="translate(284.882,34.05)">
		<rect id="connector4pin" x="-264.37" y="-31.598" fill="#8D8C8C" width="2.299" height="2.297"/>
		<rect x="-263.81" y="-31.041" fill="#8C8663" width="1.185" height="1.182"/>
		<polygon fill="#B8AF82" points="-264.37,-29.301 -263.81,-29.861 -263.81,-31.096 -264.37,-31.598 		"/>
		<polygon fill="#80795B" points="-262.627,-31.039 -263.801,-31.039 -264.37,-31.598 -262.072,-31.598 		"/>
		<polygon fill="#5E5B43" points="-262.627,-29.861 -262.627,-31.039 -262.072,-31.598 -262.072,-29.301 		"/>
		<polygon fill="#9A916C" points="-264.37,-29.301 -263.803,-29.861 -262.627,-29.861 -262.072,-29.301 		"/>
	</g>
	<g transform="translate(384.882,1134.05)">
		<rect id="connector2pin" x="-357.17" y="-1066.798" fill="#8D8C8C" width="2.299" height="2.296"/>
		<rect x="-356.61" y="-1066.242" fill="#8C8663" width="1.185" height="1.182"/>
		<polygon fill="#B8AF82" points="-357.17,-1064.502 -356.61,-1065.061 -356.61,-1066.296 -357.17,-1066.798 		"/>
		<polygon fill="#80795B" points="-355.427,-1066.24 -356.602,-1066.24 -357.17,-1066.798 -354.871,-1066.798 		"/>
		<polygon fill="#5E5B43" points="-355.427,-1065.061 -355.427,-1066.24 -354.871,-1066.798 -354.871,-1064.502 		"/>
		<polygon fill="#9A916C" points="-357.17,-1064.502 -356.604,-1065.061 -355.427,-1065.061 -354.871,-1064.502 		"/>
	</g>
	<g transform="translate(384.882,34.05)">
		<rect id="connector3pin" x="-357.17" y="-31.598" fill="#8D8C8C" width="2.299" height="2.297"/>
		<rect x="-356.61" y="-31.041" fill="#8C8663" width="1.185" height="1.182"/>
		<polygon fill="#B8AF82" points="-357.17,-29.301 -356.61,-29.861 -356.61,-31.096 -357.17,-31.598 		"/>
		<polygon fill="#80795B" points="-355.427,-31.039 -356.602,-31.039 -357.17,-31.598 -354.871,-31.598 		"/>
		<polygon fill="#5E5B43" points="-355.427,-29.861 -355.427,-31.039 -354.871,-31.598 -354.871,-29.301 		"/>
		<polygon fill="#9A916C" points="-357.17,-29.301 -356.604,-29.861 -355.427,-29.861 -354.871,-29.301 		"/>
	</g>
</g>
</svg>
