<?xml version="1.0" encoding="utf-8"?>
<!-- Generator: Adobe Illustrator 16.0.0, SVG Export Plug-In . SVG Version: 6.00 Build 0)  -->
<svg version="1.2" baseProfile="tiny" id="Ebene_1" xmlns:svg="http://www.w3.org/2000/svg"
	 xmlns="http://www.w3.org/2000/svg" xmlns:xlink="http://www.w3.org/1999/xlink" x="0px" y="0px" width="57.936px"
	 height="20.586px" viewBox="0 0 57.936 20.586" xml:space="preserve">
<g id="breadboard">
	<circle id="connector0pin" fill="none" cx="5.04" cy="10.293" r="3.097"/>
	<circle id="connector1pin" fill="none" cx="5.041" cy="10.293" r="3.097"/>
	<circle id="connector3pin" fill="none" cx="53.292" cy="10.293" r="3.097"/>
	<circle id="connector2pin" fill="none" cx="53.291" cy="10.293" r="3.097"/>
	<g>
		<path fill="#D2D2D2" fill-opacity="0.5" d="M42.193,18.786c0.385,0,0.752-3.798,0.752-8.481s-0.096-8.07-0.441-8.482
			c0.385,0,0.694,3.799,0.694,8.482s-0.312,8.481-0.694,8.481H42.193z"/>
	</g>
	<g>
		<path fill="#C8C8C8" fill-opacity="0.5" d="M15.81,18.786c0.383,0,0.751-3.798,0.751-8.481s-0.096-8.07-0.441-8.482
			c0.382,0,0.692,3.799,0.692,8.482s-0.312,8.481-0.692,8.481H15.81z"/>
	</g>
	<g>
		<g>
			<path fill="#505050" d="M0.396,20.377c0,0.115,0.094,0.209,0.21,0.209h11.748c0.116,0,0.21-0.094,0.21-0.209V0.21
				c0-0.115-0.094-0.21-0.21-0.21H0.606c-0.116,0-0.21,0.095-0.21,0.21V20.377z"/>
		</g>
		<g>
			<path fill="#505050" d="M45.769,20.377c0,0.115,0.097,0.209,0.21,0.209h11.746c0.115,0,0.21-0.094,0.21-0.209V0.21
				c0-0.115-0.095-0.21-0.21-0.21H45.979c-0.113,0-0.21,0.095-0.21,0.21V20.377z"/>
		</g>
		<g>
			<polygon fill="#7D7D7D" points="45.769,0.58 45.769,19.997 57.12,20.002 57.12,0.586 			"/>
		</g>
		<g>
			<polygon fill="#7D7D7D" points="12.564,19.997 12.564,0.58 1.212,0.585 1.212,20.002 			"/>
		</g>
	</g>
	<g>
		<g>
			<rect x="10.643" y="1.822" fill="#D2D2D2" fill-opacity="0.6" width="36.919" height="16.933"/>
		</g>
		<g>
			<rect x="11.962" y="2.234" fill="#F0F0F0" fill-opacity="0.53" width="34.601" height="15.905"/>
		</g>
		<g>
			<rect x="13.198" y="10.039" fill="#B4B4B4" width="32.559" height="0.5"/>
		</g>
		<g>
			<path fill="#AAAAAA" d="M13.583,1.822v16.933c0,0-9.188,0-10.285,0c-1.096,0-1.737-0.769-1.737-1.827V3.562
				c0-1.095,0.678-1.74,1.737-1.74H13.583z"/>
		</g>
		<g>
			<path fill="#AAAAAA" d="M44.749,18.754V1.821c0,0,9.188,0,10.286,0c1.096,0,1.737,0.767,1.737,1.829v13.366
				c0,1.096-0.68,1.738-1.737,1.738H44.749L44.749,18.754z"/>
		</g>
		<g>
			<path fill-opacity="0.35" d="M3.765,15.633c-0.784,0-1.822-1.092-1.822-1.789v2.787c0,1.082,0.794,1.721,1.72,1.721h51.008
				c1.046,0,1.718-0.639,1.718-1.721v-2.787c0,0.697-1.037,1.789-1.82,1.789H3.765z"/>
		</g>
		<g id="path50">
			<path fill="#FFFFFF" fill-opacity="0.3" d="M54.078,5.675c0,0.471-0.665,0.854-1.49,0.854H5.815c-0.821,0-1.49-0.35-1.49-0.825
				v-2.58c0-0.471,0.668-0.89,1.49-0.89h46.776c0.821,0,1.491,0.381,1.491,0.854L54.078,5.675L54.078,5.675z"/>
		</g>
	</g>
	<g>
		<g>
			<g>
				<path fill="#505050" d="M9.03,2.882c0,0.116-0.094,0.21-0.21,0.21H4.977c-0.116,0-0.21-0.094-0.21-0.21V0.21
					C4.767,0.095,4.861,0,4.977,0H8.82c0.116,0,0.21,0.095,0.21,0.21V2.882z"/>
			</g>
		</g>
		<g>
			<g>
				<path fill="#505050" d="M53.575,2.882c0,0.116-0.097,0.21-0.21,0.21h-3.843c-0.113,0-0.21-0.094-0.21-0.21V0.21
					c0-0.116,0.097-0.21,0.21-0.21h3.843c0.113,0,0.21,0.095,0.21,0.21V2.882z"/>
			</g>
		</g>
		<g>
			<g>
				<path fill="#505050" d="M9.03,2.882c0,0.116-0.094,0.21-0.21,0.21H4.977c-0.116,0-0.21-0.094-0.21-0.21V0.21
					C4.767,0.095,4.861,0,4.977,0H8.82c0.116,0,0.21,0.095,0.21,0.21V2.882z"/>
			</g>
		</g>
		<g>
			<g>
				<path fill="#5F5F5F" d="M8.682,1.617C8.658,1.73,8.543,1.822,8.428,1.822H5.372c-0.116,0-0.229-0.092-0.254-0.205L4.812,0.205
					C4.787,0.092,4.861,0,4.977,0H8.82C8.936,0,9.01,0.092,8.986,0.205L8.682,1.617z"/>
			</g>
		</g>
		<g>
			<g>
				<path fill="#505050" d="M9.03,20.377c0,0.115-0.094,0.209-0.21,0.209H4.977c-0.116,0-0.21-0.094-0.21-0.209v-2.674
					c0-0.115,0.094-0.209,0.21-0.209H8.82c0.116,0,0.21,0.094,0.21,0.209V20.377z"/>
			</g>
		</g>
		<g>
			<g>
				<path fill="#505050" d="M53.575,20.377c0,0.115-0.097,0.209-0.21,0.209h-3.843c-0.113,0-0.21-0.094-0.21-0.209v-2.674
					c0-0.115,0.097-0.209,0.21-0.209h3.843c0.113,0,0.21,0.094,0.21,0.209V20.377z"/>
			</g>
		</g>
		<g>
			<g>
				<path fill="#5F5F5F" d="M53.224,1.617c-0.022,0.113-0.139,0.205-0.254,0.205h-3.056c-0.115,0-0.229-0.092-0.254-0.205
					l-0.306-1.412C49.334,0.092,49.409,0,49.523,0h3.843c0.113,0,0.188,0.092,0.166,0.205L53.224,1.617z"/>
			</g>
		</g>
		<g>
			<g>
				<path fill="#3C3C3C" d="M49.661,18.959c0.023-0.113,0.14-0.205,0.255-0.205h3.056c0.115,0,0.229,0.092,0.254,0.205l0.308,1.41
					c0.022,0.113-0.053,0.205-0.166,0.205h-3.846c-0.113,0-0.188-0.092-0.165-0.205L49.661,18.959z"/>
			</g>
		</g>
		<g>
			<g>
				<path fill="#3C3C3C" d="M5.115,18.959c0.024-0.113,0.139-0.205,0.254-0.205h3.057c0.115,0,0.229,0.092,0.255,0.205l0.303,1.41
					c0.022,0.113-0.05,0.205-0.166,0.205h-3.84c-0.116,0-0.19-0.092-0.166-0.205L5.115,18.959z"/>
			</g>
		</g>
	</g>
	<g>
		<path fill="#D2D2D2" fill-opacity="0.5" d="M16.102,1.822c-0.386,0-0.751,3.798-0.751,8.482c0,4.682,0.095,8.069,0.439,8.481
			c-0.385,0-0.693-3.799-0.693-8.481c0-4.685,0.31-8.482,0.693-8.482H16.102z"/>
	</g>
	<g>
		<path fill="#C8C8C8" fill-opacity="0.5" d="M42.485,1.822c-0.383,0-0.752,3.798-0.752,8.482c0,4.682,0.097,8.069,0.441,8.481
			c-0.384,0-0.694-3.799-0.694-8.481c0-4.685,0.313-8.482,0.694-8.482H42.485z"/>
	</g>
	<g>
		<path d="M54.962,18.754"/>
	</g>
</g>
</svg>
