<?xml version='1.0' encoding='utf-8'?>
<!DOCTYPE svg PUBLIC '-//W3C//DTD SVG 1.1//EN' 'http://www.w3.org/Graphics/SVG/1.1/DTD/svg11.dtd'>
<!-- Generator: Adobe Illustrator 14.0.0, SVG Export Plug-In . SVG Version: 6.00 Build 43363)  -->
<svg xmlns="http://www.w3.org/2000/svg" width="1.2in" xml:space="preserve" xmlns:xml="http://www.w3.org/XML/1998/namespace" x="0px" version="1.1" y="0px" height="0.33in" viewBox="0 0 86.4 23.76" id="svg2" enable-background="new 0 0 86.4 23.76" >
 <defs xmlns="http://www.w3.org/2000/svg">
  <inkscape:perspective xmlns:inkscape="http://www.inkscape.org/namespaces/inkscape" id="perspective198" />
 </defs>
 <sodipodi:namedview xmlns:sodipodi="http://sodipodi.sourceforge.net/DTD/sodipodi-0.dtd" showgrid="false" objecttolerance="10.0" pagecolor="#ffffff" bordercolor="#666666" id="base" guidetolerance="10.0" borderopacity="1.0" gridtolerance="10.0" />
 <rect xmlns="http://www.w3.org/2000/svg" width="2.16" x="2.52" y="20.636" fill="none" height="3.124" id="connector0pin" />
 <rect xmlns="http://www.w3.org/2000/svg" width="2.159" x="9.72" y="20.636" fill="none" height="3.124" id="connector1pin" />
 <rect xmlns="http://www.w3.org/2000/svg" width="2.16" x="16.92" y="20.636" fill="none" height="3.124" id="connector2pin" />
 <rect xmlns="http://www.w3.org/2000/svg" width="2.16" x="24.12" y="20.636" fill="none" height="3.124" id="connector3pin" />
 <rect xmlns="http://www.w3.org/2000/svg" width="2.16" x="31.32" y="20.636" fill="none" height="3.124" id="connector4pin" />
 <rect xmlns="http://www.w3.org/2000/svg" width="2.16" x="38.52" y="20.636" fill="none" height="3.124" id="connector5pin" />
 <rect xmlns="http://www.w3.org/2000/svg" width="2.159" x="45.72" y="20.636" fill="none" height="3.124" id="connector6pin" />
 <rect xmlns="http://www.w3.org/2000/svg" width="2.16" x="52.919" y="20.636" fill="none" height="3.124" id="connector7pin" />
 <rect xmlns="http://www.w3.org/2000/svg" width="2.159" x="60.121" y="20.636" fill="none" height="3.124" id="connector8pin" />
 <rect xmlns="http://www.w3.org/2000/svg" width="2.16" x="67.32" y="20.636" fill="none" height="3.124" id="connector9pin" />
 <rect xmlns="http://www.w3.org/2000/svg" width="2.16" x="74.52" y="20.636" fill="none" height="3.124" id="connector10pin" />
 <rect xmlns="http://www.w3.org/2000/svg" width="2.159" x="81.72" y="20.636" fill="none" height="3.124" id="connector11pin" />
 <rect xmlns="http://www.w3.org/2000/svg" width="2.159" x="81.72" fill="none" height="3.125" id="connector12pin" />
 <rect xmlns="http://www.w3.org/2000/svg" width="2.16" x="74.52" fill="none" height="3.125" id="connector13pin" />
 <rect xmlns="http://www.w3.org/2000/svg" width="2.16" x="67.32" fill="none" height="3.125" id="connector14pin" />
 <rect xmlns="http://www.w3.org/2000/svg" width="2.159" x="60.121" fill="none" height="3.125" id="connector15pin" />
 <rect xmlns="http://www.w3.org/2000/svg" width="2.16" x="52.919" fill="none" height="3.125" id="connector16pin" />
 <rect xmlns="http://www.w3.org/2000/svg" width="2.159" x="45.72" fill="none" height="3.125" id="connector17pin" />
 <rect xmlns="http://www.w3.org/2000/svg" width="2.16" x="38.52" fill="none" height="3.125" id="connector18pin" />
 <rect xmlns="http://www.w3.org/2000/svg" width="2.16" x="31.32" fill="none" height="3.125" id="connector19pin" />
 <rect xmlns="http://www.w3.org/2000/svg" width="2.16" x="24.12" fill="none" height="3.125" id="connector20pin" />
 <rect xmlns="http://www.w3.org/2000/svg" width="2.16" x="16.92" fill="none" height="3.125" id="connector21pin" />
 <rect xmlns="http://www.w3.org/2000/svg" width="2.159" x="9.72" fill="none" height="3.125" id="connector22pin" />
 <rect xmlns="http://www.w3.org/2000/svg" width="2.16" x="2.52" fill="none" height="3.125" id="connector23pin" />
 <rect xmlns="http://www.w3.org/2000/svg" width="2.16" x="2.52" y="21.601" fill="none" height="2.159" id="connector0terminal" />
 <rect xmlns="http://www.w3.org/2000/svg" width="2.159" x="9.72" y="21.601" fill="none" height="2.159" id="connector1terminal" />
 <rect xmlns="http://www.w3.org/2000/svg" width="2.16" x="16.92" y="21.601" fill="none" height="2.159" id="connector2terminal" />
 <rect xmlns="http://www.w3.org/2000/svg" width="2.16" x="24.12" y="21.601" fill="none" height="2.159" id="connector3terminal" />
 <rect xmlns="http://www.w3.org/2000/svg" width="2.16" x="31.32" y="21.601" fill="none" height="2.159" id="connector4terminal" />
 <rect xmlns="http://www.w3.org/2000/svg" width="2.16" x="38.52" y="21.601" fill="none" height="2.159" id="connector5terminal" />
 <rect xmlns="http://www.w3.org/2000/svg" width="2.159" x="45.72" y="21.601" fill="none" height="2.159" id="connector6terminal" />
 <rect xmlns="http://www.w3.org/2000/svg" width="2.16" x="52.919" y="21.601" fill="none" height="2.159" id="connector7terminal" />
 <rect xmlns="http://www.w3.org/2000/svg" width="2.159" x="60.121" y="21.601" fill="none" height="2.159" id="connector8terminal" />
 <rect xmlns="http://www.w3.org/2000/svg" width="2.16" x="67.32" y="21.601" fill="none" height="2.159" id="connector9terminal" />
 <rect xmlns="http://www.w3.org/2000/svg" width="2.16" x="74.52" y="21.601" fill="none" height="2.159" id="connector10terminal" />
 <rect xmlns="http://www.w3.org/2000/svg" width="2.159" x="81.72" y="21.601" fill="none" height="2.159" id="connector11terminal" />
 <rect xmlns="http://www.w3.org/2000/svg" width="2.159" x="81.72" fill="none" height="2.16" id="connector12terminal" />
 <rect xmlns="http://www.w3.org/2000/svg" width="2.16" x="74.52" fill="none" height="2.16" id="connector13terminal" />
 <rect xmlns="http://www.w3.org/2000/svg" width="2.16" x="67.32" fill="none" height="2.16" id="connector14terminal" />
 <rect xmlns="http://www.w3.org/2000/svg" width="2.159" x="60.121" fill="none" height="2.16" id="connector15terminal" />
 <rect xmlns="http://www.w3.org/2000/svg" width="2.16" x="52.919" fill="none" height="2.16" id="connector16terminal" />
 <rect xmlns="http://www.w3.org/2000/svg" width="2.159" x="45.72" fill="none" height="2.16" id="connector17terminal" />
 <rect xmlns="http://www.w3.org/2000/svg" width="2.16" x="38.52" fill="none" height="2.16" id="connector18terminal" />
 <rect xmlns="http://www.w3.org/2000/svg" width="2.16" x="31.32" fill="none" height="2.16" id="connector19terminal" />
 <rect xmlns="http://www.w3.org/2000/svg" width="2.16" x="24.12" fill="none" height="2.16" id="connector20terminal" />
 <rect xmlns="http://www.w3.org/2000/svg" width="2.16" x="16.92" fill="none" height="2.16" id="connector21terminal" />
 <rect xmlns="http://www.w3.org/2000/svg" width="2.159" x="9.72" fill="none" height="2.16" id="connector22terminal" />
 <rect xmlns="http://www.w3.org/2000/svg" width="2.16" x="2.52" fill="none" height="2.16" id="connector23terminal" />
 <g xmlns="http://www.w3.org/2000/svg" id="breadboard" >
  <rect xmlns="http://www.w3.org/2000/svg" width="2.16" x="2.52" y="18.95" fill="#8C8C8C" height="4.81" id="rect60" />
  <rect xmlns="http://www.w3.org/2000/svg" width="2.159" x="9.72" y="18.95" fill="#8C8C8C" height="4.81" id="rect62" />
  <rect xmlns="http://www.w3.org/2000/svg" width="2.16" x="16.92" y="18.95" fill="#8C8C8C" height="4.81" id="rect64" />
  <rect xmlns="http://www.w3.org/2000/svg" width="2.16" x="24.12" y="18.95" fill="#8C8C8C" height="4.81" id="rect66" />
  <rect xmlns="http://www.w3.org/2000/svg" width="2.16" x="31.32" y="18.95" fill="#8C8C8C" height="4.81" id="rect68" />
  <rect xmlns="http://www.w3.org/2000/svg" width="2.16" x="38.52" y="18.95" fill="#8C8C8C" height="4.81" id="rect70" />
  <rect xmlns="http://www.w3.org/2000/svg" width="2.159" x="45.72" y="18.95" fill="#8C8C8C" height="4.81" id="rect72" />
  <rect xmlns="http://www.w3.org/2000/svg" width="2.16" x="52.919" y="18.95" fill="#8C8C8C" height="4.81" id="rect74" />
  <rect xmlns="http://www.w3.org/2000/svg" width="2.159" x="60.121" y="18.95" fill="#8C8C8C" height="4.81" id="rect76" />
  <rect xmlns="http://www.w3.org/2000/svg" width="2.16" x="67.32" y="18.95" fill="#8C8C8C" height="4.81" id="rect78" />
  <rect xmlns="http://www.w3.org/2000/svg" width="2.16" x="74.52" y="18.95" fill="#8C8C8C" height="4.81" id="rect80" />
  <rect xmlns="http://www.w3.org/2000/svg" width="2.158" x="81.761" y="18.95" fill="#8C8C8C" height="4.81" id="rect86" />
  <rect xmlns="http://www.w3.org/2000/svg" width="2.158" x="81.761" fill="#8C8C8C" height="4.81" id="rect88" />
  <rect xmlns="http://www.w3.org/2000/svg" width="2.16" x="74.52" fill="#8C8C8C" height="4.81" id="rect94" />
  <rect xmlns="http://www.w3.org/2000/svg" width="2.16" x="67.32" fill="#8C8C8C" height="4.81" id="rect96" />
  <rect xmlns="http://www.w3.org/2000/svg" width="2.159" x="60.121" fill="#8C8C8C" height="4.81" id="rect98" />
  <rect xmlns="http://www.w3.org/2000/svg" width="2.16" x="52.919" fill="#8C8C8C" height="4.81" id="rect100" />
  <rect xmlns="http://www.w3.org/2000/svg" width="2.159" x="45.72" fill="#8C8C8C" height="4.81" id="rect102" />
  <rect xmlns="http://www.w3.org/2000/svg" width="2.16" x="38.52" fill="#8C8C8C" height="4.81" id="rect104" />
  <rect xmlns="http://www.w3.org/2000/svg" width="2.16" x="31.32" fill="#8C8C8C" height="4.81" id="rect106" />
  <rect xmlns="http://www.w3.org/2000/svg" width="2.16" x="24.12" fill="#8C8C8C" height="4.81" id="rect108" />
  <rect xmlns="http://www.w3.org/2000/svg" width="2.16" x="16.92" fill="#8C8C8C" height="4.81" id="rect110" />
  <rect xmlns="http://www.w3.org/2000/svg" width="2.159" x="9.72" fill="#8C8C8C" height="4.81" id="rect112" />
  <rect xmlns="http://www.w3.org/2000/svg" width="2.16" x="2.52" fill="#8C8C8C" height="4.81" id="rect114" />
  <polygon xmlns="http://www.w3.org/2000/svg" fill="#3D3D3D" points="0,2.16 86.4,2.16 85.936,8.28 0,8.28 " id="polygon116" />
  <polygon xmlns="http://www.w3.org/2000/svg" points="0,15.479 85.936,15.479 86.4,21.601 0,21.601 " id="polygon118" />
  <polygon xmlns="http://www.w3.org/2000/svg" fill="#8C8C8C" points="6.12,3.125 6.12,2.347 4.68,1.685 2.52,1.685 2.52,3.125 " id="polygon120" />
  <polygon xmlns="http://www.w3.org/2000/svg" fill="#8C8C8C" points="83.92,3.125 83.92,1.685 81.761,1.685 80.321,2.347 80.321,3.125 " id="polygon122" />
  <polygon xmlns="http://www.w3.org/2000/svg" fill="#8C8C8C" points="2.52,20.636 2.52,22.075 4.68,22.075 6.12,21.413 6.12,20.636 " id="polygon124" />
  <polygon xmlns="http://www.w3.org/2000/svg" fill="#8C8C8C" points="80.321,20.636 80.321,21.413 81.761,22.075 83.92,22.075 83.92,20.636 " id="polygon126" />
  <polygon xmlns="http://www.w3.org/2000/svg" fill="#8C8C8C" points="13.32,3.125 13.32,2.347 11.88,1.685 9.72,1.685 8.28,2.347 8.28,3.125 " id="polygon128" />
  <polygon xmlns="http://www.w3.org/2000/svg" fill="#8C8C8C" points="8.28,20.636 8.28,21.413 9.72,22.075 11.88,22.075 13.32,21.413 13.32,20.636 " id="polygon130" />
  <polygon xmlns="http://www.w3.org/2000/svg" fill="#8C8C8C" points="20.52,3.125 20.52,2.347 19.08,1.685 16.92,1.685 15.48,2.347 15.48,3.125 " id="polygon132" />
  <polygon xmlns="http://www.w3.org/2000/svg" fill="#8C8C8C" points="15.48,20.636 15.48,21.413 16.92,22.075 19.08,22.075 20.52,21.413 20.52,20.636 " id="polygon134" />
  <polygon xmlns="http://www.w3.org/2000/svg" fill="#8C8C8C" points="27.72,3.125 27.72,2.347 26.28,1.685 24.12,1.685 22.68,2.347 22.68,3.125 " id="polygon136" />
  <polygon xmlns="http://www.w3.org/2000/svg" fill="#8C8C8C" points="22.68,20.636 22.68,21.413 24.12,22.075 26.28,22.075 27.72,21.413 27.72,20.636 " id="polygon138" />
  <polygon xmlns="http://www.w3.org/2000/svg" fill="#8C8C8C" points="34.92,3.125 34.92,2.347 33.48,1.685 31.32,1.685 29.88,2.347 29.88,3.125 " id="polygon140" />
  <polygon xmlns="http://www.w3.org/2000/svg" fill="#8C8C8C" points="29.88,20.636 29.88,21.413 31.32,22.075 33.48,22.075 34.92,21.413 34.92,20.636 " id="polygon142" />
  <polygon xmlns="http://www.w3.org/2000/svg" fill="#8C8C8C" points="42.12,3.125 42.12,2.347 40.68,1.685 38.52,1.685 37.08,2.347 37.08,3.125 " id="polygon144" />
  <polygon xmlns="http://www.w3.org/2000/svg" fill="#8C8C8C" points="37.08,20.636 37.08,21.413 38.52,22.075 40.68,22.075 42.12,21.413 42.12,20.636 " id="polygon146" />
  <polygon xmlns="http://www.w3.org/2000/svg" fill="#8C8C8C" points="49.32,3.125 49.32,2.347 47.88,1.685 45.72,1.685 44.28,2.347 44.28,3.125 " id="polygon148" />
  <polygon xmlns="http://www.w3.org/2000/svg" fill="#8C8C8C" points="44.28,20.636 44.28,21.413 45.72,22.075 47.88,22.075 49.32,21.413 49.32,20.636 " id="polygon150" />
  <polygon xmlns="http://www.w3.org/2000/svg" fill="#8C8C8C" points="56.52,3.125 56.52,2.347 55.08,1.685 52.919,1.685 51.48,2.347 51.48,3.125 " id="polygon152" />
  <polygon xmlns="http://www.w3.org/2000/svg" fill="#8C8C8C" points="51.48,20.636 51.48,21.413 52.919,22.075 55.08,22.075 56.52,21.413 56.52,20.636 " id="polygon154" />
  <polygon xmlns="http://www.w3.org/2000/svg" fill="#8C8C8C" points="63.72,3.125 63.72,2.347 62.28,1.685 60.121,1.685 58.68,2.347 58.68,3.125 " id="polygon156" />
  <polygon xmlns="http://www.w3.org/2000/svg" fill="#8C8C8C" points="58.68,20.636 58.68,21.413 60.121,22.075 62.28,22.075 63.72,21.413 63.72,20.636 " id="polygon158" />
  <polygon xmlns="http://www.w3.org/2000/svg" fill="#8C8C8C" points="70.919,3.125 70.919,2.347 69.48,1.685 67.32,1.685 65.88,2.347 65.88,3.125 " id="polygon160" />
  <polygon xmlns="http://www.w3.org/2000/svg" fill="#8C8C8C" points="65.88,20.636 65.88,21.413 67.32,22.075 69.48,22.075 70.919,21.413 70.919,20.636 " id="polygon162" />
  <polygon xmlns="http://www.w3.org/2000/svg" fill="#8C8C8C" points="78.121,3.125 78.121,2.347 76.68,1.685 74.52,1.685 73.08,2.347 73.08,3.125 " id="polygon164" />
  <polygon xmlns="http://www.w3.org/2000/svg" fill="#8C8C8C" points="73.08,20.636 73.08,21.413 74.52,22.075 76.68,22.075 78.121,21.413 78.121,20.636 " id="polygon166" />
  <polygon xmlns="http://www.w3.org/2000/svg" fill="#141414" points="86.4,2.16 85.859,3.931 84.853,3.931 84.853,19.821 85.859,19.829 86.4,21.601 " id="polygon176" />
  <polygon xmlns="http://www.w3.org/2000/svg" fill="#1F1F1F" points="0,2.16 0.54,3.931 0.54,8.28 3.6,8.28 3.6,15.479 0.54,15.479 0.54,19.829 0,21.601 " id="polygon178" />
  <polygon xmlns="http://www.w3.org/2000/svg" fill="#1C1C1C" points="3.6,8.28 0.54,8.28 0.403,9.792 0.403,11.88 3.6,11.88 " id="polygon180" />
  <polygon xmlns="http://www.w3.org/2000/svg" fill="#383838" points="0.54,15.479 3.6,15.479 3.6,11.88 0.403,11.88 0.403,13.968 " id="polygon182" />
  <path xmlns="http://www.w3.org/2000/svg" fill="#303030" id="path184" d="M0.54,3.931v4.32c1.467,0.324,2.582,1.822,2.582,3.629s-1.108,3.312-2.582,3.637v4.319H85.9V3.931H0.54z" />
  <path xmlns="http://www.w3.org/2000/svg" fill="#262626" id="path186" d="M0.403,9.792v4.197c1.058-0.122,1.886-1.008,1.886-2.102C2.29,10.8,1.469,9.9,0.403,9.792z" />
  <circle xmlns="http://www.w3.org/2000/svg" fill="#212121" cx="4.68" cy="16.898" id="circle188" r="1.483" />
  <text xmlns="http://www.w3.org/2000/svg" fill="#E6E6E6" font-family="ocra10" transform="matrix(1 0 0 1 19.8547 13.9893)" font-size="5" >STP16DP05B1R</text>
 </g>
</svg>
