<?xml version='1.0' encoding='UTF-8' standalone='no'?>
<!-- Created with Fritzing (http://www.fritzing.org/) -->
<svg xmlns="http://www.w3.org/2000/svg"  width="0.8in" x="0in" version="1.2" y="0in" height="0.8in" viewBox="0 0 57.6 57.6" baseProfile="tiny">
 <desc >Fritzing breadboard generated by brd2svg</desc>
 <g  id="breadboard">
  <g  id="icon">
   <path  fill="#C62717" stroke="none" stroke-width="0" d="M0,57.6L57.6,57.6L57.6,0L0,0L0,57.6M5.76,54a1.44,1.44,0,1,1,2.88,0,1.44,1.44,0,1,1,-2.88,0zM5.76,46.8a1.44,1.44,0,1,1,2.88,0,1.44,1.44,0,1,1,-2.88,0zM5.76,39.6a1.44,1.44,0,1,1,2.88,0,1.44,1.44,0,1,1,-2.88,0zM5.76,32.4a1.44,1.44,0,1,1,2.88,0,1.44,1.44,0,1,1,-2.88,0zM5.76,25.2a1.44,1.44,0,1,1,2.88,0,1.44,1.44,0,1,1,-2.88,0zM5.76,18a1.44,1.44,0,1,1,2.88,0,1.44,1.44,0,1,1,-2.88,0zM5.76,10.8a1.44,1.44,0,1,1,2.88,0,1.44,1.44,0,1,1,-2.88,0zM5.76,3.6a1.44,1.44,0,1,1,2.88,0,1.44,1.44,0,1,1,-2.88,0zM48.96,3.6a1.44,1.44,0,1,1,2.88,0,1.44,1.44,0,1,1,-2.88,0zM48.96,10.8a1.44,1.44,0,1,1,2.88,0,1.44,1.44,0,1,1,-2.88,0zM48.96,18a1.44,1.44,0,1,1,2.88,0,1.44,1.44,0,1,1,-2.88,0zM48.96,25.2a1.44,1.44,0,1,1,2.88,0,1.44,1.44,0,1,1,-2.88,0zM48.96,32.4a1.44,1.44,0,1,1,2.88,0,1.44,1.44,0,1,1,-2.88,0zM48.96,39.6a1.44,1.44,0,1,1,2.88,0,1.44,1.44,0,1,1,-2.88,0zM48.96,46.8a1.44,1.44,0,1,1,2.88,0,1.44,1.44,0,1,1,-2.88,0zM48.96,54a1.44,1.44,0,1,1,2.88,0,1.44,1.44,0,1,1,-2.88,0z"/>
   <g >
    <title >layer 21</title>
    <g >
     <title >text:TB6612FNG</title>
     <text  x="19.8" y="50.04" font-family="OCRA" fill="#ffffff" text-anchor="start" stroke="none" stroke-width="0" font-size="3.3408">TB6612FNG</text>
    </g>
    <g >
     <title >text:Breakout</title>
     <text  x="19.8" y="54.36" font-family="OCRA" fill="#ffffff" text-anchor="start" stroke="none" stroke-width="0" font-size="3.3408">Breakout</text>
    </g>
    <g >
     <title >element:C1</title>
     <g >
      <title >package:0402-CAP</title>
      <line  stroke="white" stroke-linecap="round" y1="17.9135" x1="32.4" y2="18.0865" stroke-width="1.152" x2="32.4"/>
     </g>
    </g>
    <g >
     <title >element:C2</title>
     <g >
      <title >package:0402-CAP</title>
      <line  stroke="white" stroke-linecap="round" y1="18.0865" x1="25.2" y2="17.9135" stroke-width="1.152" x2="25.2"/>
     </g>
    </g>
    <g >
     <title >element:C3</title>
     <g >
      <title >package:EIA3528</title>
      <line  stroke="white" stroke-linecap="round" y1="6.26457" x1="31.3512" y2="6.26457" stroke-width="0.576" x2="36.1701"/>
      <line  stroke="white" stroke-linecap="round" y1="6.26457" x1="36.1701" y2="15.1937" stroke-width="0.576" x2="36.1701"/>
      <line  stroke="white" stroke-linecap="round" y1="15.1937" x1="36.1701" y2="15.1937" stroke-width="0.576" x2="31.3512"/>
      <line  stroke="white" stroke-linecap="round" y1="6.4063" x1="25.9654" y2="6.4063" stroke-width="0.576" x2="22.5638"/>
      <line  stroke="white" stroke-linecap="round" y1="6.4063" x1="22.5638" y2="7.39843" stroke-width="0.576" x2="21.4299"/>
      <line  stroke="white" stroke-linecap="round" y1="7.39843" x1="21.4299" y2="14.3433" stroke-width="0.576" x2="21.4299"/>
      <line  stroke="white" stroke-linecap="round" y1="14.3433" x1="21.4299" y2="15.1937" stroke-width="0.576" x2="22.5638"/>
      <line  stroke="white" stroke-linecap="round" y1="15.1937" x1="22.5638" y2="15.1937" stroke-width="0.576" x2="25.9654"/>
      <line  stroke="white" stroke-linecap="round" y1="15.1937" x1="22.5638" y2="15.1937" stroke-width="0.576" x2="25.9654"/>
      <line  stroke="white" stroke-linecap="round" y1="14.5162" x1="27.0737" y2="7.15465" stroke-width="0.576" x2="27.0737"/>
     </g>
    </g>
    <g >
     <title >element:JP1</title>
     <g >
      <title >package:1X08_LONGPADS</title>
      <line  stroke="white" stroke-linecap="round" y1="57.6" x1="5.4" y2="57.6" stroke-width="0.576" x2="9"/>
      <line  stroke="white" stroke-linecap="round" y1="0" x1="5.4" y2="0" stroke-width="0.576" x2="9"/>
     </g>
    </g>
    <g >
     <title >element:JP2</title>
     <g >
      <title >package:1X08_LONGPADS</title>
      <line  stroke="white" stroke-linecap="round" y1="0" x1="52.2" y2="0" stroke-width="0.576" x2="48.6"/>
      <line  stroke="white" stroke-linecap="round" y1="57.6" x1="52.2" y2="57.6" stroke-width="0.576" x2="48.6"/>
     </g>
    </g>
    <g >
     <title >element:JP4</title>
     <g >
      <title >package:SFE-LOGO-FLAME</title>
      <g >
       <title >polygon</title>
       <path  fill="none" stroke="white" stroke-linecap="round" stroke-width="0.072" d="M15.2283,49.3415L15.0913,49.32M15.0913,49.32L14.8249,49.299M14.8249,49.299L14.5585,49.32M14.5585,49.32L14.3603,49.3721M14.3603,49.3721L14.1767,49.4631M14.1767,49.4631L14.0148,49.589M14.0148,49.589L13.8818,49.7449M13.8818,49.7449L13.7681,49.9524M13.7681,49.9524L13.6999,50.1789M13.6999,50.1789L13.6803,50.4145M13.6803,50.4145L13.6803,54.7129M13.6803,54.7129L15.0625,53.1575M15.0625,53.1575L15.3085,52.9322M15.3085,52.9322L15.5953,52.7615M15.5953,52.7615L15.7008,52.7233M15.7008,52.7233L15.8113,52.704M15.8113,52.704L16.4593,52.704M16.4593,52.704L16.8458,52.6689M16.8458,52.6689L17.2196,52.5645M17.2196,52.5645L17.5683,52.3945M17.5683,52.3945L17.8962,52.1628M17.8962,52.1628L18.1888,51.8873M18.1888,51.8873L18.4393,51.5735M18.4393,51.5735L18.7078,51.097M18.7078,51.097L18.8858,50.58M18.8858,50.58L18.9675,50.0394M18.9675,50.0394L18.9505,49.4929M18.9505,49.4929L18.8918,49.1981M18.8918,49.1981L18.7903,48.9152M18.7903,48.9152L18.6483,48.6505M18.6483,48.6505L18.3912,48.3281M18.3912,48.3281L18.0723,48.0671M18.0723,48.0671L18.0723,48.3191M18.0723,48.3191L18.0666,48.3602M18.0666,48.3602L18.0505,48.3985M18.0505,48.3985L17.9662,48.5025M17.9662,48.5025L17.8563,48.5785M17.8563,48.5785L17.7985,48.6M17.7985,48.6L17.6363,48.6176M17.6363,48.6176L17.4758,48.5878M17.4758,48.5878L17.3305,48.5135M17.3305,48.5135L17.0713,48.3265M17.0713,48.3265L16.9515,48.2233M16.9515,48.2233L16.8483,48.1031M16.8483,48.1031L16.7652,47.9684M16.7652,47.9684L16.7043,47.8225M16.7043,47.8225L16.6859,47.7297M16.6859,47.7297L16.6898,47.6351M16.6898,47.6351L16.7369,47.4792M16.7369,47.4792L16.8228,47.3406M16.8228,47.3406L16.9418,47.2295M16.9418,47.2295L17.0858,47.1529M17.0858,47.1529L17.231,47.1121M17.231,47.1121L17.3809,47.0951M17.3809,47.0951L17.5538,47.0951M17.5538,47.0951L17.5535,47.0951M17.5535,47.0951L17.5465,47.088M17.5465,47.088L17.4231,46.9922M17.4231,46.9922L17.2803,46.9295M17.2803,46.9295L17.1793,46.8865M17.1793,46.8865L17.1145,46.8575M17.1145,46.8575L16.8656,46.7955M16.8656,46.7955L16.6105,46.7711M16.6105,46.7711L16.3642,46.7898M16.3642,46.7898L16.126,46.8556M16.126,46.8556L15.9049,46.9655M15.9049,46.9655L15.6847,47.1243M15.6847,47.1243L15.4873,47.3111M15.4873,47.3111L15.3652,47.4823M15.3652,47.4823L15.2895,47.6785M15.2895,47.6785L15.2649,47.8873M15.2649,47.8873L15.2932,48.0957M15.2932,48.0957L15.3723,48.2905M15.3723,48.2905L15.7085,48.7891M15.7085,48.7891L16.1209,49.2265M16.1209,49.2265L16.2294,49.354M16.2294,49.354L16.3014,49.5051M16.3014,49.5051L16.3321,49.6695M16.3321,49.6695L16.3191,49.8365M16.3191,49.8365L16.2635,49.9944M16.2635,49.9944L16.1688,50.1324M16.1688,50.1324L16.0418,50.2415M16.0418,50.2415L15.882,50.3277M15.882,50.3277L15.7099,50.3858M15.7099,50.3858L15.5305,50.4145M15.5305,50.4145L15.3207,50.404M15.3207,50.404L15.12,50.3428M15.12,50.3428L14.9403,50.2345M14.9403,50.2345L14.845,50.1341M14.845,50.1341L14.7818,50.0111M14.7818,50.0111L14.7537,49.8849M14.7537,49.8849L14.7537,49.7557M14.7537,49.7557L14.7818,49.6295M14.7818,49.6295L14.8073,49.5811M14.8073,49.5811L14.8465,49.5431M14.8465,49.5431L15.0843,49.3705M15.0843,49.3705L15.1288,49.3466M15.1288,49.3466L15.1781,49.3367M15.1781,49.3367L15.2283,49.3415M13.6803,54.648L13.7378,54.648M13.6803,54.576L13.8019,54.576M13.6803,54.504L13.8657,54.504M13.6803,54.432L13.9298,54.432M13.6803,54.36L13.9938,54.36M13.6803,54.288L14.0579,54.288M13.6803,54.216L14.1216,54.216M13.6803,54.144L14.1857,54.144M13.6803,54.072L14.2497,54.072M13.6803,54L14.3135,54M13.6803,53.928L14.3776,53.928M13.6803,53.856L14.4417,53.856M13.6803,53.784L14.5058,53.784M13.6803,53.712L14.5695,53.712M13.6803,53.64L14.6336,53.64M13.6803,53.568L14.6976,53.568M13.6803,53.496L14.7614,53.496M13.6803,53.424L14.8254,53.424M13.6803,53.352L14.8895,53.352M13.6803,53.28L14.9536,53.28M13.6803,53.208L15.0174,53.208M13.6803,53.136L15.0857,53.136M13.6803,53.064L15.1645,53.064M13.6803,52.992L15.243,52.992M13.6803,52.92L15.3289,52.92M13.6803,52.848L15.45,52.848M13.6803,52.776L15.571,52.776M13.6803,52.704L16.4593,52.704M13.6803,52.632L16.9775,52.632M13.6803,52.56L17.2287,52.56M13.6803,52.488L17.3764,52.488M13.6803,52.416L17.5241,52.416M13.6803,52.344L17.6397,52.344M13.6803,52.272L17.7414,52.272M13.6803,52.2L17.8435,52.2M13.6803,52.128L17.9331,52.128M13.6803,52.056L18.0096,52.056M13.6803,51.984L18.0859,51.984M13.6803,51.912L18.1624,51.912M13.6803,51.84L18.2265,51.84M13.6803,51.768L18.284,51.768M13.6803,51.696L18.3416,51.696M13.6803,51.624L18.3988,51.624M13.6803,51.552L18.4513,51.552M13.6803,51.48L18.4918,51.48M13.6803,51.408L18.5324,51.408M13.6803,51.336L18.5732,51.336M13.6803,51.264L18.6137,51.264M13.6803,51.192L18.6543,51.192M13.6803,51.12L18.6948,51.12M13.6803,51.048L18.7245,51.048M13.6803,50.976L18.7494,50.976M13.6803,50.904L18.7741,50.904M13.6803,50.832L18.7988,50.832M13.6803,50.76L18.8238,50.76M13.6803,50.688L18.8484,50.688M13.6803,50.616L18.8734,50.616M13.6803,50.544L18.8912,50.544M13.6803,50.472L18.902,50.472M13.6817,50.4L15.3079,50.4M15.6212,50.4L18.9127,50.4M13.6876,50.328L15.0956,50.328M15.8814,50.328L18.9238,50.328M13.6936,50.256L14.9763,50.256M16.0152,50.256L18.9346,50.256M13.6996,50.184L14.8927,50.184M16.109,50.184L18.9454,50.184M13.7202,50.112L14.8337,50.112M16.183,50.112L18.9564,50.112M13.7418,50.04L14.7969,50.04M16.2323,50.04L18.9672,50.04M13.7636,49.968L14.7725,49.968M16.2729,49.968L18.9654,49.968M13.7993,49.896L14.7563,49.896M16.2984,49.896L18.9632,49.896M13.8388,49.824L14.7537,49.824M16.3202,49.824L18.9609,49.824M13.8781,49.752L14.7543,49.752M16.3259,49.752L18.9587,49.752M13.9374,49.68L14.7705,49.68M16.3315,49.68L18.9564,49.68M13.9986,49.608L14.7932,49.608M16.3205,49.608L18.9541,49.608M14.0831,49.536L14.8561,49.536M16.3071,49.536L18.9518,49.536M14.1758,49.464L14.9553,49.464M16.2816,49.464L18.9448,49.464M14.3204,49.392L15.0546,49.392M16.2473,49.392L18.9306,49.392M14.5585,49.32L15.0913,49.32M16.2003,49.32L18.9161,49.32M16.1391,49.248L18.902,49.248M16.0733,49.176L18.8842,49.176M16.0052,49.104L18.858,49.104M15.9375,49.032L18.8322,49.032M15.8694,48.96L18.8065,48.96M15.8018,48.888L18.7759,48.888M15.7337,48.816L18.7373,48.816M15.6779,48.744L18.6988,48.744M15.6294,48.672L18.6599,48.672M15.5809,48.6L17.5416,48.6M17.7985,48.6L18.6083,48.6M15.5324,48.528L17.3588,48.528M17.9294,48.528L18.5508,48.528M15.4837,48.456L17.2508,48.456M18.004,48.456L18.4932,48.456M15.4352,48.384L17.1513,48.384M18.0567,48.384L18.436,48.384M15.3868,48.312L17.0546,48.312M18.0723,48.312L18.3716,48.312M15.3516,48.24L16.971,48.24M18.0723,48.24L18.2838,48.24M15.3224,48.168L16.9042,48.168M18.0723,48.168L18.1956,48.168M15.2932,48.096L16.844,48.096M18.0723,48.096L18.1077,48.096M15.2833,48.024L16.7995,48.024M15.2736,47.952L16.7584,47.952M15.266,47.88L16.7284,47.88M15.2745,47.808L16.7015,47.808M15.283,47.736L16.6873,47.736M15.2952,47.664L16.6884,47.664M15.323,47.592L16.7026,47.592M15.3508,47.52L16.7244,47.52M15.3899,47.448L16.7561,47.448M15.4412,47.376L16.8007,47.376M15.495,47.304L16.8619,47.304M15.571,47.232L16.939,47.232M15.647,47.16L17.0722,47.16M15.7351,47.088L17.5465,47.088M15.8352,47.016L17.454,47.016M15.9483,46.944L17.3135,46.944M16.0932,46.872L17.1471,46.872M16.3273,46.8L16.884,46.8"/>
      </g>
     </g>
    </g>
    <g >
     <title >element:JP5</title>
     <g >
      <title >package:FIDUCIAL-1X2</title>
     </g>
    </g>
    <g >
     <title >element:JP6</title>
     <g >
      <title >package:FIDUCIAL-1X2</title>
     </g>
    </g>
    <g >
     <title >element:U1</title>
     <g >
      <title >package:SSOP24</title>
      <line  stroke="white" stroke-linecap="round" y1="20.3527" x1="35.8866" y2="44.4473" stroke-width="0.576" x2="35.8866"/>
      <line  stroke="white" stroke-linecap="round" y1="44.4473" x1="35.8866" y2="44.4473" stroke-width="0.576" x2="21.7134"/>
      <line  stroke="white" stroke-linecap="round" y1="44.4473" x1="21.7134" y2="20.3527" stroke-width="0.576" x2="21.7134"/>
      <line  stroke="white" stroke-linecap="round" y1="20.3527" x1="21.7134" y2="20.3527" stroke-width="0.576" x2="35.8866"/>
      <circle  fill="none" cx="23.76" cy="22.32" stroke="white" r="0.632409" stroke-width="0.576"/>
     </g>
    </g>
   </g>
   <rect  width="14.7401" x="21.4299" y="6.26457" fill="#333333" height="8.92915" stroke="none" fill-opacity="1" stroke-width="0"/>
   <rect  width="14.1732" x="21.7134" y="20.3527" fill="#333333" height="24.0945" stroke="none" fill-opacity="1" stroke-width="0"/>
   <circle  fill="none" cx="7.2" cy="54" connectorname="GND" stroke="#9A916C" r="2.052" id="connector6pin" stroke-width="1.224"/>
   <path  fill="#9A916C" stroke="none" stroke-width="0" d="m2.4804,51.948,9.4392,0,0,4.104,-9.4392,0,0,-4.104M5.148,54a2.052,2.052,0,1,0,4.104,0,2.052,2.052,0,1,0,-4.104,0z"/>
   <circle  fill="none" cx="7.2" cy="46.8" connectorname="B01" stroke="#9A916C" r="2.052" id="connector7pin" stroke-width="1.224"/>
   <path  fill="#9A916C" stroke="none" stroke-width="0" d="m2.4804,44.748,9.4392,0,0,4.104,-9.4392,0,0,-4.104M5.148,46.8a2.052,2.052,0,1,0,4.104,0,2.052,2.052,0,1,0,-4.104,0z"/>
   <circle  fill="none" cx="7.2" cy="39.6" connectorname="B02" stroke="#9A916C" r="2.052" id="connector8pin" stroke-width="1.224"/>
   <path  fill="#9A916C" stroke="none" stroke-width="0" d="m2.4804,37.548,9.4392,0,0,4.104,-9.4392,0,0,-4.104M5.148,39.6a2.052,2.052,0,1,0,4.104,0,2.052,2.052,0,1,0,-4.104,0z"/>
   <circle  fill="none" cx="7.2" cy="32.4" connectorname="A02" stroke="#9A916C" r="2.052" id="connector9pin" stroke-width="1.224"/>
   <path  fill="#9A916C" stroke="none" stroke-width="0" d="m2.4804,30.348,9.4392,0,0,4.104,-9.4392,0,0,-4.104M5.148,32.4a2.052,2.052,0,1,0,4.104,0,2.052,2.052,0,1,0,-4.104,0z"/>
   <circle  fill="none" cx="7.2" cy="25.2" connectorname="A01" stroke="#9A916C" r="2.052" id="connector10pin" stroke-width="1.224"/>
   <path  fill="#9A916C" stroke="none" stroke-width="0" d="m2.4804,23.148,9.4392,0,0,4.104,-9.4392,0,0,-4.104M5.148,25.2a2.052,2.052,0,1,0,4.104,0,2.052,2.052,0,1,0,-4.104,0z"/>
   <circle  fill="none" cx="7.2" cy="18" connectorname="GND" stroke="#9A916C" r="2.052" id="connector11pin" stroke-width="1.224"/>
   <path  fill="#9A916C" stroke="none" stroke-width="0" d="m2.4804,15.948,9.4392,0,0,4.104,-9.4392,0,0,-4.104M5.148,18a2.052,2.052,0,1,0,4.104,0,2.052,2.052,0,1,0,-4.104,0z"/>
   <circle  fill="none" cx="7.2" cy="10.8" connectorname="VCC" stroke="#9A916C" r="2.052" id="connector12pin" stroke-width="1.224"/>
   <path  fill="#9A916C" stroke="none" stroke-width="0" d="m2.4804,8.748,9.4392,0,0,4.104,-9.4392,0,0,-4.104M5.148,10.8a2.052,2.052,0,1,0,4.104,0,2.052,2.052,0,1,0,-4.104,0z"/>
   <circle  fill="none" cx="7.2" cy="3.6" connectorname="VM" stroke="#9A916C" r="2.052" id="connector13pin" stroke-width="1.224"/>
   <path  fill="#9A916C" stroke="none" stroke-width="0" d="m2.4804,1.548,9.4392,0,0,4.104,-9.4392,0,0,-4.104M5.148,3.6a2.052,2.052,0,1,0,4.104,0,2.052,2.052,0,1,0,-4.104,0z"/>
   <circle  fill="none" cx="50.4" cy="3.6" connectorname="PWMA" stroke="#9A916C" r="2.052" id="connector14pin" stroke-width="1.224"/>
   <path  fill="#9A916C" stroke="none" stroke-width="0" d="m45.6804,1.548,9.4392,0,0,4.104,-9.4392,0,0,-4.104M48.348,3.6a2.052,2.052,0,1,0,4.104,0,2.052,2.052,0,1,0,-4.104,0z"/>
   <circle  fill="none" cx="50.4" cy="10.8" connectorname="AIN2" stroke="#9A916C" r="2.052" id="connector15pin" stroke-width="1.224"/>
   <path  fill="#9A916C" stroke="none" stroke-width="0" d="m45.6804,8.748,9.4392,0,0,4.104,-9.4392,0,0,-4.104M48.348,10.8a2.052,2.052,0,1,0,4.104,0,2.052,2.052,0,1,0,-4.104,0z"/>
   <circle  fill="none" cx="50.4" cy="18" connectorname="AIN1" stroke="#9A916C" r="2.052" id="connector16pin" stroke-width="1.224"/>
   <path  fill="#9A916C" stroke="none" stroke-width="0" d="m45.6804,15.948,9.4392,0,0,4.104,-9.4392,0,0,-4.104M48.348,18a2.052,2.052,0,1,0,4.104,0,2.052,2.052,0,1,0,-4.104,0z"/>
   <circle  fill="none" cx="50.4" cy="25.2" connectorname="STBY" stroke="#9A916C" r="2.052" id="connector17pin" stroke-width="1.224"/>
   <path  fill="#9A916C" stroke="none" stroke-width="0" d="m45.6804,23.148,9.4392,0,0,4.104,-9.4392,0,0,-4.104M48.348,25.2a2.052,2.052,0,1,0,4.104,0,2.052,2.052,0,1,0,-4.104,0z"/>
   <circle  fill="none" cx="50.4" cy="32.4" connectorname="BIN1" stroke="#9A916C" r="2.052" id="connector18pin" stroke-width="1.224"/>
   <path  fill="#9A916C" stroke="none" stroke-width="0" d="m45.6804,30.348,9.4392,0,0,4.104,-9.4392,0,0,-4.104M48.348,32.4a2.052,2.052,0,1,0,4.104,0,2.052,2.052,0,1,0,-4.104,0z"/>
   <circle  fill="none" cx="50.4" cy="39.6" connectorname="BIN2" stroke="#9A916C" r="2.052" id="connector19pin" stroke-width="1.224"/>
   <path  fill="#9A916C" stroke="none" stroke-width="0" d="m45.6804,37.548,9.4392,0,0,4.104,-9.4392,0,0,-4.104M48.348,39.6a2.052,2.052,0,1,0,4.104,0,2.052,2.052,0,1,0,-4.104,0z"/>
   <circle  fill="none" cx="50.4" cy="46.8" connectorname="PWMB" stroke="#9A916C" r="2.052" id="connector20pin" stroke-width="1.224"/>
   <path  fill="#9A916C" stroke="none" stroke-width="0" d="m45.6804,44.748,9.4392,0,0,4.104,-9.4392,0,0,-4.104M48.348,46.8a2.052,2.052,0,1,0,4.104,0,2.052,2.052,0,1,0,-4.104,0z"/>
   <circle  fill="none" cx="50.4" cy="54" connectorname="GND" stroke="#9A916C" r="2.052" id="connector21pin" stroke-width="1.224"/>
   <path  fill="#9A916C" stroke="none" stroke-width="0" d="m45.6804,51.948,9.4392,0,0,4.104,-9.4392,0,0,-4.104M48.348,54a2.052,2.052,0,1,0,4.104,0,2.052,2.052,0,1,0,-4.104,0z"/>
  </g>
 </g>
</svg>
