<?xml version='1.0' encoding='UTF-8' standalone='no'?>
<!-- Generator: Adobe Illustrator 13.0.2, SVG Export Plug-In . SVG Version: 6.00 Build 14948)  -->
<svg width="0.7in" x="0px" version="1.1" y="0px" xmlns="http://www.w3.org/2000/svg" height="0.33in" viewBox="0 0 50.4 23.76" xmlns:xml="http://www.w3.org/XML/1998/namespace" id="svg2" enable-background="new 0 0 50.4 23.76" xml:space="preserve">
 <g id="breadboard">
  <metadata id="metadata6708">
   <rdf:RDF xmlns:rdf="http://www.w3.org/1999/02/22-rdf-syntax-ns#">
    <cc:Work xmlns:rdf="http://www.w3.org/1999/02/22-rdf-syntax-ns#" xmlns:cc="http://creativecommons.org/ns#" rdf:about="">
     <dc:format xmlns:dc="http://purl.org/dc/elements/1.1/">image/svg+xml</dc:format>
     <dc:type xmlns:rdf="http://www.w3.org/1999/02/22-rdf-syntax-ns#" rdf:resource="http://purl.org/dc/dcmitype/StillImage" xmlns:dc="http://purl.org/dc/elements/1.1/"/>
     <dc:title xmlns:dc="http://purl.org/dc/elements/1.1/"/>
    </cc:Work>
   </rdf:RDF>
  </metadata>
  <defs id="defs6706"/>
  <sodipodi:namedview showgrid="false" objecttolerance="10" xmlns:sodipodi="http://sodipodi.sourceforge.net/DTD/sodipodi-0.dtd" pagecolor="#ffffff" bordercolor="#666666" id="namedview72" borderopacity="1" guidetolerance="10" showguides="true" gridtolerance="10">
   <sodipodi:guide position="29.7,61.875" xmlns:sodipodi="http://sodipodi.sourceforge.net/DTD/sodipodi-0.dtd" id="guide7097" orientation="1,0"/>
  </sodipodi:namedview>
  <rect width="50.400002" x="0" y="2.1600001" height="19.440001" style="fill:#303030" id="middle"/>
  <rect width="50.400002" x="0" y="2.1600001" height="1.771" style="fill:#3d3d3d" id="top"/>
  <rect width="50.400002" x="0" y="19.829" height="1.771" id="bottom"/>
  <polygon points="50.4,2.16 49.86,3.931 49.86,19.829 50.4,21.601 " style="fill:#141414" id="right"/>
  <polygon points="0,2.16 0.54,3.931 0.54,19.829 0,21.601 " style="fill:#1f1f1f" id="left"/>
  <polygon points="3.6,11.88 3.6,8.28 0.54,8.251 0.403,9.777 0.403,11.88 " style="fill:#1c1c1c" id="left-upper-rect"/>
  <polygon points="0.403,13.981 0.54,15.517 3.6,15.517 3.6,11.88 0.403,11.88 " style="fill:#383838" id="left-lower-rect"/>
  <path style="fill:#262626" id="slot" d="m 0.403,9.777 v 4.199 C 1.462,13.853 2.29,12.967 2.29,11.872 2.29,10.777 1.469,9.9 0.403,9.777 z"/>
  <path style="fill:#303030" id="cover" d="m 0.54,3.931 v 4.313 c 1.714,0.324 3.018,1.821 3.018,3.629 0,1.808 -1.298,3.312 -3.018,3.636 v 0.008 h 3.6 V 3.931 h -3.6 z"/>
  <circle cx="4.6799998" cy="16.898001" style="fill:#212121" r="1.483" id="circle13"/>
  <rect width="2.1600001" x="2.52" y="20.636" height="3.1240001" style="fill:#8c8c8c" id="connector0pin"/>
  <rect width="2.1600001" x="2.52" y="21.601" height="2.1589999" style="fill:#8c8c8c" id="rect6651"/>
  <polygon points="6.12,20.636 2.52,20.636 2.52,22.075 4.68,22.075 6.12,21.413 " style="fill:#8c8c8c" id="polygon18"/>
  <rect width="2.1600001" x="2.52" y="0" height="3.125" style="fill:#8c8c8c" id="connector13pin"/>
  <rect width="2.1600001" x="2.52" y="0" height="2.1600001" style="fill:#8c8c8c" id="rect6655"/>
  <polygon points="2.52,3.125 6.12,3.125 6.12,2.347 4.68,1.685 2.52,1.685 " style="fill:#8c8c8c" id="polygon22"/>
  <rect width="2.158" x="45.720001" y="20.636" height="3.1240001" style="fill:#8c8c8c" id="connector6pin"/>
  <rect width="2.158" x="45.720001" y="21.601" height="2.1589999" style="fill:#8c8c8c" id="rect6659"/>
  <polygon points="47.88,20.636 44.28,20.636 44.28,21.413 45.72,22.075 47.88,22.075 " style="fill:#8c8c8c" id="polygon26"/>
  <rect width="2.158" x="45.720001" y="0" height="3.125" style="fill:#8c8c8c" id="connector7pin"/>
  <rect width="2.158" x="45.720001" y="0" height="2.1600001" style="fill:#8c8c8c" id="rect6663"/>
  <polygon points="44.28,3.125 47.88,3.125 47.88,1.685 45.72,1.685 44.28,2.347 " style="fill:#8c8c8c" id="polygon30"/>
  <rect width="2.158" x="9.7200003" y="20.636" height="3.1240001" style="fill:#8c8c8c" id="connector1pin"/>
  <rect width="2.158" x="9.7200003" y="21.601" height="2.1589999" style="fill:#8c8c8c" id="rect6667"/>
  <polygon points="13.32,21.413 13.32,20.636 8.28,20.636 8.28,21.413 9.72,22.075 11.88,22.075 " style="fill:#8c8c8c" id="polygon34"/>
  <rect width="2.158" x="9.7200003" y="0" height="3.125" style="fill:#8c8c8c" id="connector12pin"/>
  <rect width="2.158" x="9.7200003" y="0" height="2.1600001" style="fill:#8c8c8c" id="rect6671"/>
  <polygon points="8.28,2.347 8.28,3.125 13.32,3.125 13.32,2.347 11.88,1.685 9.72,1.685 " style="fill:#8c8c8c" id="polygon38"/>
  <rect width="2.1600001" x="16.92" y="20.636" height="3.1240001" style="fill:#8c8c8c" id="connector2pin"/>
  <rect width="2.1600001" x="16.92" y="21.601" height="2.1589999" style="fill:#8c8c8c" id="rect6675"/>
  <polygon points="20.52,21.413 20.52,20.636 15.48,20.636 15.48,21.413 16.92,22.075 19.08,22.075 " style="fill:#8c8c8c" id="polygon42"/>
  <rect width="2.1600001" x="16.92" y="0" height="3.125" style="fill:#8c8c8c" id="connector11pin"/>
  <rect width="2.1600001" x="16.92" y="0" height="2.1600001" style="fill:#8c8c8c" id="rect6679"/>
  <polygon points="15.48,2.347 15.48,3.125 20.52,3.125 20.52,2.347 19.08,1.685 16.92,1.685 " style="fill:#8c8c8c" id="polygon46"/>
  <rect width="2.1600001" x="24.120001" y="20.636" height="3.1240001" style="fill:#8c8c8c" id="connector3pin"/>
  <rect width="2.1600001" x="24.120001" y="21.601" height="2.1589999" style="fill:#8c8c8c" id="rect6683"/>
  <polygon points="27.72,21.413 27.72,20.636 22.68,20.636 22.68,21.413 24.12,22.075 26.28,22.075 " style="fill:#8c8c8c" id="polygon50"/>
  <rect width="2.1600001" x="24.120001" y="0" height="3.125" style="fill:#8c8c8c" id="connector10pin"/>
  <rect width="2.1600001" x="24.120001" y="0" height="2.1600001" style="fill:#8c8c8c" id="rect6687"/>
  <polygon points="22.68,2.347 22.68,3.125 27.72,3.125 27.72,2.347 26.28,1.685 24.12,1.685 " style="fill:#8c8c8c" id="polygon54"/>
  <rect width="2.1600001" x="31.32" y="20.636" height="3.1240001" style="fill:#8c8c8c" id="connector4pin"/>
  <rect width="2.1600001" x="31.32" y="21.601" height="2.1589999" style="fill:#8c8c8c" id="rect6691"/>
  <polygon points="34.92,21.413 34.92,20.636 29.88,20.636 29.88,21.413 31.32,22.075 33.48,22.075 " style="fill:#8c8c8c" id="polygon58"/>
  <rect width="2.1600001" x="31.32" y="0" height="3.125" style="fill:#8c8c8c" id="connector9pin"/>
  <rect width="2.1600001" x="31.32" y="0" height="2.1600001" style="fill:#8c8c8c" id="rect6695"/>
  <polygon points="29.88,2.347 29.88,3.125 34.92,3.125 34.92,2.347 33.48,1.685 31.32,1.685 " style="fill:#8c8c8c" id="polygon62"/>
  <rect width="2.1600001" x="38.52" y="20.636" height="3.1240001" style="fill:#8c8c8c" id="connector5pin"/>
  <rect width="2.1600001" x="38.52" y="21.601" height="2.1589999" style="fill:#8c8c8c" id="rect6699"/>
  <polygon points="42.12,21.413 42.12,20.636 37.08,20.636 37.08,21.413 38.52,22.075 40.68,22.075 " style="fill:#8c8c8c" id="polygon66"/>
  <rect width="2.1600001" x="38.52" y="0" height="3.125" style="fill:#8c8c8c" id="connector8pin"/>
  <rect width="2.1600001" x="38.52" y="0" height="2.1600001" style="fill:#8c8c8c" id="rect6703"/>
  <polygon points="37.08,2.347 37.08,3.125 42.12,3.125 42.12,2.347 40.68,1.685 38.52,1.685 " style="fill:#8c8c8c" id="polygon70"/>
  <g style="font-size:7.71929169px;font-style:normal;font-variant:normal;font-weight:normal;font-stretch:normal;text-align:start;line-height:125%;letter-spacing:0px;word-spacing:0px;writing-mode:lr-tb;text-anchor:start;fill:#000000;fill-opacity:1;stroke:none;font-family:DroidSans;-inkscape-font-specification:DroidSans" id="text6785" xml:space="preserve" transform="scale(1.4509104,0.68922244)">
   <text x="8.2323437" y="19.716202" style="font-size:6.80925369px;font-style:normal;font-variant:normal;font-weight:bold;font-stretch:normal;letter-spacing:0px;fill:#666666;font-family:DejaVu Sans Mono;-inkscape-font-specification:DejaVu Sans Mono Bold" id="tspan6787">TL074</text>
  </g>
 </g>
</svg>
