<?xml version="1.0" encoding="utf-8"?>
<!-- Generator: Adobe Illustrator 16.0.0, SVG Export Plug-In . SVG Version: 6.00 Build 0)  -->
<!DOCTYPE svg PUBLIC "-//W3C//DTD SVG 1.1//EN" "http://www.w3.org/Graphics/SVG/1.1/DTD/svg11.dtd">
<svg version="1.1" id="Ebene_1" xmlns="http://www.w3.org/2000/svg" xmlns:xlink="http://www.w3.org/1999/xlink" x="0px" y="0px"
	 width="283.465px" height="170.078px" viewBox="0 0 283.465 170.078" enable-background="new 0 0 283.465 170.078"
	 xml:space="preserve">
<g id="board">
	<g>
		<g id="boardoutline_9_">
			<path opacity="0.5" fill="#F2F2F2" d="M28.635,0.288h225.94c15.655,0,28.347,12.69,28.347,28.346v112.555
				c0,15.655-12.691,28.347-28.347,28.347H28.635c-15.655,0-28.347-12.691-28.347-28.347V28.634
				C0.288,12.979,12.979,0.288,28.635,0.288z"/>
		</g>
	</g>
</g>
<g id="silkscreen">
	<g>
		<g>
			<path opacity="0.5" fill="none" stroke="#000000" stroke-width="0.75" d="M28.635,0.288h225.94
				c15.655,0,28.347,12.69,28.347,28.346v112.555c0,15.655-12.691,28.347-28.347,28.347H28.635
				c-15.655,0-28.347-12.691-28.347-28.347V28.634C0.288,12.979,12.979,0.288,28.635,0.288z"/>
		</g>
	</g>
</g>
</svg>
